<?xml version="1.0" encoding="utf-8"?>
<!-- Generator: Adobe Illustrator 19.1.0, SVG Export Plug-In . SVG Version: 6.00 Build 0)  -->
<svg version="1.1" id="Layer_1" xmlns="http://www.w3.org/2000/svg" xmlns:xlink="http://www.w3.org/1999/xlink" x="0px" y="0px"
	 viewBox="0 0 50 50" enable-background="new 0 0 50 50" xml:space="preserve">
<g>
	<g>
		<path fill="#FFFFFF" d="M45.7,25c-0.1-0.1-0.3,0-0.3,0.2l0.3,0.1L45.7,25z"/>
		<path fill="#FFFFFF" d="M45,26.2c0.1,0.2,0.4,0.5,0.7,0.4c-0.3-0.2-0.2-0.3-0.5-0.5c0-0.2,0.1-0.3,0.2-0.3
			c-0.1-0.1,0.1-0.3-0.1-0.4c-0.3,0.2-0.3,0.5-0.1,0.9C45.2,26.3,45.1,26.3,45,26.2z"/>
		<path fill="#FFFFFF" d="M36.4,41l0.1,0C36.4,40.9,36.4,40.9,36.4,41z"/>
		<path fill="#FFFFFF" d="M26.3,44.3c0.1,0,0.1,0,0.1-0.1C26.3,44.3,26.3,44.3,26.3,44.3z"/>
		<path fill="#FFFFFF" d="M24.5,44c0,0,0.1,0,0.1,0C24.5,44,24.5,44,24.5,44z"/>
		<path fill="#FFFFFF" d="M36.4,41L36.1,41C36.1,41.1,36.2,41,36.4,41z"/>
		<path fill="#FFFFFF" d="M45.5,28.8c0-0.1,0-0.1-0.1-0.2C45.5,28.7,45.5,28.8,45.5,28.8L45.5,28.8z"/>
		<path fill="#FFFFFF" d="M39.7,37.6L39.7,37.6c0-0.1,0-0.2,0-0.2L39.7,37.6z"/>
		<path fill="#FFFFFF" d="M41.7,34.6c-0.1,0.1,0.2,0.2,0.3,0.3c-0.1-0.1-0.1-0.2-0.1-0.3C41.8,34.6,41.8,34.6,41.7,34.6z"/>
		<path fill="#FFFFFF" d="M44.3,29.4l0-0.1C44.2,29.3,44.3,29.4,44.3,29.4z"/>
		<path fill="#FFFFFF" d="M37.8,39.4C37.8,39.3,37.7,39.3,37.8,39.4C37.7,39.3,37.8,39.4,37.8,39.4z"/>
		<path fill="#FFFFFF" d="M45.9,20.4C45.9,20.4,45.8,20.4,45.9,20.4C45.9,20.4,45.9,20.4,45.9,20.4z"/>
		<path fill="#FFFFFF" d="M45,25L45,25c-0.1-0.1-0.1-0.1-0.2-0.1L45,25z"/>
		<path fill="#FFFFFF" d="M21.3,43.3L21.3,43.3C21.4,43.3,21.3,43.3,21.3,43.3z"/>
		<path fill="#FFFFFF" d="M6.5,21c-0.3,0.3-0.2-0.6-0.6-0.2C6.1,20.8,6.3,21.4,6.5,21z"/>
		<path fill="#FFFFFF" d="M45.5,28.9c0,0.1,0,0.1,0,0.2C45.5,29,45.5,29,45.5,28.9z"/>
		<path fill="#FFFFFF" d="M6,20.8L6,20.8L6,20.8C5.9,20.9,5.9,20.8,6,20.8z"/>
		<path fill="#FFFFFF" d="M14.4,40.6c0,0.1,0,0.1,0,0.1C14.4,40.7,14.4,40.7,14.4,40.6z"/>
		<path fill="#FFFFFF" d="M19.3,43.4l-0.1-0.1C19.2,43.4,19.2,43.4,19.3,43.4z"/>
		<path fill="#FFFFFF" d="M11.9,39.1c0-0.1,0-0.1-0.1-0.2c0,0,0,0,0,0C11.8,38.9,11.8,39,11.9,39.1z"/>
		<path fill="#FFFFFF" d="M9.8,36.8C9.8,36.8,9.8,36.8,9.8,36.8l0.1,0.1L9.8,36.8z"/>
		<path fill="#FFFFFF" d="M41.2,11.3c0,0.1,0,0.2-0.1,0.3C41.2,11.4,41.6,11.7,41.2,11.3z"/>
		<path fill="#FFFFFF" d="M45.4,28.8c0.1,0,0.1,0.1,0.1,0.1l0-0.1C45.5,28.8,45.4,28.8,45.4,28.8z"/>
		<path fill="#FFFFFF" d="M10.2,40.6l-0.4-0.4C10,40.3,10.1,40.4,10.2,40.6z"/>
		<path fill="#FFFFFF" d="M19.1,4.6l0.1-0.1C19.2,4.6,19.2,4.6,19.1,4.6z"/>
		<path fill="#FFFFFF" d="M8.8,39c0-0.1,0-0.3-0.1-0.4c0,0-0.1,0-0.1,0L8.8,39z"/>
		<path fill="#FFFFFF" d="M41.1,11.6L41.1,11.6L41.1,11.6z"/>
		<path fill="#FFFFFF" d="M43.7,14.1c-0.3-0.5-0.4,0-0.7,0c-0.4-0.5,0.1-0.4,0.1-0.7c-0.3-0.3-0.7-0.3-0.9-0.6c0-0.1,0-0.1,0.1-0.1
			c-0.5-0.1-0.7-1-1.3-1.1c0,0,0-0.1,0-0.1c-0.1,0.2-0.2,0.3-0.3,0.4c-0.2-0.2-0.5-0.2-0.3-0.4c0.1,0.1,0.2,0.1,0.3,0l-0.2-0.1
			c0.1-0.4,0.3,0.2,0.5,0c-0.4-0.3-1-0.5-1.1-0.8c0.2-0.3,0.6,0.5,0.5,0l0.3,0.5c0.1-0.7,0.2,0.3,0.4-0.4c-0.4-0.6-0.7-0.5-1.1-1.1
			c-0.3,0-0.2,0.2-0.4,0.3c-1-0.4,0-1.2-0.9-1.4c-0.3,0-0.6,0.3-0.9-0.2l0.4-0.2c-0.5-0.5-0.7,0.2-1.1-0.4c0.2,0,0.5,0.2,0.5,0.1
			c-0.2-0.5-0.4,0-0.7-0.2l0.1-0.3c-0.7-0.3-1.5-0.6-2.3-0.9c0.1-0.1,0.3-0.1,0.1-0.3c-0.5-0.2-1-0.4-1.5-0.7
			c-0.5-0.2-1-0.5-1.4-0.8l-0.5,0.1c-0.1,0-0.1-0.2,0-0.2C31,4.4,31.3,4.8,31,4.8c-0.2,0-0.2-0.2-0.1-0.3c-0.8,0.1-2,0-2.7-0.4
			l0.2-0.1c-0.6-0.2-0.7,0.5-1.2,0.1l0.1,0c-1.2-0.2-2.6,0-3.5-0.4c-0.1,0.4-1.3-0.1-1.3,0.5C21.8,4.2,21.9,4,20.9,4
			c-0.3,0-0.3,0.4-0.6,0.6l-0.1-0.3l-0.4,0.4l-0.3-0.3l-0.3,0.2c0.1,0,0.3,0.1,0.3,0.2c-0.4,0.2-1.2,0.1-1.3,0l-1,0.6
			c0-0.1,0.1-0.2,0.3-0.4c-0.5,0.5-0.2-0.3-0.7,0.2c0.1,0,0,0.2,0,0.2c-0.3-0.1-0.9,0.2-1.3,0.5l0-0.2c-0.8,0.3-1.6,1-2.4,1.4
			c0.3-0.1,0.5,0.3,0.3,0.4l-0.3-0.2c0,0.3,0.3,0,0.1,0.3c-0.3,0.2-0.4-0.2-0.3-0.4l-0.3,0.4c-0.1-0.1,0-0.2-0.1-0.3
			c0,0.3-0.8,0.2-0.8,0.6L11.9,8c-0.8,0.6-1,1-1.6,1.5c0.2,0.2-0.1,0.4-0.1,0.7c-0.4,0.4-1,0.7-1.5,1.2c-0.2,0.5,0.1,0.3,0.1,0.5
			c-0.2-0.1-0.6,0.4-0.5,0c-0.4,0.7-0.6,0.9-1,1.9c0.1,0,0.3-0.1,0.3,0C7.5,14,7.2,14.1,7.1,14l0-0.1C7,14.5,6.5,15,6.1,15.5
			c-0.4,0.5-0.9,1-0.8,1.6l0-0.1l-0.1,1C5,18.4,5.1,17.7,4.9,18c0,0.6-0.1,0.9-0.2,1.3c-0.1,0.4-0.3,0.7-0.2,1.2
			c-0.5,0.2-0.5,0.8-0.6,1.5c0,0.3,0,0.6-0.1,0.9c0,0.3-0.1,0.6-0.2,0.8l0.2,0c0.2,0.2-0.1,0.3-0.2,0.4c0.1,0,0.2-0.2,0.3-0.1
			c0,1,0,2,0,3c0,0.5,0,1,0,1.6l0,0.8L4,30.1c0.1,0.7,1,0.2,0.8,1.2l-0.4-0.2c0.4,0.7,0.7,1.4,0.9,2.1c0.3,0.7,0.6,1.4,1.1,2
			c-0.1,0-0.2,0-0.3-0.1c-0.1,0.4,0.6,1,0.7,0.9c0.1,0.2-0.1,0.1-0.1,0.3c0,0.3,0.7,0.5,0.6,0.8c0,0-0.1,0-0.2-0.1
			c0.2,0.1,0.5,0.8,0.6,0.5c0.2,0.5,0.7,0.8,0.9,1.2c0.4,0,0.5,0.8,0.9,0.6c-0.4,0.3,0.4,1,0.8,1c-0.2,0,0.1,0.3-0.1,0.4
			c0.3,0.3,0.6,0.4,0.7,0.2c0.2,0.9,1.4,0.6,1.3,1.4c0.3,0.1,0.5,0.3,0.8,0.4c0.3,0.1,0.5,0.2,0.8,0.3c0.5,0.2,1,0.5,1.5,0.6
			c-0.3,0.4-1-0.5-1.2-0.1c0.9,0.4,1.7,0.2,2.5,0.8c0.2,0.2-0.2,0.1-0.3,0.1c0.5,0.2,0.9,0.3,1.4,0.5c0.4,0.2,0.9,0.3,1.3,0.3
			c0,0-0.1,0.1-0.2,0.1c0.2,0,0.4,0.2,0.4,0l-0.2,0c-0.2-0.4,0.8-0.4,0.9-0.6c-0.4,0.5,0.8,0.4,0.2,1c0.1,0,0.3-0.1,0.3-0.2
			c0.2,0.1,0.2,0.2,0,0.3c0.6,0,0.5-0.2,1-0.1c0,0.1-0.1,0.1-0.2,0.2c0.3-0.1,0.6-0.3,1.1-0.1c0,0.1,0,0.1-0.1,0.1
			c0.8,0.1,1.4-0.4,2.3-0.1c-0.3,0.4,0.3,0.2,0.3,0.5c0,0,0.1,0,0.2,0c0.1,0,0.2-0.1,0.2-0.1l-0.2-0.2c0.4,0,0.8-0.3,1.1-0.2
			l-0.3,0.2l0.8-0.1l-0.5-0.1c0.4-0.2-0.1-0.5,0.5-0.4c-0.1,0,0.4,0,0.6,0.2l0,0c0.2-0.1,0.4-0.3,0.7-0.3c0.1,0.1,0,0.4,0.1,0.5
			c0.2-0.3,1-0.2,1.1-0.6c-0.1,0.1,0,0.3,0,0.3l0.1-0.3c0.2,0,0.2,0.1,0.2,0.2c0.6-0.1-0.3-0.4,0.4-0.4c0,0,0,0.1-0.1,0.1
			c0.7-0.1,1.2-0.5,1.9-0.6c0.3,0.3-0.5,0.3-0.2,0.5c0.4-0.2,0.8-0.5,1.2-0.7c0.4-0.3,0.8-0.5,1.2-0.7l-0.2,0c-0.1-0.5,0.7,0,1-0.5
			c-0.1,0.1,0,0.3,0,0.3c0.6-0.2,1-0.8,1.7-1.4l0,0.2c0.4-0.1,0.8-0.5,1.1-0.7c0-0.2,0.2-0.3,0-0.4c0.7,0,1.1-0.5,1.4-1
			c0.3-0.4,0.6-0.9,1.2-1.1c-0.1,0.1-0.1,0.3,0,0.2l0.5-0.8c-0.2-0.1-0.2,0-0.4,0c0-0.2,0.1-0.4,0.2-0.6c-0.2,0.4,0.3,0.2,0.5,0.2
			c-0.1,0-0.1-0.1-0.2-0.2c0.6-0.1-0.3-0.4,0.3-0.7l0.1,0.1c0.1-0.2,0.1-0.5,0.3-0.7c0.3,0.1,0,0.3,0.1,0.4c0.2-0.3,0-0.8,0.4-1
			c0,0.2-0.1,0.4-0.2,0.5c0.5-0.1,0.4-0.2,0.6-0.4l0,0l0.4-0.5l-0.2,0.1c-0.4-0.8,0.4-0.8,0.2-1.6c0.1,0.7,0.2,0.2,0.4,0.4
			c0.1-0.1,0.3-0.3,0.4-0.2c-0.1-0.4,0.4-0.4,0.2-0.9c0.1,0,0.1-0.3,0.3-0.1c0.1-0.4-0.2,0-0.3-0.1c-0.1-0.6,0.9-1.1,0.7-2.1
			c0-0.7-0.3-1-0.3-1.6c0.2-0.2,0.3,0.3,0.3,0.3c0.2-0.3,0.3-0.6,0.2-0.9c0.1,0.1,0.2,0,0.3-0.1c0-0.3-0.3-0.2-0.1-0.6
			c0.1,0.1,0.3,0.2,0.3,0.3c0-0.3-0.2-0.7-0.2-1c0.2-0.1,0.2,0.2,0.3,0.4c0-0.4,0-1-0.3-1.1l-0.1,0.2c0-0.1,0.2,0,0.3,0.1
			c0.2,0.3-0.2,0.5-0.3,0.5l0-0.2c-0.6,0.2-0.1,0.9-0.2,1.4l-0.4-0.3l0.3,0.5c-0.1,0.1-0.4,0.1-0.4-0.1c-0.3,0.3,0.1,0.3-0.2,0.5
			c0,0-0.1,0-0.1,0l0,0.3c-0.1-0.1-0.3,0-0.2-0.2c-0.4,0.5,0.1,1-0.3,1.1l0-0.1c-0.1,0.8,0.3,0.2,0.4,0.9l-0.9,0.1l0.3,0.2
			c0,0.1-0.1,0.2-0.2,0.1c0.1,0.4,0.1,0,0.3,0.2c-0.4,0.3-0.3,1.1-0.8,1c0.1,0.2,0.3-0.3,0.3,0.2c-0.5-0.1-0.1,0.5-0.5,0.7
			c-0.2-0.2,0.1-0.5-0.3-0.3c0.3,0.4-0.4,0.6-0.5,0.9c0.3,0.2-0.2,0.6-0.4,1.1c-0.1-0.1-0.7,0.7-1.1,1l0,0c0.2,0.3-0.1,0.7-0.3,1
			c-0.2-0.2-0.2-0.3-0.1-0.5c0,0-0.2,0.2-0.2,0.2c0,0.1,0,0.3-0.1,0.4l-0.1-0.2c-0.3,0.3-0.3,0.9-0.9,1.2c0.2,0.2,0.8,0.2,0.5,0.7
			c-0.1-0.1-0.3-0.2-0.2-0.4c0,0-0.1,0.2-0.2,0.2l0-0.3c-0.3,0.1,0,0.2-0.1,0.4c-0.1-0.1-0.2,0-0.3-0.1c0,0,0.2-0.1,0.2-0.2
			c-0.2,0.1-0.5,0.2-0.7,0.2c0.1,0.1,0.2,0.2,0.1,0.3c-0.3,0.3-0.3-0.1-0.5,0c0,0.2-0.3,0.2-0.1,0.5c-0.1,0.1-0.2,0-0.3,0
			c-0.1,0.2-0.8,0.7-0.4,0.8l0.1,0l0,0l0,0l0,0c-0.4,0.7-1.4,0.7-2,1.2l0-0.1c-0.3,0.3-0.9,0.5-1.1,0.8c-0.1,0.1-0.4,0-0.4-0.2
			c-0.3,0.2-0.3,0.4-0.8,0.4c0.3-0.3-0.2-0.1,0.3-0.2c-0.5,0.1-0.6,0-0.9,0.4c0.1-0.3-0.4-0.2-0.6,0l0.3,0.1
			c-0.2,0.1-0.4,0.2-0.6,0.2l0-0.4c-1-0.2-1.4,1.1-2.2,0.6c-0.2,0.3,0.5,0.1,0.4,0.4c-0.4,0-0.9-0.4-1.1-0.4
			c-0.6-0.1-0.5,0.6-1.1,0.5c0.1,0.1,0.2,0.4-0.3,0.6c-0.4,0-0.5-0.5-0.3-0.6c0.1,0,0.1,0,0.1,0.1c0.1,0,0.3-0.1,0.1-0.2l0,0.1
			c-0.2-0.1-0.8-0.1-0.7-0.3c-0.3,0.1-0.1,0.2,0.1,0.3c-0.5-0.2-0.8,0.1-1.4-0.1c0.1,0.1,0.2,0.2,0.1,0.2c-0.8-0.2-0.4,0.2-0.9,0.2
			c-0.3-0.2,0.1-0.4-0.4-0.3c-0.3-0.1,0-0.3,0.1-0.4c-0.5,0.2-0.9-0.3-1.2-0.3l0.3-0.1c-0.2,0-0.3,0-0.4,0l0.1,0.3
			c-0.1-0.1-0.3-0.1-0.2-0.2c-0.2,0.1,0.1,0.4-0.3,0.6c-0.2-0.2-0.6,0-0.7-0.3c0.6,0.2,0-0.3,0.5-0.3c-0.1,0-0.2,0-0.4-0.1
			c0,0,0-0.1,0.1-0.1c-0.5-0.4-0.3,0.3-1,0.1c0.1-0.2-0.1-0.4-0.2-0.4c0.2,0.1,0,0.3-0.2,0.4c-0.4-0.2-0.5,0-0.7-0.1l0.2,0.1
			c-0.1,0.2-0.3,0.1-0.6,0c0-0.1,0.3,0,0.2-0.1c-0.4,0.2-0.6-0.6-1.1-0.5c-0.1-0.2,0.1-0.3,0-0.5c-0.6,0.1-0.4-0.4-0.9-0.5
			c0,0.3,0.1,0.2-0.3,0.3l0.8,0.2l-0.6,0.1c0.2,0.1,0.6,0.1,0.7,0.2c-0.3,0.1-0.3,0-0.2,0.3c-0.2-0.5-0.7-0.1-1-0.5l0.3-0.5
			c-0.4-0.5-1.1-0.2-1.7-0.8l0.2,0.2c-0.2,0.1-0.4-0.2-0.7-0.3c0.1-0.2,0-0.3,0-0.5c-0.1,0.1-0.5-0.4-0.7-0.1l-0.1-0.4
			c-0.4-0.5-1,0-1.4-0.5c0.3,0,0.2-0.3,0.6-0.2c-0.2-0.1-0.3-0.3-0.4-0.2c0-0.2-0.6-0.2-0.6-0.5c-0.1,0-0.3,0.1-0.5,0
			c0,0,0.1-0.1,0.1-0.1C11.3,38.9,11,38.7,11,39c0-0.9-1.3-1.3-1.2-2.1c-0.3-0.3-0.7-0.7-1-1.1c0.1,0,0.1-0.1,0.1,0
			c-0.1-0.6-0.7,0-0.8-0.7c0.1-0.5,0.3,0.2,0.3,0c0.5-0.4-0.5-0.6-0.4-1.2L8.1,34c0.1-0.4-0.6-0.6-0.8-1.1c0,0,0.1,0,0.1,0
			C7,32.7,6.7,32,6.4,31.6c0.3,0.1,0.2,0.2,0.4,0c-0.1-0.2-0.4,0.2-0.6-0.2c0.1-0.2,0.1-0.5,0.3-0.7c0,0,0.2,0.4,0.2,0.4
			c0.3-0.3-0.2-0.5-0.2-0.8l0.2,0c-0.2-0.6-0.6-0.5-0.8-1.3l-0.1,0.1c-0.5-0.3,0.2-0.4-0.2-0.7L6,28.2c-0.1-0.2-0.5-0.9-0.6-1.3
			c0.3,0.2,0.6,0.8,0.8,1.1c0-0.3-0.2-0.9-0.4-1c0.1,0.1,0.2,0.2,0.1,0.3c-0.4-0.3-0.5-0.7-0.6-1.2c0.8,0.1,0.1-1.4,0.8-1.7
			C6,23.9,6,23.4,6.1,23c0.1-0.5,0.3-0.9,0.3-1.4c-0.6,0.3,0-0.3-0.6-0.4c0-0.3,0.1-0.3,0.1-0.4l0.5-0.6c0.2-0.1,0.1,0.3,0.2,0.3
			C6.9,20,7,20.3,7.3,20C7,20,7,19.8,7.2,19.5l-0.4,0.3c-0.1-0.8,0.7-0.5,0.6-1.3l0.1,0.3c0-0.4,0.5-1.3,0.2-1.8C7.8,17,8,17,8,17.1
			c0.2-0.4,0.3-0.9,0.5-1.4c0.2-0.5,0.3-0.9,0.7-1.1l0.1,0.1c0.1-0.2-0.1-0.4,0.2-0.5c0,0,0.1,0.1,0.1,0.1c0-0.1,0.1-0.5,0.3-0.6
			l0,0.3c0.3-0.3,0.5-0.6,0.6-1c0.1-0.3,0.2-0.7,0.4-1c0.3,0.3,0.9-0.1,1.2-0.3l0,0.1c0.4-0.3,0.7-0.7,0.9-1.1
			c0.2-0.4,0.5-0.7,0.8-1.1c0.4,0,0.8-0.3,1.3-0.5c0.5-0.3,1-0.6,1.5-0.7c-0.2,0-0.1-0.3,0-0.4c0.2,0,0.4-0.6,0.6-0.2l-0.1,0
			c0.3,0.3,0.7,0,1-0.1l-0.1-0.5c0.6,0.2,1.1-0.1,1.7-0.3c0.5-0.2,1-0.4,1.3-0.2c0.2-0.2,0.5-0.2,0.7-0.4l0,0.3
			c0.6,0,0.9-0.1,1.7-0.2l-0.1,0.2c0.4,0,0.5-0.8,0.9-0.9l0.1,0.4c0.8-0.1,1.5,0.4,2.3,0c0,0.1-0.1,0.2-0.2,0.2
			c0.4,0,1.3,0.4,1.3-0.1c0,0.4,0.8,0.1,1.2,0.1l-0.1,0.3c0.4-0.3,0.5-0.4,1-0.3c0.1,0.1,0,0.2-0.1,0.1c0.3,0.2,0.4-0.2,0.8,0.1
			l-0.2,0.1c0.4,0.1,0.4,0,0.7-0.1c0.3,0,0.7,0.3,0.7,0.6c0.1-0.1,0.4-0.2,0.6-0.1C32.2,7,32.1,7,32.1,7c0.6,0.4,1.1,0.1,1.4,0.6
			c0,0.1,0,0.1,0,0.2c-0.5-0.2-0.9-0.4-0.8-0.4c-0.1,0.2,0.3,0.5-0.2,0.6c0.4,0,1.1-0.2,1.4,0.1c0,0,0,0.1,0,0.1l-0.1,0
			c0.1,0.1,0.2,0.1,0.3,0.1c0.1,0.1,0.2,0.2,0.3,0.2c-0.1,0.2,0.4,0.4,0.5,0.5C35,8.8,35.2,9,35.1,8.6c0,0-0.1,0-0.2-0.1
			c0,0-0.1,0-0.1,0l0,0c-0.1-0.1-0.3-0.2-0.5-0.3c0.2,0,0.4,0,0.6,0.2c0.2-0.1,0.4-0.2,0.5-0.2c0.1,0.5,0.4,1,0.3,1.2
			c0.6,0.3,1.3,0.8,2,0.7c0.2,0.1,0.1,0.3,0.1,0.4c-0.1,0-0.2-0.1-0.3-0.1c0.4,0.2,0.9,0.7,1.2,0.5c0.2,0.4-0.4,0.1,0.1,0.5l-0.1,0
			c0.2,0.7,0.7,0.9,1.3,1.2c0.5,0.3,1,0.6,1.1,1.4c0-0.1,0-0.2,0-0.2c0.2,0.4,0.4,0.8,0.6,1.1c0.2,0.4,0.5,0.7,0.7,1.1
			c0.4,0.7,0.8,1.5,0.8,2.4c0.1,0.5,0.3,0.4,0.6,0.6l-0.3,0.2l0.5,0.4c0.2,0.3,0.1,0.6,0,1c-0.1,0.3-0.1,0.7,0.2,1.1l0.2-0.1
			c0,0.3,0.3,1,0,0.9c0,0,0.2,0.1,0.1,0.2l-0.2,0c0,0,0.4,0.7,0.3,0.7c-0.1,0.6-0.6,0-0.6,0.8c0.1,0.3,0.5,0.9,0.6,0.8
			c0-0.1,0.1-0.3,0.2-0.3l0.1,0.3c0.5,0,1,0.3,1.2-0.5l-0.3-0.5l0.2-0.2l0,0.5c0.2-0.3,0-0.4-0.1-0.6c0.1-0.1,0.2-0.1,0.2-0.2
			l-0.5-0.5c0.2-0.1,0.4,0.2,0.4-0.2c-0.2-0.2-0.4,0.3-0.6-0.1c0.2-0.3,0.4-0.2,0.1-0.5c0.1-0.1,0.2,0,0.3,0.1
			c-0.2-0.3-0.2-0.7-0.4-0.8c0.2-0.3-0.2-0.9,0.2-0.9c-0.1-0.1-0.5-0.4-0.5-0.6c0.6,0.3-0.2-0.9,0.4-1c-0.5-0.2-0.6-1.1-1.1-1.6
			c0,0,0.1,0.1,0.1,0.1c-0.1-0.3,0-0.5,0-0.7c-0.4,0.1-0.7-0.3-1-0.5c0.2-0.5,0.5,0,0.8-0.2c-0.3,0.2-0.6-0.5-0.8-0.3
			c0.1-0.4,0-0.3,0.2-0.6c-0.5,0.2-0.2-0.2-0.6-0.3c0-0.5,0.3-0.3-0.1-0.7C43.3,13.8,43.7,14.1,43.7,14.1z M34.5,6.5L34.5,6.5
			c0.1,0,0.2,0.1,0.2,0.1C34.7,6.6,34.7,6.6,34.5,6.5z M33.7,6.1c0.1,0.1,0.2,0.1,0.4,0.2c0,0.1-0.1,0.2-0.2,0.1
			C33.9,6.4,33.8,6.2,33.7,6.1z M34.5,8.7c-0.1,0-0.2-0.1-0.1-0.2C34.4,8.6,34.5,8.6,34.5,8.7l0.1-0.1C34.6,8.7,34.6,8.7,34.5,8.7z"
			/>
		<path fill="#FFFFFF" d="M34.9,8.6C35,8.6,35,8.6,34.9,8.6C35,8.5,35,8.5,34.9,8.6L34.9,8.6L34.9,8.6z"/>
		<path fill="#FFFFFF" d="M36.5,40.9L36.5,40.9C36.5,40.9,36.5,40.9,36.5,40.9C36.5,40.9,36.5,40.9,36.5,40.9z"/>
		<polygon fill="#FFFFFF" points="20.2,4.2 20.2,4.3 20.3,4.2 		"/>
		<path fill="#FFFFFF" d="M41,38C41,38,41,38,41,38C41.1,38,41,38,41,38z"/>
		<path fill="#FFFFFF" d="M42.4,36.2l0.3-0.2C42.5,36,42.4,36.1,42.4,36.2z"/>
		<path fill="#FFFFFF" d="M43.4,34.7C43.4,34.6,43.4,34.6,43.4,34.7L43.4,34.7L43.4,34.7z"/>
		<path fill="#FFFFFF" d="M18.8,45.2C18.8,45.2,18.8,45.2,18.8,45.2C18.6,45.2,18.7,45.2,18.8,45.2z"/>
		<path fill="#FFFFFF" d="M27.4,45.3c-0.1,0.1-0.2,0.1-0.3,0.2C27.3,45.5,27.4,45.5,27.4,45.3z"/>
		<polygon fill="#FFFFFF" points="10.3,40.6 10.3,40.6 10.2,40.6 		"/>
		<path fill="#FFFFFF" d="M26.7,45.5c0.2,0,0.3,0,0.4,0C27,45.5,26.8,45.5,26.7,45.5z"/>
		<path fill="#FFFFFF" d="M45.8,27.2L45.8,27.2c0-0.1,0-0.1,0-0.1L45.8,27.2z"/>
		<path fill="#FFFFFF" d="M45.8,27.1l0-0.1C45.8,27.1,45.8,27.1,45.8,27.1z"/>
		<path fill="#FFFFFF" d="M45.7,26.8l0.1,0.2C45.8,27,45.8,26.9,45.7,26.8z"/>
		<path fill="#FFFFFF" d="M45.3,29.6L45.3,29.6C45.4,29.6,45.3,29.6,45.3,29.6z"/>
		<path fill="#FFFFFF" d="M45.1,30.3c0.1-0.2,0.3-0.4,0.3-0.6l-0.1,0C45.5,29.8,45,30.1,45.1,30.3z"/>
		<path fill="#FFFFFF" d="M43,32.7c0,0,0.3-0.5,0.3-0.5C43.2,32.2,43,32.3,43,32C42.5,32.6,43.3,32,43,32.7z"/>
		<path fill="#FFFFFF" d="M42.1,34.2c0.1-0.3-0.1-0.1-0.2-0.1C41.9,34.3,41.9,34.4,42.1,34.2z"/>
		<path fill="#FFFFFF" d="M32.9,42.7l-0.1-0.2C32.6,42.6,32.9,42.6,32.9,42.7z"/>
		<path fill="#FFFFFF" d="M31,44.8c0,0,0.3,0.1,0.3,0.1l0-0.3C31.3,44.7,31,44.9,31,44.8z"/>
		<polygon fill="#FFFFFF" points="29.1,43.4 29.2,43.4 28.9,43.6 		"/>
		<path fill="#FFFFFF" d="M10.3,37.1l-0.2,0.3C10.3,37.4,10.6,37.2,10.3,37.1z"/>
		<path fill="#FFFFFF" d="M6.1,29.1c0.1-0.1,0.2-0.4,0-0.5C6.1,28.7,6,29,6.1,29.1z"/>
		<polygon fill="#FFFFFF" points="18.5,7.4 18.4,7.5 18.6,7.3 		"/>
	</g>
	<g>
		<path fill="#FFFFFF" d="M37.9,19.3c-0.1-0.1-0.2-0.2-0.2-0.1l0.2,0.2L37.9,19.3z"/>
		<path fill="#FFFFFF" d="M37.1,19.3c0.1,0.2,0.2,0.4,0.5,0.6c-0.2-0.3-0.1-0.2-0.3-0.5c0-0.1,0.1,0,0.2,0.1c-0.1-0.1,0.1,0,0-0.2
			c-0.2-0.1-0.3,0-0.2,0.2C37.2,19.4,37.2,19.3,37.1,19.3z"/>
		<path fill="#FFFFFF" d="M33.1,23.3L33.1,23.3C33.1,23.3,33.1,23.3,33.1,23.3z"/>
		<path fill="#FFFFFF" d="M30.7,25.9C30.7,25.9,30.6,25.8,30.7,25.9C30.6,25.8,30.6,25.9,30.7,25.9z"/>
		<path fill="#FFFFFF" d="M30,26.1C30,26.1,30,26.1,30,26.1C30,26.1,30,26.1,30,26.1z"/>
		<path fill="#FFFFFF" d="M33.1,23.3l-0.1,0C33,23.4,33,23.3,33.1,23.3z"/>
		<path fill="#FFFFFF" d="M37.2,20.4C37.2,20.3,37.2,20.3,37.2,20.4C37.2,20.3,37.2,20.3,37.2,20.4L37.2,20.4z"/>
		<path fill="#FFFFFF" d="M33.9,21.9L33.9,21.9c0-0.1,0-0.1-0.1-0.1L33.9,21.9z"/>
		<path fill="#FFFFFF" d="M34.6,21c0,0,0.2,0.2,0.3,0.3c-0.1-0.1-0.1-0.1-0.1-0.2C34.7,21.1,34.7,21,34.6,21z"/>
		<path fill="#FFFFFF" d="M36.2,19.8L36.2,19.8C36.2,19.8,36.2,19.8,36.2,19.8z"/>
		<path fill="#FFFFFF" d="M33.3,22.5C33.2,22.5,33.2,22.5,33.3,22.5C33.2,22.5,33.2,22.5,33.3,22.5z"/>
		<path fill="#FFFFFF" d="M12.7,20.3C12.8,20.3,12.8,20.3,12.7,20.3C12.8,20.3,12.7,20.3,12.7,20.3z"/>
		<polygon fill="#FFFFFF" points="13.1,18.4 13.1,18.4 13.3,18.3 		"/>
		<path fill="#FFFFFF" d="M29,26.7L29,26.7C29,26.7,29,26.7,29,26.7z"/>
		<path fill="#FFFFFF" d="M24.1,32.6c-0.1,0.3-0.2,0.3-0.2,0.7C23.9,33.1,24,32.8,24.1,32.6z"/>
		<path fill="#FFFFFF" d="M37.2,20.4C37.2,20.4,37.2,20.4,37.2,20.4C37.2,20.4,37.2,20.4,37.2,20.4z"/>
		<path fill="#FFFFFF" d="M23.8,33.3L23.8,33.3L23.8,33.3C23.8,33.3,23.8,33.3,23.8,33.3z"/>
		<path fill="#FFFFFF" d="M27.5,28.8c0,0,0.1,0,0.1,0.1C27.6,28.8,27.6,28.8,27.5,28.8z"/>
		<path fill="#FFFFFF" d="M29,27.6L29,27.6C29,27.6,29,27.6,29,27.6z"/>
		<path fill="#FFFFFF" d="M27.2,29.8C27.1,29.8,27.1,29.8,27.2,29.8C27.1,29.8,27.1,29.9,27.2,29.8C27.1,29.8,27.1,29.8,27.2,29.8z"
			/>
		<path fill="#FFFFFF" d="M26.5,30.6C26.5,30.6,26.5,30.6,26.5,30.6L26.5,30.6L26.5,30.6z"/>
		<path fill="#FFFFFF" d="M14.6,22.8c0.1-0.1,0.1-0.1,0.2-0.2C14.6,22.8,14.5,22.7,14.6,22.8z"/>
		<path fill="#FFFFFF" d="M37.1,20.3c0.1,0.1,0.1,0.1,0.1,0.1C37.2,20.4,37.2,20.3,37.1,20.3C37.2,20.3,37.1,20.3,37.1,20.3z"/>
		<path fill="#FFFFFF" d="M28.8,31.3l-0.1,0.1C28.7,31.3,28.8,31.3,28.8,31.3z"/>
		<path fill="#FFFFFF" d="M18.8,28.9L18.8,28.9C18.7,28.9,18.7,28.9,18.8,28.9z"/>
		<path fill="#FFFFFF" d="M28.4,31.8c-0.1,0-0.2-0.1-0.2-0.1c0,0,0,0,0,0.1L28.4,31.8z"/>
		<path fill="#FFFFFF" d="M14.8,22.6L14.8,22.6L14.8,22.6z"/>
		<path fill="#FFFFFF" d="M13.6,22.1c0.1,0.1,0.3-0.1,0.5-0.2c0.2,0.1-0.2,0.2-0.3,0.4c0.1,0,0.5-0.1,0.5,0c0,0-0.1,0.1-0.1,0.1
			c0.3-0.1,0.2,0.3,0.6,0.2c0,0,0,0-0.1,0.1c0.1-0.1,0.3-0.2,0.4-0.3c0,0.1,0.3,0,0.1,0.1c0,0-0.1,0-0.2,0l0.1,0
			c-0.2,0.2-0.2,0-0.4,0.1c0.2,0.1,0.5,0,0.5,0.2c-0.3,0.2-0.2-0.1-0.4,0.1l0-0.2c-0.4,0.4,0-0.1-0.4,0.3c0,0.2,0.3,0.1,0.3,0.3
			c0.2-0.1,0.2-0.2,0.4-0.2c0.5,0.1-0.6,0.7-0.1,0.6c0.2-0.1,0.6-0.3,0.5,0l-0.3,0.2c0.1,0.2,0.5-0.2,0.4,0.1
			c-0.1,0.1-0.2-0.1-0.2,0c-0.2,0.3,0.2,0,0.3,0.1l-0.3,0.2c0.2,0.2,0.5,0.2,0.7,0.4c-0.1,0-0.2,0.1-0.3,0.2c0.3,0.2,0.3,0.6,0.4,1
			l0.3-0.1c0,0-0.1,0.1-0.1,0.1c0,0.2,0.2-0.1,0.3-0.1c0.1,0-0.1,0.2-0.2,0.2c0.3,0,0.8,0.2,0.6,0.6l-0.1,0c0,0.2,0.6-0.2,0.5,0.1
			l-0.1,0c0.1,0.4,0.6,0.6,0.4,1.1c0.4-0.2,0.1,0.4,0.6,0.1c-0.1,0.3-0.2,0.4-0.2,0.7c0,0.1,0.4-0.1,0.5-0.1l-0.3,0.2l0.3-0.1
			l-0.3,0.3l0.1,0c0,0,0.1-0.1,0.1-0.2c0.2,0,0,0.4-0.1,0.5l0.4,0.1c-0.1,0.1-0.2,0-0.3,0c0.4,0-0.2,0.2,0.1,0.2
			c0-0.1,0.2-0.1,0.2-0.1c-0.1,0.2,0,0.3,0.1,0.4l-0.2,0.1c0.1,0.2,0.4,0.4,0.5,0.6c0-0.1,0.3-0.3,0.4-0.3l-0.3,0.2
			c0.2-0.1,0.1-0.1,0.3-0.2c0,0.1-0.3,0.3-0.4,0.3l0.2,0c-0.1,0.1-0.1,0.1-0.2,0.1c0.2-0.1-0.1,0.4,0.2,0.2l-0.1,0.1
			c0.2,0.2,0.3,0.3,0.5,0.5c0.2-0.2,0.2,0,0.5-0.1c0,0.2-0.1,0.5,0.1,0.6c0.2,0,0.2-0.1,0.4-0.1c-0.2,0.2-0.1,0.3-0.3,0.3
			c0.2,0.2,0.2,0.2,0.6,0.4c0.1-0.1,0.1-0.1,0.2-0.2c0.1,0,0,0.2-0.1,0.2l0,0c0.3,0,0.2,0.3,0.2,0.6c0,0.3-0.1,0.5,0.3,0.6l0,0
			c0,0,0.5,0.2,0.5,0.2c0.1,0.2-0.2,0-0.2,0.3c0.3,0.1,0.4,0.2,0.5,0.4c0.1,0.2,0.2,0.4,0.4,0.4c-0.1,0.5,0.1,0.8,0.3,1
			c0.2,0.2,0.4,0.3,0.5,0.8c0,0,0,0,0.1,0l0-0.3c0.1-0.4,0.1,0,0.2,0c0-0.2-0.1-0.1,0-0.4c0.3-0.6,0.7-0.8,1-1.1
			c0.4-0.3,0.9-0.6,1.3-1c0.3-0.3-0.5-0.8,0-0.7l0.2,0.3c0-0.6,0.6-0.7,0.6-1.3c0,0.1,0.1,0.1,0.1,0.2c0.2,0.1,0.2-0.3,0.1-0.4
			c0.1,0,0.1,0.1,0.2,0.1c0.2,0-0.1-0.4,0.1-0.3c0,0,0,0.1,0,0.1c0-0.1,0.2-0.2,0-0.3c0.2,0,0.1-0.3,0.3-0.3c-0.2-0.3,0.3-0.1,0-0.4
			c0.3,0.3,0.5,0,0.4-0.2c0.1,0.1,0.2,0,0.3,0.2c0.1-0.1,0.1-0.2-0.1-0.4c0.6,0.2,0-0.6,0.6-0.3c0-0.4,0.1-0.8,0.3-1.1
			c0.3,0.3-0.2,0.3,0.2,0.6c0.1-0.4-0.1-0.7,0.1-0.9c0.1,0,0.1,0.2,0.2,0.2c0.1-0.4,0.4-0.4,0.4-0.8c0,0,0,0.1,0.1,0.1
			c0-0.1,0.1-0.1,0-0.2l0,0.1c-0.3-0.1-0.3-0.6-0.5-0.7c0.4,0.4,0.3-0.1,0.8,0.5c0-0.1-0.1-0.1-0.2-0.2c0.1,0,0.1,0,0.2,0.2
			c0-0.2-0.2-0.3-0.1-0.4c0.1,0.1,0.1,0.1,0.2,0.2c-0.1-0.2-0.2-0.4,0-0.4c0,0,0.1,0.1,0.1,0.1c0.1-0.2-0.1-0.7,0.2-0.7
			c0.3,0.3,0.2,0,0.5,0.2l0-0.2l-0.2-0.1c0.1-0.1,0-0.4,0.1-0.4l0.1,0.2l0.1-0.2l-0.2,0c-0.1-0.2-0.4-0.3-0.2-0.4
			c0,0.1,0.1-0.1,0.3,0l0,0c0-0.1-0.1-0.3,0-0.3c0.1,0.1,0.3,0.3,0.4,0.3c-0.2-0.2,0.1-0.3-0.1-0.6c0,0.1,0.2,0.2,0.2,0.2l-0.2-0.2
			c0.1,0,0.1,0,0.2,0.1c0.2-0.1-0.4-0.3-0.1-0.3c0,0,0,0,0,0.1c0.2-0.1,0.1-0.4,0.4-0.5c0.3,0.2,0,0.2,0.2,0.3
			c0.1-0.3,0-0.7,0.3-0.9l-0.1,0c-0.4-0.4,0.3,0,0.2-0.3c0,0.1,0.2,0.2,0.2,0.2c0.2-0.1,0.1-0.4,0.2-0.7l0.1,0.1
			c0.2,0,0.2-0.2,0.4-0.2c-0.1-0.1,0-0.2-0.2-0.2c0.8,0.2,0.1-0.8,0.8-0.6c0,0,0,0.1,0.1,0.1l0.1-0.3c-0.2-0.1-0.1-0.1-0.3-0.1
			c-0.1-0.1-0.1-0.2-0.1-0.3c0,0.2,0.3,0.2,0.4,0.3c-0.1,0-0.1-0.1-0.2-0.1c0.4,0.2-0.3-0.3,0-0.3l0.1,0.1c0-0.1-0.1-0.3,0-0.3
			c0.2,0.1,0,0.1,0.2,0.3c0.1-0.1-0.2-0.5,0-0.4c0,0.1,0,0.1,0,0.2c0.3,0.1,0.3,0.1,0.4,0l0,0l0.2-0.1l-0.1,0
			c-0.4-0.6,0.1-0.3-0.1-0.7c0.2,0.4,0.2,0.2,0.4,0.4c0.1,0,0.2,0,0.3,0.1c-0.1-0.2,0.2,0,0.1-0.3c0.1,0.1,0.1-0.1,0.2,0.1
			c0-0.1-0.1-0.1-0.2-0.2c-0.1-0.4,0.6-0.1,0.4-0.6c0-0.3-0.2-0.5-0.2-0.8c0.2,0,0.2,0.3,0.2,0.3c0.2,0,0.2-0.1,0.2-0.2
			c0.1,0.1,0.1,0.1,0.2,0.1c0-0.1-0.2-0.3-0.1-0.3c0.1,0.1,0.2,0.2,0.2,0.3c0-0.1-0.1-0.3-0.1-0.5c0.1,0.1,0.2,0.2,0.2,0.3
			c0-0.1,0.1-0.3-0.1-0.5l-0.1,0c0,0,0.2,0.1,0.2,0.2c0.1,0.2-0.2,0.1-0.2,0l0-0.1c-0.5-0.3-0.1,0.3-0.2,0.4l-0.3-0.3l0.2,0.3
			c-0.1,0-0.3-0.2-0.3-0.3c-0.2-0.1,0.1,0.2-0.2,0.1c0,0,0,0-0.1,0l0,0.2c-0.1-0.1-0.2-0.2-0.1-0.2c-0.3,0,0,0.4-0.2,0.3l0,0
			c-0.1,0.3,0.2,0.2,0.4,0.6l-0.7-0.4l0.2,0.2c0,0-0.1,0-0.2,0c0.1,0.2,0.1,0.1,0.2,0.2c-0.3-0.1-0.1,0.4-0.5,0.1
			c0.1,0.2,0.2,0,0.3,0.2c-0.4-0.3,0,0.2-0.3,0.1c-0.2-0.2,0-0.2-0.3-0.3c0.3,0.3-0.2,0.1-0.2,0.2c0.3,0.2,0,0.3,0,0.5
			c-0.1-0.1-0.4,0.1-0.6,0.1l0,0c0.3,0.3,0.1,0.3,0.1,0.5C34,22,34,21.9,34,21.8l-0.1,0.1C34,22,34,22.1,34,22.2L33.8,22
			c-0.1,0.1,0.1,0.4-0.2,0.5c0.2,0.2,0.6,0.3,0.6,0.6c-0.1-0.1-0.3-0.2-0.3-0.3c0,0,0,0.1,0,0.1l-0.1-0.2c-0.1,0,0.1,0.2,0.1,0.2
			c-0.2-0.1-0.1-0.1-0.3-0.2c0,0,0.1,0,0.1-0.1c-0.1,0-0.2,0-0.4,0c0.1,0.1,0.2,0.2,0.2,0.2c-0.1,0.1-0.2-0.1-0.3-0.1
			c0.1,0.1-0.1,0.1,0.1,0.3c0,0-0.1-0.1-0.2-0.1c0.1,0.1-0.2,0.3,0.1,0.4l0,0c0,0,0,0,0,0l0,0l0,0c0.1,0.4-0.5,0.3-0.5,0.6l-0.1-0.1
			c0,0.2-0.2,0.3-0.1,0.5c0,0-0.2,0-0.3-0.1c0,0.1,0.1,0.2-0.2,0.2c-0.1-0.2-0.1-0.1,0-0.2c-0.2,0.1-0.3,0-0.2,0.3
			c-0.2-0.2-0.3-0.1-0.3,0l0.2,0c0,0.1-0.1,0.1-0.1,0.2l-0.2-0.2c-0.5,0,0.2,0.9-0.5,0.6c0.1,0.2,0.2,0,0.4,0.2
			c-0.1,0.1-0.6-0.1-0.6-0.1c-0.3,0,0.3,0.4,0,0.5c0.1,0.1,0.4,0.2,0.4,0.4c-0.1,0.1-0.5-0.2-0.5-0.3c0,0,0.1,0,0.1,0
			c0-0.1,0-0.1-0.1-0.2l0.1,0.1c-0.1,0-0.2,0.1-0.4,0c0,0.2,0.1,0.2,0.2,0.1c-0.2,0-0.2,0.2-0.4,0.3c0.1,0,0.2,0.1,0.2,0.1
			c-0.3,0.1,0.1,0.2,0,0.4c-0.2,0-0.3-0.3-0.3-0.1c-0.2,0-0.3-0.2-0.3-0.3c0.1,0.3-0.3,0.1-0.4,0.2l0-0.1c0,0.1,0,0.1,0,0.1l0.2,0.1
			c-0.1,0-0.1,0-0.2,0c0.1,0.1,0.3,0.2,0.4,0.4c-0.1,0,0,0.2-0.3,0.1c0.2-0.1-0.3-0.2-0.2-0.4c0,0.1,0,0.1-0.1,0.1c0,0,0,0-0.1-0.1
			c-0.3,0,0.2,0.3,0.1,0.5c-0.1-0.1-0.3-0.2-0.3-0.1c0.1-0.1,0.3,0.2,0.3,0.3c-0.2,0,0,0.2-0.1,0.2l0.1,0c0.1,0.1,0.1,0.2,0,0.3
			c-0.1-0.1,0-0.1-0.1-0.1c0.2,0.3-0.4,0-0.3,0.2c-0.1,0-0.3-0.2-0.4-0.2c0.1,0.3-0.3,0-0.3,0.2c0.2,0.1,0.2,0.1,0.3,0.3l0.1-0.3
			l0.1,0.4c0.1-0.1,0-0.2,0.1-0.2c0.1,0.2,0.1,0.1,0.2,0.2c-0.3-0.1,0,0.3-0.3,0.3l-0.4-0.4c-0.3,0,0,0.5-0.3,0.6l0.1,0
			c0.2,0.2-0.1,0.1-0.1,0.3c-0.1-0.1-0.2-0.1-0.4-0.2c0.1,0.1-0.1,0.1,0.2,0.4l-0.3-0.1c-0.2,0.1,0.3,0.5,0.1,0.7
			c-0.1-0.2-0.3-0.2-0.3-0.4c0,0.1-0.1,0.1,0,0.2c-0.1,0,0.1,0.3-0.1,0.2c0,0.1,0.2,0.2,0.1,0.3c0,0-0.1-0.1-0.1-0.1
			c0.1,0.1,0,0.2,0.2,0.3c-0.6-0.2-0.3,0.5-0.9,0.3c0,0.2-0.1,0.3-0.2,0.5c0,0-0.1-0.1,0-0.1c-0.3,0,0.4,0.5,0.1,0.5
			c-0.3-0.1-0.1-0.2-0.2-0.2c-0.5-0.4-0.1,0.3-0.5,0.1l0-0.1c-0.2-0.1,0,0.4-0.1,0.5c0,0,0,0-0.1-0.1c0.2,0.3,0.1,0.6,0.1,0.7
			c-0.2-0.2-0.1-0.1-0.3-0.3c0,0.1,0.3,0.2,0.3,0.4c-0.1-0.1-0.3,0-0.5-0.2l0.1-0.1c-0.3-0.2-0.1,0.2-0.2,0.2l-0.1-0.1
			c-0.1,0.1,0,0.2,0.1,0.3c0.1,0.1,0.1,0.2,0,0.2L25,33c0.2,0.4-0.2-0.1-0.1,0.2l-0.2-0.3c0,0.1,0.1,0.5,0,0.7
			c-0.1-0.4,0-0.6-0.1-0.8c0,0-0.1,0.1,0,0.4c0-0.1,0-0.2,0-0.1c0.1,0.4,0.1,0.6,0,0.7c-0.1-0.5-0.1-0.5-0.2-0.5
			c0,0-0.1,0.1-0.1-0.4c0,0.1,0,0.2-0.1,0.2c-0.1-0.1-0.1-0.5-0.1-0.5c-0.2,0.8,0,0-0.2,0.8c0,0-0.1,0,0-0.1c0,0,0.1-0.5,0.1-0.5
			c0.1-0.2,0.1-0.1,0.1-0.3c0-0.1,0.1-0.3,0.2-0.5c-0.1,0.2-0.2,0.3-0.1,0.2c0,0-0.1,0.3-0.1,0.3c-0.2,0.2,0.3-0.5,0.1-0.3l0.1-0.1
			c-0.1,0.1,0,0-0.5,0.1c0-0.1,0.2-0.2,0.2-0.2c-0.1-0.3-0.8-0.3-0.7-0.7l0.1-0.1c-0.1,0-0.3,0.1-0.2-0.1c0.1,0,0.1-0.1,0.1-0.1
			c-0.1,0-0.3,0-0.3-0.1l0.2,0c0-0.4-0.6-0.2-0.8-0.3c0.4-0.2,0.3-0.5,0.3-0.7l0.1,0c-0.2-0.3-0.6-0.3-1-0.5
			c0.3-0.4-0.2-0.7-0.2-1.1c0,0.1-0.3,0.2-0.4,0.2c0-0.1-0.4,0,0-0.2l0,0c0.3-0.3,0.1-0.3,0.1-0.4l-0.4,0.3c0.5-0.7-0.7-0.5-0.2-1.1
			c-0.2,0-0.2-0.1-0.4-0.1l0.2-0.2c-0.1-0.2-0.1-0.3-0.3-0.5l0.2-0.1c-0.1-0.1-0.8,0.3-0.9,0.2l0.3-0.3c-0.2-0.2,0-0.6-0.5-0.6
			c0.1,0,0.2-0.1,0.2-0.1c-0.1-0.1,0-0.6-0.5-0.2c0.3-0.2-0.1-0.2-0.3-0.3l0.2-0.1c-0.4,0.1-0.4,0.2-0.6,0.1c0-0.1,0.2-0.2,0.1-0.1
			c0-0.2-0.3,0.1-0.2-0.2l0.2-0.1c-0.1-0.1-0.1-0.1-0.3,0c-0.1,0-0.1-0.3,0.1-0.4c-0.1,0.1-0.3,0.1-0.3,0c0.1-0.1,0.1-0.1,0.2-0.1
			c0-0.3-0.5-0.1-0.3-0.4c0.1-0.1,0.1-0.1,0.1-0.1c0.1,0.2,0.2,0.3,0.1,0.3c0.2-0.1,0.2-0.3,0.5-0.4c-0.2,0-0.7,0.1-0.7-0.1
			c0,0,0,0,0.1-0.1l0,0c0,0,0-0.1-0.1-0.1c0-0.1,0-0.1,0-0.1c0.2-0.1,0-0.2,0-0.3c-0.2,0.2-0.2,0.1-0.4,0.3c0,0,0,0,0.1,0
			c0,0,0,0,0,0l0,0c0,0,0.1,0.1,0.1,0.1c-0.2,0-0.3,0.1-0.2-0.1c-0.2,0.1-0.3,0.1-0.4,0.2c0.3-0.3,0.3-0.6,0.5-0.7
			c-0.3-0.1-0.4-0.4-0.9-0.2c-0.1,0,0.1-0.1,0.1-0.2c0.1,0,0.1,0,0.2,0c-0.2,0-0.3-0.3-0.6-0.1c0-0.2,0.3-0.1,0.2-0.3l0.1,0
			c0.2-0.7-1.2,0-0.8-0.9c0,0.1,0,0.1-0.1,0.1c0-0.6-0.9-0.7-0.8-1.5c0-0.2-0.2-0.1-0.4,0l0.2-0.2l-0.4,0.1c-0.3,0,0.4-0.7-0.2-0.7
			l-0.1,0.1c0-0.1-0.3-0.2-0.1-0.3c0,0-0.2,0.1-0.1,0l0.1-0.1l-0.4-0.1c0-0.2,0.5-0.3,0.4-0.6c-0.1-0.1-0.5,0-0.6,0.1
			c0,0,0,0.1-0.1,0.2l-0.1,0c-0.4,0.2-0.8,0.5-1,0.8l0.3,0l-0.2,0.2l-0.1-0.1c-0.1,0.2,0.1,0.1,0.2,0.1c-0.1,0.1-0.1,0.1-0.2,0.2
			l0.5-0.1c-0.1,0.1-0.3,0.1-0.4,0.3c0.2-0.1,0.3-0.3,0.5-0.3c-0.1,0.2-0.3,0.3-0.1,0.2c-0.1,0.1-0.2,0.1-0.2,0.1
			c0.2,0,0.2,0.1,0.4,0c-0.2,0.2,0.2,0.2-0.2,0.4c0.1,0,0.4-0.1,0.4,0c-0.5,0.2,0.1,0.3-0.4,0.5c0.4-0.2,0.4,0.2,0.7,0.2
			c0,0-0.1,0-0.1,0c0,0.1-0.1,0.2-0.1,0.3c0.3-0.2,0.5-0.1,0.7-0.2c-0.2,0.3-0.4,0.2-0.7,0.4c0.3-0.2,0.4,0,0.6-0.2
			c-0.1,0.2,0,0.1-0.3,0.4c0.4-0.3,0.1,0,0.4-0.1C14,21.9,13.7,22,13.9,22C13.8,22.1,13.6,22.1,13.6,22.1z M16.4,24.7L16.4,24.7
			C16.3,24.6,16.3,24.6,16.4,24.7C16.3,24.6,16.3,24.6,16.4,24.7z M16.5,24.9c0,0,0-0.1-0.1-0.1c0.1-0.1,0.2-0.1,0.2-0.1
			C16.6,24.7,16.6,24.8,16.5,24.9z M17.8,23.3C17.9,23.3,17.8,23.3,17.8,23.3C17.8,23.4,17.7,23.3,17.8,23.3l-0.1,0.1
			C17.7,23.3,17.8,23.3,17.8,23.3z"/>
		<path fill="#FFFFFF" d="M17.4,23.4C17.4,23.4,17.4,23.4,17.4,23.4C17.4,23.4,17.4,23.4,17.4,23.4L17.4,23.4L17.4,23.4z"/>
		<path fill="#FFFFFF" d="M33.1,23.3L33.1,23.3C33.1,23.3,33.1,23.3,33.1,23.3C33.1,23.3,33.1,23.3,33.1,23.3z"/>
		<polygon fill="#FFFFFF" points="18.5,28.7 18.5,28.6 18.5,28.7 		"/>
		<path fill="#FFFFFF" d="M34.9,22.6C35,22.6,35,22.7,34.9,22.6C35,22.6,35,22.6,34.9,22.6z"/>
		<path fill="#FFFFFF" d="M35.5,22.1l0.1,0C35.5,22.1,35.5,22.1,35.5,22.1z"/>
		<path fill="#FFFFFF" d="M35.9,21.8C35.9,21.7,35.9,21.7,35.9,21.8L35.9,21.8L35.9,21.8z"/>
		<path fill="#FFFFFF" d="M30.5,28.8C30.5,28.8,30.5,28.8,30.5,28.8C30.5,28.9,30.5,28.8,30.5,28.8z"/>
		<path fill="#FFFFFF" d="M31.7,26.3c0,0.1,0,0.1,0,0.2C31.8,26.5,31.8,26.4,31.7,26.3z"/>
		<polygon fill="#FFFFFF" points="28.9,31.2 28.8,31.2 28.8,31.3 		"/>
		<path fill="#FFFFFF" d="M31.6,26.6C31.7,26.6,31.7,26.5,31.6,26.6C31.7,26.5,31.6,26.5,31.6,26.6z"/>
		<path fill="#FFFFFF" d="M37.6,20L37.6,20C37.6,20,37.6,20,37.6,20L37.6,20z"/>
		<path fill="#FFFFFF" d="M37.6,20L37.6,20C37.6,19.9,37.6,19.9,37.6,20z"/>
		<path fill="#FFFFFF" d="M37.6,19.8L37.6,19.8C37.6,19.9,37.6,19.9,37.6,19.8z"/>
		<path fill="#FFFFFF" d="M37,20.5L37,20.5C37.1,20.5,37,20.5,37,20.5z"/>
		<path fill="#FFFFFF" d="M36.9,20.7c0.1,0,0.3,0,0.3-0.1l-0.1-0.1C37.2,20.7,36.8,20.5,36.9,20.7z"/>
		<path fill="#FFFFFF" d="M35.3,20.6l0.2-0.1c-0.1,0-0.2-0.1-0.2-0.2C34.9,20.3,35.5,20.4,35.3,20.6z"/>
		<path fill="#FFFFFF" d="M34.8,20.9c0-0.1-0.1-0.1-0.2-0.1C34.7,20.9,34.7,20.9,34.8,20.9z"/>
		<path fill="#FFFFFF" d="M32.1,24.2L31.9,24C31.9,24.1,32,24,32.1,24.2z"/>
		<polygon fill="#FFFFFF" points="32.6,25.6 32.8,25.7 32.6,25.5 		"/>
		<polygon fill="#FFFFFF" points="30.9,24.8 30.9,24.8 30.9,24.9 		"/>
		<path fill="#FFFFFF" d="M26.4,30.3l0.3,0.2C26.7,30.4,26.4,30.2,26.4,30.3z"/>
		<path fill="#FFFFFF" d="M24.8,32.7c-0.1-0.1-0.2-0.2-0.1,0C24.7,32.7,24.8,32.8,24.8,32.7z"/>
		<polygon fill="#FFFFFF" points="21,27.9 21.1,27.9 21,27.9 		"/>
	</g>
</g>
</svg>
