<?xml version="1.0" encoding="utf-8"?>
<!-- Generator: Adobe Illustrator 19.1.0, SVG Export Plug-In . SVG Version: 6.00 Build 0)  -->
<svg version="1.1" id="Layer_1" xmlns="http://www.w3.org/2000/svg" xmlns:xlink="http://www.w3.org/1999/xlink" x="0px" y="0px"
	 viewBox="0 0 162.2 74.8" enable-background="new 0 0 162.2 74.8" xml:space="preserve">
<g>
	<g>
		<rect x="12.7" y="12.7" fill="#25C47D" width="140.3" height="44.8"/>
		<g>
			<path fill="#41CB8D" d="M150.3,57.5c0.3,0.2,1.1,0.1,1-0.5l-1.3-0.4L150.3,57.5z"/>
			<path fill="#41CB8D" d="M152.8,53.9c-0.6-0.6-1.8-1.4-3-1c1.3,0.6,0.7,0.8,2.3,1.5c0.2,0.5-0.4,0.9-0.9,0.8
				c0.3,0.2-0.3,0.8,0.5,1.1c1-0.7,1.1-1.6,0.2-2.5C152.2,53.7,152.5,53.9,152.8,53.9z"/>
			<path fill="#41CB8D" d="M141.7,10.9l0.3,0.2C141.9,11,141.8,10.9,141.7,10.9z"/>
			<path fill="#41CB8D" d="M109.2,10.2c0.2,0,0.4-0.2,0.4-0.3C109.3,10,109.1,10,109.2,10.2z"/>
			<path fill="#41CB8D" d="M103.6,8.7c0.1,0,0.2,0.1,0.3,0.1C103.8,8.7,103.7,8.6,103.6,8.7z"/>
			<path fill="#41CB8D" d="M141.7,10.9l-0.9-0.4C140.8,10.9,141.3,10.8,141.7,10.9z"/>
			<path fill="#41CB8D" d="M149.6,46.7c0.1,0.2,0.2,0.3,0.3,0.5c-0.1-0.1-0.1-0.3-0.1-0.4C149.7,46.7,149.7,46.7,149.6,46.7z"/>
			<path fill="#41CB8D" d="M155.9,14.2l0,0.4c0.2,0,0.3,0.1,0.5,0.1c0,0-0.1-0.1-0.3-0.2C156.1,14.3,155.9,14.2,155.9,14.2z"/>
			<path fill="#41CB8D" d="M156.1,26.8c0-0.2-1.1-0.3-1.6-0.4c0.5,0.1,0.7,0.3,0.8,0.5C155.6,26.9,155.8,26.9,156.1,26.8z"/>
			<path fill="#41CB8D" d="M154.1,44.2l0.2,0.3C154.3,44.5,154.2,44.3,154.1,44.2z"/>
			<path fill="#41CB8D" d="M148.9,9.6c0-0.2,0-0.3-0.1-0.4C148.9,9.3,148.9,9.5,148.9,9.6z"/>
			<path fill="#41CB8D" d="M140.2,52.3c0,0.1,0,0.1,0,0.2C140.3,52.3,140.3,52.3,140.2,52.3z"/>
			<path fill="#41CB8D" d="M153,57.8l-0.2,0.1c0,0.2,0,0.4,0,0.6L153,57.8z"/>
			<path fill="#41CB8D" d="M93.5,7.2C93.5,7.3,93.5,7.3,93.5,7.2C93.8,7.1,93.6,7.2,93.5,7.2z"/>
			<path fill="#41CB8D" d="M8.1,25.2c1-1.1,1.3,1.7,2.4,0.1C10,25.5,8.7,23.9,8.1,25.2z"/>
			<path fill="#41CB8D" d="M149.7,46.4c0-0.1,0-0.3,0-0.5C149.7,46.2,149.7,46.3,149.7,46.4z"/>
			<path fill="#41CB8D" d="M10.5,25.3L10.5,25.3l0.1-0.2C10.6,25.2,10.5,25.3,10.5,25.3z"/>
			<path fill="#41CB8D" d="M70.1,7.9c0,0.2,0.1,0.3,0.2,0.5C70.3,8.3,70.2,8.1,70.1,7.9z"/>
			<path fill="#41CB8D" d="M87.5,9.5l-0.4-0.2C87.2,9.5,87.4,9.5,87.5,9.5z"/>
			<path fill="#41CB8D" d="M61,9.5c-0.2-0.1-0.3-0.2-0.6-0.1c0,0.1,0.1,0.1,0.1,0.1C60.6,9.4,60.7,9.3,61,9.5z"/>
			<path fill="#41CB8D" d="M51.6,9.5c0,0.1,0.1,0.2,0.2,0.2c0.1,0,0.2,0,0.3-0.1L51.6,9.5z"/>
			<path fill="#41CB8D" d="M111.6,52.8c0.2,0.3,0.3,0.7,0.4,1C111.9,53,113.3,52.7,111.6,52.8z"/>
			<path fill="#41CB8D" d="M150.2,46.7c-0.3-0.1-0.4-0.1-0.5-0.3c0,0.1,0,0.2,0.1,0.3C150,46.7,150.1,46.8,150.2,46.7z"/>
			<path fill="#41CB8D" d="M60.6,18.4l-1.5-0.2C59.5,18.3,60.1,18.4,60.6,18.4z"/>
			<path fill="#41CB8D" d="M44,52.9l0.3-0.1C44.2,52.7,44.1,52.7,44,52.9z"/>
			<path fill="#41CB8D" d="M54.7,18.3c-0.3-0.4-0.6-0.6-0.8-0.8c-0.1,0.1-0.1,0.2-0.2,0.3L54.7,18.3z"/>
			<path fill="#41CB8D" d="M112,53.8C112,53.8,112,53.8,112,53.8C112,53.8,112,53.8,112,53.8z"/>
			<path fill="#41CB8D" d="M121.9,51.1c-1.4,0-0.7,1.4-1,2.3c-1.7,0.4-0.8-1.1-1.4-1.8c-1.1,0.4-1.9,1.7-2.7,1.7
				c-0.1-0.2-0.2-0.3,0-0.6c-1.1,1.2-3.3,0.1-4.6,1.5c-0.1-0.1-0.1-0.3-0.2-0.4c0.2,0.7,0.2,1.5,0.2,2c-0.6,0-1.2,0.9-1.4,0
				c0.4,0,0.4-0.4,0.6-0.7l-0.7,0.4c-0.6-1.4,0.9-0.5,0.9-1.5c-1.3,0.5-2.8,1.6-3.8,1.2c-0.2-1.4,2.3-0.5,1-1.7l1.5,0.5
				c-1.2-2.1,0.9,0.1-0.1-2.1c-2-0.4-2.3,0.7-4.3,0.3c-0.5,0.8,0.2,1.1-0.3,1.9c-2.9,1.4-2.3-3.4-4.4-1.6c-0.6,0.9-0.8,2.6-2.3,1.7
				l0.5-1.5c-2-0.2-1.1,2.2-3.2,1.2c0.4-0.6,1.6-0.5,1.3-0.7c-1.3-1.2-0.9,0.9-2,0.9l-0.2-1.4c-2.1,0.2-4.4,1.2-6.7,1.4
				c0.1-0.4,0.5-0.8,0-1.2c-2.9,0.7-6.3-0.2-9.1-1l-1.1,1.2c-0.3,0-0.5-0.5-0.2-0.8c-1.1-0.4-0.1,0.7-0.6,1.2
				c-0.6,0.1-0.8-0.7-0.4-1c-1.9,1-5.6,2.1-7.6,0.9L70,53c-1.6-0.5-1.8,2.4-3.3,1.3l0.3-0.2c-3.5-0.5-7.3,0.6-9.9-1.2
				c-0.5,1.7-3.4-0.8-3.7,1.6c-2-1.2-1.4-1.6-4.2-2.4c-0.7-0.1-1.1,1.5-2,1.7l0-1.2l-1.3,1.3l-0.7-1.5l-0.9,0.3
				c0.3,0.1,0.7,0.6,0.7,0.9c-1.3,0.6-3.3-0.9-3.3-1.5l-3.2,1c0.1-0.5,0.6-0.7,1-1c-1.7,1.3-0.3-1.3-1.9-0.1c0.2,0.3-0.1,0.7-0.1,1
				c-0.8-0.7-2.5-0.8-3.9-0.4l0.3-0.8c-2.4-0.2-5,0.4-7.6,0.4c1,0.4,0.7,1.9,0,2l-0.3-1.3c-0.5,0.8,0.8,0.5-0.2,1.5
				c-1-0.2-0.7-1.5-0.1-1.9l-1.2,0.5c-0.1-0.4,0.2-0.6,0.3-1.1c-0.5,0.8-2.1-1.3-2.8,0.1l-0.1-0.4c-0.7,0-1.2,0-1.8,0.1
				c-0.3,0-0.5,0-0.7,0.1l-0.1,0l0,0l0,0l0,0C19,51.8,18.8,52,18.6,52C18,53.1,18,52.9,17,53.8c-0.1-0.1-0.2-0.3-0.2-0.4
				c0.4-0.8,0.8-1.4,0.7-1.7c-0.3-0.1-0.5,0-0.8,0c-0.3,0.1-0.5,0.2-0.9,0.1c1-0.4,0.9-0.9,1.7-0.7l0-0.1c0-0.1,0,0,0-0.2
				c0-0.2,0-0.5-0.1-0.7c0-0.4-0.1-0.8-0.2-1.2c-0.1-0.8-0.4-1.7-0.8-3.2c-0.4,0.3-0.6,0.7-1,0.5c-0.2-0.5,0.4-1.2,0.9-1.1l0.1,0.1
				c-1.5-3.3,3-7.5,0.9-10.1l0.1,0.1l-1.1-2.7c0.2-1.2,0.8,0.7,1.4-0.2c-1.7-2.9,0.3-4.6-0.9-7c1.5-0.9,1.5-2.6,1.3-4.3
				c0-0.4-0.1-0.9-0.1-1.3c0-0.2,0-0.4,0-0.6c0-0.2,0-0.1,0-0.2c0-0.1,0.2-0.3,0.7-0.1L18,18.6c-0.7-0.5,0.4,0,0.6,0.1
				c-0.6-0.3-0.6-0.2-1-0.5c-0.1-0.3-0.2-0.7-0.2-1c0.3,0,0.8,0.1,1.1,0.2c0.2,0.1,0.4,0.1,0.5,0.2c0.1,0,0.1,0.1,0.2,0.1l0,0
				c0,0,0,0,0.1,0l0.4,0.1c2.4,0.4,4.7,0.9,7,1.2c2.1,0.2,1.2-3.7,3.8-2l-0.7,1.3c4.1-1.6,8.5,0.1,12.5-1.3
				c-0.2,0.3-0.2,0.7-0.6,0.7c0.9,1,3.2,0,3.2-0.7c0.6,0.1,0.1,0.7,0.5,1.1c0.9,0.6,2.2-1.2,2.6-0.3c0.1,0.2-0.2,0.3-0.4,0.4
				c0.6-0.5,2.6,0.1,2.1-1c1.5,0.5,2.9-0.5,4.1,0.2c0.8-1.2,2.6,0.6,2.9-1.2c-0.1,1.8,2.7,1.5,3.6,0.6c-0.3,0.5,0.8,0.6,0.5,1.3
				c1.1,0,2.1-0.4,1.9-1.3c2,2.2,4.1-1.7,5.2,1c3.3-1,6.3-1.6,9.2-2c-0.1,1.8-3.2,0.2-3.1,2.1c2.8-0.7,4.4-2.3,7.2-1.9
				c0.7,0.2-0.4,0.8-0.6,1.1c2.8-0.7,5.4,0.2,7.9-0.8c0,0.2-0.3,0.4-0.5,0.5c0.5-0.1,1.1,0.3,1.1-0.6l-0.5,0.2
				c-0.8-1.2,1.9-2.5,2-3.1c-0.8,2.3,2.4,0.6,1.1,3.6c0.3-0.2,0.7-0.5,0.7-1.1c0.5,0.2,0.6,0.5,0.1,1.1c1.7-0.4,1.1-1.3,2.7-1.3
				c0,0.4-0.3,0.6-0.5,1c0.8-0.8,1.6-1.5,2.9-1.2c-0.1,0.2,0.1,0.6-0.3,0.5c2.3-0.1,3.9-2.1,6.4-1.3c-0.7,1.7,0.9,0.6,1,2.1l1.4-0.4
				l-0.5-0.7c1.2,0,2.2-1.1,3.3-0.6l-0.9,0.6l2.2-0.3l-1.3-0.6c1.2-0.8-0.1-1.9,1.5-1.5c-0.3,0.2,1.2,0,1.8,0.9l0,0
				c0.6-0.5,1.2-1,2.1-0.6c0.2,0.5-0.2,1.7,0,2c0.6-1.2,2.8-0.3,3.5-1.7c-0.2,0.3-0.3,1.1-0.2,1.3l0.5-1c0.5,0.3,0.6,0.5,0.5,1.1
				c1.7,0.2-0.5-1.9,1.4-1.1c-0.2,0.1-0.1,0.2-0.4,0.4c2,0.4,3.8-0.6,5.6-0.1c0.5,1.5-1.6,0.4-1,1.6c2.6-0.3,5.4-1.8,7.9-1.4
				l-0.5-0.2c0.4-2.1,1.9,1.1,3.2,0.1c-0.3,0.2-0.4,1.2-0.3,0.9c1.7,0.3,3.5-0.5,6.2-1.2l-0.3,0.5c1,0.5,2.7,0.3,3.8,0.5
				c0.3-0.5,1-0.5,0.6-1.2c0.4,0.3,0.7,0.6,1.1,0.8c0.3,0.2,0.8,0.3,0.9,0.3c0.4,0.1,0.8,0,1.3-0.2c0.5-0.2,1.1-0.4,1.7-0.6
				c0.6-0.1,1.2-0.2,1.4,0c-0.1,0.4-0.3,0.9-0.7,1.4c0-0.2-0.5-0.1-0.5,0.1c0,0,0.1,0.2,0.3,0.5c0.1,0.3,0.3,0.6,0.3,0.6
				c0.9-0.6,0.6-0.5,1.3-1.4c0.5-0.1,1,0.4,1,1c-0.3-0.4-0.7-0.2-1,0.1c-0.4,0.3-0.7,0.8-1,1c0.3-0.1,0.6-0.1,0.9-0.2
				c-0.8,0.7-0.4,0.6,0.2,0.6c0.5,0,1.1,0.1,0.6,1l-0.5-0.1c0.2,0.7,0.9,1.3,0.7,2.1c-1.1,0.3-0.5-0.7-1.4-0.8c0.1,1,2,2.1,1,3
				c-0.3-0.4-0.3-1.1-0.6-1.5c-1.3,1-0.9,1.1-1.1,1.9l0-0.1l-0.6,1.8l0.3-0.4c2.8,1.3,0.5,2.6,2.3,4.4c-1.7-1.7-1-0.3-2.2-0.4
				c-0.3,0.4-0.7,1.1-1.1,0.9c1,0.8-0.8,1.4,0.7,2.6c-0.4,0.1,0,0.9-1,0.7c0.3,1.1,0.7-0.3,1.2-0.2c1.3,1.7-1.6,3.9,0.2,6.3
				c0.8,2.1,2.1,2.4,2.7,4.4c-0.6,0.6-1.4-0.5-1.4-0.5c-0.6,1-0.5,1.8,0,2.8c-0.3-0.2-0.6,0-1.1,0.3c0.1,0.8,1.4,0.5,0.8,1.6
				c-0.4-0.2-1.1-0.4-1.6-0.8c0.4,0.9,1.1,1.8,1.4,2.8c-0.7,0.3-1-0.6-1.5-0.9c0.3,1.1,0.6,2.8,1.7,3.1l0.4-0.7
				c0.1,0.4-0.9,0.2-1.1-0.1c-0.8-0.9,0.4-1.3,0.8-1.4l0.2,0.7c2.3-0.7-0.4-2.7-0.2-4.1l1.7,0.6l-1.4-1.4c0.4-0.3,1.4-0.5,1.6,0.2
				c0.8-1-0.6-0.9,0.3-1.7c0.1-0.1,0.2-0.1,0.3,0l-0.5-1c0.3,0.2,1.2-0.2,0.9,0.4c1-1.7-1.2-2.8,0-3.4l0.1,0.1
				c-0.6-2.4-1.2-0.2-2.7-2l3-1.2l-1.2-0.2c0-0.2,0.1-0.7,0.6-0.6c-0.8-0.9-0.5,0.2-1.3-0.4c1.1-1.2-0.5-3.3,1.4-3.6
				c-0.9-0.4-0.7,1.1-1.4-0.1c2.1-0.4-0.4-1.5,0.6-2.6c1.1,0.3,0.5,1.4,1.5,0.3c-1.8-0.7,0.4-2.1,0.1-3c-1.5,0-0.6-2-1.1-3.5
				c0.2,0,0.4-0.7,0.6-1.6c0.1-0.5,0.2-1,0.3-1.4c0.1-0.2,0.1-0.5,0.2-0.7c0.1-0.2,0.1-0.4,0.2-0.7l0.2,0.1
				c-1.5-0.4-1.2-2.2-1.5-3.4c0.9-0.4,1.2-0.3,1.6,0.4l0-1.5c-0.5-0.1-0.7-0.4-0.9-1.2c0,0,0.3-0.1,0.5-0.2c0.3-0.1,0.5-0.2,0.5-0.2
				c0-1.1-0.4-1.9-0.6-2.8c-1.1,0.2-2,0.2-2.9-0.1c-0.4,0.5-0.4,1.2-0.8,1.9c-0.3,0.7-1,1.3-2,1.6c0.3-0.6,0.7-1.5,1.4-1.7
				c-0.2,0.1-0.9,0.5-1.1,0.2c0,0,0.3-0.2,0.7-0.5c0.4-0.2,0.7-0.5,0.7-0.5c-0.7-0.4-1,0.8-1.6,0.7c0.4-0.8-0.3-0.6,0.1-1.2
				c0.3-0.1,0.6,0.3,1,0c-0.8-0.1-1.8-0.6-2.1-1.2c0,0.4-0.3,1.1-1,1.2c-1.7,0.1-0.6-1-1.6-1.4c-0.3,0.5-1.2,0-1.2,1.2
				c-0.4,0-0.5-0.6-0.6-0.9c-0.7,0.5-3.3,0.1-2.5,1.4l0.2,0.1c0,0-0.1,0-0.1,0.1c0,0,0,0,0,0h0c-2.3,1.2-4.7-0.7-7-0.2l0-0.4
				c-1.4,0.5-3,0.3-4,1.1c-0.4,0-0.9-0.7-0.8-1.2c-1,0.3-1.2,0.7-2.6,0.1c1-0.7-0.4-0.6,1.1-0.5c-1.3-0.3-1.6-1-3.1,0.1
				c0.5-1-1-1.3-1.6-1L125,10c-0.7,0.1-1.3,0.1-2,0l0.3-1.3c-2.7-1.6-5,2.8-7.1,0c-0.7,0.9,1.5,0.7,0.8,1.7c-1.3-0.2-2.6-2.1-3-2.1
				c-1.7-0.7-1.6,1.9-3.4,1.4c0.2,0.5,0.4,1.7-0.9,2.2c-1.3-0.2-1.6-2-0.8-2.4c0.3,0,0.4,0.1,0.4,0.3c0.4-0.2,0.9-0.4,0.4-0.9
				l-0.2,0.5c-0.6-0.5-2.4-0.4-2-1.2c-1,0.5-0.4,0.8,0.3,1c-1.6-0.7-2.5,0-4.2-0.5c0.3,0.3,0.5,0.8,0.2,0.8
				c-2.5-0.6-1.1,0.9-2.7,1.1c-0.9-0.7,0.3-1.7-1.3-1.1c-1-0.5-0.2-1.3,0.2-1.6c-1.5,0.9-2.8-0.6-3.7-0.8l0.8-0.4
				C96.9,7,96.5,7,96.1,7l0.5,0.9c-0.5-0.2-0.9-0.2-0.9-0.6C95.2,8,96.1,9,95.1,9.8c-0.6-0.5-1.9,0.5-2.1-0.7c2,0.4-0.2-1.3,1.5-1.5
				c-0.3,0.2-0.7,0.1-1.2,0c-0.1-0.1,0.1-0.3,0.2-0.3c-1.9-1.1-0.9,1.4-2.8,1.4c0.2-0.7-0.5-1.3-0.8-1.2c0.8,0,0.4,1.2-0.3,1.7
				c-1.3-0.6-1.4,0.4-2,0.3l0.8,0.3c-0.3,0.7-0.9,0.6-1.8,0.8c-0.1-0.6,0.8-0.4,0.5-0.6c-1,1.2-2.2-1.3-3.6-0.5
				c-0.6-0.5-0.1-1.3-0.6-1.7c-1.5,0.9-1.6-1-3.2-0.2c0.5,1,0.5,0.7-0.6,1.7l2.6-0.7L79.9,10c0.8,0,1.7-0.6,2.1-0.4
				c-0.8,0.8-0.7,0.5-0.3,1.3c-1.1-1.4-2.1,0.8-3.4-0.1l0-2.4C76.5,7.4,75,9.6,72.6,9l0.8,0.4C73,10.4,71.8,9.6,71,10
				c0.1-0.8-0.4-1.1-0.8-1.6c0,0.6-1.8-0.1-2,1.5l-1.1-1c-2-0.4-2.3,2.2-4.2,2c0.6-0.9-0.3-1.4,1-2c-0.6,0-1.2-0.2-1.2,0.4
				c-0.4-0.5-1.8,1.1-2.3,0.3c-0.3,0.3-0.4,1.2-1.1,1.1c-0.1-0.2,0-0.4,0-0.4c0,0.4-1.1,0.5-0.5,1.4c-2-2.5-5.5,0.2-7.2-1.9
				c-1.4,0.3-3.1,0.5-4.3,0.6c0.1-0.2,0-0.4,0.2-0.3c-1.7-0.7-1.1,2.3-3,1.4c-1-1.3,1-0.7,0.4-1.2c-0.3-2.6-2.4,0.4-3.7-1.2l0.3-0.2
				c-1-0.9-2.5,1-4.1,0.8c0,0,0.1-0.2,0-0.4c-1.1,1.3-3.3,1.8-4.9,2.1c0.5-1,0.7-0.5,0.4-1.6c-0.7,0.1,0.2,1.7-1.2,1.9
				c-0.5-0.6-1.5-1-1.6-2.1l1.3-0.1c-0.7-1.4-1.7,0-2.5-0.2l0.1-0.6c-2.1,0.2-2.1,1.8-4.3,1.7l0.2,0.5c-1.2,1.6-1-0.9-2.2,0.3
				l-0.4-1.6c-0.4,0.2-1.1,0.6-1.9,0.9c-0.4,0.2-0.8,0.4-1.2,0.5c-0.2,0.1-0.4,0.1-0.7,0.2c-0.2,0.1-0.5,0.1-0.7,0.1
				c1.1-1.2,2.6-1.8,3.7-2.5c-0.4,0-1.1,0-1.7,0.1c-0.3,0.1-0.6,0.2-0.9,0.3c-0.3,0.1-0.6,0.3-0.7,0.5c0.2-0.1,0.5-0.2,0.7-0.3
				c0.2-0.1,0.4-0.1,0.5,0c-0.4,0.6-1.2,1.1-2,1.4c-0.8,0.3-1.5,0.4-2.5,0.4c-0.7-2-3.2-1.7-5.8-1.9c-0.1,1.1-0.4,2.1-1.2,2.2
				c0.6,2.7,0.4,4.7,0.2,7.1c0,0.1,0,0.3,0,0.4l0,0.3L8.3,20c-0.1,0.4-0.1,0.7-0.2,1.1C8,21.9,8,22.7,8,23.5
				c2.4-1.2,0.1,0.9,2.5,0.8c0.2,0.8,0.1,1,0,1.1L9,27.6c-0.7,0.5-0.5-0.7-1.1-0.7c-0.2,1.7-1,0.7-1.7,1.8c0.9-0.2,1.3,0.6,0.9,1.5
				L8.3,29c1.3,2.3-2.1,2-0.8,4.3l-0.8-0.7c0.5,1.2,0,4.4,1.9,5.6c-0.3,0.2-1,0.5-1.1,0c-0.3,2.9,2.1,6.4,0.9,8.6l-0.6-0.2
				C8,47.1,9,47.5,8.4,48.1c-0.2,0-0.6-0.2-0.6,0c0.2,0.3,1,1.4,0.7,2.1l-0.7-0.6c-0.1,0.3-0.1,0.7-0.2,1l0,0.2l0,0.4
				c0,0.3,0,0.5,0.1,0.8c0.1,1,0.4,1.9,0.6,2.6c0.6,1.5,1.3,2.5,1.5,4.1C9,59.4,8.4,60.6,8,62.1c0.8,0.5,2.2,0.7,3.2,0.8L11,63.2
				c3,0.1,5.9-0.3,8.2-0.7c1.4-0.5,2.7-1.1,4.2-1.4c1.9,1.9,6.3,0.8,9.3,1.9c-0.5-0.3,0.1-1.4,0.6-1.5c0.7,0.4,2-1.2,1.8,0.4l-0.3,0
				c0.5,1.6,2,1.2,3.1,1.2l0.2-2.1c3,3.1,7.8-1.1,9.4,1.6c0.7-0.5,1.6-0.5,2.3-1l0,1.1c2,0.3,3,0.4,5.4,0.2l-0.5,0.8
				c1.4,0.1,1.7-3.3,3-3.3l0.4,1.7c2.4,0,4.8,1.5,7.2-0.1c0,0.2-0.1,0.7-0.5,0.8c1.1,0,4.4,1.1,4-1.2c0,1.5,2.5,0.1,3.8-0.5L72.5,62
				c1.1-1.4,1.1-1.8,2.7-2.2c0.4,0.1,0.3,0.9-0.2,0.6c1.2,0.6,0.9-1.1,2.4-0.5l-0.5,0.7c1.2,0.1,1.1-0.3,1.8-1.1
				c0.8-0.4,2.4,0.3,2.5,1.3c0.2-0.6,0.9-1.4,1.6-1.1c0.1,0.4-0.2,0.6-0.3,0.7c2.1,0.8,3.1-1.3,4.5-0.2c0,0.4,0.1,0.6,0.2,0.7
				c-1.7,0-3-0.1-2.9-0.2c0,1,1.3,1.2,0.3,2.6c1.1-0.8,2.9-2.5,4.2-2c0.1,0.1,0.1,0.2,0.2,0.4l-0.1,0.1c0.3,0.1,0.6,0,0.8-0.2
				c0.4,0.2,0.7,0.3,1.1,0.3c0.2,0.8,1.5,0.5,2.2,0.5c-0.1-1.1,0.8-0.9,0-1.9c0.1,0.1-0.1,0.1-0.6,0.2c-0.1,0-0.2,0-0.3,0.1
				c0,0,0-0.1,0-0.1c-0.4,0-1,0.1-1.7,0.1c0.5-0.6,1.1-1.1,1.8-0.4c0.3-0.7,0.7-1.5,0.9-1.8c0.9,1.6,2.7,2.4,2.9,3.4
				c2-0.6,4.8-0.4,6.1-2.5c0.6-0.3,0.7,0.6,0.9,0.9c-0.3,0.2-0.7,0.2-0.9,0.5c1.2-0.5,3.4-0.2,3.7-1.7c1.5,0.7-0.8,1.4,1.2,1.1
				l-0.3,0.5c3.9,2.4,6.4-3.8,10.8-0.7c-0.3-0.2-0.5-0.3-0.5-0.5c5,1.3,10.3-1.2,15.2,0.9c1.4,0.4,1.5-0.5,2.4-1.2l0.3,1.2l1.5-1.4
				c2.1-1,3.6,3,6.2,1l-0.3-0.8c0.9,0.2,3-0.5,2.8,0.5c0.1-0.1,0.3-0.8,0.7-0.4l0,0.6l2.3-1.1c1.8,0.5-0.3,2.5,2.3,2.6
				c1-0.2,2.8-1.8,2.4-2.3c-0.4,0-1-0.4-1-1l0.9-0.3c0.2-1.9,0.8-3.8-1.3-5.1L150,54l-0.5-0.9l1.3-0.1c-0.7-0.9-1.2-0.1-1.7,0.4
				c-0.1-0.5-0.3-0.8-0.6-1l-1.5,1.8c-0.2-0.7,0.7-1.4-0.3-1.8c-0.7,0.8,0.7,1.6-0.5,2.2c-0.7-0.8-0.5-1.5-1.4-0.8
				c-0.1-0.5,0.1-0.8,0.4-1c-0.8,0.6-2,0.2-2.4,1.2c-0.8-1-2.6,0.3-2.5-1.5c-0.2,0.4-1.3,1.4-2,1.5c1.3-2.1-2.6-0.1-2.3-2.4
				c-0.9,1.9-3.4,0.8-5.1,1.9c0.1-0.2,0.3-0.5,0.4-0.4c-0.9-0.2-1.2-0.7-1.8-1.1c-0.1,1.6-1.6,1.9-2.4,2.9c-1.2-1.5,0.7-1.8,0.3-3.3
				c0.1,1.3-2,1.3-1.6,2.3c-0.9-0.9-0.8-0.5-1.2-1.8c-0.2,2-0.8,0.3-1.6,1.5c-1.3-1-0.3-1.8-1.7-1.2
				C120.6,51.8,121.9,51.1,121.9,51.1z M88.6,54.5C88.6,54.5,88.6,54.5,88.6,54.5c0.3,0,0.5-0.1,0.7-0.1
				C89.1,54.4,88.9,54.4,88.6,54.5z M85.8,54.5c0.3,0,0.8,0.1,1.2,0c0.1,0.4,0,0.8-0.3,0.8C86.8,55.1,86.2,54.8,85.8,54.5z
				 M91.7,62.3c-0.4,0.2-0.6-0.1-0.7-0.3c0.2,0,0.5-0.1,0.8-0.1c0,0,0-0.1,0.1-0.1C91.8,62,91.8,62.2,91.7,62.3z"/>
			<path fill="#41CB8D" d="M92.5,60.8c0.1,0,0.1-0.1,0.2-0.1c-0.1-0.1-0.2-0.2-0.3-0.3c-0.1,0.1-0.1,0.2-0.2,0.4
				C92.3,60.8,92.4,60.8,92.5,60.8z"/>
			<path fill="#41CB8D" d="M142.1,11.1L142.1,11.1c0,0,0,0.1,0.1,0.1C142.1,11.2,142.1,11.1,142.1,11.1z"/>
			<polygon fill="#41CB8D" points="47.1,52.3 47.1,52.6 47.3,52.4 			"/>
			<path fill="#41CB8D" d="M150.8,17.9c-0.1,0-0.2,0.1-0.3,0.2C150.6,18.1,150.7,18,150.8,17.9z"/>
			<path fill="#41CB8D" d="M150.6,23.9l-0.4,0.9C150.4,24.5,150.5,24.2,150.6,23.9z"/>
			<path fill="#41CB8D" d="M150,29.1c0.2,0.1,0.3,0.1,0.5,0.1c0,0,0,0,0,0L150,29.1z"/>
			<path fill="#41CB8D" d="M87.8,17c-0.1,0-0.1,0-0.2,0.1C87.2,17.3,87.5,17.2,87.8,17z"/>
			<path fill="#41CB8D" d="M112.1,14.4c-0.3,0.2-0.5,0.4-0.8,0.5C111.7,15,112.1,15.1,112.1,14.4z"/>
			<path fill="#41CB8D" d="M60.8,18.4C60.8,18.4,60.8,18.4,60.8,18.4c-0.1,0-0.1,0-0.2,0L60.8,18.4z"/>
			<path fill="#41CB8D" d="M110.2,14.9c0.4,0.2,0.8,0.2,1.1,0C110.9,14.9,110.5,14.8,110.2,14.9z"/>
			<path fill="#41CB8D" d="M149.5,51.3l0,0.2c0.1,0,0.1,0,0.2,0L149.5,51.3z"/>
			<path fill="#41CB8D" d="M149.6,51.5l0.1,0.3C149.7,51.7,149.7,51.6,149.6,51.5z"/>
			<path fill="#41CB8D" d="M150,52.4l-0.3-0.6C149.7,52,149.7,52.3,150,52.4z"/>
			<path fill="#41CB8D" d="M150,44.5l-0.4-0.1C149.7,44.4,149.8,44.5,150,44.5z"/>
			<path fill="#41CB8D" d="M149.9,42.4c-0.1,0.5-0.9,1.2-0.6,1.9l0.3,0.1C149,44.1,150.6,42.9,149.9,42.4z"/>
			<path fill="#41CB8D" d="M154.9,33.8l-0.3,1.7c0.4-0.3,1-0.7,1.1,0.1C157,33.5,154.8,36.1,154.9,33.8z"/>
			<path fill="#41CB8D" d="M155.6,28.5c0.2,0.9,0.6,0,0.9,0C156.1,27.9,156,27.8,155.6,28.5z"/>
			<path fill="#41CB8D" d="M130,10.2l0.1-1C129.4,9.3,130.1,9.6,130,10.2z"/>
			<polygon fill="#41CB8D" points="122.6,15.5 123.3,16.1 123.6,15.2 			"/>
			<polygon fill="#41CB8D" points="118.2,8.2 118.6,8 117.4,8.4 			"/>
			<path fill="#41CB8D" d="M53.2,8.5l0.2,1.3C53.9,9.5,54,8.1,53.2,8.5z"/>
			<path fill="#41CB8D" d="M25.2,9.7c-0.3-0.6-1.1-1-1.6-0.4C24.2,9.4,24.9,9.9,25.2,9.7z"/>
			<polygon fill="#41CB8D" points="39.6,62.4 39.1,62.8 40.1,62.5 			"/>
		</g>
	</g>
</g>
<g>
	<path d="M52.7,31.8l-3.1,0l-0.8-2.4l-4.3,0l-0.8,2.4l-3,0L45,20.1l3.5,0L52.7,31.8z M48.1,27.3l-1.4-4.2l-1.4,4.2L48.1,27.3z"/>
	<path d="M63.4,27.3c0,0.7-0.1,1.4-0.3,2c-0.2,0.6-0.5,1.1-0.9,1.5c-0.4,0.4-0.8,0.7-1.3,0.9c-0.5,0.2-1,0.3-1.5,0.3
		c-0.5,0-0.9-0.1-1.3-0.2s-0.7-0.3-1.1-0.5l0,3.7l-2.8,0l0-12l2.8,0v0.9c0.4-0.3,0.9-0.6,1.3-0.8c0.5-0.2,1-0.3,1.6-0.3
		c1.1,0,1.9,0.4,2.5,1.2C63.1,24.8,63.4,25.9,63.4,27.3z M60.5,27.3c0-0.9-0.1-1.5-0.4-1.9c-0.3-0.4-0.8-0.6-1.4-0.6
		c-0.3,0-0.5,0-0.8,0.1c-0.3,0.1-0.5,0.2-0.8,0.3l0,4.4c0.2,0.1,0.4,0.1,0.6,0.1c0.2,0,0.4,0,0.6,0c0.7,0,1.3-0.2,1.7-0.6
		C60.3,28.9,60.5,28.2,60.5,27.3z"/>
	<path d="M71.8,25.7l-0.2,0c-0.1,0-0.3-0.1-0.6-0.1c-0.3,0-0.5,0-0.7,0c-0.4,0-0.8,0-1.1,0.1c-0.3,0.1-0.6,0.1-1,0.3l0,5.9l-2.8,0
		l0-8.8l2.8,0l0,1.3c0.6-0.5,1.2-0.9,1.6-1.1s0.9-0.3,1.3-0.3c0.1,0,0.2,0,0.3,0c0.1,0,0.2,0,0.3,0L71.8,25.7z"/>
	<path d="M82,27.9l-6.4,0c0,0.7,0.3,1.2,0.8,1.6c0.5,0.4,1.2,0.5,2.1,0.5c0.6,0,1.2-0.1,1.7-0.3c0.6-0.2,1-0.4,1.3-0.7h0.3l0,2.3
		c-0.6,0.3-1.2,0.4-1.8,0.6C79.5,32,78.9,32,78.2,32c-1.8,0-3.1-0.4-4-1.2c-0.9-0.8-1.4-1.9-1.4-3.4c0-1.4,0.4-2.6,1.3-3.4
		c0.9-0.8,2.1-1.3,3.7-1.3c1.4,0,2.5,0.4,3.2,1.1c0.7,0.7,1.1,1.8,1.1,3.1L82,27.9z M79.2,26.3c0-0.6-0.2-1-0.4-1.3
		c-0.3-0.3-0.7-0.4-1.3-0.4c-0.5,0-1,0.1-1.3,0.4c-0.3,0.3-0.5,0.7-0.6,1.4L79.2,26.3z"/>
	<path d="M92.8,31.8l-2.8,0l0-4.4c0-0.4,0-0.7-0.1-1.1c0-0.4-0.1-0.6-0.2-0.8c-0.1-0.2-0.3-0.3-0.5-0.4c-0.2-0.1-0.5-0.1-0.8-0.1
		c-0.3,0-0.5,0-0.8,0.1s-0.5,0.2-0.9,0.4l0,6.2l-2.8,0l0-8.8l2.8,0v1c0.5-0.4,1-0.7,1.4-0.9c0.5-0.2,1-0.3,1.5-0.3
		c0.9,0,1.7,0.3,2.2,0.8c0.5,0.6,0.8,1.4,0.8,2.5L92.8,31.8z"/>
	<path d="M103.9,31.8l-2.8,0l0-0.9c-0.5,0.4-0.9,0.7-1.4,0.9c-0.4,0.2-0.9,0.3-1.5,0.3c-1.1,0-1.9-0.4-2.6-1.2s-1-1.9-1-3.3
		c0-0.7,0.1-1.4,0.3-2c0.2-0.6,0.5-1.1,0.9-1.5c0.4-0.4,0.8-0.7,1.3-0.9c0.5-0.2,1-0.3,1.5-0.3c0.5,0,1,0.1,1.3,0.2
		c0.3,0.1,0.7,0.3,1,0.4l0-3.7l2.8,0L103.9,31.8z M101.1,29.4l0-4.3c-0.2-0.1-0.4-0.1-0.6-0.2c-0.2,0-0.4-0.1-0.6-0.1
		c-0.7,0-1.3,0.2-1.7,0.7s-0.6,1.1-0.6,1.9c0,0.9,0.1,1.5,0.4,1.9s0.8,0.6,1.4,0.6c0.3,0,0.5,0,0.8-0.1
		C100.6,29.7,100.9,29.6,101.1,29.4z"/>
	<path d="M115.2,28l-6.4,0c0,0.7,0.3,1.2,0.8,1.6c0.5,0.4,1.2,0.5,2.1,0.5c0.6,0,1.2-0.1,1.7-0.3c0.6-0.2,1-0.4,1.3-0.7h0.3l0,2.3
		c-0.6,0.3-1.2,0.4-1.8,0.6c-0.6,0.1-1.2,0.2-1.9,0.2c-1.8,0-3.1-0.4-4-1.2c-0.9-0.8-1.4-1.9-1.4-3.4c0-1.4,0.4-2.6,1.3-3.4
		c0.9-0.8,2.1-1.3,3.7-1.3c1.4,0,2.5,0.4,3.2,1.1c0.7,0.7,1.1,1.8,1.1,3.1L115.2,28z M112.4,26.3c0-0.6-0.2-1-0.4-1.3
		s-0.7-0.4-1.3-0.4c-0.5,0-1,0.1-1.3,0.4c-0.3,0.3-0.5,0.7-0.6,1.4L112.4,26.3z"/>
	<path d="M72.2,43.6l0,6.2l-2.8,0l0-4.4c0-0.4,0-0.8,0-1.1c0-0.3-0.1-0.5-0.2-0.7c-0.1-0.2-0.2-0.3-0.4-0.4S68.3,43,68,43
		c-0.3,0-0.5,0.1-0.8,0.2s-0.5,0.2-0.7,0.4l0,6.2l-2.8,0l0-8.8l2.8,0l0,1c0.5-0.4,0.9-0.7,1.4-0.9c0.4-0.2,0.9-0.3,1.5-0.3
		c0.6,0,1.1,0.1,1.5,0.4c0.4,0.3,0.8,0.6,1,1.1c0.6-0.5,1.1-0.8,1.6-1.1c0.5-0.3,1.1-0.4,1.6-0.4c0.9,0,1.7,0.3,2.2,0.9
		c0.5,0.6,0.7,1.4,0.7,2.5l0,5.7l-2.8,0l0-4.4c0-0.4,0-0.8,0-1.1c0-0.3-0.1-0.5-0.2-0.7c-0.1-0.2-0.2-0.3-0.4-0.4S74.1,43,73.8,43
		c-0.2,0-0.5,0-0.7,0.1S72.6,43.4,72.2,43.6z"/>
	<path d="M85.9,48.9c-0.2,0.1-0.3,0.3-0.6,0.4s-0.4,0.3-0.6,0.4c-0.3,0.1-0.6,0.2-0.9,0.3c-0.3,0.1-0.6,0.1-1,0.1
		c-0.8,0-1.5-0.3-2.1-0.8c-0.6-0.5-0.8-1.2-0.8-2c0-0.6,0.1-1.2,0.4-1.6s0.7-0.7,1.2-1c0.5-0.2,1.2-0.4,1.9-0.5
		c0.8-0.1,1.6-0.2,2.4-0.2v0c0-0.5-0.2-0.8-0.6-1c-0.4-0.2-1-0.3-1.7-0.3c-0.5,0-1,0.1-1.5,0.2c-0.5,0.2-0.9,0.3-1.1,0.4h-0.3l0-2.1
		c0.3-0.1,0.8-0.2,1.4-0.3c0.7-0.1,1.3-0.2,2-0.2c1.6,0,2.8,0.2,3.5,0.7c0.7,0.5,1.1,1.3,1.1,2.3l0,6l-2.8,0V48.9z M87.4,36.7v0.2
		l-2.8,2.9l-1.9,0l1.9-3.1L87.4,36.7z M85.9,47.5l0-1.8c-0.4,0-0.8,0.1-1.2,0.1c-0.4,0.1-0.8,0.1-1,0.2c-0.3,0.1-0.5,0.2-0.6,0.4
		c-0.1,0.2-0.2,0.4-0.2,0.7c0,0.2,0,0.3,0,0.4s0.1,0.2,0.2,0.3c0.1,0.1,0.3,0.2,0.4,0.2s0.4,0.1,0.8,0.1c0.3,0,0.6-0.1,0.9-0.2
		S85.7,47.7,85.9,47.5z"/>
	<path d="M98.9,47c0,0.9-0.4,1.6-1.2,2.2c-0.8,0.6-1.9,0.8-3.3,0.8c-0.8,0-1.5-0.1-2.1-0.2s-1.1-0.3-1.5-0.5l0-2.3H91
		c0.1,0.1,0.3,0.2,0.5,0.3c0.2,0.1,0.4,0.2,0.8,0.4c0.3,0.1,0.6,0.2,1,0.3s0.8,0.1,1.2,0.1c0.6,0,1-0.1,1.2-0.2s0.4-0.3,0.4-0.5
		c0-0.2-0.1-0.4-0.2-0.5s-0.5-0.2-0.9-0.3c-0.2,0-0.5-0.1-0.8-0.2c-0.4-0.1-0.7-0.1-1-0.2c-0.8-0.2-1.4-0.5-1.8-1
		c-0.4-0.4-0.6-1-0.6-1.6c0-0.8,0.4-1.5,1.2-2.1c0.8-0.6,1.9-0.8,3.3-0.8c0.7,0,1.3,0.1,1.9,0.2c0.6,0.1,1.1,0.3,1.4,0.4l0,2.2h-0.2
		c-0.4-0.3-0.9-0.5-1.4-0.7c-0.5-0.2-1.1-0.3-1.6-0.3c-0.5,0-0.8,0.1-1.1,0.2c-0.3,0.1-0.5,0.3-0.5,0.5c0,0.2,0.1,0.4,0.2,0.5
		c0.1,0.1,0.5,0.2,1,0.3c0.3,0.1,0.6,0.1,0.9,0.2s0.7,0.1,1,0.2c0.7,0.2,1.3,0.5,1.6,0.9C98.7,45.9,98.9,46.4,98.9,47z"/>
</g>
</svg>
