<?xml version="1.0" encoding="utf-8"?>
<!-- Generator: Adobe Illustrator 19.1.0, SVG Export Plug-In . SVG Version: 6.00 Build 0)  -->
<svg version="1.1" id="Layer_1" xmlns="http://www.w3.org/2000/svg" xmlns:xlink="http://www.w3.org/1999/xlink" x="0px" y="0px"
	 viewBox="0 0 50 50" enable-background="new 0 0 50 50" xml:space="preserve">
<g>
	<g>
		<path fill="#FFFFFF" d="M44.4,25.3c0.1,0.1,0.3,0,0.2-0.2l-0.3-0.1L44.4,25.3z"/>
		<path fill="#FFFFFF" d="M45,24.1c-0.2-0.2-0.5-0.4-0.8-0.3c0.3,0.2,0.2,0.2,0.6,0.4c0,0.2-0.1,0.3-0.2,0.3
			c0.1,0.1-0.1,0.3,0.2,0.4c0.2-0.2,0.2-0.5,0-0.8C44.8,24,44.9,24.1,45,24.1z"/>
		<path fill="#FFFFFF" d="M36.9,8.6L37,8.7C37,8.7,37,8.7,36.9,8.6z"/>
		<path fill="#FFFFFF" d="M26.4,4.7c0.1,0,0.1,0,0.1-0.1C26.5,4.7,26.4,4.7,26.4,4.7z"/>
		<path fill="#FFFFFF" d="M24.5,4.3c0,0,0.1,0,0.1,0C24.5,4.3,24.5,4.3,24.5,4.3z"/>
		<path fill="#FFFFFF" d="M36.9,8.6l-0.2-0.3C36.7,8.4,36.8,8.5,36.9,8.6z"/>
		<path fill="#FFFFFF" d="M43.9,21.8c0,0.1,0.1,0.1,0.1,0.1C44,21.9,44,21.9,43.9,21.8L43.9,21.8z"/>
		<path fill="#FFFFFF" d="M40.8,11.8L40.8,11.8c0.1,0.1,0.2,0.1,0.2,0L40.8,11.8z"/>
		<path fill="#FFFFFF" d="M43.1,14.9c0-0.1-0.3,0-0.4,0.1c0.1,0,0.2,0,0.3,0.1C43,15.1,43,15,43.1,14.9z"/>
		<path fill="#FFFFFF" d="M44.9,20.8L44.9,20.8C44.9,20.8,44.9,20.8,44.9,20.8z"/>
		<path fill="#FFFFFF" d="M38.9,9.8C38.9,9.8,39,9.7,38.9,9.8C38.9,9.7,38.9,9.8,38.9,9.8z"/>
		<path fill="#FFFFFF" d="M43.3,29.4C43.4,29.4,43.4,29.4,43.3,29.4C43.4,29.3,43.4,29.3,43.3,29.4z"/>
		<path fill="#FFFFFF" d="M45.2,25.3L45.2,25.3c0.1,0.1,0.1,0.1,0.2,0.1L45.2,25.3z"/>
		<path fill="#FFFFFF" d="M20.8,4.3C20.8,4.3,20.8,4.3,20.8,4.3C20.9,4.3,20.8,4.3,20.8,4.3z"/>
		<path fill="#FFFFFF" d="M4.3,29.8c0.2-0.4,0.5,0.5,0.6-0.1C4.8,29.8,4.4,29.3,4.3,29.8z"/>
		<path fill="#FFFFFF" d="M43.9,21.7c0,0,0-0.1,0-0.1C43.9,21.6,43.9,21.7,43.9,21.7z"/>
		<path fill="#FFFFFF" d="M4.9,29.7L4.9,29.7L4.9,29.7C4.9,29.7,4.9,29.7,4.9,29.7z"/>
		<path fill="#FFFFFF" d="M13.1,7.8c0,0,0.1,0,0.1,0.1C13.2,7.8,13.2,7.8,13.1,7.8z"/>
		<path fill="#FFFFFF" d="M18.9,5.4l-0.2,0C18.8,5.4,18.8,5.4,18.9,5.4z"/>
		<path fill="#FFFFFF" d="M10.8,10.1c-0.1,0-0.1,0-0.2,0.1c0,0,0,0,0,0C10.7,10.2,10.7,10.1,10.8,10.1z"/>
		<path fill="#FFFFFF" d="M8.6,12.6C8.6,12.6,8.6,12.6,8.6,12.6c0.1,0,0.1-0.1,0.1-0.1L8.6,12.6z"/>
		<path fill="#FFFFFF" d="M39.4,37.5c0.1,0,0.2,0,0.3,0.1C39.6,37.5,39.8,37.1,39.4,37.5z"/>
		<path fill="#FFFFFF" d="M44.1,21.8c-0.1,0-0.1,0-0.1-0.1l0,0.1C44,21.8,44.1,21.8,44.1,21.8z"/>
		<path fill="#FFFFFF" d="M12.2,11.8l-0.4,0.3C12,12,12.1,11.9,12.2,11.8z"/>
		<path fill="#FFFFFF" d="M19.8,43.5l0.1,0C19.9,43.5,19.9,43.5,19.8,43.5z"/>
		<path fill="#FFFFFF" d="M10.9,13.2c-0.1,0-0.2,0-0.3,0.1c0,0,0,0.1,0,0.1L10.9,13.2z"/>
		<path fill="#FFFFFF" d="M39.7,37.6L39.7,37.6L39.7,37.6z"/>
		<path fill="#FFFFFF" d="M41,34.6c-0.2,0.4,0.2,0.4,0.3,0.6c-0.2,0.5-0.4,0.1-0.6,0.1c-0.1,0.3,0.1,0.8-0.1,0.9
			c-0.1,0-0.1,0-0.1-0.1c0,0.5-0.6,0.9-0.6,1.4c0,0-0.1,0-0.1,0c0.2,0.1,0.3,0.2,0.4,0.3c-0.1,0.2-0.1,0.4-0.3,0.3
			c0.1-0.1,0-0.2,0-0.3l-0.1,0.2c-0.4-0.1,0.1-0.3-0.1-0.5c-0.2,0.4-0.3,1-0.6,1.1c-0.3-0.2,0.4-0.6-0.1-0.5l0.4-0.3
			c-0.7-0.1,0.2-0.2-0.4-0.3c-0.5,0.4-0.3,0.7-0.9,1c0,0.2,0.2,0.2,0.3,0.4c-0.5,0.9-1.1-0.1-1.3,0.7c0,0.3,0.2,0.7-0.3,0.8
			l-0.1-0.4c-0.5,0.3,0,0.7-0.7,0.9c0-0.2,0.3-0.4,0.2-0.4c-0.5,0-0.1,0.4-0.4,0.6L35.6,41c-0.6,0.4-1,1-1.7,1.4
			c0-0.1,0.1-0.3-0.1-0.3c-0.4,0.3-0.8,0.5-1.3,0.7c-0.5,0.1-1,0.2-1.4,0.2l-0.2,0.4c-0.1,0-0.2-0.1-0.1-0.2c-0.4,0,0,0.2-0.1,0.3
			c-0.2,0.1-0.3-0.1-0.2-0.2c-0.5,0.4-1.6,1-2.3,0.7l0.1-0.1c-0.5,0-0.5,0.7-1,0.5l0.1-0.1c-1.1,0-2.4,0.3-3.2-0.2
			c-0.2,0.4-1.1-0.2-1.2,0.3c-0.6-0.4-0.4-0.5-1.2-0.8c-0.2-0.1-0.4,0.3-0.7,0.3l0.1-0.3l-0.5,0.2l-0.1-0.4l-0.3,0
			c0.1,0,0.2,0.2,0.2,0.3c-0.5,0-1-0.5-0.9-0.7l-1-0.1c0.1-0.1,0.2-0.1,0.4-0.1c-0.6,0.1,0-0.3-0.5-0.2c0,0.1-0.1,0.2-0.1,0.2
			c-0.2-0.2-0.7-0.5-1.1-0.6l0.2-0.2c-0.7-0.3-1.4-0.7-2.2-1.1c0.2,0.2-0.1,0.5-0.3,0.4l0.1-0.3c-0.3,0.1,0.2,0.2-0.3,0.3
			c-0.2-0.2,0-0.4,0.2-0.4l-0.4-0.1c0-0.1,0.1-0.1,0.2-0.2c-0.2,0.1-0.3-0.7-0.7-0.5l0-0.1c-0.7-0.5-1-0.7-1.5-1.1
			c-0.2,0.2-0.4,0-0.7,0c-0.3-0.4-0.5-1-0.9-1.5c-0.4-0.2-0.3,0.1-0.5,0c0.2-0.2-0.2-0.7,0.1-0.5c-0.5-0.6-0.7-0.7-1.3-1.4
			c0,0.1,0,0.3-0.1,0.3c-0.1-0.1-0.1-0.4,0-0.4l0,0c-0.4-0.4-0.6-1-0.7-1.6c-0.1-0.6-0.2-1.1-0.6-1.4l0,0L7,31.7
			c-0.1-0.4,0.3,0.2,0.3-0.2c-0.4-0.4-0.5-0.7-0.5-1.1c-0.1-0.3-0.1-0.7-0.3-1c0.3-0.4,0.2-0.9,0.1-1.4c-0.1-0.3-0.1-0.5-0.2-0.8
			c0-0.3,0-0.5,0.1-0.7l-0.2,0.1c-0.2-0.2,0.1-0.3,0.1-0.4c-0.1,0-0.1,0.2-0.3,0.1c-0.2-0.9,0-1.8,0.1-2.7c0.1-0.4,0.3-0.9,0.4-1.3
			l0.2-0.6L7.2,21c0.2-0.6-0.8-0.6-0.2-1.3L7.2,20c0-0.7,0.3-1.3,0.5-1.9c0.3-0.6,0.6-1.2,0.7-1.9c0,0.1,0.1,0.2,0.1,0.3
			c0.3-0.1,0.5-0.9,0.4-1c0.1-0.2,0.2,0.1,0.3,0c0.3-0.2,0.1-0.8,0.4-0.7c0,0,0,0.1,0,0.2c0-0.2,0.5-0.6,0.2-0.7
			c0.4-0.3,0.5-0.8,0.8-1c-0.1-0.4,0.7-0.5,0.4-0.9c0.3,0.3,0.8-0.4,0.9-0.7c0,0.2,0.3-0.1,0.3,0.1c0.3-0.2,0.4-0.5,0.2-0.6
			c0.8,0,0.7-1.2,1.5-0.8c0.2-0.2,0.3-0.4,0.5-0.6c0.2-0.2,0.4-0.3,0.6-0.5c0.4-0.3,0.7-0.7,1.2-0.9c0.2,0.4-0.9,0.5-0.6,0.9
			c0.6-0.6,1-1.2,1.8-1.5c0.2,0,0,0.2-0.1,0.3c0.4-0.3,0.8-0.4,1.2-0.6c0.4-0.1,0.8-0.3,1.1-0.5c0,0-0.1,0.1-0.1,0.2
			c0.1-0.1,0.4,0,0.3-0.2l-0.1,0.1c-0.3-0.2,0.4-0.8,0.4-0.9c-0.1,0.6,0.8-0.1,0.6,0.8c0.1-0.1,0.2-0.2,0.1-0.3
			c0.2,0,0.2,0.1,0.1,0.3c0.5-0.3,0.3-0.4,0.8-0.5c0,0.1-0.1,0.2-0.1,0.3c0.2-0.2,0.5-0.5,0.9-0.4c0,0.1,0,0.1-0.1,0.2
			c0.7-0.2,1.2-0.6,2.1-0.5c-0.2,0.4,0.3,0.1,0.3,0.5c0,0,0.1,0,0.2-0.1c0.1,0,0.2,0,0.2,0L25.1,6c0.4,0,0.7-0.2,1.1-0.1l-0.3,0.1
			l0.7,0l-0.4-0.2c0.4-0.2,0-0.4,0.5-0.3c-0.1,0,0.4,0.4,0.6,0.4h0c0.2,0,0.4-0.3,0.7-0.1c0.1,0.1-0.1,0.4-0.1,0.4
			c0.2-0.3,0.9,0,1.2-0.2C29.1,6.1,29,6.3,29,6.4l0.2-0.2c0.2,0.1,0.2,0.2,0.1,0.3c0.5,0.2-0.1-0.5,0.5-0.1c-0.1,0,0,0-0.2,0.1
			c0.6,0.3,1.3,0.1,1.8,0.5c0,0.4-0.5-0.1-0.4,0.3c0.4,0.1,0.9,0.2,1.3,0.2c0.4,0.1,0.9,0.2,1.2,0.4l-0.1-0.1
			c0.3-0.4,0.5,0.5,0.9,0.5c-0.1,0-0.3,0.2-0.2,0.2c0.4,0.4,1.1,0.5,1.9,0.8l-0.2,0c0.2,0.3,0.7,0.6,0.9,0.9c0.2,0,0.3,0.1,0.3-0.1
			c0.2,0.6,0.6,0.9,1.1,1.2c0.5,0.2,0.9,0.5,1,1.1c-0.1-0.1-0.3-0.1-0.2-0.1l0.7,0.5c0.1-0.2,0-0.2,0-0.4c0.2,0,0.4,0.1,0.6,0.3
			c-0.4-0.2-0.3,0.2-0.3,0.5c0-0.1,0.1-0.1,0.2-0.1c-0.1,0.6,0.4-0.2,0.6,0.4l-0.1,0c0.2,0.1,0.4,0.2,0.6,0.4
			c-0.2,0.2-0.2-0.1-0.4,0c0.2,0.3,0.8,0.3,0.8,0.7c-0.1-0.1-0.2-0.3-0.4-0.3c-0.1,0.4,0,0.4,0.1,0.7l0,0l0.2,0.6l0-0.2
			c0.8,0,0.6,0.7,1.2,1c-0.6-0.3-0.3,0-0.6,0.1c0,0.2,0,0.4-0.1,0.4c0.3,0.1,0,0.5,0.5,0.7c-0.1,0.1,0.1,0.3-0.1,0.3
			c0.2,0.3,0.1-0.1,0.2-0.2c0.5,0.4,0.1,1.3,0.8,1.9c0.4,0.6,0.7,0.6,1,1.2c-0.1,0.2-0.4-0.1-0.4-0.1c-0.1,0.4,0.1,0.6,0.2,0.9
			c-0.1,0-0.2,0-0.2,0.2c0.1,0.3,0.4,0.1,0.3,0.5c-0.1,0-0.3-0.1-0.4-0.2c0.1,0.3,0.4,0.6,0.5,0.9c-0.2,0.1-0.3-0.2-0.4-0.2
			c0.1,0.3,0.3,0.9,0.6,1l0.1-0.2c0,0.1-0.2,0.1-0.3,0c-0.3-0.3,0-0.4,0.1-0.5l0.1,0.2c0.5-0.3-0.2-0.9-0.3-1.4l0.4,0.1l-0.4-0.4
			c0.1-0.1,0.3-0.2,0.4,0c0.1-0.4-0.2-0.3-0.1-0.6c0,0,0,0,0.1,0l-0.2-0.3c0.1,0,0.3-0.1,0.3,0.1c0.1-0.6-0.5-0.9-0.3-1.2l0,0
			c-0.4-0.8-0.3,0-0.9-0.5l0.6-0.6l-0.3,0c0-0.1-0.1-0.3,0.1-0.3c-0.3-0.2-0.1,0.1-0.4,0c0.1-0.5-0.5-1-0.1-1.3
			c-0.3,0,0,0.4-0.3,0.1c0.4-0.3-0.3-0.4-0.2-0.9c0.3,0,0.3,0.4,0.4-0.1c-0.5,0-0.2-0.7-0.5-0.9c-0.3,0.2-0.5-0.5-0.9-0.9
			c0.1-0.1-0.4-0.9-0.6-1.4l0.1,0c-0.4,0.2-0.6-0.3-0.9-0.5c0.2-0.1,0.3-0.1,0.5,0c0,0-0.2-0.3-0.2-0.3c-0.1,0-0.3,0-0.5-0.2
			l0.3-0.1c-0.3-0.3-0.9-0.5-1.2-1c-0.2,0.2-0.2,0.8-0.7,0.5c0.1-0.1,0.2-0.3,0.4-0.2c-0.1,0-0.2,0-0.3-0.2l0.3,0
			c-0.1-0.3-0.2,0-0.4-0.1c0.1-0.1,0-0.2,0.1-0.3c0.1,0,0.1,0.2,0.2,0.2c-0.2-0.2-0.3-0.5-0.3-0.7c-0.1,0.1-0.2,0.2-0.3,0.1
			c-0.4-0.3,0-0.3-0.1-0.6c-0.2,0-0.3-0.3-0.5,0c-0.1-0.1,0-0.2,0-0.3c-0.3,0-0.9-0.7-0.9-0.2l0,0.1c0,0,0,0,0,0l0,0l0,0
			c-0.8-0.3-1.3-1-2-1.4l0-0.1c-0.5-0.1-1-0.4-1.4-0.4c-0.1-0.1-0.2-0.3-0.1-0.4c-0.4-0.1-0.4,0-0.9-0.3c0.4,0-0.1-0.2,0.4,0
			c-0.4-0.2-0.5-0.4-1-0.3c0.3-0.2-0.2-0.4-0.5-0.4l0.3,0.3c-0.2-0.1-0.4-0.1-0.7-0.2l0.2-0.3c-0.9-0.6-1.9,0.2-2.4-0.6
			c-0.3,0.2,0.5,0.2,0.2,0.5c-0.4-0.1-0.8-0.7-1-0.7c-0.6-0.3-0.6,0.4-1.3,0.2c0.1,0.1,0.1,0.4-0.4,0.5c-0.4-0.1-0.5-0.5-0.2-0.6
			c0.1,0,0.2,0,0.1,0.1c0.1,0,0.3-0.1,0.2-0.2l-0.1,0.1c-0.2-0.1-0.8-0.2-0.7-0.3c-0.3,0.1-0.2,0.2,0.1,0.3
			c-0.6-0.2-0.9-0.1-1.5-0.1c0.1,0.1,0.2,0.2,0.1,0.2c-0.9-0.1-0.4,0.2-1,0.3c-0.3-0.2,0.1-0.4-0.5-0.3c-0.4-0.1-0.1-0.3,0-0.4
			c-0.5,0.2-1,0-1.4,0L22.2,4c-0.2,0.1-0.3,0.1-0.5,0.1l0.2,0.2c-0.2,0-0.3,0-0.3-0.1c-0.1,0.2,0.2,0.4-0.1,0.6
			c-0.2-0.1-0.6,0.2-0.8-0.1c0.7,0-0.1-0.3,0.4-0.5c-0.1,0.1-0.2,0.1-0.4,0.1c0,0,0-0.1,0.1-0.1c-0.7-0.1-0.2,0.4-0.9,0.6
			c0-0.2-0.2-0.3-0.3-0.2c0.3-0.1,0.2,0.3,0,0.4c-0.5,0-0.4,0.2-0.7,0.3l0.3,0c0,0.2-0.3,0.2-0.5,0.4c-0.1-0.1,0.2-0.2,0.1-0.2
			c-0.2,0.4-0.8,0-1.2,0.3c-0.3,0-0.1-0.3-0.4-0.3C16.7,6,16.5,5.6,16,6c0.3,0.1,0.2,0.1,0,0.5l0.8-0.6l-0.4,0.6
			c0.3-0.1,0.5-0.4,0.6-0.4c-0.2,0.3-0.2,0.2,0,0.3C16.6,6.3,16.5,7,16,6.9l-0.2-0.5c-0.7,0-0.9,0.8-1.7,1.1l0.3-0.1
			c0,0.3-0.4,0.3-0.6,0.5c-0.1-0.2-0.3-0.1-0.4-0.2c0.1,0.1-0.5,0.4-0.4,0.7l-0.5,0c-0.6,0.3-0.3,0.9-0.8,1.3c0-0.3-0.3-0.2-0.1-0.6
			c-0.2,0.2-0.3,0.3-0.3,0.4c-0.2,0-0.3,0.6-0.6,0.6c0,0.1,0.1,0.3-0.1,0.5c0,0-0.1-0.1-0.1-0.1c0.1,0.1-0.2,0.4,0.1,0.4
			c-0.9,0.1-1.3,1.4-2,1.6c-0.2,0.4-0.5,0.9-0.8,1.3c0-0.1-0.1-0.1,0-0.1c-0.5,0.4,0.3,0.6-0.2,1.1c-0.5,0.1,0-0.4-0.2-0.3
			c-0.6-0.2-0.4,0.7-0.9,1l0-0.1c-0.4,0.2-0.2,0.9-0.5,1.4c0,0,0,0-0.1,0c0.1,0.5,0,1.2-0.1,1.8c-0.2-0.2,0-0.3-0.3-0.3
			c-0.1,0.2,0.4,0.1,0.3,0.6c-0.2,0.1-0.4,0.4-0.7,0.4c0,0,0.1-0.5,0.1-0.5c-0.4,0.1-0.2,0.6-0.3,0.8l-0.1-0.1
			c-0.1,0.7,0.2,0.8,0,1.6L5,21c0.3,0.5-0.3,0.3-0.1,0.8l-0.4,0.1c0.1,0.3,0.2,1,0.2,1.5c-0.3-0.3-0.3-0.9-0.4-1.3
			c0,0.3-0.1,1,0.1,1.1c0-0.1-0.1-0.3,0-0.4c0.2,0.4,0.4,0.8,0.4,1.4c-0.8-0.1-0.3,1.4-0.8,1.8c0.2,0.5,0.2,1,0.1,1.5
			c0,0.5,0,1.1,0.1,1.6c0.5-0.5,0.1,0.3,0.7,0.1c0.1,0.3,0.1,0.3,0.1,0.4l-0.2,0.9c-0.1,0.2-0.2-0.2-0.3-0.2
			c0.1,0.6-0.2,0.3-0.2,0.7c0.2-0.1,0.4,0.1,0.4,0.5l0.1-0.5C5.2,31.8,4.4,32,5,32.7l-0.3-0.2C5,32.9,5.3,34,6,34.2
			c0,0.1-0.1,0.3-0.3,0.1c0.2,0.5,0.5,1,0.9,1.4c0.4,0.4,0.7,0.8,0.8,1.2l-0.2,0C7.4,37,7.6,37,7.6,37.3c-0.1,0-0.2,0-0.1,0.1
			c0.1,0.1,0.5,0.3,0.6,0.5l-0.3-0.1c0.2,0.5,0.5,0.7,0.9,0.9c0.3,0.2,0.7,0.3,1,0.6c-0.3,0.3,0.1,1,0.3,1.3l-0.1,0
			c0.4,0.4,0.9,0.7,1.3,0.9c0.4,0.2,0.9,0.4,1.4,0.6c0.1,0.4,0.6,0.8,1.1,1.1c0.5,0.3,1.1,0.7,1.5,1c-0.1-0.1,0.2-0.3,0.4-0.3
			c0.2,0.2,0.8,0,0.6,0.4l-0.1,0c0,0.4,0.5,0.6,0.9,0.7l0.3-0.5c0.4,0.5,1,0.7,1.7,0.8c0.6,0.1,1.2,0.1,1.4,0.5
			c0.3-0.1,0.6,0,0.9-0.1l-0.1,0.3c0.7,0.2,1,0.3,1.9,0.3L23,46.8c0.5,0,0.7-0.8,1.1-0.8l0.1,0.4c0.9,0.1,1.8,0.3,2.6-0.1
			c0,0.1,0,0.2-0.2,0.2c0.4,0,1.6,0.1,1.4-0.5c0.1,0.4,0.9-0.1,1.3-0.3l0,0.3c0.3-0.4,0.3-0.5,0.8-0.8c0.1,0,0.2,0.2,0,0.2
			c0.5,0,0.3-0.3,0.8-0.3l-0.1,0.2c0.4-0.1,0.4-0.2,0.5-0.4c0.2-0.2,0.8-0.2,0.9,0c0-0.2,0.2-0.4,0.4-0.5c0.1,0.1,0,0.2,0,0.2
			c0.8-0.1,0.9-0.7,1.4-0.7c0,0.1,0.1,0.1,0.2,0.1c-0.5,0.2-1,0.4-0.9,0.4c0.1,0.2,0.6,0.1,0.4,0.6c0.3-0.3,0.7-1,1.2-1.1
			c0,0,0.1,0,0.1,0.1l0,0c0.1,0,0.2-0.1,0.2-0.2c0.1,0,0.2-0.1,0.4-0.1c0.2,0.2,0.5-0.2,0.7-0.3c-0.2-0.2,0.1-0.4-0.2-0.4
			c0,0,0,0.1-0.1,0.1c0,0-0.1,0.1-0.1,0.1l0,0c-0.1,0.1-0.3,0.2-0.5,0.3c0.1-0.2,0.2-0.4,0.5-0.4c0-0.2,0-0.4,0-0.6
			c0.5,0.2,1.1,0,1.3,0.1c0.5-0.6,1.3-1.1,1.3-1.8c0.1-0.2,0.3,0,0.4,0c-0.1,0.1-0.2,0.2-0.2,0.3c0.2-0.4,0.9-0.9,0.7-1.2
			c0.5-0.2,0,0.4,0.5-0.1l0,0.2c0.7-0.3,0.9-0.9,1.1-1.5c0.2-0.6,0.4-1.2,1.2-1.6c-0.1,0.1-0.2,0.1-0.2,0.1c1.3-1.3,1.6-3.2,2.6-4.6
			c0.3-0.4,0.1-0.6,0-0.9l0.3,0L44.7,31c0-0.4,0.2-0.6,0.5-0.9c0.2-0.3,0.5-0.6,0.3-1.1L45.2,29c0.1-0.3,0-1,0.3-1
			c0,0-0.2-0.1-0.1-0.2l0.2,0c0,0,0-0.2-0.1-0.4c-0.1-0.2-0.1-0.4-0.1-0.4c0.1-0.6,0.6,0.1,0.7-0.8c0-0.4-0.4-1-0.5-0.9
			c0,0.1-0.1,0.3-0.3,0.4l-0.1-0.3c-0.5-0.1-0.9-0.3-1.3,0.4l0.3,0.5l-0.2,0.1l0-0.4c-0.2,0.2,0,0.4,0.1,0.6c-0.1,0-0.2,0.1-0.3,0.2
			l0.4,0.5c-0.2,0-0.3-0.2-0.5,0.1c0.2,0.2,0.4-0.2,0.5,0.2c-0.2,0.2-0.4,0.1-0.3,0.4c-0.1,0-0.2,0-0.2-0.2c0.1,0.3,0,0.6,0.2,0.8
			c-0.3,0.2-0.1,0.8-0.5,0.7c0.1,0.1,0.2,0.5,0.2,0.7c-0.4-0.5-0.2,0.8-0.8,0.5c0.4,0.4-0.2,1.1-0.1,1.7c0,0-0.1-0.1,0-0.2
			c-0.1,0.3-0.3,0.3-0.5,0.4c0.3,0.2,0.2,0.6,0.3,1c-0.5,0.2-0.3-0.4-0.7-0.4c0.3,0.1,0,0.7,0.3,0.7C41.9,34,42,34,41.6,34
			c0.4,0.3,0,0.3,0.1,0.6c-0.4,0.2-0.5-0.1-0.6,0.3C40.9,35,41,34.6,41,34.6z M33.9,42.5L33.9,42.5c0.1-0.1,0.1-0.1,0.2-0.1
			C34.1,42.4,34,42.4,33.9,42.5z M33.1,42.9c0.1,0,0.2-0.1,0.4-0.2c0.1,0.1,0.1,0.2,0,0.2C33.5,42.9,33.2,42.9,33.1,42.9z
			 M35.8,43.7c-0.1,0.1-0.2,0.1-0.2,0.1c0.1,0,0.1-0.1,0.2-0.2l0,0C35.8,43.6,35.8,43.6,35.8,43.7z"/>
		<path fill="#FFFFFF" d="M35.8,43.2C35.9,43.2,35.9,43.2,35.8,43.2C35.9,43.1,35.8,43.1,35.8,43.2L35.8,43.2L35.8,43.2z"/>
		<path fill="#FFFFFF" d="M37,8.7L37,8.7C37,8.7,37,8.8,37,8.7C37,8.8,37,8.8,37,8.7z"/>
		<polygon fill="#FFFFFF" points="20.8,43.6 20.8,43.7 20.9,43.6 		"/>
		<path fill="#FFFFFF" d="M40.2,13C40.2,13,40.2,13.1,40.2,13C40.2,13.1,40.2,13.1,40.2,13z"/>
		<path fill="#FFFFFF" d="M41.4,14.8l0.1,0.3C41.5,15,41.4,14.9,41.4,14.8z"/>
		<path fill="#FFFFFF" d="M42.1,16.4c0.1,0,0.1,0,0.1,0l0,0L42.1,16.4z"/>
		<path fill="#FFFFFF" d="M19.5,7.2C19.5,7.2,19.5,7.2,19.5,7.2C19.3,7.3,19.4,7.3,19.5,7.2z"/>
		<path fill="#FFFFFF" d="M27.3,5.8c-0.1,0-0.2,0.1-0.3,0.1C27.2,6,27.3,6,27.3,5.8z"/>
		<polygon fill="#FFFFFF" points="12.3,11.8 12.3,11.8 12.2,11.8 		"/>
		<path fill="#FFFFFF" d="M26.7,5.9c0.1,0.1,0.3,0.1,0.4,0C26.9,5.9,26.8,5.9,26.7,5.9z"/>
		<path fill="#FFFFFF" d="M44.1,23.3L44.1,23.3C44.1,23.4,44.2,23.4,44.1,23.3L44.1,23.3z"/>
		<path fill="#FFFFFF" d="M44.2,23.4L44.2,23.4C44.2,23.4,44.2,23.4,44.2,23.4z"/>
		<path fill="#FFFFFF" d="M44.3,23.6l-0.1-0.2C44.2,23.5,44.2,23.6,44.3,23.6z"/>
		<path fill="#FFFFFF" d="M43.9,21.1l-0.1,0C43.8,21.1,43.8,21.1,43.9,21.1z"/>
		<path fill="#FFFFFF" d="M43.7,20.4c0,0.2-0.1,0.4,0,0.6l0.1,0C43.6,21,43.9,20.6,43.7,20.4z"/>
		<path fill="#FFFFFF" d="M44,17.3c0,0,0.1,0.6,0.1,0.6c0.1-0.1,0.2-0.3,0.3-0.1C44.4,17,44.2,18,44,17.3z"/>
		<path fill="#FFFFFF" d="M43.3,15.5c0.2,0.3,0.1-0.1,0.2-0.1C43.3,15.3,43.2,15.3,43.3,15.5z"/>
		<path fill="#FFFFFF" d="M33.5,6.4l0.1-0.2C33.4,6.1,33.6,6.3,33.5,6.4z"/>
		<path fill="#FFFFFF" d="M30.7,6.8c0,0,0.2,0.2,0.2,0.2L31,6.8C31,6.8,30.7,6.8,30.7,6.8z"/>
		<polygon fill="#FFFFFF" points="29.7,4.7 29.8,4.6 29.4,4.6 		"/>
		<path fill="#FFFFFF" d="M8.7,11.9L9,12.1C9.1,11.9,8.9,11.7,8.7,11.9z"/>
		<path fill="#FFFFFF" d="M4.7,21c-0.2,0.1-0.3,0.3-0.2,0.5C4.6,21.3,4.7,21.1,4.7,21z"/>
		<polygon fill="#FFFFFF" points="17.7,45.3 17.5,45.3 17.9,45.4 		"/>
	</g>
	<g>
		<g>
			<path fill="#FFFFFF" d="M44.3,25.3c0.1,0.1,0.3,0,0.2-0.2L44.2,25L44.3,25.3z"/>
			<path fill="#FFFFFF" d="M44.9,24.1c-0.2-0.2-0.5-0.4-0.8-0.3c0.3,0.2,0.2,0.2,0.6,0.4c0,0.2-0.1,0.3-0.2,0.3
				c0.1,0.1-0.1,0.3,0.2,0.4c0.2-0.2,0.2-0.5,0-0.8C44.7,24,44.8,24,44.9,24.1z"/>
			<path fill="#FFFFFF" d="M36.8,8.6l0.1,0.1C36.9,8.6,36.9,8.6,36.8,8.6z"/>
			<path fill="#FFFFFF" d="M26.3,4.6c0.1,0,0.1,0,0.1-0.1C26.4,4.6,26.3,4.6,26.3,4.6z"/>
			<path fill="#FFFFFF" d="M24.4,4.2c0,0,0.1,0,0.1,0C24.4,4.2,24.4,4.2,24.4,4.2z"/>
			<path fill="#FFFFFF" d="M36.8,8.6l-0.2-0.3C36.6,8.4,36.7,8.5,36.8,8.6z"/>
			<path fill="#FFFFFF" d="M43.8,21.8c0,0.1,0.1,0.1,0.1,0.1C43.9,21.8,43.9,21.8,43.8,21.8L43.8,21.8z"/>
			<path fill="#FFFFFF" d="M40.7,11.7L40.7,11.7c0.1,0.1,0.2,0.1,0.2,0L40.7,11.7z"/>
			<path fill="#FFFFFF" d="M43,14.9c0-0.1-0.3,0-0.4,0.1c0.1,0,0.2,0,0.3,0.1C42.9,15,42.9,15,43,14.9z"/>
			<path fill="#FFFFFF" d="M44.8,20.7L44.8,20.7C44.8,20.8,44.8,20.7,44.8,20.7z"/>
			<path fill="#FFFFFF" d="M38.8,9.7C38.8,9.7,38.8,9.7,38.8,9.7C38.8,9.7,38.8,9.7,38.8,9.7z"/>
			<path fill="#FFFFFF" d="M43.2,29.3C43.3,29.3,43.3,29.3,43.2,29.3C43.3,29.3,43.2,29.3,43.2,29.3z"/>
			<path fill="#FFFFFF" d="M45.1,25.3L45.1,25.3c0.1,0.1,0.1,0.1,0.2,0.1L45.1,25.3z"/>
			<path fill="#FFFFFF" d="M20.7,4.3C20.7,4.3,20.7,4.3,20.7,4.3C20.8,4.2,20.7,4.2,20.7,4.3z"/>
			<path fill="#FFFFFF" d="M4.2,29.8c0.2-0.4,0.5,0.5,0.6-0.1C4.7,29.8,4.3,29.3,4.2,29.8z"/>
			<path fill="#FFFFFF" d="M43.8,21.7c0,0,0-0.1,0-0.1C43.8,21.6,43.8,21.6,43.8,21.7z"/>
			<path fill="#FFFFFF" d="M4.8,29.7L4.8,29.7L4.8,29.7C4.8,29.6,4.8,29.7,4.8,29.7z"/>
			<path fill="#FFFFFF" d="M13,7.7c0,0,0.1,0,0.1,0.1C13.1,7.7,13.1,7.7,13,7.7z"/>
			<path fill="#FFFFFF" d="M18.7,5.4l-0.2,0C18.7,5.4,18.7,5.4,18.7,5.4z"/>
			<path fill="#FFFFFF" d="M10.7,10c-0.1,0-0.1,0-0.2,0.1c0,0,0,0,0,0C10.6,10.1,10.6,10.1,10.7,10z"/>
			<path fill="#FFFFFF" d="M8.5,12.5C8.5,12.5,8.5,12.5,8.5,12.5c0.1,0,0.1-0.1,0.1-0.1L8.5,12.5z"/>
			<path fill="#FFFFFF" d="M39.3,37.5c0.1,0,0.2,0,0.3,0.1C39.4,37.4,39.7,37.1,39.3,37.5z"/>
			<path fill="#FFFFFF" d="M44,21.7c-0.1,0-0.1,0-0.1-0.1l0,0.1C43.9,21.8,44,21.8,44,21.7z"/>
			<path fill="#FFFFFF" d="M12.1,11.8L11.8,12C11.9,12,12,11.9,12.1,11.8z"/>
			<path fill="#FFFFFF" d="M19.7,43.4l0.1,0C19.8,43.4,19.8,43.4,19.7,43.4z"/>
			<path fill="#FFFFFF" d="M10.8,13.1c-0.1,0-0.2,0-0.3,0.1c0,0,0,0.1,0,0.1L10.8,13.1z"/>
			<path fill="#FFFFFF" d="M39.6,37.5L39.6,37.5L39.6,37.5z"/>
			<path fill="#FFFFFF" d="M40.9,34.6c-0.2,0.4,0.2,0.4,0.3,0.6c-0.2,0.5-0.4,0.1-0.6,0.1c-0.1,0.3,0.1,0.8-0.1,0.9
				c-0.1,0-0.1,0-0.1-0.1c0,0.5-0.6,0.9-0.6,1.4c0,0-0.1,0-0.1,0c0.2,0.1,0.3,0.2,0.4,0.3c-0.1,0.2-0.1,0.4-0.3,0.3
				c0.1-0.1,0-0.2,0-0.3l-0.1,0.2c-0.4-0.1,0.1-0.3-0.1-0.5c-0.2,0.4-0.3,1-0.6,1.1c-0.3-0.2,0.4-0.6-0.1-0.5l0.4-0.3
				c-0.7-0.1,0.2-0.2-0.4-0.3c-0.5,0.4-0.3,0.7-0.9,1c0,0.2,0.2,0.2,0.3,0.4c-0.5,0.9-1.1-0.1-1.3,0.7c0,0.3,0.2,0.7-0.3,0.8
				l-0.1-0.4c-0.5,0.3,0,0.7-0.7,0.9c0-0.2,0.3-0.4,0.2-0.4c-0.5,0-0.1,0.4-0.4,0.6l-0.2-0.2c-0.6,0.4-1,1-1.7,1.4
				c0-0.1,0.1-0.3-0.1-0.3c-0.4,0.3-0.8,0.5-1.3,0.7c-0.5,0.1-1,0.2-1.4,0.2l-0.2,0.4c-0.1,0-0.2-0.1-0.1-0.2c-0.4,0,0,0.2-0.1,0.3
				c-0.2,0.1-0.3-0.1-0.2-0.2c-0.5,0.4-1.6,1-2.3,0.7L28,44c-0.5,0-0.5,0.7-1,0.5l0.1-0.1c-1.1,0-2.4,0.3-3.2-0.2
				c-0.2,0.4-1.1-0.2-1.2,0.3c-0.6-0.4-0.4-0.5-1.2-0.8c-0.2-0.1-0.4,0.3-0.7,0.3l0.1-0.3l-0.5,0.2l-0.1-0.4l-0.3,0
				c0.1,0,0.2,0.2,0.2,0.3c-0.5,0-1-0.5-0.9-0.7L18,43c0.1-0.1,0.2-0.1,0.4-0.1c-0.6,0.1,0-0.3-0.5-0.2c0,0.1-0.1,0.2-0.1,0.2
				c-0.2-0.2-0.7-0.5-1.1-0.6l0.2-0.2c-0.7-0.3-1.4-0.7-2.2-1.1c0.2,0.2-0.1,0.5-0.3,0.4l0.1-0.3c-0.3,0.1,0.2,0.2-0.3,0.3
				c-0.2-0.2,0-0.4,0.2-0.4l-0.4-0.1c0-0.1,0.1-0.1,0.2-0.2c-0.2,0.1-0.3-0.7-0.7-0.5l0-0.1c-0.7-0.5-1-0.7-1.5-1.1
				c-0.2,0.2-0.4,0-0.7,0c-0.3-0.4-0.5-1-0.9-1.5c-0.4-0.2-0.3,0.1-0.5,0c0.2-0.2-0.2-0.7,0.1-0.5c-0.5-0.6-0.7-0.7-1.3-1.4
				c0,0.1,0,0.3-0.1,0.3c-0.1-0.1-0.1-0.4,0-0.4l0,0c-0.4-0.4-0.6-1-0.7-1.6c-0.1-0.6-0.2-1.1-0.6-1.4l0,0l-0.6-0.7
				c-0.1-0.4,0.3,0.2,0.3-0.2c-0.4-0.4-0.5-0.7-0.5-1.1c-0.1-0.3-0.1-0.7-0.3-1C6.7,29,6.6,28.5,6.5,28c-0.1-0.3-0.1-0.5-0.2-0.8
				c0-0.3,0-0.5,0.1-0.7l-0.2,0.1c-0.2-0.2,0.1-0.3,0.1-0.4c-0.1,0-0.1,0.2-0.3,0.1c-0.2-0.9,0-1.8,0.1-2.7c0.1-0.4,0.3-0.9,0.4-1.3
				l0.2-0.6L7,20.9c0.2-0.6-0.8-0.6-0.2-1.3L7.1,20c0-0.7,0.3-1.3,0.5-1.9c0.3-0.6,0.6-1.2,0.7-1.9c0,0.1,0.1,0.2,0.1,0.3
				c0.3-0.1,0.5-0.9,0.4-1c0.1-0.2,0.2,0.1,0.3,0c0.3-0.2,0.1-0.8,0.4-0.7c0,0,0,0.1,0,0.2c0-0.2,0.5-0.6,0.2-0.7
				c0.4-0.3,0.5-0.8,0.8-1c-0.1-0.4,0.7-0.5,0.4-0.9c0.3,0.3,0.8-0.4,0.9-0.7c0,0.2,0.3-0.1,0.3,0.1c0.3-0.2,0.4-0.5,0.2-0.6
				c0.8,0,0.7-1.2,1.5-0.8c0.2-0.2,0.3-0.4,0.5-0.6c0.2-0.2,0.4-0.3,0.6-0.5c0.4-0.3,0.7-0.7,1.2-0.9c0.2,0.4-0.9,0.5-0.6,0.9
				c0.6-0.6,1-1.2,1.8-1.5c0.2,0,0,0.2-0.1,0.3c0.4-0.3,0.8-0.4,1.2-0.6c0.4-0.1,0.8-0.3,1.1-0.5c0,0-0.1,0.1-0.1,0.2
				c0.1-0.1,0.4,0,0.3-0.2L19.6,7C19.2,6.8,20,6.2,20,6.1c-0.1,0.6,0.8-0.1,0.6,0.8c0.1-0.1,0.2-0.2,0.1-0.3c0.2,0,0.2,0.1,0.1,0.3
				c0.5-0.3,0.3-0.4,0.8-0.5c0,0.1-0.1,0.2-0.1,0.3c0.2-0.2,0.5-0.5,0.9-0.4c0,0.1,0,0.1-0.1,0.2c0.7-0.2,1.2-0.6,2.1-0.5
				c-0.2,0.4,0.3,0.1,0.3,0.5c0,0,0.1,0,0.2-0.1c0.1,0,0.2,0,0.2,0L25,6c0.4,0,0.7-0.2,1.1-0.1L25.8,6l0.7,0l-0.4-0.2
				c0.4-0.2,0-0.4,0.5-0.2C26.5,5.6,27,6,27.2,6h0c0.2,0,0.4-0.3,0.7-0.2C28,6,27.8,6.2,27.8,6.3c0.2-0.3,0.9,0,1.2-0.3
				c-0.1,0.1-0.1,0.2-0.1,0.3l0.2-0.2c0.2,0.1,0.2,0.2,0.1,0.3c0.5,0.2-0.1-0.5,0.5-0.1c-0.1,0,0,0-0.2,0.1c0.6,0.3,1.3,0.1,1.8,0.5
				c0,0.4-0.5-0.1-0.4,0.3c0.4,0.1,0.9,0.2,1.3,0.2c0.4,0.1,0.9,0.2,1.2,0.4l-0.1-0.1c0.3-0.4,0.5,0.5,0.9,0.5
				c-0.1,0-0.3,0.2-0.2,0.2c0.4,0.4,1.1,0.5,1.9,0.8l-0.2,0c0.2,0.3,0.7,0.6,0.9,0.9c0.2,0,0.3,0.1,0.3-0.1c0.2,0.6,0.6,0.9,1.1,1.2
				c0.5,0.2,0.9,0.5,1,1.1c-0.1-0.1-0.3-0.1-0.2-0.1l0.7,0.5c0.1-0.2,0-0.2,0-0.4c0.2,0,0.4,0.1,0.6,0.3c-0.4-0.2-0.3,0.2-0.3,0.5
				c0-0.1,0.1-0.1,0.2-0.1c-0.1,0.6,0.4-0.2,0.6,0.4l-0.1,0c0.2,0.1,0.4,0.2,0.6,0.4c-0.2,0.2-0.2-0.1-0.4,0
				c0.2,0.3,0.8,0.3,0.8,0.7c-0.1-0.1-0.2-0.3-0.4-0.3c-0.1,0.4,0,0.4,0.1,0.7l0,0l0.2,0.6l0-0.2c0.8,0,0.6,0.7,1.2,1
				c-0.6-0.3-0.3,0-0.6,0.1c0,0.2,0,0.4-0.1,0.4c0.3,0.1,0,0.5,0.5,0.7c-0.1,0.1,0.1,0.3-0.1,0.3c0.2,0.3,0.1-0.1,0.2-0.2
				c0.5,0.4,0.1,1.3,0.8,1.9c0.4,0.6,0.7,0.6,1,1.2c-0.1,0.2-0.4-0.1-0.4-0.1c-0.1,0.4,0.1,0.6,0.2,0.9c-0.1,0-0.2,0-0.2,0.2
				c0.1,0.3,0.4,0.1,0.3,0.5c-0.1,0-0.3-0.1-0.4-0.2c0.1,0.3,0.4,0.6,0.5,0.9c-0.2,0.1-0.3-0.2-0.4-0.2c0.1,0.3,0.3,0.9,0.6,1
				l0.1-0.2c0,0.1-0.2,0.1-0.3,0c-0.3-0.3,0-0.4,0.1-0.5l0.1,0.2c0.5-0.3-0.2-0.9-0.3-1.4l0.4,0.1l-0.4-0.4c0.1-0.1,0.3-0.2,0.4,0
				c0.1-0.4-0.2-0.3-0.1-0.6c0,0,0,0,0.1,0l-0.2-0.3c0.1,0,0.3-0.1,0.3,0.1c0.1-0.6-0.5-0.9-0.3-1.2l0,0c-0.4-0.8-0.3,0-0.9-0.5
				l0.6-0.6l-0.3,0c0-0.1-0.1-0.3,0.1-0.3c-0.3-0.2-0.1,0.1-0.4,0c0.1-0.5-0.5-1-0.1-1.3c-0.3,0,0,0.4-0.3,0.1
				c0.4-0.3-0.3-0.4-0.2-0.9c0.3,0,0.3,0.4,0.4-0.1c-0.5,0-0.2-0.7-0.5-0.9c-0.3,0.2-0.5-0.5-0.9-0.9c0.1-0.1-0.4-0.9-0.6-1.4l0.1,0
				c-0.4,0.2-0.6-0.3-0.9-0.5c0.2-0.1,0.3-0.1,0.5,0c0,0-0.2-0.3-0.2-0.3c-0.1,0-0.3,0-0.5-0.2l0.3-0.1c-0.3-0.3-0.9-0.5-1.2-1
				c-0.2,0.2-0.2,0.8-0.7,0.5c0.1-0.1,0.2-0.3,0.4-0.2c-0.1,0-0.2,0-0.3-0.2l0.3,0c-0.1-0.3-0.2,0-0.4-0.1c0.1-0.1,0-0.2,0.1-0.3
				c0.1,0,0.1,0.2,0.2,0.2c-0.2-0.2-0.3-0.5-0.3-0.7c-0.1,0.1-0.2,0.2-0.3,0.1c-0.4-0.3,0-0.3-0.1-0.6c-0.2,0-0.3-0.3-0.5,0
				c-0.1-0.1,0-0.2,0-0.3c-0.3,0-0.9-0.7-0.9-0.2l0,0.1c0,0,0,0,0,0l0,0l0,0c-0.8-0.3-1.3-1-2-1.4l0-0.1c-0.5-0.1-1-0.4-1.4-0.4
				c-0.1-0.1-0.2-0.3-0.1-0.4c-0.4-0.1-0.4,0-0.9-0.3c0.4,0-0.1-0.2,0.4,0c-0.4-0.2-0.5-0.4-1-0.3c0.3-0.2-0.2-0.4-0.5-0.4l0.3,0.3
				c-0.2-0.1-0.4-0.1-0.7-0.2l0.2-0.3c-0.9-0.6-1.9,0.2-2.4-0.6c-0.3,0.2,0.5,0.2,0.2,0.5c-0.4-0.1-0.8-0.7-1-0.7
				c-0.6-0.3-0.6,0.4-1.3,0.2C27,4.7,27,5,26.5,5.1C26.1,5,26,4.6,26.3,4.5c0.1,0,0.2,0,0.1,0.1c0.1,0,0.3-0.1,0.2-0.2l-0.1,0.1
				c-0.2-0.1-0.8-0.2-0.7-0.3c-0.3,0.1-0.2,0.2,0.1,0.3c-0.6-0.2-0.9-0.1-1.5-0.1c0.1,0.1,0.2,0.2,0.1,0.2c-0.9-0.1-0.4,0.2-1,0.3
				c-0.3-0.2,0.1-0.4-0.5-0.3c-0.4-0.1-0.1-0.3,0-0.4c-0.5,0.2-1,0-1.4,0l0.3-0.1C21.9,4,21.8,4,21.6,4.1l0.2,0.2
				c-0.2,0-0.3,0-0.3-0.1c-0.1,0.2,0.2,0.4-0.1,0.6c-0.2-0.1-0.6,0.2-0.8-0.1c0.7,0-0.1-0.3,0.4-0.5c-0.1,0.1-0.2,0.1-0.4,0.1
				c0,0,0-0.1,0.1-0.1c-0.7-0.1-0.2,0.4-0.9,0.6c0-0.2-0.2-0.3-0.3-0.2c0.3-0.1,0.2,0.3,0,0.4c-0.5,0-0.4,0.2-0.7,0.3l0.3,0
				c0,0.2-0.3,0.2-0.5,0.4c-0.1-0.1,0.2-0.2,0.1-0.2c-0.2,0.4-0.8,0-1.2,0.3c-0.3,0-0.1-0.3-0.4-0.3c-0.4,0.4-0.6,0-1.1,0.4
				c0.3,0.1,0.2,0.1,0,0.5l0.8-0.6l-0.4,0.6C16.6,6.3,16.8,6,16.9,6c-0.2,0.3-0.2,0.2,0,0.3c-0.5-0.2-0.6,0.5-1.1,0.5l-0.2-0.5
				c-0.7,0-0.9,0.8-1.7,1.1l0.3-0.1c0,0.3-0.4,0.3-0.6,0.5c-0.1-0.2-0.3-0.1-0.4-0.2c0.1,0.1-0.5,0.4-0.4,0.7l-0.5,0
				c-0.6,0.3-0.3,0.9-0.8,1.3c0-0.3-0.3-0.2-0.1-0.6c-0.2,0.2-0.3,0.3-0.3,0.4c-0.2,0-0.3,0.6-0.6,0.6c0,0.1,0.1,0.3-0.1,0.5
				c0,0-0.1-0.1-0.1-0.1c0.1,0.1-0.2,0.4,0.1,0.4c-0.9,0.1-1.3,1.4-2,1.6c-0.2,0.4-0.5,0.9-0.8,1.3c0-0.1-0.1-0.1,0-0.1
				c-0.5,0.4,0.3,0.6-0.2,1.1c-0.5,0.1,0-0.4-0.2-0.3c-0.6-0.2-0.4,0.7-0.9,1l0-0.1c-0.4,0.2-0.2,0.9-0.5,1.4c0,0,0,0-0.1,0
				c0.1,0.5,0,1.2-0.1,1.8c-0.2-0.2,0-0.3-0.3-0.3c-0.1,0.2,0.4,0.1,0.3,0.6c-0.2,0.1-0.4,0.4-0.7,0.4c0,0,0.1-0.5,0.1-0.5
				c-0.4,0.1-0.2,0.6-0.3,0.8l-0.1-0.1c-0.1,0.7,0.2,0.8,0,1.6L4.9,21c0.3,0.5-0.3,0.3-0.1,0.8l-0.4,0.1c0.1,0.3,0.2,1,0.2,1.5
				C4.4,23,4.4,22.4,4.2,22c0,0.3-0.1,1,0.1,1.1c0-0.1-0.1-0.3,0-0.4c0.2,0.4,0.4,0.8,0.4,1.4C3.9,24,4.3,25.6,3.8,26
				C4,26.5,4,27,4,27.5c0,0.5,0,1.1,0.1,1.6c0.5-0.5,0.1,0.3,0.7,0.1c0.1,0.3,0.1,0.3,0.1,0.4l-0.2,0.9c-0.1,0.2-0.2-0.2-0.3-0.2
				c0.1,0.6-0.2,0.3-0.2,0.7c0.2-0.1,0.4,0.1,0.4,0.5l0.1-0.5c0.5,0.7-0.3,0.8,0.3,1.5l-0.3-0.2c0.3,0.4,0.5,1.5,1.2,1.7
				c0,0.1-0.1,0.3-0.3,0.1c0.2,0.5,0.5,1,0.9,1.4c0.4,0.4,0.7,0.8,0.8,1.2l-0.2,0C7.2,37,7.5,37,7.5,37.2c-0.1,0-0.2,0-0.1,0.1
				c0.1,0.1,0.5,0.3,0.6,0.5l-0.3-0.1c0.2,0.5,0.5,0.7,0.9,0.9c0.3,0.2,0.7,0.3,1,0.6c-0.3,0.3,0.1,1,0.3,1.3l-0.1,0
				c0.4,0.4,0.9,0.7,1.3,0.9c0.4,0.2,0.9,0.4,1.4,0.6c0.1,0.4,0.6,0.8,1.1,1.1c0.5,0.3,1.1,0.7,1.5,1c-0.1-0.1,0.2-0.3,0.4-0.3
				c0.2,0.2,0.8,0,0.6,0.4l-0.1,0c0,0.4,0.5,0.6,0.9,0.7l0.3-0.5c0.4,0.5,1,0.7,1.7,0.8c0.6,0.1,1.2,0.1,1.4,0.5
				c0.3-0.1,0.6,0,0.9-0.1l-0.1,0.3c0.7,0.2,1,0.3,1.9,0.3l-0.2,0.2c0.5,0,0.7-0.8,1.1-0.8l0.1,0.4c0.9,0.1,1.8,0.3,2.6-0.1
				c0,0.1,0,0.2-0.2,0.2c0.4,0,1.6,0.1,1.4-0.5c0.1,0.4,0.9-0.1,1.3-0.3l0,0.3c0.3-0.4,0.3-0.5,0.8-0.8c0.1,0,0.2,0.2,0,0.2
				c0.5,0,0.3-0.3,0.8-0.3l-0.1,0.2c0.4-0.1,0.4-0.2,0.5-0.4c0.2-0.2,0.8-0.2,0.9,0c0-0.2,0.2-0.4,0.4-0.5c0.1,0.1,0,0.2,0,0.2
				c0.8-0.1,0.9-0.7,1.4-0.7c0,0.1,0.1,0.1,0.2,0.1c-0.5,0.2-1,0.4-0.9,0.4c0.1,0.2,0.6,0.1,0.4,0.6c0.3-0.3,0.7-1,1.2-1.1
				c0,0,0.1,0,0.1,0.1l0,0c0.1,0,0.2-0.1,0.2-0.2c0.1,0,0.2-0.1,0.4-0.1c0.2,0.2,0.5-0.2,0.7-0.3C36,43.2,36.3,43,35.9,43
				c0,0,0,0.1-0.1,0.1c0,0-0.1,0.1-0.1,0.1l0,0c-0.1,0.1-0.3,0.2-0.5,0.3c0.1-0.2,0.2-0.4,0.5-0.4c0-0.2,0-0.4,0-0.6
				c0.5,0.2,1.1,0,1.3,0.1c0.5-0.6,1.3-1.1,1.3-1.8c0.1-0.2,0.3,0,0.4,0c-0.1,0.1-0.2,0.2-0.2,0.3c0.2-0.4,0.9-0.9,0.7-1.2
				c0.5-0.2,0,0.4,0.5-0.1l0,0.2c0.7-0.3,0.9-0.9,1.1-1.5c0.2-0.6,0.4-1.2,1.2-1.6C41.9,37,41.9,37,41.8,37c1.3-1.3,1.6-3.2,2.6-4.6
				c0.3-0.4,0.1-0.6,0-0.9l0.3,0l-0.2-0.6c0-0.4,0.2-0.6,0.5-0.9c0.2-0.3,0.5-0.6,0.3-1.1l-0.2,0.1c0.1-0.3,0-1,0.3-1
				c0,0-0.2-0.1-0.1-0.2l0.2,0c0,0,0-0.2-0.1-0.4c-0.1-0.2-0.1-0.4-0.1-0.4c0.1-0.6,0.6,0.1,0.7-0.8c0-0.4-0.4-1-0.5-0.9
				c0,0.1-0.1,0.3-0.3,0.4l-0.1-0.3c-0.5-0.1-0.9-0.3-1.3,0.4l0.3,0.5l-0.2,0.1l0-0.4c-0.2,0.2,0,0.4,0.1,0.6
				c-0.1,0-0.2,0.1-0.3,0.2l0.4,0.5c-0.2,0-0.3-0.2-0.5,0.1c0.2,0.2,0.4-0.2,0.5,0.2c-0.2,0.2-0.4,0.1-0.3,0.4c-0.1,0-0.2,0-0.2-0.2
				c0.1,0.3,0,0.6,0.2,0.8c-0.3,0.2-0.1,0.8-0.5,0.7c0.1,0.1,0.2,0.5,0.2,0.7c-0.4-0.5-0.2,0.8-0.8,0.5c0.4,0.4-0.2,1.1-0.1,1.7
				c0,0-0.1-0.1,0-0.2c-0.1,0.3-0.3,0.3-0.5,0.4c0.3,0.2,0.2,0.6,0.3,1c-0.5,0.2-0.3-0.4-0.7-0.4c0.3,0.1,0,0.7,0.3,0.7
				c-0.3,0.2-0.2,0.2-0.6,0.2c0.4,0.3,0,0.3,0.1,0.6c-0.4,0.2-0.5-0.1-0.6,0.3C40.8,35,40.9,34.6,40.9,34.6z M33.8,42.4L33.8,42.4
				c0.1-0.1,0.1-0.1,0.2-0.1C34,42.3,33.9,42.4,33.8,42.4z M33,42.8c0.1,0,0.2-0.1,0.4-0.2c0.1,0.1,0.1,0.2,0,0.2
				C33.4,42.8,33.1,42.8,33,42.8z M35.7,43.6c-0.1,0.1-0.2,0.1-0.2,0.1c0.1,0,0.1-0.1,0.2-0.2l0,0C35.7,43.5,35.7,43.6,35.7,43.6z"
				/>
			<path fill="#FFFFFF" d="M35.7,43.1C35.8,43.1,35.8,43.1,35.7,43.1C35.7,43.1,35.7,43.1,35.7,43.1L35.7,43.1L35.7,43.1z"/>
			<path fill="#FFFFFF" d="M36.9,8.7L36.9,8.7C36.9,8.7,36.9,8.7,36.9,8.7C36.9,8.7,36.9,8.7,36.9,8.7z"/>
			<polygon fill="#FFFFFF" points="20.7,43.6 20.7,43.6 20.8,43.6 			"/>
			<path fill="#FFFFFF" d="M40.1,13C40.1,13,40,13,40.1,13C40.1,13,40.1,13,40.1,13z"/>
			<path fill="#FFFFFF" d="M41.3,14.8l0.1,0.3C41.4,15,41.3,14.9,41.3,14.8z"/>
			<path fill="#FFFFFF" d="M42,16.3c0.1,0,0.1,0,0.1,0l0,0L42,16.3z"/>
			<path fill="#FFFFFF" d="M19.4,7.1C19.4,7.1,19.4,7.1,19.4,7.1C19.2,7.2,19.3,7.2,19.4,7.1z"/>
			<path fill="#FFFFFF" d="M27.2,5.8c-0.1,0-0.2,0.1-0.3,0.1C27.1,5.9,27.2,5.9,27.2,5.8z"/>
			<polygon fill="#FFFFFF" points="12.2,11.7 12.2,11.7 12.1,11.8 			"/>
			<path fill="#FFFFFF" d="M26.6,5.9c0.1,0.1,0.3,0.1,0.4,0C26.8,5.8,26.7,5.8,26.6,5.9z"/>
			<path fill="#FFFFFF" d="M44,23.2L44,23.2C44,23.3,44.1,23.3,44,23.2L44,23.2z"/>
			<path fill="#FFFFFF" d="M44.1,23.3L44.1,23.3C44.1,23.4,44.1,23.3,44.1,23.3z"/>
			<path fill="#FFFFFF" d="M44.2,23.6l-0.1-0.2C44.1,23.5,44.1,23.6,44.2,23.6z"/>
			<path fill="#FFFFFF" d="M43.8,21l-0.1,0C43.7,21,43.7,21,43.8,21z"/>
			<path fill="#FFFFFF" d="M43.6,20.4c0,0.2-0.1,0.4,0,0.6l0.1,0C43.5,21,43.8,20.5,43.6,20.4z"/>
			<path fill="#FFFFFF" d="M43.8,17.2c0,0,0.1,0.6,0.1,0.6c0.1-0.1,0.2-0.3,0.3-0.1C44.3,16.9,44.1,18,43.8,17.2z"/>
			<path fill="#FFFFFF" d="M43.2,15.5c0.2,0.3,0.1-0.1,0.2-0.1C43.2,15.2,43.1,15.2,43.2,15.5z"/>
			<path fill="#FFFFFF" d="M33.4,6.4l0.1-0.2C33.3,6.1,33.5,6.3,33.4,6.4z"/>
			<path fill="#FFFFFF" d="M30.6,6.7c0,0,0.2,0.2,0.2,0.2l0.2-0.2C30.9,6.8,30.6,6.7,30.6,6.7z"/>
			<polygon fill="#FFFFFF" points="29.6,4.6 29.7,4.6 29.3,4.6 			"/>
			<path fill="#FFFFFF" d="M8.6,11.9L8.9,12C9,11.9,8.7,11.6,8.6,11.9z"/>
			<path fill="#FFFFFF" d="M4.6,20.9c-0.2,0.1-0.3,0.3-0.2,0.5C4.5,21.2,4.6,21,4.6,20.9z"/>
			<polygon fill="#FFFFFF" points="17.6,45.2 17.4,45.3 17.7,45.3 			"/>
		</g>
		<g>
			<path fill="#FFFFFF" d="M36.8,31.5c0.1,0,0.2-0.2,0.2-0.2l-0.3,0.2L36.8,31.5z"/>
			<path fill="#FFFFFF" d="M37,30.8c-0.2,0.1-0.4,0.2-0.6,0.4c0.3-0.2,0.2-0.1,0.5-0.2c0.1,0,0,0.1-0.1,0.2c0.1,0,0,0.1,0.2,0
				c0.1-0.2,0.1-0.3-0.1-0.2C36.9,30.9,37,30.8,37,30.8z"/>
			<path fill="#FFFFFF" d="M33.7,26.1L33.7,26.1C33.7,26.1,33.7,26.1,33.7,26.1z"/>
			<path fill="#FFFFFF" d="M31.6,23.2C31.6,23.3,31.6,23.3,31.6,23.2C31.6,23.2,31.6,23.2,31.6,23.2z"/>
			<path fill="#FFFFFF" d="M31.5,22.6C31.5,22.6,31.5,22.6,31.5,22.6C31.5,22.6,31.5,22.5,31.5,22.6z"/>
			<path fill="#FFFFFF" d="M33.7,26.1l0-0.1C33.7,26,33.7,26,33.7,26.1z"/>
			<path fill="#FFFFFF" d="M35.9,30.7C35.9,30.7,35.9,30.7,35.9,30.7C36,30.7,35.9,30.7,35.9,30.7L35.9,30.7z"/>
			<path fill="#FFFFFF" d="M34.9,27.1L34.9,27.1c0.1,0,0.1,0,0.1,0L34.9,27.1z"/>
			<path fill="#FFFFFF" d="M35.7,28c0,0-0.2,0.1-0.3,0.2c0.1-0.1,0.2-0.1,0.2-0.1C35.6,28.1,35.7,28,35.7,28z"/>
			<path fill="#FFFFFF" d="M36.6,29.8L36.6,29.8C36.6,29.8,36.6,29.8,36.6,29.8z"/>
			<path fill="#FFFFFF" d="M34.4,26.4C34.5,26.4,34.5,26.3,34.4,26.4C34.5,26.4,34.4,26.4,34.4,26.4z"/>
			<path fill="#FFFFFF" d="M14.9,31.1C14.8,31.1,14.8,31.1,14.9,31.1C14.8,31.1,14.9,31.1,14.9,31.1z"/>
			<polygon fill="#FFFFFF" points="12.9,31.5 12.9,31.5 12.8,31.4 			"/>
			<path fill="#FFFFFF" d="M31,21.5L31,21.5C31.1,21.5,31.1,21.5,31,21.5z"/>
			<path fill="#FFFFFF" d="M23.1,14.6c0.2,0.2,0,0.6,0.2,0.7C23.2,15.3,23.3,14.6,23.1,14.6z"/>
			<path fill="#FFFFFF" d="M35.9,30.6C35.9,30.6,35.9,30.6,35.9,30.6C35.9,30.6,35.9,30.6,35.9,30.6z"/>
			<path fill="#FFFFFF" d="M23.3,15.4L23.3,15.4L23.3,15.4C23.3,15.4,23.3,15.4,23.3,15.4z"/>
			<path fill="#FFFFFF" d="M29.3,19.6C29.2,19.7,29.2,19.7,29.3,19.6C29.2,19.7,29.2,19.7,29.3,19.6z"/>
			<path fill="#FFFFFF" d="M30.2,21.3L30.2,21.3C30.2,21.3,30.2,21.3,30.2,21.3z"/>
			<path fill="#FFFFFF" d="M28.3,19.1C28.3,19.1,28.4,19.1,28.3,19.1C28.3,19.1,28.3,19.1,28.3,19.1C28.3,19.1,28.4,19.1,28.3,19.1z
				"/>
			<path fill="#FFFFFF" d="M27.7,18.3C27.7,18.4,27.7,18.4,27.7,18.3L27.7,18.3L27.7,18.3z"/>
			<path fill="#FFFFFF" d="M16.5,28.5c-0.1,0-0.2-0.1-0.2-0.1C16.4,28.5,16.4,28.6,16.5,28.5z"/>
			<path fill="#FFFFFF" d="M36,30.6c-0.1,0-0.1,0.1-0.1,0.1L36,30.6C36,30.6,36,30.6,36,30.6z"/>
			<path fill="#FFFFFF" d="M26.6,20.5l-0.1-0.2C26.6,20.4,26.6,20.5,26.6,20.5z"/>
			<path fill="#FFFFFF" d="M20.6,22.4L20.6,22.4C20.6,22.4,20.6,22.4,20.6,22.4z"/>
			<path fill="#FFFFFF" d="M26.2,20c0.1-0.1,0.1-0.1,0.1-0.2c0,0,0,0-0.1,0L26.2,20z"/>
			<path fill="#FFFFFF" d="M16.3,28.4L16.3,28.4L16.3,28.4z"/>
			<path fill="#FFFFFF" d="M16.2,29.6c0.1-0.1-0.3-0.3-0.4-0.4c0-0.2,0.3,0.1,0.5,0.1c0-0.2-0.2-0.4-0.2-0.5c0.1,0,0.1,0,0.1,0.1
				c-0.2-0.3,0.2-0.3,0-0.6c0,0,0.1,0,0.1,0c-0.2-0.1-0.3-0.2-0.4-0.3c0-0.1-0.1-0.2,0.1-0.1c0,0,0,0.1,0.1,0.1l0-0.1
				c0.3,0.1,0,0.1,0.3,0.3c0-0.2-0.2-0.5,0-0.5c0.3,0.2,0,0.3,0.3,0.3l-0.2,0.1c0.5,0.2-0.1,0.1,0.5,0.3c0.2-0.1,0-0.3,0.2-0.4
				c-0.1-0.1-0.2-0.1-0.4-0.3c-0.1-0.5,0.8,0.3,0.6-0.2c-0.2-0.2-0.5-0.4-0.2-0.4l0.3,0.3c0.2-0.2-0.4-0.4,0-0.5
				c0.1,0.1,0,0.2,0.1,0.2c0.3,0-0.1-0.2-0.1-0.3l0.3,0.2c0.1-0.2,0-0.6,0.1-0.8c0.1,0.1,0.1,0.2,0.3,0.2c0-0.4,0.4-0.5,0.8-0.7
				l-0.2-0.3c0,0,0.1,0,0.2,0.1c0.2,0-0.2-0.1-0.2-0.2c0-0.1,0.2,0,0.2,0.1c-0.1-0.3-0.1-0.8,0.3-0.8l0,0.1c0.2-0.1-0.4-0.5-0.1-0.5
				l0,0.1c0.3-0.2,0.3-0.7,0.9-0.7c-0.3-0.3,0.4-0.2-0.1-0.6c0.4,0,0.4,0.1,0.7,0c0.1-0.1-0.2-0.3-0.2-0.4l0.3,0.2l-0.2-0.3l0.3,0.1
				l0-0.1c0,0-0.2,0-0.2-0.1c0-0.2,0.4-0.2,0.5-0.1l0-0.4C21,21.9,21,22,21,22.1c-0.2-0.3,0.3,0.2,0.1-0.1c-0.1,0-0.1-0.1-0.2-0.2
				c0.2,0,0.3-0.1,0.3-0.3l0.2,0.1c0.2-0.2,0.2-0.5,0.4-0.7c-0.1,0-0.4-0.2-0.4-0.3l0.3,0.2c-0.1-0.2-0.2,0-0.3-0.2
				c0.1-0.1,0.3,0.1,0.4,0.3l0-0.2c0.1,0,0.1,0.1,0.2,0.2c-0.1-0.2,0.4,0,0.2-0.3l0.1,0c0.2-0.2,0.1-0.4,0.3-0.6
				c-0.2-0.2-0.1-0.2-0.3-0.4c0.2-0.1,0.5-0.1,0.6-0.3c0-0.2-0.2-0.2-0.3-0.3c0.2,0.1,0.3-0.1,0.4,0.1c0.1-0.2,0.1-0.3,0.1-0.7
				c-0.1,0-0.2,0-0.2-0.1c0-0.1,0.2,0,0.3,0l0,0c-0.1-0.3,0.2-0.3,0.5-0.4c0.2-0.1,0.5-0.2,0.3-0.3l0,0c0,0-0.2-0.3-0.1-0.3
				c0.1,0,0.1,0.2,0.2,0.3c-0.1-0.2-0.1-0.2,0-0.2c0,0,0.1,0,0-0.2c0.2,0.4,0.2,0.4,0.2,0.3c0-0.1,0-0.3,0,0c0,0,0,0.1,0,0.1l0-0.3
				c0-0.3,0,0.2,0,0.2c0-0.2,0-0.2,0-0.4c0.1-0.1,0.1,0.1,0.1,0.3c0,0.2-0.1,0.4-0.1,0.4c0,0,0.7-0.6,0.5-0.1L24.4,18
				c0.6,0.1,0.6,0.7,1.1,0.8c-0.1,0-0.2,0.1-0.2,0.1c-0.1,0.2,0.2,0.3,0.4,0.1c0,0.1-0.1,0.1-0.2,0.2c0,0.2,0.4,0,0.2,0.2
				c0,0-0.1,0-0.1,0c0.1,0,0.2,0.2,0.3,0c0,0.2,0.3,0.2,0.3,0.4c0.3-0.1,0.1,0.3,0.4,0.1c-0.4,0.3-0.1,0.5,0.1,0.4
				c-0.1,0.1-0.1,0.2-0.2,0.3c0.1,0.1,0.2,0.1,0.4,0c-0.3,0.5,0.6,0.1,0.2,0.6c0.4,0.1,0.8,0.3,1,0.4c-0.4,0.3-0.3-0.2-0.6,0.1
				c0.3,0.1,0.7,0,0.9,0.3c0,0.1-0.2,0.1-0.3,0.1c0.3,0.1,0.3,0.5,0.7,0.5c0,0-0.1,0-0.1,0c0,0,0,0.1,0.2,0l-0.1,0
				c0.2-0.3,0.6-0.2,0.7-0.3c-0.5,0.3,0.1,0.3-0.6,0.7c0.1,0,0.2,0,0.3-0.1c0,0.1,0,0.1-0.2,0.2c0.2,0.1,0.3-0.1,0.4,0
				c-0.1,0.1-0.1,0.1-0.2,0.1c0.2-0.1,0.4-0.1,0.4,0.1c-0.1,0-0.1,0.1-0.1,0.1c0.2,0.2,0.7,0,0.7,0.3c-0.4,0.2,0,0.2-0.3,0.4l0.2,0
				l0.1-0.2c0.1,0.1,0.4,0,0.3,0.2l-0.2,0l0.2,0.1l0-0.2c0.2,0,0.4-0.3,0.4-0.1c-0.1,0,0.1,0.1,0,0.3l0,0c0.1,0,0.3-0.1,0.3,0.1
				c-0.1,0.1-0.3,0.3-0.4,0.3c0.3-0.2,0.3,0.2,0.6,0c-0.1,0-0.2,0.2-0.3,0.2l0.2-0.1c0,0.1,0,0.1-0.2,0.2c0.1,0.2,0.3-0.3,0.3-0.1
				c0,0-0.1,0-0.1,0c0.1,0.2,0.4,0.2,0.4,0.4c-0.3,0.3-0.2-0.1-0.4,0.2c0.2,0.2,0.7,0.2,0.8,0.4l0-0.1c0.4-0.3-0.1,0.3,0.2,0.3
				c-0.1,0-0.3,0.2-0.2,0.1c0.1,0.2,0.3,0.2,0.7,0.3l-0.1,0.1c0,0.2,0.1,0.3,0.2,0.4c0.1-0.1,0.2,0,0.3-0.2
				c-0.4,0.8,0.8,0.3,0.5,0.9c0,0-0.2,0-0.1,0l0.3,0.1c0.2-0.2,0.1-0.1,0.2-0.3c0.1-0.1,0.3-0.1,0.3,0c-0.2,0-0.3,0.2-0.3,0.4
				c0-0.1,0.1-0.1,0.2-0.1c-0.2,0.4,0.4-0.3,0.3,0.1L34.4,28c0.1,0,0.3,0,0.3,0.1c-0.2,0.2-0.1,0-0.3,0.2c0.1,0.1,0.5-0.2,0.4,0.1
				c-0.1,0-0.1,0-0.2,0c-0.2,0.3-0.1,0.2-0.1,0.3l0,0l0,0.2l0-0.1c0.6-0.3,0.3,0.1,0.8,0c-0.5,0.1-0.2,0.1-0.5,0.3
				c0,0.1-0.1,0.2-0.1,0.2c0.2-0.1-0.1,0.2,0.3,0.1c-0.1,0.1,0.1,0.1-0.1,0.2c0.1,0,0.1-0.1,0.2-0.2c0.4-0.1,0,0.6,0.5,0.5
				c0.3,0.1,0.6-0.1,0.8-0.1c-0.1,0.2-0.3,0.2-0.3,0.2c0,0.2,0,0.2,0.2,0.2c-0.1,0-0.1,0.1-0.2,0.2c0.1,0,0.3-0.2,0.3,0
				c-0.1,0.1-0.2,0.1-0.4,0.2c0.1,0,0.3,0,0.5,0c-0.1,0.1-0.2,0.1-0.3,0.2c0.1,0,0.3,0.1,0.5,0l0-0.1c0,0-0.2,0.2-0.2,0.2
				c-0.2,0.1,0-0.2,0-0.2l0.1,0c0.4-0.4-0.3-0.2-0.3-0.3l0.4-0.2l-0.4,0.1c0.1-0.1,0.2-0.3,0.3-0.2c0.1-0.2-0.2,0-0.1-0.2
				c0,0,0,0,0.1,0l-0.2,0c0.1,0,0.2-0.2,0.2-0.1c0.1-0.3-0.4,0-0.2-0.3l0,0c-0.3-0.1-0.3,0.2-0.7,0.3l0.5-0.6L36,29.2
				c0,0,0-0.1,0.1-0.2c-0.2,0.1-0.1,0.1-0.3,0.2c0.1-0.3-0.3-0.2,0-0.5c-0.2,0.1-0.1,0.2-0.3,0.2c0.4-0.4-0.2-0.1-0.1-0.3
				c0.2-0.1,0.2,0,0.3-0.2c-0.4,0.2-0.1-0.2-0.2-0.3c-0.3,0.2-0.3-0.1-0.5-0.1c0.1-0.1,0-0.4,0-0.6l0,0c-0.3,0.2-0.4,0-0.5,0
				c0.2-0.1,0.3-0.2,0.4-0.2L35,27.1c-0.1,0.1-0.2,0.1-0.3,0l0.2-0.2c-0.1-0.1-0.4,0-0.4-0.3c-0.2,0.2-0.4,0.6-0.7,0.5
				c0.1-0.1,0.3-0.3,0.4-0.2c0,0-0.1,0-0.1,0l0.2-0.1c0-0.1-0.2,0.1-0.2,0c0.2-0.1,0.1-0.1,0.2-0.2c0,0,0,0.1,0.1,0.1
				c0-0.1,0-0.2,0.1-0.3c-0.1,0.1-0.2,0.2-0.3,0.1c-0.1-0.1,0.1-0.2,0.2-0.3c-0.1,0.1-0.1-0.1-0.3,0.1c0,0,0.1-0.1,0.1-0.2
				c-0.1,0-0.3-0.2-0.4,0l0,0c0,0,0,0,0,0l0,0l0,0c-0.4,0-0.2-0.5-0.5-0.6l0.1-0.1c-0.2,0-0.3-0.2-0.5-0.2c0,0,0.1-0.2,0.2-0.3
				c-0.1,0-0.2,0-0.2-0.2c0.2,0,0.1-0.1,0.2,0c0-0.2,0.1-0.3-0.2-0.2c0.2-0.1,0.2-0.3,0.1-0.3l-0.1,0.2c-0.1,0-0.1-0.1-0.1-0.2
				l0.3-0.2c0.1-0.5-0.9,0-0.5-0.6c-0.2,0.1,0,0.2-0.3,0.4c-0.1-0.1,0.2-0.6,0.2-0.6c0-0.3-0.5,0.2-0.5-0.1
				c-0.1,0.1-0.3,0.3-0.5,0.3c-0.1-0.1,0.3-0.4,0.4-0.4c0,0,0,0.1,0,0.1c0.1,0,0.1,0,0.2-0.1l-0.1,0.1c0-0.1-0.1-0.3,0.1-0.4
				c-0.2,0-0.2,0.1-0.2,0.2c0-0.2-0.2-0.2-0.2-0.4c0,0.1-0.1,0.2-0.1,0.2c-0.1-0.3-0.2,0.1-0.4-0.1c0.1-0.2,0.4-0.2,0.1-0.3
				c0-0.2,0.2-0.2,0.3-0.2c-0.3,0-0.1-0.3-0.1-0.4l0.1,0c-0.1,0-0.1,0-0.1-0.1l-0.1,0.2c0-0.1,0-0.1,0-0.2C31,21.7,30.9,22,30.7,22
				c0-0.1-0.2-0.1,0-0.3c0.1,0.2,0.2-0.2,0.4-0.1c-0.1,0-0.1,0-0.1-0.1c0,0,0.1,0,0.1,0c0.1-0.3-0.3,0.2-0.5,0
				c0.2-0.1,0.2-0.3,0.2-0.3c0.1,0.1-0.2,0.2-0.4,0.2c0-0.2-0.2,0-0.2-0.1l0,0.1c-0.2,0.1-0.2,0-0.3,0c0.1-0.1,0.1,0,0.2-0.1
				c-0.3,0.1,0.1-0.4-0.2-0.4c0-0.1,0.3-0.2,0.3-0.3c-0.3,0,0.1-0.3-0.2-0.3c-0.2,0.2-0.1,0.2-0.4,0.2l0.3,0.1l-0.4,0.1
				c0.1,0.1,0.2,0,0.2,0.1c-0.2,0.1-0.2,0-0.3,0.2c0.2-0.3-0.3,0-0.2-0.3l0.5-0.4c0.1-0.3-0.5-0.1-0.5-0.4l0,0.1
				C29,20.3,29.1,20.1,29,20c0.2-0.1,0.2-0.2,0.2-0.3c-0.1,0.1-0.1-0.2-0.4,0.1l0.1-0.3c-0.1-0.2-0.6,0.2-0.7,0
				c0.2-0.1,0.3-0.3,0.5-0.2c0-0.1-0.1-0.1-0.2,0c0.1-0.1-0.3,0-0.2-0.1c-0.1,0-0.2,0.2-0.3,0.1c0,0,0.1-0.1,0.1-0.1
				c-0.1,0.1-0.2,0-0.3,0.2c0.3-0.6-0.4-0.4-0.1-0.9c-0.1-0.1-0.3-0.2-0.4-0.3c0.1,0,0.1-0.1,0.1,0c0-0.3-0.5,0.3-0.5,0
				c0.2-0.3,0.2,0,0.3-0.2c0.5-0.4-0.2-0.1,0-0.5l0.1,0c0.1-0.2-0.4,0-0.4-0.2c0,0,0,0,0.1-0.1c-0.3,0.1-0.6,0-0.7-0.1
				c0.2-0.1,0.2,0,0.3-0.2c-0.1,0-0.3,0.3-0.5,0.2c0.1-0.1,0.1-0.3,0.3-0.5l0.1,0.1c0.2-0.3-0.1-0.1-0.1-0.2l0.1-0.1
				c-0.1-0.1-0.2-0.1-0.4-0.1c-0.1,0-0.2,0-0.3-0.1l-0.1,0.1c-0.3,0.2,0-0.3-0.2-0.2l0.2-0.4c-0.1,0-0.5,0.1-0.6,0
				c0.2-0.3,0.4-0.2,0.6-0.2c-0.1-0.1-0.3-0.3-0.4-0.2c0,0,0.1-0.1,0.1,0c-0.2,0.2-0.4,0.3-0.5,0.1c0.1-0.5,0-0.7-0.1-0.8
				c-0.1-0.2-0.3-0.4-0.3-0.9c-0.1,0-0.2,0-0.3-0.1c-0.2,0.3-0.5,0.3-0.7,0.7c0.3,0.6-0.1,0.2,0.1,0.9c0,0.1-0.1,0.2-0.1,0.1
				c0,0-0.4-0.1-0.4-0.1c-0.1-0.1,0-0.2-0.1-0.4c-0.2,0.2-0.2-0.2-0.4-0.1c0.1,0.2,0.1,0.4-0.1,0.5c0,0,0.3,0,0.3,0.1
				c0,0.6-0.5-0.1-0.6,0.5l0-0.3c-0.1,0.3-0.6,0.8-0.2,1.1c-0.1,0-0.2-0.1-0.2-0.2c-0.2,0.2,0,0.9-0.3,0.9l-0.1-0.1
				c0,0.1,0.2,0.2,0,0.2c0,0-0.1-0.1-0.1-0.1c0,0.1,0.1,0.3,0,0.3L21,17.5c-0.3,0.1,0.1,0.6,0,0.9c-0.4-0.2-0.6-0.1-0.7-0.1l0,0
				c-0.2,0.3,0,0.7-0.1,1.1c-0.5-0.1-0.6,0.5-1,0.6c0.1,0,0.3,0.2,0.3,0.3c-0.1,0,0.1,0.3-0.2,0.1l0,0c-0.4-0.2-0.4,0-0.4,0.1
				l0.4,0.3c-0.8-0.2-0.2,0.9-0.9,0.6c0.1,0.1,0,0.2,0.1,0.4l-0.2-0.2c-0.2,0.1-0.3,0.2-0.4,0.5l-0.1-0.2c-0.1,0.1,0.6,0.6,0.5,0.7
				l-0.4-0.2c-0.1,0.2-0.6,0.2-0.4,0.7c0,0-0.1-0.1-0.1-0.2c-0.1,0.1-0.5,0.2,0,0.5c-0.3-0.2-0.2,0.2-0.1,0.4L17,23.7
				c0.2,0.3,0.3,0.4,0.3,0.6c-0.1,0-0.2-0.1-0.1-0.1c-0.2,0,0.2,0.2-0.1,0.3L17,24.2c-0.1,0.1,0,0.1,0.1,0.3c0,0.1-0.2,0.2-0.4,0
				c0.1,0.1,0.2,0.3,0.1,0.3c-0.1,0-0.1-0.1-0.1-0.1c-0.3,0.1,0.1,0.5-0.2,0.4c-0.1,0-0.1-0.1-0.2-0.1c0.1-0.1,0.2-0.3,0.2-0.2
				c-0.2-0.1-0.3,0-0.6-0.3c0.1,0.2,0.3,0.6,0.2,0.7c0,0,0,0-0.1,0l0,0c0,0,0,0.1,0,0.1c-0.1,0-0.1,0-0.1,0.1
				c-0.2-0.1-0.2,0.1-0.2,0.1c0.2,0.2,0.1,0.2,0.4,0.3c0,0,0,0,0-0.1c0,0,0,0,0,0l0,0c0,0,0-0.1,0.1-0.2c0.1,0.1,0.2,0.2,0,0.2
				c0.1,0.1,0.3,0.3,0.3,0.3c-0.4-0.1-0.7-0.1-0.9-0.2c0,0.3-0.2,0.5,0.2,0.9c0,0.1-0.2,0-0.2-0.1c0-0.1,0-0.1,0-0.1
				c0,0.2-0.2,0.3,0.1,0.6c-0.2,0-0.2-0.3-0.3-0.1l-0.1-0.1c-0.7,0,0.4,1.1-0.5,1.1c0.1,0,0.1,0,0.1,0c-0.6,0.3-0.4,1.1-1.1,1.2
				c-0.2,0.1,0,0.2,0.1,0.4l-0.3-0.1l0.2,0.3c0.1,0.3-0.8-0.1-0.6,0.4l0.2,0.1c-0.1,0.1-0.1,0.3-0.3,0.2c0,0,0.2,0.1,0,0.1l-0.1-0.1
				l0.1,0.4c-0.2,0.1-0.5-0.4-0.7-0.2c0,0.1,0.2,0.5,0.3,0.5c0,0,0.1,0,0.3,0.1l0,0.1c0.4,0.3,0.7,0.6,1.1,0.6l-0.1-0.3l0.2,0.1
				L14.1,32c0.2,0.1,0.1-0.1,0-0.2c0.1,0.1,0.2,0.1,0.2,0.1l-0.3-0.4c0.2,0.1,0.3,0.3,0.4,0.2c-0.1-0.2-0.4-0.2-0.4-0.3
				c0.2,0.1,0.3,0.2,0.3,0c0.1,0.1,0.2,0.1,0.2,0.2c-0.1-0.1,0.1-0.2-0.1-0.4c0.3,0.1,0.1-0.3,0.5,0c-0.1-0.1-0.2-0.3-0.2-0.4
				c0.4,0.4,0.2-0.2,0.6,0.1c-0.3-0.4,0-0.4-0.1-0.7c0,0,0.1,0.1,0,0.1c0.1-0.1,0.2,0,0.3,0c-0.3-0.2-0.3-0.4-0.5-0.6
				c0.4,0.1,0.3,0.3,0.7,0.5c-0.3-0.2-0.1-0.4-0.4-0.5c0.2,0.1,0.1,0,0.4,0.1c-0.4-0.3,0-0.1-0.2-0.4c0.3,0,0.4,0.2,0.4,0
				C16.1,29.4,16.2,29.6,16.2,29.6z M17.6,26.2L17.6,26.2C17.5,26.2,17.5,26.2,17.6,26.2C17.5,26.2,17.5,26.2,17.6,26.2z M17.7,25.9
				c0,0-0.1,0.1-0.1,0.1c-0.1,0-0.2-0.1-0.1-0.1C17.5,25.9,17.6,25.9,17.7,25.9z M15.7,25.3c0-0.1,0,0,0.1,0
				C15.8,25.3,15.8,25.4,15.7,25.3l0.1,0.1C15.8,25.4,15.8,25.4,15.7,25.3z"/>
			<path fill="#FFFFFF" d="M16,25.6C16,25.6,16,25.6,16,25.6C16,25.7,16.1,25.7,16,25.6L16,25.6L16,25.6z"/>
			<path fill="#FFFFFF" d="M33.7,26.1L33.7,26.1C33.7,26.1,33.7,26.2,33.7,26.1C33.7,26.2,33.7,26.1,33.7,26.1z"/>
			<polygon fill="#FFFFFF" points="20.5,22.7 20.5,22.7 20.5,22.7 			"/>
			<path fill="#FFFFFF" d="M34.1,28C34,28.1,34,28.1,34.1,28C34,28.1,34,28.1,34.1,28z"/>
			<path fill="#FFFFFF" d="M34.5,28.6l0,0.1C34.5,28.7,34.5,28.7,34.5,28.6z"/>
			<path fill="#FFFFFF" d="M34.7,29.2C34.8,29.1,34.8,29.1,34.7,29.2L34.7,29.2L34.7,29.2z"/>
			<path fill="#FFFFFF" d="M28.8,22.6C28.8,22.6,28.8,22.6,28.8,22.6C28.7,22.6,28.7,22.6,28.8,22.6z"/>
			<path fill="#FFFFFF" d="M31,24.2c-0.1,0-0.1,0-0.2,0C30.8,24.2,30.9,24.3,31,24.2z"/>
			<polygon fill="#FFFFFF" points="26.6,20.5 26.6,20.5 26.6,20.5 			"/>
			<path fill="#FFFFFF" d="M30.7,24.1C30.7,24.2,30.8,24.2,30.7,24.1C30.8,24.2,30.8,24.1,30.7,24.1z"/>
			<path fill="#FFFFFF" d="M36.2,31.1L36.2,31.1C36.2,31.1,36.2,31.1,36.2,31.1L36.2,31.1z"/>
			<path fill="#FFFFFF" d="M36.2,31.1L36.2,31.1C36.3,31.1,36.3,31.1,36.2,31.1z"/>
			<path fill="#FFFFFF" d="M36.4,31.1L36.4,31.1C36.3,31.1,36.3,31.1,36.4,31.1z"/>
			<path fill="#FFFFFF" d="M35.8,30.4L35.8,30.4C35.7,30.5,35.8,30.5,35.8,30.4z"/>
			<path fill="#FFFFFF" d="M35.6,30.3c0,0.1-0.1,0.2,0,0.3l0.1,0C35.6,30.6,35.8,30.2,35.6,30.3z"/>
			<path fill="#FFFFFF" d="M36,28.8l0.1,0.2c0.1-0.1,0.1-0.2,0.2-0.2C36.4,28.4,36.1,29,36,28.8z"/>
			<path fill="#FFFFFF" d="M35.8,28.2c0.1,0,0.1-0.1,0.2-0.1C35.8,28.1,35.8,28.1,35.8,28.2z"/>
			<path fill="#FFFFFF" d="M33,25l0.2-0.2C33.2,24.8,33.2,24.9,33,25z"/>
			<polygon fill="#FFFFFF" points="31.5,25.2 31.4,25.4 31.6,25.3 			"/>
			<polygon fill="#FFFFFF" points="32.6,23.7 32.7,23.7 32.5,23.6 			"/>
			<path fill="#FFFFFF" d="M28,18.3l-0.2,0.2C27.8,18.6,28.1,18.3,28,18.3z"/>
			<path fill="#FFFFFF" d="M25.7,16.1c0.1-0.2,0-0.4-0.1-0.3C25.6,15.9,25.6,16.1,25.7,16.1z"/>
			<polygon fill="#FFFFFF" points="18.9,20.6 18.8,20.5 18.9,20.7 			"/>
		</g>
	</g>
</g>
</svg>
