<?xml version="1.0" encoding="utf-8"?>
<!-- Generator: Adobe Illustrator 19.1.0, SVG Export Plug-In . SVG Version: 6.00 Build 0)  -->
<svg version="1.1" id="Layer_1" xmlns="http://www.w3.org/2000/svg" xmlns:xlink="http://www.w3.org/1999/xlink" x="0px" y="0px"
	 viewBox="0 0 119 118" enable-background="new 0 0 119 118" xml:space="preserve">
<g>
	<path fill="#FFFFFF" d="M79,59.3c0.1,0.1,0.3,0,0.2-0.2l-0.3-0.1L79,59.3z"/>
	<path fill="#FFFFFF" d="M79.6,58.1c-0.2-0.2-0.5-0.4-0.8-0.3c0.3,0.2,0.2,0.2,0.6,0.4c0,0.2-0.1,0.3-0.2,0.3
		c0.1,0.1-0.1,0.3,0.2,0.4c0.2-0.2,0.2-0.5,0-0.8C79.4,58,79.5,58.1,79.6,58.1z"/>
	<path fill="#FFFFFF" d="M71.5,42.6l0.1,0.1C71.6,42.7,71.5,42.7,71.5,42.6z"/>
	<path fill="#FFFFFF" d="M61,38.7c0.1,0,0.1,0,0.1-0.1C61,38.7,61,38.7,61,38.7z"/>
	<path fill="#FFFFFF" d="M59,38.3c0,0,0.1,0,0.1,0C59.1,38.3,59.1,38.3,59,38.3z"/>
	<path fill="#FFFFFF" d="M71.5,42.6l-0.2-0.3C71.2,42.4,71.4,42.5,71.5,42.6z"/>
	<path fill="#FFFFFF" d="M78.5,55.8c0,0.1,0.1,0.1,0.1,0.1C78.6,55.9,78.5,55.9,78.5,55.8L78.5,55.8z"/>
	<path fill="#FFFFFF" d="M75.4,45.8L75.4,45.8c0.1,0.1,0.2,0.1,0.2,0L75.4,45.8z"/>
	<path fill="#FFFFFF" d="M77.7,48.9c0-0.1-0.3,0-0.4,0.1c0.1,0,0.2,0,0.3,0.1C77.6,49.1,77.6,49,77.7,48.9z"/>
	<path fill="#FFFFFF" d="M79.4,54.8L79.4,54.8C79.5,54.8,79.4,54.8,79.4,54.8z"/>
	<path fill="#FFFFFF" d="M73.5,43.8C73.5,43.8,73.5,43.7,73.5,43.8C73.5,43.7,73.5,43.8,73.5,43.8z"/>
	<path fill="#FFFFFF" d="M77.9,63.4C77.9,63.4,77.9,63.4,77.9,63.4C77.9,63.3,77.9,63.3,77.9,63.4z"/>
	<path fill="#FFFFFF" d="M79.7,59.3L79.7,59.3c0.1,0.1,0.1,0.1,0.2,0.1L79.7,59.3z"/>
	<path fill="#FFFFFF" d="M55.3,38.3C55.4,38.3,55.4,38.3,55.3,38.3C55.5,38.3,55.4,38.3,55.3,38.3z"/>
	<path fill="#FFFFFF" d="M38.9,63.8c0.2-0.4,0.5,0.5,0.6-0.1C39.4,63.8,38.9,63.3,38.9,63.8z"/>
	<path fill="#FFFFFF" d="M78.5,55.7c0,0,0-0.1,0-0.1C78.5,55.6,78.5,55.7,78.5,55.7z"/>
	<path fill="#FFFFFF" d="M39.5,63.7L39.5,63.7L39.5,63.7C39.5,63.7,39.5,63.7,39.5,63.7z"/>
	<path fill="#FFFFFF" d="M47.6,41.8c0,0,0.1,0,0.1,0.1C47.8,41.8,47.7,41.8,47.6,41.8z"/>
	<path fill="#FFFFFF" d="M53.4,39.4l-0.2,0C53.3,39.4,53.4,39.4,53.4,39.4z"/>
	<path fill="#FFFFFF" d="M45.4,44.1c-0.1,0-0.1,0-0.2,0.1c0,0,0,0,0,0C45.2,44.2,45.3,44.1,45.4,44.1z"/>
	<path fill="#FFFFFF" d="M43.1,46.6C43.2,46.6,43.2,46.6,43.1,46.6c0.1,0,0.1-0.1,0.1-0.1L43.1,46.6z"/>
	<path fill="#FFFFFF" d="M74,71.5c0.1,0,0.2,0,0.3,0.1C74.1,71.5,74.4,71.1,74,71.5z"/>
	<path fill="#FFFFFF" d="M78.6,55.8c-0.1,0-0.1,0-0.1-0.1l0,0.1C78.6,55.8,78.6,55.8,78.6,55.8z"/>
	<path fill="#FFFFFF" d="M46.8,45.8l-0.4,0.3C46.5,46,46.7,45.9,46.8,45.8z"/>
	<path fill="#FFFFFF" d="M54.4,77.5l0.1,0C54.5,77.5,54.4,77.5,54.4,77.5z"/>
	<path fill="#FFFFFF" d="M45.5,47.2c-0.1,0-0.2,0-0.3,0.1c0,0,0,0.1,0,0.1L45.5,47.2z"/>
	<path fill="#FFFFFF" d="M74.3,71.6L74.3,71.6L74.3,71.6z"/>
	<path fill="#FFFFFF" d="M75.5,68.6c-0.2,0.4,0.2,0.4,0.3,0.6c-0.2,0.5-0.4,0.1-0.6,0.1c-0.1,0.3,0.1,0.8-0.1,0.9
		c-0.1,0-0.1,0-0.1-0.1c0,0.5-0.6,0.9-0.6,1.4c0,0-0.1,0-0.1,0c0.2,0.1,0.3,0.2,0.4,0.3c-0.1,0.2-0.1,0.4-0.3,0.3
		c0.1-0.1,0-0.2,0-0.3l-0.1,0.2c-0.4-0.1,0.1-0.3-0.1-0.5c-0.2,0.4-0.3,1-0.6,1.1c-0.3-0.2,0.4-0.6-0.1-0.5L74,72
		c-0.7-0.1,0.2-0.2-0.4-0.3c-0.5,0.4-0.3,0.7-0.9,1c0,0.2,0.2,0.2,0.3,0.4c-0.5,0.9-1.1-0.1-1.3,0.7c0,0.3,0.2,0.7-0.3,0.8l-0.1-0.4
		c-0.5,0.3,0,0.7-0.7,0.9c0-0.2,0.3-0.4,0.2-0.4c-0.5,0-0.1,0.4-0.4,0.6L70.1,75c-0.6,0.4-1,1-1.7,1.4c0-0.1,0.1-0.3-0.1-0.3
		c-0.4,0.3-0.8,0.5-1.3,0.7c-0.5,0.1-1,0.2-1.4,0.2l-0.2,0.4c-0.1,0-0.2-0.1-0.1-0.2c-0.4,0,0,0.2-0.1,0.3c-0.2,0.1-0.3-0.1-0.2-0.2
		c-0.5,0.4-1.6,1-2.3,0.7l0.1-0.1c-0.5,0-0.5,0.7-1,0.5l0.1-0.1c-1.1,0-2.4,0.3-3.2-0.2c-0.2,0.4-1.1-0.2-1.2,0.3
		c-0.6-0.4-0.4-0.5-1.2-0.8c-0.2-0.1-0.4,0.3-0.7,0.3l0.1-0.3l-0.5,0.2l-0.1-0.4l-0.3,0c0.1,0,0.2,0.2,0.2,0.3c-0.5,0-1-0.5-0.9-0.7
		l-1-0.1c0.1-0.1,0.2-0.1,0.4-0.1c-0.6,0.1,0-0.3-0.5-0.2c0,0.1-0.1,0.2-0.1,0.2c-0.2-0.2-0.7-0.5-1.1-0.6l0.2-0.2
		c-0.7-0.3-1.4-0.7-2.2-1.1c0.2,0.2-0.1,0.5-0.3,0.4l0.1-0.3c-0.3,0.1,0.2,0.2-0.3,0.3c-0.2-0.2,0-0.4,0.2-0.4l-0.4-0.1
		c0-0.1,0.1-0.1,0.2-0.2c-0.2,0.1-0.3-0.7-0.7-0.5l0-0.1c-0.7-0.5-1-0.7-1.5-1.1c-0.2,0.2-0.4,0-0.7,0c-0.3-0.4-0.5-1-0.9-1.5
		c-0.4-0.2-0.3,0.1-0.5,0c0.2-0.2-0.2-0.7,0.1-0.5c-0.5-0.6-0.7-0.7-1.3-1.4c0,0.1,0,0.3-0.1,0.3c-0.1-0.1-0.1-0.4,0-0.4l0,0
		c-0.4-0.4-0.6-1-0.7-1.6c-0.1-0.6-0.2-1.1-0.6-1.4l0,0l-0.6-0.7c-0.1-0.4,0.3,0.2,0.3-0.2c-0.4-0.4-0.5-0.7-0.5-1.1
		c-0.1-0.3-0.1-0.7-0.3-1c0.3-0.4,0.2-0.9,0.1-1.4c-0.1-0.3-0.1-0.5-0.2-0.8c0-0.3,0-0.5,0.1-0.7l-0.2,0.1c-0.2-0.2,0.1-0.3,0.1-0.4
		c-0.1,0-0.1,0.2-0.3,0.1c-0.2-0.9,0-1.8,0.1-2.7c0.1-0.4,0.3-0.9,0.4-1.3l0.2-0.6l0.2-0.6c0.2-0.6-0.8-0.6-0.2-1.3l0.3,0.3
		c0-0.7,0.3-1.3,0.5-1.9c0.3-0.6,0.6-1.2,0.7-1.9c0,0.1,0.1,0.2,0.1,0.3c0.3-0.1,0.5-0.9,0.4-1c0.1-0.2,0.2,0.1,0.3,0
		c0.3-0.2,0.1-0.8,0.4-0.7c0,0,0,0.1,0,0.2c0-0.2,0.5-0.6,0.2-0.7c0.4-0.3,0.5-0.8,0.8-1c-0.1-0.4,0.7-0.5,0.4-0.9
		c0.3,0.3,0.8-0.4,0.9-0.7c0,0.2,0.3-0.1,0.3,0.1c0.3-0.2,0.4-0.5,0.2-0.6c0.8,0,0.7-1.2,1.5-0.8c0.2-0.2,0.3-0.4,0.5-0.6
		c0.2-0.2,0.4-0.3,0.6-0.5c0.4-0.3,0.7-0.7,1.2-0.9c0.2,0.4-0.9,0.5-0.6,0.9c0.6-0.6,1-1.2,1.8-1.5c0.2,0,0,0.2-0.1,0.3
		c0.4-0.3,0.8-0.4,1.2-0.6c0.4-0.1,0.8-0.3,1.1-0.5c0,0-0.1,0.1-0.1,0.2c0.1-0.1,0.4,0,0.3-0.2l-0.1,0.1c-0.3-0.2,0.4-0.8,0.4-0.9
		c-0.1,0.6,0.8-0.1,0.6,0.8c0.1-0.1,0.2-0.2,0.1-0.3c0.2,0,0.2,0.1,0.1,0.3c0.5-0.3,0.3-0.4,0.8-0.5c0,0.1-0.1,0.2-0.1,0.3
		c0.2-0.2,0.5-0.5,0.9-0.4c0,0.1,0,0.1-0.1,0.2c0.7-0.2,1.2-0.6,2.1-0.5c-0.2,0.4,0.3,0.1,0.3,0.5c0,0,0.1,0,0.2-0.1
		c0.1,0,0.2,0,0.2,0L59.7,40c0.4,0,0.7-0.2,1.1-0.1l-0.3,0.1l0.7,0l-0.4-0.2c0.4-0.2,0-0.4,0.5-0.3c-0.1,0,0.4,0.4,0.6,0.4h0
		c0.2,0,0.4-0.3,0.7-0.1c0.1,0.1-0.1,0.4-0.1,0.4c0.2-0.3,0.9,0,1.2-0.2c-0.1,0.1-0.1,0.2-0.1,0.3l0.2-0.2c0.2,0.1,0.2,0.2,0.1,0.3
		c0.5,0.2-0.1-0.5,0.5-0.1c-0.1,0,0,0-0.2,0.1c0.6,0.3,1.3,0.1,1.8,0.5c0,0.4-0.5-0.1-0.4,0.3c0.4,0.1,0.9,0.2,1.3,0.2
		c0.4,0.1,0.9,0.2,1.2,0.4l-0.1-0.1c0.3-0.4,0.5,0.5,0.9,0.5c-0.1,0-0.3,0.2-0.2,0.2c0.4,0.4,1.1,0.5,1.9,0.8l-0.2,0
		c0.2,0.3,0.7,0.6,0.9,0.9c0.2,0,0.3,0.1,0.3-0.1c0.2,0.6,0.6,0.9,1.1,1.2c0.5,0.2,0.9,0.5,1,1.1c-0.1-0.1-0.3-0.1-0.2-0.1l0.7,0.5
		c0.1-0.2,0-0.2,0-0.4c0.2,0,0.4,0.1,0.6,0.3c-0.4-0.2-0.3,0.2-0.3,0.5c0-0.1,0.1-0.1,0.2-0.1c-0.1,0.6,0.4-0.2,0.6,0.4l-0.1,0
		c0.2,0.1,0.4,0.2,0.6,0.4c-0.2,0.2-0.2-0.1-0.4,0c0.2,0.3,0.8,0.3,0.8,0.7c-0.1-0.1-0.2-0.3-0.4-0.3c-0.1,0.4,0,0.4,0.1,0.7l0,0
		l0.2,0.6l0-0.2c0.8,0,0.6,0.7,1.2,1c-0.6-0.3-0.3,0-0.6,0.1c0,0.2,0,0.4-0.1,0.4c0.3,0.1,0,0.5,0.5,0.7c-0.1,0.1,0.1,0.3-0.1,0.3
		c0.2,0.3,0.1-0.1,0.2-0.2c0.5,0.4,0.1,1.3,0.8,1.9c0.4,0.6,0.7,0.6,1,1.2c-0.1,0.2-0.4-0.1-0.4-0.1c-0.1,0.4,0.1,0.6,0.2,0.9
		c-0.1,0-0.2,0-0.2,0.2c0.1,0.3,0.4,0.1,0.3,0.5c-0.1,0-0.3-0.1-0.4-0.2c0.1,0.3,0.4,0.6,0.5,0.9c-0.2,0.1-0.3-0.2-0.4-0.2
		c0.1,0.3,0.3,0.9,0.6,1l0.1-0.2c0,0.1-0.2,0.1-0.3,0c-0.3-0.3,0-0.4,0.1-0.5l0.1,0.2c0.5-0.3-0.2-0.9-0.3-1.4l0.4,0.1L79,55.4
		c0.1-0.1,0.3-0.2,0.4,0c0.1-0.4-0.2-0.3-0.1-0.6c0,0,0,0,0.1,0l-0.2-0.3c0.1,0,0.3-0.1,0.3,0.1c0.1-0.6-0.5-0.9-0.3-1.2l0,0
		c-0.4-0.8-0.3,0-0.9-0.5l0.6-0.6l-0.3,0c0-0.1-0.1-0.3,0.1-0.3c-0.3-0.2-0.1,0.1-0.4,0c0.1-0.5-0.5-1-0.1-1.3c-0.3,0,0,0.4-0.3,0.1
		c0.4-0.3-0.3-0.4-0.2-0.9c0.3,0,0.3,0.4,0.4-0.1c-0.5,0-0.2-0.7-0.5-0.9c-0.3,0.2-0.5-0.5-0.9-0.9c0.1-0.1-0.4-0.9-0.6-1.4l0.1,0
		c-0.4,0.2-0.6-0.3-0.9-0.5c0.2-0.1,0.3-0.1,0.5,0c0,0-0.2-0.3-0.2-0.3c-0.1,0-0.3,0-0.5-0.2l0.3-0.1c-0.3-0.3-0.9-0.5-1.2-1
		c-0.2,0.2-0.2,0.8-0.7,0.5c0.1-0.1,0.2-0.3,0.4-0.2c-0.1,0-0.2,0-0.3-0.2l0.3,0c-0.1-0.3-0.2,0-0.4-0.1c0.1-0.1,0-0.2,0.1-0.3
		c0.1,0,0.1,0.2,0.2,0.2c-0.2-0.2-0.3-0.5-0.3-0.7c-0.1,0.1-0.2,0.2-0.3,0.1c-0.4-0.3,0-0.3-0.1-0.6c-0.2,0-0.3-0.3-0.5,0
		c-0.1-0.1,0-0.2,0-0.3c-0.3,0-0.9-0.7-0.9-0.2l0,0.1c0,0,0,0,0,0l0,0l0,0c-0.8-0.3-1.3-1-2-1.4l0-0.1c-0.5-0.1-1-0.4-1.4-0.4
		c-0.1-0.1-0.2-0.3-0.1-0.4c-0.4-0.1-0.4,0-0.9-0.3c0.4,0-0.1-0.2,0.4,0c-0.4-0.2-0.5-0.4-1-0.3c0.3-0.2-0.2-0.4-0.5-0.4l0.3,0.3
		c-0.2-0.1-0.4-0.1-0.7-0.2l0.2-0.3c-0.9-0.6-1.9,0.2-2.4-0.6c-0.3,0.2,0.5,0.2,0.2,0.5c-0.4-0.1-0.8-0.7-1-0.7
		c-0.6-0.3-0.6,0.4-1.3,0.2c0.1,0.1,0.1,0.4-0.4,0.5c-0.4-0.1-0.5-0.5-0.2-0.6c0.1,0,0.2,0,0.1,0.1c0.1,0,0.3-0.1,0.2-0.2l-0.1,0.1
		c-0.2-0.1-0.8-0.2-0.7-0.3c-0.3,0.1-0.2,0.2,0.1,0.3c-0.6-0.2-0.9-0.1-1.5-0.1c0.1,0.1,0.2,0.2,0.1,0.2c-0.9-0.1-0.4,0.2-1,0.3
		c-0.3-0.2,0.1-0.4-0.5-0.3c-0.4-0.1-0.1-0.3,0-0.4c-0.5,0.2-1,0-1.4,0l0.3-0.1c-0.2,0.1-0.3,0.1-0.5,0.1l0.2,0.2
		c-0.2,0-0.3,0-0.3-0.1c-0.1,0.2,0.2,0.4-0.1,0.6c-0.2-0.1-0.6,0.2-0.8-0.1c0.7,0-0.1-0.3,0.4-0.5c-0.1,0.1-0.2,0.1-0.4,0.1
		c0,0,0-0.1,0.1-0.1c-0.7-0.1-0.2,0.4-0.9,0.6c0-0.2-0.2-0.3-0.3-0.2c0.3-0.1,0.2,0.3,0,0.4c-0.5,0-0.4,0.2-0.7,0.3l0.3,0
		c0,0.2-0.3,0.2-0.5,0.4c-0.1-0.1,0.2-0.2,0.1-0.2c-0.2,0.4-0.8,0-1.2,0.3c-0.3,0-0.1-0.3-0.4-0.3c-0.4,0.4-0.6,0-1.1,0.4
		c0.3,0.1,0.2,0.1,0,0.5l0.8-0.6L51,40.5c0.3-0.1,0.5-0.4,0.6-0.4c-0.2,0.3-0.2,0.2,0,0.3c-0.5-0.2-0.6,0.5-1.1,0.5l-0.2-0.5
		c-0.7,0-0.9,0.8-1.7,1.1l0.3-0.1c0,0.3-0.4,0.3-0.6,0.5c-0.1-0.2-0.3-0.1-0.4-0.2c0.1,0.1-0.5,0.4-0.4,0.7l-0.5,0
		c-0.6,0.3-0.3,0.9-0.8,1.3c0-0.3-0.3-0.2-0.1-0.6c-0.2,0.2-0.3,0.3-0.3,0.4c-0.2,0-0.3,0.6-0.6,0.6c0,0.1,0.1,0.3-0.1,0.5
		c0,0-0.1-0.1-0.1-0.1c0.1,0.1-0.2,0.4,0.1,0.4c-0.9,0.1-1.3,1.4-2,1.6c-0.2,0.4-0.5,0.9-0.8,1.3c0-0.1-0.1-0.1,0-0.1
		c-0.5,0.4,0.3,0.6-0.2,1.1c-0.5,0.1,0-0.4-0.2-0.3c-0.6-0.2-0.4,0.7-0.9,1l0-0.1c-0.4,0.2-0.2,0.9-0.5,1.4c0,0,0,0-0.1,0
		c0.1,0.5,0,1.2-0.1,1.8c-0.2-0.2,0-0.3-0.3-0.3c-0.1,0.2,0.4,0.1,0.3,0.6c-0.2,0.1-0.4,0.4-0.7,0.4c0,0,0.1-0.5,0.1-0.5
		c-0.4,0.1-0.2,0.6-0.3,0.8l-0.1-0.1c-0.1,0.7,0.2,0.8,0,1.6l0.1-0.1c0.3,0.5-0.3,0.3-0.1,0.8l-0.4,0.1c0.1,0.3,0.2,1,0.2,1.5
		c-0.3-0.3-0.3-0.9-0.4-1.3c0,0.3-0.1,1,0.1,1.1c0-0.1-0.1-0.3,0-0.4c0.2,0.4,0.4,0.8,0.4,1.4c-0.8-0.1-0.3,1.4-0.8,1.8
		c0.2,0.5,0.2,1,0.1,1.5c0,0.5,0,1.1,0.1,1.6c0.5-0.5,0.1,0.3,0.7,0.1c0.1,0.3,0.1,0.3,0.1,0.4l-0.2,0.9c-0.1,0.2-0.2-0.2-0.3-0.2
		c0.1,0.6-0.2,0.3-0.2,0.7c0.2-0.1,0.4,0.1,0.4,0.5l0.1-0.5c0.5,0.7-0.3,0.8,0.3,1.5l-0.3-0.2c0.3,0.4,0.5,1.5,1.2,1.7
		c0,0.1-0.1,0.3-0.3,0.1c0.2,0.5,0.5,1,0.9,1.4c0.4,0.4,0.7,0.8,0.8,1.2l-0.2,0c0.1,0.1,0.4,0.1,0.4,0.4c-0.1,0-0.2,0-0.1,0.1
		c0.1,0.1,0.5,0.3,0.6,0.5l-0.3-0.1c0.2,0.5,0.5,0.7,0.9,0.9c0.3,0.2,0.7,0.3,1,0.6c-0.3,0.3,0.1,1,0.3,1.3l-0.1,0
		c0.4,0.4,0.9,0.7,1.3,0.9c0.4,0.2,0.9,0.4,1.4,0.6c0.1,0.4,0.6,0.8,1.1,1.1c0.5,0.3,1.1,0.7,1.5,1c-0.1-0.1,0.2-0.3,0.4-0.3
		c0.2,0.2,0.8,0,0.6,0.4l-0.1,0c0,0.4,0.5,0.6,0.9,0.7l0.3-0.5c0.4,0.5,1,0.7,1.7,0.8c0.6,0.1,1.2,0.1,1.4,0.5
		c0.3-0.1,0.6,0,0.9-0.1l-0.1,0.3c0.7,0.2,1,0.3,1.9,0.3l-0.2,0.2c0.5,0,0.7-0.8,1.1-0.8l0.1,0.4c0.9,0.1,1.8,0.3,2.6-0.1
		c0,0.1,0,0.2-0.2,0.2c0.4,0,1.6,0.1,1.4-0.5c0.1,0.4,0.9-0.1,1.3-0.3l0,0.3c0.3-0.4,0.3-0.5,0.8-0.8c0.1,0,0.2,0.2,0,0.2
		c0.5,0,0.3-0.3,0.8-0.3l-0.1,0.2c0.4-0.1,0.4-0.2,0.5-0.4c0.2-0.2,0.8-0.2,0.9,0c0-0.2,0.2-0.4,0.4-0.5c0.1,0.1,0,0.2,0,0.2
		c0.8-0.1,0.9-0.7,1.4-0.7c0,0.1,0.1,0.1,0.2,0.1c-0.5,0.2-1,0.4-0.9,0.4c0.1,0.2,0.6,0.1,0.4,0.6c0.3-0.3,0.7-1,1.2-1.1
		c0,0,0.1,0,0.1,0.1l0,0c0.1,0,0.2-0.1,0.2-0.2c0.1,0,0.2-0.1,0.4-0.1c0.2,0.2,0.5-0.2,0.7-0.3c-0.2-0.2,0.1-0.4-0.2-0.4
		c0,0,0,0.1-0.1,0.1c0,0-0.1,0.1-0.1,0.1l0,0c-0.1,0.1-0.3,0.2-0.5,0.3c0.1-0.2,0.2-0.4,0.5-0.4c0-0.2,0-0.4,0-0.6
		c0.5,0.2,1.1,0,1.3,0.1c0.5-0.6,1.3-1.1,1.3-1.8c0.1-0.2,0.3,0,0.4,0c-0.1,0.1-0.2,0.2-0.2,0.3c0.2-0.4,0.9-0.9,0.7-1.2
		c0.5-0.2,0,0.4,0.5-0.1l0,0.2c0.7-0.3,0.9-0.9,1.1-1.5c0.2-0.6,0.4-1.2,1.2-1.6c-0.1,0.1-0.2,0.1-0.2,0.1c1.3-1.3,1.6-3.2,2.6-4.6
		c0.3-0.4,0.1-0.6,0-0.9l0.3,0L79.2,65c0-0.4,0.2-0.6,0.5-0.9c0.2-0.3,0.5-0.6,0.3-1.1L79.8,63c0.1-0.3,0-1,0.3-1
		c0,0-0.2-0.1-0.1-0.2l0.2,0c0,0,0-0.2-0.1-0.4C80,61.2,79.9,61,79.9,61c0.1-0.6,0.6,0.1,0.7-0.8c0-0.4-0.4-1-0.5-0.9
		c0,0.1-0.1,0.3-0.3,0.4l-0.1-0.3c-0.5-0.1-0.9-0.3-1.3,0.4l0.3,0.5l-0.2,0.1l0-0.4c-0.2,0.2,0,0.4,0.1,0.6c-0.1,0-0.2,0.1-0.3,0.2
		l0.4,0.5c-0.2,0-0.3-0.2-0.5,0.1c0.2,0.2,0.4-0.2,0.5,0.2c-0.2,0.2-0.4,0.1-0.3,0.4c-0.1,0-0.2,0-0.2-0.2c0.1,0.3,0,0.6,0.2,0.8
		c-0.3,0.2-0.1,0.8-0.5,0.7c0.1,0.1,0.2,0.5,0.2,0.7c-0.4-0.5-0.2,0.8-0.8,0.5c0.4,0.4-0.2,1.1-0.1,1.7c0,0-0.1-0.1,0-0.2
		c-0.1,0.3-0.3,0.3-0.5,0.4c0.3,0.2,0.2,0.6,0.3,1c-0.5,0.2-0.3-0.4-0.7-0.4c0.3,0.1,0,0.7,0.3,0.7C76.4,68,76.5,68,76.2,68
		c0.4,0.3,0,0.3,0.1,0.6c-0.4,0.2-0.5-0.1-0.6,0.3C75.5,69,75.5,68.6,75.5,68.6z M68.5,76.5L68.5,76.5c0.1-0.1,0.1-0.1,0.2-0.1
		C68.6,76.4,68.6,76.4,68.5,76.5z M67.6,76.9c0.1,0,0.2-0.1,0.4-0.2c0.1,0.1,0.1,0.2,0,0.2C68,76.9,67.8,76.9,67.6,76.9z M70.4,77.7
		c-0.1,0.1-0.2,0.1-0.2,0.1c0.1,0,0.1-0.1,0.2-0.2l0,0C70.3,77.6,70.4,77.6,70.4,77.7z"/>
	<path fill="#FFFFFF" d="M70.4,77.2C70.4,77.2,70.4,77.2,70.4,77.2C70.4,77.1,70.4,77.1,70.4,77.2L70.4,77.2L70.4,77.2z"/>
	<path fill="#FFFFFF" d="M71.6,42.7L71.6,42.7C71.6,42.7,71.6,42.8,71.6,42.7C71.6,42.8,71.6,42.8,71.6,42.7z"/>
	<polygon fill="#FFFFFF" points="55.4,77.6 55.4,77.7 55.5,77.6 	"/>
	<path fill="#FFFFFF" d="M74.7,47C74.7,47,74.7,47.1,74.7,47C74.7,47.1,74.7,47.1,74.7,47z"/>
	<path fill="#FFFFFF" d="M76,48.8l0.1,0.3C76,49,76,48.9,76,48.8z"/>
	<path fill="#FFFFFF" d="M76.7,50.4c0.1,0,0.1,0,0.1,0l0,0L76.7,50.4z"/>
	<path fill="#FFFFFF" d="M54.1,41.2C54.1,41.2,54,41.2,54.1,41.2C53.9,41.3,54,41.3,54.1,41.2z"/>
	<path fill="#FFFFFF" d="M61.9,39.8c-0.1,0-0.2,0.1-0.3,0.1C61.7,40,61.9,40,61.9,39.8z"/>
	<polygon fill="#FFFFFF" points="46.8,45.8 46.8,45.8 46.8,45.8 	"/>
	<path fill="#FFFFFF" d="M61.2,39.9c0.1,0.1,0.3,0.1,0.4,0C61.5,39.9,61.4,39.9,61.2,39.9z"/>
	<path fill="#FFFFFF" d="M78.7,57.3L78.7,57.3C78.7,57.4,78.7,57.4,78.7,57.3L78.7,57.3z"/>
	<path fill="#FFFFFF" d="M78.7,57.4L78.7,57.4C78.8,57.4,78.8,57.4,78.7,57.4z"/>
	<path fill="#FFFFFF" d="M78.8,57.6l-0.1-0.2C78.8,57.5,78.8,57.6,78.8,57.6z"/>
	<path fill="#FFFFFF" d="M78.4,55.1l-0.1,0C78.4,55.1,78.4,55.1,78.4,55.1z"/>
	<path fill="#FFFFFF" d="M78.2,54.4c0,0.2-0.1,0.4,0,0.6l0.1,0C78.2,55,78.4,54.6,78.2,54.4z"/>
	<path fill="#FFFFFF" d="M78.5,51.3c0,0,0.1,0.6,0.1,0.6c0.1-0.1,0.2-0.3,0.3-0.1C79,51,78.8,52,78.5,51.3z"/>
	<path fill="#FFFFFF" d="M77.8,49.5c0.2,0.3,0.1-0.1,0.2-0.1C77.9,49.3,77.8,49.3,77.8,49.5z"/>
	<path fill="#FFFFFF" d="M68,40.4l0.1-0.2C67.9,40.1,68.1,40.3,68,40.4z"/>
	<path fill="#FFFFFF" d="M65.2,40.8c0,0,0.2,0.2,0.2,0.2l0.2-0.2C65.6,40.8,65.2,40.8,65.2,40.8z"/>
	<polygon fill="#FFFFFF" points="64.2,38.7 64.4,38.6 63.9,38.6 	"/>
	<path fill="#FFFFFF" d="M43.3,45.9l0.3,0.1C43.7,45.9,43.4,45.7,43.3,45.9z"/>
	<path fill="#FFFFFF" d="M39.3,55c-0.2,0.1-0.3,0.3-0.2,0.5C39.1,55.3,39.3,55.1,39.3,55z"/>
	<polygon fill="#FFFFFF" points="52.2,79.3 52,79.3 52.4,79.4 	"/>
</g>
<g>
	<g>
		<path fill="#FFFFFF" d="M78.9,59.3c0.1,0.1,0.3,0,0.2-0.2L78.8,59L78.9,59.3z"/>
		<path fill="#FFFFFF" d="M79.4,58.1c-0.2-0.2-0.5-0.4-0.8-0.3c0.3,0.2,0.2,0.2,0.6,0.4c0,0.2-0.1,0.3-0.2,0.3
			c0.1,0.1-0.1,0.3,0.2,0.4c0.2-0.2,0.2-0.5,0-0.8C79.3,58,79.4,58,79.4,58.1z"/>
		<path fill="#FFFFFF" d="M71.4,42.6l0.1,0.1C71.5,42.6,71.4,42.6,71.4,42.6z"/>
		<path fill="#FFFFFF" d="M60.9,38.6c0.1,0,0.1,0,0.1-0.1C60.9,38.6,60.9,38.6,60.9,38.6z"/>
		<path fill="#FFFFFF" d="M58.9,38.2c0,0,0.1,0,0.1,0C59,38.2,58.9,38.2,58.9,38.2z"/>
		<path fill="#FFFFFF" d="M71.4,42.6l-0.2-0.3C71.1,42.4,71.3,42.5,71.4,42.6z"/>
		<path fill="#FFFFFF" d="M78.4,55.8c0,0.1,0.1,0.1,0.1,0.1C78.5,55.8,78.4,55.8,78.4,55.8L78.4,55.8z"/>
		<path fill="#FFFFFF" d="M75.3,45.7L75.3,45.7c0.1,0.1,0.2,0.1,0.2,0L75.3,45.7z"/>
		<path fill="#FFFFFF" d="M77.6,48.9c0-0.1-0.3,0-0.4,0.1c0.1,0,0.2,0,0.3,0.1C77.4,49,77.5,49,77.6,48.9z"/>
		<path fill="#FFFFFF" d="M79.3,54.7L79.3,54.7C79.4,54.8,79.3,54.7,79.3,54.7z"/>
		<path fill="#FFFFFF" d="M73.4,43.7C73.4,43.7,73.4,43.7,73.4,43.7C73.4,43.7,73.4,43.7,73.4,43.7z"/>
		<path fill="#FFFFFF" d="M77.8,63.3C77.8,63.3,77.8,63.3,77.8,63.3C77.8,63.3,77.8,63.3,77.8,63.3z"/>
		<path fill="#FFFFFF" d="M79.6,59.3L79.6,59.3c0.1,0.1,0.1,0.1,0.2,0.1L79.6,59.3z"/>
		<path fill="#FFFFFF" d="M55.2,38.3C55.2,38.3,55.2,38.3,55.2,38.3C55.3,38.2,55.3,38.2,55.2,38.3z"/>
		<path fill="#FFFFFF" d="M38.8,63.8c0.2-0.4,0.5,0.5,0.6-0.1C39.3,63.8,38.8,63.3,38.8,63.8z"/>
		<path fill="#FFFFFF" d="M78.4,55.7c0,0,0-0.1,0-0.1C78.4,55.6,78.4,55.6,78.4,55.7z"/>
		<path fill="#FFFFFF" d="M39.4,63.7L39.4,63.7L39.4,63.7C39.4,63.6,39.4,63.7,39.4,63.7z"/>
		<path fill="#FFFFFF" d="M47.5,41.7c0,0,0.1,0,0.1,0.1C47.7,41.7,47.6,41.7,47.5,41.7z"/>
		<path fill="#FFFFFF" d="M53.3,39.4l-0.2,0C53.2,39.4,53.3,39.4,53.3,39.4z"/>
		<path fill="#FFFFFF" d="M45.3,44c-0.1,0-0.1,0-0.2,0.1c0,0,0,0,0,0C45.1,44.1,45.2,44.1,45.3,44z"/>
		<path fill="#FFFFFF" d="M43,46.5C43.1,46.5,43.1,46.5,43,46.5c0.1,0,0.1-0.1,0.1-0.1L43,46.5z"/>
		<path fill="#FFFFFF" d="M73.9,71.5c0.1,0,0.2,0,0.3,0.1C74,71.4,74.2,71.1,73.9,71.5z"/>
		<path fill="#FFFFFF" d="M78.5,55.7c-0.1,0-0.1,0-0.1-0.1l0,0.1C78.5,55.8,78.5,55.8,78.5,55.7z"/>
		<path fill="#FFFFFF" d="M46.7,45.8L46.3,46C46.4,46,46.6,45.9,46.7,45.8z"/>
		<path fill="#FFFFFF" d="M54.3,77.4l0.1,0C54.4,77.4,54.3,77.4,54.3,77.4z"/>
		<path fill="#FFFFFF" d="M45.4,47.1c-0.1,0-0.2,0-0.3,0.1c0,0,0,0.1,0,0.1L45.4,47.1z"/>
		<path fill="#FFFFFF" d="M74.2,71.5L74.2,71.5L74.2,71.5z"/>
		<path fill="#FFFFFF" d="M75.4,68.6c-0.2,0.4,0.2,0.4,0.3,0.6c-0.2,0.5-0.4,0.1-0.6,0.1c-0.1,0.3,0.1,0.8-0.1,0.9
			c-0.1,0-0.1,0-0.1-0.1c0,0.5-0.6,0.9-0.6,1.4c0,0-0.1,0-0.1,0c0.2,0.1,0.3,0.2,0.4,0.3c-0.1,0.2-0.1,0.4-0.3,0.3
			c0.1-0.1,0-0.2,0-0.3l-0.1,0.2c-0.4-0.1,0.1-0.3-0.1-0.5c-0.2,0.4-0.3,1-0.6,1.1c-0.3-0.2,0.4-0.6-0.1-0.5l0.4-0.3
			c-0.7-0.1,0.2-0.2-0.4-0.3c-0.5,0.4-0.3,0.7-0.9,1c0,0.2,0.2,0.2,0.3,0.4c-0.5,0.9-1.1-0.1-1.3,0.7c0,0.3,0.2,0.7-0.3,0.8
			l-0.1-0.4c-0.5,0.3,0,0.7-0.7,0.9c0-0.2,0.3-0.4,0.2-0.4c-0.5,0-0.1,0.4-0.4,0.6L70,74.9c-0.6,0.4-1,1-1.7,1.4
			c0-0.1,0.1-0.3-0.1-0.3c-0.4,0.3-0.8,0.5-1.3,0.7c-0.5,0.1-1,0.2-1.4,0.2l-0.2,0.4c-0.1,0-0.2-0.1-0.1-0.2c-0.4,0,0,0.2-0.1,0.3
			c-0.2,0.1-0.3-0.1-0.2-0.2c-0.5,0.4-1.6,1-2.3,0.7l0.1-0.1c-0.5,0-0.5,0.7-1,0.5l0.1-0.1c-1.1,0-2.4,0.3-3.2-0.2
			c-0.2,0.4-1.1-0.2-1.2,0.3c-0.6-0.4-0.4-0.5-1.2-0.8c-0.2-0.1-0.4,0.3-0.7,0.3l0.1-0.3l-0.5,0.2l-0.1-0.4l-0.3,0
			c0.1,0,0.2,0.2,0.2,0.3c-0.5,0-1-0.5-0.9-0.7l-1-0.1c0.1-0.1,0.2-0.1,0.4-0.1c-0.6,0.1,0-0.3-0.5-0.2c0,0.1-0.1,0.2-0.1,0.2
			c-0.2-0.2-0.7-0.5-1.1-0.6l0.2-0.2c-0.7-0.3-1.4-0.7-2.2-1.1c0.2,0.2-0.1,0.5-0.3,0.4L49,75c-0.3,0.1,0.2,0.2-0.3,0.3
			c-0.2-0.2,0-0.4,0.2-0.4l-0.4-0.1c0-0.1,0.1-0.1,0.2-0.2c-0.2,0.1-0.3-0.7-0.7-0.5l0-0.1c-0.7-0.5-1-0.7-1.5-1.1
			c-0.2,0.2-0.4,0-0.7,0c-0.3-0.4-0.5-1-0.9-1.5c-0.4-0.2-0.3,0.1-0.5,0c0.2-0.2-0.2-0.7,0.1-0.5c-0.5-0.6-0.7-0.7-1.3-1.4
			c0,0.1,0,0.3-0.1,0.3c-0.1-0.1-0.1-0.4,0-0.4l0,0c-0.4-0.4-0.6-1-0.7-1.6c-0.1-0.6-0.2-1.1-0.6-1.4l0,0l-0.6-0.7
			c-0.1-0.4,0.3,0.2,0.3-0.2c-0.4-0.4-0.5-0.7-0.5-1.1c-0.1-0.3-0.1-0.7-0.3-1c0.3-0.4,0.2-0.9,0.1-1.4c-0.1-0.3-0.1-0.5-0.2-0.8
			c0-0.3,0-0.5,0.1-0.7l-0.2,0.1c-0.2-0.2,0.1-0.3,0.1-0.4c-0.1,0-0.1,0.2-0.3,0.1c-0.2-0.9,0-1.8,0.1-2.7c0.1-0.4,0.3-0.9,0.4-1.3
			l0.2-0.6l0.2-0.6c0.2-0.6-0.8-0.6-0.2-1.3l0.3,0.3c0-0.7,0.3-1.3,0.5-1.9c0.3-0.6,0.6-1.2,0.7-1.9c0,0.1,0.1,0.2,0.1,0.3
			c0.3-0.1,0.5-0.9,0.4-1c0.1-0.2,0.2,0.1,0.3,0c0.3-0.2,0.1-0.8,0.4-0.7c0,0,0,0.1,0,0.2c0-0.2,0.5-0.6,0.2-0.7
			c0.4-0.3,0.5-0.8,0.8-1c-0.1-0.4,0.7-0.5,0.4-0.9c0.3,0.3,0.8-0.4,0.9-0.7c0,0.2,0.3-0.1,0.3,0.1c0.3-0.2,0.4-0.5,0.2-0.6
			c0.8,0,0.7-1.2,1.5-0.8c0.2-0.2,0.3-0.4,0.5-0.6c0.2-0.2,0.4-0.3,0.6-0.5c0.4-0.3,0.7-0.7,1.2-0.9c0.2,0.4-0.9,0.5-0.6,0.9
			c0.6-0.6,1-1.2,1.8-1.5c0.2,0,0,0.2-0.1,0.3c0.4-0.3,0.8-0.4,1.2-0.6c0.4-0.1,0.8-0.3,1.1-0.5c0,0-0.1,0.1-0.1,0.2
			c0.1-0.1,0.4,0,0.3-0.2L54.1,41c-0.3-0.2,0.4-0.8,0.4-0.9c-0.1,0.6,0.8-0.1,0.6,0.8c0.1-0.1,0.2-0.2,0.1-0.3
			c0.2,0,0.2,0.1,0.1,0.3c0.5-0.3,0.3-0.4,0.8-0.5c0,0.1-0.1,0.2-0.1,0.3c0.2-0.2,0.5-0.5,0.9-0.4c0,0.1,0,0.1-0.1,0.2
			c0.7-0.2,1.2-0.6,2.1-0.5c-0.2,0.4,0.3,0.1,0.3,0.5c0,0,0.1,0,0.2-0.1c0.1,0,0.2,0,0.2,0L59.6,40c0.4,0,0.7-0.2,1.1-0.1L60.4,40
			l0.7,0l-0.4-0.2c0.4-0.2,0-0.4,0.5-0.2c-0.1,0,0.4,0.4,0.6,0.4h0c0.2,0,0.4-0.3,0.7-0.2c0.1,0.1-0.1,0.3-0.1,0.4
			c0.2-0.3,0.9,0,1.2-0.3c-0.1,0.1-0.1,0.2-0.1,0.3l0.2-0.2c0.2,0.1,0.2,0.2,0.1,0.3c0.5,0.2-0.1-0.5,0.5-0.1c-0.1,0,0,0-0.2,0.1
			c0.6,0.3,1.3,0.1,1.8,0.5c0,0.4-0.5-0.1-0.4,0.3c0.4,0.1,0.9,0.2,1.3,0.2c0.4,0.1,0.9,0.2,1.2,0.4L68,41.6
			c0.3-0.4,0.5,0.5,0.9,0.5c-0.1,0-0.3,0.2-0.2,0.2c0.4,0.4,1.1,0.5,1.9,0.8l-0.2,0c0.2,0.3,0.7,0.6,0.9,0.9c0.2,0,0.3,0.1,0.3-0.1
			c0.2,0.6,0.6,0.9,1.1,1.2c0.5,0.2,0.9,0.5,1,1.1c-0.1-0.1-0.3-0.1-0.2-0.1l0.7,0.5c0.1-0.2,0-0.2,0-0.4c0.2,0,0.4,0.1,0.6,0.3
			c-0.4-0.2-0.3,0.2-0.3,0.5c0-0.1,0.1-0.1,0.2-0.1c-0.1,0.6,0.4-0.2,0.6,0.4l-0.1,0c0.2,0.1,0.4,0.2,0.6,0.4
			c-0.2,0.2-0.2-0.1-0.4,0c0.2,0.3,0.8,0.3,0.8,0.7c-0.1-0.1-0.2-0.3-0.4-0.3c-0.1,0.4,0,0.4,0.1,0.7l0,0l0.2,0.6l0-0.2
			c0.8,0,0.6,0.7,1.2,1c-0.6-0.3-0.3,0-0.6,0.1c0,0.2,0,0.4-0.1,0.4c0.3,0.1,0,0.5,0.5,0.7c-0.1,0.1,0.1,0.3-0.1,0.3
			c0.2,0.3,0.1-0.1,0.2-0.2c0.5,0.4,0.1,1.3,0.8,1.9c0.4,0.6,0.7,0.6,1,1.2c-0.1,0.2-0.4-0.1-0.4-0.1c-0.1,0.4,0.1,0.6,0.2,0.9
			c-0.1,0-0.2,0-0.2,0.2c0.1,0.3,0.4,0.1,0.3,0.5c-0.1,0-0.3-0.1-0.4-0.2c0.1,0.3,0.4,0.6,0.5,0.9c-0.2,0.1-0.3-0.2-0.4-0.2
			c0.1,0.3,0.3,0.9,0.6,1l0.1-0.2c0,0.1-0.2,0.1-0.3,0c-0.3-0.3,0-0.4,0.1-0.5l0.1,0.2c0.5-0.3-0.2-0.9-0.3-1.4l0.4,0.1l-0.4-0.4
			c0.1-0.1,0.3-0.2,0.4,0c0.1-0.4-0.2-0.3-0.1-0.6c0,0,0,0,0.1,0l-0.2-0.3c0.1,0,0.3-0.1,0.3,0.1c0.1-0.6-0.5-0.9-0.3-1.2l0,0
			c-0.4-0.8-0.3,0-0.9-0.5l0.6-0.6l-0.3,0c0-0.1-0.1-0.3,0.1-0.3c-0.3-0.2-0.1,0.1-0.4,0c0.1-0.5-0.5-1-0.1-1.3
			c-0.3,0,0,0.4-0.3,0.1c0.4-0.3-0.3-0.4-0.2-0.9c0.3,0,0.3,0.4,0.4-0.1c-0.5,0-0.2-0.7-0.5-0.9c-0.3,0.2-0.5-0.5-0.9-0.9
			c0.1-0.1-0.4-0.9-0.6-1.4l0.1,0c-0.4,0.2-0.6-0.3-0.9-0.5c0.2-0.1,0.3-0.1,0.5,0c0,0-0.2-0.3-0.2-0.3c-0.1,0-0.3,0-0.5-0.2
			l0.3-0.1c-0.3-0.3-0.9-0.5-1.2-1c-0.2,0.2-0.2,0.8-0.7,0.5c0.1-0.1,0.2-0.3,0.4-0.2c-0.1,0-0.2,0-0.3-0.2l0.3,0
			c-0.1-0.3-0.2,0-0.4-0.1c0.1-0.1,0-0.2,0.1-0.3c0.1,0,0.1,0.2,0.2,0.2c-0.2-0.2-0.3-0.5-0.3-0.7c-0.1,0.1-0.2,0.2-0.3,0.1
			c-0.4-0.3,0-0.3-0.1-0.6c-0.2,0-0.3-0.3-0.5,0c-0.1-0.1,0-0.2,0-0.3c-0.3,0-0.9-0.7-0.9-0.2l0,0.1c0,0,0,0,0,0l0,0l0,0
			c-0.8-0.3-1.3-1-2-1.4l0-0.1c-0.5-0.1-1-0.4-1.4-0.4c-0.1-0.1-0.2-0.3-0.1-0.4c-0.4-0.1-0.4,0-0.9-0.3c0.4,0-0.1-0.2,0.4,0
			c-0.4-0.2-0.5-0.4-1-0.3c0.3-0.2-0.2-0.4-0.5-0.4l0.3,0.3c-0.2-0.1-0.4-0.1-0.7-0.2l0.2-0.3c-0.9-0.6-1.9,0.2-2.4-0.6
			c-0.3,0.2,0.5,0.2,0.2,0.5c-0.4-0.1-0.8-0.7-1-0.7c-0.6-0.3-0.6,0.4-1.3,0.2c0.1,0.1,0.1,0.4-0.4,0.5c-0.4-0.1-0.5-0.5-0.2-0.6
			c0.1,0,0.2,0,0.1,0.1c0.1,0,0.3-0.1,0.2-0.2l-0.1,0.1c-0.2-0.1-0.8-0.2-0.7-0.3c-0.3,0.1-0.2,0.2,0.1,0.3
			c-0.6-0.2-0.9-0.1-1.5-0.1c0.1,0.1,0.2,0.2,0.1,0.2c-0.9-0.1-0.4,0.2-1,0.3c-0.3-0.2,0.1-0.4-0.5-0.3c-0.4-0.1-0.1-0.3,0-0.4
			c-0.5,0.2-1,0-1.4,0l0.3-0.1c-0.2,0.1-0.3,0.1-0.5,0.1l0.2,0.2c-0.2,0-0.3,0-0.3-0.1c-0.1,0.2,0.2,0.4-0.1,0.6
			c-0.2-0.1-0.6,0.2-0.8-0.1c0.7,0-0.1-0.3,0.4-0.5c-0.1,0.1-0.2,0.1-0.4,0.1c0,0,0-0.1,0.1-0.1c-0.7-0.1-0.2,0.4-0.9,0.6
			c0-0.2-0.2-0.3-0.3-0.2c0.3-0.1,0.2,0.3,0,0.4c-0.5,0-0.4,0.2-0.7,0.3l0.3,0c0,0.2-0.3,0.2-0.5,0.4c-0.1-0.1,0.2-0.2,0.1-0.2
			c-0.2,0.4-0.8,0-1.2,0.3c-0.3,0-0.1-0.3-0.4-0.3c-0.4,0.4-0.6,0-1.1,0.4c0.3,0.1,0.2,0.1,0,0.5l0.8-0.6l-0.4,0.6
			c0.3-0.1,0.5-0.4,0.6-0.4c-0.2,0.3-0.2,0.2,0,0.3c-0.5-0.2-0.6,0.5-1.1,0.5l-0.2-0.5c-0.7,0-0.9,0.8-1.7,1.1l0.3-0.1
			c0,0.3-0.4,0.3-0.6,0.5c-0.1-0.2-0.3-0.1-0.4-0.2c0.1,0.1-0.5,0.4-0.4,0.7l-0.5,0c-0.6,0.3-0.3,0.9-0.8,1.3c0-0.3-0.3-0.2-0.1-0.6
			c-0.2,0.2-0.3,0.3-0.3,0.4c-0.2,0-0.3,0.6-0.6,0.6c0,0.1,0.1,0.3-0.1,0.5c0,0-0.1-0.1-0.1-0.1c0.1,0.1-0.2,0.4,0.1,0.4
			c-0.9,0.1-1.3,1.4-2,1.6c-0.2,0.4-0.5,0.9-0.8,1.3c0-0.1-0.1-0.1,0-0.1c-0.5,0.4,0.3,0.6-0.2,1.1c-0.5,0.1,0-0.4-0.2-0.3
			c-0.6-0.2-0.4,0.7-0.9,1l0-0.1c-0.4,0.2-0.2,0.9-0.5,1.4c0,0,0,0-0.1,0c0.1,0.5,0,1.2-0.1,1.8c-0.2-0.2,0-0.3-0.3-0.3
			c-0.1,0.2,0.4,0.1,0.3,0.6c-0.2,0.1-0.4,0.4-0.7,0.4c0,0,0.1-0.5,0.1-0.5c-0.4,0.1-0.2,0.6-0.3,0.8l-0.1-0.1
			c-0.1,0.7,0.2,0.8,0,1.6l0.1-0.1c0.3,0.5-0.3,0.3-0.1,0.8L39,55.8c0.1,0.3,0.2,1,0.2,1.5C39,57,38.9,56.4,38.8,56
			c0,0.3-0.1,1,0.1,1.1c0-0.1-0.1-0.3,0-0.4c0.2,0.4,0.4,0.8,0.4,1.4c-0.8-0.1-0.3,1.4-0.8,1.8c0.2,0.5,0.2,1,0.1,1.5
			c0,0.5,0,1.1,0.1,1.6c0.5-0.5,0.1,0.3,0.7,0.1c0.1,0.3,0.1,0.3,0.1,0.4l-0.2,0.9c-0.1,0.2-0.2-0.2-0.3-0.2
			c0.1,0.6-0.2,0.3-0.2,0.7c0.2-0.1,0.4,0.1,0.4,0.5l0.1-0.5c0.5,0.7-0.3,0.8,0.3,1.5l-0.3-0.2c0.3,0.4,0.5,1.5,1.2,1.7
			c0,0.1-0.1,0.3-0.3,0.1c0.2,0.5,0.5,1,0.9,1.4c0.4,0.4,0.7,0.8,0.8,1.2l-0.2,0c0.1,0.1,0.4,0.1,0.4,0.4c-0.1,0-0.2,0-0.1,0.1
			c0.1,0.1,0.5,0.3,0.6,0.5l-0.3-0.1c0.2,0.5,0.5,0.7,0.9,0.9c0.3,0.2,0.7,0.3,1,0.6c-0.3,0.3,0.1,1,0.3,1.3l-0.1,0
			c0.4,0.4,0.9,0.7,1.3,0.9c0.4,0.2,0.9,0.4,1.4,0.6c0.1,0.4,0.6,0.8,1.1,1.1c0.5,0.3,1.1,0.7,1.5,1c-0.1-0.1,0.2-0.3,0.4-0.3
			c0.2,0.2,0.8,0,0.6,0.4l-0.1,0c0,0.4,0.5,0.6,0.9,0.7l0.3-0.5c0.4,0.5,1,0.7,1.7,0.8c0.6,0.1,1.2,0.1,1.4,0.5
			c0.3-0.1,0.6,0,0.9-0.1l-0.1,0.3c0.7,0.2,1,0.3,1.9,0.3l-0.2,0.2c0.5,0,0.7-0.8,1.1-0.8l0.1,0.4c0.9,0.1,1.8,0.3,2.6-0.1
			c0,0.1,0,0.2-0.2,0.2c0.4,0,1.6,0.1,1.4-0.5c0.1,0.4,0.9-0.1,1.3-0.3l0,0.3c0.3-0.4,0.3-0.5,0.8-0.8c0.1,0,0.2,0.2,0,0.2
			c0.5,0,0.3-0.3,0.8-0.3l-0.1,0.2c0.4-0.1,0.4-0.2,0.5-0.4c0.2-0.2,0.8-0.2,0.9,0c0-0.2,0.2-0.4,0.4-0.5c0.1,0.1,0,0.2,0,0.2
			c0.8-0.1,0.9-0.7,1.4-0.7c0,0.1,0.1,0.1,0.2,0.1c-0.5,0.2-1,0.4-0.9,0.4c0.1,0.2,0.6,0.1,0.4,0.6c0.3-0.3,0.7-1,1.2-1.1
			c0,0,0.1,0,0.1,0.1l0,0c0.1,0,0.2-0.1,0.2-0.2c0.1,0,0.2-0.1,0.4-0.1c0.2,0.2,0.5-0.2,0.7-0.3c-0.2-0.2,0.1-0.4-0.2-0.4
			c0,0,0,0.1-0.1,0.1c0,0-0.1,0.1-0.1,0.1l0,0c-0.1,0.1-0.3,0.2-0.5,0.3c0.1-0.2,0.2-0.4,0.5-0.4c0-0.2,0-0.4,0-0.6
			c0.5,0.2,1.1,0,1.3,0.1c0.5-0.6,1.3-1.1,1.3-1.8c0.1-0.2,0.3,0,0.4,0c-0.1,0.1-0.2,0.2-0.2,0.3c0.2-0.4,0.9-0.9,0.7-1.2
			c0.5-0.2,0,0.4,0.5-0.1l0,0.2c0.7-0.3,0.9-0.9,1.1-1.5c0.2-0.6,0.4-1.2,1.2-1.6C76.5,71,76.5,71,76.4,71c1.3-1.3,1.6-3.2,2.6-4.6
			c0.3-0.4,0.1-0.6,0-0.9l0.3,0l-0.2-0.6c0-0.4,0.2-0.6,0.5-0.9c0.2-0.3,0.5-0.6,0.3-1.1l-0.2,0.1c0.1-0.3,0-1,0.3-1
			c0,0-0.2-0.1-0.1-0.2l0.2,0c0,0,0-0.2-0.1-0.4c-0.1-0.2-0.1-0.4-0.1-0.4c0.1-0.6,0.6,0.1,0.7-0.8c0-0.4-0.4-1-0.5-0.9
			c0,0.1-0.1,0.3-0.3,0.4l-0.1-0.3c-0.5-0.1-0.9-0.3-1.3,0.4l0.3,0.5l-0.2,0.1l0-0.4c-0.2,0.2,0,0.4,0.1,0.6c-0.1,0-0.2,0.1-0.3,0.2
			l0.4,0.5c-0.2,0-0.3-0.2-0.5,0.1c0.2,0.2,0.4-0.2,0.5,0.2c-0.2,0.2-0.4,0.1-0.3,0.4c-0.1,0-0.2,0-0.2-0.2c0.1,0.3,0,0.6,0.2,0.8
			c-0.3,0.2-0.1,0.8-0.5,0.7c0.1,0.1,0.2,0.5,0.2,0.7c-0.4-0.5-0.2,0.8-0.8,0.5c0.4,0.4-0.2,1.1-0.1,1.7c0,0-0.1-0.1,0-0.2
			c-0.1,0.3-0.3,0.3-0.5,0.4c0.3,0.2,0.2,0.6,0.3,1c-0.5,0.2-0.3-0.4-0.7-0.4c0.3,0.1,0,0.7,0.3,0.7c-0.3,0.2-0.2,0.2-0.6,0.2
			c0.4,0.3,0,0.3,0.1,0.6c-0.4,0.2-0.5-0.1-0.6,0.3C75.4,69,75.4,68.6,75.4,68.6z M68.4,76.4L68.4,76.4c0.1-0.1,0.1-0.1,0.2-0.1
			C68.5,76.3,68.5,76.4,68.4,76.4z M67.5,76.8c0.1,0,0.2-0.1,0.4-0.2c0.1,0.1,0.1,0.2,0,0.2C67.9,76.8,67.7,76.8,67.5,76.8z
			 M70.2,77.6c-0.1,0.1-0.2,0.1-0.2,0.1c0.1,0,0.1-0.1,0.2-0.2l0,0C70.2,77.5,70.3,77.6,70.2,77.6z"/>
		<path fill="#FFFFFF" d="M70.3,77.1C70.3,77.1,70.3,77.1,70.3,77.1C70.3,77.1,70.3,77.1,70.3,77.1L70.3,77.1L70.3,77.1z"/>
		<path fill="#FFFFFF" d="M71.5,42.7L71.5,42.7C71.5,42.7,71.5,42.7,71.5,42.7C71.5,42.7,71.5,42.7,71.5,42.7z"/>
		<polygon fill="#FFFFFF" points="55.3,77.6 55.3,77.6 55.4,77.6 		"/>
		<path fill="#FFFFFF" d="M74.6,47C74.6,47,74.6,47,74.6,47C74.6,47,74.6,47,74.6,47z"/>
		<path fill="#FFFFFF" d="M75.9,48.8l0.1,0.3C75.9,49,75.9,48.9,75.9,48.8z"/>
		<path fill="#FFFFFF" d="M76.6,50.3c0.1,0,0.1,0,0.1,0l0,0L76.6,50.3z"/>
		<path fill="#FFFFFF" d="M54,41.1C53.9,41.1,53.9,41.1,54,41.1C53.8,41.2,53.9,41.2,54,41.1z"/>
		<path fill="#FFFFFF" d="M61.8,39.8c-0.1,0-0.2,0.1-0.3,0.1C61.6,39.9,61.7,39.9,61.8,39.8z"/>
		<polygon fill="#FFFFFF" points="46.7,45.7 46.7,45.7 46.7,45.8 		"/>
		<path fill="#FFFFFF" d="M61.1,39.9c0.1,0.1,0.3,0.1,0.4,0C61.4,39.8,61.3,39.8,61.1,39.9z"/>
		<path fill="#FFFFFF" d="M78.6,57.2L78.6,57.2C78.6,57.3,78.6,57.3,78.6,57.2L78.6,57.2z"/>
		<path fill="#FFFFFF" d="M78.6,57.3L78.6,57.3C78.7,57.4,78.7,57.3,78.6,57.3z"/>
		<path fill="#FFFFFF" d="M78.7,57.6l-0.1-0.2C78.7,57.5,78.7,57.6,78.7,57.6z"/>
		<path fill="#FFFFFF" d="M78.3,55l-0.1,0C78.2,55,78.3,55,78.3,55z"/>
		<path fill="#FFFFFF" d="M78.1,54.4c0,0.2-0.1,0.4,0,0.6l0.1,0C78.1,55,78.3,54.5,78.1,54.4z"/>
		<path fill="#FFFFFF" d="M78.4,51.2c0,0,0.1,0.6,0.1,0.6c0.1-0.1,0.2-0.3,0.3-0.1C78.8,50.9,78.6,52,78.4,51.2z"/>
		<path fill="#FFFFFF" d="M77.7,49.5c0.2,0.3,0.1-0.1,0.2-0.1C77.7,49.2,77.7,49.2,77.7,49.5z"/>
		<path fill="#FFFFFF" d="M67.9,40.4l0.1-0.2C67.8,40.1,68,40.3,67.9,40.4z"/>
		<path fill="#FFFFFF" d="M65.1,40.7c0,0,0.2,0.2,0.2,0.2l0.2-0.2C65.5,40.8,65.1,40.7,65.1,40.7z"/>
		<polygon fill="#FFFFFF" points="64.1,38.6 64.2,38.6 63.8,38.6 		"/>
		<path fill="#FFFFFF" d="M43.2,45.9l0.3,0.1C43.6,45.9,43.3,45.6,43.2,45.9z"/>
		<path fill="#FFFFFF" d="M39.2,54.9C39,55,38.8,55.2,39,55.4C39,55.2,39.2,55,39.2,54.9z"/>
		<polygon fill="#FFFFFF" points="52.1,79.2 51.9,79.3 52.3,79.3 		"/>
	</g>
	<g>
		<path fill="#FFFFFF" d="M71.3,65.8c0.1,0,0.2-0.2,0.2-0.2l-0.3,0.2L71.3,65.8z"/>
		<path fill="#FFFFFF" d="M71.6,65.1c-0.2,0.1-0.4,0.2-0.6,0.4c0.3-0.2,0.2-0.1,0.5-0.2c0.1,0,0,0.1-0.1,0.2c0.1,0,0,0.1,0.2,0
			c0.1-0.2,0.1-0.3-0.1-0.2C71.4,65.2,71.5,65.1,71.6,65.1z"/>
		<path fill="#FFFFFF" d="M68.3,60.4L68.3,60.4C68.3,60.4,68.3,60.4,68.3,60.4z"/>
		<path fill="#FFFFFF" d="M66.1,57.6C66.2,57.6,66.2,57.6,66.1,57.6C66.2,57.5,66.2,57.5,66.1,57.6z"/>
		<path fill="#FFFFFF" d="M66,56.9C66,56.9,66,56.9,66,56.9C66.1,56.9,66.1,56.8,66,56.9z"/>
		<path fill="#FFFFFF" d="M68.3,60.4l0-0.1C68.2,60.3,68.3,60.3,68.3,60.4z"/>
		<path fill="#FFFFFF" d="M70.4,65C70.5,65,70.5,65,70.4,65C70.5,65,70.5,65,70.4,65L70.4,65z"/>
		<path fill="#FFFFFF" d="M69.5,61.4L69.5,61.4c0.1,0,0.1,0,0.1,0L69.5,61.4z"/>
		<path fill="#FFFFFF" d="M70.3,62.3c0,0-0.2,0.1-0.3,0.2c0.1-0.1,0.2-0.1,0.2-0.1C70.2,62.4,70.2,62.3,70.3,62.3z"/>
		<path fill="#FFFFFF" d="M71.1,64.1L71.1,64.1C71.2,64.1,71.2,64.1,71.1,64.1z"/>
		<path fill="#FFFFFF" d="M69,60.7C69,60.7,69,60.7,69,60.7C69,60.7,69,60.7,69,60.7z"/>
		<path fill="#FFFFFF" d="M49.4,65.4C49.4,65.4,49.4,65.4,49.4,65.4C49.4,65.4,49.4,65.4,49.4,65.4z"/>
		<polygon fill="#FFFFFF" points="47.5,65.8 47.5,65.8 47.4,65.7 		"/>
		<path fill="#FFFFFF" d="M65.6,55.8L65.6,55.8C65.6,55.8,65.6,55.8,65.6,55.8z"/>
		<path fill="#FFFFFF" d="M57.6,48.9c0.2,0.2,0,0.6,0.2,0.7C57.8,49.6,57.8,48.9,57.6,48.9z"/>
		<path fill="#FFFFFF" d="M70.4,64.9C70.4,64.9,70.4,64.9,70.4,64.9C70.4,64.9,70.4,64.9,70.4,64.9z"/>
		<path fill="#FFFFFF" d="M57.9,49.7L57.9,49.7L57.9,49.7C57.9,49.7,57.9,49.7,57.9,49.7z"/>
		<path fill="#FFFFFF" d="M63.8,53.9C63.8,54,63.8,54,63.8,53.9C63.8,54,63.8,54,63.8,53.9z"/>
		<path fill="#FFFFFF" d="M64.8,55.6L64.8,55.6C64.7,55.6,64.7,55.6,64.8,55.6z"/>
		<path fill="#FFFFFF" d="M62.9,53.4C62.9,53.4,62.9,53.4,62.9,53.4C62.9,53.4,62.9,53.4,62.9,53.4C62.9,53.4,62.9,53.4,62.9,53.4z"
			/>
		<path fill="#FFFFFF" d="M62.2,52.7C62.2,52.7,62.2,52.7,62.2,52.7L62.2,52.7L62.2,52.7z"/>
		<path fill="#FFFFFF" d="M51.1,62.8c-0.1,0-0.2-0.1-0.2-0.1C51,62.8,51,62.9,51.1,62.8z"/>
		<path fill="#FFFFFF" d="M70.6,64.9c-0.1,0-0.1,0.1-0.1,0.1L70.6,64.9C70.5,64.9,70.5,64.9,70.6,64.9z"/>
		<path fill="#FFFFFF" d="M61.2,54.8l-0.1-0.2C61.1,54.7,61.1,54.8,61.2,54.8z"/>
		<path fill="#FFFFFF" d="M55.2,56.7L55.2,56.7C55.2,56.7,55.2,56.7,55.2,56.7z"/>
		<path fill="#FFFFFF" d="M60.8,54.3c0.1-0.1,0.1-0.1,0.1-0.2c0,0,0,0-0.1,0L60.8,54.3z"/>
		<path fill="#FFFFFF" d="M50.8,62.7L50.8,62.7L50.8,62.7z"/>
		<path fill="#FFFFFF" d="M50.8,63.9c0.1-0.1-0.3-0.3-0.4-0.4c0-0.2,0.3,0.1,0.5,0.1c0-0.2-0.2-0.4-0.2-0.5c0.1,0,0.1,0,0.1,0.1
			c-0.2-0.3,0.2-0.3,0-0.6c0,0,0.1,0,0.1,0c-0.2-0.1-0.3-0.2-0.4-0.3c0-0.1-0.1-0.2,0.1-0.1c0,0,0,0.1,0.1,0.1l0-0.1
			c0.3,0.1,0,0.1,0.3,0.3c0-0.2-0.2-0.5,0-0.5c0.3,0.2,0,0.3,0.3,0.3l-0.2,0.1c0.5,0.2-0.1,0.1,0.5,0.3c0.2-0.1,0-0.3,0.2-0.4
			c-0.1-0.1-0.2-0.1-0.4-0.3c-0.1-0.5,0.8,0.3,0.6-0.2c-0.2-0.2-0.5-0.4-0.2-0.4l0.3,0.3c0.2-0.2-0.4-0.4,0-0.5
			c0.1,0.1,0,0.2,0.1,0.2c0.3,0-0.1-0.2-0.1-0.3l0.3,0.2c0.1-0.2,0-0.6,0.1-0.8c0.1,0.1,0.1,0.2,0.3,0.2c0-0.4,0.4-0.5,0.8-0.7
			L53,59.8c0,0,0.1,0,0.2,0.1c0.2,0-0.2-0.1-0.2-0.2c0-0.1,0.2,0,0.2,0.1c-0.1-0.3-0.1-0.8,0.3-0.8l0,0.1c0.2-0.1-0.4-0.5-0.1-0.5
			l0,0.1c0.3-0.2,0.3-0.7,0.9-0.7c-0.3-0.3,0.4-0.2-0.1-0.6c0.4,0,0.4,0.1,0.7,0c0.1-0.1-0.2-0.3-0.2-0.4L55,57l-0.2-0.3l0.3,0.1
			l0-0.1c0,0-0.2,0-0.2-0.1c0-0.2,0.4-0.2,0.5-0.1l0-0.4c0.1,0.1,0.1,0.1,0.1,0.2c-0.2-0.3,0.3,0.2,0.1-0.1c-0.1,0-0.1-0.1-0.2-0.2
			c0.2,0,0.3-0.1,0.3-0.3l0.2,0.1c0.2-0.2,0.2-0.5,0.4-0.7c-0.1,0-0.4-0.2-0.4-0.3l0.3,0.2c-0.1-0.2-0.2,0-0.3-0.2
			c0.1-0.1,0.3,0.1,0.4,0.3l0-0.2c0.1,0,0.1,0.1,0.2,0.2c-0.1-0.2,0.4,0,0.2-0.3l0.1,0c0.2-0.2,0.1-0.4,0.3-0.6
			c-0.2-0.2-0.1-0.2-0.3-0.4c0.2-0.1,0.5-0.1,0.6-0.3c0-0.2-0.2-0.2-0.3-0.3c0.2,0.1,0.3-0.1,0.4,0.1c0.1-0.2,0.1-0.3,0.1-0.7
			c-0.1,0-0.2,0-0.2-0.1c0-0.1,0.2,0,0.3,0l0,0c-0.1-0.3,0.2-0.3,0.5-0.4c0.2-0.1,0.5-0.2,0.3-0.3l0,0c0,0-0.2-0.3-0.1-0.3
			c0.1,0,0.1,0.2,0.2,0.3c-0.1-0.2-0.1-0.2,0-0.2c0,0,0.1,0,0-0.2c0.2,0.4,0.2,0.4,0.2,0.3c0-0.1,0-0.3,0,0c0,0,0,0.1,0,0.1l0-0.3
			c0-0.3,0,0.2,0,0.2c0-0.2,0-0.2,0-0.4c0.1-0.1,0.1,0.1,0.1,0.3c0,0.2-0.1,0.4-0.1,0.4c0,0,0.7-0.6,0.5-0.1L59,52.3
			c0.6,0.1,0.6,0.7,1.1,0.8c-0.1,0-0.2,0.1-0.2,0.1c-0.1,0.2,0.2,0.3,0.4,0.1c0,0.1-0.1,0.1-0.2,0.2c0,0.2,0.4,0,0.2,0.2
			c0,0-0.1,0-0.1,0c0.1,0,0.2,0.2,0.3,0c0,0.2,0.3,0.2,0.3,0.4c0.3-0.1,0.1,0.3,0.4,0.1c-0.4,0.3-0.1,0.5,0.1,0.4
			c-0.1,0.1-0.1,0.2-0.2,0.3c0.1,0.1,0.2,0.1,0.4,0c-0.3,0.5,0.6,0.1,0.2,0.6c0.4,0.1,0.8,0.3,1,0.4c-0.4,0.3-0.3-0.2-0.6,0.1
			c0.3,0.1,0.7,0,0.9,0.3c0,0.1-0.2,0.1-0.3,0.1c0.3,0.1,0.3,0.5,0.7,0.5c0,0-0.1,0-0.1,0c0,0,0,0.1,0.2,0l-0.1,0
			c0.2-0.3,0.6-0.2,0.7-0.3c-0.5,0.3,0.1,0.3-0.6,0.7c0.1,0,0.2,0,0.3-0.1c0,0.1,0,0.1-0.2,0.2c0.2,0.1,0.3-0.1,0.4,0
			c-0.1,0.1-0.1,0.1-0.2,0.1c0.2-0.1,0.4-0.1,0.4,0.1c-0.1,0-0.1,0.1-0.1,0.1c0.2,0.2,0.7,0,0.7,0.3c-0.4,0.2,0,0.2-0.3,0.4l0.2,0
			l0.1-0.2c0.1,0.1,0.4,0,0.3,0.2l-0.2,0l0.2,0.1l0-0.2c0.2,0,0.4-0.3,0.4-0.1c-0.1,0,0.1,0.1,0,0.3l0,0c0.1,0,0.3-0.1,0.3,0.1
			c-0.1,0.1-0.3,0.3-0.4,0.3c0.3-0.2,0.3,0.2,0.6,0c-0.1,0-0.2,0.2-0.3,0.2L66,59c0,0.1,0,0.1-0.2,0.2c0.1,0.2,0.3-0.3,0.3-0.1
			c0,0-0.1,0-0.1,0c0.1,0.2,0.4,0.2,0.4,0.4c-0.3,0.3-0.2-0.1-0.4,0.2c0.2,0.2,0.7,0.2,0.8,0.4l0-0.1c0.4-0.3-0.1,0.3,0.2,0.3
			c-0.1,0-0.3,0.2-0.2,0.1c0.1,0.2,0.3,0.2,0.7,0.3l-0.1,0.1c0,0.2,0.1,0.3,0.2,0.4c0.1-0.1,0.2,0,0.3-0.2c-0.4,0.8,0.8,0.3,0.5,0.9
			c0,0-0.2,0-0.1,0l0.3,0.1c0.2-0.2,0.1-0.1,0.2-0.3c0.1-0.1,0.3-0.1,0.3,0c-0.2,0-0.3,0.2-0.3,0.4c0-0.1,0.1-0.1,0.2-0.1
			c-0.2,0.4,0.4-0.3,0.3,0.1L69,62.3c0.1,0,0.3,0,0.3,0.1c-0.2,0.2-0.1,0-0.3,0.2c0.1,0.1,0.5-0.2,0.4,0.1c-0.1,0-0.1,0-0.2,0
			c-0.2,0.3-0.1,0.2-0.1,0.3l0,0l0,0.2l0-0.1c0.6-0.3,0.3,0.1,0.8,0c-0.5,0.1-0.2,0.1-0.5,0.3c0,0.1-0.1,0.2-0.1,0.2
			c0.2-0.1-0.1,0.2,0.3,0.1c-0.1,0.1,0.1,0.1-0.1,0.2c0.1,0,0.1-0.1,0.2-0.2c0.4-0.1,0,0.6,0.5,0.5c0.3,0.1,0.6-0.1,0.8-0.1
			c-0.1,0.2-0.3,0.2-0.3,0.2c0,0.2,0,0.2,0.2,0.2c-0.1,0-0.1,0.1-0.2,0.2c0.1,0,0.3-0.2,0.3,0c-0.1,0.1-0.2,0.1-0.4,0.2
			c0.1,0,0.3,0,0.5,0c-0.1,0.1-0.2,0.1-0.3,0.2c0.1,0,0.3,0.1,0.5,0l0-0.1c0,0-0.2,0.2-0.2,0.2c-0.2,0.1,0-0.2,0-0.2l0.1,0
			c0.4-0.4-0.3-0.2-0.3-0.3l0.4-0.2l-0.4,0.1c0.1-0.1,0.2-0.3,0.3-0.2c0.1-0.2-0.2,0-0.1-0.2c0,0,0,0,0.1,0l-0.2,0
			c0.1,0,0.2-0.2,0.2-0.1c0.1-0.3-0.4,0-0.2-0.3l0,0c-0.3-0.1-0.3,0.2-0.7,0.3l0.5-0.6l-0.3,0.2c0,0,0-0.1,0.1-0.2
			c-0.2,0.1-0.1,0.1-0.3,0.2c0.1-0.3-0.3-0.2,0-0.5c-0.2,0.1-0.1,0.2-0.3,0.2c0.4-0.4-0.2-0.1-0.1-0.3c0.2-0.1,0.2,0,0.3-0.2
			c-0.4,0.2-0.1-0.2-0.2-0.3c-0.3,0.2-0.3-0.1-0.5-0.1c0.1-0.1,0-0.4,0-0.6l0,0c-0.3,0.2-0.4,0-0.5,0c0.2-0.1,0.3-0.2,0.4-0.2
			l-0.1-0.1c-0.1,0.1-0.2,0.1-0.3,0l0.2-0.2c-0.1-0.1-0.4,0-0.4-0.3c-0.2,0.2-0.4,0.6-0.7,0.5c0.1-0.1,0.3-0.3,0.4-0.2
			c0,0-0.1,0-0.1,0l0.2-0.1c0-0.1-0.2,0.1-0.2,0c0.2-0.1,0.1-0.1,0.2-0.2c0,0,0,0.1,0.1,0.1c0-0.1,0-0.2,0.1-0.3
			c-0.1,0.1-0.2,0.2-0.3,0.1c-0.1-0.1,0.1-0.2,0.2-0.3c-0.1,0.1-0.1-0.1-0.3,0.1c0,0,0.1-0.1,0.1-0.2c-0.1,0-0.3-0.2-0.4,0l0,0
			c0,0,0,0,0,0l0,0l0,0c-0.4,0-0.2-0.5-0.5-0.6l0.1-0.1c-0.2,0-0.3-0.2-0.5-0.2c0,0,0.1-0.2,0.2-0.3c-0.1,0-0.2,0-0.2-0.2
			c0.2,0,0.1-0.1,0.2,0c0-0.2,0.1-0.3-0.2-0.2c0.2-0.1,0.2-0.3,0.1-0.3l-0.1,0.2c-0.1,0-0.1-0.1-0.1-0.2l0.3-0.2
			c0.1-0.5-0.9,0-0.5-0.6c-0.2,0.1,0,0.2-0.3,0.4c-0.1-0.1,0.2-0.6,0.2-0.6c0-0.3-0.5,0.2-0.5-0.1c-0.1,0.1-0.3,0.3-0.5,0.3
			c-0.1-0.1,0.3-0.4,0.4-0.4c0,0,0,0.1,0,0.1c0.1,0,0.1,0,0.2-0.1l-0.1,0.1c0-0.1-0.1-0.3,0.1-0.4c-0.2,0-0.2,0.1-0.2,0.2
			c0-0.2-0.2-0.2-0.2-0.4c0,0.1-0.1,0.2-0.1,0.2c-0.1-0.3-0.2,0.1-0.4-0.1c0.1-0.2,0.4-0.2,0.1-0.3c0-0.2,0.2-0.2,0.3-0.2
			c-0.3,0-0.1-0.3-0.1-0.4l0.1,0c-0.1,0-0.1,0-0.1-0.1l-0.1,0.2c0-0.1,0-0.1,0-0.2c-0.2,0.1-0.3,0.3-0.5,0.3c0-0.1-0.2-0.1,0-0.3
			c0.1,0.2,0.2-0.2,0.4-0.1c-0.1,0-0.1,0-0.1-0.1c0,0,0.1,0,0.1,0c0.1-0.3-0.3,0.2-0.5,0c0.2-0.1,0.2-0.3,0.2-0.3
			c0.1,0.1-0.2,0.2-0.4,0.2c0-0.2-0.2,0-0.2-0.1l0,0.1c-0.2,0.1-0.2,0-0.3,0c0.1-0.1,0.1,0,0.2-0.1c-0.3,0.1,0.1-0.4-0.2-0.4
			c0-0.1,0.3-0.2,0.3-0.3c-0.3,0,0.1-0.3-0.2-0.3c-0.2,0.2-0.1,0.2-0.4,0.2l0.3,0.1l-0.4,0.1c0.1,0.1,0.2,0,0.2,0.1
			c-0.2,0.1-0.2,0-0.3,0.2c0.2-0.3-0.3,0-0.2-0.3l0.5-0.4c0.1-0.3-0.5-0.1-0.5-0.4l0,0.1c-0.2,0.1-0.1-0.1-0.3-0.1
			c0.2-0.1,0.2-0.2,0.2-0.3c-0.1,0.1-0.1-0.2-0.4,0.1l0.1-0.3c-0.1-0.2-0.6,0.2-0.7,0c0.2-0.1,0.3-0.3,0.5-0.2c0-0.1-0.1-0.1-0.2,0
			c0.1-0.1-0.3,0-0.2-0.1c-0.1,0-0.2,0.2-0.3,0.1c0,0,0.1-0.1,0.1-0.1c-0.1,0.1-0.2,0-0.3,0.2c0.3-0.6-0.4-0.4-0.1-0.9
			c-0.1-0.1-0.3-0.2-0.4-0.3c0.1,0,0.1-0.1,0.1,0c0-0.3-0.5,0.3-0.5,0c0.2-0.3,0.2,0,0.3-0.2c0.5-0.4-0.2-0.1,0-0.5l0.1,0
			c0.1-0.2-0.4,0-0.4-0.2c0,0,0,0,0.1-0.1c-0.3,0.1-0.6,0-0.7-0.1c0.2-0.1,0.2,0,0.3-0.2c-0.1,0-0.3,0.3-0.5,0.2
			c0.1-0.1,0.1-0.3,0.3-0.5l0.1,0.1c0.2-0.3-0.1-0.1-0.1-0.2l0.1-0.1c-0.1-0.1-0.2-0.1-0.4-0.1c-0.1,0-0.2,0-0.3-0.1l-0.1,0.1
			c-0.3,0.2,0-0.3-0.2-0.2L60,50c-0.1,0-0.5,0.1-0.6,0c0.2-0.3,0.4-0.2,0.6-0.2c-0.1-0.1-0.3-0.3-0.4-0.2c0,0,0.1-0.1,0.1,0
			c-0.2,0.2-0.4,0.3-0.5,0.1c0.1-0.5,0-0.7-0.1-0.8c-0.1-0.2-0.3-0.4-0.3-0.9c-0.1,0-0.2,0-0.3-0.1c-0.2,0.3-0.5,0.3-0.7,0.7
			c0.3,0.6-0.1,0.2,0.1,0.9c0,0.1-0.1,0.2-0.1,0.1c0,0-0.4-0.1-0.4-0.1c-0.1-0.1,0-0.2-0.1-0.4C57.2,49.4,57.2,49,57,49
			c0.1,0.2,0.1,0.4-0.1,0.5c0,0,0.3,0,0.3,0.1c0,0.6-0.5-0.1-0.6,0.5l0-0.3c-0.1,0.3-0.6,0.8-0.2,1.1c-0.1,0-0.2-0.1-0.2-0.2
			c-0.2,0.2,0,0.9-0.3,0.9l-0.1-0.1c0,0.1,0.2,0.2,0,0.2c0,0-0.1-0.1-0.1-0.1c0,0.1,0.1,0.3,0,0.3l-0.1-0.1c-0.3,0.1,0.1,0.6,0,0.9
			c-0.4-0.2-0.6-0.1-0.7-0.1l0,0c-0.2,0.3,0,0.7-0.1,1.1c-0.5-0.1-0.6,0.5-1,0.6c0.1,0,0.3,0.2,0.3,0.3c-0.1,0,0.1,0.3-0.2,0.1l0,0
			c-0.4-0.2-0.4,0-0.4,0.1l0.4,0.3c-0.8-0.2-0.2,0.9-0.9,0.6c0.1,0.1,0,0.2,0.1,0.4l-0.2-0.2c-0.2,0.1-0.3,0.2-0.4,0.5l-0.1-0.2
			c-0.1,0.1,0.6,0.6,0.5,0.7l-0.4-0.2c-0.1,0.2-0.6,0.2-0.4,0.7c0,0-0.1-0.1-0.1-0.2c-0.1,0.1-0.5,0.2,0,0.5
			c-0.3-0.2-0.2,0.2-0.1,0.4L51.5,58c0.2,0.3,0.3,0.4,0.3,0.6c-0.1,0-0.2-0.1-0.1-0.1c-0.2,0,0.2,0.2-0.1,0.3l-0.1-0.1
			c-0.1,0.1,0,0.1,0.1,0.3c0,0.1-0.2,0.2-0.4,0c0.1,0.1,0.2,0.3,0.1,0.3c-0.1,0-0.1-0.1-0.1-0.1c-0.3,0.1,0.1,0.5-0.2,0.4
			c-0.1,0-0.1-0.1-0.2-0.1c0.1-0.1,0.2-0.3,0.2-0.2c-0.2-0.1-0.3,0-0.6-0.3c0.1,0.2,0.3,0.6,0.2,0.7c0,0,0,0-0.1,0l0,0
			c0,0,0,0.1,0,0.1c-0.1,0-0.1,0-0.1,0.1c-0.2-0.1-0.2,0.1-0.2,0.1c0.2,0.2,0.1,0.2,0.4,0.3c0,0,0,0,0-0.1c0,0,0,0,0,0l0,0
			c0,0,0-0.1,0.1-0.2c0.1,0.1,0.2,0.2,0,0.2c0.1,0.1,0.3,0.3,0.3,0.3c-0.4-0.1-0.7-0.1-0.9-0.2c0,0.3-0.2,0.5,0.2,0.9
			c0,0.1-0.2,0-0.2-0.1c0-0.1,0-0.1,0-0.1c0,0.2-0.2,0.3,0.1,0.6c-0.2,0-0.2-0.3-0.3-0.1l-0.1-0.1c-0.7,0,0.4,1.1-0.5,1.1
			c0.1,0,0.1,0,0.1,0c-0.6,0.3-0.4,1.1-1.1,1.2c-0.2,0.1,0,0.2,0.1,0.4L48,63.8l0.2,0.3c0.1,0.3-0.8-0.1-0.6,0.4l0.2,0.1
			c-0.1,0.1-0.1,0.3-0.3,0.2c0,0,0.2,0.1,0,0.1l-0.1-0.1l0.1,0.4c-0.2,0.1-0.5-0.4-0.7-0.2c0,0.1,0.2,0.5,0.3,0.5c0,0,0.1,0,0.3,0.1
			l0,0.1c0.4,0.3,0.7,0.6,1.1,0.6l-0.1-0.3l0.2,0.1l-0.1,0.1c0.2,0.1,0.1-0.1,0-0.2c0.1,0.1,0.2,0.1,0.2,0.1l-0.3-0.4
			c0.2,0.1,0.3,0.3,0.4,0.2c-0.1-0.2-0.4-0.2-0.4-0.3c0.2,0.1,0.3,0.2,0.3,0c0.1,0.1,0.2,0.1,0.2,0.2c-0.1-0.1,0.1-0.2-0.1-0.4
			c0.3,0.1,0.1-0.3,0.5,0c-0.1-0.1-0.2-0.3-0.2-0.4c0.4,0.4,0.2-0.2,0.6,0.1c-0.3-0.4,0-0.4-0.1-0.7c0,0,0.1,0.1,0,0.1
			c0.1-0.1,0.2,0,0.3,0c-0.3-0.2-0.3-0.4-0.5-0.6c0.4,0.1,0.3,0.3,0.7,0.5c-0.3-0.2-0.1-0.4-0.4-0.5c0.2,0.1,0.1,0,0.4,0.1
			c-0.4-0.3,0-0.1-0.2-0.4c0.3,0,0.4,0.2,0.4,0C50.7,63.7,50.8,63.9,50.8,63.9z M52.1,60.5L52.1,60.5C52.1,60.5,52.1,60.5,52.1,60.5
			C52.1,60.5,52.1,60.5,52.1,60.5z M52.3,60.2c0,0-0.1,0.1-0.1,0.1c-0.1,0-0.2-0.1-0.1-0.1C52.1,60.2,52.2,60.2,52.3,60.2z
			 M50.3,59.7c0-0.1,0,0,0.1,0C50.4,59.7,50.4,59.7,50.3,59.7l0.1,0.1C50.4,59.7,50.3,59.7,50.3,59.7z"/>
		<path fill="#FFFFFF" d="M50.6,59.9C50.6,59.9,50.6,59.9,50.6,59.9C50.6,60,50.6,60,50.6,59.9L50.6,59.9L50.6,59.9z"/>
		<path fill="#FFFFFF" d="M68.3,60.4L68.3,60.4C68.3,60.4,68.3,60.5,68.3,60.4C68.3,60.5,68.3,60.5,68.3,60.4z"/>
		<polygon fill="#FFFFFF" points="55.1,57 55,57 55.1,57.1 		"/>
		<path fill="#FFFFFF" d="M68.6,62.4C68.6,62.4,68.6,62.4,68.6,62.4C68.6,62.4,68.6,62.4,68.6,62.4z"/>
		<path fill="#FFFFFF" d="M69,62.9l0,0.1C69,63,69,63,69,62.9z"/>
		<path fill="#FFFFFF" d="M69.3,63.5C69.3,63.4,69.4,63.4,69.3,63.5l0.1-0.1L69.3,63.5z"/>
		<path fill="#FFFFFF" d="M63.3,56.9C63.3,56.9,63.3,56.9,63.3,56.9C63.2,56.9,63.3,56.9,63.3,56.9z"/>
		<path fill="#FFFFFF" d="M65.5,58.5c-0.1,0-0.1,0-0.2,0C65.4,58.6,65.4,58.6,65.5,58.5z"/>
		<polygon fill="#FFFFFF" points="61.2,54.8 61.2,54.8 61.2,54.8 		"/>
		<path fill="#FFFFFF" d="M65.3,58.4C65.3,58.5,65.3,58.5,65.3,58.4C65.4,58.5,65.4,58.4,65.3,58.4z"/>
		<path fill="#FFFFFF" d="M70.7,65.4L70.7,65.4C70.8,65.4,70.8,65.4,70.7,65.4L70.7,65.4z"/>
		<path fill="#FFFFFF" d="M70.8,65.4L70.8,65.4C70.8,65.4,70.8,65.4,70.8,65.4z"/>
		<path fill="#FFFFFF" d="M70.9,65.4L70.9,65.4C70.8,65.4,70.9,65.4,70.9,65.4z"/>
		<path fill="#FFFFFF" d="M70.4,64.7L70.4,64.7C70.3,64.8,70.3,64.8,70.4,64.7z"/>
		<path fill="#FFFFFF" d="M70.2,64.6c0,0.1-0.1,0.2,0,0.3l0.1,0C70.1,64.9,70.4,64.5,70.2,64.6z"/>
		<path fill="#FFFFFF" d="M70.6,63.1l0.1,0.2c0.1-0.1,0.1-0.2,0.2-0.2C70.9,62.7,70.7,63.3,70.6,63.1z"/>
		<path fill="#FFFFFF" d="M70.3,62.5c0.1,0,0.1-0.1,0.2-0.1C70.4,62.4,70.3,62.4,70.3,62.5z"/>
		<path fill="#FFFFFF" d="M67.6,59.3l0.2-0.2C67.7,59.1,67.7,59.2,67.6,59.3z"/>
		<polygon fill="#FFFFFF" points="66.1,59.5 66,59.7 66.2,59.6 		"/>
		<polygon fill="#FFFFFF" points="67.2,58 67.2,58 67.1,58 		"/>
		<path fill="#FFFFFF" d="M62.5,52.6l-0.2,0.2C62.4,52.9,62.7,52.6,62.5,52.6z"/>
		<path fill="#FFFFFF" d="M60.2,50.4c0.1-0.2,0-0.4-0.1-0.3C60.2,50.2,60.2,50.4,60.2,50.4z"/>
		<polygon fill="#FFFFFF" points="53.5,54.9 53.4,54.8 53.4,55 		"/>
	</g>
</g>
</svg>
