<?xml version="1.0" encoding="utf-8"?>
<!-- Generator: Adobe Illustrator 19.1.0, SVG Export Plug-In . SVG Version: 6.00 Build 0)  -->
<svg version="1.1" id="Layer_1" xmlns="http://www.w3.org/2000/svg" xmlns:xlink="http://www.w3.org/1999/xlink" x="0px" y="0px"
	 viewBox="0 0 180.8 68.3" enable-background="new 0 0 180.8 68.3" xml:space="preserve">
<g>
	<g>
		<rect x="24.2" y="11.8" fill="#FBC36C" width="140.3" height="44.8"/>
		<g>
			<path fill="#FCCB7F" d="M161.2,56.6c0.4,0.2,1.4,0.1,1.2-0.5l-1.7-0.4L161.2,56.6z"/>
			<path fill="#FCCB7F" d="M164.2,53c-0.8-0.6-2.2-1.4-3.7-1c1.6,0.6,0.9,0.8,2.8,1.5c0.2,0.5-0.5,0.9-1.1,0.8
				c0.4,0.2-0.4,0.8,0.7,1.1c1.3-0.7,1.3-1.6,0.3-2.5C163.5,52.7,163.9,52.9,164.2,53z"/>
			<path fill="#FCCB7F" d="M153.2,9.5l0.3,0.2C153.4,9.6,153.3,9.5,153.2,9.5z"/>
			<path fill="#FCCB7F" d="M120.7,8.5c0.2,0,0.4-0.2,0.4-0.4C120.8,8.3,120.6,8.4,120.7,8.5z"/>
			<path fill="#FCCB7F" d="M115.1,6.7c0.1,0.1,0.2,0.1,0.3,0.1C115.3,6.7,115.2,6.6,115.1,6.7z"/>
			<path fill="#FCCB7F" d="M153.2,9.5L152.3,9C152.3,9.5,152.8,9.4,153.2,9.5z"/>
			<path fill="#FCCB7F" d="M160.2,45.7c0.1,0.2,0.2,0.3,0.4,0.5c-0.1-0.1-0.1-0.3-0.2-0.4C160.4,45.7,160.3,45.7,160.2,45.7z"/>
			<path fill="#FCCB7F" d="M168.2,12.5l0,0.4c0.2,0,0.4,0,0.7-0.1c0,0-0.2-0.1-0.3-0.2C168.4,12.6,168.2,12.5,168.2,12.5z"/>
			<path fill="#FCCB7F" d="M168.4,25.8c0.1-0.2-1.3-0.3-2-0.4c0.6,0.1,0.9,0.3,1,0.5C167.7,25.9,168,25.9,168.4,25.8z"/>
			<path fill="#FCCB7F" d="M165.9,43.3l0.2,0.3C166.1,43.5,166,43.4,165.9,43.3z"/>
			<path fill="#FCCB7F" d="M161.2,7.8c0.1-0.2,0.1-0.4,0-0.5C161.2,7.5,161.2,7.7,161.2,7.8z"/>
			<path fill="#FCCB7F" d="M151.7,50c0,0.1,0,0.2,0,0.2C151.8,50.1,151.8,50,151.7,50z"/>
			<path fill="#FCCB7F" d="M164.5,56.9l-0.2,0.1c0,0.3,0,0.5,0,0.8L164.5,56.9z"/>
			<path fill="#FCCB7F" d="M105,4.9C105,4.9,105,4.9,105,4.9C105.3,4.8,105.1,4.8,105,4.9z"/>
			<path fill="#FCCB7F" d="M18.4,24.2c1.3-1.1,1.6,1.7,3,0.1C20.9,24.5,19.2,22.9,18.4,24.2z"/>
			<path fill="#FCCB7F" d="M160.4,45.4c0-0.1,0-0.3,0-0.5C160.4,45.2,160.4,45.3,160.4,45.4z"/>
			<path fill="#FCCB7F" d="M21.4,24.4L21.4,24.4l0.1-0.2C21.5,24.3,21.5,24.3,21.4,24.4z"/>
			<path fill="#FCCB7F" d="M81.6,5.7c0,0.2,0.1,0.4,0.2,0.6C81.8,6.2,81.7,6,81.6,5.7z"/>
			<path fill="#FCCB7F" d="M99,7.7l-0.4-0.2C98.7,7.7,98.9,7.7,99,7.7z"/>
			<path fill="#FCCB7F" d="M72.5,7.7c-0.2-0.1-0.3-0.3-0.6-0.1c0,0.1,0.1,0.1,0.1,0.2C72.1,7.6,72.2,7.5,72.5,7.7z"/>
			<path fill="#FCCB7F" d="M63.1,7.7c0,0.1,0.1,0.2,0.2,0.3c0.1,0,0.2-0.1,0.3-0.1L63.1,7.7z"/>
			<path fill="#FCCB7F" d="M123.1,50.6c0.2,0.4,0.3,0.8,0.4,1.3C123.4,50.9,124.8,50.5,123.1,50.6z"/>
			<path fill="#FCCB7F" d="M161,45.7c-0.4-0.1-0.5-0.1-0.6-0.3c0,0.1,0,0.2,0.1,0.3C160.7,45.8,160.9,45.8,161,45.7z"/>
			<path fill="#FCCB7F" d="M72.1,18.8l-1.5-0.2C71,18.7,71.6,18.8,72.1,18.8z"/>
			<path fill="#FCCB7F" d="M55.5,50.8l0.3-0.2C55.7,50.6,55.6,50.6,55.5,50.8z"/>
			<path fill="#FCCB7F" d="M66.2,18.8c-0.3-0.5-0.6-0.8-0.8-1c-0.1,0.1-0.1,0.2-0.2,0.4L66.2,18.8z"/>
			<path fill="#FCCB7F" d="M123.5,51.9C123.5,51.9,123.5,51.9,123.5,51.9C123.5,51.9,123.5,51.9,123.5,51.9z"/>
			<path fill="#FCCB7F" d="M133.4,48.6c-1.4,0-0.7,1.8-1,2.9c-1.7,0.5-0.8-1.4-1.4-2.3c-1.1,0.5-1.9,2.2-2.7,2.1
				c-0.1-0.3-0.2-0.4,0-0.8c-1.1,1.5-3.3,0.1-4.6,1.9c-0.1-0.2-0.1-0.3-0.2-0.5c0.2,0.9,0.2,1.9,0.2,2.5c-0.6,0-1.2,1.2-1.4,0
				c0.4,0,0.4-0.5,0.6-0.8l-0.7,0.5c-0.6-1.7,0.9-0.6,0.9-1.9c-1.3,0.6-2.8,2-3.8,1.5c-0.2-1.7,2.3-0.6,1-2.1l1.5,0.6
				c-1.2-2.7,0.9,0.2-0.1-2.7c-2-0.5-2.3,0.9-4.3,0.4c-0.5,0.9,0.2,1.4-0.3,2.3c-2.9,1.7-2.3-4.3-4.4-2c-0.6,1.1-0.8,3.3-2.3,2.1
				l0.5-1.9c-2-0.2-1.1,2.8-3.2,1.5c0.4-0.8,1.6-0.6,1.3-0.9c-1.3-1.5-0.9,1.1-2,1.1l-0.2-1.7c-2.1,0.3-4.4,1.5-6.7,1.8
				c0.1-0.5,0.5-1,0-1.6c-2.9,0.8-6.3-0.2-9.1-1.2L89.9,51c-0.3,0-0.5-0.7-0.2-0.9c-1.1-0.6-0.1,0.9-0.6,1.5
				c-0.6,0.1-0.8-0.8-0.4-1.3c-1.9,1.2-5.6,2.7-7.6,1.1l0.4-0.4c-1.6-0.6-1.8,3-3.3,1.6l0.3-0.3c-3.5-0.6-7.3,0.7-9.9-1.5
				c-0.5,2.1-3.4-0.9-3.7,2c-2-1.5-1.4-2-4.2-3c-0.7-0.1-1.1,1.8-2,2.1l0-1.5L57.3,52l-0.7-1.8l-0.9,0.4c0.3,0.1,0.7,0.7,0.7,1.1
				c-1.3,0.7-3.3-1.1-3.3-1.9L50,51.2c0.1-0.6,0.6-0.8,1-1.2c-1.7,1.6-0.3-1.6-1.9-0.2c0.2,0.4-0.1,0.9-0.1,1.2
				c-0.8-0.9-2.5-0.9-3.9-0.6l0.3-1.1c-2.4-0.3-5,0.5-7.6,0.5c1,0.5,0.7,2.3,0,2.5l-0.3-1.6c-0.5,1,0.8,0.6-0.2,1.8
				c-1-0.2-0.7-1.9-0.1-2.4l-1.2,0.6c-0.1-0.5,0.2-0.7,0.3-1.4c-0.5,1-2.1-1.6-2.8,0.1L33.3,49c-0.3,0-0.6,0-0.9,0
				c-0.1,0-0.1,0-0.1,0.1c-0.1,0.1-0.1,0.1-0.2,0.2c-0.1,0.1-0.3,0.3-0.5,0.3c-0.9,1.4-0.9,1.1-2.1,2.2c-0.1-0.1-0.1-0.3-0.1-0.5
				c0.5-0.9,1-1.6,0.9-1.9c-0.3,0-0.6,0.1-1,0.2c-0.3,0.1-0.6,0.3-1.1,0.4c1.3-0.6,1.2-1.2,2.1-1.1c-0.1-0.1-0.1-0.3-0.1-0.4
				c0-0.1-0.1-0.1-0.2-0.6c-0.2-0.8-0.4-1.7-1-3.2c-0.5,0.3-0.8,0.7-1.2,0.5c-0.2-0.5,0.5-1.2,1.2-1.1l0.1,0.1
				c-1.9-3.3,3.7-7.5,1.1-10.1l0.1,0.1l-1.4-2.7c0.2-1.2,1,0.7,1.8-0.2c-2.1-2.9,0.3-4.6-1.1-7c1.9-0.9,1.8-2.6,1.6-4.3l0-0.3
				c0-0.1,0-0.1,0-0.1l0,0c0,0-0.1-0.1-0.1-0.1c-0.1-0.1-0.1-0.2-0.1-0.2c0-0.1,0.2-0.2,0.8,0L30.8,19c-0.9-0.6,0.5,0.1,0.7,0.2
				c-0.7-0.5-0.8-0.4-1.3-0.8c-0.2-0.4-0.3-0.7-0.3-1c0.7,0,1.7,0.4,2.2,0.9c0.1,0.1,0.1,0.1,0.2,0.2c0,0,0,0,0,0l0.2,0.1l0.4,0.1
				l1.8,0.4c1.2,0.3,2.3,0.5,3.5,0.7c2.1,0.2,1.2-4.6,3.8-2.5L41.3,19c4.1-2,8.5,0.1,12.5-1.6c-0.2,0.4-0.2,0.9-0.6,0.9
				c0.9,1.2,3.2,0.1,3.2-0.9c0.6,0.1,0.1,0.9,0.5,1.4c0.9,0.7,2.2-1.5,2.6-0.3c0.1,0.2-0.2,0.4-0.4,0.5c0.6-0.6,2.6,0.2,2.1-1.2
				c1.5,0.7,2.9-0.6,4.1,0.2c0.8-1.5,2.6,0.7,2.9-1.4c-0.1,2.3,2.7,1.8,3.6,0.8c-0.3,0.7,0.8,0.7,0.5,1.7c1.1,0,2.1-0.4,1.9-1.6
				c2,2.7,4.1-2.2,5.2,1.3c3.3-1.2,6.3-2,9.2-2.6c-0.1,2.3-3.2,0.2-3.1,2.6c2.8-0.9,4.4-2.9,7.2-2.3c0.7,0.3-0.4,1-0.6,1.4
				c2.8-0.9,5.4,0.2,7.9-1c0,0.2-0.3,0.4-0.5,0.6c0.5-0.1,1.1,0.3,1.1-0.7l-0.5,0.3c-0.8-1.5,1.9-3.1,2-3.9
				c-0.8,2.9,2.4,0.7,1.1,4.5c0.3-0.2,0.7-0.7,0.7-1.4c0.5,0.2,0.6,0.6,0.1,1.4c1.7-0.6,1.1-1.6,2.7-1.6c0,0.5-0.3,0.7-0.5,1.3
				c0.8-1,1.6-1.9,2.9-1.5c-0.1,0.3,0.1,0.7-0.3,0.7c2.3-0.1,3.9-2.6,6.4-1.6c-0.7,2.2,0.9,0.7,1,2.6l1.4-0.6l-0.5-0.9
				c1.2,0,2.2-1.3,3.3-0.7l-0.9,0.8l2.2-0.4l-1.3-0.7c1.2-1-0.1-2.4,1.5-1.8c-0.3,0.2,1.2,0,1.8,1.1l0,0c0.6-0.6,1.2-1.2,2.1-0.8
				c0.2,0.6-0.2,2.1,0,2.5c0.6-1.6,2.8-0.4,3.5-2.1c-0.2,0.4-0.3,1.4-0.2,1.6l0.5-1.3c0.5,0.4,0.6,0.6,0.5,1.4
				c1.7,0.2-0.5-2.4,1.4-1.3c-0.2,0.1-0.1,0.3-0.4,0.5c2,0.5,3.8-0.8,5.6-0.2c0.5,1.9-1.6,0.5-1,2c2.6-0.3,5.4-2.2,7.9-1.8l-0.5-0.2
				c0.4-2.7,1.9,1.3,3.2,0.1c-0.3,0.2-0.4,1.5-0.3,1.2c1.7,0.4,3.5-0.6,6.2-1.5l-0.3,0.7c1,0.6,2.7,0.4,3.8,0.7
				c0.3-0.7,1-0.6,0.6-1.6c0.4,0.4,0.6,0.7,0.8,0.9c0.2,0.2,0.4,0.3,0.6,0.4c0.4,0.1,0.8-0.1,1.4-0.3c0.6-0.2,1.2-0.5,1.8-0.7
				c0.6-0.2,1.2-0.2,1.4,0c-0.2,0.4-0.4,1-0.8,1.6c0-0.2-0.6,0-0.6,0.2c0,0,0.2,0.2,0.3,0.5c0.2,0.3,0.3,0.6,0.3,0.6
				c1.2-0.9,0.7-0.6,1.6-1.7c0.7-0.2,1.2,0.1,1.2,0.8c-0.4-0.4-0.8-0.1-1.3,0.4c-0.4,0.4-0.9,0.9-1.2,1.2c0.4-0.2,0.7-0.3,1.1-0.5
				c-1,0.9-0.4,0.7,0.2,0.6c0.7-0.1,1.4-0.1,0.7,0.9l-0.6,0c0.3,0.5,1.1,1,0.9,1.8c-1.3,0.3-0.6-0.8-1.7-0.7c0,0.2,0.2,0.4,0.4,0.7
				c0.2,0.3,0.5,0.5,0.7,0.8c0.5,0.5,0.7,1,0.1,1.5c-0.4-0.4-0.4-1.1-0.7-1.5c-1.6,1-1.2,1.1-1.4,1.9l0-0.1l-0.7,1.8l0.4-0.4
				c3.5,1.3,0.6,2.6,2.9,4.4c-2.2-1.7-1.2-0.3-2.8-0.4c-0.4,0.4-0.9,1.1-1.3,0.9c1.2,0.8-1,1.4,0.8,2.6c-0.5,0.1,0,0.9-1.3,0.7
				c0.4,1.1,0.8-0.3,1.5-0.2c1.7,1.7-2,3.9,0.3,6.3c0.9,2.1,2.6,2.4,3.4,4.4c-0.8,0.6-1.8-0.5-1.8-0.5c-0.7,1-0.6,1.8,0,2.8
				c-0.4-0.2-0.8,0-1.3,0.3c0.1,0.8,1.8,0.5,1.1,1.6c-0.5-0.2-1.4-0.4-2-0.8c0.4,0.9,1.4,1.8,1.8,2.8c-0.8,0.3-1.3-0.6-1.8-0.9
				c0.4,1.1,0.8,2.8,2.1,3.1l0.5-0.7c0.1,0.4-1.2,0.2-1.4-0.1c-1.1-0.9,0.5-1.3,1-1.4l0.3,0.7c2.9-0.7-0.5-2.7-0.3-4.1l2.1,0.6
				l-1.7-1.4c0.5-0.3,1.7-0.5,2,0.2c1-1-0.7-0.9,0.4-1.7c0.2-0.1,0.3-0.1,0.4,0l-0.6-1c0.4,0.2,1.5-0.2,1.2,0.4
				c1.2-1.7-1.6-2.8,0-3.4l0.1,0.1c-0.7-2.4-1.5-0.2-3.3-2l3.8-1.2l-1.5-0.2c0.1-0.2,0.2-0.7,0.8-0.6c-1-0.9-0.7,0.2-1.7-0.4
				c1.4-1.2-0.6-3.3,1.8-3.6c-1.2-0.4-0.9,1.1-1.7-0.1c2.6-0.4-0.4-1.5,0.8-2.6c1.3,0.3,0.6,1.4,1.8,0.3c-2.3-0.7,0.5-2.1,0.1-3
				c-1.8,0-0.8-2-1.4-3.5c0.6,0,1-2.6,1.7-5.1l0.3,0c-1.8,0-1.5-1.9-1.9-3c1.1-0.6,1.5-0.6,2,0l0-1.5c-0.6,0-0.9-0.2-1.1-0.9
				c0,0,0.3-0.2,0.7-0.3c0.3-0.2,0.7-0.3,0.7-0.3c0-1.1-0.5-1.8-0.8-2.6c-1.1,0.2-2.1,0.3-2.9-0.1c-0.5,0.6-0.7,1.5-1.3,2.4
				c-0.5,0.8-1.3,1.6-2.4,2c0.4-0.7,1.1-1.9,1.9-2.2c-0.3,0.1-1,0.6-1.2,0.3c0,0,0.4-0.3,0.8-0.6c0.4-0.3,0.8-0.6,0.8-0.6
				c-0.6-0.5-1.1,1-1.8,0.9c0.6-1-0.2-0.7,0.4-1.5c0.3-0.1,0.5,0.4,1,0c-0.8-0.2-1.7-0.8-1.8-1.5c-0.1,0.6-0.5,1.3-1.3,1.5
				c-1.8,0.1-0.3-1.2-1.3-1.7c-0.6,0.7-1.8,0-1.9,1.4c-0.1,0-0.2,0-0.3-0.1c-0.1-0.1-0.1-0.2-0.2-0.3c-0.1-0.2-0.1-0.5-0.2-0.7
				c-0.7,0.6-3.3,0.2-2.5,1.8l0.2,0.1c0,0-0.1,0-0.1,0.1c0,0,0,0,0,0h0c-2.3,1.5-4.7-0.8-7-0.2l0-0.5c-1.4,0.6-3,0.3-4,1.4
				c-0.4,0-0.9-0.9-0.8-1.5c-1,0.4-1.2,0.9-2.6,0.1c1-0.9-0.4-0.8,1.1-0.6c-1.3-0.4-1.6-1.2-3.1,0.1c0.5-1.3-1-1.6-1.6-1.2l0.9,0.9
				c-0.7,0.2-1.3,0.1-2,0l0.3-1.7c-2.7-2-5,3.4-7.1,0.1c-0.7,1.2,1.5,0.8,0.8,2.2c-1.3-0.2-2.6-2.6-3-2.6c-1.7-0.9-1.6,2.4-3.4,1.8
				c0.2,0.6,0.4,2.2-0.9,2.7c-1.3-0.2-1.6-2.5-0.8-3c0.3,0,0.4,0.1,0.4,0.3c0.4-0.2,0.9-0.5,0.4-1.1l-0.2,0.6
				c-0.6-0.6-2.4-0.5-2-1.5c-1,0.6-0.4,1,0.3,1.3c-1.6-0.9-2.5,0-4.2-0.6c0.3,0.3,0.5,1,0.2,1c-2.5-0.7-1.1,1.1-2.7,1.4
				c-0.9-0.9,0.3-2.2-1.3-1.4c-1-0.6-0.2-1.6,0.2-2.1c-1.5,1.1-2.8-0.8-3.7-1l0.8-0.5c-0.5,0.3-0.9,0.3-1.3,0.3l0.5,1.2
				c-0.5-0.2-0.9-0.2-0.9-0.7c-0.5,0.8,0.4,2-0.6,3c-0.6-0.6-1.9,0.6-2.1-0.9c2,0.5-0.2-1.6,1.5-1.8c-0.3,0.2-0.7,0.2-1.2,0
				c-0.1-0.2,0.1-0.3,0.2-0.4c-1.9-1.4-0.9,1.8-2.8,1.7c0.2-0.9-0.5-1.7-0.8-1.5c0.8,0,0.4,1.5-0.3,2.2c-1.3-0.7-1.4,0.5-2,0.4
				l0.8,0.3c-0.3,0.9-0.9,0.8-1.8,1c-0.1-0.7,0.8-0.5,0.5-0.8c-1,1.6-2.2-1.6-3.6-0.6c-0.6-0.6-0.1-1.7-0.6-2.1
				c-1.5,1.1-1.6-1.2-3.2-0.3c0.5,1.2,0.5,0.9-0.6,2.1l2.6-0.8l-1.7,1.7c0.8,0,1.7-0.7,2.1-0.5c-0.8,1-0.7,0.7-0.3,1.7
				c-1.1-1.8-2.2,1-3.4-0.2l0-3c-1.9-1.3-3.3,1.5-5.8,0.8l0.8,0.5c-0.3,1.2-1.5,0.2-2.3,0.6c0.1-1-0.4-1.3-0.8-2
				c0,0.7-1.8-0.1-2,1.9L78.7,7c-2-0.5-2.3,2.8-4.2,2.5c0.6-1.1-0.3-1.8,1-2.5c-0.6,0-1.2-0.2-1.2,0.5c-0.4-0.6-1.8,1.3-2.3,0.4
				c-0.3,0.4-0.4,1.5-1.1,1.4c-0.1-0.2,0-0.5,0-0.5c0,0.5-1.1,0.7-0.5,1.8c-2-3.1-5.5,0.2-7.2-2.4c-1.4,0.3-3.1,0.6-4.3,0.7
				c0.1-0.3,0-0.5,0.2-0.4c-1.7-0.9-1.1,2.8-3,1.8c-1-1.6,1-0.9,0.4-1.5c-0.3-3.2-2.4,0.4-3.7-1.5L53.2,7c-1-1.1-2.5,1.2-4.1,1
				c0,0,0.1-0.3,0-0.5c-1.1,1.7-3.3,2.2-4.9,2.7c0.5-1.3,0.7-0.7,0.4-2c-0.7,0.2,0.2,2.1-1.2,2.4C42.9,10,41.9,9.3,41.8,8l1.3-0.1
				c-0.7-1.8-1.7,0.1-2.5-0.3l0.1-0.8c-2.1,0.3-2.1,2.2-4.3,2.1l0.2,0.6c-1.2,1.9-1-1.1-2.2,0.3l-0.4-2c-0.4,0.2-1.1,0.7-1.9,1.2
				c-1,0.5-2,0.9-2.8,1.1c0.3-0.7,0.9-1.3,1.8-1.8c0.2-0.1,0.4-0.2,0.7-0.3c0.2-0.1,0.5-0.2,0.6-0.3c0.3-0.2,0.6-0.4,0.9-0.6
				c-0.4,0-3.7,0.1-4,1.1c0.4-0.2,0.9-0.7,1.4-0.4c-1.3,1.6-2.4,2.3-4.3,2.3c-1.2-2.5-3.6-2.1-6.3-2.4c-0.2,1.1-0.5,2-1.5,1.9
				c0.7,2.9,0.6,4.8,0.3,7.2c-0.1,0.6-0.2,1.2-0.2,1.8c-0.1,0.6-0.2,1.4-0.2,1.6c-0.1,0.8-0.2,1.5-0.2,2.4c3-1.2,0.1,0.9,3.1,0.8
				c0.2,0.8,0.1,1-0.1,1.1l-1.8,2.3c-0.9,0.5-0.7-0.7-1.4-0.7c-0.2,1.7-1.3,0.7-2.1,1.8c1.1-0.2,1.6,0.6,1.1,1.5l1.4-1.3
				c1.6,2.3-2.6,2-1,4.3l-1-0.7c0.6,1.2,0,4.4,2.4,5.6c-0.4,0.2-1.2,0.5-1.4,0c-0.4,2.9,2.6,6.4,1.1,8.6l-0.7-0.2
				c0.2,0.5,1.4,0.9,0.7,1.6c-0.3,0-0.7-0.2-0.8,0c0.1,0.1,0.5,0.5,0.7,0.9c0.1,0.1,0.1,0.2,0.2,0.3c0,0.2,0.1,0.4,0.1,0.5
				c0,0.3,0,0.7-0.1,1c0,0-0.2-0.2-0.4-0.5C18.3,49.2,18,49,18,49c-0.5,2.5,0,4.5,0.7,5.8c0.7,1.4,1.6,2.2,1.8,3.7
				c-1,0.9-1.7,2.2-2.2,3.8c0.6,0.6,2.1,0.9,3,1l-0.3,0.3c6,0.3,11.9-1.8,13.8-2.7c1.9,2.4,6.3,1,9.3,2.3c-0.5-0.4,0.1-1.7,0.6-1.9
				c0.7,0.4,2-1.5,1.8,0.5l-0.3,0c0.5,2,2,1.5,3.1,1.5l0.2-2.6c3,3.8,7.8-1.4,9.4,2c0.7-0.7,1.6-0.7,2.3-1.3l0,1.4
				c2,0.4,3,0.5,5.4,0.2l-0.5,1c1.4,0.1,1.7-4.1,3-4.2l0.4,2.1c2.4,0,4.8,1.8,7.2-0.1c0,0.3-0.1,0.9-0.5,1c1.1,0.1,4.4,1.4,4-1.5
				c0,1.9,2.5,0.2,3.8-0.6L84,62.2c1.1-1.8,1.1-2.3,2.7-2.8c0.4,0.2,0.3,1.1-0.2,0.8c1.2,0.7,0.9-1.3,2.4-0.6l-0.5,0.9
				c1.2,0.1,1.1-0.4,1.8-1.4c0.8-0.6,2.4,0.4,2.5,1.6c0.2-0.8,0.9-1.8,1.6-1.4c0.1,0.5-0.2,0.8-0.3,0.9c2.1,1,3.1-1.6,4.5-0.2
				c0,0.5,0.1,0.7,0.2,0.8c-1.7,0-3-0.1-2.9-0.2c0,1.3,1.3,1.5,0.3,3.3c1.1-1,2.9-3.1,4.2-2.5c0.1,0.1,0.1,0.2,0.2,0.4l-0.1,0.1
				c0.3,0.1,0.6,0,0.8-0.2c0.4,0.2,0.7,0.4,1.1,0.4c0.2,1.1,1.5,0.6,2.2,0.6c-0.1-1.4,0.8-1.2,0-2.3c0.1,0.1-0.1,0.2-0.6,0.2
				c-0.1,0-0.2,0.1-0.3,0.1c0,0,0-0.1,0-0.1c-0.4,0-1,0.1-1.7,0.1c0.5-0.7,1.1-1.3,1.8-0.5c0.3-0.9,0.7-1.8,0.9-2.3
				c0.9,2,2.7,3,2.9,4.2c2-0.8,4.8-0.5,6.1-3.2c0.6-0.3,0.7,0.8,0.9,1.2c-0.3,0.3-0.7,0.2-0.9,0.6c1.2-0.7,3.4-0.3,3.7-2.1
				c1.5,0.8-0.8,1.7,1.2,1.4l-0.3,0.6c3.9,3,6.4-4.7,10.8-0.9c-0.3-0.2-0.5-0.3-0.5-0.6c5,1.7,10.3-1.6,15.2,1.1
				c1.4,0.5,1.5-0.6,2.4-1.5l0.3,1.5l1.5-1.7c2.1-1.3,3.6,3.7,6.2,1.3l-0.3-1c0.9,0.2,3-0.6,2.8,0.6c0.1-0.2,0.3-1.1,0.7-0.5l0,0.8
				l2.3-1.4c1.8,0.6-0.3,3.1,2.3,3.3c1-0.3,2.8-2.3,2.4-2.8c-0.4,0-1-0.5-1-1.3l0.9-0.4c0.2-2.3,0.8-4.7-1.3-6.3l-1.5,1.4L161,51
				l1.3-0.1c-0.7-1.1-1.2-0.1-1.7,0.5c-0.1-0.6-0.3-1-0.6-1.2l-1.5,2.2c-0.2-0.9,0.7-1.8-0.3-2.3c-0.7,1,0.7,2-0.5,2.7
				c-0.7-1.1-0.5-1.9-1.4-1c-0.1-0.6,0.1-1,0.4-1.2c-0.8,0.7-2,0.3-2.4,1.5c-0.8-1.3-2.6,0.3-2.5-1.9c-0.2,0.5-1.3,1.7-2,1.8
				c1.3-2.6-2.6-0.2-2.3-3c-0.9,2.4-3.4,1.1-5.1,2.4c0.1-0.2,0.3-0.6,0.4-0.4c-0.9-0.2-1.2-0.9-1.8-1.4c-0.1,2-1.6,2.4-2.4,3.6
				c-1.2-1.9,0.7-2.3,0.3-4.1c0.1,1.6-2,1.6-1.6,2.9c-0.9-1.2-0.8-0.6-1.2-2.2c-0.2,2.4-0.8,0.4-1.6,1.9c-1.3-1.2-0.3-2.3-1.7-1.6
				C132.2,49.4,133.4,48.6,133.4,48.6z M100.1,52.8C100.1,52.8,100.1,52.8,100.1,52.8c0.3-0.1,0.5-0.1,0.7-0.1
				C100.6,52.7,100.4,52.7,100.1,52.8z M97.3,52.8c0.3,0.1,0.8,0.1,1.2,0.1c0.1,0.5,0,1-0.3,1C98.3,53.5,97.7,53.2,97.3,52.8z
				 M103.2,62.5c-0.4,0.2-0.6-0.1-0.7-0.4c0.2,0,0.5-0.1,0.8-0.2c0,0,0-0.1,0.1-0.2C103.3,62.1,103.3,62.4,103.2,62.5z"/>
			<path fill="#FCCB7F" d="M104,60.7c0.1,0,0.1-0.1,0.2-0.1c-0.1-0.1-0.2-0.2-0.3-0.3c-0.1,0.2-0.1,0.3-0.2,0.4
				C103.8,60.7,103.9,60.7,104,60.7z"/>
			<path fill="#FCCB7F" d="M153.6,9.7L153.6,9.7c0,0,0,0.1,0.1,0.2C153.6,9.8,153.6,9.8,153.6,9.7z"/>
			<polygon fill="#FCCB7F" points="58.6,50.1 58.6,50.4 58.8,50.1 			"/>
			<path fill="#FCCB7F" d="M161.8,17.5c-0.1,0.1-0.3,0.2-0.4,0.3C161.5,17.8,161.6,17.6,161.8,17.5z"/>
			<path fill="#FCCB7F" d="M161.5,23l-0.5,0.9C161.3,23.5,161.4,23.2,161.5,23z"/>
			<path fill="#FCCB7F" d="M160.8,28.1c0.2,0.1,0.4,0.1,0.6,0.1c0,0,0,0,0,0L160.8,28.1z"/>
			<path fill="#FCCB7F" d="M99.3,17.2c-0.1,0-0.1,0-0.2,0.1C98.7,17.5,99,17.4,99.3,17.2z"/>
			<path fill="#FCCB7F" d="M123.6,13.9c-0.3,0.3-0.5,0.5-0.8,0.7C123.2,14.7,123.6,14.7,123.6,13.9z"/>
			<path fill="#FCCB7F" d="M72.3,18.8C72.3,18.8,72.3,18.8,72.3,18.8c-0.1,0-0.1,0-0.2,0L72.3,18.8z"/>
			<path fill="#FCCB7F" d="M121.7,14.5c0.4,0.3,0.8,0.2,1.1,0C122.5,14.5,122,14.3,121.7,14.5z"/>
			<path fill="#FCCB7F" d="M160.1,50.3l-0.1,0.2c0.1,0,0.2,0,0.2,0L160.1,50.3z"/>
			<path fill="#FCCB7F" d="M160.3,50.6l0.2,0.3C160.4,50.7,160.4,50.6,160.3,50.6z"/>
			<path fill="#FCCB7F" d="M160.8,51.4l-0.4-0.6C160.4,51,160.4,51.3,160.8,51.4z"/>
			<path fill="#FCCB7F" d="M160.8,43.5l-0.5-0.1C160.4,43.5,160.5,43.5,160.8,43.5z"/>
			<path fill="#FCCB7F" d="M160.6,41.4c-0.1,0.5-1.1,1.2-0.8,1.9l0.4,0.1C159.5,43.1,161.5,41.9,160.6,41.4z"/>
			<path fill="#FCCB7F" d="M166.9,32.9l-0.4,1.7c0.5-0.3,1.3-0.7,1.4,0.1C169.5,32.5,166.7,35.1,166.9,32.9z"/>
			<path fill="#FCCB7F" d="M167.7,27.5c0.3,0.9,0.8,0,1.1,0C168.3,26.9,168.2,26.8,167.7,27.5z"/>
			<path fill="#FCCB7F" d="M141.5,8.6l0.1-1.3C140.9,7.5,141.6,7.8,141.5,8.6z"/>
			<polygon fill="#FCCB7F" points="134.1,15.2 134.8,16 135.1,14.8 			"/>
			<polygon fill="#FCCB7F" points="129.7,6.1 130.1,5.9 128.9,6.4 			"/>
			<path fill="#FCCB7F" d="M64.8,6.5L65,8C65.5,7.8,65.6,6,64.8,6.5z"/>
			<path fill="#FCCB7F" d="M36.7,8.1c-0.3-0.8-1.1-1.3-1.6-0.5C35.7,7.6,36.4,8.3,36.7,8.1z"/>
			<polygon fill="#FCCB7F" points="51.1,62.7 50.6,63.2 51.6,62.8 			"/>
		</g>
	</g>
</g>
<g>
	<path d="M53.2,31c-0.9,0-1.7-0.1-2.4-0.4s-1.4-0.6-1.9-1.1c-0.5-0.5-0.9-1.1-1.2-1.9c-0.3-0.8-0.4-1.6-0.4-2.6
		c0-0.9,0.1-1.8,0.4-2.5c0.3-0.7,0.7-1.4,1.2-1.9c0.5-0.5,1.1-0.9,1.9-1.2c0.7-0.3,1.6-0.4,2.4-0.4c0.5,0,0.9,0,1.3,0.1
		s0.8,0.1,1.1,0.2c0.3,0.1,0.7,0.2,0.9,0.3c0.3,0.1,0.5,0.2,0.7,0.3l0,2.8l-0.3,0c-0.1-0.1-0.3-0.3-0.6-0.4
		c-0.2-0.2-0.5-0.3-0.8-0.5c-0.3-0.2-0.6-0.3-0.9-0.4c-0.3-0.1-0.7-0.2-1.1-0.2c-0.4,0-0.8,0.1-1.2,0.2s-0.7,0.4-1.1,0.7
		c-0.3,0.3-0.6,0.7-0.7,1.2c-0.2,0.5-0.3,1.1-0.3,1.8c0,0.7,0.1,1.3,0.3,1.8c0.2,0.5,0.5,0.9,0.8,1.2c0.3,0.3,0.7,0.5,1.1,0.6
		c0.4,0.1,0.8,0.2,1.2,0.2c0.4,0,0.7-0.1,1.1-0.2c0.4-0.1,0.7-0.3,1-0.4c0.3-0.2,0.5-0.3,0.7-0.5c0.2-0.2,0.4-0.3,0.5-0.4l0.3,0
		l0,2.8c-0.3,0.1-0.6,0.3-0.8,0.4s-0.5,0.2-0.8,0.3c-0.4,0.1-0.7,0.2-1.1,0.2S53.7,31,53.2,31z"/>
	<path d="M68.3,26.4c0,1.4-0.4,2.6-1.3,3.4c-0.8,0.8-2,1.2-3.5,1.2s-2.7-0.4-3.5-1.2c-0.8-0.8-1.3-2-1.3-3.4c0-1.5,0.4-2.6,1.3-3.4
		c0.8-0.8,2-1.2,3.5-1.2c1.5,0,2.7,0.4,3.5,1.3C67.9,23.8,68.3,25,68.3,26.4z M64.8,28.6c0.2-0.2,0.3-0.5,0.4-0.8
		c0.1-0.3,0.1-0.8,0.1-1.3c0-0.5,0-0.9-0.1-1.3c-0.1-0.3-0.2-0.6-0.4-0.8c-0.2-0.2-0.4-0.4-0.6-0.5c-0.2-0.1-0.5-0.1-0.8-0.1
		s-0.5,0-0.7,0.1s-0.4,0.2-0.6,0.4c-0.2,0.2-0.3,0.5-0.4,0.8s-0.2,0.8-0.2,1.3c0,0.5,0,0.9,0.1,1.2c0.1,0.4,0.2,0.6,0.4,0.8
		c0.2,0.2,0.4,0.4,0.6,0.4c0.2,0.1,0.5,0.1,0.8,0.1c0.3,0,0.5,0,0.7-0.1C64.5,28.9,64.7,28.8,64.8,28.6z"/>
	<path d="M79.1,30.8l-2.8,0l0-4.4c0-0.4,0-0.7-0.1-1.1c0-0.4-0.1-0.6-0.2-0.8c-0.1-0.2-0.3-0.3-0.5-0.4s-0.5-0.1-0.8-0.1
		c-0.3,0-0.5,0-0.8,0.1s-0.5,0.2-0.9,0.4l0,6.2l-2.8,0l0-8.8l2.8,0v1c0.5-0.4,1-0.7,1.4-0.9c0.5-0.2,1-0.3,1.5-0.3
		c0.9,0,1.7,0.3,2.2,0.8c0.5,0.6,0.8,1.4,0.8,2.5L79.1,30.8z"/>
	<path d="M90.7,26.4c0,1.4-0.4,2.6-1.3,3.4c-0.8,0.8-2,1.2-3.5,1.2s-2.7-0.4-3.5-1.2c-0.8-0.8-1.3-2-1.3-3.4c0-1.5,0.4-2.6,1.3-3.4
		c0.8-0.8,2-1.2,3.5-1.2c1.5,0,2.7,0.4,3.5,1.3C90.3,23.9,90.7,25,90.7,26.4z M87.2,28.6c0.2-0.2,0.3-0.5,0.4-0.8
		c0.1-0.3,0.1-0.8,0.1-1.3c0-0.5,0-0.9-0.1-1.3c-0.1-0.3-0.2-0.6-0.4-0.8c-0.2-0.2-0.4-0.4-0.6-0.5c-0.2-0.1-0.5-0.1-0.8-0.1
		s-0.5,0-0.7,0.1s-0.4,0.2-0.6,0.4c-0.2,0.2-0.3,0.5-0.4,0.8S84,25.9,84,26.5c0,0.5,0,0.9,0.1,1.2c0.1,0.4,0.2,0.6,0.4,0.8
		c0.2,0.2,0.4,0.4,0.6,0.4c0.2,0.1,0.5,0.1,0.8,0.1c0.3,0,0.5,0,0.7-0.1C86.8,28.9,87,28.8,87.2,28.6z"/>
	<path d="M97.3,31.1c-0.8,0-1.5-0.1-2.1-0.3c-0.6-0.2-1.2-0.5-1.7-0.8c-0.5-0.4-0.8-0.9-1.1-1.4c-0.3-0.6-0.4-1.3-0.4-2
		c0-0.8,0.1-1.5,0.4-2.1c0.3-0.6,0.7-1.1,1.1-1.5c0.5-0.4,1-0.6,1.6-0.8c0.6-0.2,1.3-0.3,1.9-0.3c0.6,0,1.2,0.1,1.7,0.2
		c0.5,0.1,1,0.3,1.4,0.5l0,2.4h-0.4c-0.1-0.1-0.2-0.2-0.4-0.3c-0.2-0.1-0.3-0.2-0.6-0.4c-0.2-0.1-0.4-0.2-0.7-0.3
		c-0.3-0.1-0.6-0.1-0.9-0.1c-0.7,0-1.3,0.2-1.7,0.7C95.2,25,95,25.7,95,26.5c0,0.8,0.2,1.5,0.6,1.9s1,0.7,1.8,0.7c0.4,0,0.7,0,1-0.1
		c0.3-0.1,0.5-0.2,0.7-0.3c0.2-0.1,0.3-0.2,0.5-0.3c0.1-0.1,0.3-0.2,0.4-0.3h0.4l0,2.4c-0.4,0.2-0.9,0.4-1.4,0.5
		C98.4,31,97.8,31.1,97.3,31.1z"/>
	<path d="M110.7,27l-6.4,0c0,0.7,0.3,1.2,0.8,1.6c0.5,0.4,1.2,0.5,2.1,0.5c0.6,0,1.2-0.1,1.7-0.3c0.6-0.2,1-0.4,1.3-0.7h0.3l0,2.3
		c-0.6,0.3-1.2,0.4-1.8,0.6c-0.6,0.1-1.2,0.2-1.9,0.2c-1.8,0-3.1-0.4-4-1.2c-0.9-0.8-1.4-1.9-1.4-3.4c0-1.4,0.4-2.6,1.3-3.4
		c0.9-0.8,2.1-1.3,3.7-1.3c1.4,0,2.5,0.4,3.2,1.1c0.7,0.7,1.1,1.8,1.1,3.1L110.7,27z M107.9,25.3c0-0.6-0.2-1-0.4-1.3
		s-0.7-0.4-1.3-0.4c-0.5,0-1,0.1-1.3,0.4s-0.5,0.7-0.6,1.4L107.9,25.3z"/>
	<path d="M126.8,27l-6.4,0c0,0.7,0.3,1.2,0.8,1.6c0.5,0.4,1.2,0.5,2.1,0.5c0.6,0,1.2-0.1,1.7-0.3c0.6-0.2,1-0.4,1.3-0.7l0.3,0l0,2.3
		c-0.6,0.3-1.2,0.4-1.8,0.6s-1.2,0.2-1.9,0.2c-1.8,0-3.1-0.4-4-1.2c-0.9-0.8-1.4-1.9-1.4-3.4c0-1.4,0.4-2.6,1.3-3.4
		c0.9-0.8,2.1-1.3,3.7-1.3c1.4,0,2.5,0.4,3.2,1.1c0.7,0.7,1.1,1.8,1.1,3.1L126.8,27z M124,25.3c0-0.6-0.2-1-0.4-1.3
		s-0.7-0.4-1.3-0.4c-0.5,0-1,0.1-1.3,0.4c-0.3,0.3-0.5,0.7-0.6,1.4L124,25.3z"/>
	<path d="M131.6,30.9l-2.8,0l0-12.2l2.8,0L131.6,30.9z"/>
	<path d="M38.1,40.3c0,0.7-0.1,1.4-0.3,2c-0.2,0.6-0.5,1.1-0.9,1.5c-0.4,0.4-0.8,0.7-1.3,0.9c-0.5,0.2-1,0.3-1.5,0.3
		c-0.5,0-0.9-0.1-1.3-0.2c-0.3-0.1-0.7-0.3-1.1-0.5l0,3.7L29,48l0-12l2.8,0l0,0.9c0.4-0.3,0.9-0.6,1.3-0.8c0.5-0.2,1-0.3,1.6-0.3
		c1.1,0,1.9,0.4,2.5,1.2C37.8,37.8,38.1,38.9,38.1,40.3z M35.2,40.3c0-0.9-0.1-1.5-0.4-1.9c-0.3-0.4-0.8-0.6-1.4-0.6
		c-0.3,0-0.5,0-0.8,0.1c-0.3,0.1-0.5,0.2-0.8,0.3l0,4.4c0.2,0.1,0.4,0.1,0.6,0.1c0.2,0,0.4,0,0.6,0c0.7,0,1.3-0.2,1.7-0.7
		C35.1,41.9,35.2,41.2,35.2,40.3z"/>
	<path d="M46.5,38.7h-0.2c-0.1,0-0.3-0.1-0.6-0.1c-0.3,0-0.5,0-0.7,0c-0.4,0-0.8,0-1.1,0.1s-0.6,0.1-1,0.3l0,5.9l-2.8,0l0-8.8l2.8,0
		l0,1.3c0.6-0.5,1.2-0.9,1.6-1.1c0.5-0.2,0.9-0.3,1.3-0.3c0.1,0,0.2,0,0.3,0c0.1,0,0.2,0,0.3,0L46.5,38.7z"/>
	<path d="M57.1,40.4c0,1.4-0.4,2.6-1.3,3.4c-0.8,0.8-2,1.2-3.5,1.2c-1.5,0-2.7-0.4-3.5-1.2c-0.8-0.8-1.3-2-1.3-3.4
		c0-1.5,0.4-2.6,1.3-3.4c0.8-0.8,2-1.2,3.5-1.2c1.5,0,2.7,0.4,3.5,1.3C56.7,37.8,57.1,39,57.1,40.4z M53.6,42.5
		c0.2-0.2,0.3-0.5,0.4-0.8c0.1-0.3,0.1-0.8,0.1-1.3c0-0.5,0-0.9-0.1-1.3s-0.2-0.6-0.4-0.8c-0.2-0.2-0.4-0.4-0.6-0.5
		s-0.5-0.1-0.8-0.1c-0.3,0-0.5,0-0.7,0.1S51.2,38,51,38.3c-0.2,0.2-0.3,0.5-0.4,0.8s-0.2,0.8-0.2,1.3c0,0.5,0,0.9,0.1,1.2
		c0.1,0.4,0.2,0.6,0.4,0.8c0.2,0.2,0.4,0.4,0.6,0.4c0.2,0.1,0.5,0.1,0.8,0.1c0.3,0,0.5,0,0.7-0.1S53.5,42.8,53.6,42.5z"/>
	<path d="M63.7,45c-0.8,0-1.5-0.1-2.1-0.3c-0.6-0.2-1.2-0.5-1.7-0.8c-0.5-0.4-0.8-0.9-1.1-1.4c-0.3-0.6-0.4-1.3-0.4-2
		c0-0.8,0.1-1.5,0.4-2.1c0.3-0.6,0.7-1.1,1.1-1.5c0.5-0.4,1-0.6,1.6-0.8c0.6-0.2,1.3-0.3,1.9-0.3c0.6,0,1.2,0.1,1.7,0.2
		c0.5,0.1,1,0.3,1.4,0.5l0,2.4l-0.4,0c-0.1-0.1-0.2-0.2-0.4-0.3s-0.3-0.2-0.6-0.4c-0.2-0.1-0.4-0.2-0.7-0.3s-0.6-0.1-0.9-0.1
		c-0.7,0-1.3,0.2-1.7,0.7c-0.4,0.5-0.6,1.1-0.6,1.9c0,0.8,0.2,1.5,0.6,1.9c0.4,0.4,1,0.7,1.8,0.7c0.4,0,0.7,0,1-0.1s0.5-0.2,0.7-0.3
		c0.2-0.1,0.3-0.2,0.5-0.3c0.1-0.1,0.3-0.2,0.4-0.3l0.4,0l0,2.4c-0.4,0.2-0.9,0.4-1.4,0.5C64.8,45,64.3,45,63.7,45z"/>
	<path d="M77.2,41l-6.4,0c0,0.7,0.3,1.2,0.8,1.6c0.5,0.4,1.2,0.5,2.1,0.5c0.6,0,1.2-0.1,1.7-0.3c0.6-0.2,1-0.4,1.3-0.7H77l0,2.3
		c-0.6,0.3-1.2,0.4-1.8,0.6C74.6,45,74,45.1,73.3,45c-1.8,0-3.1-0.4-4-1.2s-1.4-1.9-1.4-3.4c0-1.4,0.4-2.6,1.3-3.4
		c0.9-0.8,2.1-1.3,3.7-1.3c1.4,0,2.5,0.4,3.2,1.1c0.7,0.7,1.1,1.8,1.1,3.1L77.2,41z M74.4,39.3c0-0.6-0.2-1-0.4-1.3
		c-0.3-0.3-0.7-0.4-1.3-0.4c-0.5,0-1,0.1-1.3,0.4c-0.3,0.3-0.5,0.7-0.6,1.4L74.4,39.3z"/>
	<path d="M87.7,44.8l-2.8,0l0-0.9c-0.5,0.4-0.9,0.7-1.4,0.9c-0.4,0.2-0.9,0.3-1.5,0.3c-1.1,0-1.9-0.4-2.6-1.2c-0.6-0.8-1-1.9-1-3.3
		c0-0.7,0.1-1.4,0.3-2c0.2-0.6,0.5-1.1,0.9-1.5c0.4-0.4,0.8-0.7,1.3-0.9c0.5-0.2,1-0.3,1.5-0.3c0.5,0,1,0.1,1.3,0.2s0.7,0.3,1,0.4
		l0-3.7l2.8,0L87.7,44.8z M84.9,42.4l0-4.3c-0.2-0.1-0.4-0.1-0.6-0.2c-0.2,0-0.4-0.1-0.6-0.1c-0.7,0-1.3,0.2-1.7,0.7
		c-0.4,0.5-0.6,1.1-0.6,1.9c0,0.9,0.1,1.5,0.4,1.9c0.3,0.4,0.8,0.6,1.4,0.6c0.3,0,0.5,0,0.8-0.1C84.4,42.7,84.6,42.6,84.9,42.4z"/>
	<path d="M93.2,34.8l-3,0l0-2.1l3,0L93.2,34.8z M93.1,44.8l-2.8,0l0-8.8l2.8,0L93.1,44.8z"/>
	<path d="M104.4,38.6l0,6.2l-2.8,0l0-4.4c0-0.4,0-0.8,0-1.1c0-0.3-0.1-0.5-0.2-0.7s-0.2-0.3-0.4-0.4c-0.2-0.1-0.5-0.1-0.8-0.1
		c-0.3,0-0.5,0.1-0.8,0.2s-0.5,0.2-0.7,0.4l0,6.2l-2.8,0l0-8.8l2.8,0l0,1c0.5-0.4,0.9-0.7,1.4-0.9c0.4-0.2,0.9-0.3,1.5-0.3
		c0.6,0,1.1,0.1,1.5,0.4c0.4,0.3,0.8,0.6,1,1.1c0.6-0.5,1.1-0.8,1.6-1.1c0.5-0.3,1.1-0.4,1.6-0.4c0.9,0,1.7,0.3,2.2,0.9
		c0.5,0.6,0.7,1.4,0.7,2.5l0,5.7l-2.8,0l0-4.4c0-0.4,0-0.8,0-1.1c0-0.3-0.1-0.5-0.2-0.7c-0.1-0.2-0.2-0.3-0.4-0.4
		c-0.2-0.1-0.5-0.1-0.8-0.1c-0.2,0-0.5,0-0.7,0.1S104.7,38.4,104.4,38.6z"/>
	<path d="M115.6,34.8l-3,0l0-2.1l3,0L115.6,34.8z M115.5,44.9l-2.8,0l0-8.8l2.8,0L115.5,44.9z"/>
	<path d="M126.8,41l-6.4,0c0,0.7,0.3,1.2,0.8,1.6c0.5,0.4,1.2,0.5,2.1,0.5c0.6,0,1.2-0.1,1.7-0.3c0.6-0.2,1-0.4,1.3-0.7l0.3,0l0,2.3
		c-0.6,0.3-1.2,0.4-1.8,0.6s-1.2,0.2-1.9,0.2c-1.8,0-3.1-0.4-4-1.2s-1.4-1.9-1.4-3.4c0-1.4,0.4-2.6,1.3-3.4c0.9-0.8,2.1-1.3,3.7-1.3
		c1.4,0,2.5,0.4,3.2,1.1c0.7,0.7,1.1,1.8,1.1,3.1L126.8,41z M124,39.3c0-0.6-0.2-1-0.4-1.3s-0.7-0.4-1.3-0.4c-0.5,0-1,0.1-1.3,0.4
		c-0.3,0.3-0.5,0.7-0.6,1.4L124,39.3z"/>
	<path d="M137.6,44.9l-2.8,0l0-4.4c0-0.4,0-0.7-0.1-1.1c0-0.4-0.1-0.6-0.2-0.8c-0.1-0.2-0.3-0.3-0.5-0.4s-0.5-0.1-0.8-0.1
		c-0.3,0-0.5,0-0.8,0.1c-0.3,0.1-0.5,0.2-0.9,0.4l0,6.2l-2.8,0l0-8.8l2.8,0l0,1c0.5-0.4,1-0.7,1.4-0.9c0.5-0.2,1-0.3,1.5-0.3
		c0.9,0,1.7,0.3,2.2,0.8c0.5,0.6,0.8,1.4,0.8,2.5L137.6,44.9z"/>
	<path d="M145.8,44.8c-0.3,0.1-0.6,0.1-1,0.2s-0.8,0.1-1.2,0.1c-1.1,0-1.9-0.2-2.4-0.7c-0.5-0.4-0.8-1.2-0.8-2.3l0-4.1l-1.2,0l0-1.9
		l1.2,0l0-2.5l2.8,0l0,2.5l2.6,0l0,1.9l-2.6,0l0,3.1c0,0.3,0,0.6,0,0.8c0,0.2,0,0.4,0.1,0.6c0.1,0.2,0.2,0.3,0.4,0.4
		c0.2,0.1,0.5,0.2,0.8,0.2c0.1,0,0.3,0,0.6-0.1s0.4-0.1,0.5-0.2h0.2L145.8,44.8z"/>
	<path d="M156.5,40.5c0,1.4-0.4,2.6-1.3,3.4c-0.8,0.8-2,1.2-3.5,1.2c-1.5,0-2.7-0.4-3.5-1.2c-0.8-0.8-1.3-2-1.3-3.4
		c0-1.5,0.4-2.6,1.3-3.4c0.8-0.8,2-1.2,3.5-1.2c1.5,0,2.7,0.4,3.5,1.3C156.1,37.9,156.5,39.1,156.5,40.5z M153,42.6
		c0.2-0.2,0.3-0.5,0.4-0.8c0.1-0.3,0.1-0.8,0.1-1.3c0-0.5,0-0.9-0.1-1.3s-0.2-0.6-0.4-0.8c-0.2-0.2-0.4-0.4-0.6-0.5
		c-0.2-0.1-0.5-0.1-0.8-0.1s-0.5,0-0.7,0.1s-0.4,0.2-0.6,0.4c-0.2,0.2-0.3,0.5-0.4,0.8s-0.2,0.8-0.2,1.3c0,0.5,0,0.9,0.1,1.2
		c0.1,0.4,0.2,0.6,0.4,0.8c0.2,0.2,0.4,0.4,0.6,0.4s0.5,0.1,0.8,0.1c0.3,0,0.5,0,0.7-0.1C152.7,43,152.9,42.8,153,42.6z"/>
</g>
</svg>
