<?xml version="1.0" encoding="utf-8"?>
<!-- Generator: Adobe Illustrator 19.1.0, SVG Export Plug-In . SVG Version: 6.00 Build 0)  -->
<svg version="1.1" id="Layer_1" xmlns="http://www.w3.org/2000/svg" xmlns:xlink="http://www.w3.org/1999/xlink" x="0px" y="0px"
	 viewBox="0 0 162 74.7" enable-background="new 0 0 162 74.7" xml:space="preserve">
<g>
	<g>
		<rect x="10" y="16.2" fill="#00C2B4" width="140.3" height="44.8"/>
		<g>
			<path fill="#20CABE" d="M148.3,61c0.3,0.2,0.8,0.1,0.7-0.5l-1-0.4L148.3,61z"/>
			<path fill="#20CABE" d="M150.1,57.4c-0.5-0.6-1.3-1.4-2.2-1c1,0.6,0.6,0.8,1.7,1.5c0.1,0.5-0.3,0.9-0.7,0.8
				c0.3,0.2-0.2,0.8,0.4,1.1c0.8-0.7,0.8-1.6,0.2-2.5C149.7,57.2,150,57.4,150.1,57.4z"/>
			<path fill="#20CABE" d="M139,14.8l0.3,0.1C139.3,14.9,139.1,14.9,139,14.8z"/>
			<path fill="#20CABE" d="M106.5,14.3c0.2,0,0.4-0.1,0.4-0.2C106.6,14.1,106.4,14.2,106.5,14.3z"/>
			<path fill="#20CABE" d="M100.9,13.2c0.1,0,0.2,0,0.3,0.1C101.1,13.1,101,13.1,100.9,13.2z"/>
			<path fill="#20CABE" d="M139,14.8l-0.9-0.3C138.1,14.9,138.6,14.8,139,14.8z"/>
			<path fill="#20CABE" d="M147.8,50.2c0,0.2,0.1,0.3,0.3,0.5c0-0.1-0.1-0.3-0.1-0.4C147.9,50.2,147.8,50.2,147.8,50.2z"/>
			<path fill="#20CABE" d="M152.5,18.4l0,0.4c0.1,0.1,0.2,0.1,0.4,0.2c0,0-0.1-0.2-0.2-0.3C152.6,18.6,152.5,18.4,152.5,18.4z"/>
			<path fill="#20CABE" d="M152.7,30.3c0-0.2-0.8-0.3-1.2-0.4c0.3,0.1,0.5,0.3,0.6,0.5C152.2,30.4,152.4,30.3,152.7,30.3z"/>
			<path fill="#20CABE" d="M151.2,47.7l0.1,0.3C151.3,47.9,151.2,47.8,151.2,47.7z"/>
			<path fill="#20CABE" d="M145.5,13.9c0-0.1-0.1-0.2-0.1-0.3C145.4,13.7,145.4,13.8,145.5,13.9z"/>
			<path fill="#20CABE" d="M137.5,57c0,0.1,0,0.1,0,0.2C137.6,57.1,137.6,57,137.5,57z"/>
			<path fill="#20CABE" d="M150.3,61.2l-0.2,0c0,0.2,0,0.3,0,0.5L150.3,61.2z"/>
			<path fill="#20CABE" d="M90.8,12.1C90.8,12.1,90.8,12.1,90.8,12.1C91.1,12,90.9,12,90.8,12.1z"/>
			<path fill="#20CABE" d="M6.6,28.7c0.8-1.1,1,1.7,1.8,0.1C8,29,7,27.4,6.6,28.7z"/>
			<path fill="#20CABE" d="M147.9,49.9c0-0.1,0-0.3,0-0.5C147.8,49.6,147.8,49.8,147.9,49.9z"/>
			<path fill="#20CABE" d="M8.4,28.8L8.4,28.8l0.1-0.2C8.4,28.7,8.4,28.8,8.4,28.8z"/>
			<path fill="#20CABE" d="M67.4,12.6c0,0.1,0.1,0.3,0.2,0.4C67.6,12.9,67.5,12.7,67.4,12.6z"/>
			<path fill="#20CABE" d="M84.8,13.8l-0.4-0.1C84.5,13.7,84.7,13.8,84.8,13.8z"/>
			<path fill="#20CABE" d="M58.3,13.8c-0.2-0.1-0.3-0.2-0.6-0.1c0,0,0.1,0.1,0.1,0.1C57.9,13.7,58,13.6,58.3,13.8z"/>
			<path fill="#20CABE" d="M48.9,13.7c0,0.1,0.1,0.1,0.2,0.2c0.1,0,0.2,0,0.3,0L48.9,13.7z"/>
			<path fill="#20CABE" d="M108.9,57.4c0.2,0.2,0.3,0.5,0.4,0.8C109.2,57.6,110.6,57.4,108.9,57.4z"/>
			<path fill="#20CABE" d="M148.2,50.2c-0.2-0.1-0.3-0.1-0.4-0.3c0,0.1,0,0.2,0,0.3C148,50.2,148.2,50.2,148.2,50.2z"/>
			<path fill="#20CABE" d="M57.9,20.4l-1.5-0.1C56.8,20.4,57.4,20.4,57.9,20.4z"/>
			<path fill="#20CABE" d="M41.3,57.5l0.3-0.1C41.5,57.4,41.4,57.4,41.3,57.5z"/>
			<path fill="#20CABE" d="M52,20.4c-0.3-0.3-0.6-0.5-0.8-0.6C51.1,19.9,51,19.9,51,20L52,20.4z"/>
			<path fill="#20CABE" d="M109.3,58.2L109.3,58.2L109.3,58.2z"/>
			<path fill="#20CABE" d="M119.2,56.2c-1.4,0-0.7,1.1-1,1.7c-1.7,0.3-0.8-0.8-1.4-1.4c-1.1,0.3-1.9,1.3-2.7,1.3
				c-0.1-0.2-0.2-0.2,0-0.5c-1.1,0.9-3.3,0-4.6,1.1c-0.1-0.1-0.1-0.2-0.2-0.3c0.2,0.6,0.2,1.1,0.2,1.5c-0.6,0-1.2,0.7-1.4,0
				c0.4,0,0.4-0.3,0.6-0.5l-0.7,0.3c-0.6-1,0.9-0.4,0.9-1.1c-1.3,0.3-2.8,1.2-3.8,0.9c-0.2-1,2.3-0.3,1-1.2l1.5,0.4
				c-1.2-1.6,0.9,0.1-0.1-1.6c-2-0.3-2.3,0.5-4.3,0.2c-0.5,0.6,0.2,0.8-0.3,1.4c-2.9,1-2.3-2.6-4.4-1.2c-0.6,0.7-0.8,2-2.3,1.3
				l0.5-1.2c-2-0.1-1.1,1.7-3.2,0.9c0.4-0.5,1.6-0.4,1.3-0.5c-1.3-0.9-0.9,0.7-2,0.7l-0.2-1c-2.1,0.2-4.4,0.9-6.7,1.1
				c0.1-0.3,0.5-0.6,0-0.9c-2.9,0.5-6.3-0.1-9.1-0.7l-1.1,0.9c-0.3,0-0.5-0.4-0.2-0.6c-1.1-0.3-0.1,0.6-0.6,0.9
				c-0.6,0.1-0.8-0.5-0.4-0.8c-1.9,0.7-5.6,1.6-7.6,0.7l0.4-0.3c-1.6-0.4-1.8,1.8-3.3,1l0.3-0.2c-3.5-0.4-7.3,0.4-9.9-0.9
				c-0.5,1.3-3.4-0.6-3.7,1.2c-2-0.9-1.4-1.2-4.2-1.8c-0.7-0.1-1.1,1.1-2,1.3l0-0.9l-1.3,1l-0.7-1.1l-0.9,0.2
				c0.3,0.1,0.7,0.4,0.7,0.7C41,58.5,39,57.4,39,56.9l-3.2,0.8c0.1-0.4,0.6-0.5,1-0.7c-1.7,0.9-0.3-1-1.9-0.1
				c0.2,0.2-0.1,0.6-0.1,0.7c-0.8-0.6-2.5-0.6-3.9-0.3l0.3-0.6c-2.4-0.2-5,0.3-7.6,0.3c1,0.3,0.7,1.4,0,1.5l-0.3-1
				c-0.5,0.6,0.8,0.4-0.2,1.1c-1-0.1-0.7-1.1-0.1-1.4l-1.2,0.3c-0.1-0.3,0.2-0.4,0.3-0.8c-0.5,0.6-2.1-1-2.8,0.1l-0.1-0.3
				c-1.3,0-2.3,0.1-3.2,0.2c-0.2,0-0.4,0-0.7,0.1l-0.3,0l-0.1,0c-0.1,0-0.2,0.1-0.2,0.1c-0.3,0.8-0.5,0.7-1.2,1.3
				c-0.2-0.1-0.3-0.2-0.3-0.3c0.3-0.7,0.6-1.2,0.5-1.5c-0.2-0.1-0.4-0.2-0.6-0.2c-0.2,0-0.4,0.1-0.6-0.1c0.8,0,0.7-2,1.2-1
				c-0.1-2.3-0.2-2.9-0.8-5.8c-0.3,0.3-0.5,0.7-0.7,0.5c-0.1-0.5,0.3-1.2,0.7-1.1l0.1,0.1c-1.2-3.3,2.2-7.5,0.6-10.1l0.1,0.1
				l-0.8-2.7c0.1-1.2,0.6,0.7,1.1-0.2c-1.3-2.9,0.2-4.6-0.7-7c1.1-0.9,1.1-2.6,1-4.3C14.1,23.8,14,22.9,14,22c0-0.2,0-0.4,0-0.6
				l0-0.3c0-0.1,0-0.2,0-0.2c0.1-0.1,0.2-0.1,0.4-0.1L14,20.8c-0.5-0.3,0.3-0.1,0.4,0c-0.4-0.2-0.5-0.1-0.8-0.3
				c-0.1-0.3-0.2-0.6-0.2-0.9c0.3,0,0.7,0.1,1.1,0.2c0.1,0,0.2,0.1,0.2,0.1l0.1,0c0.1,0,0.3,0,0.4,0l1.8,0.2c2.4,0.3,4.7,0.7,7,0.9
				c2.1,0.1,1.2-2.8,3.8-1.5l-0.7,1c4.1-1.2,8.5,0,12.5-1c-0.2,0.2-0.2,0.5-0.6,0.5c0.9,0.7,3.2,0,3.2-0.5c0.6,0.1,0.1,0.5,0.5,0.8
				c0.9,0.4,2.2-0.9,2.6-0.2c0.1,0.1-0.2,0.2-0.4,0.3c0.6-0.3,2.6,0.1,2.1-0.7c1.5,0.4,2.9-0.4,4.1,0.1c0.8-0.9,2.6,0.4,2.9-0.9
				c-0.1,1.4,2.7,1.1,3.6,0.5c-0.3,0.4,0.8,0.4,0.5,1c1.1,0,2.1-0.3,1.9-1c2,1.6,4.1-1.3,5.2,0.8c3.3-0.7,6.3-1.2,9.2-1.5
				c-0.1,1.4-3.2,0.1-3.1,1.6c2.8-0.6,4.4-1.7,7.2-1.4c0.7,0.2-0.4,0.6-0.6,0.8c2.8-0.6,5.4,0.1,7.9-0.6c0,0.1-0.3,0.3-0.5,0.4
				c0.5,0,1.1,0.2,1.1-0.4l-0.5,0.2c-0.8-0.9,1.9-1.9,2-2.3c-0.8,1.8,2.4,0.4,1.1,2.7c0.3-0.1,0.7-0.4,0.7-0.8
				c0.5,0.1,0.6,0.4,0.1,0.8c1.7-0.3,1.1-1,2.7-1c0,0.3-0.3,0.4-0.5,0.8c0.8-0.6,1.6-1.2,2.9-0.9c-0.1,0.2,0.1,0.4-0.3,0.4
				c2.3-0.1,3.9-1.5,6.4-1c-0.7,1.3,0.9,0.4,1,1.5l1.4-0.3l-0.5-0.5c1.2,0,2.2-0.8,3.3-0.4l-0.9,0.5l2.2-0.2l-1.3-0.4
				c1.2-0.6-0.1-1.4,1.5-1.1c-0.3,0.1,1.2,0,1.8,0.7l0,0c0.6-0.4,1.2-0.7,2.1-0.5c0.2,0.4-0.2,1.2,0,1.5c0.6-0.9,2.8-0.3,3.5-1.3
				c-0.2,0.2-0.3,0.8-0.2,0.9l0.5-0.8c0.6,0.2,0.6,0.4,0.5,0.8c1.7,0.1-0.5-1.4,1.4-0.8c-0.2,0.1-0.1,0.2-0.4,0.3
				c2,0.3,3.8-0.5,5.6-0.1c0.5,1.1-1.6,0.3-1,1.2c2.6-0.2,5.4-1.3,7.9-1.1l-0.5-0.1c0.4-1.6,1.9,0.8,3.2,0c-0.3,0.1-0.4,0.9-0.3,0.7
				c1.7,0.3,3.5-0.4,6.2-0.9l-0.3,0.4c1,0.4,2.7,0.2,3.8,0.4c0.3-0.4,1-0.3,0.6-0.9c3.2,2,5.1-0.4,7,0.2c-0.1,0.4-0.3,0.8-0.5,1.2
				c0-0.2-0.4-0.2-0.4,0c0,0,0.1,0.3,0.2,0.6c0.1,0.3,0.2,0.7,0.2,0.7c0.7-0.4,0.4-0.4,1-1.1c0.4,0,0.7,0.6,0.7,1.3
				c-0.2-0.5-0.5-0.4-0.8-0.2c-0.3,0.2-0.5,0.6-0.7,0.8c0.2-0.1,0.4,0,0.7,0c-0.3,0.3-0.4,0.5-0.3,0.6c0.1,0.1,0.2,0.2,0.4,0.2
				c0.4,0.1,0.8,0.3,0.4,1.2l-0.4-0.1c0.2,0.7,0.7,1.3,0.6,2.1c-0.8,0.3-0.4-0.7-1-0.8c0,1,1.5,2.1,0.7,3c-0.2-0.4-0.2-1.1-0.4-1.5
				c-0.9,1-0.7,1.1-0.9,1.9l0-0.1l-0.4,1.8l0.3-0.4c2.1,1.3,0.4,2.6,1.7,4.4c-1.3-1.7-0.7-0.3-1.7-0.4c-0.3,0.4-0.5,1.1-0.8,0.9
				c0.7,0.8-0.6,1.4,0.5,2.6c-0.3,0.1,0,0.9-0.8,0.7c0.2,1.1,0.5-0.3,0.9-0.2c1,1.7-1.2,3.9,0.2,6.3c0.6,2.1,1.5,2.4,2,4.3
				c-0.5,0.6-1.1-0.5-1.1-0.5c-0.4,1-0.4,1.8,0,2.8c-0.3-0.2-0.5,0-0.8,0.3c0.1,0.8,1.1,0.5,0.6,1.6c-0.3-0.2-0.8-0.4-1.2-0.8
				c0.3,0.9,0.8,1.8,1.1,2.8c-0.5,0.3-0.8-0.6-1.1-0.9c0.2,1.1,0.5,2.8,1.3,3.1l0.3-0.7c0,0.4-0.7,0.2-0.8-0.1
				c-0.6-0.9,0.3-1.3,0.6-1.4l0.2,0.7c1.7-0.7-0.3-2.7-0.2-4.1l1.2,0.6l-1-1.4c0.3-0.3,1-0.5,1.2,0.2c0.6-1-0.4-0.9,0.2-1.7
				c0.1-0.1,0.2-0.1,0.2,0l-0.4-1c0.3,0.2,0.9-0.2,0.7,0.4c0.7-1.7-0.9-2.8,0-3.4l0.1,0.1c-0.4-2.4-0.9-0.2-2-2l2.3-1.2l-0.9-0.2
				c0-0.2,0.1-0.7,0.5-0.6c-0.6-0.9-0.4,0.2-1-0.4c0.8-1.2-0.4-3.3,1.1-3.6c-0.7-0.4-0.5,1.1-1-0.1c1.6-0.4-0.3-1.5,0.5-2.6
				c0.8,0.3,0.4,1.4,1.1,0.3c-1.4-0.7,0.3-2.1,0-3c-1.1,0-0.5-2-0.8-3.5c0.4,0.1,0.6-2.9,1-4.3l0.2,0c-0.6-0.1-0.8-0.6-0.9-1.1
				c-0.1-0.2-0.1-0.6-0.1-1c0-0.4-0.1-0.7-0.1-1c0.7-0.1,0.9,0,1.2,0.8l0-1.5c-0.4-0.2-0.5-0.6-0.7-1.4c0,0,0.2,0,0.4-0.1
				c0.2,0,0.4,0,0.4,0c0-1.1-0.3-2-0.5-3c-1,0.1-2,0.2-2.9-0.1c-0.3,0.4-0.1,0.9-0.3,1.4c-0.2,0.5-0.6,1-1.5,1.2
				c0.1-0.4,0.4-1.1,1-1.3c-0.2,0.1-0.8,0.3-1,0.2c0,0,1.1-0.7,1.1-0.7c-0.8-0.3-0.8,0.6-1.4,0.5c0.2-0.6-0.4-0.4-0.2-0.9
				c0.2-0.1,0.6,0.2,1,0c-0.9-0.1-2-0.5-2.4-0.9c0.1,0.3,0,0.8-0.5,0.9c-1.3,0-0.5-0.7-1.2-1c-0.3,0.4-1.2,0-1.2,0.9
				c-0.4,0-0.5-0.4-0.6-0.7c-0.7,0.4-3.3,0.1-2.5,1.1l0.2,0.1c0,0-0.1,0-0.1,0c0,0,0,0,0,0h0c-2.3,0.9-4.7-0.5-7-0.1l0-0.3
				c-1.4,0.3-3,0.2-4,0.8c-0.4,0-0.9-0.5-0.8-0.9c-1,0.2-1.2,0.6-2.6,0.1c1-0.5-0.4-0.5,1.1-0.4c-1.3-0.3-1.6-0.7-3.1,0.1
				c0.5-0.8-1-1-1.6-0.7l0.9,0.5c-0.7,0.1-1.3,0-2,0l0.3-1c-2.7-1.2-5,2.1-7.1,0c-0.7,0.7,1.5,0.5,0.8,1.3c-1.3-0.1-2.6-1.6-3-1.6
				c-1.7-0.6-1.6,1.5-3.4,1.1c0.2,0.4,0.4,1.3-0.9,1.6c-1.3-0.1-1.6-1.5-0.8-1.8c0.3,0,0.4,0.1,0.4,0.2c0.4-0.1,0.9-0.3,0.4-0.7
				l-0.2,0.4c-0.6-0.4-2.4-0.3-2-0.9c-1,0.3-0.4,0.6,0.3,0.8c-1.6-0.5-2.5,0-4.2-0.4c0.3,0.2,0.5,0.6,0.2,0.6
				c-2.5-0.4-1.1,0.7-2.7,0.8c-0.9-0.5,0.3-1.3-1.3-0.8c-1-0.4-0.2-0.9,0.2-1.2c-1.5,0.7-2.8-0.5-3.7-0.6l0.8-0.3
				c-0.5,0.2-0.9,0.2-1.3,0.2l0.5,0.7c-0.5-0.1-0.9-0.1-0.9-0.4c-0.5,0.5,0.4,1.2-0.6,1.8c-0.6-0.4-1.9,0.4-2.1-0.6
				c2,0.3-0.2-0.9,1.5-1.1c-0.3,0.1-0.7,0.1-1.2,0c-0.1-0.1,0.1-0.2,0.2-0.2c-1.9-0.8-0.9,1.1-2.8,1c0.2-0.5-0.5-1-0.8-0.9
				c0.8,0,0.4,0.9-0.3,1.3c-1.3-0.4-1.4,0.3-2,0.3l0.8,0.2c-0.3,0.5-0.9,0.5-1.8,0.6c-0.1-0.4,0.8-0.3,0.5-0.5c-1,0.9-2.2-1-3.6-0.3
				c-0.6-0.4-0.1-1-0.6-1.2c-1.5,0.7-1.6-0.7-3.2-0.2c0.5,0.7,0.5,0.5-0.6,1.2l2.6-0.5l-1.7,1c0.8,0,1.7-0.4,2.1-0.3
				c-0.8,0.6-0.7,0.4-0.3,1c-1.1-1.1-2.1,0.6-3.4-0.1l0-1.8c-1.9-0.8-3.3,0.9-5.8,0.5l0.8,0.3c-0.3,0.7-1.5,0.1-2.3,0.4
				c0.1-0.6-0.4-0.8-0.8-1.2c0,0.4-1.8,0-2,1.1l-1.1-0.8c-2-0.3-2.3,1.7-4.2,1.5c0.6-0.6-0.3-1.1,1-1.5c-0.6,0-1.2-0.1-1.2,0.3
				c-0.4-0.4-1.8,0.8-2.3,0.2c-0.3,0.3-0.4,0.9-1.1,0.8c-0.1-0.1,0-0.3,0-0.3c0,0.3-1.1,0.4-0.5,1.1c-2-1.8-5.5,0.1-7.2-1.5
				c-1.4,0.2-3.1,0.4-4.3,0.4c0.1-0.2,0-0.3,0.2-0.2c-1.7-0.6-1.1,1.7-3,1.1c-1-1,1-0.5,0.4-0.9c-0.3-1.9-2.4,0.3-3.7-0.9l0.3-0.1
				c-1-0.7-2.5,0.7-4.1,0.6c0,0,0.1-0.2,0-0.3c-1.1,1-3.3,1.3-4.9,1.6c0.5-0.8,0.7-0.4,0.4-1.2c-0.7,0.1,0.2,1.2-1.2,1.5
				c-0.5-0.4-1.5-0.8-1.6-1.6l1.3,0c-0.7-1.1-1.7,0-2.5-0.2l0.1-0.5c-2.1,0.2-2.1,1.3-4.3,1.2l0.2,0.4c-1.2,1.2-1-0.7-2.2,0.2
				l-0.4-1.2c-0.8,0.3-2.8,1.1-4.2,1.4c0.8-0.9,2.5-1.3,3.5-1.8c-0.8,0-2.7,0.1-3.1,0.7c0.3-0.1,0.7-0.4,1-0.2c-0.5,0.5-1,0.8-1.7,1
				c-0.2,0.1-0.3,0.1-0.5,0.1c-0.2,0-0.4,0.1-0.6,0.1c-0.4,0.1-0.9,0.1-1.3,0.1c-0.2-1.5-2.8-1.3-5.3-1.5c-0.1,1.2-0.3,2.2-0.9,2.5
				C7,17.5,7,18.7,7.1,19.8c0,1.3-0.1,1.8-0.2,2.6c-0.2,1.4-0.5,2.9-0.4,4.6c1.8-1.2,0,0.9,1.9,0.8c0.1,0.8,0.1,1,0,1.1l-1.1,2.3
				c-0.5,0.5-0.4-0.7-0.8-0.7c-0.1,1.7-0.8,0.7-1.3,1.8c0.7-0.2,0.9,0.6,0.7,1.5l0.8-1.3c1,2.3-1.5,2-0.6,4.3L5.6,36
				c0.3,1.2,0,4.4,1.5,5.6c-0.2,0.2-0.7,0.5-0.8,0C6,44.5,7.7,48,6.8,50.2L6.4,50c0.1,0.5,0.8,0.9,0.4,1.6c-0.2,0-0.4-0.2-0.5,0
				c0.2,0.3,0.8,1.4,0.5,2.1l-0.5-0.6c-0.1,0.7-0.1,1.3-0.1,1.9c0,0.3,0.1,0.6,0.2,0.8c0,0.1,0,0.1,0.1,0.2l0.1,0.3
				c0.1,0.2,0.1,0.4,0.2,0.6c0.4,1.7,0.9,2.9,1.1,4.4c-0.6,0.5-1,1.5-1.3,2.9c0.9,0.3,2.4,0.5,3.4,0.6l-0.2,0.2c1.5,0,3,0,4.3-0.1
				l0.5,0c0.2,0,0.3,0,0.4,0l0.5-0.1c0.3-0.1,0.7-0.2,1-0.2c1.4-0.4,2.7-0.8,4.2-1.1C22.6,65,27,64.2,30,65c-0.5-0.2,0.1-1,0.6-1.2
				c0.7,0.3,2-0.9,1.8,0.3l-0.3,0c0.5,1.2,2,0.9,3.1,0.9l0.2-1.6c3,2.3,7.8-0.8,9.4,1.2c0.7-0.4,1.6-0.4,2.3-0.8l0,0.8
				c2,0.2,3,0.3,5.4,0.1l-0.5,0.6c1.4,0.1,1.7-2.4,3-2.5l0.4,1.3c2.4,0,4.8,1.1,7.2-0.1c0,0.2-0.1,0.6-0.5,0.6c1.1,0,4.4,0.9,4-0.9
				c0,1.1,2.5,0.1,3.8-0.4l-0.2,0.8c1.1-1.1,1.1-1.4,2.7-1.7c0.4,0.1,0.3,0.7-0.2,0.5c1.2,0.4,0.9-0.8,2.4-0.3l-0.5,0.5
				c1.2,0.1,1.1-0.2,1.8-0.8c0.8-0.3,2.4,0.2,2.5,1c0.2-0.5,0.9-1.1,1.6-0.9c0.1,0.3-0.2,0.5-0.3,0.5c2.1,0.6,3.1-1,4.5-0.1
				c0,0.3,0.1,0.4,0.2,0.5c-1.7,0-3-0.1-2.9-0.1c0,0.8,1.3,0.9,0.3,2c1.1-0.6,2.9-1.8,4.2-1.5c0.1,0.1,0.1,0.1,0.2,0.3l-0.1,0.1
				c0.3,0.1,0.6,0,0.8-0.1c0.4,0.1,0.7,0.2,1.1,0.2c0.2,0.6,1.5,0.3,2.2,0.4c-0.1-0.8,0.8-0.7,0-1.4c0.1,0.1-0.1,0.1-0.6,0.1
				c-0.1,0-0.2,0-0.3,0.1c0,0,0,0,0-0.1c-0.4,0-1,0-1.7,0.1c0.5-0.4,1.1-0.8,1.8-0.3c0.3-0.5,0.7-1.1,0.9-1.4
				c0.9,1.2,2.7,1.8,2.9,2.5c2-0.5,4.8-0.3,6.1-1.9c0.6-0.2,0.7,0.5,0.9,0.7c-0.3,0.2-0.7,0.1-0.9,0.4c1.2-0.4,3.4-0.2,3.7-1.3
				c1.5,0.5-0.8,1,1.2,0.8l-0.3,0.3c3.9,1.8,6.4-2.8,10.8-0.5c-0.3-0.1-0.5-0.2-0.5-0.4c5,1,10.3-0.9,15.2,0.7
				c1.4,0.3,1.5-0.4,2.4-0.9l0.3,0.9l1.5-1c2.1-0.8,3.6,2.2,6.2,0.8l-0.3-0.6c0.9,0.1,3-0.4,2.8,0.3c0.1-0.1,0.3-0.6,0.7-0.3l0,0.5
				l2.3-0.8c1.8,0.3-0.3,1.9,2.3,2c1-0.2,2.8-1.4,2.4-1.7c-0.4,0-1-0.3-1-0.8l0.9-0.2c0.2-1.4,0.8-2.8-1.3-3.8l-1.5,0.9l-0.5-0.7
				l1.3,0c-0.7-0.6-1.2-0.1-1.7,0.3c-0.1-0.4-0.3-0.6-0.6-0.7l-1.5,1.3c-0.2-0.5,0.7-1.1-0.3-1.4c-0.7,0.6,0.7,1.2-0.5,1.6
				c-0.7-0.6-0.5-1.2-1.4-0.6c-0.1-0.4,0.1-0.6,0.4-0.7c-0.8,0.4-2,0.2-2.4,0.9c-0.8-0.8-2.6,0.2-2.5-1.1c-0.2,0.3-1.3,1-2,1.1
				c1.3-1.6-2.6-0.1-2.3-1.8c-0.9,1.4-3.4,0.6-5.1,1.4c0.1-0.1,0.3-0.3,0.4-0.3c-0.9-0.1-1.2-0.5-1.8-0.8c-0.1,1.2-1.6,1.4-2.4,2.2
				c-1.2-1.1,0.7-1.4,0.3-2.5c0.1,1-2,0.9-1.6,1.7c-0.9-0.7-0.8-0.3-1.2-1.3c-0.2,1.5-0.8,0.2-1.6,1.2c-1.3-0.7-0.3-1.4-1.7-0.9
				C118,56.7,119.2,56.2,119.2,56.2z M85.9,58.7C85.9,58.7,85.9,58.7,85.9,58.7c0.3,0,0.5-0.1,0.7-0.1
				C86.4,58.7,86.2,58.7,85.9,58.7z M83.1,58.7c0.3,0,0.8,0,1.2,0c0.1,0.3,0,0.6-0.3,0.6C84.2,59.1,83.5,59,83.1,58.7z M89,64.6
				c-0.4,0.1-0.6,0-0.7-0.2c0.2,0,0.5,0,0.8-0.1c0,0,0-0.1,0.1-0.1C89.1,64.3,89.1,64.5,89,64.6z"/>
			<path fill="#20CABE" d="M89.8,63.5c0.1,0,0.1-0.1,0.2-0.1c-0.1-0.1-0.2-0.1-0.3-0.2c-0.1,0.1-0.1,0.2-0.2,0.3
				C89.6,63.5,89.7,63.5,89.8,63.5z"/>
			<path fill="#20CABE" d="M139.4,15L139.4,15c0,0,0,0,0.1,0.1C139.4,15,139.4,15,139.4,15z"/>
			<polygon fill="#20CABE" points="44.4,57.1 44.4,57.3 44.6,57.1 			"/>
			<path fill="#20CABE" d="M148.7,20.9c-0.1,0-0.2,0.1-0.2,0.1C148.5,21,148.6,20.9,148.7,20.9z"/>
			<path fill="#20CABE" d="M148.5,27.4l-0.3,0.9C148.4,27.9,148.4,27.6,148.5,27.4z"/>
			<path fill="#20CABE" d="M148.1,32.5c0.1,0.1,0.3,0.1,0.4,0.1l0,0L148.1,32.5z"/>
			<path fill="#20CABE" d="M85.2,19.4c-0.1,0-0.1,0-0.2,0C84.5,19.6,84.8,19.6,85.2,19.4z"/>
			<path fill="#20CABE" d="M109.4,17.5c-0.3,0.2-0.5,0.3-0.8,0.4C109,17.9,109.4,18,109.4,17.5z"/>
			<path fill="#20CABE" d="M58.1,20.4C58.1,20.4,58.1,20.4,58.1,20.4c-0.1,0-0.1,0-0.2,0L58.1,20.4z"/>
			<path fill="#20CABE" d="M107.5,17.9c0.4,0.2,0.8,0.1,1.1,0C108.3,17.8,107.8,17.7,107.5,17.9z"/>
			<path fill="#20CABE" d="M147.7,54.7l0,0.2c0.1,0,0.1,0,0.1,0L147.7,54.7z"/>
			<path fill="#20CABE" d="M147.8,55l0.1,0.3C147.9,55.2,147.9,55,147.8,55z"/>
			<path fill="#20CABE" d="M148.1,55.9l-0.2-0.6C147.9,55.5,147.8,55.7,148.1,55.9z"/>
			<path fill="#20CABE" d="M148.1,47.9l-0.3-0.1C147.8,47.9,147.9,47.9,148.1,47.9z"/>
			<path fill="#20CABE" d="M148,45.9c-0.1,0.5-0.7,1.2-0.5,1.9l0.2,0.1C147.3,47.5,148.5,46.4,148,45.9z"/>
			<path fill="#20CABE" d="M151.8,37.3l-0.2,1.7c0.3-0.3,0.8-0.7,0.8,0.1C153.3,36.9,151.6,39.5,151.8,37.3z"/>
			<path fill="#20CABE" d="M152.2,31.9c0.2,0.9,0.5,0,0.7,0C152.6,31.4,152.5,31.2,152.2,31.9z"/>
			<path fill="#20CABE" d="M127.3,14.3l0.1-0.8C126.7,13.6,127.4,13.8,127.3,14.3z"/>
			<polygon fill="#20CABE" points="119.9,18.3 120.6,18.7 120.9,18 			"/>
			<polygon fill="#20CABE" points="115.6,12.8 115.9,12.7 114.7,13 			"/>
			<path fill="#20CABE" d="M50.6,13l0.2,0.9C51.3,13.8,51.4,12.7,50.6,13z"/>
			<path fill="#20CABE" d="M22.5,13.9c-0.3-0.5-1.1-0.8-1.6-0.3C21.6,13.7,22.2,14.1,22.5,13.9z"/>
			<polygon fill="#20CABE" points="37,64.6 36.4,65 37.5,64.7 			"/>
		</g>
	</g>
</g>
<g>
	<path d="M41,35.5c-0.9,0-1.7-0.1-2.4-0.4s-1.4-0.6-1.9-1.1s-0.9-1.1-1.2-1.9c-0.3-0.8-0.4-1.6-0.4-2.6c0-0.9,0.1-1.8,0.4-2.5
		c0.3-0.7,0.7-1.4,1.2-1.9c0.5-0.5,1.1-0.9,1.9-1.2c0.7-0.3,1.6-0.4,2.4-0.4c0.5,0,0.9,0,1.3,0.1s0.8,0.1,1.1,0.2
		c0.3,0.1,0.7,0.2,0.9,0.3c0.3,0.1,0.5,0.2,0.7,0.3l0,2.8l-0.3,0c-0.1-0.1-0.3-0.3-0.6-0.4c-0.2-0.2-0.5-0.3-0.8-0.5
		c-0.3-0.2-0.6-0.3-0.9-0.4s-0.7-0.2-1.1-0.2c-0.4,0-0.8,0.1-1.2,0.2c-0.4,0.1-0.7,0.4-1.1,0.7c-0.3,0.3-0.6,0.7-0.7,1.2
		c-0.2,0.5-0.3,1.1-0.3,1.8c0,0.7,0.1,1.3,0.3,1.8c0.2,0.5,0.5,0.9,0.8,1.2c0.3,0.3,0.7,0.5,1.1,0.6c0.4,0.1,0.8,0.2,1.2,0.2
		c0.4,0,0.7-0.1,1.1-0.2s0.7-0.3,1-0.4c0.3-0.2,0.5-0.3,0.7-0.5c0.2-0.2,0.4-0.3,0.5-0.4l0.3,0l0,2.8c-0.3,0.1-0.6,0.3-0.8,0.4
		c-0.3,0.1-0.5,0.2-0.8,0.3c-0.4,0.1-0.7,0.2-1.1,0.2C42,35.4,41.5,35.5,41,35.5z"/>
	<path d="M56.1,30.9c0,1.4-0.4,2.6-1.3,3.4c-0.8,0.8-2,1.2-3.5,1.2c-1.5,0-2.7-0.4-3.5-1.2c-0.8-0.8-1.3-2-1.3-3.4
		c0-1.5,0.4-2.6,1.3-3.4c0.8-0.8,2-1.2,3.5-1.2c1.5,0,2.7,0.4,3.5,1.3C55.7,28.3,56.1,29.4,56.1,30.9z M52.6,33
		c0.2-0.2,0.3-0.5,0.4-0.8c0.1-0.3,0.1-0.8,0.1-1.3c0-0.5,0-0.9-0.1-1.3c-0.1-0.3-0.2-0.6-0.4-0.8c-0.2-0.2-0.4-0.4-0.6-0.5
		c-0.2-0.1-0.5-0.1-0.8-0.1s-0.5,0-0.7,0.1c-0.2,0.1-0.4,0.2-0.6,0.4c-0.2,0.2-0.3,0.5-0.4,0.8c-0.1,0.4-0.2,0.8-0.2,1.3
		c0,0.5,0,0.9,0.1,1.2c0.1,0.4,0.2,0.6,0.4,0.8c0.2,0.2,0.4,0.4,0.6,0.4c0.2,0.1,0.5,0.1,0.8,0.1c0.3,0,0.5,0,0.7-0.1
		C52.3,33.3,52.5,33.2,52.6,33z"/>
	<path d="M66.9,35.3l-2.8,0l0-4.4c0-0.4,0-0.7-0.1-1.1c0-0.4-0.1-0.6-0.2-0.8c-0.1-0.2-0.3-0.3-0.5-0.4c-0.2-0.1-0.5-0.1-0.8-0.1
		c-0.3,0-0.5,0-0.8,0.1c-0.3,0.1-0.5,0.2-0.9,0.4l0,6.2l-2.8,0l0-8.8l2.8,0v1c0.5-0.4,1-0.7,1.4-0.9c0.5-0.2,1-0.3,1.5-0.3
		c0.9,0,1.7,0.3,2.2,0.8c0.5,0.6,0.8,1.4,0.8,2.5L66.9,35.3z"/>
	<path d="M78.5,30.9c0,1.4-0.4,2.6-1.3,3.4c-0.8,0.8-2,1.2-3.5,1.2c-1.5,0-2.7-0.4-3.5-1.2c-0.8-0.8-1.3-2-1.3-3.4
		c0-1.5,0.4-2.6,1.3-3.4c0.8-0.8,2-1.2,3.5-1.2c1.5,0,2.7,0.4,3.5,1.3C78.1,28.3,78.5,29.4,78.5,30.9z M75,33
		c0.2-0.2,0.3-0.5,0.4-0.8c0.1-0.3,0.1-0.7,0.1-1.3c0-0.5,0-0.9-0.1-1.3c-0.1-0.3-0.2-0.6-0.4-0.8c-0.2-0.2-0.4-0.4-0.6-0.5
		s-0.5-0.1-0.8-0.1s-0.5,0-0.7,0.1c-0.2,0.1-0.4,0.2-0.6,0.4c-0.2,0.2-0.3,0.5-0.4,0.8c-0.1,0.4-0.2,0.8-0.2,1.3
		c0,0.5,0,0.9,0.1,1.2c0.1,0.4,0.2,0.6,0.4,0.8c0.2,0.2,0.4,0.4,0.6,0.4c0.2,0.1,0.5,0.1,0.8,0.1c0.3,0,0.5,0,0.7-0.1
		C74.7,33.4,74.9,33.2,75,33z"/>
	<path d="M85.1,35.5c-0.8,0-1.5-0.1-2.1-0.3c-0.6-0.2-1.2-0.5-1.7-0.8c-0.5-0.4-0.8-0.9-1.1-1.4c-0.3-0.6-0.4-1.3-0.4-2
		c0-0.8,0.1-1.5,0.4-2.1c0.3-0.6,0.7-1.1,1.1-1.5c0.5-0.4,1-0.6,1.6-0.8c0.6-0.2,1.3-0.3,1.9-0.3c0.6,0,1.2,0.1,1.7,0.2
		c0.5,0.1,1,0.3,1.4,0.5l0,2.4h-0.4c-0.1-0.1-0.2-0.2-0.4-0.3c-0.2-0.1-0.3-0.2-0.6-0.4c-0.2-0.1-0.4-0.2-0.7-0.3s-0.6-0.1-0.9-0.1
		c-0.7,0-1.3,0.2-1.7,0.7c-0.4,0.5-0.6,1.1-0.6,1.9c0,0.8,0.2,1.5,0.6,1.9s1,0.7,1.8,0.7c0.4,0,0.7,0,1-0.1s0.5-0.2,0.7-0.3
		c0.2-0.1,0.3-0.2,0.5-0.3c0.1-0.1,0.3-0.2,0.4-0.3H88l0,2.4c-0.4,0.2-0.9,0.4-1.4,0.5S85.6,35.5,85.1,35.5z"/>
	<path d="M98.5,31.4l-6.4,0c0,0.7,0.3,1.2,0.8,1.6s1.2,0.5,2.1,0.5c0.6,0,1.2-0.1,1.7-0.3c0.6-0.2,1-0.4,1.3-0.7h0.3l0,2.3
		c-0.6,0.3-1.2,0.4-1.8,0.6c-0.6,0.1-1.2,0.2-1.9,0.2c-1.8,0-3.1-0.4-4-1.2c-0.9-0.8-1.4-1.9-1.4-3.4c0-1.4,0.4-2.6,1.3-3.4
		c0.9-0.8,2.1-1.3,3.7-1.3c1.4,0,2.5,0.4,3.2,1.1c0.7,0.7,1.1,1.8,1.1,3.1L98.5,31.4z M95.8,29.8c0-0.6-0.2-1-0.4-1.3S94.6,28,94,28
		c-0.5,0-1,0.1-1.3,0.4s-0.5,0.7-0.6,1.3L95.8,29.8z"/>
	<path d="M114.6,31.4l-6.4,0c0,0.7,0.3,1.2,0.8,1.6c0.5,0.4,1.2,0.5,2.1,0.5c0.6,0,1.2-0.1,1.7-0.3c0.6-0.2,1-0.4,1.3-0.7h0.3l0,2.3
		c-0.6,0.3-1.2,0.4-1.8,0.6c-0.6,0.1-1.2,0.2-1.9,0.2c-1.8,0-3.1-0.4-4-1.2c-0.9-0.8-1.4-1.9-1.4-3.4c0-1.4,0.4-2.6,1.3-3.4
		c0.9-0.8,2.1-1.3,3.7-1.3c1.4,0,2.5,0.4,3.2,1.1c0.7,0.7,1.1,1.8,1.1,3.1L114.6,31.4z M111.8,29.8c0-0.6-0.2-1-0.4-1.3
		s-0.7-0.4-1.3-0.4c-0.5,0-1,0.1-1.3,0.4c-0.3,0.3-0.5,0.7-0.6,1.3L111.8,29.8z"/>
	<path d="M119.4,35.3l-2.8,0l0-12.2l2.8,0L119.4,35.3z"/>
	<path d="M25.9,44.7c0,0.7-0.1,1.4-0.3,2c-0.2,0.6-0.5,1.1-0.9,1.5c-0.4,0.4-0.8,0.7-1.3,0.9c-0.5,0.2-1,0.3-1.5,0.3
		c-0.5,0-0.9-0.1-1.3-0.2S20,49,19.6,48.8l0,3.7l-2.8,0l0-12l2.8,0l0,0.9c0.4-0.3,0.9-0.6,1.3-0.8c0.5-0.2,1-0.3,1.6-0.3
		c1.1,0,1.9,0.4,2.5,1.2C25.6,42.2,25.9,43.3,25.9,44.7z M23,44.8c0-0.9-0.1-1.5-0.4-1.9c-0.3-0.4-0.8-0.6-1.4-0.6
		c-0.3,0-0.5,0-0.8,0.1s-0.5,0.2-0.8,0.3l0,4.4c0.2,0.1,0.4,0.1,0.6,0.1c0.2,0,0.4,0,0.6,0c0.7,0,1.3-0.2,1.7-0.7
		C22.9,46.3,23,45.6,23,44.8z"/>
	<path d="M34.3,43.1h-0.2c-0.1,0-0.3-0.1-0.6-0.1c-0.3,0-0.5,0-0.7,0c-0.4,0-0.8,0-1.1,0.1c-0.3,0.1-0.6,0.1-1,0.3l0,5.9l-2.8,0
		l0-8.8l2.8,0l0,1.3c0.6-0.5,1.2-0.9,1.6-1.1s0.9-0.3,1.3-0.3c0.1,0,0.2,0,0.3,0c0.1,0,0.2,0,0.3,0L34.3,43.1z"/>
	<path d="M44.9,44.9c0,1.4-0.4,2.6-1.3,3.4s-2,1.2-3.5,1.2c-1.5,0-2.7-0.4-3.5-1.2s-1.3-2-1.3-3.4c0-1.5,0.4-2.6,1.3-3.4
		c0.8-0.8,2-1.2,3.5-1.2c1.5,0,2.7,0.4,3.5,1.3C44.5,42.3,44.9,43.4,44.9,44.9z M41.4,47c0.2-0.2,0.3-0.5,0.4-0.8
		c0.1-0.3,0.1-0.8,0.1-1.3c0-0.5,0-0.9-0.1-1.3c-0.1-0.3-0.2-0.6-0.4-0.8c-0.2-0.2-0.4-0.4-0.6-0.5c-0.2-0.1-0.5-0.1-0.8-0.1
		c-0.3,0-0.5,0-0.7,0.1c-0.2,0.1-0.4,0.2-0.6,0.4c-0.2,0.2-0.3,0.5-0.4,0.8c-0.1,0.4-0.2,0.8-0.2,1.3c0,0.5,0,0.9,0.1,1.2
		c0.1,0.4,0.2,0.6,0.4,0.8c0.2,0.2,0.4,0.4,0.6,0.4s0.5,0.1,0.8,0.1c0.3,0,0.5,0,0.7-0.1S41.3,47.2,41.4,47z"/>
	<path d="M51.5,49.5c-0.8,0-1.5-0.1-2.1-0.3c-0.6-0.2-1.2-0.5-1.7-0.8c-0.5-0.4-0.8-0.9-1.1-1.4c-0.3-0.6-0.4-1.3-0.4-2
		c0-0.8,0.1-1.5,0.4-2.1c0.3-0.6,0.7-1.1,1.1-1.5c0.5-0.4,1-0.6,1.6-0.8c0.6-0.2,1.3-0.3,1.9-0.3c0.6,0,1.2,0.1,1.7,0.2
		c0.5,0.1,1,0.3,1.4,0.5l0,2.4l-0.4,0c-0.1-0.1-0.2-0.2-0.4-0.3s-0.3-0.2-0.6-0.4c-0.2-0.1-0.4-0.2-0.7-0.3
		c-0.3-0.1-0.6-0.1-0.9-0.1c-0.7,0-1.3,0.2-1.7,0.7c-0.4,0.5-0.6,1.1-0.6,1.9c0,0.8,0.2,1.5,0.6,1.9c0.4,0.4,1,0.7,1.8,0.7
		c0.4,0,0.7,0,1-0.1c0.3-0.1,0.5-0.2,0.7-0.3c0.2-0.1,0.3-0.2,0.5-0.3c0.1-0.1,0.3-0.2,0.4-0.3l0.4,0l0,2.4
		c-0.4,0.2-0.9,0.4-1.4,0.5S52.1,49.5,51.5,49.5z"/>
	<path d="M65,45.4l-6.4,0c0,0.7,0.3,1.2,0.8,1.6c0.5,0.4,1.2,0.5,2.1,0.5c0.6,0,1.2-0.1,1.7-0.3s1-0.4,1.3-0.7h0.3l0,2.3
		c-0.6,0.3-1.2,0.4-1.8,0.6s-1.2,0.2-1.9,0.2c-1.8,0-3.1-0.4-4-1.2s-1.4-1.9-1.4-3.4c0-1.4,0.4-2.6,1.3-3.4c0.9-0.8,2.1-1.3,3.7-1.3
		c1.4,0,2.5,0.4,3.2,1.1C64.6,42,65,43,65,44.4L65,45.4z M62.2,43.7c0-0.6-0.2-1-0.4-1.3C61.5,42.1,61,42,60.4,42
		c-0.5,0-1,0.1-1.3,0.4c-0.3,0.3-0.5,0.7-0.6,1.4L62.2,43.7z"/>
	<path d="M75.5,49.3l-2.8,0l0-0.9c-0.5,0.4-0.9,0.7-1.4,0.9c-0.4,0.2-0.9,0.3-1.5,0.3c-1.1,0-1.9-0.4-2.6-1.2s-1-1.9-1-3.3
		c0-0.7,0.1-1.4,0.3-2c0.2-0.6,0.5-1.1,0.9-1.5c0.4-0.4,0.8-0.7,1.3-0.9c0.5-0.2,1-0.3,1.5-0.3c0.5,0,1,0.1,1.3,0.2
		c0.3,0.1,0.7,0.3,1,0.4l0-3.7l2.8,0L75.5,49.3z M72.7,46.8l0-4.3c-0.2-0.1-0.4-0.1-0.6-0.2c-0.2,0-0.4-0.1-0.6-0.1
		c-0.7,0-1.3,0.2-1.7,0.7c-0.4,0.5-0.6,1.1-0.6,1.9c0,0.9,0.1,1.5,0.4,1.9c0.3,0.4,0.8,0.6,1.4,0.6c0.3,0,0.5,0,0.8-0.1
		C72.2,47.1,72.4,47,72.7,46.8z"/>
	<path d="M81,39.2l-3,0l0-2.1l3,0L81,39.2z M81,49.3l-2.8,0l0-8.8l2.8,0L81,49.3z"/>
	<path d="M92.2,43.1l0,6.2l-2.8,0l0-4.4c0-0.4,0-0.8,0-1.1c0-0.3-0.1-0.5-0.2-0.7s-0.2-0.3-0.4-0.4s-0.5-0.1-0.8-0.1
		c-0.3,0-0.5,0.1-0.8,0.2c-0.3,0.1-0.5,0.2-0.7,0.4l0,6.2l-2.8,0l0-8.8l2.8,0l0,1c0.5-0.4,0.9-0.7,1.4-0.9c0.4-0.2,0.9-0.3,1.5-0.3
		c0.6,0,1.1,0.1,1.5,0.4c0.4,0.3,0.8,0.6,1,1.1c0.6-0.5,1.1-0.8,1.6-1.1c0.5-0.3,1.1-0.4,1.6-0.4c0.9,0,1.7,0.3,2.2,0.9
		c0.5,0.6,0.7,1.4,0.7,2.5l0,5.7l-2.8,0l0-4.4c0-0.4,0-0.8,0-1.1c0-0.3-0.1-0.5-0.2-0.7c-0.1-0.2-0.2-0.3-0.4-0.4
		c-0.2-0.1-0.5-0.1-0.8-0.1c-0.2,0-0.5,0-0.7,0.1C92.8,42.7,92.5,42.9,92.2,43.1z"/>
	<path d="M103.4,39.3l-3,0l0-2.1l3,0L103.4,39.3z M103.4,49.3l-2.8,0l0-8.8l2.8,0L103.4,49.3z"/>
	<path d="M114.6,45.4l-6.4,0c0,0.7,0.3,1.2,0.8,1.6c0.5,0.4,1.2,0.5,2.1,0.5c0.6,0,1.2-0.1,1.7-0.3c0.6-0.2,1-0.4,1.3-0.7h0.3l0,2.3
		c-0.6,0.3-1.2,0.4-1.8,0.6c-0.6,0.1-1.2,0.2-1.9,0.2c-1.8,0-3.1-0.4-4-1.2s-1.4-1.9-1.4-3.4c0-1.4,0.4-2.6,1.3-3.4
		c0.9-0.8,2.1-1.3,3.7-1.3c1.4,0,2.5,0.4,3.2,1.1c0.7,0.7,1.1,1.8,1.1,3.1L114.6,45.4z M111.9,43.8c0-0.6-0.2-1-0.4-1.3
		s-0.7-0.4-1.3-0.4c-0.5,0-1,0.1-1.3,0.4c-0.3,0.3-0.5,0.7-0.6,1.3L111.9,43.8z"/>
	<path d="M125.4,49.3l-2.8,0l0-4.4c0-0.4,0-0.7-0.1-1.1c0-0.4-0.1-0.6-0.2-0.8c-0.1-0.2-0.3-0.3-0.5-0.4c-0.2-0.1-0.5-0.1-0.8-0.1
		c-0.3,0-0.5,0-0.8,0.1c-0.3,0.1-0.5,0.2-0.9,0.4l0,6.2l-2.8,0l0-8.8l2.8,0l0,1c0.5-0.4,1-0.7,1.4-0.9c0.5-0.2,1-0.3,1.5-0.3
		c0.9,0,1.7,0.3,2.2,0.8c0.5,0.6,0.8,1.4,0.8,2.5L125.4,49.3z"/>
	<path d="M133.6,49.2c-0.3,0.1-0.6,0.1-1,0.2c-0.3,0-0.8,0.1-1.2,0.1c-1.1,0-1.9-0.2-2.4-0.7c-0.5-0.4-0.8-1.2-0.8-2.3l0-4.1l-1.2,0
		l0-1.9l1.2,0l0-2.5l2.8,0l0,2.5l2.6,0l0,1.9l-2.6,0l0,3.1c0,0.3,0,0.6,0,0.8c0,0.2,0,0.4,0.1,0.6c0.1,0.2,0.2,0.3,0.4,0.4
		c0.2,0.1,0.5,0.2,0.8,0.2c0.1,0,0.3,0,0.6-0.1s0.4-0.1,0.5-0.2h0.2L133.6,49.2z"/>
	<path d="M144.3,44.9c0,1.4-0.4,2.6-1.3,3.4s-2,1.2-3.5,1.2c-1.5,0-2.7-0.4-3.5-1.2s-1.3-2-1.3-3.4c0-1.5,0.4-2.6,1.3-3.4
		c0.8-0.8,2-1.2,3.5-1.2c1.5,0,2.7,0.4,3.5,1.3C143.9,42.4,144.3,43.5,144.3,44.9z M140.8,47.1c0.2-0.2,0.3-0.5,0.4-0.8
		c0.1-0.3,0.1-0.8,0.1-1.3c0-0.5,0-0.9-0.1-1.3c-0.1-0.3-0.2-0.6-0.4-0.8c-0.2-0.2-0.4-0.4-0.6-0.5s-0.5-0.1-0.8-0.1s-0.5,0-0.7,0.1
		c-0.2,0.1-0.4,0.2-0.6,0.4c-0.2,0.2-0.3,0.5-0.4,0.8c-0.1,0.4-0.2,0.8-0.2,1.3c0,0.5,0,0.9,0.1,1.2c0.1,0.4,0.2,0.6,0.4,0.8
		c0.2,0.2,0.4,0.4,0.6,0.4s0.5,0.1,0.8,0.1c0.3,0,0.5,0,0.7-0.1S140.7,47.3,140.8,47.1z"/>
</g>
</svg>
