<?xml version="1.0" encoding="utf-8"?>
<!-- Generator: Adobe Illustrator 19.1.0, SVG Export Plug-In . SVG Version: 6.00 Build 0)  -->
<svg version="1.1" id="Layer_1" xmlns="http://www.w3.org/2000/svg" xmlns:xlink="http://www.w3.org/1999/xlink" x="0px" y="0px"
	 viewBox="33 -4 116.7 59" enable-background="new 33 -4 116.7 59" xml:space="preserve">
<g opacity="0.6">
	<path fill="#FFFFFF" d="M132,45.9c0.2,0.1,0.6,0.1,0.5-0.3l-0.7-0.3L132,45.9z"/>
	<path fill="#FFFFFF" d="M133.2,43.4c-0.3-0.4-0.9-1-1.5-0.7c0.6,0.4,0.4,0.5,1.1,1c0.1,0.4-0.2,0.7-0.5,0.6
		c0.2,0.1-0.1,0.6,0.3,0.8c0.5-0.5,0.5-1.1,0.1-1.8C132.9,43.2,133.1,43.4,133.2,43.4z"/>
	<path fill="#FFFFFF" d="M134.3,5.6L134.2,6C134.2,5.8,134.2,5.7,134.3,5.6z"/>
	<path fill="#FFFFFF" d="M111.1,4.2c0.2,0,0.2-0.1,0.3-0.1C111.2,4.1,111.1,4.1,111.1,4.2z"/>
	<path fill="#FFFFFF" d="M107.2,3.4c0.1,0,0.2,0,0.2,0C107.4,3.4,107.3,3.4,107.2,3.4z"/>
	<path fill="#FFFFFF" d="M134.3,5.6l0.2-1C134.2,4.7,134.3,5.2,134.3,5.6z"/>
	<path fill="#FFFFFF" d="M131.6,38.3c0,0.1,0.1,0.2,0.2,0.3C131.8,38.5,131.7,38.4,131.6,38.3C131.7,38.3,131.7,38.3,131.6,38.3z"/>
	<path fill="#FFFFFF" d="M134.8,16.4v0.2c0.1,0.1,0.2,0.1,0.3,0.2L134.8,16.4z"/>
	<path fill="#FFFFFF" d="M134.9,24.2c0-0.2-0.5-0.2-0.8-0.3c0.2,0.1,0.3,0.2,0.4,0.4C134.6,24.3,134.7,24.2,134.9,24.2z"/>
	<path fill="#FFFFFF" d="M133.9,36.5l0.1,0.2C134,36.7,133.9,36.6,133.9,36.5z"/>
	<path fill="#FFFFFF" d="M134.9,10.8c0.1,0,0.2,0,0.2-0.1C135,10.8,135,10.8,134.9,10.8z"/>
	<path fill="#FFFFFF" d="M124.3,43.3C124.3,43.3,124.3,43.4,124.3,43.3C124.4,43.4,124.4,43.3,124.3,43.3z"/>
	<path fill="#FFFFFF" d="M133.3,46.1L133.3,46.1c-0.1,0.1-0.1,0.2-0.1,0.3L133.3,46.1z"/>
	<path fill="#FFFFFF" d="M100,2.7C100,2.7,100.1,2.7,100,2.7C100.3,2.7,100.1,2.7,100,2.7z"/>
	<path fill="#FFFFFF" d="M40.6,14.3c0.5-0.7,0.6,1.2,1.2,0.1C41.6,14.5,40.9,13.4,40.6,14.3z"/>
	<path fill="#FFFFFF" d="M131.7,38.1c0-0.1,0-0.2,0-0.3C131.7,37.9,131.7,38,131.7,38.1z"/>
	<path fill="#FFFFFF" d="M41.8,14.4L41.8,14.4l0.1-0.1C41.8,14.4,41.8,14.4,41.8,14.4z"/>
	<path fill="#FFFFFF" d="M83.5,3c0,0.1,0.1,0.2,0.2,0.2C83.6,3.2,83.6,3.2,83.5,3z"/>
	<path fill="#FFFFFF" d="M95.8,3.8l-0.3-0.1C95.6,3.8,95.7,3.8,95.8,3.8z"/>
	<path fill="#FFFFFF" d="M77.1,3.8c-0.2,0-0.2-0.1-0.4,0c0,0,0,0,0.1,0.1C76.8,3.8,76.9,3.8,77.1,3.8z"/>
	<path fill="#FFFFFF" d="M70.4,3.8L70.4,3.8c0.2,0.1,0.2,0.1,0.3,0.1L70.4,3.8z"/>
	<path fill="#FFFFFF" d="M104,43.6c0.1,0.2,0.2,0.3,0.3,0.5C104.3,43.7,105.2,43.5,104,43.6z"/>
	<path fill="#FFFFFF" d="M131.9,38.3c-0.1,0-0.2-0.1-0.2-0.2c0,0.1,0,0.2,0,0.2C131.8,38.3,131.9,38.3,131.9,38.3z"/>
	<path fill="#FFFFFF" d="M76.8,8.3l-1.1-0.1C76,8.2,76.4,8.3,76.8,8.3z"/>
	<path fill="#FFFFFF" d="M56.2,43.7l0.2-0.1C56.4,43.6,56.3,43.6,56.2,43.7z"/>
	<path fill="#FFFFFF" d="M72.6,8.3C72.4,8.1,72.2,8,72,7.9L71.9,8L72.6,8.3z"/>
	<path fill="#FFFFFF" d="M104.4,44.1L104.4,44.1L104.4,44.1z"/>
	<path fill="#FFFFFF" d="M111.3,42.8c-1,0-0.5,0.7-0.7,1.1c-1.2,0.2-0.6-0.5-1-0.9c-0.8,0.2-1.3,0.9-1.9,0.8c0-0.1-0.2-0.2,0-0.3
		c-0.8,0.6-2.4,0-3.3,0.8c-0.1-0.1-0.1-0.1-0.1-0.2c0.2,0.4,0.2,0.7,0.1,1c-0.5,0-0.8,0.5-1,0c0.3,0,0.3-0.2,0.4-0.3l-0.4,0.2
		c-0.4-0.7,0.6-0.2,0.6-0.8c-0.9,0.2-2,0.8-2.7,0.6c-0.1-0.7,1.7-0.2,0.7-0.8l1.1,0.3c-0.8-1.1,0.7,0.1-0.1-1.1
		c-1.4-0.2-1.6,0.3-3.1,0.1c-0.3,0.4,0.1,0.6-0.2,0.9c-2,0.7-1.6-1.7-3.1-0.8c-0.4,0.5-0.5,1.3-1.6,0.9l0.4-0.8
		c-1.4-0.1-0.8,1.1-2.3,0.6c0.3-0.3,1.1-0.3,0.9-0.3c-0.9-0.6-0.7,0.4-1.4,0.4l-0.2-0.7c-1.5,0.1-3.1,0.6-4.8,0.7
		c0.1-0.2,0.4-0.4,0-0.6c-2.1,0.3-4.4-0.1-6.4-0.5l-0.8,0.6c-0.2,0-0.3-0.3-0.1-0.4c-0.8-0.2,0,0.4-0.4,0.6c-0.4,0-0.6-0.3-0.3-0.5
		c-1.4,0.5-3.9,1.1-5.4,0.4l0.3-0.2c-1.1-0.2-1.3,1.2-2.3,0.7l0.2-0.1c-2.5-0.3-5.2,0.3-7-0.6c-0.4,0.8-2.4-0.4-2.6,0.8
		c-1.4-0.6-1-0.8-3-1.2c-0.5-0.1-0.8,0.7-1.4,0.9v-0.6l-0.9,0.6L57,43.4l-0.6,0.2c0.2,0,0.5,0.3,0.5,0.5c-1,0.3-2.3-0.4-2.4-0.7
		l-2.3,0.5c0.1-0.2,0.4-0.3,0.7-0.5c-1.2,0.6-0.2-0.6-1.3-0.1c0.1,0.1-0.1,0.4-0.1,0.5c-0.6-0.4-1.8-0.4-2.7-0.2l0.2-0.4
		c-0.8-0.1-1.7,0-2.6,0.1c-0.1,0-0.3,0-0.3,0H46h-0.1c-0.1,0-0.2,0-0.3,0c0,0.2-0.4,0.9-0.8,1c0,0,0.1-0.2,0.2-0.3
		c0.1-0.2,0.2-0.3,0.2-0.3c-0.5,0.4,0,0.2-0.7,0.7c-0.1,0-0.1-0.1,0-0.1c0.2-0.2,0.4-0.5,0.6-0.6c0.1-0.1,0.2-0.1,0.3-0.2l-0.1,0.1
		c-0.1,0-0.1,0-0.2,0c0.2-0.2,0.3-0.2,0.5-0.4c-0.2,0.2,0-0.1,0.1-0.2c0.1-0.1,0.2-0.1-0.1-0.1l0.2-0.1c0,0,0,0,0-0.1l0,0v-0.1
		c0-0.1,0-0.2,0-0.3c0-0.4-0.1-0.7-0.1-1c-0.1-0.6-0.1-1.2-0.1-2c-0.6,0-0.4-0.6-0.9-1.1c0.2-1.1,0.6-2.4,0.6-3.7
		c-0.3-1-0.5-0.3-0.8-0.7c0.5-0.1,0.5-1.4,0.8-0.7c-0.1-1.6-0.1-2.1-0.5-4.1c-0.2,0.2-0.3,0.5-0.5,0.3c-0.1-0.4,0.2-0.8,0.5-0.8
		l0.1,0.1c-0.8-2.3,1.5-5.3,0.4-7.2l0.1,0.1l-0.6-1.9c0.1-0.9,0.4,0.5,0.7-0.1c-0.9-2.1,0.1-3.2-0.4-4.9c0.8-0.7,0.7-1.8,0.6-3
		c0-0.6-0.1-1.2-0.1-1.8c0-0.3,0-0.6,0.1-0.8c0-0.2,0.1-0.1,0.1-0.1s0.1,0,0.2,0h-0.4c-0.3-0.2,0.2-0.1,0.3,0
		c-0.3-0.1-0.3,0-0.5-0.2c-0.1-0.2-0.1-0.4-0.1-0.6c0.6,0,0.5,0.2,2.7,0.4c1.7,0.2,3.3,0.4,5,0.6c1.5,0.1,0.8-1.8,2.7-1L55,8.4
		c2.9-0.8,6,0,8.9-0.6c-0.2,0.2-0.2,0.4-0.5,0.3c0.6,0.5,2.2,0,2.3-0.4c0.4,0,0.1,0.4,0.4,0.6c0.6,0.3,1.5-0.6,1.8-0.1
		c0.1,0.1-0.2,0.2-0.3,0.2c0.4-0.2,1.8,0.1,1.5-0.5C70.2,8.2,71.2,7.7,72,8c0.6-0.6,1.8,0.3,2-0.6c-0.1,0.9,1.9,0.7,2.6,0.3
		C76.4,8,77.2,8,76.9,8.4c0.8,0,1.5-0.2,1.4-0.6c1.4,1.1,2.9-0.9,3.7,0.5c2.3-0.5,4.4-0.8,6.5-1c-0.1,0.9-2.3,0.1-2.2,1
		c2-0.4,3.1-1.1,5.1-0.9c0.5,0.1-0.3,0.4-0.5,0.5c2-0.4,3.8,0.1,5.6-0.4c0,0.1-0.2,0.2-0.4,0.2c0.3,0,0.8,0.1,0.8-0.3l-0.3,0.1
		C96,6.9,98,6.3,98,5.9c-0.6,1.2,1.7,0.3,0.8,1.8c0.2-0.1,0.5-0.3,0.5-0.5c0.3,0.1,0.4,0.2,0.1,0.6c1.2-0.2,0.8-0.7,1.9-0.6
		c0,0.2-0.2,0.3-0.3,0.5c0.6-0.4,1.1-0.8,2.1-0.6c-0.1,0.1,0.1,0.3-0.2,0.3c1.6-0.1,2.8-1,4.6-0.7c-0.5,0.9,0.6,0.3,0.7,1l1-0.2
		L108.5,7c0.8,0,1.6-0.5,2.3-0.3L110.2,7l1.6-0.1l-0.9-0.3c0.9-0.4-0.1-0.9,1-0.7c-0.2,0.1,0.8,0,1.3,0.4l0,0
		c0.4-0.2,0.8-0.5,1.5-0.3c0.2,0.2-0.1,0.8,0,1c0.4-0.6,2-0.2,2.5-0.8C117,6.3,117,6.7,117,6.8l0.3-0.5c0.4,0.2,0.4,0.2,0.4,0.6
		c1.2,0.1-0.4-0.9,1-0.5c-0.1,0-0.1,0.1-0.3,0.2c1.4,0.2,2.7-0.3,4-0.1c0.4,0.8-1.1,0.2-0.7,0.8c1.8-0.1,3.8-0.9,5.6-0.7L127,6.4
		c0.2-1.1,1.3,0.5,2.2,0C129,6.5,128.9,7,129,6.9c0.3,0,0.6,0,0.9,0c0.3,0,0.4-0.1,0.6-0.1c0.4-0.1,1-0.3,1.9-0.5l0,0h-0.1L132,6.5
		c0,0,0,0,0.1,0c-0.2,0.6-0.1,1.2-0.2,1.7c0.3,0.1,0.2,0.4,0.6,0.2c-0.2,0.2-0.3,0.5-0.4,0.8c-0.1,0.3-0.1,0.6-0.1,0.9
		c0,0.6,0.1,1.1,0.2,1.7c0.2,1.1,0.5,2.2-0.1,3.3c0-0.3-0.2-0.6-0.2-0.4l0.3,1.8c0.5-0.1,0.3-0.2,0.6-0.6c0.3,0.2,0.5,0.7,0.5,1.2
		c-0.3-0.8-0.7,0-1,0.4c0.1-0.1,0.3,0.1,0.4,0c-0.8,0.9,0.9,0.2,0.4,1.5l-0.2-0.1c0.1,0.5,0.4,0.9,0.4,1.5c-0.5,0.2-0.2-0.5-0.7-0.5
		c0,0.7,1,1.5,0.5,2.1c-0.1-0.3-0.2-0.8-0.3-1.1c-0.6,0.7-0.5,0.8-0.6,1.3v-0.1l-0.3,1.2L132,23c1.4,0.9,0.3,1.9,1.2,3.1
		c-0.9-1.2-0.5-0.2-1.1-0.3c-0.2,0.3-0.4,0.8-0.5,0.7c0.5,0.6-0.4,1,0.3,1.8c-0.2,0,0,0.6-0.5,0.5c0.2,0.8,0.3-0.2,0.6-0.1
		c0.7,1.2-0.8,2.8,0.1,4.4c0.4,1.5,1,1.7,1.4,3.1c-0.3,0.5-0.7-0.4-0.7-0.4c-0.3,0.7-0.2,1.3,0,2c-0.2-0.1-0.3,0-0.5,0.2
		c0.1,0.6,0.7,0.4,0.4,1.1c-0.2-0.1-0.6-0.3-0.8-0.6c0.2,0.7,0.5,1.3,0.7,2c-0.3,0.2-0.5-0.4-0.7-0.6c0.2,0.8,0.3,2,0.8,2.2l0.2-0.5
		c0,0.3-0.5,0.1-0.6-0.1c-0.4-0.7,0.2-0.9,0.4-1l0.1,0.5c1.1-0.5-0.2-1.9-0.1-2.9l0.8,0.4l-0.7-1c0.2-0.2,0.7-0.4,0.8,0.1
		c0.4-0.7-0.3-0.6,0.2-1.2c0.1-0.1,0.1,0,0.1,0l-0.2-0.7c0.2,0.1,0.6-0.1,0.5,0.3c0.5-1.2-0.6-2,0-2.4l0.1,0.1
		c-0.3-1.7-0.6-0.2-1.3-1.4l1.5-0.9l-0.6-0.2c0-0.2,0.1-0.5,0.3-0.5c-0.4-0.7-0.3,0.1-0.7-0.3c0.6-0.8-0.3-2.3,0.7-2.5
		c-0.5-0.3-0.4,0.8-0.7-0.1c1-0.3-0.2-1,0.3-1.8c0.5,0.2,0.3,1,0.7,0.2c-0.9-0.5,0.2-1.5,0-2.1c-0.7,0-0.3-1.4-0.5-2.5
		c0.2,0.1,0.4-2.1,0.7-3.1h0.1c-0.7-0.2-0.6-1.2-0.7-2c0.4,0,0.6,0.2,0.8,0.6v-0.7c-0.2-0.2-0.4-0.4-0.4-0.9l0.5,0.2
		c0-1-0.6-1.9-0.3-3.1c-0.5-0.1-1.4,1-1.8-0.3c0.3,0,0.8-0.1,0.9,0.2c0-0.1-0.2-0.4-0.1-0.6l0.5,0.5c0.2-0.6-0.4-0.3-0.3-0.7
		c0.4,0,0.3-0.3,0.6-0.3c0,0.1-0.2,0.4,0,0.6c0.1-0.5,0.3-1.1,0.6-1.3c-0.2,0-0.5,0-0.6-0.4c0-1,0.5-0.3,0.7-0.9
		c-0.3-0.2,0-0.8-0.6-0.9c0-0.3,0.3-0.5,0.4-0.6c-0.3-0.7-0.1-3.3-0.7-2.1V6V5.9l0,0l0,0c-0.1-0.4-0.2-0.8-0.2-1.2
		c-0.8,0-1.4-0.1-2.2-0.2c-0.9,0.1-1.9,0-2.4,0.1V4.4c-1,0.2-2.1,0.1-2.8,0.6c-0.3,0-0.7-0.4-0.5-0.6c-0.7,0.1-0.8,0.4-1.9,0
		c0.7-0.3-0.3-0.3,0.7-0.2c-1-0.2-1.2-0.5-2.2,0.1c0.3-0.5-0.7-0.6-1.2-0.5l0.7,0.4c-0.5,0.1-1,0-1.4,0l0.2-0.7
		c-1.9-0.8-3.5,1.4-5,0c-0.5,0.5,1.1,0.3,0.6,0.9c-0.9-0.1-1.8-1-2.1-1c-1.2-0.4-1.1,1-2.4,0.7c0.2,0.2,0.3,0.9-0.6,1.1
		c-0.9-0.1-1.1-1-0.5-1.2c0.2,0,0.3,0.1,0.3,0.1c0.3-0.1,0.7-0.2,0.3-0.4l-0.1,0.2c-0.4-0.2-1.7-0.2-1.4-0.6
		c-0.7,0.2-0.3,0.4,0.2,0.5c-1.1-0.3-1.8,0-3-0.2c0.2,0.1,0.4,0.4,0.2,0.4c-1.7-0.3-0.8,0.5-1.9,0.6c-0.7-0.4,0.2-0.9-0.9-0.6
		c-0.7-0.2-0.2-0.6,0.1-0.8c-1.1,0.5-2-0.3-2.6-0.4l0.6-0.2c-0.3,0.1-0.6,0.1-0.9,0.1l0.3,0.5c-0.4-0.2-0.7-0.2-0.7-0.4
		c-0.3,0.3,0.3,0.8-0.4,1.2c-0.4-0.2-1.4,0.3-1.5-0.4c1.4,0.2-0.2-0.6,1-0.7c-0.2,0.1-0.5,0.1-0.8,0c-0.1-0.1,0-0.1,0.1-0.2
		c-1.3-0.6-0.6,0.7-2,0.7c0.2-0.4-0.3-0.7-0.5-0.6c0.6,0,0.3,0.6-0.2,0.9c-0.9-0.3-1,0.2-1.4,0.2L96.3,4c-0.2,0.4-0.6,0.3-1.2,0.4
		c-0.1-0.3,0.6-0.2,0.3-0.3c-0.7,0.6-1.6-0.6-2.5-0.2c-0.4-0.2,0-0.7-0.4-0.8c-1.1,0.5-1.2-0.5-2.3-0.1c0.3,0.5,0.4,0.4-0.4,0.8
		l1.9-0.3l-1.2,0.7c0.6,0,1.2-0.3,1.5-0.2c-0.6,0.4-0.5,0.3-0.2,0.7C91,3.8,90.2,5,89.3,4.5V3.3c-1.3-0.5-2.3,0.6-4,0.3l0.6,0.2
		c-0.2,0.5-1.1,0.1-1.6,0.3c0.1-0.4-0.3-0.5-0.5-0.8c0,0.3-1.3,0-1.4,0.8l-0.8-0.5c-1.4-0.2-1.6,1.1-2.9,1c0.4-0.4-0.2-0.7,0.7-1
		c-0.4,0-0.9-0.1-0.9,0.2c-0.3-0.2-1.2,0.5-1.7,0.2c-0.2,0.2-0.3,0.6-0.8,0.6c-0.1-0.1,0-0.2,0-0.2c0,0.2-0.8,0.3-0.3,0.7
		c-1.4-1.2-3.9,0.1-5.1-1c-1,0.1-2.2,0.3-3,0.3c0.1-0.1,0-0.2,0.2-0.2c-1.2-0.4-0.8,1.1-2.1,0.7C65,4.3,66.4,4.6,66,4.3
		c-0.2-1.3-1.7,0.2-2.6-0.6l0.2-0.1c-0.7-0.4-1.8,0.5-2.9,0.4c0,0,0.1-0.1,0-0.2c-0.8,0.7-2.3,0.9-3.4,1.1c0.4-0.5,0.5-0.3,0.3-0.8
		c-0.5,0.1,0.1,0.8-0.9,1c-0.3-0.3-1.1-0.5-1.2-1.1h1c-0.5-0.7-1.2,0-1.7-0.1l0.1-0.3c-1.5,0.1-1.5,0.9-3,0.8l0.2,0.2
		c-0.9,0.8-0.7-0.4-1.6,0.1l-0.3-0.8c-0.6,0.2-2,0.8-3,0.9c0.6-0.6,1.8-0.9,2.5-1.2c-0.6,0-1.9,0.1-2.2,0.4c0.2-0.1,0.5-0.3,0.7-0.1
		c-0.7,0.6-1.5,0.9-2.9,0.9c-0.1-1-1.9-0.9-3.7-1c-0.3,0.9-0.5,1.6-0.9,1.9c0.1,0.9,0.2,1.7,0.2,2.5v0.6v0.4c0,0.3,0,0.5-0.1,0.8
		c-0.1,1-0.3,2.1-0.3,3.2c1.2-0.8,0,0.7,1.3,0.5c0.1,0.5,0.1,0.7,0,0.8L41.1,16c-0.4,0.4-0.3-0.5-0.5-0.5c-0.1,1.2-0.5,0.5-0.8,1.3
		c0.4-0.2,0.6,0.4,0.5,1.1l0.4-0.9c0.7,1.6-1,1.4-0.4,3.1L40,19.5c0.2,0.8,0,3.1,1,4c-0.1,0.2-0.5,0.3-0.6,0c-0.1,2,1,4.5,0.4,6.1
		l-0.3-0.2c0.1,0.4,0.6,0.7,0.3,1.1c-0.1,0-0.3-0.2-0.3,0c0.1,0.2,0.5,1,0.3,1.5l-0.3-0.4c-0.4,2,0.8,3,1,4.7
		c-0.9,0-1.2,1.6-1.3,2.3h-0.1c-0.1,1.2,0.1,2.1,0.4,3.1c0.2,0.7,0.5,2.6,0.7,4.1c-0.2,0.7-0.4,1.5-0.5,2.5c1.2,0.1,2.8,0.2,4.5,0.2
		c0.4,0,0.8,0,1.2,0c0.2,0,0.5,0,0.7,0c0.5,0,0.9,0.1,1.3,0.2c-0.3-0.2,0.1-0.7,0.4-0.8c0.5,0.2,1.4-0.6,1.3,0.2h-0.2
		c0.4,0.8,1.4,0.6,2.2,0.6l0.1-1.1c2.1,1.5,5.5-0.6,6.6,0.8c0.5-0.3,1.1-0.3,1.6-0.5v0.6c1.4,0.1,2.1,0.2,3.8,0.1L63.9,49
		c1,0,1.2-1.6,2.1-1.7l0.3,0.8c1.7,0,3.4,0.7,5.1,0c0,0.1-0.1,0.4-0.4,0.4c0.8,0,3.1,0.6,2.8-0.6c0,0.8,1.8,0.1,2.7-0.3l-0.1,0.6
		c0.8-0.7,0.8-0.9,1.9-1.1c0.3,0.1,0.2,0.4-0.1,0.3c0.9,0.3,0.7-0.5,1.7-0.2l-0.4,0.4c0.9,0,0.8-0.1,1.3-0.6
		c0.6-0.2,1.7,0.1,1.8,0.6c0.1-0.3,0.6-0.7,1.1-0.6c0.1,0.2-0.1,0.3-0.2,0.4c1.5,0.4,2.2-0.6,3.2-0.1c0,0.2,0.1,0.3,0.2,0.3
		c-1.2,0-2.1,0-2-0.1c0,0.5,0.9,0.6,0.2,1.3c0.8-0.4,2.1-1.2,3-1c0,0,0.1,0.1,0.1,0.2L88,48.1c0.2,0.1,0.4,0,0.6-0.1
		c0.3,0.1,0.5,0.1,0.8,0.2c0.1,0.4,1.1,0.2,1.6,0.2c0-0.6,0.6-0.5,0-0.9c0.1,0-0.1,0.1-0.4,0.1c-0.1,0-0.2,0-0.2,0.1l0,0
		c-0.3,0-0.7,0-1.2,0c0.4-0.3,0.8-0.5,1.3-0.2c0.2-0.4,0.5-0.7,0.7-0.9c0.6,0.8,1.9,1.2,2.1,1.7c1.4-0.3,3.4-0.2,4.3-1.3
		c0.4-0.1,0.5,0.3,0.6,0.5c-0.2,0.1-0.5,0.1-0.6,0.2c0.8-0.3,2.4-0.1,2.6-0.8c1,0.3-0.6,0.7,0.8,0.6l-0.2,0.2
		c2.8,1.2,4.5-1.9,7.6-0.4c-0.3-0.1-0.4-0.2-0.4-0.3c3.5,0.7,7.3-0.6,10.7,0.4c1,0.2,1.1-0.3,1.7-0.6l0.2,0.6l1-0.7
		c1.5-0.5,2.5,1.5,4.4,0.5l-0.2-0.4c0.7,0.1,2.1-0.2,2,0.2c0.1-0.1,0.2-0.4,0.5-0.2v0.3l1.6-0.5c1.3,0.2-0.2,1.3,1.7,1.3
		c0.7-0.1,2-0.9,1.7-1.1c-0.3,0-0.7-0.2-0.7-0.5l0.6-0.2c0.1-0.9,0.6-1.9-0.9-2.5l-1.1,0.6l-0.3-0.5h0.9c-0.5-0.4-0.8,0-1.2,0.2
		c-0.1-0.2-0.2-0.4-0.5-0.5l-1.1,0.9c-0.1-0.4,0.5-0.7-0.2-0.9c-0.5,0.4,0.5,0.8-0.3,1.1c-0.5-0.4-0.4-0.8-1-0.4
		c-0.1-0.2,0-0.4,0.3-0.5c-0.5,0.3-1.4,0.1-1.7,0.6c-0.5-0.5-1.8,0.1-1.8-0.7c-0.2,0.2-0.9,0.7-1.4,0.7c0.9-1.1-1.8-0.1-1.6-1.2
		c-0.7,0.9-2.4,0.4-3.6,0.9c0.1-0.1,0.2-0.2,0.3-0.2c-0.7-0.1-0.9-0.4-1.3-0.5c-0.1,0.8-1.1,1-1.7,1.4c-0.8-0.8,0.5-0.9,0.2-1.6
		c0,0.6-1.4,0.6-1.1,1.2c-0.6-0.5-0.5-0.2-0.9-0.9c-0.1,1-0.6,0.2-1.1,0.8c-0.9-0.5-0.2-0.9-1.2-0.6
		C110.5,43.1,111.3,42.8,111.3,42.8z M87.8,44.4L87.8,44.4c0.2,0,0.4,0,0.5,0C88.1,44.4,88,44.4,87.8,44.4z M85.8,44.5
		c0.2,0,0.5,0,0.9,0c0.1,0.2,0,0.4-0.2,0.4C86.5,44.7,86.1,44.6,85.8,44.5z M90,48.4c-0.3,0.1-0.4,0-0.5-0.1c0.1,0,0.3,0,0.5-0.1
		c0,0,0,0,0-0.1C90.1,48.2,90,48.3,90,48.4z"/>
	<path fill="#FFFFFF" d="M90.5,47.6L90.5,47.6c0,0,0-0.1-0.1-0.1c0,0.1-0.1,0.1-0.1,0.2C90.4,47.6,90.5,47.6,90.5,47.6z"/>
	<path fill="#FFFFFF" d="M134.2,6L134.2,6c0,0,0,0.1-0.1,0.1C134.1,6,134.1,6,134.2,6z"/>
	<polygon fill="#FFFFFF" points="58.4,43.4 58.4,43.5 58.6,43.4 	"/>
	<path fill="#FFFFFF" d="M132.2,17.5l-0.1,0.1L132.2,17.5z"/>
	<path fill="#FFFFFF" d="M132.1,22.2l-0.2,0.7C132,22.6,132.1,22.3,132.1,22.2z"/>
	<path fill="#FFFFFF" d="M131.8,25.8c0.1,0,0.2,0.1,0.2,0.1l0,0L131.8,25.8z"/>
	<path fill="#FFFFFF" d="M96.1,7.6L96.1,7.6C95.6,7.7,95.8,7.7,96.1,7.6z"/>
	<path fill="#FFFFFF" d="M113.2,6.3c-0.2,0.1-0.4,0.2-0.6,0.3C113,6.6,113.2,6.6,113.2,6.3z"/>
	<path fill="#FFFFFF" d="M76.9,8.3L76.9,8.3L76.9,8.3L76.9,8.3z"/>
	<path fill="#FFFFFF" d="M111.9,6.6c0.3,0.1,0.6,0.1,0.8,0C112.4,6.5,112.1,6.5,111.9,6.6z"/>
	<path fill="#FFFFFF" d="M131.6,41.5v0.2h0.1L131.6,41.5z"/>
	<path fill="#FFFFFF" d="M131.6,41.7l0.1,0.2C131.7,41.8,131.7,41.7,131.6,41.7z"/>
	<path fill="#FFFFFF" d="M131.9,42.3l-0.1-0.4C131.7,42,131.7,42.2,131.9,42.3z"/>
	<path fill="#FFFFFF" d="M131.8,36.7l-0.2-0.1C131.7,36.7,131.7,36.7,131.8,36.7z"/>
	<path fill="#FFFFFF" d="M131.8,35.2c0,0.3-0.4,0.9-0.3,1.4h0.2C131.3,36.4,132.1,35.6,131.8,35.2z"/>
	<path fill="#FFFFFF" d="M134.3,29.2l-0.2,1.2c0.2-0.2,0.5-0.5,0.6,0.1C135.3,28.9,134.2,30.8,134.3,29.2z"/>
	<path fill="#FFFFFF" d="M134.6,25.4c0.1,0.7,0.3,0,0.4,0C134.9,25,134.8,24.9,134.6,25.4z"/>
	<path fill="#FFFFFF" d="M125.9,4.2l0.1-0.5C125.4,3.7,125.9,3.9,125.9,4.2z"/>
	<polygon fill="#FFFFFF" points="120.7,6.8 121.1,7.1 121.4,6.7 	"/>
	<polygon fill="#FFFFFF" points="117.6,3.2 117.8,3.1 116.9,3.3 	"/>
	<path fill="#FFFFFF" d="M71.6,3.3L71.7,4C72.1,3.9,72.2,3.2,71.6,3.3z"/>
	<path fill="#FFFFFF" d="M51.7,4c-0.2-0.3-0.8-0.5-1.1-0.2C51.1,3.8,51.5,4.1,51.7,4z"/>
	<polygon fill="#FFFFFF" points="53.2,48.4 52.8,48.6 53.5,48.5 	"/>
</g>
</svg>
