<?xml version="1.0" encoding="utf-8"?>
<!-- Generator: Adobe Illustrator 19.1.0, SVG Export Plug-In . SVG Version: 6.00 Build 0)  -->
<svg version="1.1" id="Layer_1" xmlns="http://www.w3.org/2000/svg" xmlns:xlink="http://www.w3.org/1999/xlink" x="0px" y="0px"
	 viewBox="0 0 240 66" enable-background="new 0 0 240 66" xml:space="preserve">
<g opacity="0.6">
	<g>
		<g>
			<g>
				<g>
					<path fill="#FFFFFF" d="M210.3,51.5c0.1,0.2,0.3,0.1,0.2-0.6l-0.3-0.5L210.3,51.5z"/>
					<path fill="#FFFFFF" d="M211,47.1c-0.2-0.8-0.4-1.7-0.7-1.2c0.3,0.8,0.2,1,0.6,1.8c0,0.7-0.1,1.2-0.2,1c0.1,0.2-0.1,1,0.1,1.4
						c0.3-0.9,0.3-1.9,0.1-3.1C210.8,46.8,210.9,47,211,47.1z"/>
					<path fill="#FFFFFF" d="M182.5,10.5l0.4,0C182.8,10.6,182.7,10.5,182.5,10.5z"/>
					<path fill="#FFFFFF" d="M142.6,10.4c0.3,0,0.4,0,0.4-0.1C142.7,10.3,142.5,10.3,142.6,10.4z"/>
					<path fill="#FFFFFF" d="M135.7,10c0.1,0,0.3,0,0.4,0C136,10,135.8,10,135.7,10z"/>
					<path fill="#FFFFFF" d="M182.5,10.5l-1.1-0.1C181.4,10.5,182,10.5,182.5,10.5z"/>
					<path fill="#FFFFFF" d="M210.2,38.2c0,0.2,0,0.4,0.1,0.6C210.2,38.6,210.2,38.4,210.2,38.2C210.2,38.2,210.2,38.2,210.2,38.2z"
						/>
					<path fill="#FFFFFF" d="M200.2,10.3l0.3,0c0.1,0,0.2-0.1,0.3-0.1L200.2,10.3z"/>
					<path fill="#FFFFFF" d="M211.8,13.7c0-0.3-0.3-0.4-0.4-0.5c0.1,0.2,0.2,0.4,0.2,0.7C211.6,13.8,211.7,13.8,211.8,13.7z"/>
					<path fill="#FFFFFF" d="M211.3,35.1l0,0.4C211.3,35.4,211.3,35.2,211.3,35.1z"/>
					<path fill="#FFFFFF" d="M190.5,10.2c0,0-0.1-0.1-0.1-0.1C190.4,10.1,190.4,10.2,190.5,10.2z"/>
					<path fill="#FFFFFF" d="M195.3,50.2C195.3,50.2,195.3,50.2,195.3,50.2C195.4,50.2,195.4,50.2,195.3,50.2z"/>
					<path fill="#FFFFFF" d="M211,51.6l-0.2,0c0,0.1,0,0.1,0,0.2L211,51.6z"/>
					<path fill="#FFFFFF" d="M123.2,9.6C123.3,9.6,123.3,9.6,123.2,9.6C123.6,9.6,123.4,9.6,123.2,9.6z"/>
					<path fill="#FFFFFF" d="M22.8,26.4c0.3-1.3,0.3,2.1,0.6,0.2C23.3,26.8,23,24.8,22.8,26.4z"/>
					<path fill="#FFFFFF" d="M210.2,37.8c0-0.2,0-0.4,0-0.6C210.2,37.5,210.2,37.7,210.2,37.8z"/>
					<path fill="#FFFFFF" d="M23.5,26.6L23.5,26.6l0-0.2C23.5,26.5,23.5,26.5,23.5,26.6z"/>
					<path fill="#FFFFFF" d="M94.5,9.8c0.1,0,0.2,0.1,0.3,0.1C94.7,9.9,94.7,9.9,94.5,9.8z"/>
					<path fill="#FFFFFF" d="M115.9,10.2l-0.5,0C115.6,10.2,115.8,10.2,115.9,10.2z"/>
					<path fill="#FFFFFF" d="M83.3,10.2c-0.3,0-0.4-0.1-0.8,0c0,0,0.1,0,0.1,0C82.8,10.2,83,10.2,83.3,10.2z"/>
					<path fill="#FFFFFF" d="M71.7,10.2c0.1,0,0.1,0,0.2,0.1c0.1,0,0.2,0,0.4,0L71.7,10.2z"/>
					<path fill="#FFFFFF" d="M160.1,50.3c0.3,0.1,0.4,0.2,0.5,0.3C160.5,50.4,162.2,50.3,160.1,50.3z"/>
					<path fill="#FFFFFF" d="M210.3,38.2c-0.1-0.1-0.1-0.2-0.1-0.3c0,0.1,0,0.3,0,0.4C210.2,38.2,210.3,38.2,210.3,38.2z"/>
					<path fill="#FFFFFF" d="M82.9,12.4l-1.8,0C81.5,12.4,82.2,12.4,82.9,12.4z"/>
					<path fill="#FFFFFF" d="M77,50.4l0.4,0C77.2,50.3,77.1,50.3,77,50.4z"/>
					<path fill="#FFFFFF" d="M75.6,12.4c-0.3-0.1-0.7-0.2-1-0.2c-0.1,0-0.2,0-0.2,0.1L75.6,12.4z"/>
					<path fill="#FFFFFF" d="M160.6,50.6L160.6,50.6L160.6,50.6z"/>
					<path fill="#FFFFFF" d="M172.8,49.9c-1.8,0-0.8,0.4-1.2,0.6c-2.1,0.1-1-0.3-1.7-0.5c-1.3,0.1-2.3,0.4-3.3,0.4
						c-0.1-0.1-0.3-0.1,0-0.2c-1.4,0.3-4.1,0-5.7,0.4c-0.1,0-0.2-0.1-0.2-0.1c0.3,0.2,0.3,0.4,0.2,0.5c-0.8,0-1.5,0.2-1.8,0
						c0.5,0,0.5-0.1,0.7-0.2l-0.8,0.1c-0.7-0.3,1.1-0.1,1.1-0.4c-1.6,0.1-3.5,0.4-4.7,0.3c-0.3-0.3,2.9-0.1,1.2-0.4l1.9,0.1
						c-1.5-0.5,1.2,0-0.2-0.5c-2.5-0.1-2.8,0.2-5.3,0.1c-0.6,0.2,0.2,0.3-0.4,0.5c-3.6,0.3-2.8-0.9-5.4-0.4
						c-0.7,0.2-0.9,0.7-2.8,0.4l0.6-0.4c-2.4,0-1.4,0.6-3.9,0.3c0.5-0.2,1.9-0.1,1.5-0.2c-1.6-0.3-1.2,0.2-2.4,0.2l-0.3-0.3
						c-2.6,0.1-5.4,0.3-8.3,0.4c0.2-0.1,0.6-0.2,0-0.3c-3.6,0.2-7.7,0-11.2-0.2l-1.3,0.3c-0.3,0-0.6-0.1-0.2-0.2
						c-1.4-0.1-0.1,0.2-0.7,0.3c-0.8,0-1-0.2-0.5-0.3c-2.4,0.2-6.8,0.5-9.3,0.2l0.5-0.1c-2-0.1-2.2,0.6-4,0.3l0.3-0.1
						c-4.3-0.1-9,0.1-12.2-0.3c-0.6,0.4-4.2-0.2-4.5,0.4c-2.4-0.3-1.7-0.4-5.2-0.6c-0.9,0-1.4,0.4-2.5,0.4l0-0.3l-1.5,0.3l-0.8-0.4
						l-1.1,0.1c0.4,0,0.9,0.1,0.8,0.2c-1.7,0.1-4-0.2-4.1-0.4l-3.9,0.3c0.1-0.1,0.7-0.2,1.3-0.2c-2.1,0.3-0.4-0.3-2.3,0
						c0.3,0.1-0.1,0.2-0.2,0.2c-1-0.2-3.1-0.2-4.7-0.1l0.3-0.2c-2.9-0.1-6.1,0.1-9.4,0.1c1.2,0.1,0.9,0.5-0.1,0.5l-0.4-0.3
						c-0.6,0.2,1,0.1-0.3,0.4c-1.2,0-0.8-0.4-0.1-0.5l-1.5,0.1c-0.1-0.1,0.3-0.1,0.4-0.3c-0.6,0.2-2.6-0.3-3.4,0L49.7,50
						c-3.3,0-4.7,0.1-7.4,0.1c-0.1,0.3-1.1,0.2-1.9,0.4c-2-0.1-4.1-0.3-6.5-0.3c-1.7,0.1-0.5,0.2-1.2,0.4c-0.1-0.3-2.5-0.2-1.3-0.4
						c-1.4,0-2.3,0-3.3,0.1c-0.5,0-1,0-1.6,0.1c-0.2,0-0.3,0-0.5,0c-0.1,0-0.4,0-0.4,0c-0.2,0-0.3,0-0.5,0.1
						c0.1,0.1,0.3,0.2,0.1,0.2c-0.2,0-0.3,0-0.4,0c0-0.2,0.1-0.4,0.2-0.4l0,0.1c0-0.1,0-0.2-0.1-0.3l0-0.2l0-0.4c0-0.5,0-1.1,0-1.6
						c0-1.1,0.1-2.2,0.2-3.3c0.2-2.2,0.3-4.3,0.1-5.9l0,0.2l-0.3-3.3c0-1.5,0.2,0.9,0.4-0.2c-0.4-3.6,0.1-5.6-0.2-8.6
						c0.8-2.3-0.1-8.1,0.4-11.2l-0.2,0.2c-0.2-0.8,0.1-1,0.1-1.5c-0.1,0.1-0.2,0.9-0.3,0.4c0-0.8,0-1.6-0.1-2.4c1,0,2.1,0,3.1,0.1
						c1.4,0,2.9,0.1,4.3,0.1c2.9,0.1,5.8,0.2,8.6,0.3c2.5,0,1.4-0.9,4.6-0.5L45,12.5c5.1-0.4,10.4,0,15.4-0.3
						c-0.3,0.1-0.3,0.2-0.8,0.2c1.1,0.2,3.9,0,3.9-0.2c0.8,0,0.2,0.2,0.7,0.3c1.1,0.1,2.7-0.3,3.2-0.1c0.1,0-0.3,0.1-0.5,0.1
						c0.7-0.1,3.2,0,2.5-0.2c1.9,0.1,3.6-0.1,5.1,0c1-0.3,3.2,0.1,3.5-0.3c-0.1,0.5,3.3,0.4,4.5,0.2c-0.4,0.1,1,0.1,0.6,0.3
						c1.4,0,2.6-0.1,2.4-0.3c2.5,0.5,5-0.4,6.4,0.3c4-0.2,7.7-0.4,11.3-0.5c-0.1,0.5-4,0-3.8,0.5c3.4-0.2,5.4-0.6,8.8-0.5
						c0.9,0.1-0.5,0.2-0.8,0.3c3.4-0.2,6.6,0,9.7-0.2c0,0-0.3,0.1-0.6,0.1c0.6,0,1.4,0.1,1.3-0.1l-0.6,0.1c-1-0.3,2.4-0.6,2.5-0.8
						c-1,0.6,3,0.1,1.4,0.9c0.4,0,0.9-0.1,0.8-0.3c0.6,0,0.8,0.1,0.2,0.3c2.1-0.1,1.4-0.3,3.3-0.3c0,0.1-0.4,0.1-0.6,0.3
						c1-0.2,2-0.4,3.6-0.3c-0.1,0.1,0.1,0.1-0.4,0.1c2.8,0,4.8-0.5,7.9-0.3c-0.9,0.4,1.1,0.1,1.2,0.5l1.7-0.1l-0.7-0.2
						c1.5,0,2.8-0.3,4-0.1l-1.1,0.2l2.7-0.1l-1.5-0.1c1.5-0.2-0.2-0.5,1.8-0.4c-0.4,0,1.5,0,2.2,0.2l0,0c0.7-0.1,1.5-0.2,2.5-0.2
						c0.3,0.1-0.2,0.4,0,0.5c0.7-0.3,3.4-0.1,4.3-0.4c-0.3,0.1-0.3,0.3-0.2,0.3l0.6-0.3c0.7,0.1,0.8,0.1,0.7,0.3
						c2,0-0.6-0.5,1.8-0.3c-0.2,0-0.1,0.1-0.5,0.1c2.4,0.1,4.7-0.2,6.9,0c0.7,0.4-1.9,0.1-1.2,0.4c3.2-0.1,6.7-0.5,9.8-0.4l-0.6,0
						c0.4-0.5,2.3,0.3,3.9,0c-0.4,0-0.5,0.3-0.4,0.2c2.1,0.1,4.4-0.1,7.6-0.3l-0.4,0.1c1.3,0.1,3.3,0.1,4.7,0.1
						c0.4-0.1,1.2-0.1,0.7-0.3c4.2,0.8,8-0.4,11.7,0.2c-0.4,0-1.1,0.1-0.7,0.1l3.2-0.1c-0.2-0.2-0.4-0.1-1.1-0.3
						c0.4-0.1,1.3-0.2,2.1-0.2c-1.4,0.2,0,0.4,0.6,0.5c-0.1-0.1,0.1-0.1,0.1-0.2c1.7,0.4,0.3-0.5,2.5-0.2l-0.1,0.1
						c0.8-0.1,1.6-0.2,2.5-0.2c0.4,0.3-0.9,0.1-1,0.3c1.3,0,2.6-0.5,3.6-0.2c-0.5,0.1-1.3,0.1-1.8,0.1c1.2,0.3,1.5,0.2,2,0.3l-0.1,0
						l0.5,0.1l-0.1,0.8l0.1-0.3c0.3,0.2,0.4,1.3,0.4,2.1c0,0.9,0,1.8,0.2,2.9c-0.4-2.1-0.2-0.3-0.6-0.5c-0.1,0.5-0.2,1.4-0.3,1.1
						c0.2,1-0.2,1.7,0.2,3.1c-0.1,0.1,0,1.1-0.3,0.9c0.1,1.3,0.2-0.3,0.3-0.2c0.3,2-0.4,4.8,0.1,7.7c0.2,2.5,0.5,3,0.7,5.3
						c-0.2,0.8-0.4-0.6-0.4-0.6c-0.1,1.3-0.1,2.2,0,3.4c-0.1-0.2-0.2,0-0.3,0.4c0,1,0.4,0.6,0.2,1.9c-0.1-0.2-0.3-0.5-0.4-1
						c0.1,1.1,0.3,2.3,0.4,3.4c-0.2,0.3-0.3-0.7-0.4-1.1c0.1,1.3,0.2,3.4,0.4,3.8l0.1-0.9c0,0.5-0.2,0.2-0.3-0.1
						c-0.2-1.1,0.1-1.6,0.2-1.7l0.1,0.8c0.6-0.9-0.1-3.4-0.1-5.1l0.4,0.7l-0.3-1.7c0.1-0.4,0.3-0.6,0.4,0.2c0.2-1.2-0.1-1.1,0.1-2.1
						c0-0.1,0.1-0.1,0.1,0l-0.1-1.2c0.1,0.2,0.3-0.2,0.2,0.5c0.2-2.1-0.3-3.4,0-4.2l0,0.2c-0.1-2.9-0.3-0.3-0.7-2.5l0.8-1.5
						l-0.3-0.3c0-0.3,0-0.9,0.2-0.8c-0.2-1.1-0.1,0.2-0.3-0.5c0.3-1.5-0.1-4,0.4-4.4c-0.2-0.5-0.2,1.4-0.3-0.2
						c0.5-0.4-0.1-1.8,0.2-3.1c0.3,0.4,0.1,1.7,0.4,0.3c-0.5-0.8,0.1-2.6,0-3.7c-0.1,0-0.2-0.4-0.2-0.9c0-0.2,0-0.6,0-1
						c0-0.4,0-0.8,0-1.3c-0.6,0-1.3,0-1.9,0c0.1-0.1-3.6-0.2-5.3-0.3l0.1-0.1c-0.3,0.4-2.2,0.3-3.5,0.4c0.1-0.2,0.3-0.3,1-0.4
						l-1.2,0c-0.3,0.1-0.7,0.2-1.5,0.2l0.3-0.3c-1.7,0-3.3,0.3-5.5,0.1c-0.1,0.3,1.7,0.7-0.6,0.9c-0.1-0.1-0.2-0.4,0.4-0.4
						c-0.2,0-0.7,0.1-1.1,0.1l0.9-0.2c-1-0.1-0.5,0.2-1.3,0.2c0-0.2-0.6-0.1-0.5-0.3c0.2,0,0.7,0.1,1,0c-0.9,0-1.9-0.2-2.3-0.3
						c0.1,0.1,0,0.3-0.6,0.3c-1.7,0-0.6-0.2-1.5-0.3c-0.4,0.1-1.5,0-1.5,0.3c-0.5,0-0.6-0.1-0.8-0.2c-0.9,0.1-4,0-3,0.4l0.2,0
						c0,0-0.1,0-0.1,0c0,0,0,0,0,0h0c-2.8,0.3-5.8-0.2-8.6,0l0-0.1c-1.7,0.1-3.7,0.1-4.9,0.3c-0.5,0-1.2-0.2-1-0.3
						c-1.3,0.1-1.4,0.2-3.3,0c1.3-0.2-0.4-0.2,1.3-0.1c-1.7-0.1-2-0.2-3.8,0c0.6-0.3-1.2-0.3-2-0.2l1.2,0.2c-0.9,0-1.7,0-2.4,0
						L160,10c-3.4-0.4-6.1,0.7-8.7,0c-0.9,0.2,1.8,0.2,1,0.4c-1.6,0-3.2-0.5-3.7-0.5c-2.1-0.2-2,0.5-4.2,0.4
						c0.3,0.1,0.6,0.4-1.1,0.5c-1.6,0-1.9-0.5-0.9-0.6c0.4,0,0.6,0,0.5,0.1c0.5,0,1.2-0.1,0.5-0.2l-0.2,0.1
						c-0.8-0.1-2.9-0.1-2.4-0.3c-1.2,0.1-0.5,0.2,0.4,0.3c-2-0.2-3.1,0-5.2-0.1c0.3,0.1,0.6,0.2,0.3,0.2c-3-0.1-1.3,0.2-3.4,0.3
						c-1.2-0.2,0.4-0.4-1.6-0.3c-1.3-0.1-0.3-0.3,0.2-0.4c-1.9,0.2-3.5-0.2-4.6-0.2l1-0.1c-0.6,0.1-1.1,0.1-1.6,0.1l0.6,0.2
						c-0.6,0-1.1,0-1.1-0.1c-0.6,0.2,0.5,0.4-0.7,0.6c-0.8-0.1-2.4,0.1-2.6-0.2c2.4,0.1-0.3-0.3,1.8-0.4c-0.4,0-0.9,0-1.5,0
						c-0.1,0,0.1-0.1,0.2-0.1c-2.3-0.3-1.1,0.4-3.5,0.3c0.3-0.2-0.6-0.3-1-0.3c1,0,0.5,0.3-0.4,0.4c-1.5-0.1-1.7,0.1-2.5,0.1
						l0.9,0.1c-0.3,0.2-1.1,0.2-2.2,0.2c-0.1-0.1,1-0.1,0.6-0.2c-1.2,0.3-2.7-0.3-4.4-0.1c-0.8-0.1-0.1-0.3-0.8-0.4
						c-1.9,0.2-2-0.2-4-0.1c0.6,0.2,0.7,0.2-0.7,0.4l3.2-0.2l-2.1,0.3c1,0,2.1-0.1,2.6-0.1c-1,0.2-0.9,0.1-0.4,0.3
						c-1.3-0.4-2.6,0.2-4.2,0l0-0.6c-2.3-0.3-4.1,0.3-7.1,0.2l1,0.1c-0.4,0.2-1.9,0-2.8,0.1c0.1-0.2-0.5-0.3-0.9-0.4
						c0.1,0.1-2.2,0-2.5,0.4L90.9,10c-2.4-0.1-2.8,0.6-5.1,0.5c0.7-0.2-0.4-0.4,1.2-0.5c-0.8,0-1.5,0-1.5,0.1
						c-0.5-0.1-2.2,0.3-2.9,0.1c-0.3,0.1-0.4,0.3-1.3,0.3c-0.1,0,0-0.1,0-0.1c0,0.1-1.4,0.1-0.6,0.4c-2.4-0.6-6.7,0-8.8-0.5
						c-1.7,0.1-3.8,0.1-5.3,0.1c0.1-0.1,0-0.1,0.3-0.1c-2.1-0.2-1.3,0.6-3.7,0.4c-1.2-0.3,1.3-0.2,0.5-0.3c-0.3-0.6-2.9,0.1-4.6-0.3
						l0.4,0c-1.2-0.2-3,0.2-5.1,0.2c0,0,0.1-0.1,0-0.1c-1.4,0.3-4,0.4-6,0.5c0.6-0.3,0.9-0.1,0.5-0.4c-0.9,0,0.3,0.4-1.5,0.5
						c-0.6-0.1-1.8-0.3-2-0.5l1.7,0c-0.8-0.4-2.1,0-3,0l0.1-0.2c-2.5,0.1-2.6,0.4-5.3,0.4l0.3,0.1c-1.5,0.4-1.2-0.2-2.7,0.1
						l-0.4-0.4c-1,0.1-3.4,0.4-5.2,0.5c1-0.3,3.1-0.4,4.3-0.6c-1,0-3.3,0-3.8,0.2c0.4,0,0.9-0.1,1.3-0.1c-1.2,0.3-2.8,0.5-4.7,0.5
						c0.1-0.3-0.4-0.4-1.2-0.4c-0.2,0-0.4,0-0.6,0c-0.2,0-0.5,0-0.8,0c-0.7,0-1.5,0-2.2,0c0,0.8,0,1.5-0.1,2.2c0,0.1,0,0.2,0,0.2
						l0,0.2c0,0.1,0,0.2,0,0.3c0,0.2-0.1,0.3-0.1,0.4c0.3,3.4-0.1,6.8-0.1,10.8c0.6-1.4,0,1.2,0.6,0.9c0,0.9,0,1.3,0,1.4l-0.4,2.8
						c-0.2,0.7-0.1-0.9-0.3-0.8c0,2-0.3,0.9-0.4,2.2c0.2-0.3,0.3,0.7,0.2,1.9l0.3-1.6c0.3,2.9-0.5,2.5-0.2,5.3l-0.2-0.9
						c0.1,1.5,0,5.4,0.5,6.9c-0.1,0.3-0.2,0.6-0.3,0c0,1.5,0.1,3.1,0.1,4.7c0,0.8,0.1,1.6,0.1,2.3c0,0.2,0,0.4,0,0.6
						c0,0.3,0,0.6,0,0.9c0,0.6,0,1.1,0,1.7c0.8,0,1.5,0,2.2,0.1l-0.5,0.1c0.3,0,0.6,0,0.8-0.1c0.2,0,0.3-0.1,0.5-0.1
						c0.3,0,0.6-0.1,1,0c0,0.1-0.3,0.1,0,0.2c0.3-0.1,1.7-0.3,2.6-0.2L29,52.7c3.4,0.2,5.3-0.4,8.2-0.5c0,0.4,2.7,0.6,4,0.7l0,0.1
						c4,0.1,6.8-0.4,10.5-0.5c2.3,0.5,7.8,0.2,11.5,0.5c-0.6-0.1,0.1-0.3,0.7-0.4c0.9,0.1,2.4-0.3,2.3,0.1l-0.3,0
						c0.7,0.4,2.4,0.3,3.8,0.3l0.2-0.5c3.6,0.8,9.5-0.3,11.5,0.4c0.9-0.1,2-0.1,2.8-0.3l0,0.3c2.4,0.1,3.7,0.1,6.7,0L90.3,53
						c1.7,0,2.1-0.8,3.7-0.8l0.5,0.4c3,0,6,0.4,8.9,0c0,0.1-0.1,0.2-0.6,0.2c1.4,0,5.4,0.3,4.9-0.3c0,0.4,3.1,0,4.7-0.1l-0.2,0.3
						c1.4-0.4,1.4-0.5,3.3-0.6c0.4,0,0.4,0.2-0.2,0.2c1.5,0.1,1.2-0.3,3-0.1l-0.7,0.2c1.5,0,1.4-0.1,2.3-0.3c1-0.1,2.9,0.1,3.1,0.3
						c0.2-0.2,1-0.4,1.9-0.3c0.1,0.1-0.2,0.2-0.4,0.2c2.6,0.2,3.8-0.3,5.6-0.1c0,0.1,0.2,0.1,0.3,0.2c-2,0-3.7,0-3.5,0
						c0,0.3,1.6,0.3,0.3,0.7c1.3-0.2,3.6-0.6,5.2-0.5c0.1,0,0.2,0,0.2,0.1l-0.2,0c0.4,0,0.7,0,1,0c0.5,0,0.8,0.1,1.3,0.1
						c0.2,0.2,1.9,0.1,2.7,0.1c-0.1-0.3,1-0.2,0-0.5c0.1,0-0.2,0-0.7,0c-0.1,0-0.3,0-0.3,0c0,0,0,0,0.1,0c-0.5,0-1.2,0-2,0
						c0.6-0.1,1.3-0.3,2.2-0.1c0.4-0.2,0.9-0.4,1.1-0.5c1.1,0.4,3.3,0.6,3.6,0.8c2.5-0.2,5.9-0.1,7.5-0.6c0.7-0.1,0.8,0.2,1.1,0.2
						c-0.4,0.1-0.9,0-1.1,0.1c1.4-0.1,4.2-0.1,4.6-0.4c1.8,0.2-1,0.3,1.5,0.3l-0.3,0.1c4.8,0.6,7.9-0.9,13.3-0.2
						c-0.4,0-0.6-0.1-0.6-0.1c6.1,0.3,12.6-0.3,18.7,0.2c1.7,0.1,1.9-0.1,3-0.3l0.4,0.3l1.8-0.3c2.5-0.3,4.4,0.7,7.6,0.3l-0.4-0.2
						c1.2,0,3.7-0.1,3.5,0.1c0.1,0,0.4-0.2,0.8-0.1l0,0.2l2.8-0.3c2.2,0.1-0.3,0.6,2.9,0.7c1.2-0.1,3.4-0.5,3-0.6
						c-0.5,0-1.2-0.1-1.3-0.3l1.1-0.1c0.2-0.5,1-0.9-1.6-1.3l-1.9,0.3l-0.6-0.2l1.6,0c-0.9-0.2-1.5,0-2.1,0.1
						c-0.1-0.1-0.4-0.2-0.8-0.2l-1.8,0.4c-0.2-0.2,0.8-0.4-0.4-0.5c-0.9,0.2,0.8,0.4-0.6,0.5c-0.9-0.2-0.6-0.4-1.7-0.2
						c-0.1-0.1,0.1-0.2,0.5-0.2c-0.9,0.1-2.5,0.1-3,0.3c-0.9-0.3-3.2,0.1-3.1-0.4c-0.3,0.1-1.6,0.3-2.5,0.4c1.6-0.5-3.2,0-2.8-0.6
						c-1.2,0.5-4.2,0.2-6.2,0.5c0.1,0,0.3-0.1,0.5-0.1c-1.2,0-1.5-0.2-2.2-0.3c-0.1,0.4-1.9,0.5-2.9,0.7c-1.4-0.4,0.9-0.5,0.4-0.8
						c0.1,0.3-2.5,0.3-2,0.6c-1.1-0.2-0.9-0.1-1.5-0.4c-0.2,0.5-1,0.1-1.9,0.4c-1.6-0.2-0.4-0.5-2.1-0.3
						C171.2,50.1,172.8,49.9,172.8,49.9z M131.8,50.7L131.8,50.7c0.4,0,0.7,0,0.8,0C132.5,50.7,132.2,50.7,131.8,50.7z M128.4,50.8
						c0.4,0,0.9,0,1.5,0c0.1,0.1,0,0.2-0.4,0.2C129.7,50.9,128.9,50.8,128.4,50.8z M135.6,52.7c-0.5,0-0.7,0-0.8-0.1
						c0.3,0,0.6,0,1,0c0,0,0,0,0.1,0C135.8,52.6,135.7,52.7,135.6,52.7z"/>
					<path fill="#FFFFFF" d="M136.6,52.3c0.1,0,0.1,0,0.2,0c-0.1,0-0.2,0-0.3-0.1c-0.1,0-0.1,0.1-0.2,0.1
						C136.4,52.3,136.5,52.3,136.6,52.3z"/>
					<path fill="#FFFFFF" d="M183,10.6L183,10.6C183,10.6,183.1,10.6,183,10.6C183.1,10.6,183.1,10.6,183,10.6z"/>
					<polygon fill="#FFFFFF" points="80.8,50.2 80.8,50.3 81.1,50.2 					"/>
					<path fill="#FFFFFF" d="M202,11.5c0,0,0.1,0.1,0.2,0.1C202.2,11.6,202.1,11.6,202,11.5z"/>
					<path fill="#FFFFFF" d="M209.9,11.6l0.4,0.1l0,0.2c0-0.1,0-0.2,0-0.2C210.1,11.6,210,11.6,209.9,11.6z"/>
					<path fill="#FFFFFF" d="M210.3,16.5c0,0.1,0.1,0.1,0.1,0.1l0,0L210.3,16.5z"/>
					<path fill="#FFFFFF" d="M116.3,12.1c-0.1,0-0.2,0-0.2,0C115.5,12.1,115.9,12.1,116.3,12.1z"/>
					<path fill="#FFFFFF" d="M146.1,11.4c-0.3,0.1-0.6,0.1-1,0.1C145.7,11.6,146.1,11.6,146.1,11.4z"/>
					<path fill="#FFFFFF" d="M83.1,12.4L83.1,12.4c-0.1,0-0.1,0-0.2,0L83.1,12.4z"/>
					<path fill="#FFFFFF" d="M143.8,11.6c0.5,0.1,1,0,1.4,0C144.7,11.5,144.2,11.5,143.8,11.6z"/>
					<path fill="#FFFFFF" d="M210.1,43.8l0,0.3c0,0,0,0,0,0L210.1,43.8z"/>
					<path fill="#FFFFFF" d="M210.2,44.1l0,0.3C210.2,44.3,210.2,44.2,210.2,44.1z"/>
					<path fill="#FFFFFF" d="M210.3,45.2l-0.1-0.7C210.2,44.7,210.2,45,210.3,45.2z"/>
					<path fill="#FFFFFF" d="M210.3,35.4l-0.1-0.1C210.2,35.4,210.2,35.4,210.3,35.4z"/>
					<path fill="#FFFFFF" d="M210.2,32.9c0,0.6-0.2,1.5-0.2,2.4l0.1,0.1C210,34.9,210.4,33.5,210.2,32.9z"/>
					<path fill="#FFFFFF" d="M211.5,22.3l-0.1,2.1c0.1-0.4,0.3-0.9,0.3,0.1C212,21.9,211.4,25.1,211.5,22.3z"/>
					<path fill="#FFFFFF" d="M211.6,15.7c0.1,1.1,0.2,0,0.2,0C211.8,15.1,211.7,14.9,211.6,15.7z"/>
					<path fill="#FFFFFF" d="M168.2,10.4l0.1-0.3C167.4,10.1,168.3,10.2,168.2,10.4z"/>
					<polygon fill="#FFFFFF" points="159.1,11.7 159.9,11.8 160.3,11.6 					"/>
					<polygon fill="#FFFFFF" points="153.7,9.9 154.1,9.8 152.6,9.9 					"/>
					<path fill="#FFFFFF" d="M73.8,9.9l0.3,0.3C74.7,10.2,74.8,9.9,73.8,9.9z"/>
					<path fill="#FFFFFF" d="M39.3,10.3c-0.4-0.2-1.3-0.3-1.9-0.1C38.1,10.2,38.9,10.3,39.3,10.3z"/>
					<polygon fill="#FFFFFF" points="71.7,52.7 71,52.8 72.3,52.8 					"/>
				</g>
			</g>
		</g>
	</g>
</g>
</svg>
