<?xml version="1.0" encoding="utf-8"?>
<!-- Generator: Adobe Illustrator 19.1.0, SVG Export Plug-In . SVG Version: 6.00 Build 0)  -->
<svg version="1.1" id="Layer_1" xmlns="http://www.w3.org/2000/svg" xmlns:xlink="http://www.w3.org/1999/xlink" x="0px" y="0px"
	 viewBox="-390 250 122 62" style="enable-background:new -390 250 122 62;" xml:space="preserve">
<style type="text/css">
	.st0{opacity:0.6;}
	.st1{fill:#FFFFFF;}
</style>
<g class="st0">
	<path class="st1" d="M-281.7,300.8c0.1,0.2,0.4,0.1,0.3-0.5l-0.4-0.4L-281.7,300.8z"/>
	<path class="st1" d="M-281,297c-0.2-0.7-0.6-1.4-0.9-1c0.4,0.7,0.2,0.8,0.7,1.5c0.1,0.6-0.1,1-0.3,0.9c0.1,0.2-0.1,0.9,0.2,1.2
		c0.3-0.7,0.3-1.7,0.1-2.6C-281.1,296.8-281,297-281,297z"/>
	<path class="st1" d="M-292.4,259.4l0.2,0.1C-292.3,259.5-292.4,259.4-292.4,259.4z"/>
	<path class="st1" d="M-313.7,259.1c0.2,0,0.2-0.1,0.2-0.1C-313.6,259-313.8,259-313.7,259.1z"/>
	<path class="st1" d="M-317.4,258.3c0.1,0,0.1,0,0.2,0C-317.2,258.3-317.3,258.3-317.4,258.3z"/>
	<path class="st1" d="M-292.4,259.4l-0.6-0.2C-293.1,259.4-292.7,259.4-292.4,259.4z"/>
	<path class="st1" d="M-282,289.4c0,0.2,0.1,0.4,0.1,0.5C-281.8,289.7-281.9,289.6-282,289.4L-282,289.4z"/>
	<path class="st1" d="M-283.1,258.9h0.2c0.1-0.1,0.1-0.2,0.2-0.3c0,0-0.1,0.1-0.2,0.1C-283,258.8-283.1,258.9-283.1,258.9z"/>
	<path class="st1" d="M-279.9,268.4c0-0.3-0.3-0.4-0.5-0.5c0.1,0.1,0.2,0.3,0.2,0.6C-280.1,268.5-280,268.5-279.9,268.4z"/>
	<path class="st1" d="M-280.5,286.8l0.1,0.3C-280.5,287.1-280.5,286.9-280.5,286.8z"/>
	<path class="st1" d="M-288.2,258.8c0-0.1-0.1-0.2-0.1-0.2S-288.3,258.7-288.2,258.8z"/>
	<path class="st1" d="M-289.2,298.2L-289.2,298.2L-289.2,298.2z"/>
	<path class="st1" d="M-280.9,301h-0.1c0,0.1,0,0.2,0,0.3L-280.9,301z"/>
	<path class="st1" d="M-324,257.6L-324,257.6C-323.8,257.6-323.9,257.6-324,257.6z"/>
	<path class="st1" d="M-378.2,273.6c0.3-1.1,0.4,1.8,0.7,0.1C-377.6,273.9-378,272.2-378.2,273.6z"/>
	<path class="st1" d="M-281.9,289.1c0-0.2,0-0.3,0-0.5C-281.9,288.8-281.9,289-281.9,289.1z"/>
	<path class="st1" d="M-377.5,273.7L-377.5,273.7l0.1-0.2C-377.5,273.6-377.5,273.7-377.5,273.7z"/>
	<path class="st1" d="M-339.3,257.9c0.1,0.1,0.1,0.2,0.2,0.2C-339.1,258.1-339.2,258.1-339.3,257.9z"/>
	<path class="st1" d="M-327.9,258.7l-0.3-0.1C-328.1,258.7-328,258.7-327.9,258.7z"/>
	<path class="st1" d="M-345.2,258.7c-0.1,0-0.2-0.1-0.4,0c0,0,0.1,0,0.1,0.1C-345.5,258.7-345.4,258.7-345.2,258.7z"/>
	<path class="st1" d="M-351.4,258.7c0.1,0,0.1,0.1,0.1,0.1s0.1,0,0.2,0L-351.4,258.7z"/>
	<path class="st1" d="M-307.9,298.5c0.1,0.2,0.2,0.3,0.3,0.5C-307.8,298.6-306.9,298.4-307.9,298.5z"/>
	<path class="st1" d="M-281.8,289.4c-0.1-0.1-0.1-0.1-0.1-0.3c0,0.1,0,0.2,0,0.3C-281.8,289.5-281.8,289.5-281.8,289.4z"/>
	<path class="st1" d="M-345.5,263.2l-1-0.1C-346.2,263.1-345.8,263.2-345.5,263.2z"/>
	<path class="st1" d="M-352.2,298.6l0.2-0.1C-352,298.5-352.1,298.5-352.2,298.6z"/>
	<path class="st1" d="M-349.4,263.2c-0.2-0.2-0.4-0.3-0.6-0.4c-0.1,0-0.1,0.1-0.1,0.1L-349.4,263.2z"/>
	<path class="st1" d="M-307.7,299L-307.7,299L-307.7,299z"/>
	<path class="st1" d="M-301.2,297.7c-0.9,0-0.4,0.7-0.6,1.1c-1.1,0.2-0.5-0.5-0.9-0.9c-0.7,0.2-1.2,0.9-1.7,0.8
		c-0.1-0.1-0.1-0.2,0-0.3c-0.7,0.6-2.2,0-3,0.8c-0.1-0.1-0.1-0.1-0.1-0.2c0.1,0.4,0.2,0.7,0.1,1c-0.4,0-0.8,0.5-0.9,0
		c0.2,0,0.2-0.2,0.4-0.3l-0.4,0.2c-0.4-0.7,0.6-0.2,0.6-0.8c-0.9,0.2-1.9,0.8-2.5,0.6c-0.1-0.7,1.6-0.2,0.7-0.8l1,0.3
		c-0.7-1.1,0.6,0.1-0.1-1.1c-1.4-0.2-1.5,0.3-2.8,0.1c-0.3,0.4,0.1,0.6-0.2,0.9c-1.9,0.7-1.5-1.7-2.9-0.8c-0.4,0.5-0.5,1.3-1.5,0.9
		l0.3-0.8c-1.3-0.1-0.7,1.1-2.1,0.6c0.2-0.3,1-0.3,0.8-0.3c-0.9-0.6-0.6,0.4-1.3,0.4l-0.1-0.7c-1.4,0.1-2.9,0.6-4.4,0.7
		c0.1-0.2,0.4-0.4,0-0.6c-1.9,0.3-4.1-0.1-6-0.5l-0.7,0.6c-0.2,0-0.3-0.3-0.1-0.4c-0.7-0.2-0.1,0.4-0.4,0.6c-0.4,0-0.6-0.3-0.3-0.5
		c-1.3,0.5-3.7,1.1-5,0.4l0.2-0.2c-1.1-0.2-1.2,1.2-2.2,0.7l0.2-0.1c-2.3-0.3-4.8,0.3-6.5-0.6c-0.3,0.8-2.2-0.4-2.4,0.8
		c-1.3-0.6-0.9-0.8-2.7-1.2c-0.5-0.1-0.7,0.7-1.3,0.9v-0.6l-0.8,0.6l-0.4-0.7l-0.6,0.2c0.2,0,0.5,0.3,0.4,0.5
		c-0.9,0.3-2.2-0.4-2.2-0.7l-2.1,0.5c0.1-0.2,0.4-0.3,0.7-0.5c-1.1,0.6-0.2-0.6-1.2-0.1c0.1,0.1-0.1,0.4-0.1,0.5
		c-0.5-0.4-1.7-0.4-2.5-0.2l0.2-0.4c-1.6-0.1-3.3,0.2-5,0.2c0.6,0.2,0.5,0.9,0,1l-0.2-0.7c-0.3,0.4,0.6,0.2-0.1,0.7
		c-0.6-0.1-0.4-0.7-0.1-1l-0.8,0.2c-0.1-0.2,0.1-0.3,0.2-0.5c-0.3,0.4-1.4-0.7-1.8,0l-0.1-0.2c-1.7,0-2.5,0.2-4,0.3
		c0,0.6-0.6,0.4-1,0.9c-0.5-0.1-1.1-0.2-1.7-0.4c-0.3-0.1-0.6-0.1-0.9-0.2c-0.2,0-0.7-0.1-0.7,0c-0.1,0.1-0.2,0.3-0.2,0.4
		c-0.1,0.1-0.1,0.3-0.2,0.4c0.1-0.5-0.3-0.5,0.1-0.8c-0.1,0-0.1,0-0.1,0c-0.1-0.6-0.1,0-0.3-3.2c-0.1,0.3-0.2,0.7-0.3,0.5
		c-0.1-0.6,0.1-1.3,0.3-1.2l0.1,0.1c-0.5-3.4,0.9-7.9,0.2-10.7l0.1,0.2l-0.4-2.8c0.1-1.3,0.2,0.8,0.4-0.2c-0.6-3.1,0.1-4.8-0.2-7.4
		c0.9-2-0.1-6.9,0.6-9.6l-0.2,0.2c-0.1-0.3-0.1-0.5,0-0.7c0.1-0.1,0.1-0.1,0.1-0.1s0.1,0,0.1,0c-0.2-0.1-0.2,0.1-0.3,0
		c-0.1-0.3-0.1-0.6-0.1-0.9c0.1,0,0.2,0,0.3,0h0.2h0.1h0.2c0.7,0.1,1.6,0.2,2.3,0.3c1.6,0.2,3.1,0.4,4.6,0.6c1.4,0.1,0.7-1.8,2.5-1
		l-0.5,0.7c2.7-0.8,5.5,0,8.2-0.6c-0.2,0.2-0.2,0.4-0.4,0.3c0.6,0.5,2,0,2.1-0.4c0.4,0,0.1,0.4,0.4,0.6c0.6,0.3,1.4-0.6,1.7-0.1
		c0.1,0.1-0.2,0.2-0.2,0.2c0.4-0.2,1.7,0.1,1.4-0.5c1,0.3,1.9-0.2,2.7,0.1c0.5-0.6,1.7,0.3,1.9-0.6c-0.1,0.9,1.7,0.7,2.4,0.3
		c-0.2,0.3,0.6,0.3,0.3,0.7c0.7,0,1.4-0.2,1.2-0.6c1.3,1.1,2.7-0.9,3.4,0.5c2.1-0.5,4.1-0.8,6-1c-0.1,0.9-2.1,0.1-2,1
		c1.8-0.4,2.9-1.1,4.7-0.9c0.5,0.1-0.2,0.4-0.4,0.5c1.8-0.4,3.5,0.1,5.1-0.4c0,0.1-0.2,0.2-0.4,0.2c0.3,0,0.7,0.1,0.7-0.3l-0.3,0.1
		c-0.5-0.6,1.2-1.2,1.3-1.6c-0.6,1.2,1.6,0.3,0.7,1.8c0.2-0.1,0.5-0.3,0.4-0.5c0.3,0.1,0.4,0.2,0.1,0.6c1.1-0.2,0.7-0.7,1.8-0.6
		c0,0.2-0.2,0.3-0.3,0.5c0.5-0.4,1.1-0.8,1.9-0.6c-0.1,0.1,0.1,0.3-0.2,0.3c1.5-0.1,2.5-1,4.2-0.7c-0.5,0.9,0.6,0.3,0.6,1l0.9-0.2
		l-0.4-0.4c0.8,0,1.5-0.5,2.1-0.3l-0.6,0.3l1.4-0.1l-0.8-0.3c0.8-0.4-0.1-0.9,0.9-0.7c-0.2,0.1,0.8,0,1.2,0.4l0,0
		c0.4-0.2,0.8-0.5,1.4-0.3c0.1,0.2-0.1,0.8,0,1c0.4-0.6,1.8-0.2,2.3-0.8c-0.2,0.2-0.2,0.5-0.1,0.6l0.3-0.5c0.4,0.2,0.4,0.2,0.4,0.6
		c1.1,0.1-0.4-0.9,0.9-0.5c-0.1,0-0.1,0.1-0.2,0.2c1.3,0.2,2.5-0.3,3.7-0.1c0.4,0.8-1.1,0.2-0.6,0.8c1.7-0.1,3.5-0.9,5.2-0.7
		l-0.3-0.1c0.2-1.1,1.2,0.5,2,0c-0.2,0.1-0.2,0.6-0.2,0.5c1.1,0.2,2.3-0.3,4-0.6l-0.2,0.3c0.7,0.2,1.7,0.1,2.5,0.3
		c0.2-0.3,0.6-0.2,0.4-0.6c2.2,1.6,4.2-0.8,6.2,0.5c-0.2,0-0.6,0.2-0.4,0.2l1.7-0.3c-0.1-0.5-0.2-0.3-0.6-0.6
		c0.2-0.3,0.7-0.5,1.1-0.5c-0.4,0.2-0.4,0.3-0.2,0.5c0.1,0.2,0.2,0.4,0.4,0.5c0-0.1,0.1-0.3,0.1-0.4c0.4,0.8,0.4-0.8,1.2-0.4
		c0,0.1,0,0.2-0.1,0.3l-0.1,0.1c0.1,0.5,0.2,0.9,0.2,1.7c-0.3,0.4-0.1-0.6-0.4-0.4c0,0.4,0.2,0.7,0.3,1.2c0.1,0.5,0.2,1,0,1.5
		c-0.1-0.4-0.1-1.2-0.2-1.6c-0.4,1-0.3,1.2-0.4,2v-0.1l-0.2,1.9l0.1-0.5c0.9,1.4,0.2,2.8,0.7,4.6c-0.6-1.8-0.3-0.3-0.7-0.4
		c-0.1,0.5-0.2,1.2-0.3,1c0.3,0.9-0.2,1.5,0.2,2.7c-0.1,0.1,0,0.9-0.3,0.7c0.1,1.1,0.2-0.3,0.4-0.2c0.4,1.7-0.5,4.1,0.1,6.6
		c0.2,2.2,0.6,2.6,0.9,4.6c-0.2,0.7-0.4-0.6-0.4-0.6c-0.2,1.1-0.1,1.9,0,3c-0.1-0.2-0.2,0-0.3,0.3c0.1,0.8,0.4,0.6,0.2,1.6
		c-0.1-0.2-0.4-0.4-0.5-0.8c0.1,1,0.3,1.9,0.4,3c-0.2,0.3-0.3-0.6-0.4-1c0.1,1.1,0.2,2.9,0.5,3.3l0.1-0.7c0,0.4-0.3,0.2-0.4-0.1
		c-0.2-1,0.1-1.4,0.2-1.5l0.1,0.7c0.7-0.7-0.1-2.9-0.1-4.3l0.5,0.6l-0.4-1.5c0.1-0.3,0.4-0.5,0.5,0.2c0.2-1-0.2-0.9,0.1-1.8
		c0.1-0.1,0.1-0.1,0.1,0l-0.1-1c0.1,0.2,0.4-0.2,0.3,0.5c0.3-1.8-0.4-2.9,0-3.6l0.1,0.2c-0.2-2.5-0.4-0.2-0.8-2.1l0.9-1.3l-0.4-0.2
		c0-0.3,0.1-0.8,0.2-0.7c-0.2-1-0.2,0.2-0.4-0.4c0.4-1.3-0.2-3.5,0.4-3.7c-0.3-0.5-0.2,1.2-0.4-0.1c0.6-0.4-0.1-1.6,0.2-2.7
		c0.3,0.4,0.2,1.4,0.4,0.3c-0.6-0.7,0.1-2.2,0-3.2c-0.4,0-0.2-2.1-0.3-3.7c0.1,0,0.1-0.1,0.1-0.4c0.1-0.3,0.1-0.6,0.1-1.3
		c0.1-1.2,0.1-2.8,0.2-4h-0.1l0.1-0.1c-0.7,0.7-1.8,0.6-2.7,0.7c0.1-0.4,0.2-0.6,0.8-0.8h-0.9c-0.2,0.2-0.4,0.4-0.8,0.4l0.2-0.5
		c-0.9,0-1.8,0.6-2.9,0.3c-0.1,0.5,0.9,1.4-0.3,1.8c-0.1-0.3-0.1-0.8,0.2-0.9c-0.1,0-0.4,0.2-0.6,0.1l0.5-0.5
		c-0.5-0.2-0.2,0.4-0.7,0.3c0-0.4-0.3-0.3-0.2-0.6c0.1,0,0.4,0.2,0.5,0c-0.5-0.1-1.1-0.3-1.2-0.6c0.1,0.2,0,0.5-0.3,0.6
		c-0.9,0-0.3-0.5-0.8-0.7c-0.2,0.3-0.7,0-0.8,0.6c-0.2,0-0.3-0.3-0.4-0.4c-0.4,0.3-2.1,0.1-1.6,0.7h0.1h-0.1l0,0l0,0
		c-1.5,0.6-3.1-0.3-4.6-0.1v-0.2c-0.9,0.2-2,0.1-2.6,0.6c-0.2,0-0.6-0.4-0.5-0.6c-0.7,0.1-0.7,0.4-1.7,0c0.7-0.3-0.2-0.3,0.7-0.3
		c-0.9-0.2-1.1-0.5-2,0.1c0.3-0.5-0.7-0.6-1.1-0.5l0.6,0.4c-0.5,0.1-0.9,0-1.3,0l0.2-0.7c-1.8-0.8-3.2,1.4-4.6,0
		c-0.5,0.5,1,0.3,0.6,0.9c-0.8-0.1-1.7-1-1.9-1c-1.1-0.4-1.1,1-2.2,0.7c0.1,0.2,0.3,0.9-0.6,1.1c-0.8-0.1-1-1-0.5-1.2
		c0.2,0,0.3,0.1,0.3,0.1c0.2-0.1,0.6-0.2,0.3-0.4l-0.1,0.2c-0.4-0.2-1.6-0.2-1.3-0.6c-0.6,0.2-0.2,0.4,0.2,0.5
		c-1.1-0.3-1.7,0-2.7-0.2c0.2,0.1,0.3,0.4,0.2,0.4c-1.6-0.3-0.7,0.5-1.8,0.6c-0.6-0.4,0.2-0.9-0.9-0.6c-0.7-0.2-0.1-0.6,0.1-0.8
		c-1,0.5-1.9-0.3-2.4-0.4l0.5-0.2c-0.3,0.1-0.6,0.1-0.8,0.1l0.3,0.5c-0.3-0.1-0.6-0.1-0.6-0.3c-0.3,0.3,0.2,0.8-0.4,1.2
		c-0.4-0.2-1.2,0.3-1.4-0.4c1.3,0.2-0.1-0.6,0.9-0.7c-0.2,0.1-0.5,0.1-0.8,0c-0.1-0.1,0.1-0.1,0.1-0.2c-1.2-0.6-0.6,0.7-1.9,0.7
		c0.2-0.4-0.3-0.7-0.5-0.6c0.5,0,0.2,0.6-0.2,0.9c-0.8-0.3-0.9,0.2-1.3,0.2l0.5,0.1c-0.2,0.4-0.6,0.3-1.2,0.4
		c-0.4-0.6,0.2-0.5,0-0.6c-0.6,0.6-1.4-0.6-2.3-0.2c-0.4-0.2-0.1-0.7-0.4-0.8c-1,0.5-1.1-0.5-2.1-0.1c0.3,0.5,0.4,0.4-0.4,0.8
		l1.7-0.3l-1.2,0.6c0.5,0,1.1-0.3,1.4-0.2c-0.5,0.4-0.5,0.3-0.2,0.7c-0.7-0.7-1.4,0.4-2.2-0.1v-1.2c-1.2-0.5-2.2,0.6-3.8,0.3
		l0.5,0.2c-0.2,0.5-1,0.1-1.5,0.3c0.1-0.4-0.2-0.5-0.5-0.8c0,0.3-1.2,0-1.3,0.8l-0.7-0.5c-1.3-0.2-1.5,1.1-2.7,1
		c0.4-0.4-0.2-0.7,0.6-1c-0.4,0-0.8-0.1-0.8,0.2c-0.2-0.2-1.2,0.5-1.6,0.2c-0.2,0.2-0.2,0.6-0.7,0.6c-0.1-0.1,0-0.2,0-0.2
		c0,0.2-0.7,0.3-0.3,0.7c-1.3-1.2-3.6,0.1-4.7-1c-0.9,0.1-2,0.3-2.8,0.3c0.1-0.3,0.1-0.4,0.2-0.3c-1.1-0.4-0.7,1.1-2,0.7
		c-0.7-0.6,0.7-0.3,0.2-0.6c-0.2-1.3-1.6,0.2-2.4-0.6l0.2-0.1c-0.6-0.4-1.6,0.6-2.7,0.5c0,0,0.1-0.1,0-0.2c-0.7,0.7-2.2,0.9-3.2,1.1
		c0.3-0.6,0.5-0.3,0.3-0.8c-0.5,0.1,0.1,0.8-0.8,1c-0.3-0.3-1-0.5-1.1-1.1h0.9c-0.4-0.7-1.1,0-1.6-0.1l0.1-0.3
		c-1.4,0.1-1.4,0.9-2.8,0.8l0.1,0.2c-0.8,0.8-0.7-0.5-1.5,0.1l-0.2-0.8c-0.5,0.2-1.9,0.8-2.8,0.9c0.6-0.6,1.6-0.9,2.3-1.2
		c-0.4,0-1.7,0.1-2,0.5c0.2-0.1,0.5-0.3,0.7-0.1c-0.6,0.6-1.5,0.9-2.5,0.9c0.2-1-1.5-0.9-3.1-1c-0.1,1.3-0.1,2.4-0.4,3
		c0.1,0.6,0.1,1.3,0.1,1.8c0,0.4,0,0.7,0.1,1.1c0,0.7,0,1.5-0.1,2.2c-0.1,1.5-0.2,3.1-0.2,4.8c0.7-1.2,0,1,0.8,0.8
		c0.1,0.8,0.1,1.1,0,1.2l-0.4,2.4c-0.2,0.6-0.2-0.8-0.3-0.7c-0.1,1.7-0.3,0.7-0.5,1.9c0.2-0.2,0.4,0.6,0.3,1.6l0.4-1.4
		c0.4,2.4-0.6,2.1-0.2,4.6l-0.2-0.8c0.1,1.3,0,4.7,0.6,5.9c-0.1,0.2-0.3,0.5-0.4,0c-0.1,3,0.6,6.7,0.2,9.1l-0.2-0.2
		c0,0.3,0.1,0.5,0.2,0.8c0,0.1,0.1,0.3,0.1,0.4c0,0.1,0,0.2,0,0.2c0,0.1-0.1,0.2-0.1,0.3c-0.1-0.1-0.2-0.4-0.2,0.1
		c0.1,0.3,0.1,0.9,0.2,1.6c0.1,0.7,0.1,1.4,0.1,2.1l-0.2-0.9c-0.1,1-0.1,1.9-0.1,2.6c1.2,0,2.2-0.3,3.1-0.5c0.5-0.1,0.7-0.2,1-0.3
		c0.3-0.1,0.6-0.2,0.9-0.2c0,0.9,1.4,1.2,2.2,1.3v0.1c2.1,0.1,3.6-0.7,5.6-1.1c1.2,1,4.2,0.4,6.1,0.9c-0.3-0.2,0.1-0.7,0.4-0.8
		c0.4,0.2,1.3-0.6,1.2,0.2h-0.2c0.4,0.8,1.3,0.6,2,0.6l0.1-1.1c1.9,1.5,5.1-0.6,6.1,0.8c0.5-0.3,1.1-0.3,1.5-0.5v0.6
		c1.3,0.1,1.9,0.2,3.5,0.1l-0.3,0.4c0.9,0,1.1-1.6,2-1.7l0.2,0.8c1.6,0,3.2,0.7,4.7,0c0,0.1-0.1,0.4-0.3,0.4c0.7,0,2.9,0.6,2.6-0.6
		c0,0.8,1.6,0.1,2.5-0.3l-0.1,0.6c0.7-0.7,0.7-0.9,1.7-1.1c0.2,0.1,0.2,0.4-0.1,0.3c0.8,0.3,0.6-0.5,1.6-0.2l-0.4,0.4
		c0.8,0,0.7-0.1,1.2-0.6c0.5-0.2,1.6,0.1,1.7,0.6c0.1-0.3,0.6-0.7,1.1-0.6c0.1,0.2-0.1,0.3-0.2,0.4c1.4,0.4,2-0.6,3-0.1
		c0,0.2,0.1,0.3,0.2,0.3c-1.1,0-2,0-1.9-0.1c0,0.5,0.9,0.6,0.2,1.3c0.7-0.4,1.9-1.2,2.7-1c0.1,0,0.1,0.1,0.1,0.2l-0.1,0.1
		c0.2,0.1,0.4,0,0.6-0.1c0.2,0.1,0.4,0.1,0.7,0.2c0.1,0.4,1,0.2,1.4,0.2c-0.1-0.6,0.6-0.5,0-0.9c0.1,0-0.1,0.1-0.4,0.1
		c-0.1,0-0.1,0-0.2,0.1l0,0c-0.3,0-0.7,0-1.1,0c0.4-0.3,0.7-0.5,1.2-0.2c0.2-0.4,0.5-0.7,0.6-0.9c0.6,0.8,1.7,1.2,1.9,1.7
		c1.3-0.3,3.2-0.2,4-1.3c0.4-0.1,0.4,0.3,0.6,0.5c-0.2,0.1-0.5,0.1-0.6,0.2c0.7-0.3,2.2-0.1,2.4-0.8c0.9,0.3-0.6,0.7,0.7,0.6
		l-0.2,0.2c2.6,1.2,4.2-1.9,7.1-0.4c-0.2-0.1-0.3-0.1-0.3-0.3c3.3,0.7,6.7-0.6,9.9,0.4c0.9,0.2,1-0.3,1.6-0.6l0.2,0.6l0.9-0.7
		c1.4-0.5,2.4,1.5,4,0.5l-0.2-0.4c0.6,0.1,1.9-0.2,1.9,0.2c0.1-0.1,0.2-0.4,0.4-0.2v0.3l1.5-0.5c1.2,0.2-0.2,1.3,1.6,1.3
		c0.6-0.1,1.8-0.9,1.6-1.1c-0.2,0-0.7-0.2-0.7-0.5l0.6-0.2c0.1-0.9,0.6-1.9-0.9-2.5l-1,0.6l-0.3-0.5h0.8c-0.5-0.4-0.7,0-1.1,0.2
		c-0.1-0.2-0.2-0.4-0.4-0.5l-1,0.9c-0.1-0.4,0.4-0.7-0.2-0.9c-0.4,0.4,0.4,0.8-0.3,1.1c-0.5-0.4-0.3-0.8-0.9-0.4
		c-0.1-0.2,0.1-0.4,0.2-0.5c-0.5,0.3-1.3,0.1-1.6,0.6c-0.5-0.5-1.7,0.1-1.6-0.7c-0.2,0.2-0.9,0.7-1.3,0.7c0.8-1.1-1.7-0.1-1.5-1.2
		c-0.6,0.9-2.2,0.4-3.3,0.9c0.1-0.1,0.2-0.2,0.2-0.2c-0.6-0.1-0.8-0.4-1.2-0.5c-0.1,0.8-1.1,1-1.6,1.4c-0.7-0.8,0.4-0.9,0.2-1.6
		c0.1,0.6-1.3,0.6-1.1,1.2c-0.6-0.5-0.5-0.2-0.8-0.9c-0.1,1-0.6,0.2-1,0.8c-0.8-0.5-0.2-0.9-1.1-0.6
		C-302.1,298-301.2,297.7-301.2,297.7z M-323,299.3L-323,299.3c0.2,0,0.4,0,0.4,0C-322.6,299.3-322.8,299.3-323,299.3z
		 M-324.9,299.4c0.2,0,0.5,0,0.8,0c0.1,0.2,0,0.4-0.2,0.4C-324.1,299.6-324.6,299.5-324.9,299.4z M-321,303.3
		c-0.3,0.1-0.4,0-0.4-0.1c0.1,0,0.3,0,0.5-0.1c0,0,0,0,0.1-0.1C-320.9,303.1-320.9,303.2-321,303.3z"/>
	<path class="st1" d="M-320.5,302.5c0.1,0,0.1,0,0.1,0c-0.1,0-0.1-0.1-0.2-0.1c-0.1,0.1-0.1,0.1-0.1,0.2
		C-320.6,302.5-320.5,302.5-320.5,302.5z"/>
	<path class="st1" d="M-292.2,259.5L-292.2,259.5L-292.2,259.5C-292.2,259.6-292.2,259.5-292.2,259.5z"/>
	<polygon class="st1" points="-350.2,298.3 -350.1,298.4 -350,298.3 	"/>
	<path class="st1" d="M-282.4,261.4c0,0,0,0.1,0.1,0.1C-282.3,261.6-282.3,261.5-282.4,261.4z"/>
	<path class="st1" d="M-281.6,265.4l-0.1,1C-281.7,266-281.6,265.7-281.6,265.4z"/>
	<path class="st1" d="M-281.8,270.8c0.1,0.1,0.1,0.1,0.1,0.1l0,0L-281.8,270.8z"/>
	<path class="st1" d="M-327.7,262.5c-0.1,0-0.1,0-0.1,0C-328.1,262.6-327.9,262.6-327.7,262.5z"/>
	<path class="st1" d="M-311.8,261.2c-0.2,0.1-0.3,0.2-0.5,0.3C-312,261.5-311.8,261.5-311.8,261.2z"/>
	<path class="st1" d="M-345.4,263.2L-345.4,263.2c-0.1,0-0.1,0-0.1,0H-345.4z"/>
	<path class="st1" d="M-313.1,261.5c0.3,0.1,0.5,0.1,0.7,0C-312.6,261.4-312.8,261.4-313.1,261.5z"/>
	<path class="st1" d="M-282,294.2v0.3h0.1L-282,294.2z"/>
	<path class="st1" d="M-282,294.5l0.1,0.3C-281.9,294.7-281.9,294.6-282,294.5z"/>
	<path class="st1" d="M-281.8,295.4l-0.1-0.6C-281.9,295-281.9,295.3-281.8,295.4z"/>
	<path class="st1" d="M-281.8,287.1l-0.1-0.1C-282,287-281.9,287.1-281.8,287.1z"/>
	<path class="st1" d="M-281.8,284.9c0,0.5-0.2,1.3-0.2,2l0.1,0.1C-282.1,286.7-281.6,285.4-281.8,284.9z"/>
	<path class="st1" d="M-280.3,275.8l-0.1,1.8c0.1-0.3,0.3-0.7,0.4,0.1C-279.7,275.4-280.3,278.2-280.3,275.8z"/>
	<path class="st1" d="M-280.1,270.2c0.1,1,0.2,0,0.2,0C-280,269.6-280,269.5-280.1,270.2z"/>
	<path class="st1" d="M-300.1,259.1l0.1-0.5C-300.5,258.6-300.1,258.8-300.1,259.1z"/>
	<polygon class="st1" points="-305,261.7 -304.5,262 -304.3,261.6 	"/>
	<polygon class="st1" points="-307.8,258.1 -307.6,258 -308.4,258.2 	"/>
	<path class="st1" d="M-350.3,258.2l0.1,0.6C-349.9,258.8-349.8,258.1-350.3,258.2z"/>
	<path class="st1" d="M-368.7,258.9c-0.2-0.3-0.7-0.5-1.1-0.2C-369.3,258.7-368.8,259-368.7,258.9z"/>
	<polygon class="st1" points="-355,303.3 -355.4,303.5 -354.7,303.4 	"/>
</g>
</svg>
