<?xml version="1.0" encoding="utf-8"?>
<!-- Generator: Adobe Illustrator 19.1.0, SVG Export Plug-In . SVG Version: 6.00 Build 0)  -->
<svg version="1.1" id="Layer_1" xmlns="http://www.w3.org/2000/svg" xmlns:xlink="http://www.w3.org/1999/xlink" x="0px" y="0px"
	 viewBox="0 0 178 62" enable-background="new 0 0 178 62" xml:space="preserve">
<g opacity="0.6">
	<path fill="#FFFFFF" d="M166.5,50.8c0.2,0.2,0.6,0.1,0.5-0.5l-0.7-0.4L166.5,50.8z"/>
	<path fill="#FFFFFF" d="M167.7,47c-0.3-0.7-0.9-1.4-1.5-1c0.6,0.7,0.4,0.8,1.1,1.5c0.1,0.6-0.2,1-0.5,0.9c0.2,0.2-0.1,0.9,0.3,1.2
		c0.5-0.7,0.5-1.7,0.1-2.6C167.4,46.8,167.6,47,167.7,47z"/>
	<path fill="#FFFFFF" d="M149.2,9.4l0.4,0.1C149.4,9.5,149.3,9.4,149.2,9.4z"/>
	<path fill="#FFFFFF" d="M114.9,9.1c0.3,0,0.4-0.1,0.4-0.1C115,9,114.8,9,114.9,9.1z"/>
	<path fill="#FFFFFF" d="M109,8.3c0.1,0,0.2,0,0.3,0C109.2,8.3,109.1,8.3,109,8.3z"/>
	<path fill="#FFFFFF" d="M149.2,9.4l-0.9-0.2C148.2,9.4,148.7,9.4,149.2,9.4z"/>
	<path fill="#FFFFFF" d="M166.1,39.4c0,0.2,0.1,0.4,0.2,0.5c0-0.2-0.1-0.3-0.1-0.5C166.2,39.4,166.1,39.4,166.1,39.4z"/>
	<path fill="#FFFFFF" d="M164.3,8.9l0.3,0c0.1-0.1,0.2-0.2,0.3-0.3c0,0-0.2,0.1-0.4,0.1C164.4,8.8,164.3,8.9,164.3,8.9z"/>
	<path fill="#FFFFFF" d="M169.4,18.4c0-0.3-0.5-0.4-0.8-0.5c0.2,0.1,0.3,0.3,0.4,0.6C169.1,18.5,169.2,18.5,169.4,18.4z"/>
	<path fill="#FFFFFF" d="M168.4,36.8l0.1,0.3C168.4,37.1,168.4,36.9,168.4,36.8z"/>
	<path fill="#FFFFFF" d="M156,8.8c0-0.1-0.1-0.2-0.1-0.2C155.9,8.6,155.9,8.7,156,8.8z"/>
	<path fill="#FFFFFF" d="M154.4,48.2c0,0,0,0.1,0,0.1C154.4,48.3,154.4,48.2,154.4,48.2z"/>
	<path fill="#FFFFFF" d="M167.8,51l-0.2,0c0,0.1,0,0.2,0,0.3L167.8,51z"/>
	<path fill="#FFFFFF" d="M98.3,7.6C98.3,7.6,98.3,7.6,98.3,7.6C98.6,7.6,98.5,7.6,98.3,7.6z"/>
	<path fill="#FFFFFF" d="M10.9,23.6c0.5-1.1,0.6,1.8,1.2,0.1C11.9,23.9,11.2,22.2,10.9,23.6z"/>
	<path fill="#FFFFFF" d="M166.2,39.1c0-0.2,0-0.3,0-0.5C166.2,38.8,166.2,39,166.2,39.1z"/>
	<path fill="#FFFFFF" d="M12.1,23.7L12.1,23.7l0.1-0.2C12.1,23.6,12.1,23.7,12.1,23.7z"/>
	<path fill="#FFFFFF" d="M73.6,7.9c0.1,0.1,0.1,0.2,0.3,0.2C73.9,8.1,73.8,8.1,73.6,7.9z"/>
	<path fill="#FFFFFF" d="M92,8.7l-0.5-0.1C91.7,8.7,91.9,8.7,92,8.7z"/>
	<path fill="#FFFFFF" d="M64.1,8.7c-0.2,0-0.3-0.1-0.7,0c0,0,0.1,0,0.1,0.1C63.6,8.7,63.8,8.7,64.1,8.7z"/>
	<path fill="#FFFFFF" d="M54.1,8.7c0.1,0,0.1,0.1,0.2,0.1c0.1,0,0.2,0,0.3,0L54.1,8.7z"/>
	<path fill="#FFFFFF" d="M124.2,48.5c0.2,0.2,0.4,0.3,0.5,0.5C124.5,48.6,125.9,48.4,124.2,48.5z"/>
	<path fill="#FFFFFF" d="M166.4,39.4c-0.1-0.1-0.2-0.1-0.2-0.3c0,0.1,0,0.2,0,0.3C166.3,39.5,166.4,39.5,166.4,39.4z"/>
	<path fill="#FFFFFF" d="M63.7,13.2l-1.6-0.1C62.5,13.1,63.1,13.2,63.7,13.2z"/>
	<path fill="#FFFFFF" d="M52.9,48.6l0.4-0.1C53.1,48.5,53,48.5,52.9,48.6z"/>
	<path fill="#FFFFFF" d="M57.4,13.2c-0.3-0.2-0.6-0.3-0.9-0.4c-0.1,0-0.1,0.1-0.2,0.1L57.4,13.2z"/>
	<path fill="#FFFFFF" d="M124.6,49L124.6,49L124.6,49z"/>
	<path fill="#FFFFFF" d="M135,47.7c-1.5,0-0.7,0.7-1,1.1c-1.8,0.2-0.8-0.5-1.4-0.9c-1.1,0.2-2,0.9-2.8,0.8c-0.1-0.1-0.2-0.2,0-0.3
		c-1.2,0.6-3.5,0-4.9,0.8c-0.1-0.1-0.2-0.1-0.2-0.2c0.2,0.4,0.3,0.7,0.2,1c-0.7,0-1.3,0.5-1.5,0c0.4,0,0.4-0.2,0.6-0.3l-0.7,0.2
		c-0.6-0.7,1-0.2,1-0.8c-1.4,0.2-3,0.8-4,0.6c-0.2-0.7,2.5-0.2,1.1-0.8l1.6,0.3c-1.2-1.1,1,0.1-0.2-1.1c-2.2-0.2-2.4,0.3-4.5,0.1
		c-0.5,0.4,0.2,0.6-0.3,0.9c-3,0.7-2.4-1.7-4.6-0.8c-0.6,0.5-0.8,1.3-2.4,0.9l0.5-0.8c-2.1-0.1-1.2,1.1-3.4,0.6
		c0.4-0.3,1.6-0.3,1.3-0.3c-1.4-0.6-1,0.4-2.1,0.4l-0.2-0.7c-2.2,0.1-4.7,0.6-7.1,0.7c0.1-0.2,0.6-0.4,0-0.6
		c-3.1,0.3-6.6-0.1-9.6-0.5l-1.1,0.6c-0.3,0-0.5-0.3-0.2-0.4c-1.2-0.2-0.1,0.4-0.6,0.6c-0.7,0-0.9-0.3-0.5-0.5
		c-2.1,0.5-5.9,1.1-8,0.4l0.4-0.2c-1.7-0.2-1.9,1.2-3.5,0.7l0.3-0.1c-3.7-0.3-7.7,0.3-10.5-0.6c-0.5,0.8-3.6-0.4-3.9,0.8
		c-2.1-0.6-1.5-0.8-4.4-1.2c-0.8-0.1-1.2,0.7-2.1,0.9l0-0.6l-1.3,0.6l-0.7-0.7l-0.9,0.2c0.4,0,0.8,0.3,0.7,0.5
		c-1.4,0.3-3.5-0.4-3.5-0.7l-3.4,0.5c0.1-0.2,0.6-0.3,1.1-0.5c-1.8,0.6-0.3-0.6-2-0.1c0.2,0.1-0.1,0.4-0.2,0.5
		c-0.8-0.4-2.7-0.4-4.1-0.2l0.3-0.4c-2.5-0.1-5.3,0.2-8.1,0.2c1,0.2,0.8,0.9,0,1l-0.3-0.7c-0.5,0.4,0.9,0.2-0.2,0.7
		c-1-0.1-0.7-0.7-0.1-1l-1.3,0.2c-0.1-0.2,0.2-0.3,0.3-0.5c-0.5,0.4-2.2-0.7-2.9,0l-0.1-0.2c-2.8,0-4.1,0.2-6.4,0.3
		c0,0.6-0.9,0.4-1.6,0.9c-0.8-0.1-1.7-0.2-2.7-0.4c-0.5-0.1-0.9-0.1-1.4-0.2c-0.4,0-1.1-0.1-1.1,0c-0.2,0.1-0.3,0.3-0.4,0.4
		c-0.1,0.1-0.1,0.3-0.3,0.4c0.1-0.5-0.5-0.5,0.1-0.8c-0.1,0-0.1,0-0.2,0c-0.1-0.6-0.1,0-0.5-3.2c-0.2,0.3-0.3,0.7-0.5,0.5
		c-0.1-0.6,0.2-1.3,0.5-1.2l0.1,0.1c-0.8-3.4,1.5-7.9,0.4-10.7l0.1,0.2l-0.6-2.8c0.1-1.3,0.4,0.8,0.7-0.2c-0.9-3.1,0.1-4.8-0.4-7.4
		c1.5-2-0.1-6.9,0.9-9.6l-0.4,0.2c-0.2-0.3-0.1-0.5,0-0.7c0.1-0.1,0.1-0.1,0.2-0.1c0.1,0,0.1,0,0.1,0c-0.3-0.1-0.3,0.1-0.5,0
		c-0.1-0.3-0.1-0.6-0.1-0.9c0.2,0,0.4,0,0.5,0l0.3,0l0.1,0l0.4,0c1.2,0.1,2.5,0.2,3.7,0.3c2.5,0.2,5,0.4,7.4,0.6
		c2.2,0.1,1.2-1.8,4-1l-0.8,0.7c4.4-0.8,8.9,0,13.2-0.6c-0.3,0.2-0.3,0.4-0.7,0.3c0.9,0.5,3.3,0,3.4-0.4c0.7,0,0.2,0.4,0.6,0.6
		c0.9,0.3,2.3-0.6,2.8-0.1c0.1,0.1-0.3,0.2-0.4,0.2c0.6-0.2,2.8,0.1,2.2-0.5c1.6,0.3,3.1-0.2,4.4,0.1c0.8-0.6,2.7,0.3,3-0.6
		c-0.1,0.9,2.8,0.7,3.8,0.3c-0.3,0.3,0.9,0.3,0.5,0.7c1.2,0,2.2-0.2,2-0.6c2.1,1.1,4.3-0.9,5.5,0.5c3.4-0.5,6.6-0.8,9.7-1
		c-0.1,0.9-3.4,0.1-3.3,1c2.9-0.4,4.6-1.1,7.5-0.9c0.8,0.1-0.4,0.4-0.7,0.5c2.9-0.4,5.7,0.1,8.3-0.4c0,0.1-0.3,0.2-0.6,0.2
		c0.5,0,1.2,0.1,1.1-0.3L93,12.3c-0.8-0.6,2-1.2,2.1-1.6c-0.9,1.2,2.6,0.3,1.2,1.8c0.3-0.1,0.8-0.3,0.7-0.5c0.5,0.1,0.7,0.2,0.2,0.6
		c1.8-0.2,1.2-0.7,2.9-0.6c0,0.2-0.3,0.3-0.5,0.5c0.8-0.4,1.7-0.8,3.1-0.6c-0.1,0.1,0.1,0.3-0.3,0.3c2.4-0.1,4.1-1,6.8-0.7
		c-0.8,0.9,0.9,0.3,1,1l1.4-0.2l-0.6-0.4c1.3,0,2.4-0.5,3.4-0.3l-0.9,0.3l2.3-0.1l-1.3-0.3c1.3-0.4-0.1-0.9,1.5-0.7
		c-0.3,0.1,1.3,0,1.9,0.4l0,0c0.6-0.2,1.3-0.5,2.2-0.3c0.2,0.2-0.2,0.8,0,1c0.6-0.6,2.9-0.2,3.7-0.8c-0.3,0.2-0.3,0.5-0.2,0.6
		l0.5-0.5c0.6,0.2,0.7,0.2,0.6,0.6c1.7,0.1-0.6-0.9,1.5-0.5c-0.2,0-0.1,0.1-0.4,0.2c2.1,0.2,4-0.3,5.9-0.1c0.6,0.8-1.7,0.2-1,0.8
		c2.8-0.1,5.7-0.9,8.4-0.7l-0.5-0.1c0.4-1.1,2,0.5,3.3,0c-0.3,0.1-0.4,0.6-0.3,0.5c1.8,0.2,3.7-0.3,6.5-0.6l-0.3,0.3
		c1.1,0.2,2.8,0.1,4,0.3c0.3-0.3,1-0.2,0.6-0.6c3.6,1.6,6.8-0.8,10,0.5c-0.4,0-0.9,0.2-0.6,0.2l2.7-0.3c-0.2-0.5-0.4-0.3-0.9-0.6
		c0.3-0.3,1.1-0.5,1.8-0.5c-0.6,0.2-0.6,0.3-0.4,0.5c0.2,0.2,0.4,0.4,0.6,0.5c0-0.1,0.2-0.3,0.2-0.4c0.6,0.8,0.7-0.8,2-0.4
		c0,0.1,0,0.2-0.1,0.3l-0.2,0.1c0.1,0.5,0.4,0.9,0.4,1.7c-0.5,0.4-0.2-0.6-0.7-0.4c0,0.4,0.3,0.7,0.5,1.2c0.2,0.5,0.3,1,0,1.5
		c-0.1-0.4-0.2-1.2-0.3-1.6c-0.6,1-0.5,1.2-0.6,2l0-0.1l-0.3,1.9l0.2-0.5c1.4,1.4,0.3,2.8,1.2,4.6c-0.9-1.8-0.5-0.3-1.1-0.4
		c-0.2,0.5-0.4,1.2-0.5,1c0.5,0.9-0.4,1.5,0.3,2.7c-0.2,0.1,0,0.9-0.5,0.7c0.2,1.1,0.3-0.3,0.6-0.2c0.7,1.7-0.8,4.1,0.1,6.6
		c0.4,2.2,1,2.6,1.4,4.6c-0.3,0.7-0.7-0.6-0.7-0.6c-0.3,1.1-0.2,1.9,0,3c-0.2-0.2-0.3,0-0.5,0.3c0.1,0.8,0.7,0.6,0.4,1.6
		c-0.2-0.2-0.6-0.4-0.8-0.8c0.2,1,0.5,1.9,0.7,3c-0.3,0.3-0.5-0.6-0.7-1c0.2,1.1,0.3,2.9,0.8,3.3l0.2-0.7c0,0.4-0.5,0.2-0.6-0.1
		c-0.4-1,0.2-1.4,0.4-1.5l0.1,0.7c1.1-0.7-0.2-2.9-0.1-4.3l0.8,0.6l-0.7-1.5c0.2-0.3,0.7-0.5,0.8,0.2c0.4-1-0.3-0.9,0.2-1.8
		c0.1-0.1,0.1-0.1,0.1,0l-0.2-1c0.2,0.2,0.6-0.2,0.5,0.5c0.5-1.8-0.6-2.9,0-3.6l0.1,0.2c-0.3-2.5-0.6-0.2-1.3-2.1l1.5-1.3l-0.6-0.2
		c0-0.3,0.1-0.8,0.3-0.7c-0.4-1-0.3,0.2-0.7-0.4c0.6-1.3-0.3-3.5,0.7-3.7c-0.5-0.5-0.4,1.2-0.7-0.1c1-0.4-0.2-1.6,0.3-2.7
		c0.5,0.4,0.3,1.4,0.7,0.3c-0.9-0.7,0.2-2.2,0-3.2c-0.7,0-0.3-2.1-0.5-3.7c0.1,0,0.1-0.1,0.2-0.4c0.1-0.3,0.1-0.6,0.2-1.3
		c0.1-1.2,0.2-2.8,0.3-4c0,0-0.1,0-0.1,0l0.2-0.1c-1.1,0.7-2.9,0.6-4.3,0.7c0.1-0.4,0.3-0.6,1.3-0.8l-1.5,0
		c-0.3,0.2-0.6,0.4-1.3,0.4l0.3-0.5c-1.4,0-2.9,0.6-4.7,0.3c-0.1,0.5,1.5,1.4-0.5,1.8c-0.1-0.3-0.1-0.8,0.4-0.9
		c-0.2,0-0.6,0.2-0.9,0.1l0.8-0.5c-0.8-0.2-0.4,0.4-1.1,0.3c0-0.4-0.5-0.3-0.4-0.6c0.2,0,0.6,0.2,0.8,0c-0.8-0.1-1.7-0.3-2-0.6
		c0.1,0.2,0,0.5-0.5,0.6c-1.4,0-0.5-0.5-1.3-0.7c-0.3,0.3-1.2,0-1.3,0.6c-0.4,0-0.5-0.3-0.7-0.4c-0.7,0.3-3.4,0.1-2.6,0.7l0.2,0
		c0,0-0.1,0-0.1,0c0,0,0,0,0,0h0c-2.4,0.6-5-0.3-7.4-0.1l0-0.2c-1.4,0.2-3.2,0.1-4.2,0.6c-0.4,0-1-0.4-0.8-0.6
		c-1.1,0.1-1.2,0.4-2.8,0c1.1-0.3-0.4-0.3,1.1-0.3c-1.4-0.2-1.7-0.5-3.3,0.1c0.5-0.5-1.1-0.6-1.7-0.5l1,0.4c-0.8,0.1-1.4,0-2.1,0
		l0.4-0.7c-2.9-0.8-5.2,1.4-7.4,0c-0.8,0.5,1.6,0.3,0.9,0.9c-1.3-0.1-2.7-1-3.1-1c-1.8-0.4-1.7,1-3.6,0.7c0.2,0.2,0.5,0.9-1,1.1
		c-1.3-0.1-1.6-1-0.8-1.2c0.3,0,0.5,0.1,0.5,0.1c0.4-0.1,1-0.2,0.5-0.4l-0.2,0.2c-0.7-0.2-2.5-0.2-2.1-0.6c-1,0.2-0.4,0.4,0.3,0.5
		c-1.7-0.3-2.7,0-4.4-0.2c0.3,0.1,0.5,0.4,0.3,0.4c-2.6-0.3-1.1,0.5-2.9,0.6c-1-0.4,0.4-0.9-1.4-0.6c-1.1-0.2-0.2-0.6,0.2-0.8
		c-1.6,0.5-3-0.3-3.9-0.4l0.8-0.2c-0.5,0.1-0.9,0.1-1.3,0.1l0.5,0.5c-0.5-0.1-0.9-0.1-0.9-0.3c-0.5,0.3,0.4,0.8-0.6,1.2
		c-0.7-0.2-2,0.3-2.2-0.4c2.1,0.2-0.2-0.6,1.5-0.7c-0.3,0.1-0.8,0.1-1.3,0c-0.1-0.1,0.1-0.1,0.2-0.2c-2-0.6-0.9,0.7-3,0.7
		c0.3-0.4-0.5-0.7-0.8-0.6c0.8,0,0.4,0.6-0.4,0.9c-1.3-0.3-1.4,0.2-2.1,0.2l0.8,0.1c-0.3,0.4-0.9,0.3-1.9,0.4
		C90.9,9,91.8,9.1,91.5,9c-1,0.6-2.3-0.6-3.7-0.2c-0.7-0.2-0.1-0.7-0.6-0.8c-1.6,0.5-1.7-0.5-3.4-0.1c0.5,0.5,0.6,0.4-0.6,0.8
		l2.8-0.3L84,9c0.8,0,1.8-0.3,2.3-0.2c-0.8,0.4-0.8,0.3-0.4,0.7c-1.1-0.7-2.3,0.4-3.6-0.1l0-1.2c-2-0.5-3.5,0.6-6.1,0.3l0.8,0.2
		c-0.3,0.5-1.6,0.1-2.4,0.3c0.1-0.4-0.4-0.5-0.8-0.8c0,0.3-1.9,0-2.1,0.8l-1.2-0.5c-2.1-0.2-2.4,1.1-4.4,1c0.6-0.4-0.3-0.7,1-1
		c-0.7,0-1.3-0.1-1.3,0.2c-0.4-0.2-1.9,0.5-2.5,0.2c-0.3,0.2-0.4,0.6-1.1,0.6c-0.1-0.1,0-0.2,0-0.2c0,0.2-1.2,0.3-0.5,0.7
		c-2.1-1.2-5.8,0.1-7.5-1c-1.5,0.1-3.2,0.3-4.5,0.3C49.9,9,49.8,8.9,50,9c-1.8-0.4-1.1,1.1-3.2,0.7c-1.1-0.6,1.1-0.3,0.4-0.6
		c-0.3-1.3-2.5,0.2-3.9-0.6l0.3-0.1C42.6,8,41.1,9,39.3,8.9c0,0,0.1-0.1,0-0.2c-1.2,0.7-3.5,0.9-5.1,1.1C34.7,9.2,35,9.5,34.7,9
		c-0.8,0.1,0.2,0.8-1.3,1c-0.5-0.3-1.6-0.5-1.7-1.1l1.4,0c-0.7-0.7-1.8,0-2.6-0.1l0.1-0.3c-2.2,0.1-2.2,0.9-4.5,0.8l0.2,0.2
		C25,10.3,25.2,9,23.9,9.6l-0.4-0.8c-0.8,0.2-3,0.8-4.5,0.9c0.9-0.6,2.6-0.9,3.7-1.2C22,8.5,20,8.6,19.5,9c0.3-0.1,0.8-0.3,1.1-0.1
		c-1,0.6-2.4,0.9-4,0.9c0.4-1-2.4-0.9-5-1c-0.1,1.3-0.2,2.4-0.6,3c0.1,0.6,0.1,1.3,0.2,1.8c0,0.4,0,0.7,0.1,1.1c0,0.7,0,1.5-0.1,2.2
		c-0.1,1.5-0.3,3.1-0.3,4.8c1.2-1.2,0,1,1.3,0.8c0.1,0.8,0.1,1.1,0,1.2l-0.7,2.4c-0.4,0.6-0.3-0.8-0.5-0.7c-0.1,1.7-0.5,0.7-0.8,1.9
		c0.4-0.2,0.6,0.6,0.5,1.6l0.6-1.4c0.7,2.4-1,2.1-0.4,4.6l-0.4-0.8c0.2,1.3,0,4.7,1,5.9c-0.1,0.2-0.5,0.5-0.6,0
		c-0.1,3,1,6.7,0.4,9.1l-0.3-0.2c0,0.3,0.2,0.5,0.3,0.8c0,0.1,0.1,0.3,0.1,0.4c0,0.1,0,0.2,0,0.2c0,0.1-0.1,0.2-0.1,0.3
		c-0.1-0.1-0.3-0.4-0.3,0.1c0.1,0.3,0.2,0.9,0.3,1.6c0.1,0.7,0.2,1.4,0.1,2.1c0,0-0.3-0.9-0.3-0.9c-0.1,1-0.1,1.9-0.1,2.6
		c1.9,0,3.6-0.3,5-0.5c0.8-0.1,1.1-0.2,1.6-0.3c0.5-0.1,0.9-0.2,1.4-0.2c0,0.9,2.3,1.2,3.5,1.3l0,0.1c3.4,0.1,5.8-0.7,9-1.1
		c2,1,6.7,0.4,9.9,0.9c-0.5-0.2,0.1-0.7,0.6-0.8c0.7,0.2,2.1-0.6,1.9,0.2l-0.3,0c0.6,0.8,2.1,0.6,3.3,0.6l0.2-1.1
		c3.1,1.5,8.2-0.6,9.9,0.8c0.8-0.3,1.7-0.3,2.4-0.5l0,0.6c2.1,0.1,3.1,0.2,5.7,0.1l-0.5,0.4c1.5,0,1.8-1.6,3.2-1.7l0.4,0.8
		c2.5,0,5.1,0.7,7.6,0c0,0.1-0.1,0.4-0.5,0.4c1.2,0,4.6,0.6,4.2-0.6c0,0.8,2.6,0.1,4-0.3l-0.2,0.6c1.2-0.7,1.2-0.9,2.8-1.1
		c0.4,0.1,0.3,0.4-0.2,0.3c1.3,0.3,1-0.5,2.5-0.2l-0.6,0.4c1.3,0,1.2-0.1,1.9-0.6c0.8-0.2,2.5,0.1,2.7,0.6c0.2-0.3,0.9-0.7,1.7-0.6
		c0.1,0.2-0.2,0.3-0.3,0.4c2.2,0.4,3.3-0.6,4.8-0.1c0,0.2,0.1,0.3,0.3,0.3c-1.7,0-3.2,0-3-0.1c0,0.5,1.4,0.6,0.3,1.3
		c1.1-0.4,3.1-1.2,4.4-1c0.1,0,0.1,0.1,0.2,0.2l-0.1,0.1c0.3,0.1,0.6,0,0.9-0.1c0.4,0.1,0.7,0.1,1.1,0.2c0.2,0.4,1.6,0.2,2.3,0.2
		c-0.1-0.6,0.9-0.5,0-0.9c0.1,0-0.1,0.1-0.6,0.1c-0.1,0-0.2,0-0.3,0.1c0,0,0,0,0,0c-0.5,0-1.1,0-1.7,0c0.6-0.3,1.1-0.5,1.9-0.2
		c0.4-0.4,0.8-0.7,1-0.9c1,0.8,2.8,1.2,3.1,1.7c2.1-0.3,5.1-0.2,6.4-1.3c0.6-0.1,0.7,0.3,0.9,0.5c-0.4,0.1-0.8,0.1-1,0.2
		c1.2-0.3,3.6-0.1,3.9-0.8c1.5,0.3-0.9,0.7,1.2,0.6l-0.3,0.2c4.2,1.2,6.8-1.9,11.4-0.4c-0.3-0.1-0.5-0.1-0.5-0.3
		c5.3,0.7,10.8-0.6,16,0.4c1.5,0.2,1.6-0.3,2.5-0.6l0.3,0.6l1.5-0.7c2.2-0.5,3.8,1.5,6.5,0.5l-0.4-0.4c1,0.1,3.1-0.2,3,0.2
		c0.1-0.1,0.3-0.4,0.7-0.2l0,0.3l2.4-0.5c1.9,0.2-0.3,1.3,2.5,1.3c1-0.1,2.9-0.9,2.5-1.1c-0.4,0-1.1-0.2-1.1-0.5l0.9-0.2
		c0.2-0.9,0.9-1.9-1.4-2.5l-1.6,0.6l-0.5-0.5l1.3,0c-0.8-0.4-1.2,0-1.8,0.2c-0.1-0.2-0.4-0.4-0.7-0.5l-1.6,0.9
		c-0.2-0.4,0.7-0.7-0.4-0.9c-0.7,0.4,0.7,0.8-0.5,1.1c-0.8-0.4-0.5-0.8-1.4-0.4c-0.1-0.2,0.1-0.4,0.4-0.5c-0.8,0.3-2.1,0.1-2.5,0.6
		c-0.8-0.5-2.7,0.1-2.6-0.7c-0.3,0.2-1.4,0.7-2.1,0.7c1.3-1.1-2.8-0.1-2.4-1.2c-1,0.9-3.6,0.4-5.4,0.9c0.1-0.1,0.3-0.2,0.4-0.2
		c-1-0.1-1.3-0.4-1.9-0.5c-0.1,0.8-1.7,1-2.5,1.4c-1.2-0.8,0.7-0.9,0.4-1.6c0.1,0.6-2.1,0.6-1.7,1.2c-0.9-0.5-0.8-0.2-1.3-0.9
		c-0.2,1-0.9,0.2-1.6,0.8c-1.3-0.5-0.3-0.9-1.8-0.6C133.7,48,135,47.7,135,47.7z M99.9,49.3C99.9,49.3,99.9,49.3,99.9,49.3
		c0.3,0,0.6,0,0.7,0C100.5,49.3,100.2,49.3,99.9,49.3z M96.9,49.4c0.4,0,0.8,0,1.3,0c0.1,0.2,0,0.4-0.3,0.4
		C98.1,49.6,97.4,49.5,96.9,49.4z M103.2,53.3c-0.5,0.1-0.6,0-0.7-0.1c0.2,0,0.5,0,0.8-0.1c0,0,0,0,0.1-0.1
		C103.3,53.1,103.3,53.2,103.2,53.3z"/>
	<path fill="#FFFFFF" d="M104,52.5c0.1,0,0.1,0,0.2,0c-0.1,0-0.2-0.1-0.3-0.1c-0.1,0.1-0.1,0.1-0.2,0.2
		C103.8,52.5,103.9,52.5,104,52.5z"/>
	<path fill="#FFFFFF" d="M149.6,9.5L149.6,9.5C149.6,9.5,149.6,9.5,149.6,9.5C149.6,9.6,149.6,9.5,149.6,9.5z"/>
	<polygon fill="#FFFFFF" points="56.1,48.3 56.2,48.4 56.4,48.3 	"/>
	<path fill="#FFFFFF" d="M165.4,11.4c0,0,0,0.1,0.1,0.1C165.5,11.6,165.5,11.5,165.4,11.4z"/>
	<path fill="#FFFFFF" d="M166.6,15.4l-0.2,1C166.5,16,166.6,15.7,166.6,15.4z"/>
	<path fill="#FFFFFF" d="M166.3,20.8c0.1,0.1,0.2,0.1,0.2,0.1l0,0L166.3,20.8z"/>
	<path fill="#FFFFFF" d="M92.4,12.5c-0.1,0-0.1,0-0.2,0C91.7,12.6,92,12.6,92.4,12.5z"/>
	<path fill="#FFFFFF" d="M117.9,11.2c-0.3,0.1-0.5,0.2-0.8,0.3C117.6,11.5,117.9,11.5,117.9,11.2z"/>
	<path fill="#FFFFFF" d="M63.8,13.2C63.8,13.2,63.8,13.2,63.8,13.2c-0.1,0-0.1,0-0.2,0L63.8,13.2z"/>
	<path fill="#FFFFFF" d="M115.9,11.5c0.5,0.1,0.8,0.1,1.2,0C116.7,11.4,116.3,11.4,115.9,11.5z"/>
	<path fill="#FFFFFF" d="M166,44.2l0,0.3c0,0,0.1,0,0.1,0L166,44.2z"/>
	<path fill="#FFFFFF" d="M166.1,44.5l0.1,0.3C166.2,44.7,166.2,44.6,166.1,44.5z"/>
	<path fill="#FFFFFF" d="M166.3,45.4l-0.1-0.6C166.2,45,166.2,45.3,166.3,45.4z"/>
	<path fill="#FFFFFF" d="M166.3,37.1l-0.2-0.1C166.1,37,166.2,37.1,166.3,37.1z"/>
	<path fill="#FFFFFF" d="M166.3,34.9c0,0.5-0.4,1.3-0.3,2l0.2,0.1C165.8,36.7,166.6,35.4,166.3,34.9z"/>
	<path fill="#FFFFFF" d="M168.8,25.8l-0.2,1.8c0.2-0.3,0.5-0.7,0.6,0.1C169.8,25.4,168.7,28.2,168.8,25.8z"/>
	<path fill="#FFFFFF" d="M169.1,20.2c0.1,1,0.3,0,0.4,0C169.3,19.6,169.3,19.5,169.1,20.2z"/>
	<path fill="#FFFFFF" d="M136.8,9.1l0.1-0.5C136.2,8.6,136.9,8.8,136.8,9.1z"/>
	<polygon fill="#FFFFFF" points="129,11.7 129.8,12 130.1,11.6 	"/>
	<polygon fill="#FFFFFF" points="124.4,8.1 124.8,8 123.5,8.2 	"/>
	<path fill="#FFFFFF" d="M55.9,8.2l0.2,0.6C56.6,8.8,56.7,8.1,55.9,8.2z"/>
	<path fill="#FFFFFF" d="M26.3,8.9c-0.3-0.3-1.2-0.5-1.7-0.2C25.3,8.7,26,9,26.3,8.9z"/>
	<polygon fill="#FFFFFF" points="48.3,53.3 47.7,53.5 48.8,53.4 	"/>
</g>
</svg>
