<?xml version="1.0" encoding="utf-8"?>
<!-- Generator: Adobe Illustrator 19.1.0, SVG Export Plug-In . SVG Version: 6.00 Build 0)  -->
<svg version="1.1" id="Layer_1" xmlns="http://www.w3.org/2000/svg" xmlns:xlink="http://www.w3.org/1999/xlink" x="0px" y="0px"
	 viewBox="0 0 296 204.7" enable-background="new 0 0 296 204.7" xml:space="preserve">
<g>
	<path fill="#3EBE85" d="M26.5,193.5c-0.5,0.1-0.2,0.3,1.1,0.2l0.9-0.3L26.5,193.5z"/>
	<path fill="#3EBE85" d="M35.4,194.1c1.6-0.2,3.4-0.4,2.4-0.7c-1.6,0.3-1.9,0.2-3.6,0.6c-1.3,0-2.3-0.1-2.1-0.2
		c-0.5,0.1-2.1-0.1-2.8,0.1c1.7,0.3,3.9,0.3,6.2,0.1C36,193.9,35.6,194,35.4,194.1z"/>
	<path fill="#3EBE85" d="M166,194.6l-0.8,0C165.4,194.6,165.7,194.6,166,194.6z"/>
	<path fill="#3EBE85" d="M246.9,194.8c-0.6,0-0.9,0-0.9,0.1C246.6,194.8,247,194.8,246.9,194.8z"/>
	<path fill="#3EBE85" d="M260.7,195.1c-0.3,0-0.5,0-0.8,0C260.2,195.1,260.5,195.2,260.7,195.1z"/>
	<path fill="#3EBE85" d="M166,194.6l2.2,0.1C168.3,194.6,167.1,194.6,166,194.6z"/>
	<path fill="#3EBE85" d="M53.4,193.3c-0.5,0-0.8,0-1.2,0.1C52.6,193.4,53,193.3,53.4,193.3C53.4,193.3,53.4,193.3,53.4,193.3z"/>
	<path fill="#3EBE85" d="M130.3,194.9l-0.7,0c-0.2,0-0.4,0.1-0.5,0.1L130.3,194.9z"/>
	<path fill="#3EBE85" d="M103,194.9c0.6,0,0.8-0.3,1.1-0.4c-0.3,0.1-0.8,0.2-1.3,0.2C102.7,194.8,102.8,194.8,103,194.9z"/>
	<path fill="#3EBE85" d="M59.6,194.4l-0.8,0C59,194.4,59.4,194.4,59.6,194.4z"/>
	<path fill="#3EBE85" d="M149.9,194.9c0,0,0.1,0.1,0.2,0.1C150.2,195,150.1,195,149.9,194.9z"/>
	<path fill="#3EBE85" d="M10.6,175.4C10.6,175.4,10.6,175.4,10.6,175.4C10.6,175.6,10.6,175.6,10.6,175.4z"/>
	<path fill="#3EBE85" d="M26.4,194.1l0-0.4c-0.1,0-0.1-0.1-0.2-0.1L26.4,194.1z"/>
	<path fill="#3EBE85" d="M277.1,184.3C277.1,184.3,277.1,184.3,277.1,184.3C276.5,184.5,276.8,184.4,277.1,184.3z"/>
	<path fill="#3EBE85" d="M239.7,3.5c2.6,0.3-4.3,0.3-0.3,0.6C239,4,242.9,3.7,239.7,3.5z"/>
	<path fill="#3EBE85" d="M54.2,193.3c0.4,0,0.7,0,1.1,0C54.8,193.3,54.4,193.3,54.2,193.3z"/>
	<path fill="#3EBE85" d="M239.4,4.1L239.4,4.1l0.4,0C239.6,4.2,239.5,4.2,239.4,4.1z"/>
	<path fill="#3EBE85" d="M287.6,133.8c0,0.1-0.1,0.4-0.1,0.6C287.5,134.4,287.5,134.2,287.6,133.8z"/>
	<path fill="#3EBE85" d="M287.2,177.2l0-1.1C287.2,176.5,287.2,176.9,287.2,177.2z"/>
	<path fill="#3EBE85" d="M287.2,111.3c0-0.6,0.1-0.8,0-1.6c0,0.1,0,0.1,0,0.2C287.2,110.2,287.2,110.6,287.2,111.3z"/>
	<path fill="#3EBE85" d="M287.2,87.8c0,0.1,0,0.3-0.1,0.4c0,0.2,0,0.5,0,0.7L287.2,87.8z"/>
	<path fill="#3EBE85" d="M10.5,104.2c-0.1,0.5-0.2,0.8-0.3,1.1C10.4,104.9,10.5,108.3,10.5,104.2z"/>
	<path fill="#3EBE85" d="M53.5,193.4c0.1-0.1,0.3-0.1,0.7-0.1c-0.3,0-0.5,0-0.8,0C53.3,193.4,53.3,193.4,53.5,193.4z"/>
	<path fill="#3EBE85" d="M284.9,110.3l0-3.7C285,107.6,284.9,109,284.9,110.3z"/>
	<path fill="#3EBE85" d="M81.8,5.9l-0.9,0C81.3,5.9,81.6,5.9,81.8,5.9z"/>
	<path fill="#3EBE85" d="M284.9,95.5c0.1-0.7,0.2-1.4,0.2-2.1c0-0.2,0-0.3-0.1-0.4L284.9,95.5z"/>
	<path fill="#3EBE85" d="M10.2,105.3C10.2,105.3,10.2,105.3,10.2,105.3C10.2,105.3,10.2,105.3,10.2,105.3z"/>
	<path fill="#3EBE85" d="M10.9,129.8c0-3.5-0.4-1.7-0.6-2.4c-0.1-4.2,0.3-2,0.5-3.4c-0.1-2.6-0.4-4.7-0.4-6.6
		c0.1-0.1,0.1-0.5,0.2-0.1c-0.3-2.8,0-8.3-0.4-11.6c0-0.2,0.1-0.4,0.1-0.4c-0.2,0.5-0.4,0.6-0.5,0.5c0-1.6-0.2-3,0-3.6
		c0,1,0.1,1.1,0.2,1.5l-0.1-1.7c0.3-1.5,0.1,2.3,0.4,2.3c-0.1-3.3-0.4-7-0.3-9.5c0.3-0.5,0.1,5.8,0.4,2.5l-0.1,3.9
		c0.5-2.9,0,2.3,0.5-0.4c0.1-5.1-0.2-5.7-0.1-10.7c-0.2-1.1-0.3,0.4-0.5-0.8c-0.3-7.2,0.9-5.7,0.4-11c-0.2-1.4-0.7-1.9-0.4-5.7
		l0.4,1.3c0-4.9-0.6-2.8-0.3-7.9c0.2,0.9,0.1,3.9,0.2,3.1c0.3-3.3-0.2-2.4-0.2-4.9l0.3-0.5c-0.1-5.2-0.3-11-0.4-16.8
		c0.1,0.3,0.2,1.3,0.3,0c-0.2-7.3,0-15.6,0.2-22.6l-0.3-2.7c0-0.6,0.1-1.2,0.2-0.5c0.1-2.7-0.2-0.1-0.3-1.5c0-1.6,0.2-2.1,0.3-1.1
		c0-0.5,0-1-0.1-1.6l0-0.2l0-0.1l0-0.1c0-0.1,0-0.2,0-0.3c0.1,0,0.2,0,0.3,0l0.2,0l0.1,0l0.2,0c0.7,0,1.3,0,2-0.1
		c1.4,0,2.8-0.1,4.2-0.3c2.8-0.3,5.6-1.3,7.4-2.7c0,0-0.2,0.2-0.4,0.4c-0.2,0.2-0.4,0.4-0.4,0.4c1.9-1.3,2.5-2.6,2.9-3.7
		c0.2-0.6,0.3-1.2,0.4-1.9c0-0.2,0-0.4,0-0.6c0-0.2,0-0.4,0-0.6c0-0.2,0-0.4,0-0.6c0-0.2,0-0.2,0-0.4c0,0,0.1,0.3,0.1,0.4
		c0-0.3,0-0.4,0-0.7c0.7,0,1.4,0.2,2.2,0.2h3.1c2.1,0,4.1-0.2,6.1-0.2c3.9,0,7.6,0,10.7,0.2c1.3-0.4,8.5,0.1,9.1-0.5
		c4.9,0.3,3.5,0.4,10.5,0.6c1.9,0,2.8-0.4,5.1-0.4L74,5.9l3.1-0.3L78.8,6l2.1-0.1c-0.9,0-1.8-0.1-1.7-0.2c3.4-0.1,8.2,0.2,8.3,0.4
		l7.9-0.3c-0.2,0.1-1.5,0.2-2.6,0.2c4.2-0.3,0.8,0.3,4.7,0C97,6,97.8,5.9,97.9,5.8c1.9,0.2,6.3,0.2,9.6,0.1l-0.6,0.2
		c5.9,0.1,12.4-0.1,19-0.1c-2.4-0.1-1.8-0.5,0.1-0.5l0.8,0.3c1.3-0.2-2-0.1,0.5-0.4c2.5,0,1.7,0.4,0.2,0.5l3-0.1
		c0.2,0.1-0.5,0.1-0.7,0.3c1.2-0.2,5.2,0.3,7,0l0.2,0.1c6.6,0,9.6-0.1,15-0.1c0.1-0.3,2.2-0.2,3.8-0.4c4,0.1,8.3,0.3,13.1,0.3
		c3.3-0.1,1-0.2,2.5-0.4c0.2,0.3,5,0.2,2.5,0.4c5.7,0,7.3-0.1,14.5-0.3c-0.8-0.1-1.7-0.2-1.2-0.2c1.3,0,3,0.1,2.8,0.2l-0.3,0
		c8.1-0.4,18.7,0.7,25.2,0.2l-0.4,0l6.7-0.3c3.1,0-1.9,0.2,0.4,0.4c7.2-0.4,11.4,0.1,17.4-0.2c4.6,0.8,16.4-0.1,22.6,0.4L261.3,6
		c1.6-0.2,1.9,0.1,3.1,0.1c-0.2-0.1-1.7-0.2-0.7-0.3c2.3,0,4.6,0,6.9-0.1l-0.4,1.3l-0.1,0.3c0,0.1-0.1,0.3-0.1,0.5
		c0,0.3-0.1,0.6-0.1,0.9c0,0.6,0.1,1.1,0.2,1.7c0.3,1.1,0.8,2.2,1.6,3c0.8,0.8,1.8,1.4,2.8,1.8c2,0.8,4,1,6,1.1
		c1,0.1,1.9,0.1,2.9,0.1l1.3,0l0.1,0l0,0.2l0,1.2l0,2.8c0,1.8-0.1,3.7-0.1,5.5c0,5.1,0.9,2.9,0.5,9.3l-0.3-1.8
		c0.4,10.3,0,21.1,0.3,31.2c-0.1-0.6-0.2-0.6-0.2-1.6c-0.2,2.1,0,7.9,0.2,7.9c0,1.6-0.2,0.4-0.3,1.3c-0.1,2.1,0.3,5.4,0.1,6.5
		c0,0.2-0.1-0.6-0.1-1c0.1,1.4,0,6.5,0.2,5.2c-0.1,3.8,0.1,7.2,0,10.3c0.3,2-0.1,6.5,0.3,7.1c-0.5-0.3-0.4,6.6-0.2,9
		c-0.1-0.8-0.1,2.1-0.3,1.1c0,2.7,0.1,5.2,0.3,4.8c-0.5,5,0.4,10.1-0.3,13c0.2,8.1,0.4,15.6,0.5,22.9c-0.5-0.3,0-8.1-0.5-7.8
		c0.2,6.9,0.6,10.9,0.5,17.8c-0.1,1.8-0.2-1-0.3-1.6c0.2,6.9,0,13.4,0.2,19.5c0,0-0.1-0.7-0.1-1.3c0,1.2-0.1,2.8,0.1,2.7l-0.1-1.2
		c0.1-0.6,0.2-0.4,0.3,0.3c0.1,0.5,0.2,1.4,0.3,2.1c-0.4,0-0.8,0.1-1,0.1c-0.3,0-0.6,0.1-0.7,0.1c1-0.3-0.5-0.3-1.9-0.4
		c-1.4-0.1-2.7-0.1-1-0.5c-0.8,0-1.9,0.2-1.7,0.3c-1.2,0.1-1.6,0.1-0.4-0.2c-2.3,0.3-3,0.7-3.6,0.9c-0.3,0.1-0.6,0.3-1.1,0.5
		c-0.5,0.2-1.1,0.6-1.9,1.3c-0.1-0.1,0.6-0.7,0.9-1.1c-1.8,1.4-3.2,3.6-3.1,7.3c-0.1-0.2-0.2,0.2-0.2-0.9c0,0.5,0,0.9,0.1,1.4
		l0.1,0.3l0.1,0.3l0.1,0.6l0.1,0.4l0.1,0.3c0.1,0.2,0.1,0.4,0.2,0.6c-0.2,0-0.5,0-0.7,0.1l-0.4,0l-0.7,0c-0.9,0-1.8,0.1-2.7,0.1
		c-1.8,0.1-3.8,0.1-6,0c1.8-0.4-2.1-0.1-2.5-0.5l-3.4,0.1l1.4,0.2c-3,0-5.6,0.3-8.1,0.1l2.2-0.2l-5.5,0.1l3.1,0.1
		c-3,0.2,0.3,0.6-3.6,0.5c0.8,0-3-0.1-4.5-0.1h0c-1.5,0-3,0.1-5.2,0c-0.6-0.1,0.5-0.5,0.1-0.6c-1.4,0.3-6.9,0-8.7,0.4
		c0.6-0.1,0.6-0.3,0.4-0.3l-1.2,0.2c-1.4-0.1-1.6-0.1-1.3-0.3c-4.1,0,1.3,0.5-3.6,0.3c0.4,0,0.2-0.1,1-0.1c-4.9-0.1-9.5,0.2-14,0
		c-1.3-0.4,3.9-0.1,2.4-0.4c-6.5,0.1-13.5,0.5-19.8,0.4l1.2,0c-0.9,0.5-4.7-0.3-7.9,0c0.8,0,1-0.3,0.8-0.2
		c-4.3-0.1-8.8,0.1-15.3,0.3l0.8-0.1c-2.5-0.1-6.7-0.1-9.4-0.1c-0.8,0.1-2.4,0.1-1.4,0.3c-8.5-0.8-16.1,0.4-23.6-0.2
		c0.9,0,2.1-0.1,1.4-0.1l-6.4,0.1c0.5,0.2,0.8,0.1,2.2,0.3c-0.8,0.1-2.6,0.2-4.2,0.2c2.9-0.2,0-0.4-1.3-0.5c0.2,0.1-0.2,0.1-0.1,0.2
		c-3.3-0.4-0.6,0.5-5.1,0.2l0.2-0.1c-1.7,0.1-3.3,0.2-5.1,0.2c-0.8-0.3,1.8-0.1,1.9-0.3c-2.6,0-5.1,0.5-7.4,0.2
		c1.1-0.1,2.7-0.1,3.8-0.1c-2.5-0.3-2.8-0.2-4.7-0.3l0.2,0l-4.4-0.1l1.1,0.1c-3.2,0.7-6.6,0.1-10.9,0.6c4.2-0.4,0.7-0.2,1-0.6
		c-1.1-0.1-2.8-0.2-2.3-0.3c-2.1,0.2-3.4-0.2-6.3,0.2c-0.1-0.1-2.2,0-1.7-0.3c-2.7,0.1,0.6,0.2,0.4,0.3c-4.1,0.3-9.7-0.4-15.6,0.1
		c-5.1,0.2-6.1,0.5-10.8,0.7c-1.6-0.2,1.3-0.4,1.3-0.4c-2.6-0.1-4.5-0.1-7,0c0.5-0.1,0-0.2-0.8-0.3c-2,0-1.3,0.4-3.9,0.2
		c0.4-0.1,1-0.3,2-0.4c-2.3,0.1-4.6,0.2-7,0.4c-0.6-0.2,1.4-0.3,2.3-0.4c-2.7,0.1-6.9,0.2-7.8,0.4l1.7,0.1c-1,0-0.5-0.2,0.2-0.3
		c2.3-0.2,3.3,0.1,3.4,0.2l-1.7,0.1c1.7,0.6,6.8-0.1,10.2-0.1l-1.4,0.4l3.5-0.3c0.7,0.1,1.3,0.3-0.4,0.4c2.5,0.2,2.2-0.1,4.3,0.1
		c0.2,0,0.1,0.1-0.1,0.1l2.4-0.1c-0.5,0.1,0.4,0.3-1.1,0.2c4.3,0.2,6.9-0.3,8.6,0l-0.4,0c6-0.1,0.6-0.3,5.1-0.7l3,0.8l0.6-0.3
		c0.6,0,1.8,0,1.6,0.2c2.3-0.2-0.4-0.1,0.9-0.3c3,0.3,8.2-0.1,8.8,0.4c1.1-0.2-2.8-0.2,0.3-0.3c0.9,0.5,3.7-0.1,6.4,0.2
		c-0.8,0.3-3.4,0.1-0.7,0.4c1.6-0.5,5.3,0.1,7.6,0c0.1-0.4,5-0.2,8.8-0.3c-0.2,0.1,7.2,0.2,10.8,0.3l-0.1,0.1c0.7-0.4,4.4-0.3,7-0.4
		c-0.1,0.2-0.6,0.3-2,0.4l2.5,0c0.6-0.1,1.4-0.2,3-0.2l-0.6,0.3c3.3,0,6.7-0.3,11.1-0.1c0.2-0.3-3.4-0.7,1.1-0.9
		c0.2,0.1,0.3,0.4-0.9,0.4c0.4,0,1.4-0.1,2.2-0.1l-1.8,0.2c2,0.1,1-0.2,2.6-0.2c0,0.2,1.2,0.1,0.9,0.3c-0.4,0-1.4-0.1-2,0
		c1.8,0,3.9,0.2,4.6,0.3c-0.2-0.1,0-0.3,1.3-0.3c3.3,0,1.1,0.2,3.1,0.3c0.8-0.1,2.9,0,3-0.3c1,0,1.2,0.1,1.5,0.2
		c1.7-0.1,8.1,0,6.1-0.4l-0.4,0.2c0.1,0,0.2,0.2,0.3,0.2c0,0,0,0,0,0h0c5.7-1,11.8-0.1,17.4-0.2l0,0c3.4-0.1,7.5-0.1,9.9-0.3
		c1,0,2.3,0.1,1.9,0.3c2.6-0.1,2.9-0.2,6.6,0c-2.6,0.2,0.9,0.1-2.7,0.1c3.3,0.1,4.1,0.2,7.7,0c-1.2,0.3,2.5,0.3,4.1,0.2l-2.3-0.2
		c1.8,0,3.3,0,4.9,0l-0.9,0.3c6.8,0.4,12.3-0.7,17.5,0c1.8-0.2-3.7-0.2-2.1-0.4c3.1,0,6.4,0.5,7.4,0.5c4.3,0.2,4-0.5,8.5-0.4
		c-0.6-0.1-1.1-0.4,2.2-0.5c3.1,0,3.9,0.5,1.9,0.6c-0.8,0-1.1,0-1.1-0.1c-1,0-2.4,0.1-1.1,0.2l0.4-0.1c1.6,0.1,5.9,0.1,4.9,0.3
		c2.4-0.1,1-0.2-0.7-0.3c4,0.2,6.3,0,10.5,0.1c-0.7-0.1-1.3-0.2-0.6-0.2c6.1,0.1,2.7-0.2,6.8-0.3c2.3,0.2-0.8,0.4,3.3,0.3
		c0.5,0,1.2,0.1,1.5,0.1c0.3,0,0.2,0.1,0,0.1c-0.4,0-1.3,0.1-1.9,0.2c0.6,0,0.9-0.1,1.9-0.1c0.9,0,1.7,0,2.5,0c-0.2-1-0.4-2-0.6-3
		c0-0.2-0.1-0.4-0.1-0.6c0-0.1,0-0.3-0.1-0.4c0-0.1,0-0.3-0.1-0.4c0-0.1,0-0.2,0-0.3c0-0.8,0.1-1.6,0.3-2.2c0,0-0.1,0.4-0.1,0.8
		c0,0.4,0,0.8,0,0.8c-0.1-1,0.1-1.8,0.4-2.5c0,0-0.1,0.2-0.3,0.4c-0.1,0.2-0.2,0.4-0.2,0.4c0.3-1,0.7-1.6,0.8-1.5
		c0.2-0.4,0-0.3-0.1-0.3c-0.1,0-0.3-0.1,0.4-1c0.5-0.4,1.4-1,2.3-1.4c0.9-0.3,1.8-0.5,2.1-0.4c-1.1,0.2-1.6,0.4-1.8,0.5
		c-0.2,0.1-0.1,0.1,0,0.1c0.1,0,0.2,0,0.1,0.1c-0.1,0.1-0.5,0.2-1.2,0.6c0.6-0.4,1.4-0.7,2.4-0.9c0.2,0-0.1,0.1-0.4,0.2
		c1-0.2,1.7-0.2,2.2-0.3c0.5-0.1,0.7-0.1,1-0.2c0.5-0.2,1-0.3,3.5-0.3c-0.5,0.2,0.8,0.3,2.7,0.3c-0.9,0-1.4,0-1.7,0
		c-0.2,0-0.2-0.1-0.1-0.1c0.3-0.1,1.3-0.2,2.6-0.3c0-0.1,0-0.2,0-0.4c0.1-2.7,0-3.1,0-3.8c0-0.7-0.1-1.1-0.1-2l-0.1,1.9
		c-0.2-0.6-0.2-2.2-0.2-4.4c0.1-0.2,0.1,2,0.2,1.2c-0.3-2.4,0.3-5.5,0.1-8.8c0.1-1.6,0.3-0.2,0.4-1.5c-0.2-3.8,0.2-4.1,0.1-8.1
		c-0.2,1.1-0.2,1.3-0.4-1.5l0.2,6.5l-0.3-4.2c0,2,0.1,4.2,0.1,5.3c-0.2-2-0.1-1.8-0.3-0.8c0.4-2.7-0.2-5.3,0-8.5l0.6,0.1
		c0.3-4.7-0.3-8.3-0.2-14.4l-0.1,2c-0.2-0.8,0-3.8-0.1-5.7c0.2,0.2,0.3-1,0.4-1.9c-0.1,0.1,0-4.5-0.4-5l0.3-2.7
		c0.1-4.9-0.6-5.6-0.5-10.3c0.2,1.4,0.4-0.7,0.5,2.4c0-1.6,0-3-0.1-3c0.1-0.9-0.3-4.4-0.1-5.8c-0.1-0.7-0.3-0.9-0.3-2.7
		c0-0.2,0.1,0,0.1,0c-0.1,0-0.1-2.8-0.4-1.2c0.6-4.9,0-13.6,0.5-17.8c-0.1-3.4-0.1-7.6-0.1-10.7c0.1,0.2,0.1,0,0.1,0.6
		c0.2-4.3-0.6-2.6-0.4-7.6c0.3-2.5,0.2,2.6,0.3,1c0.6-0.7-0.1-5.9,0.3-9.2l0,0.8c0.2-2.5-0.2-6.2-0.2-10.3c0,0,0.1,0.2,0.1,0
		c-0.3-2.8-0.4-8.2-0.5-12.1c0.3,1.2,0.1,1.8,0.4,1c0-1.8-0.4,0.5-0.5-3c0.1-1.2,0.3-3.7,0.5-4.1l0,3.3c0.4-1.7,0-4.3,0-6.1l0.2,0.2
		c-0.1-5.1-0.4-5.2-0.4-10.7l-0.1,0.6c-0.4-3,0.2-2.5-0.1-5.6c0,0,0.1-0.3,0.2-0.6c0.1-0.4,0.2-0.7,0.2-0.7c0-0.2,0-0.4,0-0.9
		c-0.7,0-1.6,0.1-2.7,0.1c-0.8,0-1.6,0.1-2.5,0.1c-1.8,0.1-3.7,0-5.3-0.3c1,0.1,2.5,0.2,4.1,0.2c0.8,0,1.6-0.1,2.4-0.1
		c0.4,0,0.8,0,1.1-0.1c0.5,0,0.9,0,1.3-0.1c-1,0-2.8,0-4.5,0c-1.5,0-2.9-0.1-3.4-0.1c0.8,0.1,1.7,0.1,2.5,0.2
		c-1.2,0.1-2.6,0.1-4.1-0.3c-1.5-0.3-3.2-1.1-4-2.8c0.3,0.1,0-0.6-0.1-1.8c0-0.3,0-0.6,0-0.9c0-0.2,0-0.3,0.1-0.5
		c0.1-0.2,0.1-0.4,0.2-0.6c0.3-1.1,0.6-2.3,1-3.5c-0.9,0-1.9,0-2.8,0c-0.7,0-1.3,0-1.9,0c-1.1,0-2-0.1-2.6-0.2
		c-6.9,0.3-13.8-0.1-21.9-0.1c2.9,0.6-2.4,0-1.9,0.6c-1.9,0-2.6,0-2.8,0l-5.7-0.4c-1.4-0.2,1.8-0.1,1.6-0.3c-4.1,0-1.7-0.3-4.5-0.4
		c0.6,0.2-1.4,0.3-3.8,0.2l3.3,0.3c-5.8,0.3-5-0.5-10.8-0.2l1.8-0.2c-3,0.1-11,0-13.9,0.5c-0.5-0.1-1.2-0.2,0.1-0.3
		c-7.1-0.1-15.9,0.5-21.4,0.2l0.5-0.1c-1.3,0-2.3,0.3-4,0.1c0.1-0.1,0.5-0.1-0.1-0.2c-0.7,0.1-3.5,0.3-5.3,0.2l1.5-0.2
		c-7-0.2-10.7,0.4-16.5,0.5c0-0.4-5.5-0.6-8.2-0.7l0.1-0.1c-8.1-0.1-13.8,0.4-21.3,0.5c-4.7-0.5-15.8-0.2-23.2-0.5
		c1.1,0.1-0.2,0.3-1.5,0.4c-1.8-0.1-4.9,0.3-4.6-0.1l0.6,0c-1.3-0.4-4.9-0.3-7.7-0.3L96,3.9c-7.4-0.8-19.3,0.3-23.3-0.4
		c-1.8,0.1-4,0.1-5.7,0.3l0.1-0.3c-4.9-0.1-7.4-0.1-13.5,0l1.2-0.2c-3.4,0-4.3,0.8-7.5,0.8l-1-0.4c-6,0-12.1-0.4-18,0
		c0.1-0.1,0.3-0.2,1.2-0.2c-1.1,0-2.8,0-4.6,0c0.1,1.3,0.1,2.7,0.2,4c0,0.5-0.1,1.2-0.3,1.7c-0.4,1-0.8,1.6-0.4,1.5
		c-0.2-0.1-0.9,1-2.4,1.8c-1.5,0.9-3.7,1.5-5.2,1.7l0.4-0.3c-2.6,0.6-2.6,0.6-6.5,0.8c-0.6,0-0.9-0.1-0.8-0.1c0,0,0.2,0,0.4,0
		c0.1,0,0.3,0,0.4,0c0.1,0,0.3,0,0.4,0c-0.3,0-0.5,0-0.8,0c-0.3,0-0.5,0-0.8,0c-0.5,0-0.8,0-1.2,0c0,0.8,0.1,1.3,0.1,2.2
		c0,0.7,0.1,1.3,0,2.6l-0.2-1.4c0,3.1,0.1,2.9,0.3,4.6c0.1,1.9-0.1,5.9-0.3,6.3c0.2,0.4,0.4,2.1,0.3,3.9c-0.1,0.2-0.2-0.4-0.2-0.8
		C8.4,37,8.9,39.6,8.6,43.1c-0.1,0.1-0.1,0.3-0.2,0.6c0-4.1,0-7.4,0-7.1c-0.3,0-0.3,3.3-0.7,0.7C8,40,8.4,44.5,8.3,47.8
		c0,0.2,0,0.3-0.1,0.4l0-0.3c0,0.7,0,1.4,0,2c0,1-0.1,1.7-0.1,2.7C7.9,53,8,56.4,8,58.1c0.3-0.1,0.2,2,0.5,0c0,0.3,0-0.3,0-1.4
		c0-0.2,0-0.5,0-0.7c0,0,0,0.1,0,0.1c0-1.1,0-2.5,0-4.1c0.1,1.3,0.3,2.7,0.1,4.5c0.2,0.9,0.4,1.8,0.5,2.3C8.6,61,8.4,65.4,8.1,66
		c0.2,5.1,0.1,11.9,0.6,15.1c0.1,1.4-0.2,1.7-0.2,2.2c-0.1-0.8,0-1.8-0.1-2.3c0.1,2.9,0.1,8.5,0.4,9.2c-0.2,3.6-0.3-2-0.3,2.9
		l-0.1-0.7c-0.6,9.8,0.9,15.9,0.2,26.8c0-0.8,0.1-1.1,0.1-1.3c-0.3,12.4,0.3,25.5-0.2,37.8c-0.1,3.5,0.1,3.9,0.3,6l-0.3,0.8l0.3,3.6
		c0.1,2.6-0.1,4.8-0.2,7.2c-0.1,1.2-0.1,2.4-0.2,3.8c0,0.7,0,1.4,0,2.1c0,0.8,0.1,1.4,0.1,2.6l0.2-1.2c0,0.6,0,1.3,0,2.1
		c1.4,0,3,0,4.2,0c1.1,0,1.8,0.1,1.6,0.1c0.2,0,0.8-0.2,1.7,0l0.1,0.2c0,0,1.4,0,2.8,0.3c0.7,0.1,1.4,0.3,1.8,0.5
		c0.5,0.2,0.8,0.3,0.8,0.3c0.9,0.5,1.3,0.9,1.4,1.1c0.1,0.2,0.1,0.2,0.1,0.3c0,0.1,0,0.2,0.3,0.5c0.3,0.4,0.8,0.9,1.4,2.3
		c0.2,0.5,0.5,1.1,0.6,1.7c0.1,0.3,0.2,0.7,0.2,1c0,0.3,0,0.7,0.1,1c0.1,1.3,0.2,2.2,0.2,1.8c0-1,0.2-2.5,0.4-2.6l0,2.2
		c0.2,0.2,0.4,0.7,0.7,0.6c0.1-0.1,0.2-0.4,0.4-1c0.1-0.3,0.1-0.7,0.2-1.1c0-0.3,0.1-0.4,0.1-0.8c0-0.4,0-0.7,0-1.1
		c0,0-0.2-1.1-0.7-2c-0.2-0.5-0.5-0.9-0.7-1.3c-0.2-0.3-0.4-0.5-0.4-0.5s-0.1-0.3-0.3-0.6c-0.2-0.3-0.4-0.6-0.4-0.6s0.6,0.7,1.1,1.4
		c0.5,0.8,0.8,1.6,0.8,1.6c-0.6-2-1.6-3-2.8-3.8c-0.1-0.2-0.2-0.3-0.5-0.6c-0.2-0.2-0.5-0.4-0.9-0.7c0,0-1-0.4-1.9-0.7
		c-1-0.3-2-0.4-2-0.4c-0.4-0.3,1.8,0-0.8-0.6c-1.8-0.1,1.7,0.7-1.3,0.3c-1.8-0.4-1.3-0.5-3.5-0.4c-0.3-0.1,0.1-0.2,1-0.2
		c-0.8,0-1.7,0.1-2.7,0.1c-1.2,0-1.1,0-1.5,0.1c0-0.1-0.1-0.2-0.1-0.2c0-0.1,0.1-0.2,0.1-0.4c0-0.3,0-0.6,0-1c0-0.7,0-1.4,0-2.1
		c0-1.3,0-2.4,0.3-2.3c-0.1-0.6-0.3-3.3-0.4-5.1c0.5,3.2,0-6.5,0.6-5.7c-0.5-2.3-0.2-8.5-0.5-12.6c0,0.2,0.1,0.7,0.1,1.1
		c0-2.3,0.2-3,0.3-4.5c-0.4-0.3-0.5-3.9-0.7-5.9c0.4-2.9,0.5,1.7,0.8,0.8c-0.3,0.1-0.3-5-0.6-4c0.2-2.2,0.1-1.9,0.4-3
		c-0.5-0.4-0.1-2-0.4-3.9c0.2-3.2,0.5-0.8,0.3-4.3C10.7,126.7,10.9,129.8,10.9,129.8z M10,46.9L10,46.9c0,0.7,0,1.3,0,1.7
		C10,48.2,10,47.8,10,46.9z M10,39.9c0,0.8,0,1.9,0,3c-0.1,0.2-0.2,0-0.2-0.7C9.9,42.6,9.9,41,10,39.9z M8.1,54.7
		c0-1.1,0-1.5,0.1-1.6c0,0.5,0,1.1,0,1.9c0,0,0,0.1,0,0.1C8.2,55,8.1,54.9,8.1,54.7z"/>
	<path fill="#3EBE85" d="M8.4,56.6c0,0.2,0,0.2,0,0.5c0-0.2,0-0.4,0.1-0.7c0-0.1-0.1-0.3-0.1-0.4C8.4,56.2,8.4,56.5,8.4,56.6z"/>
	<path fill="#3EBE85" d="M165,194.5l0.1,0c-0.1,0-0.2,0-0.3,0C165,194.5,165,194.5,165,194.5z"/>
	<polygon fill="#3EBE85" points="74,6 74,5.9 73.4,6 	"/>
	<path fill="#3EBE85" d="M126.6,193.6c-0.1,0-0.2-0.1-0.5-0.1C126.2,193.5,126.4,193.6,126.6,193.6z"/>
	<path fill="#3EBE85" d="M110.1,193.5l-2.3-0.1C108.7,193.5,109.5,193.5,110.1,193.5z"/>
	<path fill="#3EBE85" d="M97.3,193.4c-0.2,0-0.2,0.1-0.2,0.1c0,0,0,0,0,0L97.3,193.4z"/>
	<path fill="#3EBE85" d="M285.3,178.1c0-0.2,0-0.3,0-0.5C285.2,176.4,285.2,177.2,285.3,178.1z"/>
	<path fill="#3EBE85" d="M239.7,193.7c0.6-0.1,1.3-0.1,1.9-0.1C240.5,193.6,239.7,193.5,239.7,193.7z"/>
	<path fill="#3EBE85" d="M284.9,110.7C284.9,110.7,284.9,110.7,284.9,110.7c0-0.1,0-0.3,0-0.4L284.9,110.7z"/>
	<path fill="#3EBE85" d="M244.4,193.6c-1.1-0.1-2,0-2.8,0C242.5,193.6,243.5,193.6,244.4,193.6z"/>
	<path fill="#3EBE85" d="M42.1,193.3l-0.6,0c0,0,0,0-0.1,0L42.1,193.3z"/>
	<path fill="#3EBE85" d="M41.4,193.3l-0.7,0C41,193.3,41.3,193.3,41.4,193.3z"/>
	<path fill="#3EBE85" d="M39.3,193.4l1.4-0.1C40.2,193.3,39.6,193.3,39.3,193.4z"/>
	<path fill="#3EBE85" d="M59,193.4l0.2-0.1C59,193.3,59,193.3,59,193.4z"/>
	<path fill="#3EBE85" d="M64.1,193.4c-1.2,0-3.1-0.2-4.8-0.2l-0.2,0.1C60,193.1,62.9,193.5,64.1,193.4z"/>
	<path fill="#3EBE85" d="M85.5,194.6l-4.3-0.1c0.8,0.1,1.7,0.3-0.2,0.3C86.4,195.1,79.9,194.6,85.5,194.6z"/>
	<path fill="#3EBE85" d="M98.8,194.8c-2.3,0.1,0,0.2-0.1,0.2C100.2,194.9,100.5,194.9,98.8,194.8z"/>
	<path fill="#3EBE85" d="M195.1,194.8l-0.2,0.3C196.6,195,194.9,194.9,195.1,194.8z"/>
	<polygon fill="#3EBE85" points="213.5,193.4 211.7,193.3 210.9,193.5 	"/>
	<polygon fill="#3EBE85" points="224.3,195.3 223.6,195.3 226.5,195.2 	"/>
	<path fill="#3EBE85" d="M287.4,92l-0.3,0.5C287.2,93.7,287.5,94,287.4,92z"/>
	<path fill="#3EBE85" d="M287.1,22.2c0.2-0.8,0.3-2.7,0.1-3.9C287.2,19.8,287.1,21.4,287.1,22.2z"/>
	<polygon fill="#3EBE85" points="92.5,3.5 93.9,3.4 91.3,3.4 	"/>
</g>
<g>
	<path fill="#22B573" d="M34.5,190c-0.5-3-2.4-6.1-6.8-8.7c-2.1-1.2-5.1-3-11.1-3.5V19.7c5-0.4,8.8-1.2,11.8-3
		c3.8-2.3,5.5-4.7,6-6.7H263c0.1,2,0.8,4.5,4,6.7c1.9,1.3,4.6,2.6,10.6,3v158.1c-5,0.5-8.2,2.3-10.1,3.5c-3.9,2.6-4.5,5.7-4.6,8.7
		H34.5z"/>
</g>
<g>
	<g>
		<path fill="#303030" d="M24.9,22.2c0.6,1.2-0.9,2.1-0.7,3.3c0.1,1,1.6,1.8,2.9,0.7C28.3,25.1,25.7,23.2,24.9,22.2"/>
	</g>
	<g>
		<path fill="#303030" d="M29.9,20.1c1.8,0.8,1.6,2,2.9,2.9c1.1,0.7,3.1,0.8,3-0.5C35.7,21.2,31.6,20.6,29.9,20.1"/>
	</g>
	<g>
		<path fill="#303030" d="M36,16.3c1.3,1,3.4,0.9,4.9,1.7c1.2,0.6,1.4,1.8-0.8,1.7C37.9,19.7,36.8,17.3,36,16.3"/>
	</g>
	<g>
		<path fill="#303030" d="M38.6,13.6c2.2,0.1,3.5-0.9,5.4-1c1.6-0.1,3.3,0.6,1.6,1.5C44.1,15,40.3,13.9,38.6,13.6"/>
	</g>
</g>
<g>
	<g>
		<path fill="#303030" d="M24.9,174.3c0.6-1.2-0.9-2.1-0.7-3.3c0.1-1,1.6-1.8,2.9-0.7C28.3,171.4,25.7,173.3,24.9,174.3"/>
	</g>
	<g>
		<path fill="#303030" d="M29.9,176.4c1.8-0.8,1.6-2,2.9-2.9c1.1-0.7,3.1-0.8,3,0.5C35.7,175.3,31.6,175.9,29.9,176.4"/>
	</g>
	<g>
		<path fill="#303030" d="M36,180.2c1.3-1,3.4-0.9,4.9-1.7c1.2-0.6,1.4-1.8-0.8-1.7C37.9,176.8,36.8,179.2,36,180.2"/>
	</g>
	<g>
		<path fill="#303030" d="M38.6,182.9c2.2-0.1,3.5,0.9,5.4,1c1.6,0.1,3.3-0.6,1.6-1.5C44.1,181.5,40.3,182.6,38.6,182.9"/>
	</g>
</g>
<g>
	<g>
		<path fill="#303030" d="M270.8,24.2c-0.6,1.2,0.9,2.1,0.7,3.3c-0.1,1-1.6,1.8-2.9,0.7C267.5,27.1,270,25.2,270.8,24.2"/>
	</g>
	<g>
		<path fill="#303030" d="M265.8,22.1c-1.8,0.8-1.6,2-2.9,2.9c-1.1,0.7-3.1,0.8-3-0.5C260.1,23.2,264.2,22.6,265.8,22.1"/>
	</g>
	<g>
		<path fill="#303030" d="M259.8,18.3c-1.3,1-3.4,0.9-4.9,1.7c-1.2,0.6-1.4,1.8,0.8,1.7C257.8,21.7,258.9,19.3,259.8,18.3"/>
	</g>
	<g>
		<path fill="#303030" d="M257.1,15.6c-2.2,0.1-3.5-0.9-5.4-1c-1.6-0.1-3.3,0.6-1.6,1.5C251.6,17,255.4,15.9,257.1,15.6"/>
	</g>
</g>
<g>
	<g>
		<path fill="#303030" d="M270.8,176.3c-0.6-1.2,0.9-2.1,0.7-3.3c-0.1-1-1.6-1.8-2.9-0.7C267.5,173.4,270,175.3,270.8,176.3"/>
	</g>
	<g>
		<path fill="#303030" d="M265.8,178.4c-1.8-0.8-1.6-2-2.9-2.9c-1.1-0.7-3.1-0.8-3,0.5C260.1,177.3,264.2,177.9,265.8,178.4"/>
	</g>
	<g>
		<path fill="#303030" d="M259.8,182.2c-1.3-1-3.4-0.9-4.9-1.7c-1.2-0.6-1.4-1.8,0.8-1.7C257.8,178.8,258.9,181.2,259.8,182.2"/>
	</g>
	<g>
		<path fill="#303030" d="M257.1,184.9c-2.2-0.1-3.5,0.9-5.4,1c-1.6,0.1-3.3-0.6-1.6-1.5C251.6,183.5,255.4,184.6,257.1,184.9"/>
	</g>
</g>
</svg>
