<?xml version="1.0" encoding="utf-8"?>
<!-- Generator: Adobe Illustrator 19.1.0, SVG Export Plug-In . SVG Version: 6.00 Build 0)  -->
<svg version="1.1" id="Layer_1" xmlns="http://www.w3.org/2000/svg" xmlns:xlink="http://www.w3.org/1999/xlink" x="0px" y="0px"
	 viewBox="0 0 162.2 74.8" enable-background="new 0 0 162.2 74.8" xml:space="preserve">
<g>
	<g>
		<rect x="13.5" y="12.3" fill="#25C47D" width="140.3" height="44.8"/>
		<g>
			<path fill="#41CB8D" d="M151.1,57.1c0.3,0.2,1.1,0.1,1-0.5l-1.3-0.4L151.1,57.1z"/>
			<path fill="#41CB8D" d="M153.6,53.5c-0.6-0.6-1.8-1.4-3-1c1.3,0.6,0.7,0.8,2.3,1.5c0.2,0.5-0.4,0.9-0.9,0.8
				c0.3,0.2-0.3,0.8,0.5,1.1c1-0.7,1.1-1.6,0.2-2.5C153,53.2,153.3,53.4,153.6,53.5z"/>
			<path fill="#41CB8D" d="M142.5,10.5l0.3,0.2C142.8,10.5,142.6,10.5,142.5,10.5z"/>
			<path fill="#41CB8D" d="M110,9.7c0.2,0,0.4-0.2,0.4-0.3C110.1,9.5,109.9,9.6,110,9.7z"/>
			<path fill="#41CB8D" d="M104.4,8.2c0.1,0,0.2,0.1,0.3,0.1C104.6,8.2,104.5,8.1,104.4,8.2z"/>
			<path fill="#41CB8D" d="M142.5,10.5l-0.9-0.4C141.6,10.5,142.1,10.4,142.5,10.5z"/>
			<path fill="#41CB8D" d="M150.4,46.2c0.1,0.2,0.2,0.3,0.3,0.5c-0.1-0.1-0.1-0.3-0.1-0.4C150.5,46.3,150.5,46.2,150.4,46.2z"/>
			<path fill="#41CB8D" d="M156.8,13.8l0,0.4c0.2,0,0.3,0.1,0.5,0.1c0,0-0.1-0.1-0.3-0.2C156.9,13.9,156.8,13.8,156.8,13.8z"/>
			<path fill="#41CB8D" d="M157,26.3c0-0.2-1.1-0.3-1.6-0.4c0.5,0.1,0.7,0.3,0.8,0.5C156.4,26.4,156.6,26.4,157,26.3z"/>
			<path fill="#41CB8D" d="M155,43.8l0.2,0.3C155.1,44,155,43.9,155,43.8z"/>
			<path fill="#41CB8D" d="M149.8,9.1c0-0.2,0-0.3-0.1-0.4C149.7,8.9,149.7,9,149.8,9.1z"/>
			<path fill="#41CB8D" d="M141,51.8c0,0.1,0,0.1,0,0.2C141.1,51.9,141.1,51.8,141,51.8z"/>
			<path fill="#41CB8D" d="M153.8,57.4l-0.2,0.1c0,0.2,0,0.4,0,0.6L153.8,57.4z"/>
			<path fill="#41CB8D" d="M94.3,6.8C94.3,6.8,94.3,6.8,94.3,6.8C94.6,6.7,94.4,6.7,94.3,6.8z"/>
			<path fill="#41CB8D" d="M8.9,24.8c1-1.1,1.3,1.7,2.4,0.1C10.9,25,9.5,23.4,8.9,24.8z"/>
			<path fill="#41CB8D" d="M150.6,46c0-0.1,0-0.3,0-0.5C150.5,45.7,150.5,45.8,150.6,46z"/>
			<path fill="#41CB8D" d="M11.3,24.9L11.3,24.9l0.1-0.2C11.4,24.8,11.3,24.8,11.3,24.9z"/>
			<path fill="#41CB8D" d="M70.9,7.4c0,0.2,0.1,0.3,0.2,0.5C71.1,7.8,71,7.7,70.9,7.4z"/>
			<path fill="#41CB8D" d="M88.3,9.1l-0.4-0.2C88,9,88.2,9.1,88.3,9.1z"/>
			<path fill="#41CB8D" d="M61.8,9c-0.2-0.1-0.3-0.2-0.6-0.1c0,0.1,0.1,0.1,0.1,0.1C61.4,8.9,61.5,8.8,61.8,9z"/>
			<path fill="#41CB8D" d="M52.4,9c0,0.1,0.1,0.2,0.2,0.2c0.1,0,0.2,0,0.3-0.1L52.4,9z"/>
			<path fill="#41CB8D" d="M112.4,52.3c0.2,0.3,0.3,0.7,0.4,1C112.7,52.5,114.1,52.2,112.4,52.3z"/>
			<path fill="#41CB8D" d="M151,46.2c-0.3-0.1-0.4-0.1-0.5-0.3c0,0.1,0,0.2,0.1,0.3C150.8,46.3,150.9,46.3,151,46.2z"/>
			<path fill="#41CB8D" d="M61.4,17.9l-1.5-0.2C60.3,17.8,60.9,17.9,61.4,17.9z"/>
			<path fill="#41CB8D" d="M44.8,52.4l0.3-0.1C45,52.3,44.9,52.3,44.8,52.4z"/>
			<path fill="#41CB8D" d="M55.5,17.9c-0.3-0.4-0.6-0.6-0.8-0.8c-0.1,0.1-0.1,0.2-0.2,0.3L55.5,17.9z"/>
			<path fill="#41CB8D" d="M112.8,53.3C112.8,53.3,112.8,53.3,112.8,53.3C112.8,53.3,112.8,53.3,112.8,53.3z"/>
			<path fill="#41CB8D" d="M122.7,50.7c-1.4,0-0.7,1.4-1,2.3c-1.7,0.4-0.8-1.1-1.4-1.8c-1.1,0.4-1.9,1.7-2.7,1.7
				c-0.1-0.2-0.2-0.3,0-0.6c-1.1,1.2-3.3,0.1-4.6,1.5c-0.1-0.1-0.1-0.3-0.2-0.4c0.2,0.7,0.2,1.5,0.2,2c-0.6,0-1.2,0.9-1.4,0
				c0.4,0,0.4-0.4,0.6-0.7l-0.7,0.4c-0.6-1.4,0.9-0.5,0.9-1.5c-1.3,0.5-2.8,1.6-3.8,1.2c-0.2-1.4,2.3-0.5,1-1.7l1.5,0.5
				c-1.2-2.1,0.9,0.2-0.1-2.1c-2-0.4-2.3,0.7-4.3,0.3c-0.5,0.8,0.2,1.1-0.3,1.9c-2.9,1.4-2.3-3.4-4.4-1.6c-0.6,0.9-0.8,2.6-2.3,1.7
				l0.5-1.5c-2-0.2-1.1,2.2-3.2,1.2c0.4-0.6,1.6-0.5,1.3-0.7c-1.3-1.2-0.9,0.9-2,0.9l-0.2-1.4c-2.1,0.2-4.4,1.2-6.7,1.4
				c0.1-0.4,0.5-0.8,0-1.2c-2.9,0.7-6.3-0.2-9.1-1l-1.1,1.2c-0.3,0-0.5-0.5-0.2-0.8c-1.1-0.4-0.1,0.7-0.6,1.2
				c-0.6,0.1-0.8-0.7-0.4-1c-1.9,1-5.6,2.1-7.6,0.9l0.4-0.3c-1.6-0.5-1.8,2.4-3.3,1.3l0.3-0.2c-3.5-0.5-7.3,0.6-9.9-1.2
				c-0.5,1.7-3.4-0.8-3.7,1.6c-2-1.2-1.4-1.6-4.2-2.4c-0.7-0.1-1.1,1.5-2,1.7l0-1.2l-1.3,1.3L46,52l-0.9,0.3
				c0.3,0.1,0.7,0.6,0.7,0.9c-1.3,0.6-3.3-0.9-3.3-1.5l-3.2,1c0.1-0.5,0.6-0.7,1-1c-1.7,1.3-0.3-1.3-1.9-0.1c0.2,0.3-0.1,0.7-0.1,1
				c-0.8-0.7-2.5-0.8-3.9-0.4l0.3-0.8c-2.4-0.2-5,0.4-7.6,0.4c1,0.4,0.7,1.9,0,2l-0.3-1.3c-0.5,0.8,0.8,0.5-0.2,1.5
				c-1-0.2-0.7-1.5-0.1-1.9l-1.2,0.5c-0.1-0.4,0.2-0.6,0.3-1.1c-0.5,0.8-2.1-1.3-2.8,0.1L22.6,51c-0.7,0-1.2,0-1.8,0.1
				c-0.3,0-0.5,0-0.7,0.1l-0.1,0l0,0l0,0l0,0c-0.1,0.1-0.3,0.2-0.5,0.3c-0.6,1.1-0.7,0.9-1.6,1.8c-0.1-0.1-0.2-0.3-0.2-0.4
				c0.4-0.8,0.8-1.4,0.7-1.7c-0.3-0.1-0.5-0.1-0.8,0c-0.3,0.1-0.5,0.2-0.9,0.1c1-0.4,0.9-0.9,1.7-0.7l0-0.1c0-0.1,0,0,0-0.2
				c0-0.2,0-0.5-0.1-0.7c0-0.4-0.1-0.8-0.2-1.2c-0.1-0.8-0.4-1.7-0.8-3.2c-0.4,0.3-0.6,0.7-1,0.5c-0.2-0.5,0.4-1.2,0.9-1.1l0.1,0.1
				c-1.5-3.3,3-7.5,0.9-10.1l0.1,0.1l-1.1-2.7c0.2-1.2,0.8,0.7,1.4-0.2c-1.7-2.9,0.3-4.6-0.9-7c1.5-0.9,1.5-2.6,1.3-4.3
				c0-0.4-0.1-0.9-0.1-1.3c0-0.2,0-0.4,0-0.6c0-0.2,0-0.1,0-0.2c0-0.1,0.2-0.3,0.7-0.1l-0.7-0.3c-0.7-0.5,0.4,0,0.6,0.1
				c-0.6-0.3-0.6-0.2-1-0.5c-0.1-0.3-0.2-0.7-0.2-1c0.3,0,0.8,0.1,1.1,0.2c0.2,0.1,0.4,0.1,0.5,0.2c0.1,0,0.1,0.1,0.2,0.1l0,0
				c0,0,0,0,0.1,0l0.4,0.1c2.4,0.4,4.7,0.9,7,1.2c2.1,0.2,1.2-3.7,3.8-2L30.6,18c4.1-1.6,8.5,0.1,12.5-1.3c-0.2,0.3-0.2,0.7-0.6,0.7
				c0.9,1,3.2,0,3.2-0.7c0.6,0.1,0.1,0.7,0.5,1.1c0.9,0.6,2.2-1.2,2.6-0.3c0.1,0.2-0.2,0.3-0.4,0.4c0.6-0.5,2.6,0.1,2.1-1
				c1.5,0.5,2.9-0.5,4.1,0.2c0.8-1.2,2.6,0.6,2.9-1.2c-0.1,1.8,2.7,1.5,3.6,0.6c-0.3,0.5,0.8,0.6,0.5,1.3c1.1,0,2.1-0.4,1.9-1.3
				c2,2.2,4.1-1.7,5.2,1c3.3-1,6.3-1.6,9.2-2c-0.1,1.8-3.2,0.2-3.1,2.1c2.8-0.7,4.4-2.3,7.2-1.9c0.7,0.2-0.4,0.8-0.6,1.1
				c2.8-0.7,5.4,0.2,7.9-0.8c0,0.2-0.3,0.4-0.5,0.5c0.5-0.1,1.1,0.3,1.1-0.6l-0.5,0.2c-0.8-1.2,1.9-2.5,2-3.1
				c-0.8,2.3,2.4,0.6,1.1,3.6c0.3-0.2,0.7-0.5,0.7-1.1c0.5,0.2,0.6,0.5,0.1,1.1c1.7-0.4,1.1-1.3,2.7-1.3c0,0.4-0.3,0.6-0.5,1
				c0.8-0.8,1.6-1.5,2.9-1.2c-0.1,0.2,0.1,0.6-0.3,0.5c2.3-0.1,3.9-2.1,6.4-1.3c-0.7,1.7,0.9,0.6,1,2.1l1.4-0.4l-0.5-0.7
				c1.2,0,2.2-1.1,3.3-0.6l-0.9,0.6l2.2-0.3l-1.3-0.6c1.2-0.8-0.1-1.9,1.5-1.5c-0.3,0.2,1.2,0,1.8,0.9l0,0c0.6-0.5,1.2-1,2.1-0.6
				c0.2,0.5-0.2,1.7,0,2c0.6-1.2,2.8-0.3,3.5-1.7c-0.2,0.3-0.3,1.1-0.2,1.3l0.5-1c0.5,0.3,0.6,0.5,0.5,1.1c1.7,0.2-0.5-1.9,1.4-1.1
				c-0.2,0.1-0.1,0.2-0.4,0.4c2,0.4,3.8-0.6,5.6-0.1c0.5,1.5-1.6,0.4-1,1.6c2.6-0.3,5.4-1.8,7.9-1.4l-0.5-0.2
				c0.4-2.1,1.9,1.1,3.2,0.1c-0.3,0.2-0.4,1.2-0.3,0.9c1.7,0.3,3.5-0.5,6.2-1.2l-0.3,0.5c1,0.5,2.7,0.3,3.8,0.5
				c0.3-0.5,1-0.5,0.6-1.2c0.4,0.3,0.7,0.6,1.1,0.8c0.3,0.2,0.8,0.3,0.9,0.3c0.4,0.1,0.8,0,1.3-0.2c0.5-0.2,1.1-0.4,1.7-0.6
				c0.6-0.1,1.2-0.2,1.4,0c-0.1,0.4-0.3,0.9-0.7,1.4c0-0.2-0.5-0.1-0.5,0.1c0,0,0.1,0.2,0.3,0.5c0.1,0.3,0.3,0.6,0.3,0.6
				c0.9-0.6,0.6-0.5,1.3-1.4c0.5-0.1,1,0.4,1,1c-0.3-0.4-0.7-0.2-1,0.1c-0.4,0.3-0.7,0.8-1,1c0.3-0.1,0.6-0.1,0.9-0.2
				c-0.8,0.7-0.4,0.6,0.2,0.6c0.5,0,1.1,0.1,0.6,1l-0.5-0.1c0.2,0.7,0.9,1.3,0.7,2.1c-1.1,0.3-0.5-0.7-1.4-0.8c0.1,1,2,2.1,1,3
				c-0.3-0.4-0.3-1.1-0.6-1.5c-1.3,1-0.9,1.1-1.1,1.9l0-0.1l-0.6,1.8l0.3-0.4c2.8,1.3,0.5,2.6,2.3,4.4c-1.7-1.7-1-0.3-2.2-0.4
				c-0.3,0.4-0.7,1.1-1.1,0.9c1,0.8-0.8,1.4,0.7,2.6c-0.4,0.1,0,0.9-1,0.7c0.3,1.1,0.7-0.3,1.2-0.2c1.3,1.7-1.6,3.9,0.2,6.3
				c0.8,2.1,2.1,2.4,2.7,4.4c-0.6,0.6-1.4-0.5-1.4-0.5c-0.6,1-0.5,1.8,0,2.8c-0.3-0.2-0.6,0-1.1,0.3c0.1,0.8,1.4,0.5,0.8,1.6
				c-0.4-0.2-1.1-0.4-1.6-0.8c0.4,0.9,1.1,1.8,1.4,2.8c-0.7,0.3-1-0.6-1.5-0.9c0.3,1.1,0.6,2.8,1.7,3.1l0.4-0.7
				c0.1,0.4-0.9,0.2-1.1-0.1c-0.8-0.9,0.4-1.3,0.8-1.4l0.2,0.7c2.3-0.7-0.4-2.7-0.2-4.1l1.7,0.6l-1.4-1.4c0.4-0.3,1.4-0.5,1.6,0.2
				c0.8-1-0.6-0.9,0.3-1.7c0.1-0.1,0.2-0.1,0.3,0l-0.5-1c0.3,0.2,1.2-0.2,0.9,0.4c1-1.7-1.2-2.8,0-3.4l0.1,0.1
				c-0.6-2.4-1.2-0.2-2.7-2l3-1.2l-1.2-0.2c0-0.2,0.1-0.7,0.6-0.6c-0.8-0.9-0.5,0.2-1.3-0.4c1.1-1.2-0.5-3.3,1.4-3.6
				c-0.9-0.4-0.7,1.1-1.4-0.1c2.1-0.4-0.4-1.5,0.6-2.6c1.1,0.3,0.5,1.4,1.5,0.3c-1.8-0.7,0.4-2.1,0.1-3c-1.5,0-0.6-2-1.1-3.5
				c0.2,0,0.4-0.7,0.6-1.6c0.1-0.5,0.2-1,0.3-1.4c0.1-0.2,0.1-0.5,0.2-0.7c0.1-0.2,0.1-0.4,0.2-0.7l0.2,0.1
				c-1.5-0.4-1.2-2.2-1.5-3.4c0.9-0.4,1.2-0.3,1.6,0.4l0-1.5c-0.5-0.1-0.7-0.4-0.9-1.2c0,0,0.3-0.1,0.5-0.2c0.3-0.1,0.5-0.2,0.5-0.2
				c0-1.1-0.4-1.9-0.6-2.8c-1.1,0.2-2,0.2-2.9-0.1c-0.4,0.5-0.4,1.2-0.8,1.9c-0.3,0.7-1,1.3-2,1.6c0.3-0.6,0.7-1.5,1.4-1.7
				c-0.2,0.1-0.9,0.5-1.1,0.2c0,0,0.3-0.2,0.7-0.5c0.4-0.2,0.7-0.5,0.7-0.5c-0.7-0.4-1,0.8-1.6,0.7c0.4-0.8-0.3-0.6,0.1-1.2
				c0.3-0.1,0.6,0.3,1,0c-0.8-0.1-1.8-0.6-2.1-1.2c0,0.4-0.3,1.1-1,1.2c-1.7,0.1-0.6-1-1.6-1.4c-0.3,0.5-1.2,0-1.2,1.2
				c-0.4,0-0.5-0.6-0.6-0.9c-0.7,0.5-3.3,0.1-2.5,1.4l0.2,0.1c0,0-0.1,0-0.1,0.1c0,0,0,0,0,0h0c-2.3,1.2-4.7-0.7-7-0.2l0-0.4
				c-1.4,0.5-3,0.3-4,1.1c-0.4,0-0.9-0.7-0.8-1.2c-1,0.3-1.2,0.7-2.6,0.1c1-0.7-0.4-0.6,1.1-0.5c-1.3-0.3-1.6-1-3.1,0.1
				c0.5-1-1-1.3-1.6-1l0.9,0.7c-0.7,0.1-1.3,0.1-2,0l0.3-1.3c-2.7-1.6-5,2.8-7.1,0c-0.7,0.9,1.5,0.7,0.8,1.7c-1.3-0.2-2.6-2.1-3-2.1
				c-1.7-0.7-1.6,1.9-3.4,1.4c0.2,0.5,0.4,1.7-0.9,2.2c-1.3-0.2-1.6-2-0.8-2.4c0.3,0,0.4,0.1,0.4,0.3c0.4-0.2,0.9-0.4,0.4-0.9
				L110.6,9c-0.6-0.5-2.4-0.4-2-1.2c-1,0.5-0.4,0.8,0.3,1c-1.6-0.7-2.5,0-4.2-0.5c0.3,0.3,0.5,0.8,0.2,0.8c-2.5-0.6-1.1,0.9-2.7,1.1
				c-0.9-0.7,0.3-1.7-1.3-1.1c-1-0.5-0.2-1.3,0.2-1.6c-1.5,0.9-2.8-0.6-3.7-0.8l0.8-0.4c-0.5,0.2-0.9,0.2-1.3,0.2l0.5,0.9
				c-0.5-0.2-0.9-0.2-0.9-0.6c-0.5,0.6,0.4,1.6-0.6,2.4c-0.6-0.5-1.9,0.5-2.1-0.7c2,0.4-0.2-1.3,1.5-1.5c-0.3,0.2-0.7,0.1-1.2,0
				C94,7,94.1,6.9,94.3,6.8c-1.9-1.1-0.9,1.4-2.8,1.4C91.7,7.5,91,6.8,90.7,7c0.8,0,0.4,1.2-0.3,1.7c-1.3-0.6-1.4,0.4-2,0.3l0.8,0.3
				c-0.3,0.7-0.9,0.6-1.8,0.8c-0.1-0.6,0.8-0.4,0.5-0.6c-1,1.2-2.2-1.3-3.6-0.5c-0.6-0.5-0.1-1.3-0.6-1.7c-1.5,0.9-1.6-1-3.2-0.2
				c0.5,1,0.5,0.7-0.6,1.7l2.6-0.7l-1.7,1.4c0.8,0,1.7-0.6,2.1-0.4c-0.8,0.8-0.7,0.5-0.3,1.3c-1.1-1.4-2.1,0.8-3.4-0.1l0-2.4
				c-1.9-1.1-3.3,1.2-5.8,0.6L74.2,9c-0.3,0.9-1.5,0.1-2.3,0.5c0.1-0.8-0.4-1.1-0.8-1.6c0,0.6-1.8-0.1-2,1.5l-1.1-1
				c-2-0.4-2.3,2.2-4.2,2c0.6-0.9-0.3-1.4,1-2c-0.6,0-1.2-0.2-1.2,0.4c-0.4-0.5-1.8,1.1-2.3,0.3c-0.3,0.3-0.4,1.2-1.1,1.1
				c-0.1-0.2,0-0.4,0-0.4c0,0.4-1.1,0.5-0.5,1.4c-2-2.5-5.5,0.2-7.2-1.9c-1.4,0.3-3.1,0.5-4.3,0.6c0.1-0.2,0-0.4,0.2-0.3
				c-1.7-0.7-1.1,2.3-3,1.4c-1-1.3,1-0.7,0.4-1.2c-0.3-2.6-2.4,0.4-3.7-1.2l0.3-0.2c-1-0.9-2.5,1-4.1,0.8c0,0,0.1-0.2,0-0.4
				c-1.1,1.3-3.3,1.8-4.9,2.1c0.5-1,0.7-0.5,0.4-1.6c-0.7,0.1,0.2,1.7-1.2,1.9c-0.5-0.6-1.5-1-1.6-2.1l1.3-0.1
				c-0.7-1.4-1.7,0-2.5-0.2l0.1-0.6C28,8.5,28,10.1,25.7,10l0.2,0.5c-1.2,1.6-1-0.9-2.2,0.3l-0.4-1.6c-0.4,0.2-1.1,0.6-1.9,0.9
				c-0.4,0.2-0.8,0.4-1.2,0.5c-0.2,0.1-0.4,0.1-0.7,0.2C19.4,10.9,19.2,11,19,11c1.1-1.2,2.6-1.8,3.7-2.5c-0.4,0-1.1,0-1.7,0.1
				c-0.3,0.1-0.6,0.2-0.9,0.3c-0.3,0.1-0.6,0.3-0.7,0.5c0.2-0.1,0.5-0.2,0.7-0.3c0.2-0.1,0.4-0.1,0.5,0c-0.4,0.6-1.2,1.1-2,1.4
				c-0.8,0.3-1.5,0.4-2.5,0.4c-0.7-2-3.2-1.7-5.8-1.9c-0.1,1.1-0.4,2.1-1.2,2.2c0.6,2.7,0.4,4.7,0.2,7.1c0,0.1,0,0.3,0,0.4l0,0.3
				l-0.1,0.5C9.1,19.9,9,20.3,9,20.7c-0.1,0.8-0.2,1.5-0.1,2.4c2.4-1.2,0.1,0.9,2.5,0.8c0.2,0.8,0.1,1,0,1.1l-1.5,2.3
				c-0.7,0.5-0.5-0.7-1.1-0.7c-0.2,1.7-1,0.7-1.7,1.8c0.9-0.2,1.3,0.6,0.9,1.5l1.1-1.3c1.3,2.3-2.1,2-0.8,4.3l-0.8-0.7
				c0.5,1.2,0,4.4,1.9,5.6c-0.3,0.2-1,0.5-1.1,0c-0.3,2.9,2.1,6.4,0.9,8.6l-0.6-0.2c0.2,0.5,1.1,0.9,0.5,1.6c-0.2,0-0.6-0.2-0.6,0
				c0.2,0.3,1,1.4,0.7,2.1l-0.7-0.6c-0.1,0.3-0.1,0.7-0.2,1l0,0.2l0,0.4c0,0.3,0,0.5,0.1,0.8c0.1,1,0.4,1.9,0.6,2.6
				c0.6,1.5,1.3,2.5,1.5,4.1c-0.8,0.7-1.4,1.9-1.8,3.4c0.8,0.5,2.2,0.7,3.2,0.8l-0.2,0.2c3,0.1,5.9-0.3,8.2-0.7
				c1.4-0.5,2.7-1.1,4.2-1.4c1.9,1.9,6.3,0.8,9.3,1.9c-0.5-0.3,0.1-1.4,0.6-1.5c0.7,0.4,2-1.2,1.8,0.4l-0.3,0c0.5,1.6,2,1.2,3.1,1.2
				l0.2-2.1c3,3.1,7.8-1.1,9.4,1.6c0.7-0.5,1.6-0.5,2.3-1l0,1.1c2,0.3,3,0.4,5.4,0.2l-0.5,0.8c1.4,0.1,1.7-3.3,3-3.3l0.4,1.7
				c2.4,0,4.8,1.5,7.2-0.1c0,0.2-0.1,0.7-0.5,0.8c1.1,0,4.4,1.1,4-1.2c0,1.5,2.5,0.1,3.8-0.5l-0.2,1.1c1.1-1.4,1.1-1.8,2.7-2.2
				c0.4,0.1,0.3,0.9-0.2,0.6c1.2,0.6,0.9-1.1,2.4-0.5l-0.5,0.7c1.2,0.1,1.1-0.3,1.8-1.1c0.8-0.4,2.4,0.3,2.5,1.3
				c0.2-0.6,0.9-1.4,1.6-1.1c0.1,0.4-0.2,0.6-0.3,0.7c2.1,0.8,3.1-1.3,4.5-0.2c0,0.4,0.1,0.6,0.2,0.7c-1.7,0-3-0.1-2.9-0.2
				c0,1,1.3,1.2,0.3,2.6c1.1-0.8,2.9-2.5,4.2-2c0.1,0.1,0.1,0.2,0.2,0.4l-0.1,0.1c0.3,0.1,0.6,0,0.8-0.2c0.4,0.2,0.7,0.3,1.1,0.3
				c0.2,0.8,1.5,0.5,2.2,0.5c-0.1-1.1,0.8-0.9,0-1.9c0.1,0.1-0.1,0.1-0.6,0.2c-0.1,0-0.2,0-0.3,0.1c0,0,0-0.1,0-0.1
				c-0.4,0-1,0.1-1.7,0.1c0.5-0.6,1.1-1.1,1.8-0.4c0.3-0.7,0.7-1.5,0.9-1.8c0.9,1.6,2.7,2.4,2.9,3.4c2-0.6,4.8-0.4,6.1-2.5
				c0.6-0.3,0.7,0.6,0.9,0.9c-0.3,0.2-0.7,0.2-0.9,0.5c1.2-0.5,3.4-0.2,3.7-1.7c1.5,0.7-0.8,1.4,1.2,1.1l-0.3,0.5
				c3.9,2.4,6.4-3.8,10.8-0.7c-0.3-0.2-0.5-0.3-0.5-0.5c5,1.3,10.3-1.2,15.2,0.9c1.4,0.4,1.5-0.5,2.4-1.2l0.3,1.2l1.5-1.4
				c2.1-1,3.6,3,6.2,1l-0.3-0.8c0.9,0.2,3-0.5,2.8,0.5c0.1-0.1,0.3-0.8,0.7-0.4l0,0.6l2.3-1.1c1.8,0.5-0.3,2.5,2.3,2.6
				c1-0.2,2.8-1.8,2.4-2.3c-0.4,0-1-0.4-1-1l0.9-0.3c0.2-1.9,0.8-3.8-1.3-5.1l-1.5,1.1l-0.5-0.9l1.3-0.1c-0.7-0.9-1.2-0.1-1.7,0.4
				c-0.1-0.5-0.3-0.8-0.6-1l-1.5,1.8c-0.2-0.7,0.7-1.4-0.3-1.8c-0.7,0.8,0.7,1.6-0.5,2.2c-0.7-0.8-0.5-1.5-1.4-0.8
				c-0.1-0.5,0.1-0.8,0.4-1c-0.8,0.6-2,0.2-2.4,1.2c-0.8-1-2.6,0.3-2.5-1.5c-0.2,0.4-1.3,1.4-2,1.5c1.3-2.1-2.6-0.1-2.3-2.4
				c-0.9,1.9-3.4,0.8-5.1,1.9c0.1-0.2,0.3-0.5,0.4-0.4c-0.9-0.2-1.2-0.7-1.8-1.1c-0.1,1.6-1.6,1.9-2.4,2.9c-1.2-1.5,0.7-1.8,0.3-3.3
				c0.1,1.3-2,1.3-1.6,2.3c-0.9-0.9-0.8-0.5-1.2-1.8c-0.2,2-0.8,0.3-1.6,1.5c-1.3-1-0.3-1.8-1.7-1.2
				C121.5,51.4,122.7,50.7,122.7,50.7z M89.4,54C89.4,54,89.4,54,89.4,54c0.3,0,0.5-0.1,0.7-0.1C89.9,54,89.7,54,89.4,54z
				 M86.6,54.1c0.3,0,0.8,0.1,1.2,0c0.1,0.4,0,0.8-0.3,0.8C87.7,54.6,87,54.4,86.6,54.1z M92.5,61.9c-0.4,0.2-0.6-0.1-0.7-0.3
				c0.2,0,0.5-0.1,0.8-0.1c0,0,0-0.1,0.1-0.1C92.6,61.5,92.6,61.7,92.5,61.9z"/>
			<path fill="#41CB8D" d="M93.3,60.4c0.1,0,0.1-0.1,0.2-0.1c-0.1-0.1-0.2-0.2-0.3-0.3c-0.1,0.1-0.1,0.2-0.2,0.4
				C93.1,60.4,93.2,60.4,93.3,60.4z"/>
			<path fill="#41CB8D" d="M142.9,10.6L142.9,10.6c0,0,0,0.1,0.1,0.1C142.9,10.7,142.9,10.7,142.9,10.6z"/>
			<polygon fill="#41CB8D" points="47.9,51.9 47.9,52.2 48.1,51.9 			"/>
			<path fill="#41CB8D" d="M151.6,17.5c-0.1,0-0.2,0.1-0.3,0.2C151.4,17.7,151.5,17.6,151.6,17.5z"/>
			<path fill="#41CB8D" d="M151.4,23.5l-0.4,0.9C151.2,24,151.3,23.7,151.4,23.5z"/>
			<path fill="#41CB8D" d="M150.8,28.6c0.2,0.1,0.3,0.1,0.5,0.1c0,0,0,0,0,0L150.8,28.6z"/>
			<path fill="#41CB8D" d="M88.7,16.6c-0.1,0-0.1,0-0.2,0.1C88,16.9,88.3,16.8,88.7,16.6z"/>
			<path fill="#41CB8D" d="M112.9,14c-0.3,0.2-0.5,0.4-0.8,0.5C112.5,14.6,112.9,14.6,112.9,14z"/>
			<path fill="#41CB8D" d="M61.6,17.9C61.6,17.9,61.6,17.9,61.6,17.9c-0.1,0-0.1,0-0.2,0L61.6,17.9z"/>
			<path fill="#41CB8D" d="M111,14.5c0.4,0.2,0.8,0.2,1.1,0C111.8,14.4,111.3,14.3,111,14.5z"/>
			<path fill="#41CB8D" d="M150.3,50.8l0,0.2c0.1,0,0.1,0,0.2,0L150.3,50.8z"/>
			<path fill="#41CB8D" d="M150.4,51.1l0.1,0.3C150.6,51.2,150.6,51.1,150.4,51.1z"/>
			<path fill="#41CB8D" d="M150.8,51.9l-0.3-0.6C150.6,51.6,150.5,51.8,150.8,51.9z"/>
			<path fill="#41CB8D" d="M150.8,44l-0.4-0.1C150.5,44,150.6,44,150.8,44z"/>
			<path fill="#41CB8D" d="M150.7,42c-0.1,0.5-0.9,1.2-0.6,1.9l0.3,0.1C149.8,43.6,151.4,42.4,150.7,42z"/>
			<path fill="#41CB8D" d="M155.8,33.4l-0.3,1.7c0.4-0.3,1-0.7,1.1,0.1C157.8,33,155.6,35.6,155.8,33.4z"/>
			<path fill="#41CB8D" d="M156.4,28c0.2,0.9,0.6,0,0.9,0C156.9,27.5,156.8,27.3,156.4,28z"/>
			<path fill="#41CB8D" d="M130.8,9.7l0.1-1C130.2,8.9,130.9,9.1,130.8,9.7z"/>
			<polygon fill="#41CB8D" points="123.4,15 124.1,15.7 124.4,14.7 			"/>
			<polygon fill="#41CB8D" points="119.1,7.7 119.4,7.6 118.2,7.9 			"/>
			<path fill="#41CB8D" d="M54.1,8l0.2,1.3C54.8,9.1,54.9,7.7,54.1,8z"/>
			<path fill="#41CB8D" d="M26,9.3c-0.3-0.6-1.1-1-1.6-0.4C25.1,9,25.7,9.5,26,9.3z"/>
			<polygon fill="#41CB8D" points="40.5,62 39.9,62.4 41,62 			"/>
		</g>
	</g>
</g>
<g>
	<path d="M46.2,31.3l-8.4,0l0-11.6l8.4,0l0,2.2l-5.4,0l0,2l5,0l0,2.2l-5,0l0,2.9l5.4,0L46.2,31.3z"/>
	<path d="M57.1,31.3l-2.8,0l0-0.9c-0.5,0.4-0.9,0.7-1.4,0.9c-0.4,0.2-0.9,0.3-1.5,0.3c-1.1,0-1.9-0.4-2.6-1.2c-0.6-0.8-1-1.9-1-3.3
		c0-0.7,0.1-1.4,0.3-2c0.2-0.6,0.5-1.1,0.9-1.5c0.4-0.4,0.8-0.7,1.3-0.9c0.5-0.2,1-0.3,1.5-0.3c0.5,0,1,0.1,1.3,0.2
		c0.3,0.1,0.7,0.3,1,0.4l0-3.7l2.8,0L57.1,31.3z M54.3,28.9l0-4.3c-0.2-0.1-0.4-0.1-0.6-0.2c-0.2,0-0.4-0.1-0.6-0.1
		c-0.7,0-1.3,0.2-1.7,0.7c-0.4,0.5-0.6,1.1-0.6,1.9c0,0.9,0.1,1.5,0.4,1.9c0.3,0.4,0.8,0.6,1.4,0.6c0.3,0,0.5,0,0.8-0.1
		C53.8,29.2,54,29.1,54.3,28.9z"/>
	<path d="M68.5,31.3l-2.8,0l0-1c-0.5,0.4-1,0.7-1.4,0.9c-0.4,0.2-0.9,0.3-1.5,0.3c-1,0-1.7-0.3-2.2-0.8c-0.5-0.6-0.8-1.4-0.8-2.5
		l0-5.7l2.8,0l0,4.4c0,0.4,0,0.8,0,1.1s0.1,0.5,0.2,0.7c0.1,0.2,0.2,0.3,0.4,0.4c0.2,0.1,0.5,0.1,0.8,0.1c0.2,0,0.5,0,0.8-0.1
		s0.6-0.2,0.8-0.4l0-6.2l2.8,0L68.5,31.3z"/>
	<path d="M75.7,31.6c-0.8,0-1.5-0.1-2.1-0.3c-0.6-0.2-1.2-0.5-1.7-0.8c-0.5-0.4-0.8-0.9-1.1-1.4c-0.3-0.6-0.4-1.3-0.4-2
		c0-0.8,0.1-1.5,0.4-2.1c0.3-0.6,0.7-1.1,1.1-1.5c0.5-0.4,1-0.6,1.6-0.8c0.6-0.2,1.3-0.3,1.9-0.3c0.6,0,1.2,0.1,1.7,0.2
		c0.5,0.1,1,0.3,1.4,0.5l0,2.4l-0.4,0c-0.1-0.1-0.2-0.2-0.4-0.3s-0.3-0.2-0.6-0.4c-0.2-0.1-0.4-0.2-0.7-0.3s-0.6-0.1-0.9-0.1
		c-0.7,0-1.3,0.2-1.7,0.7c-0.4,0.5-0.6,1.1-0.6,1.9c0,0.8,0.2,1.5,0.6,1.9s1,0.7,1.8,0.7c0.4,0,0.7,0,1-0.1s0.5-0.2,0.7-0.3
		c0.2-0.1,0.3-0.2,0.5-0.3c0.1-0.1,0.3-0.2,0.4-0.3l0.4,0l0,2.4c-0.4,0.2-0.9,0.4-1.4,0.5C76.8,31.5,76.3,31.6,75.7,31.6z"/>
	<path d="M85.9,30.4c-0.2,0.1-0.3,0.3-0.6,0.4c-0.2,0.2-0.4,0.3-0.6,0.4c-0.3,0.1-0.6,0.2-0.9,0.3s-0.6,0.1-1,0.1
		c-0.8,0-1.5-0.3-2.1-0.8c-0.6-0.5-0.8-1.2-0.8-2c0-0.6,0.1-1.2,0.4-1.6c0.3-0.4,0.7-0.7,1.2-1c0.5-0.2,1.2-0.4,1.9-0.5
		s1.6-0.2,2.4-0.2v0c0-0.5-0.2-0.8-0.6-1c-0.4-0.2-1-0.3-1.8-0.3c-0.5,0-1,0.1-1.5,0.2c-0.5,0.2-0.9,0.3-1.1,0.4l-0.3,0l0-2.1
		c0.3-0.1,0.8-0.2,1.4-0.3c0.7-0.1,1.3-0.2,2-0.2c1.6,0,2.8,0.2,3.5,0.7c0.7,0.5,1.1,1.3,1.1,2.3l0,6l-2.8,0L85.9,30.4z M85.9,29.1
		l0-1.8c-0.4,0-0.8,0.1-1.2,0.1c-0.4,0.1-0.8,0.1-1,0.2c-0.3,0.1-0.5,0.2-0.6,0.4s-0.2,0.4-0.2,0.7c0,0.2,0,0.3,0,0.4
		s0.1,0.2,0.2,0.3c0.1,0.1,0.3,0.2,0.4,0.2c0.2,0,0.4,0.1,0.8,0.1c0.3,0,0.6-0.1,0.9-0.2C85.4,29.4,85.6,29.2,85.9,29.1z"/>
	<path d="M95.8,31.6c-0.8,0-1.5-0.1-2.1-0.3c-0.6-0.2-1.2-0.5-1.7-0.8c-0.5-0.4-0.8-0.9-1.1-1.4c-0.3-0.6-0.4-1.3-0.4-2
		c0-0.8,0.1-1.5,0.4-2.1c0.3-0.6,0.7-1.1,1.1-1.5c0.5-0.4,1-0.6,1.6-0.8c0.6-0.2,1.3-0.3,1.9-0.3c0.6,0,1.2,0.1,1.7,0.2
		c0.5,0.1,1,0.3,1.4,0.5l0,2.4h-0.4c-0.1-0.1-0.2-0.2-0.4-0.3s-0.3-0.2-0.6-0.4c-0.2-0.1-0.4-0.2-0.7-0.3s-0.6-0.1-0.9-0.1
		c-0.7,0-1.3,0.2-1.7,0.7c-0.4,0.5-0.6,1.1-0.6,1.9c0,0.8,0.2,1.5,0.6,1.9s1,0.7,1.8,0.7c0.4,0,0.7,0,1-0.1s0.5-0.2,0.7-0.3
		c0.2-0.1,0.3-0.2,0.5-0.3c0.1-0.1,0.3-0.2,0.4-0.3h0.4l0,2.4c-0.4,0.2-0.9,0.4-1.4,0.5C96.9,31.5,96.4,31.6,95.8,31.6z"/>
	<path d="M103.5,21.3l-3,0l0-2.1l3,0L103.5,21.3z M103.5,31.4l-2.8,0l0-8.8l2.8,0L103.5,31.4z"/>
	<path d="M115.1,27c0,1.4-0.4,2.6-1.3,3.4c-0.8,0.8-2,1.2-3.5,1.2c-1.5,0-2.7-0.4-3.5-1.2c-0.8-0.8-1.3-2-1.3-3.4
		c0-1.5,0.4-2.6,1.3-3.4c0.8-0.8,2-1.2,3.5-1.2c1.5,0,2.7,0.4,3.5,1.3C114.7,24.4,115.1,25.5,115.1,27z M113.1,18.3v0.2l-2.8,2.9
		l-1.9,0l1.9-3.1L113.1,18.3z M111.6,29.1c0.2-0.2,0.3-0.5,0.4-0.8c0.1-0.3,0.1-0.8,0.1-1.3c0-0.5,0-0.9-0.1-1.3
		c-0.1-0.3-0.2-0.6-0.4-0.8c-0.2-0.2-0.4-0.4-0.6-0.5c-0.2-0.1-0.5-0.1-0.8-0.1c-0.3,0-0.5,0-0.7,0.1s-0.4,0.2-0.6,0.4
		c-0.2,0.2-0.3,0.5-0.4,0.8s-0.2,0.8-0.2,1.3c0,0.5,0,0.9,0.1,1.2c0.1,0.4,0.2,0.6,0.4,0.8c0.2,0.2,0.4,0.4,0.6,0.4
		c0.2,0.1,0.5,0.1,0.8,0.1c0.3,0,0.5,0,0.7-0.1C111.3,29.5,111.5,29.3,111.6,29.1z"/>
	<path d="M125.9,31.4l-2.8,0l0-4.4c0-0.4,0-0.7-0.1-1.1c0-0.4-0.1-0.6-0.2-0.8c-0.1-0.2-0.3-0.3-0.5-0.4s-0.5-0.1-0.8-0.1
		c-0.3,0-0.5,0-0.8,0.1c-0.3,0.1-0.5,0.2-0.9,0.4l0,6.2l-2.8,0l0-8.8l2.8,0v1c0.5-0.4,1-0.7,1.4-0.9c0.5-0.2,1-0.3,1.5-0.3
		c0.9,0,1.7,0.3,2.2,0.8c0.5,0.6,0.8,1.4,0.8,2.5L125.9,31.4z"/>
	<path d="M56.1,45.5l-6.4,0c0,0.7,0.3,1.2,0.8,1.6c0.5,0.4,1.2,0.5,2.1,0.5c0.6,0,1.2-0.1,1.7-0.3c0.6-0.2,1-0.4,1.3-0.7l0.3,0
		l0,2.3c-0.6,0.3-1.2,0.4-1.8,0.6c-0.6,0.1-1.2,0.2-1.9,0.2c-1.8,0-3.1-0.4-4-1.2c-0.9-0.8-1.4-1.9-1.4-3.4c0-1.4,0.4-2.6,1.3-3.4
		c0.9-0.8,2.1-1.3,3.7-1.3c1.4,0,2.5,0.4,3.2,1.1c0.7,0.7,1.1,1.8,1.1,3.1L56.1,45.5z M53.3,43.8c0-0.6-0.2-1-0.4-1.3
		c-0.3-0.3-0.7-0.4-1.3-0.4c-0.5,0-1,0.1-1.3,0.4c-0.3,0.3-0.5,0.7-0.6,1.4L53.3,43.8z"/>
	<path d="M66.9,49.3l-2.8,0l0-4.4c0-0.4,0-0.7-0.1-1.1c0-0.4-0.1-0.6-0.2-0.8c-0.1-0.2-0.3-0.3-0.5-0.4s-0.5-0.1-0.8-0.1
		c-0.3,0-0.5,0-0.8,0.1c-0.3,0.1-0.5,0.2-0.9,0.4l0,6.2l-2.8,0l0-8.8l2.8,0l0,1c0.5-0.4,1-0.7,1.4-0.9s1-0.3,1.5-0.3
		c0.9,0,1.7,0.3,2.2,0.8c0.5,0.6,0.8,1.4,0.8,2.5L66.9,49.3z"/>
	<path d="M77.8,49.3l-2.8,0l0-12.2l2.8,0L77.8,49.3z"/>
	<path d="M84.6,36.3v0.2l-2.8,2.9l-1.9,0l1.9-3.1L84.6,36.3z M83.2,49.3l-2.8,0l0-8.8l2.8,0L83.2,49.3z"/>
	<path d="M94.7,49.4l-2.8,0l0-4.4c0-0.4,0-0.7-0.1-1.1c0-0.4-0.1-0.6-0.2-0.8c-0.1-0.2-0.3-0.3-0.5-0.4c-0.2-0.1-0.5-0.1-0.8-0.1
		c-0.3,0-0.5,0-0.8,0.1s-0.5,0.2-0.9,0.4l0,6.2l-2.8,0l0-8.8l2.8,0l0,1c0.5-0.4,1-0.7,1.4-0.9c0.5-0.2,1-0.3,1.5-0.3
		c0.9,0,1.7,0.3,2.2,0.8c0.5,0.6,0.8,1.4,0.8,2.5L94.7,49.4z"/>
	<path d="M105.9,45.5l-6.4,0c0,0.7,0.3,1.2,0.8,1.6c0.5,0.4,1.2,0.5,2.1,0.5c0.6,0,1.2-0.1,1.7-0.3c0.6-0.2,1-0.4,1.3-0.7h0.3l0,2.3
		c-0.6,0.3-1.2,0.4-1.8,0.6c-0.6,0.1-1.2,0.2-1.9,0.2c-1.8,0-3.1-0.4-4-1.2c-0.9-0.8-1.4-1.9-1.4-3.4c0-1.4,0.4-2.6,1.3-3.4
		c0.9-0.8,2.1-1.3,3.7-1.3c1.4,0,2.5,0.4,3.2,1.1c0.7,0.7,1.1,1.8,1.1,3.1L105.9,45.5z M103.1,43.8c0-0.6-0.2-1-0.4-1.3
		c-0.3-0.3-0.7-0.4-1.3-0.4c-0.5,0-1,0.1-1.3,0.4c-0.3,0.3-0.5,0.7-0.6,1.4L103.1,43.8z"/>
	<path d="M113.2,48.4c-0.2,0.1-0.3,0.3-0.6,0.4s-0.4,0.3-0.6,0.4c-0.3,0.1-0.6,0.2-0.9,0.3c-0.3,0.1-0.6,0.1-1,0.1
		c-0.8,0-1.5-0.3-2.1-0.8c-0.6-0.5-0.8-1.2-0.8-2c0-0.6,0.1-1.2,0.4-1.6c0.3-0.4,0.7-0.7,1.2-1c0.5-0.2,1.2-0.4,1.9-0.5
		c0.8-0.1,1.6-0.2,2.4-0.2v0c0-0.5-0.2-0.8-0.6-1c-0.4-0.2-1-0.3-1.7-0.3c-0.5,0-1,0.1-1.5,0.2c-0.5,0.2-0.9,0.3-1.1,0.4H108l0-2.1
		c0.3-0.1,0.8-0.2,1.4-0.3s1.3-0.2,2-0.2c1.6,0,2.8,0.2,3.5,0.7c0.7,0.5,1.1,1.3,1.1,2.3l0,6l-2.8,0V48.4z M113.2,47.1l0-1.8
		c-0.4,0-0.8,0.1-1.2,0.1s-0.8,0.1-1,0.2c-0.3,0.1-0.5,0.2-0.6,0.4c-0.1,0.2-0.2,0.4-0.2,0.7c0,0.2,0,0.3,0,0.4s0.1,0.2,0.2,0.3
		c0.1,0.1,0.3,0.2,0.4,0.2c0.2,0,0.4,0.1,0.8,0.1c0.3,0,0.6-0.1,0.9-0.2C112.8,47.4,113,47.3,113.2,47.1z"/>
</g>
</svg>
