<?xml version="1.0" encoding="utf-8"?>
<!-- Generator: Adobe Illustrator 19.1.0, SVG Export Plug-In . SVG Version: 6.00 Build 0)  -->
<svg version="1.1" id="Layer_1" xmlns="http://www.w3.org/2000/svg" xmlns:xlink="http://www.w3.org/1999/xlink" x="0px" y="0px"
	 viewBox="0 0 338.7 185.5" enable-background="new 0 0 338.7 185.5" xml:space="preserve">
<g>
	<g>
		<g>
			<path fill="#FF6666" d="M269.6,149.8"/>
		</g>
		<g>
			<g>
				<path fill="#FF6666" d="M17.8,70.5c9,9.3,17.7,18.9,26.2,28.6c4.3,4.8,8.6,9.7,12.7,14.7c2.1,2.4,4.3,4.6,6.5,7.2
					c2.3,2.4,4,5.4,5.9,8.3l-3.4-0.6c2.7-2.2,5.3-4.4,8.1-6.4c3-1.6,5.9-3.6,9-4.9c3.2-1.2,6.2-2.8,9.5-3.6c3.2-1,6.6-1.9,9.8-2.4
					c6.7-1,13.3-1.6,20-1.5c3.4,0.1,6.7,0.5,10,1.1c1.6,0.3,3.2,1,4.8,1.5c1.6,0.6,2.8,2,4.1,2.9c-1.5-0.8-2.8-1.9-4.4-2.2
					c-1.6-0.3-3.1-0.8-4.8-1c-3.3-0.3-6.5-0.4-9.8-0.1c-6.5,0.4-13.1,1.3-19.4,2.7c-3.3,0.7-6.3,1.7-9.4,2.7c-3.2,0.8-6,2.4-9,3.6
					c-3,1.3-5.6,3.2-8.4,4.8c-2.6,1.9-4.9,4.1-7.5,6l-2,1.5l-1.4-2.1c-1.7-2.6-3.1-5.3-5.2-7.6c-1.9-2.4-4.2-4.9-6.3-7.4l-12.2-15.1
					C33.5,91.1,25.5,80.9,17.8,70.5z"/>
			</g>
			<g>
				<path fill="#FF6666" d="M17.8,72.1C28,62.6,40.4,55.7,53.7,51.6c13.2-4,28.2-5.2,41.5,0.8c3.2,1.5,6.5,3.3,9.2,5.7
					c2.9,2.3,5.2,4.9,7.6,7.3c4.9,4.9,9.7,9.9,14.3,15.1c4.9,5,9,10.7,13.4,16.1c4.3,5.5,8,11.5,11.8,17.3l0.9,1.4l-1.5-0.1
					l-15.8-1.5c5.2-0.2,10.6-0.2,15.6-0.1l-0.6,1.2c-4.4-5.3-8.2-11.1-12.8-16.3c-4.6-5.2-9.1-10.4-13.9-15.3
					c-4.7-5-9.5-9.9-14.5-14.8c-2.5-2.4-4.9-5-7.4-6.9c-2.4-2.2-5.3-3.8-8.2-5.2c-5.9-2.8-12.5-4.2-19.1-4.2
					c-6.6,0-13.3,0.9-19.9,2.5C41.5,58.1,29,64,17.8,72.1z"/>
			</g>
			<g>
				<path fill="#FF6666" d="M103.8,58.8c0,0,0.1-0.7,0.2-2c0.2-1.3,0-3.3,0.7-5.6c0.9-2.3,1.6-5.4,3.6-8.2c1.6-3.1,4.1-6,7-9.1
					c3-3,6.4-6,10.3-8.8c3.9-2.7,8.3-5.6,12.9-7.7c4.9-2.2,10-3.9,15.4-5.1c5.4-1.1,11.3-1.6,17.2,0.3c1.2,0.4,3.2,1.3,4.1,2.2
					c1.1,0.9,2.2,1.6,3.2,2.8c2.1,2.3,3.9,4.4,5.5,6.5c3.3,4.1,6.9,8.1,10.3,12C201,44,207,51.6,212.7,57.6c5.5,6.1,10.2,11.1,14,14
					c3.7,3,6.4,3.8,6.4,3.8s-2.8-0.4-6.9-3.1c-4-2.7-9.4-7.2-15.2-13c-5.9-5.8-12.5-12.8-19.5-20.4c-3.4-3.8-7.1-7.7-10.7-12
					c-1.7-2.1-3.5-4.2-5.1-5.9c-0.7-1-1.9-1.7-3-2.6c-1.1-1.1-1.7-1-3.1-1.5c-9.3-3.1-20.5,0.5-29.5,4.1
					c-9.2,4.1-17.2,9.2-23.1,14.7c-2.8,2.9-5.6,5.4-7.3,8.2c-2.2,2.6-3,5.3-4.1,7.4c-0.9,2.2-1,4.2-1.3,5.4
					C103.9,58.1,103.8,58.8,103.8,58.8z"/>
			</g>
			<g>
				<path fill="#FF6666" d="M150.4,117.9c0,0-0.1-1.6-0.3-4.5c0.3-1.4,0.3-3.3,0.9-5.2c0.6-2,1.4-4.1,2.9-6.3
					c2.8-4.2,7.1-8.3,12.4-11.6c5.3-3.2,11.2-5.9,17.3-8.1c3.1-1,6.1-1.9,9.1-2.8c2.9-0.9,6.1-1.8,9-2.3c5.7-1.5,11.7-1.2,16.4-1.8
					c4.7-0.3,8.7-0.6,11.3-1.4c2.7-0.6,4.3-0.9,4.3-0.9c0-0.4-5.7,3.5-15.3,4.8c-4.8,1-10,1.4-15.8,3.1c-2.9,0.6-5.6,1.5-8.7,2.5
					c-2.9,1-5.9,2-8.9,3.1c-11.9,3.9-23.3,9.7-29.1,16.9C149.8,110.7,150.6,118.1,150.4,117.9z"/>
			</g>
			<g>
				<path fill="#FF6666" d="M65.7,131.2l0.9,4.9l0.1,5.1c-0.3,3.4-0.8,6.7-1.6,10l-0.7-0.9c3.8-0.9,6.8-4.2,9.7-7.1
					c3-3.1,5.7-6.3,9.1-9.3c3.8-2.8,7-4.9,11.3-6.7c4-2,8.2-3.1,12.5-3.9c8.8-1.5,17-1.9,25.5-2.9c3.8-0.9,9.5-0.2,13.2,1.4
					c3.9,1.3,8.2,2.7,11,1.9c0.1-0.1,1.8-1,2.1-1.4c0.4-0.6,1-1,1.5-1.9c1.1-1.6,2-3.5,3-5.4c1.8-3.6,4.1-8.5,7.9-11.1
					c3.1-2.8,6.9-5.2,10.9-7.5c4-1.9,8-3.6,12.3-4.7c4.4-1.3,8.5-1.5,12.7-2.3l12.6-1.9c8.5-0.7,17-1.1,25.5-1.4l-0.6,1.2
					c-1.1-1.3-2.3-2.7-3.7-3.7l-4.6-3c-2.7-2.6-5.3-5.2-7.9-7.7c2.8,2.3,5.6,4.8,8.4,7.1l4.8,2.7c1.6,1,3,2.3,4.3,3.7l1,1.1
					l-1.5,0.2l-25.2,2.7l-12.5,2.4c-4.1,0.9-8.6,1.4-12.3,2.6c-4,1.1-7.8,2.8-11.5,4.6c-3.4,2-6.9,4.2-10.1,7.1
					c-3.3,2.4-4.7,5.8-6.7,9.8c-0.9,1.9-1.9,4-3.2,6c-0.5,0.9-1.6,2.1-2.5,3.1c-1.2,1-1.4,1.1-3.2,2c-5.6,1.4-9.7-0.8-13.8-2
					c-4.2-1.6-7.1-2.1-11.7-1.4c-8.3,0.9-17.1,1.3-25.1,2.6c-4,0.6-8.2,1.6-11.9,3.2c-3.7,1.3-7.7,3.7-10.9,5.9
					c-3.2,2.5-6.1,5.7-9.3,8.7c-3.2,2.8-6.4,6.2-11.2,6.9l-1,0.2l0.3-1c0.9-3.2,1.7-6.4,2.2-9.7l0.3-5L65.7,131.2z"/>
			</g>
			<g>
				<path fill="#FF6666" d="M18.5,70.5c-0.4,0.7-0.9,1.5-1.2,2.2c0,0.9-0.2,1.5-0.2,2.4c0,0.9,0.1,1.7-0.1,2.6l-0.3,1.4
					c-0.1,0.5-0.4,1.1-0.6,1.4c-0.8,1.4-2.2,2.8-3.6,3.9c-1.3,1.1-2.4,2.2-3.3,3.3l-0.3-2c5.3,4.4,10.5,9,15.6,13.7
					c2.6,2.3,4.7,5.2,7,7.7l6.6,8.1c4.7,5.2,7.8,11.7,11.1,17.6c1.7,3,3.5,5.9,5.5,8.5c0.9,1.4,2.2,2.5,3.4,3.7
					c1.2,1.2,2.8,1.8,4.2,2.9c-1.5-0.7-3.4-1-4.8-2c-1.4-1-2.9-2-4.1-3.3c-2.7-2.3-4.6-5.3-6.7-8.1c-4.1-5.6-7.2-11.7-11.9-16.6
					l-6.7-7.7c-2.2-2.6-4.1-5.4-6.6-7.7C16.8,97.7,11.9,93,7.2,88l-1.1-1.1L6.9,86c1.3-1.5,2.7-2.6,4.1-3.5c1.2-1,2.5-1.7,3.6-3.1
					c0.4-0.4,0.5-0.5,0.6-0.9l0.4-1.1c0.4-0.7,0.3-1.6,0.5-2.4c0.1-0.8,0.4-1.8,0.7-2.6C17.3,71.7,18,71.1,18.5,70.5z"/>
			</g>
			<g>
				<path fill="#FF6666" d="M53.9,142c0,0,1.1,0.7,2.3,1.6c1.3,0.8,2.6,2.2,4.1,3.6c1.2,1.6,2.5,3.1,3.2,4.4c0.7,1.3,1.3,2.1,1.6,2
					c0.2,0.1-1.3,0.8-3,0c-1.7-0.5-3.4-1.9-5-3.4c-1.3-1.7-2.5-3.6-2.9-5.3C53.7,143.3,53.9,142,53.9,142z"/>
			</g>
			<g>
				<path fill="#FF6666" d="M8,88.8c-0.7-0.6-1.6-1.1-2.5-0.6l0.1-0.1c0.7,6.4,6,11,10,15.7c4.3,4.6,9.2,8.8,13.2,14
					c4.1,4.9,7.9,10.1,12.1,14.8l13,13.9c2.1,2.5,4.3,4.5,6.4,6.6c0.6,0.8,2.7,2,3.3,2.1c0.9,0.2,1.4,0.2,2.4-0.4
					c4.4-3.5,9.1-8.5,13.9-12.6c4.8-4.4,10.1-8.2,16.7-11.1c5.8-1.9,12.8-3.1,19.2-3.2c6.4-0.3,12.7-0.4,19.4,0.5
					c6.3,0.9,12.5,2.1,18.3,1.7c3.2-0.1,4.9-0.8,7.8-2.6c1.9-1.6,3.8-3.7,5.7-6.3c3.7-5,6.7-10.8,11.7-15.6c2.8-2.9,5.4-3.7,8.2-5.6
					c3-1.4,6.2-2.8,9.2-3.8c6.1-1.7,12.6-3.4,18.9-3.7c6.3-0.8,12.6-0.7,19.1-0.5c3.2,0.4,6.3,0.9,9.4,0.9c2.8,0.1,7-0.4,6.7-3.9
					l0.1,0.2l-3.4-1.9c-1.1-0.6-2.3-0.9-3.6-1c1.3,0,2.6,0.2,3.8,0.7l3.5,1.6l0.1,0.1l0,0.2c0.4,1.7-0.8,3.6-2.4,4.2
					c-1.6,0.7-3.2,0.9-4.8,1c-3.2,0.2-6.4-0.1-9.5-0.3c-6,0.2-12.4,0.7-18.6,1.7c-6.3,0.6-12.1,2.4-18.1,4.3c-2.9,1-5.5,2.3-8.2,3.7
					c-2.4,1.8-5.8,3.5-7.3,5.4c-4,4.2-7.1,9.9-10.9,15.2c-1.8,2.7-4.1,5.4-7.2,7.8c-2.3,1.6-6.7,3.5-9.9,3.4
					c-6.8,0.5-13.2-0.8-19.4-1.5c-5.9-0.8-12.3-0.5-18.4-0.3c-6.3,0.1-11.7,0.9-18.1,2.8c-4.9,2.2-10.3,5.6-14.9,9.8
					c-4.9,4-9,8.4-14.6,12.8c-1.6,1.2-4.5,1.7-6.6,0.9c-2.3-1-3.1-1.5-4.6-2.9c-2.4-2.5-4.8-4.9-6.7-7.4l-12.6-14.6
					c-4.2-4.9-7.7-10.2-11.6-15.3c-3.6-5.2-8.1-9.7-12.1-14.7c-3.8-5-8.8-10-9.1-16.7V88l0.1,0C6.5,87.5,7.3,88.1,8,88.8z"/>
			</g>
			<g>
				<path fill="#FF6666" d="M181.8,112.9c0.1-0.1-1.1,0.6,0.4,0.7c1,0.1,2.7,0.2,4.6,0.7c3.8,1,9.6,1.8,16,4.1
					c3.2,1.1,6.7,2.3,10.4,3.5c3.7,1.3,7.5,2.3,11.7,4.2c4,2,7.7,4,11.7,5.5c1.6,0.8,4.6,1.1,4.5,1.2c1.3-0.5,1.6-1.1,1.9-1.4
					c0.6-0.8,1.3-1.5,1.9-2.4c5.1-7.6,10.3-15.2,15.1-22.3c4.8-7.2,10-13.3,14.2-18.7c4.2-5.4,7.9-9.7,9.9-13.2
					c2.2-3.4,3.4-5.3,3.4-5.3s-0.9,2.1-2.5,5.9c-1.6,3.8-4.5,8.8-8.3,14.6c-3.9,5.7-8.2,12.5-12.8,19.7c-4.6,7.2-9.6,15-14.6,22.7
					c-0.7,1-1.5,2-2.4,3c-1.3,1.3-2.8,2.2-3.6,2.5c-2.6,0.6-3.7,0.2-5-0.1c-1.4-0.2-2.4-0.8-3.5-1.2c-4.4-1.8-8.3-4.1-11.9-6
					c-7.7-3.4-15-6.5-21.2-9.2c-6.2-2.9-11.5-4.6-15.2-6.1c-1.9-0.7-3.2-1.2-4.3-1.5C180.6,113.5,182,112.7,181.8,112.9z"/>
			</g>
			<g>
				<path fill="#FF6666" d="M196.9,38.8c1.6-1.5,3.3-3,4.8-4.6l3.8-5.3c2.3-3.8,4.8-7.4,7.8-11l0.4-0.5l1,0.3l10.6,2.8l11.1,1.9
					c2.1,0.4,3.7,1.1,5.6,1.6l5.4,1.7c3.6,1.1,7.2,2.2,10.7,3.8l10.5,4.5c3.2,1.2,7,2.4,10.5,3.6c7.1,2.3,14.4,4.8,21.4,7.4l2.5,1
					l-2.2,1.8c-2,1.7-3.8,3.7-5.3,6.2c-1.4,2.5-2.6,5.1-3.8,7.8c-1.2,2.7-2.5,5.4-3.8,8.1c-1.4,2.7-3.1,5.1-5.2,7.2
					c1.7-2.4,3-5,4.2-7.7c1-2.8,2-5.5,2.9-8.3c0.9-2.8,2-5.6,3.3-8.4c1.4-2.8,3.2-5.3,5.6-7.5l0.3,2.8c-7.2-2-14.2-4.3-21.4-6.5
					c-3.6-1.2-7.1-2.1-10.9-3.4l-10.2-4.4c-3.3-1.6-6.9-2.9-10.5-4l-5.3-1.8c-1.7-0.5-3.7-1.3-5.2-1.7c-3.7-0.7-7.3-1.4-11-2.3
					l-11-3.7l1.5-0.2c-2.9,3.1-5.7,6.4-8.4,10l-4.5,5C200.6,36.4,198.7,37.5,196.9,38.8z"/>
			</g>
			<g>
				<path fill="#FF6666" d="M212,127.9c-0.1,1.9-0.5,3.8-1.4,5.6c-0.9,1.7-2,3.3-3.3,4.8l-0.3-0.9c7.4,1.5,14.7,3.3,21.8,6.1
					c7,2.8,13.9,5.8,20.7,9c3.4,1.7,6.7,2.8,10.3,4.2l10.4,4.1c3.7,1.7,7,3.7,9.9,4.5c0.3,0.1,0.7,0.2,0.5,0.1
					c-0.2,0.1,0.3-0.1-0.4,0.3l0.6-0.4c1-0.6,1-1.1,1.5-1.6c0.9-1.1,2-2.8,2.9-4.3c3.8-6.2,7.3-13.3,11.4-19.6
					c4.1-6.4,7.9-12.9,11.7-19.4c7.6-13,15.2-26.2,23.1-39.2l1.4,2.7c-4.1-1-8.1-2.1-11.7-3.8c-3.8-1.5-7.3-3.4-10.9-4.8
					c-3.6-1.7-7.5-2.6-11.2-4.3c-1.9-0.6-3.6-1.9-5.3-2.9c-1.7-1.1-2.9-2.9-4.3-4.3c1.6,1.3,2.9,2.9,4.6,3.8
					c1.8,0.9,3.4,1.9,5.4,2.4c3.7,1.3,7.7,1.8,11.5,3.2c3.9,1,7.6,2.7,11.3,4c3.7,1.5,7.4,2.3,11.2,3l2.5,0.5l-1.2,2.2
					c-7.1,13.4-14.3,26.7-21.9,39.9c-3.7,6.7-7.5,13.3-11.5,19.8c-4.1,6.4-7.6,12.8-11.7,19.6c-1.1,1.7-2.1,3.2-3.6,5
					c-0.8,0.9-1.8,2-2.5,2.4l-0.6,0.4c-1.1,0.6-1.1,0.3-1.8,0.5c-1.2,0.1-1.6-0.1-2.2-0.3c-4.3-1.3-7.4-3.5-10.5-4.9l-10.4-4.3
					c-3.3-1.5-7.1-2.9-10.3-4.8c-6.6-3.6-13.3-6.9-20-10l-10.3-4.3l-10.6-3.5l-0.9-0.3l0.6-0.6c1.3-1.3,2.5-2.8,3.6-4.3
					C211.2,131.6,211.7,129.8,212,127.9z"/>
			</g>
		</g>
		<g>
			<path fill="#FF6666" d="M49.6,72.2c0,0,0.5-0.5,1.4-1.3c1-0.8,2.1-2.1,3.9-3.3c1.9-0.9,3.9-2.7,6.5-3.4c2.5-1,5.3-1.7,8.2-2.1
				c5.6-0.5,10.9-1.5,15.3-1c2.2,0.2,3.9,0.9,5,1.4c1,0.7,1.6,1.1,1.6,1.1s-2.6-1.4-6.7-1c-4,0.2-9.5,1.5-15,2.2
				c-5.4,0.3-10.4,2.5-14.2,4C52,70.8,49.6,72.2,49.6,72.2z"/>
		</g>
		<g>
			<path fill="#FF6666" d="M59.1,83.3c0,0,0.5-0.5,1.3-1.3c0.9-0.7,1.7-2.4,3.6-3.2c1.8-0.9,3.9-2.4,6.3-3.1
				c2.3-0.9,4.9-1.7,7.4-2.4c2.8-0.5,5.1-1,7.8-0.9c2.6-0.1,4.9,0.4,6.9,0.8c2,0.2,3.5,1.2,4.6,1.5c1.1,0.4,1.7,0.7,1.7,0.7
				s-2.6-0.5-6.5-0.6c-1.9-0.1-4.2-0.1-6.5,0.1c-2.2-0.1-5.1,0.7-7.4,1.2c-5.1,1.1-10,2.7-13.5,4C61.3,81.6,59.1,83.3,59.1,83.3z"/>
		</g>
		<g>
			<path fill="#FF6666" d="M65,90.7c0,0,1.2-1.3,3.2-2.8c2.1-1.5,5-3.1,8.1-4.4c3.2-1.1,6.6-2,9.3-1.6c3,0.2,3.6,2.6,3.5,2.4
				c0,0-1.2-1.5-3.6-0.8c-2.3,0.4-5.3,1.4-8.3,2.7C71.3,88.6,65,90.7,65,90.7z"/>
		</g>
		<g>
			<path fill="#FF6666" d="M74.1,97.6c0,0,0.4-0.9,1.4-1.9c1-1.1,2.5-2.1,4.2-3c1.8-0.6,3.8-1.1,5.4-0.4c1.6,0.5,1.8,1.9,1.9,1.7
				c-0.1,0.1-0.9-0.5-2.1-0.1c-1.1,0.2-2.6,0.8-4.1,1.5C77.8,96.6,74.1,97.6,74.1,97.6z"/>
		</g>
		<g>
			<path fill="#FF6666" d="M96.6,88c1.2,0.3,2.3,0.9,3.2,1.9c0.9,1,1.7,2,2.4,3l2.2,3c0.4,0.2,0.5,0.6,0.9,0.4
				c0.2,0,1.2-0.2,1.7-0.3c5-0.5,9.9-0.7,14.8-1.1l-1.3,1.5l-1.1-3l-2-2.9c-1.6-1.8-3.3-3.6-5.2-4.9c-1.8-1.3-4.3-1.2-6.8-1.4
				c-1.2-0.1-2.5-0.1-3.7,0c-1.2,0.1-2.5,0.2-3.4,1.2c0.7-1.2,2.1-1.5,3.3-1.8c1.2-0.4,2.5-0.5,3.8-0.7c1.3-0.1,2.6-0.1,3.9-0.1
				l2.1,0.2c0.5,0.1,1.4,0.3,1.9,0.7c2.5,1.3,4.3,3.2,6.1,5.2l2.4,3.3c0.6,1.3,1.1,2.8,1.5,4.2l0.5,1.5l-1.8,0.1l-14.8,0.4
				c-0.7,0-0.9,0.1-2,0.1c-1,0.2-1.7-0.7-2.2-1.3l-1.9-3.3c-0.6-1.1-1.1-2.2-1.8-3.2C98.7,89.4,97.8,88.6,96.6,88z"/>
		</g>
		<g>
			<path fill="#FF6666" d="M117,53.7l4.8,1.2c1.6,0.5,3,1.5,4.5,2.2c1.7,0.7,2.6,2.1,3.8,3.3c0.6,0.7,1.1,1.1,1.7,1.7
				c0.5,0.6,1.3,0.6,1.8,0.9l-0.7,0.5l1.5-3.3c0.4-1.2,1.4-2,2.1-2.9c1.4-2,3.4-3.3,5.2-4.9c3.9-2.7,8.2-4.7,12.5-6.3
				c8.6-3.3,17.5-5.7,25.9-9l-0.8,1.7l-2.3-3.6l-3.4-3.2c-2.5-1.9-5-3.8-7.8-5.4c-0.9-0.7-3-1.3-4-1.1c-1.2,0-2.8,0.4-4.2,1
				c-2.9,1.1-5.6,2.7-8.6,4.2c-6,2.7-11.6,5.5-16.8,9.3c-2.6,1.8-5.1,3.9-7.4,6.1c-2.3,2.3-4.2,4.9-5.8,7.8c1.4-3,3.1-5.8,5.3-8.3
				c2.2-2.4,4.6-4.7,7.1-6.8c5.1-4,11-7.2,16.7-10.1c2.8-1.5,5.6-3.3,8.7-4.5c1.6-0.6,3.2-1.2,5.1-1.2c2.3,0,3.3,0.3,5.2,1.4
				c2.9,1.6,5.6,3.5,8.2,5.6l3.7,3.5c1.1,1.4,2,3.1,2.9,4.6l0.7,1.2l-1.4,0.5c-8.8,3.4-17.6,5.6-26.2,8.7c-4.2,1.6-8.4,3.3-12.2,5.7
				c-1.7,1.3-3.7,2.5-5,4.3c-0.7,0.9-1.6,1.6-2,2.6l-1.5,3l-0.4,0.7l-0.4-0.2c-0.8-0.4-1.9-0.7-2.5-1.4c-0.6-0.6-1.2-1.3-1.7-1.9
				c-1-1.2-2-2.8-3.4-3.4c-1.4-0.8-2.7-1.8-4.2-2.4L117,53.7z"/>
		</g>
		<g>
			<path fill="#FF6666" d="M142.8,68.5c0,0,0.3-0.5,0.9-1.4c0.6-0.9,1.1-2.3,2.5-3.6c2.4-2.9,6.3-5.9,10.6-8.3c4.4-2,9-3.6,12.6-4.1
				c3.6-0.6,6-0.5,6-0.5s-9.1,3.1-17.3,7.2c-4.2,2-8,4.6-10.7,6.8C144.5,66.8,142.8,68.5,142.8,68.5z"/>
		</g>
		<g>
			<path fill="#FF6666" d="M145.8,74c0,0,1.2-1.7,3.2-4.2c1.1-1.1,2.1-2.7,3.6-3.9c1.6-1.2,3.4-2.4,5.1-3.7
				c3.6-2.5,7.4-3.8,10.5-4.7c3.2-1,5.4,0.3,5.3,0.3c0,0-0.6-0.1-1.4-0.1c-0.9,0.1-2,0.6-3.4,1.2c-2.5,1.5-6.5,3.2-9.6,5.7
				c-3.4,2-6.7,4.2-9.1,6.3C147.6,72.8,145.8,74,145.8,74z"/>
		</g>
		<g>
			<path fill="#FF6666" d="M151.5,82.2c0.1,0.1-0.2-2.3,2.1-4.9c2-2.6,5.9-4.7,8.9-7c3.3-2.4,6.8-4.9,10.1-5.5
				c3.4-0.8,5.2,1.1,5.1,0.9c0,0-2.1-0.8-4.7,0.6c-2.6,1.2-5.7,3.6-8.9,6.2c-3.6,2.4-7.2,4-9.5,5.9
				C152.3,80.1,151.5,82.2,151.5,82.2z"/>
		</g>
		<g>
			<path fill="#FF6666" d="M158.6,84.3c0.1,0.1,0.4-1.4,1.7-3.2c1.3-1.9,3.4-3.7,5.7-5.5c2.5-1.5,5.1-2.8,7.3-3.1
				c2.1-0.5,3.7,0.3,3.6,0.1c0,0.1-1.4,0.3-3.1,1.4c-1.8,0.9-4,2.4-6.2,3.9c-2.2,1.4-4.5,3-6.1,4.2
				C159.7,83.4,158.6,84.3,158.6,84.3z"/>
		</g>
		<g>
			<path fill="#FF6666" d="M225.2,39.5c0,0,2.7,1.1,6.6,2.6c4,1.2,9.3,2.5,14.9,4.2c5.6,1.8,10.3,5,14.2,6.7
				c3.8,1.9,6.3,3.3,6.3,3.3s-2.7-0.6-6.9-1.9c-4.2-1-9.2-4-14.5-5.5c-2.6-1-5.3-1.8-7.9-2.6c-2.5-0.8-4.9-2-6.9-2.9
				c-1.9-1-3.2-2.2-4.3-2.9C225.8,39.9,225.2,39.5,225.2,39.5z"/>
		</g>
		<g>
			<path fill="#FF6666" d="M242.3,58.5c0,0,1.5-0.1,3.7-0.1c2.2-0.2,5,1.1,7.8,2.1c2.5,1.3,5.1,2.6,7,3.5c1.9,1,3.2,1.8,3.2,1.8
				s-1.4,0-3.7-0.3c-2.3-0.2-4.9-1.4-7.6-2.4c-2.5-1-4.9-2.5-7-3.1C243.6,59.2,242.3,58.5,242.3,58.5z"/>
		</g>
		<g>
			<path fill="#FF6666" d="M278.1,84.9c0,0,1.7,0.3,4.2,1c2.4,0.9,5.7,1.3,8.8,2.2c3.3,1.1,6.6,1.8,8.8,3.4c2.2,1.4,3.6,2.4,3.6,2.4
				s-1.8-0.3-4.2-0.9c-2.3-0.8-5.7-1.3-8.9-2.1c-3.3-1.1-6.8-1.9-8.8-3.5C279.5,85.9,278.1,84.9,278.1,84.9z"/>
		</g>
		<g>
			<path fill="#FF6666" d="M271.9,98.6c0,0,1.5-0.3,3.7-0.5c2.2-0.4,5.2,0.6,8.2,1.1c2.8,1.2,5.6,2.2,7.4,3.7
				c1.8,1.5,2.8,2.5,2.8,2.5s-1.5-0.4-3.5-1.1c-2-0.8-4.8-1.5-7.5-2.4c-2.7-0.6-5.2-1.9-7.5-2.2C273.3,99.1,271.9,98.6,271.9,98.6z"
				/>
		</g>
		<g>
			<path fill="#FF6666" d="M268.1,117.6c0,0,3.7-0.2,6.8,1.1c3.2,1.1,5.7,3.7,5.7,3.7c0,0-3.7,0.2-6.8-1.1
				C270.7,120.2,268.1,117.6,268.1,117.6z"/>
		</g>
		<g>
			<path fill="#FF6666" d="M268.1,130.3c0-0.1,2.5,0.4,3.6,0.7c0.8,0.4,1.6,0.8,2.2,1.3c0.6,0.6,0.9,1.1,0.9,1.1c0,0-2.2,1-4.1,0.2
				c-1-0.6-2.1-1.2-2.2-2C268.2,130.9,268.1,130.3,268.1,130.3z"/>
		</g>
		<g>
			<path fill="#FF6666" d="M175.2,118.9c6,0.7,11.8,1.9,17.6,3.5c2.9,0.9,5.7,1.9,8.5,2.9c2.8,1.1,5.4,2.7,8.1,4l1,0.5l-1.1,0
				c-6.5-0.2-12.9-0.8-19.3-1.8l-9.6-1.1h-9.6l0-1c6.5,0.9,12.9,2.3,19.3,4l9.4,3.1c3,1.3,6,2.8,9,4.2l1.8,0.8l-1.9,0.5l-6.2,1.7
				l-6.4,0.4c-4.2-0.3-8.4-0.9-12.5-1.8l-12.2-2.8c-4.1-0.8-8.2-1.2-12.3-1.2l0.1-1.8l25,6.1l24.2,8.6l24.1,8.6
				c8.2,2.1,16.5,4,24.7,6l8.4,2l-8.4,0.2l-8.6,0.2c-2.9,0.2-5.7-0.3-8.5-0.5c-5.7-0.3-11.3-1.6-16.9-2.5c-11.1-2.5-22.1-5.6-32.9-9
				c-11-3.2-21.4-7-32.7-8.9c-11-1.7-22.3-2-33.6-3.2l0.1-2.9c6,0.1,11.9,1.1,17.6,2.6c5.7,1.5,11.2,3.2,16.8,4.5l34,7.8
				c5.7,1.4,11.3,2.4,17,4.1c5.6,1.7,11.2,3.2,16.6,5.5l16.3,6.2c5.4,2.3,11.1,3,16.6,4.5l-0.5,2.4c-5.4-0.7-10.6-1.6-16.3-1.8
				c-5.6,0-11.1-1.4-16.5-2.4c-10.9-1.9-21.7-4.4-32.6-6.6l-32.6-6.7l-16.3-2.6l-16.5-0.4l0.1-1.8l21.8,5l21.1,7.1l21,7.3l21.4,5.5
				l2.5,0.6l-2.4,0.5c-3,0.6-6,1.4-9,1.8c-3,0-6.1,0.2-9.1-0.1c-6-0.6-12-1.7-17.9-3.1c-5.9-1.4-11.8-2.8-17.7-4l-9-1.3l-9.1-0.2
				l0-0.1c1.3,0.9,2.5,1.8,3.8,2.6l4.4,1.5l-4.4-1.5c-1.3-0.8-2.6-1.7-3.9-2.5l-0.2-0.1h0.2l9.1,0l9,1.2c5.9,1.2,11.9,2.4,17.8,3.7
				c5.9,1.3,11.9,2.3,17.9,2.8c3,0.2,6-0.1,9-0.1c3-0.4,5.8-1.2,8.8-1.9l0.1,1.1l-21.7-5.3l-21.1-7.1l-21.1-7l-21.6-4.9l-8.5-1.9
				l8.6,0.1l16.8,0.3l16.5,2.5l32.6,6.6c10.8,2.1,21.7,4.5,32.6,6.4c5.5,0.9,10.8,2.3,16.4,2.3c5.4,0.1,11.1,1.1,16.7,1.8l-0.5,2.4
				c-5.7-1.5-11.7-2.3-17.1-4.5l-16.4-6.1c-5.3-2.2-11-3.7-16.5-5.4c-5.5-1.6-11.3-2.6-16.9-4l-34-7.6c-5.7-1.2-11.4-3-16.9-4.4
				c-5.6-1.5-11.2-2.4-16.8-2.6l0.1-2.9c11.1,1.2,22.5,1.6,33.9,3.4c11.2,1.9,22.1,6,32.8,9.1c10.8,3.4,21.7,6.5,32.6,9
				c5.5,0.9,11,2.3,16.6,2.6c2.8,0.2,5.6,0.7,8.4,0.6l8.4-0.1l-0.1,2.2c-8.3-2.1-16.7-4-25-6.2l-24.1-8.8l-24.1-8.7l-24.7-6.2
				l-7.2-1.8l7.3,0.1c4.3,0,8.5,0.5,12.6,1.3l12.2,2.9c4.1,0.9,8.1,1.6,12.2,1.8l6.1-0.3l5.9-1.6l-0.1,1.4c-2.9-1.4-5.8-2.8-8.8-4.2
				l-9.2-3.2c-6.3-1.8-12.6-3.2-19.1-4.2l0-1l9.8,0.1l9.6,1.2c6.4,1.1,12.8,1.8,19.2,2.1l-0.1,0.5c-2.7-1.3-5.2-3-8-4.1
				c-2.8-1-5.6-2.1-8.5-3C187,121,181.2,119.7,175.2,118.9z"/>
		</g>
		<g>
			<path fill="#FF6666" d="M178.4,115.7c2.7,1.5,5.5,2.6,8.5,3.3l8.9,1.8c3,0.6,6,1.4,8.9,2.5l4.1,2.2l3.6,3.1l0.8,0.7l-1.1,0.1
				c-2.9,0.3-5.8,0.1-8.6-0.5c-2.8-0.7-5.5-1.6-8.1-2.6c-2.6-1.1-5.2-2.1-7.9-2.9c-2.6-0.8-5.3-1.3-8-1.4l0.2-1.6l15.8,4.4l15.2,6.6
				l4.6,2l-5-0.2l-9.9-0.3l-9.6-2c-6.2-1.8-12.5-3.2-18.7-4.1l0.5-2.2c6.4,1.9,12.6,3.9,19.2,5.7c3.3,0.9,6.5,1.8,9.7,2.8
				c1.6,0.5,3.2,1,4.9,1.8c1.7,0.5,3.1,1.8,4.7,2.8l4,2.6l-4.7-0.2l-10.8-0.4L189,137c-6.8-2-13.6-3.8-20.3-5.6l1-2.7l11.4,4.9
				c3.7,1.9,7.9,2.5,11.8,3.7c4.1,1.1,8,2.2,12.2,2.7c4.1,0.5,8.4,1.2,12.5,3l3,1.3l-3.1,0.9c-10,2.9-19.8-0.2-29-2.5
				c-4.6-1.3-9.3-2-14.1-2.8c-4.8-0.8-9.5-1.9-14.3-2.9l0.3-1.8l21.9,3.2c7.4,0.9,14.5,2.7,21.7,4.3c7.2,1.6,14.3,3.5,21.6,4.8
				c7.2,1.3,14.4,3.3,21.5,5l0,0c0.1,0.7-0.5,0.7-0.9,1c0.4-0.3,1-0.3,0.9-1l0,0c-7.2-1.6-14.3-3.3-21.7-4.4
				c-7.3-1.1-14.5-2.8-21.7-4.2c-7.2-1.4-14.4-3.2-21.7-4l-21.8-3l0.3-1.8c4.7,0.9,9.3,2,14.1,2.7c4.7,0.7,9.6,1.3,14.3,2.6
				c9.2,2.3,18.9,5.1,27.8,2.3l-0.1,2.2c-3.7-1.5-7.6-2.3-11.9-2.7c-4.2-0.4-8.3-1.5-12.4-2.6c-4.1-1.2-8.3-1.8-12.1-3.7l-11.8-5
				l1-2.7c6.9,1.7,13.8,3.6,20.4,5.6l10.2,2.3l10.2,0.5l-0.8,2.4c-1.3-0.8-2.4-1.9-4-2.4c-1.4-0.7-3-1.2-4.6-1.7
				c-3.2-1.1-6.4-2-9.6-2.9c-6.4-1.7-12.9-3.9-19.4-5.9l0.5-2.2c6.5,1.1,12.8,2.6,19,4.4l9.3,2l9.4,0.4l-0.4,1.8l-14.8-6.6
				l-15.6-4.4l-6.9-2l7.1,0.3c2.9,0.1,5.8,0.7,8.5,1.6c2.7,0.9,5.3,2,7.9,3.1c2.6,1.1,5.2,2,7.9,2.8c2.7,0.7,5.4,0.9,8.2,0.7
				l-0.3,0.8l-3.3-3l-3.9-2.2c-2.8-1.1-5.7-2-8.7-2.6l-8.9-2C183.9,118.5,181.1,117.3,178.4,115.7z"/>
		</g>
		<g>
			<path fill="#FF6666" d="M107.7,137.9c6.3-0.1,12.6-1.2,18.8-2.2l18.7-3.1c6.3-0.9,12.5-1.8,18.9-2.2c3.2-0.1,6.4-0.2,9.6,0.1
				c1.6,0.4,3.2,0.3,4.8,1c1.6,0.4,3.1,1.4,4.5,2.5l1.3,1.1l-1.6,0.4c-3.5,0.9-6.9,2.2-10.5,2.9c-3.6,0.3-7.1,0.7-10.7,0.9
				c-7.1,0-14.2-0.3-21.3-0.7c-7.1-0.4-14.1-0.6-21-0.1c-1.8-0.1-3.4,0.5-5.1,0.8l-5.1,1c-1.7,0.3-3.1,1.3-4.7,1.9l-4.7,2.1
				l-0.8-2.4l41.2-3.1l20.6-1.7c3.4-0.4,7-0.1,10.5-0.2c3.5,0,7.1,1.1,10.6,1.7l4.4,0.7l-3.9,2.2c-1.9,1.1-3.8,2.6-5.9,3.1
				c-2,0.8-4.1,1.4-6.1,1.7c-4.1,0.9-8.2,1.4-12.3,1.7c-8.3,0.5-16.2,1-24.5,1.2L84.4,150V147l27.8-0.7c4.6,0,9.3-0.6,13.9-0.9
				l13.9-1.2c9.3-0.6,18.4-1.9,27.7-3.3c4.6-0.6,9.3-1.2,14-1.3c4.7-0.3,9.5,0.2,14.2,1.6l1.5,0.5l-1.2,1.1
				c-2.9,2.6-6.3,3.7-9.6,4.8c-3.4,1-6.8,1.7-10.2,2.3c-6.9,1.1-13.8,1.7-20.7,2.1c-6.9,0.4-13.9,0.4-20.8,0.1
				c-6.9-0.3-13.9-0.7-20.6-2.6c6.7,1.8,13.7,1.9,20.6,2.1c6.9,0.1,13.8-0.2,20.7-0.7c6.9-0.5,13.7-1.3,20.5-2.6
				c3.4-0.7,6.7-1.4,10-2.4c3.2-1.1,6.5-2.3,8.8-4.4l0.3,1.6c-2.2-0.4-4.3-1.3-6.6-1.2c-2.3-0.2-4.6-0.3-6.9-0.1
				c-4.6,0.2-9.2,0.8-13.8,1.4c-9.1,1.4-18.5,2.8-27.8,3.5l-13.9,1.3c-4.6,0.4-9.2,1-13.9,1.1l-28.1,1V147l48.9-1.2
				c8-0.2,16.3-0.8,24.3-1.4c4-0.3,8-0.7,11.9-1.5c2-0.3,3.8-0.9,5.7-1.5c2-0.5,3.3-1.7,5-2.5l0.5,2.9c-3.2-0.5-6.3-1.6-9.7-1.6
				c-3.4,0-6.7-0.3-10.1,0.1l-20.5,1.5l-41.1,2.7l-7.1,0.4l6.3-2.9l5-2.3c1.7-0.7,3.3-1.7,5.1-2l5.3-1c1.8-0.3,3.5-0.8,5.3-0.7
				c7.2-0.4,14.3-0.1,21.3,0.3c7.1,0.5,14.1,0.9,21.1,0.9c3.5-0.1,7-0.5,10.4-0.8c3.4-0.7,6.7-1.8,10-2.6l-0.3,1.5
				c-1.1-0.9-2.2-1.7-3.7-2.1c-1.3-0.6-3-0.6-4.4-1c-3.1-0.4-6.2-0.4-9.3-0.4c-6.3,0.2-12.6,0.9-18.8,1.7l-18.8,2.6
				C120.3,137,114,138,107.7,137.9z"/>
		</g>
	</g>
</g>
</svg>
