<?xml version="1.0" encoding="utf-8"?>
<!-- Generator: Adobe Illustrator 19.1.0, SVG Export Plug-In . SVG Version: 6.00 Build 0)  -->
<svg version="1.1" id="Layer_1" xmlns="http://www.w3.org/2000/svg" xmlns:xlink="http://www.w3.org/1999/xlink" x="0px" y="0px"
	 viewBox="0 0 129.2 60.7" enable-background="new 0 0 129.2 60.7" xml:space="preserve">
<g>
	<g>
		<g>
			<path fill="#B1648A" d="M100.5,51.8c0.3,0.1,0.8,0.1,0.7-0.3l-1-0.2L100.5,51.8z"/>
			<path fill="#B1648A" d="M102.3,49.5c-0.5-0.4-1.3-0.9-2.2-0.6c1,0.4,0.6,0.5,1.7,0.9c0.1,0.3-0.3,0.6-0.7,0.5
				c0.3,0.1-0.2,0.5,0.4,0.7c0.8-0.5,0.8-1,0.2-1.6C101.9,49.3,102.2,49.4,102.3,49.5z"/>
			<path fill="#B1648A" d="M103.9,15.6c0,0-0.1,0.2-0.1,0.2C103.8,15.8,103.9,15.7,103.9,15.6z"/>
			<path fill="#B1648A" d="M86.3,8.8c0.2,0,0.2-0.1,0.2-0.2C86.4,8.7,86.3,8.8,86.3,8.8z"/>
			<path fill="#B1648A" d="M82.8,7.7c0.1,0,0.1,0,0.2,0.1C82.9,7.7,82.8,7.7,82.8,7.7z"/>
			<path fill="#B1648A" d="M103.9,15.6l0.3-0.8C103.9,14.8,104,15.2,103.9,15.6z"/>
			<path fill="#B1648A" d="M99.9,44.8c0,0.1,0.1,0.2,0.3,0.3c0-0.1-0.1-0.2-0.1-0.3C100,44.8,100,44.8,99.9,44.8z"/>
			<path fill="#B1648A" d="M104.7,24.8l0,0.2c0.1,0.1,0.2,0.1,0.4,0.1L104.7,24.8z"/>
			<path fill="#B1648A" d="M104.8,31.9c0-0.2-0.8-0.2-1.2-0.3c0.3,0.1,0.5,0.2,0.6,0.3C104.4,32,104.6,32,104.8,31.9z"/>
			<path fill="#B1648A" d="M103.4,43.2l0.1,0.2C103.4,43.3,103.4,43.3,103.4,43.2z"/>
			<path fill="#B1648A" d="M104.9,19.8c0.1,0,0.2,0,0.3-0.1C105.1,19.7,105,19.7,104.9,19.8z"/>
			<path fill="#B1648A" d="M94.3,47.8c0,0.1,0,0.1,0,0.2C94.3,47.9,94.3,47.8,94.3,47.8z"/>
			<path fill="#B1648A" d="M102.5,52l-0.1,0c0,0.2,0,0.3,0,0.5L102.5,52z"/>
			<path fill="#B1648A" d="M76.2,6.7C76.2,6.7,76.2,6.7,76.2,6.7C76.4,6.6,76.3,6.6,76.2,6.7z"/>
			<path fill="#B1648A" d="M20.7,18.9c0.8-0.7,1,1.1,1.8,0.1C22.1,19.1,21.1,18,20.7,18.9z"/>
			<path fill="#B1648A" d="M100.1,44.6c0-0.1,0-0.2,0-0.3C100,44.4,100,44.5,100.1,44.6z"/>
			<path fill="#B1648A" d="M22.5,19L22.5,19l0.1-0.1C22.5,18.9,22.5,18.9,22.5,19z"/>
			<path fill="#B1648A" d="M61.1,7.2c0,0.1,0.1,0.3,0.2,0.4C61.3,7.5,61.2,7.3,61.1,7.2z"/>
			<path fill="#B1648A" d="M72.4,8.4l-0.3-0.1C72.2,8.3,72.3,8.4,72.4,8.4z"/>
			<path fill="#B1648A" d="M55.3,8.4c-0.2-0.1-0.2-0.2-0.4-0.1c0,0,0,0.1,0.1,0.1C55,8.3,55.1,8.2,55.3,8.4z"/>
			<path fill="#B1648A" d="M49.2,8.4c0,0.1,0.1,0.1,0.1,0.2c0.1,0,0.1,0,0.2,0L49.2,8.4z"/>
			<path fill="#B1648A" d="M75.8,48.2c0.1,0.2,0.2,0.5,0.3,0.8C76,48.4,76.9,48.2,75.8,48.2z"/>
			<path fill="#B1648A" d="M100.4,44.8c-0.2,0-0.3-0.1-0.4-0.2c0,0.1,0,0.1,0,0.2C100.2,44.8,100.3,44.8,100.4,44.8z"/>
			<path fill="#B1648A" d="M55,15l-1-0.1C54.3,15,54.7,15,55,15z"/>
			<path fill="#B1648A" d="M32.2,48.4l0.2-0.1C32.3,48.2,32.2,48.3,32.2,48.4z"/>
			<path fill="#B1648A" d="M51.2,15c-0.2-0.3-0.4-0.5-0.5-0.6c0,0.1-0.1,0.1-0.1,0.2L51.2,15z"/>
			<path fill="#B1648A" d="M76.1,49L76.1,49L76.1,49z"/>
			<path fill="#B1648A" d="M82.4,47c-0.9,0-0.4,1.1-0.6,1.7c-1.1,0.3-0.5-0.8-0.9-1.4c-0.7,0.3-1.2,1.3-1.7,1.3c0-0.2-0.1-0.2,0-0.5
				c-0.7,0.9-2.2,0-3,1.2c-0.1-0.1-0.1-0.2-0.1-0.3c0.1,0.6,0.2,1.1,0.1,1.5c-0.4,0-0.8,0.7-0.9,0c0.3,0,0.3-0.3,0.4-0.5l-0.4,0.3
				c-0.4-1,0.6-0.4,0.6-1.1c-0.8,0.3-1.8,1.2-2.5,0.9c-0.1-1,1.5-0.3,0.6-1.2l1,0.4c-0.8-1.6,0.6,0.1-0.1-1.6
				c-1.3-0.3-1.5,0.5-2.8,0.2c-0.3,0.6,0.1,0.8-0.2,1.4c-1.9,1-1.5-2.6-2.8-1.2c-0.4,0.7-0.5,2-1.5,1.3l0.3-1.2
				c-1.3-0.1-0.7,1.7-2.1,0.9c0.2-0.5,1-0.4,0.8-0.5c-0.9-0.9-0.6,0.7-1.3,0.7l-0.1-1c-1.4,0.2-2.8,0.9-4.4,1.1
				c0.1-0.3,0.3-0.6,0-0.9c-1.9,0.5-4-0.1-5.9-0.7l-0.7,0.9c-0.2,0-0.3-0.4-0.1-0.6c-0.7-0.3,0,0.6-0.4,0.9
				c-0.4,0.1-0.5-0.5-0.3-0.8c-1.3,0.7-3.6,1.6-4.9,0.7l0.3-0.3c-1-0.4-1.2,1.8-2.1,1l0.2-0.2c-2.2-0.4-4.7,0.4-6.4-0.9
				c-0.3,1.3-2.2-0.6-2.4,1.2c-1.3-0.9-0.9-1.2-2.7-1.8c-0.5-0.1-0.7,1.1-1.3,1.3l0-0.9l-0.8,1L33,48l-0.6,0.2
				c0.2,0.1,0.5,0.4,0.4,0.7c-0.9,0.4-2.1-0.6-2.1-1.1c0,0-0.5,0.2-1,0.4c-0.2,0.1-0.5,0.2-0.7,0.3c-0.1,0.1-0.1,0.1-0.1,0.1
				c0.1-0.4,0.1-0.5,0.4-0.7C29.2,48,29,48.1,29,48.1c0,0,0,0,0,0c0,0,0-0.2,0-0.3c0-0.3,0.1-0.5-0.1-0.1c0,0.2-0.1,0.6-0.2,0.7
				c-0.1-0.6-0.2-0.6-0.6-0.3l0.5-0.6c0-0.1-0.1,0-0.2,0c-0.1,0-0.3-0.1-0.3-0.3c-0.3,0.2-1.4,0.7-1.5,0.4c0,0,0.2-0.1,0.5-0.2
				c0.2-0.1,0.5-0.2,0.5-0.2c-0.6,0-0.4,0.3-1.1,0.2c0.1-0.4,1.1-0.3,1.4-0.3c0,0-0.3-0.1-0.3-0.2c0.3,0,0.4,0,0.8,0
				c-0.2,0-0.2,0-0.1,0c0,0,0.2-0.3,0.3-0.4c0.2-0.4,0.3-0.7-0.2-1l0.3,0c0-1.7-0.3-2.5-0.4-3.9c-0.8,0-0.7-0.6-1.3-1
				c0.3-1,0.9-2.2,0.9-3.4c-0.4-0.9-0.7-0.3-1.2-0.6c0.8-0.1,0.7-1.3,1.2-0.7c-0.1-1.5-0.2-1.9-0.8-3.8c-0.3,0.2-0.5,0.4-0.7,0.3
				c-0.1-0.3,0.3-0.8,0.7-0.7l0.1,0.1c-1.2-2.1,2.2-4.9,0.6-6.5l0.1,0.1l-0.8-1.7c0.1-0.8,0.6,0.5,1.1-0.1c-1.3-1.9,0.2-3-0.7-4.5
				c1.1-0.6,1.1-1.7,1-2.8l-0.1-0.4l0-0.2l0,0c0,0-0.1-0.1,0-0.2c0-0.1,0.1-0.2,0.5,0l-0.5-0.3c-0.5-0.4,0.3,0.1,0.4,0.1
				c-0.4-0.3-0.5-0.2-0.8-0.5c-0.1-0.2-0.2-0.5-0.2-0.6c0.4,0,1.1,0.2,1.4,0.6l0.1,0.1c0,0,0.2,0,0.2,0.1l0.6,0.1l1.1,0.2
				c0.8,0.2,1.5,0.3,2.3,0.4c1.3,0.1,0.8-2.8,2.4-1.5l-0.5,1c2.7-1.2,5.5,0,8.1-1c-0.2,0.2-0.2,0.5-0.4,0.5c0.6,0.7,2,0,2.1-0.6
				c0.4,0.1,0.1,0.5,0.3,0.8c0.6,0.4,1.4-0.9,1.7-0.2c0.1,0.1-0.2,0.2-0.3,0.3c0.4-0.3,1.7,0.1,1.3-0.7c1,0.4,1.9-0.4,2.7,0.1
				c0.5-0.9,1.7,0.4,1.8-0.9c-0.1,1.4,1.7,1.1,2.3,0.5c-0.2,0.4,0.5,0.4,0.3,1c0.7,0,1.4-0.3,1.2-1c1.3,1.6,2.6-1.3,3.4,0.8
				c2.1-0.7,4.1-1.2,5.9-1.5c-0.1,1.4-2.1,0.1-2,1.6c1.8-0.6,2.8-1.7,4.6-1.4c0.5,0.2-0.3,0.6-0.4,0.8c1.8-0.6,3.5,0.1,5.1-0.6
				c0,0.1-0.2,0.3-0.3,0.4c0.3,0,0.7,0.2,0.7-0.4L73,13.8c-0.5-0.9,1.3-1.9,1.3-2.3c-0.5,1.8,1.6,0.4,0.7,2.7
				c0.2-0.1,0.5-0.4,0.4-0.8c0.3,0.1,0.4,0.4,0.1,0.8c1.1-0.3,0.7-1,1.7-1c0,0.3-0.2,0.4-0.3,0.8c0.5-0.6,1-1.2,1.9-0.9
				c-0.1,0.2,0,0.4-0.2,0.4c1.5-0.1,2.5-1.5,4.2-1c-0.5,1.3,0.6,0.4,0.6,1.5l0.9-0.3L84,13.1c0.8,0,1.4-0.8,2.1-0.4l-0.6,0.5
				l1.4-0.2l-0.8-0.4c0.8-0.6-0.1-1.4,0.9-1.1c-0.2,0.1,0.8,0,1.2,0.7l0,0c0.4-0.4,0.8-0.7,1.3-0.5c0.1,0.4-0.1,1.2,0,1.5
				c0.4-0.9,1.8-0.3,2.3-1.3c-0.2,0.2-0.2,0.8-0.1,0.9L92,12c0.4,0.2,0.4,0.4,0.3,0.8c1.1,0.1-0.3-1.4,0.9-0.8
				c-0.1,0.1-0.1,0.2-0.3,0.3c1.3,0.3,2.5-0.5,3.6-0.1c0.3,1.1-1,0.3-0.6,1.2c0.4-0.1,0.9-0.2,1.3-0.3l0.3-0.1l0.2-0.1
				c0.1-0.1,0.3-0.1,0.4-0.2c0.6-0.3,1.3-0.5,1.8-0.4l-0.1-0.1c0.5-0.7,0.7-0.6,0.8-0.4c0.1,0.2,0,0.6,0.2,0.6c0,0.1,0,0.1,0.1,0.1
				c-0.1,0-0.9,0.7-0.7,0.5c-0.3,0.8,0.4,0.8,0.9,2.1l-0.4-0.1c-0.1,0.1-0.1,0.2-0.2,0.4c0,0.1,0,0.1,0,0.2l0,0.3
				c0,0.4,0,0.9-0.1,1.2c0.4,0.2,0.3,0.6,0.9,0.4c-2.3,2.2,1.2,4.2-0.7,6.1c0-0.2-0.4-0.6-0.4-0.4l0.4,1.7c0.7-0.1,0.4-0.2,1-0.6
				c0.4,0.2,0.7,0.7,0.7,1.1c-0.5-0.7-1.1,0-1.5,0.3c0.2-0.1,0.4,0.1,0.7,0c-1.2,0.9,1.4,0.1,0.6,1.3l-0.4-0.1
				c0.2,0.4,0.7,0.9,0.6,1.3c-0.8,0.2-0.4-0.5-1-0.5c0,0.7,1.5,1.3,0.7,1.9c-0.2-0.3-0.2-0.7-0.4-1c-0.9,0.7-0.7,0.7-0.9,1.2l0,0
				l-0.4,1.1l0.3-0.3c2.1,0.8,0.4,1.7,1.8,2.8c-1.3-1.1-0.8-0.2-1.7-0.3c-0.3,0.3-0.5,0.7-0.8,0.6c0.7,0.5-0.6,0.9,0.5,1.6
				c-0.3,0,0,0.6-0.8,0.5c0.2,0.7,0.5-0.2,0.9-0.1c1,1.1-1.2,2.5,0.2,4.1c0.6,1.3,1.6,1.6,2,2.8c-0.5,0.4-1.1-0.3-1.1-0.3
				c-0.4,0.7-0.4,1.2,0,1.8c-0.3-0.1-0.5,0-0.8,0.2c0.1,0.5,1.1,0.3,0.6,1c-0.3-0.1-0.8-0.3-1.2-0.5c0.3,0.6,0.8,1.2,1.1,1.8
				c-0.5,0.2-0.8-0.4-1.1-0.6c0.2,0.7,0.5,1.8,1.3,2l0.3-0.4c0,0.3-0.7,0.1-0.8-0.1c-0.6-0.6,0.3-0.9,0.6-0.9l0.2,0.4
				c1.7-0.5-0.3-1.8-0.2-2.7l1.2,0.4l-1-0.9c0.3-0.2,1-0.3,1.2,0.1c0.6-0.6-0.4-0.6,0.2-1.1c0.1-0.1,0.2,0,0.2,0l-0.4-0.6
				c0.3,0.1,0.9-0.1,0.7,0.3c0.7-1.1-0.9-1.8,0-2.2l0.1,0.1c-0.4-1.5-0.9-0.1-2-1.3l2.3-0.8l-0.9-0.2c0-0.2,0.1-0.5,0.5-0.4
				c-0.6-0.6-0.4,0.1-1-0.2c0.8-0.8-0.4-2.1,1.1-2.3c-0.7-0.3-0.5,0.7-1-0.1c1.6-0.2-0.3-0.9,0.5-1.7c0.8,0.2,0.4,0.9,1.1,0.2
				c-1.4-0.4,0.3-1.4,0-2c-1.1,0-0.5-1.3-0.8-2.3c0.4,0.1,0.6-1.9,1-2.8l0.2,0c-1.1-0.2-0.9-1.1-1.1-1.8c0.7,0,0.9,0.2,1.2,0.5
				l0-0.7c-0.4-0.2-0.5-0.4-0.7-0.8l0.8,0.2c0-0.9-1-1.7-0.4-2.9c-0.8-0.1-2.1,0.9-2.7-0.3c0.4,0,1.1-0.1,1.3,0.2
				c-0.1-0.1-0.3-0.4-0.2-0.6l0.7,0.5c0.3-0.5-0.6-0.3-0.5-0.7c0.6,0,0.4-0.3,0.9-0.2c0.1,0.1-0.2,0.4,0,0.5c0.1-0.5,0.5-1,0.9-1.2
				c-0.3,0-0.8,0-0.9-0.3c0-0.9,0.7-0.3,1-0.8c-0.4-0.2,0-0.8-0.9-0.8c0-0.3,0.4-0.3,0.7-0.4c-0.4-0.4-0.1-2.1-1.1-1.6l-0.1,0.1
				c0,0,0,0,0-0.1v0v0c-0.4-0.8-0.3-1.7-0.1-2.7c0.2-1,0.4-2.2,0.2-3l0.3-0.3c-0.1-0.2-0.1-0.4-0.2-0.6c-1.1,0.1-2.1,0.2-2.9,0.7
				c-0.3,0-0.4-0.5-0.1-0.9c-1,0.2-1.1,0.6-2.3,0.1c1-0.5-0.2-0.5,1-0.4c-0.6-0.1-0.9-0.3-1.3-0.4c-0.2,0-0.4,0-0.6,0
				c-0.2,0.1-0.3,0.2-0.6,0.4c0.3-0.8-0.7-1-1.1-0.7l0.6,0.5c-0.5,0.1-0.9,0-1.3,0l0.2-1c-1.8-1.2-3.2,2.1-4.5,0
				c-0.5,0.7,1,0.5,0.5,1.3c-0.8-0.1-1.7-1.6-1.9-1.6c-1.1-0.6-1,1.5-2.2,1.1c0.1,0.4,0.3,1.3-0.6,1.6c-0.8-0.1-1-1.5-0.5-1.8
				c0.2,0,0.3,0.1,0.3,0.2c0.3-0.1,0.6-0.3,0.3-0.7l-0.1,0.4c-0.4-0.4-1.5-0.3-1.3-0.9c-0.6,0.3-0.3,0.6,0.2,0.8
				c-1-0.5-1.6,0-2.7-0.4c0.2,0.2,0.3,0.6,0.2,0.6c-1.6-0.4-0.7,0.7-1.8,0.8c-0.6-0.5,0.2-1.3-0.9-0.8c-0.7-0.4-0.1-0.9,0.1-1.2
				c-1,0.7-1.8-0.5-2.4-0.6l0.5-0.3c-0.3,0.2-0.6,0.2-0.8,0.2l0.3,0.7c-0.3-0.1-0.6-0.1-0.6-0.4c-0.3,0.5,0.2,1.2-0.4,1.8
				C76.9,8.2,76,9,75.9,8c1.3,0.3-0.1-0.9,0.9-1.1c-0.2,0.1-0.5,0.1-0.8,0c0-0.1,0-0.2,0.1-0.2c-1.2-0.8-0.6,1.1-1.8,1
				c0.2-0.5-0.3-1-0.5-0.9c0.5,0,0.2,0.9-0.2,1.3c-0.8-0.4-0.9,0.3-1.3,0.3l0.5,0.2c-0.2,0.5-0.6,0.5-1.1,0.6c0-0.4,0.5-0.3,0.3-0.5
				c-0.6,0.9-1.4-1-2.3-0.3c-0.4-0.4,0-1-0.4-1.2c-1,0.7-1.1-0.7-2.1-0.2c0.3,0.7,0.3,0.5-0.4,1.2l1.7-0.5l-1.1,1
				c0.5,0,1.1-0.4,1.4-0.3c-0.5,0.6-0.5,0.4-0.2,1c-0.7-1.1-1.4,0.6-2.2-0.1l0-1.8c-1.2-0.8-2.2,0.9-3.7,0.5l0.5,0.3
				c-0.2,0.7-1,0.1-1.5,0.4c0-0.6-0.3-0.8-0.5-1.2c0,0.4-1.2,0-1.3,1.1l-0.7-0.8c-1.3-0.3-1.5,1.7-2.7,1.5c0.4-0.6-0.2-1.1,0.6-1.5
				c-0.4,0-0.8-0.1-0.8,0.3c-0.2-0.4-1.1,0.8-1.5,0.2c-0.2,0.3-0.2,0.9-0.7,0.8c-0.1-0.1,0-0.3,0-0.3c0,0.3-0.7,0.4-0.3,1.1
				c-1.3-1.8-3.5,0.1-4.6-1.5c-0.9,0.2-2,0.4-2.8,0.4c0.1-0.2,0-0.3,0.2-0.2c-1.1-0.6-0.7,1.7-2,1.1c-0.6-1,0.7-0.5,0.3-0.9
				c-0.2-1.9-1.5,0.3-2.4-0.9L42.8,8c-0.7-0.7-1.6,0.7-2.7,0.6c0,0,0.1-0.2,0-0.3c-0.7,1-2.1,1.3-3.1,1.6c0.3-0.8,0.5-0.4,0.3-1.2
				c-0.5,0.1,0.1,1.2-0.8,1.5c-0.3-0.4-1-0.8-1.1-1.6l0.9,0c-0.4-1.1-1.1,0-1.6-0.1l0.1-0.5C33.5,8,33.4,9.2,32,9.1l0.1,0.4
				c-0.8,1.2-0.7-0.7-1.4,0.2l-0.2-1.2c-0.3,0.2-0.7,0.4-1.2,0.7c-0.2,0.1-0.6,0.3-0.9,0.4c-0.3,0.1-0.6,0.2-0.9,0.3
				c0.2-0.4,0.7-0.8,1.3-1.1L29,8.7l0.2-0.1c0.1-0.1,0.2-0.1,0.3-0.2C29.7,8.3,29.9,8.1,30,8c-0.3,0-0.7,0-1.1,0.1
				c-0.6,0.1-1.2,0.3-1.3,0.6c0.3-0.1,0.6-0.4,0.9-0.2c-0.9,0.9-1.6,1.4-2.9,1.4c-0.7-1.5-2.3-1.3-3.9-1.5c-0.1,0.7-0.3,1.3-0.9,1.3
				c0.4,1.8,0.3,3.1,0.2,4.6c0,0.4-0.1,0.8-0.1,1.2c0,0.2,0,0.3-0.1,0.4l-0.1,0.4c-0.1,0.5-0.1,1-0.1,1.5c1.8-0.7,0.1,0.6,1.9,0.5
				c0.1,0.5,0.1,0.7,0,0.7l-1.1,1.5C20.8,20.8,21,20,20.6,20c-0.1,1.1-0.8,0.4-1.3,1.2c0.7-0.1,0.9,0.4,0.7,1l0.8-0.9
				c1,1.5-1.5,1.3-0.6,2.8l-0.6-0.5c0.3,0.8,0,2.9,1.5,3.6c-0.2,0.1-0.7,0.3-0.8,0c-0.2,1.8,1.6,4.1,0.7,5.6l-0.4-0.1
				c0.1,0.3,0.8,0.6,0.4,1c-0.2,0-0.4-0.1-0.5,0c0.2,0.2,0.8,0.9,0.5,1.4l-0.5-0.4c-0.6,1.8,1.2,2.8,1.5,4.3c-1.3,0-1.7,1.4-2,2.1
				l-0.2,0c-0.2,2.1,1.1,3.6,1.6,5.5c-0.2,0.1-0.3,0.2-0.4,0.5c-0.1,0.3-0.2,0.6-0.3,0.9c-0.1,0.7-0.2,1.5-0.3,2.3
				c-0.1,1.7-0.1,3.5-0.3,5.4c0.4,0.1,0.8,0.1,1.2,0.2c-0.3-0.2,1-1,1.6-1.2c0.3,0.1,0.9-0.1,1.4-0.2c0.5-0.1,0.7-0.1,0.4,0.5
				l-0.3,0c-0.1,1.2,1.9,0.9,3.2,0.9c0,0,0.1-0.4,0.2-0.8c0.1-0.4,0.2-0.8,0.2-0.8c0.3,0.3,0.8,0.5,1,0.6c0.3,0.1,0.6,0.2,0.8,0.2
				c0.6,0.1,1.2-0.1,1.7-0.2c1.1-0.2,2.2-0.5,2.7,0.5c0.5-0.4,1-0.4,1.5-0.8l0,0.8c1.3,0.2,1.9,0.3,3.5,0.1l-0.3,0.6
				c0.9,0.1,1.1-2.4,1.9-2.5l0.2,1.3c1.6,0,3.1,1.1,4.7-0.1c0,0.2-0.1,0.6-0.3,0.6c0.7,0,2.8,0.9,2.6-0.9c0,1.1,1.6,0.1,2.4-0.4
				l-0.1,0.8c0.7-1.1,0.7-1.4,1.7-1.7c0.2,0.1,0.2,0.7-0.1,0.5c0.8,0.4,0.6-0.8,1.6-0.3l-0.4,0.5c0.8,0.1,0.7-0.2,1.2-0.8
				c0.5-0.3,1.5,0.2,1.6,1c0.1-0.5,0.5-1.1,1-0.9c0.1,0.3-0.1,0.5-0.2,0.5c1.3,0.6,2-1,2.9-0.2c0,0.3,0.1,0.4,0.2,0.5
				c-1.1,0-1.9-0.1-1.8-0.1c0,0.8,0.9,0.9,0.2,2c0.7-0.6,1.9-1.8,2.7-1.5c0,0.1,0.1,0.1,0.1,0.3l-0.1,0.1c0.2,0.1,0.4,0,0.5-0.1
				c0.3,0.1,0.4,0.2,0.7,0.2c0.1,0.6,1,0.3,1.4,0.4c0-0.8,0.5-0.7,0-1.4c0.1,0.1-0.1,0.1-0.4,0.1c-0.1,0-0.1,0-0.2,0.1
				c0,0,0,0,0-0.1c-0.3,0-0.7,0-1.1,0.1c0.3-0.4,0.7-0.8,1.2-0.3c0.2-0.5,0.5-1.1,0.6-1.4c0.6,1.2,1.7,1.8,1.9,2.5
				c1.3-0.5,3.1-0.3,3.9-1.9c0.4-0.2,0.4,0.5,0.6,0.7c-0.2,0.2-0.5,0.1-0.6,0.4c0.7-0.4,2.2-0.2,2.4-1.3c0.9,0.5-0.5,1,0.8,0.8
				l-0.2,0.3c2.5,1.8,4.1-2.8,7-0.6c-0.2-0.1-0.3-0.2-0.3-0.4c3.2,1,6.6-0.9,9.8,0.6c0.9,0.3,1-0.4,1.5-0.9l0.2,0.9l0.9-1
				c1.3-0.8,2.3,2.2,4,0.8l-0.2-0.6c0.6,0.1,1.9-0.4,1.8,0.3c0.1-0.1,0.2-0.6,0.4-0.3l0,0.5l1.5-0.8c1.2,0.3-0.2,1.9,1.5,2
				c0.6-0.2,1.8-1.4,1.5-1.7c-0.3,0-0.6-0.3-0.7-0.8l0.6-0.2c0.1-1.4,0.5-2.8-0.9-3.8l-1,0.9l-0.3-0.7l0.8,0
				c-0.5-0.6-0.8-0.1-1.1,0.3c-0.1-0.4-0.2-0.6-0.4-0.7l-1,1.3c-0.1-0.5,0.4-1.1-0.2-1.4c-0.5,0.6,0.4,1.2-0.3,1.6
				c-0.5-0.6-0.3-1.2-0.9-0.6c-0.1-0.4,0-0.6,0.3-0.7c-0.5,0.4-1.3,0.2-1.5,0.9c-0.5-0.8-1.7,0.2-1.6-1.1c-0.2,0.3-0.9,1-1.3,1.1
				c0.8-1.6-1.7-0.1-1.5-1.8c-0.6,1.4-2.2,0.6-3.3,1.4c0.1-0.1,0.2-0.3,0.3-0.3c-0.6-0.1-0.8-0.5-1.2-0.8c-0.1,1.2-1,1.4-1.5,2.2
				c-0.7-1.1,0.5-1.4,0.2-2.5c0,1-1.3,1-1,1.7c-0.6-0.7-0.5-0.3-0.8-1.3c-0.1,1.5-0.5,0.2-1,1.2c-0.8-0.7-0.2-1.4-1.1-0.9
				C81.6,47.5,82.4,47,82.4,47z M60.9,49.5C60.9,49.5,60.9,49.5,60.9,49.5c0.2,0,0.3-0.1,0.4-0.1C61.3,49.5,61.2,49.5,60.9,49.5z
				 M59.1,49.6c0.2,0,0.5,0,0.8,0c0.1,0.3,0,0.6-0.2,0.6C59.8,50,59.4,49.8,59.1,49.6z M63,55.4c-0.3,0.1-0.4,0-0.4-0.2
				c0.1,0,0.3,0,0.5-0.1c0,0,0-0.1,0-0.1C63,55.1,63,55.3,63,55.4z"/>
			<path fill="#B1648A" d="M63.5,54.3c0,0,0.1-0.1,0.1-0.1c-0.1-0.1-0.1-0.1-0.2-0.2c0,0.1-0.1,0.2-0.1,0.3
				C63.4,54.3,63.4,54.3,63.5,54.3z"/>
			<path fill="#B1648A" d="M103.7,15.9L103.7,15.9c0,0,0,0-0.1,0C103.7,15.9,103.7,15.9,103.7,15.9z"/>
			<polygon fill="#B1648A" points="34.2,47.9 34.2,48.2 34.3,48 			"/>
			<path fill="#B1648A" d="M100.9,25.8c-0.1,0-0.2,0.1-0.2,0.1C100.7,25.9,100.8,25.9,100.9,25.8z"/>
			<path fill="#B1648A" d="M100.7,30.1l-0.3,0.6C100.5,30.4,100.6,30.3,100.7,30.1z"/>
			<path fill="#B1648A" d="M100.2,33.4c0.1,0,0.3,0.1,0.4,0.1l0,0L100.2,33.4z"/>
			<path fill="#B1648A" d="M72.6,14c0,0-0.1,0-0.1,0C72.2,14.2,72.4,14.1,72.6,14z"/>
			<path fill="#B1648A" d="M88.2,12c-0.2,0.2-0.3,0.3-0.5,0.4C88,12.5,88.2,12.5,88.2,12z"/>
			<path fill="#B1648A" d="M55.1,15C55.1,15,55.1,15,55.1,15L55,15L55.1,15z"/>
			<path fill="#B1648A" d="M87,12.4c0.3,0.2,0.5,0.1,0.7,0C87.5,12.4,87.2,12.3,87,12.4z"/>
			<path fill="#B1648A" d="M99.9,47.7l0,0.2c0.1,0,0.1,0,0.1,0L99.9,47.7z"/>
			<path fill="#B1648A" d="M100,47.9l0.1,0.2C100.1,48,100.1,47.9,100,47.9z"/>
			<path fill="#B1648A" d="M100.3,48.5l-0.2-0.4C100.1,48.2,100,48.4,100.3,48.5z"/>
			<path fill="#B1648A" d="M100.3,43.4l-0.3-0.1C100,43.3,100.1,43.4,100.3,43.4z"/>
			<path fill="#B1648A" d="M100.2,42c-0.1,0.3-0.7,0.8-0.5,1.2l0.2,0C99.5,43.1,100.7,42.3,100.2,42z"/>
			<path fill="#B1648A" d="M103.9,36.5l-0.2,1.1c0.3-0.2,0.8-0.5,0.8,0.1C105.5,36.2,103.8,37.9,103.9,36.5z"/>
			<path fill="#B1648A" d="M104.4,33c0.2,0.6,0.5,0,0.7,0C104.8,32.7,104.7,32.6,104.4,33z"/>
			<path fill="#B1648A" d="M100.6,8.8l0.4-0.8C100.3,8.2,100.9,8.4,100.6,8.8z"/>
			<polygon fill="#B1648A" points="95,12.8 95.5,13.3 95.7,12.6 			"/>
			<polygon fill="#B1648A" points="92.2,7.3 92.4,7.2 91.6,7.5 			"/>
			<path fill="#B1648A" d="M50.3,7.6l0.1,0.9C50.7,8.4,50.8,7.3,50.3,7.6z"/>
			<path fill="#B1648A" d="M32.2,8.6c-0.2-0.5-0.7-0.8-1-0.3C31.6,8.3,32,8.7,32.2,8.6z"/>
			<polygon fill="#B1648A" points="29.4,55.5 29,55.8 29.7,55.6 			"/>
		</g>
	</g>
	<g>
		<path fill="#A64D79" d="M52.4,35.3l-8.4,0l0-11.6l8.4,0v2.2l-5.4,0v2h5v2.2h-5l0,2.9l5.4,0V35.3z"/>
		<path fill="#A64D79" d="M65.1,31.1c0,1.4-0.4,2.5-1.3,3.3c-0.9,0.8-2.2,1.1-3.9,1.1c-1.7,0-3-0.4-3.9-1.1s-1.3-1.9-1.3-3.3v-7.4h3
			v7.3c0,0.8,0.2,1.4,0.5,1.8s0.9,0.6,1.6,0.6c0.8,0,1.3-0.2,1.6-0.6c0.3-0.4,0.5-1,0.5-1.8v-7.3h3V31.1z"/>
		<path fill="#A64D79" d="M78.6,35.3h-3.1l-0.8-2.4h-4.3l-0.8,2.4h-3l4.3-11.6h3.5L78.6,35.3z M74,30.8l-1.4-4.2l-1.4,4.2H74z"/>
	</g>
</g>
</svg>
