<?xml version="1.0" encoding="utf-8"?>
<!-- Generator: Adobe Illustrator 19.1.0, SVG Export Plug-In . SVG Version: 6.00 Build 0)  -->
<svg version="1.1" id="Layer_1" xmlns="http://www.w3.org/2000/svg" xmlns:xlink="http://www.w3.org/1999/xlink" x="0px" y="0px"
	 viewBox="0 0 153 72" enable-background="new 0 0 153 72" xml:space="preserve">
<g>
	<g>
		<path fill="#FCCB7F" d="M139.6,51.2c0.3,0.2,0.8,0.1,0.7-0.4l-1-0.3L139.6,51.2z"/>
		<path fill="#FCCB7F" d="M141.5,47.9c-0.5-0.6-1.3-1.2-2.2-0.9c1,0.6,0.6,0.7,1.7,1.3c0.1,0.5-0.3,0.9-0.7,0.8
			c0.3,0.2-0.2,0.8,0.4,1c0.8-0.6,0.8-1.4,0.2-2.3C141,47.7,141.3,47.8,141.5,47.9z"/>
		<path fill="#FCCB7F" d="M131.6,8.8l0.3,0.1C131.8,8.8,131.7,8.8,131.6,8.8z"/>
		<path fill="#FCCB7F" d="M102,8.2c0.2,0,0.3-0.1,0.3-0.2C102.2,8.1,102,8.1,102,8.2z"/>
		<path fill="#FCCB7F" d="M97,7.1c0.1,0,0.2,0,0.3,0.1C97.2,7.1,97.1,7.1,97,7.1z"/>
		<path fill="#FCCB7F" d="M131.6,8.8l-0.8-0.3C130.8,8.8,131.2,8.7,131.6,8.8z"/>
		<path fill="#FCCB7F" d="M139.1,41.3c0,0.2,0.1,0.3,0.3,0.4c0-0.1-0.1-0.3-0.1-0.4C139.2,41.3,139.1,41.3,139.1,41.3z"/>
		<path fill="#FCCB7F" d="M143.8,12.4l0,0.3c0.1,0.1,0.2,0.1,0.4,0.2c0,0-0.1-0.1-0.2-0.3C143.9,12.5,143.8,12.4,143.8,12.4z"/>
		<path fill="#FCCB7F" d="M144,23.2c0-0.2-0.8-0.3-1.2-0.4c0.3,0.1,0.5,0.3,0.6,0.5C143.5,23.3,143.7,23.3,144,23.2z"/>
		<path fill="#FCCB7F" d="M142.5,39.1l0.1,0.3C142.6,39.3,142.5,39.1,142.5,39.1z"/>
		<path fill="#FCCB7F" d="M137.8,7.8c0-0.1,0-0.2-0.1-0.3C137.7,7.6,137.8,7.7,137.8,7.8z"/>
		<path fill="#FCCB7F" d="M130,47.2c0,0.1,0,0.1,0,0.2C130.1,47.3,130.1,47.2,130,47.2z"/>
		<path fill="#FCCB7F" d="M141.6,51.4l-0.2,0c0,0.2,0,0.3,0,0.5L141.6,51.4z"/>
		<path fill="#FCCB7F" d="M87.7,6C87.8,6.1,87.8,6.1,87.7,6C88,6,87.9,6,87.7,6z"/>
		<path fill="#FCCB7F" d="M10.9,21.6c0.8-1,1,1.6,1.8,0.1C12.3,21.8,11.3,20.4,10.9,21.6z"/>
		<path fill="#FCCB7F" d="M139.2,41c0-0.1,0-0.3,0-0.4C139.1,40.8,139.1,40.9,139.2,41z"/>
		<path fill="#FCCB7F" d="M12.7,21.7L12.7,21.7l0.1-0.1C12.7,21.6,12.7,21.7,12.7,21.7z"/>
		<path fill="#FCCB7F" d="M66.5,6.6c0,0.1,0.1,0.3,0.2,0.4C66.7,6.8,66.6,6.7,66.5,6.6z"/>
		<path fill="#FCCB7F" d="M82.3,7.8l-0.4-0.1C82.1,7.7,82.2,7.7,82.3,7.8z"/>
		<path fill="#FCCB7F" d="M58.2,7.7c-0.2-0.1-0.3-0.2-0.6-0.1c0,0,0.1,0.1,0.1,0.1C57.8,7.7,58,7.6,58.2,7.7z"/>
		<path fill="#FCCB7F" d="M49.6,7.8c0,0.1,0.1,0.1,0.2,0.2c0.1,0,0.2,0,0.3,0L49.6,7.8z"/>
		<path fill="#FCCB7F" d="M104,47.6c0.2,0.2,0.3,0.5,0.4,0.8C104.2,47.8,105.5,47.6,104,47.6z"/>
		<path fill="#FCCB7F" d="M139.5,41.3c-0.2-0.1-0.3-0.1-0.4-0.3c0,0.1,0,0.2,0,0.3C139.3,41.3,139.5,41.4,139.5,41.3z"/>
		<path fill="#FCCB7F" d="M57.9,14.4l-1.4-0.1C56.9,14.4,57.4,14.4,57.9,14.4z"/>
		<path fill="#FCCB7F" d="M42.5,47.7l0.3-0.1C42.7,47.6,42.6,47.6,42.5,47.7z"/>
		<path fill="#FCCB7F" d="M52.5,14.4c-0.2-0.3-0.5-0.5-0.8-0.6c-0.1,0.1-0.1,0.1-0.2,0.2L52.5,14.4z"/>
		<path fill="#FCCB7F" d="M104.4,48.4L104.4,48.4L104.4,48.4z"/>
		<path fill="#FCCB7F" d="M113.3,46.4c-1.3,0-0.6,1.1-0.9,1.7c-1.5,0.3-0.7-0.8-1.2-1.4c-1,0.3-1.7,1.3-2.4,1.3
			c-0.1-0.2-0.2-0.2,0-0.5c-1,0.9-3,0-4.2,1.2c-0.1-0.1-0.1-0.2-0.2-0.3c0.2,0.6,0.2,1.1,0.2,1.5c-0.6,0-1.1,0.7-1.3,0
			c0.4,0,0.4-0.3,0.6-0.5l-0.6,0.3c-0.5-1,0.8-0.4,0.8-1.1c-1.2,0.3-2.6,1.2-3.5,0.9c-0.2-1,2.1-0.3,0.9-1.2l1.4,0.4
			c-1.1-1.6,0.9,0.1-0.1-1.6c-1.9-0.3-2.1,0.5-3.9,0.2c-0.4,0.6,0.1,0.8-0.3,1.4c-2.6,1-2.1-2.6-4-1.2c-0.5,0.7-0.7,2-2.1,1.3
			l0.5-1.2c-1.8-0.1-1,1.7-2.9,0.9c0.3-0.5,1.4-0.4,1.1-0.5c-1.2-0.9-0.9,0.7-1.8,0.7l-0.2-1c-1.9,0.2-4,0.9-6.1,1.1
			c0.1-0.3,0.5-0.6,0-0.9c-2.7,0.5-5.7-0.1-8.3-0.7l-1,0.9c-0.2,0-0.4-0.4-0.2-0.6c-1-0.3-0.1,0.6-0.5,0.9c-0.6,0.1-0.8-0.5-0.4-0.8
			c-1.8,0.7-5,1.6-6.9,0.7l0.4-0.3c-1.5-0.4-1.6,1.8-3,1l0.3-0.2c-3.2-0.4-6.6,0.4-9-0.9C53.9,49,51.2,47.2,51,49
			c-1.8-0.9-1.3-1.2-3.8-1.8c-0.7-0.1-1,1.1-1.8,1.3l0-0.9l-1.1,1l-0.6-1.1l-0.8,0.2c0.3,0.1,0.7,0.4,0.6,0.7c-1.2,0.4-3-0.6-3-1.1
			L37.5,48c0.1-0.4,0.6-0.5,0.9-0.7c-1.5,0.9-0.3-1-1.7-0.1c0.2,0.2-0.1,0.6-0.1,0.7c-0.7-0.6-2.3-0.6-3.5-0.3l0.2-0.6
			c-2.2-0.2-4.5,0.3-7,0.3c0.9,0.3,0.7,1.4,0,1.5l-0.3-1c-0.5,0.6,0.7,0.4-0.2,1.1c-0.9-0.1-0.6-1.1-0.1-1.4l-1.1,0.3
			c-0.1-0.3,0.2-0.4,0.3-0.8c-0.5,0.6-1.9-1-2.5,0.1l-0.1-0.3c-1.2,0-2.1,0.1-2.9,0.2l-0.2,0c0,0,0,0,0,0l0,0c0,0-0.1,0-0.1,0.1
			c-0.1,0-0.1,0.1-0.2,0.1c-0.4,0.8-0.5,0.7-1.3,1.3c-0.1-0.1-0.2-0.2-0.2-0.2c0.3-0.8,0.7-1.3,0.6-1.6c-0.2-0.1-0.4-0.2-0.6-0.1
			c-0.2,0-0.4,0.1-0.6,0c0.2,0,0.3,0,0.4-0.2c0.1-0.2,0.2-0.4,0.3-0.5c0.1-0.3,0.3-0.5,0.5-0.1c-0.1-2.1-0.2-2.7-0.8-5.3
			c-0.3,0.3-0.5,0.6-0.7,0.4c-0.1-0.5,0.3-1.1,0.7-1l0.1,0.1c-1.2-3,2.2-6.9,0.6-9.2l0.1,0.1l-0.8-2.5c0.1-1.1,0.6,0.7,1.1-0.2
			c-1.3-2.6,0.2-4.2-0.7-6.4c1.1-0.8,1.1-2.3,1-3.9c-0.1-0.8-0.2-1.6-0.2-2.3c0-0.2,0-0.4,0-0.5c0,0,0-0.1,0.1-0.1
			c0.1,0,0.2-0.1,0.4,0l-0.5-0.1c-0.5-0.3,0.3,0,0.4,0c-0.4-0.2-0.5-0.1-0.8-0.3c-0.1-0.3-0.2-0.6-0.2-0.8c0.3,0,0.7,0.1,1,0.2
			c0.2,0.1,0.3,0.1,0.4,0.2l1.5,0.2c2.1,0.3,4.3,0.7,6.4,0.9c1.9,0.1,1.1-2.8,3.4-1.5l-0.7,1c3.8-1.2,7.7,0,11.4-1
			c-0.2,0.2-0.2,0.5-0.6,0.5c0.8,0.7,2.9,0,2.9-0.6c0.6,0.1,0.1,0.5,0.5,0.8c0.8,0.4,2-0.9,2.4-0.2c0.1,0.1-0.2,0.2-0.4,0.3
			c0.5-0.3,2.4,0.1,1.9-0.7c1.4,0.4,2.6-0.4,3.8,0.1c0.7-0.9,2.4,0.4,2.6-0.9c-0.1,1.4,2.4,1.1,3.3,0.5c-0.3,0.4,0.8,0.4,0.4,1
			c1,0,1.9-0.3,1.7-1c1.8,1.6,3.7-1.3,4.7,0.8c3-0.7,5.7-1.2,8.4-1.5c-0.1,1.4-3,0.1-2.8,1.6c2.5-0.6,4-1.7,6.5-1.4
			c0.7,0.2-0.4,0.6-0.6,0.8c2.5-0.6,4.9,0.1,7.1-0.6c0,0.1-0.2,0.3-0.5,0.4c0.4,0,1,0.2,1-0.4l-0.4,0.2c-0.7-0.9,1.8-1.9,1.8-2.3
			c-0.8,1.8,2.2,0.4,1,2.7c0.3-0.1,0.7-0.4,0.6-0.8c0.4,0.1,0.6,0.4,0.1,0.8c1.6-0.3,1-1,2.5-1c0,0.3-0.3,0.4-0.4,0.8
			c0.7-0.6,1.5-1.2,2.7-0.9c-0.1,0.2,0.1,0.4-0.3,0.4c2.1-0.1,3.6-1.5,5.9-1c-0.7,1.3,0.8,0.4,0.9,1.5l1.2-0.3l-0.5-0.5
			c1.1,0,2-0.8,3-0.4l-0.8,0.5l2-0.2l-1.1-0.4c1.1-0.6-0.1-1.4,1.3-1.1c-0.3,0.1,1.1,0,1.6,0.7l0,0c0.5-0.4,1.1-0.7,1.9-0.5
			c0.2,0.4-0.2,1.2,0,1.5c0.5-0.9,2.5-0.3,3.2-1.3c-0.2,0.2-0.2,0.8-0.2,0.9l0.4-0.8c0.5,0.2,0.6,0.4,0.5,0.8
			c1.5,0.1-0.5-1.4,1.3-0.8c-0.1,0.1-0.1,0.2-0.4,0.3c1.8,0.3,3.5-0.5,5.1-0.1c0.5,1.1-1.4,0.3-0.9,1.2c2.4-0.2,4.9-1.4,7.2-1.1
			l-0.4-0.1c0.3-1.6,1.7,0.8,2.9,0c-0.3,0.1-0.4,0.9-0.3,0.7c1.6,0.3,3.2-0.4,5.6-0.9l-0.3,0.4c0.9,0.4,2.4,0.2,3.4,0.4
			c0.3-0.4,0.9-0.3,0.5-0.9c0.6,0.5,1.3,0.7,1.9,0.8c0.2,0,0.3,0,0.5,0c0.1,0,0.2,0,0.3,0c0.2,0,0.4-0.1,0.6-0.1
			c0.8-0.3,2-0.7,2.7-0.5c-0.1,0.4-0.2,0.9-0.6,1.4c0-0.2-0.4-0.2-0.4,0c0,0,0.1,0.3,0.2,0.5c0.1,0.3,0.2,0.6,0.2,0.6
			c0.7-0.4,0.4-0.3,1-1c0.4,0,0.7,0.5,0.7,1.1c-0.2-0.5-0.5-0.3-0.8-0.1c-0.3,0.2-0.5,0.6-0.7,0.7c0.2-0.1,0.4,0,0.7,0
			c-0.6,0.5-0.3,0.6,0.1,0.7c0.4,0.1,0.8,0.3,0.4,1.1l-0.4-0.1c0.2,0.6,0.7,1.2,0.6,1.9c-0.8,0.3-0.4-0.7-1-0.7
			c0,0.9,1.5,1.9,0.7,2.7c-0.2-0.4-0.2-1-0.4-1.4c-0.9,0.9-0.7,1-0.9,1.7l0-0.1l-0.4,1.6l0.3-0.4c2.1,1.2,0.4,2.4,1.8,4
			c-1.3-1.5-0.8-0.3-1.7-0.4c-0.3,0.4-0.5,1-0.8,0.8c0.7,0.8-0.6,1.3,0.5,2.3c-0.3,0,0,0.8-0.8,0.6c0.2,1,0.5-0.2,0.9-0.1
			c1,1.5-1.2,3.5,0.2,5.7c0.6,1.9,1.6,2.2,2,4c-0.5,0.6-1.1-0.5-1.1-0.5c-0.4,0.9-0.4,1.7,0,2.5c-0.3-0.2-0.5,0-0.8,0.3
			c0.1,0.7,1.1,0.5,0.6,1.4c-0.3-0.2-0.8-0.4-1.2-0.7c0.3,0.8,0.8,1.7,1.1,2.5c-0.5,0.2-0.8-0.5-1.1-0.8c0.2,1,0.5,2.5,1.3,2.8
			l0.3-0.6c0,0.4-0.7,0.2-0.8-0.1c-0.6-0.8,0.3-1.2,0.6-1.3l0.2,0.6c1.7-0.6-0.3-2.5-0.2-3.7l1.2,0.5l-1-1.3c0.3-0.3,1-0.5,1.2,0.2
			c0.6-0.9-0.4-0.8,0.2-1.6c0.1-0.1,0.2,0,0.2,0l-0.4-0.9c0.3,0.2,0.9-0.1,0.7,0.4c0.7-1.6-0.9-2.5,0-3.1l0.1,0.1
			c-0.4-2.2-0.9-0.2-2-1.8l2.3-1.1l-0.9-0.2c0-0.2,0.1-0.7,0.5-0.6c-0.6-0.8-0.4,0.1-1-0.3c0.8-1.1-0.4-3,1.1-3.2
			c-0.7-0.4-0.5,1-1-0.1c1.6-0.3-0.3-1.3,0.5-2.3c0.8,0.3,0.4,1.2,1.1,0.3c-1.4-0.6,0.3-1.9,0-2.8c-1.1,0-0.5-1.8-0.8-3.2
			c0.4,0.1,0.6-2.6,1-3.9l0.2,0c-0.6-0.1-0.8-0.5-0.9-1c-0.1-0.5-0.1-1.3-0.2-1.8c0.7-0.1,0.9,0,1.2,0.7l0-1.3
			c-0.4-0.2-0.5-0.5-0.7-1.2c0,0,0.2,0,0.4-0.1c0.2,0,0.4,0,0.4,0c0-1.1-0.4-2-0.5-3c-0.8,0.1-1.5,0.1-2.2-0.1
			c-0.3,0.4-0.3,0.9-0.5,1.4c-0.2,0.5-0.7,1-1.6,1.2c0.2-0.4,0.5-1.1,1.1-1.3c-0.2,0.1-0.8,0.3-1,0.2c0,0,1.1-0.7,1.2-0.7
			c-0.7-0.3-0.8,0.6-1.4,0.5c0.3-0.6-0.3-0.4-0.1-0.9c0.2-0.1,0.5,0.2,0.9,0c-0.8-0.1-1.7-0.5-2.1-0.9c0,0.3-0.1,0.8-0.8,0.9
			c-0.4,0-0.5,0-0.7-0.1c-0.1-0.1-0.1-0.2-0.2-0.3c0-0.2,0-0.5-0.4-0.6c-0.3,0.4-1.1,0-1.1,0.9c-0.4,0-0.4-0.4-0.6-0.7
			c-0.6,0.4-3,0.1-2.2,1.1l0.2,0.1c0,0-0.1,0-0.1,0c0,0,0,0,0,0h0c-2.1,0.9-4.3-0.5-6.4-0.1l0-0.3c-1.2,0.3-2.7,0.2-3.6,0.8
			c-0.4,0-0.9-0.5-0.7-0.9c-0.9,0.2-1,0.6-2.4,0.1c0.9-0.5-0.3-0.5,1-0.4c-1.2-0.3-1.5-0.7-2.8,0.1c0.4-0.8-0.9-1-1.5-0.7l0.9,0.5
			c-0.7,0.1-1.2,0-1.8,0l0.3-1c-2.5-1.2-4.5,2.1-6.4,0c-0.7,0.7,1.4,0.5,0.8,1.3c-1.2-0.1-2.3-1.6-2.7-1.6c-1.6-0.6-1.5,1.5-3.1,1.1
			c0.2,0.4,0.4,1.3-0.8,1.6c-1.2-0.1-1.4-1.5-0.7-1.8c0.3,0,0.4,0.1,0.4,0.2c0.4-0.1,0.9-0.3,0.4-0.7l-0.1,0.4
			c-0.6-0.4-2.2-0.3-1.8-0.9c-0.9,0.3-0.4,0.6,0.3,0.8c-1.5-0.5-2.3,0-3.8-0.4c0.2,0.2,0.5,0.6,0.2,0.6c-2.2-0.4-1,0.7-2.5,0.8
			c-0.9-0.5,0.3-1.3-1.2-0.8c-0.9-0.4-0.2-0.9,0.2-1.2c-1.4,0.7-2.6-0.5-3.4-0.6l0.7-0.3c-0.4,0.2-0.8,0.2-1.2,0.2l0.4,0.7
			c-0.4-0.1-0.8-0.1-0.8-0.4c-0.4,0.5,0.3,1.2-0.5,1.8c-0.6-0.4-1.7,0.4-1.9-0.6c1.8,0.3-0.2-0.9,1.3-1.1c-0.3,0.1-0.7,0.1-1.1,0
			c-0.1-0.1,0.1-0.2,0.2-0.2c-1.7-0.8-0.8,1.1-2.6,1c0.2-0.5-0.4-1-0.7-0.9c0.7,0,0.3,0.9-0.3,1.3c-1.1-0.4-1.2,0.3-1.8,0.3L83,7.9
			c-0.2,0.5-0.8,0.5-1.6,0.6c-0.1-0.4,0.7-0.3,0.4-0.5c-0.9,0.9-2-1-3.2-0.3c-0.6-0.4-0.1-1-0.6-1.2c-1.4,0.7-1.5-0.7-2.9-0.2
			c0.4,0.7,0.5,0.5-0.5,1.2L77,7.1l-1.5,1c0.7,0,1.5-0.4,2-0.3c-0.7,0.6-0.7,0.4-0.3,1c-1-1.1-2,0.6-3.1-0.1l0-1.8
			c-1.7-0.8-3,0.9-5.3,0.5l0.7,0.3c-0.3,0.7-1.4,0.1-2.1,0.4c0.1-0.6-0.4-0.8-0.7-1.2c0,0.4-1.6,0-1.8,1.1l-1-0.8
			c-1.8-0.3-2,1.7-3.8,1.5c0.5-0.6-0.3-1.1,0.9-1.5c-0.6,0-1.1-0.1-1.1,0.3c-0.3-0.4-1.6,0.8-2.1,0.2c-0.2,0.3-0.3,0.9-1,0.8
			c-0.1-0.1,0-0.3,0-0.3c0,0.3-1,0.4-0.4,1.1c-1.8-1.8-5,0.1-6.5-1.5c-1.3,0.2-2.8,0.4-3.9,0.4c0.1-0.2,0-0.3,0.2-0.2
			c-1.6-0.6-1,1.7-2.8,1.1c-0.9-1,1-0.5,0.4-0.9c-0.2-1.9-2.2,0.3-3.4-0.9l0.3-0.1c-0.9-0.7-2.3,0.7-3.8,0.6c0,0,0.1-0.2,0-0.3
			c-1,1-3,1.3-4.4,1.6c0.5-0.8,0.7-0.4,0.4-1.2c-0.6,0.1,0.2,1.2-1.1,1.5c-0.4-0.4-1.4-0.8-1.5-1.6l1.2,0c-0.6-1.1-1.6,0-2.2-0.1
			l0.1-0.5c-1.9,0.2-1.9,1.3-3.9,1.2l0.2,0.4c-1.1,1.2-0.9-0.7-2,0.2l-0.3-1.2c-0.7,0.3-2.5,1.1-3.8,1.4c0.7-0.9,2.3-1.3,3.2-1.8
			c-0.7,0-2.4,0.1-2.8,0.7c0.3-0.1,0.7-0.4,0.9-0.2c-0.4,0.5-1,0.8-1.5,1c-0.7,0.2-1.5,0.3-2.3,0.3c-0.3-1.5-2.7-1.3-5-1.5
			c-0.1,1.1-0.3,2-0.9,2.2c0.2,1.2,0.3,2.2,0.3,3.3c0,0.5,0,1,0,1.6c0,0.3,0,0.4,0,0.6l-0.1,0.5c-0.2,1.3-0.4,2.7-0.4,4.2
			c1.8-1,0.1,0.9,1.9,0.7c0.1,0.7,0.1,1,0,1l-1.1,2.1c-0.5,0.5-0.4-0.7-0.8-0.6c-0.1,1.5-0.8,0.6-1.3,1.6c0.7-0.2,0.9,0.5,0.7,1.4
			L11,25c1,2.1-1.5,1.8-0.6,3.9l-0.6-0.7c0.3,1.1,0,4,1.5,5.1c-0.2,0.2-0.7,0.4-0.8,0c-0.2,2.6,1.6,5.8,0.7,7.8L10.7,41
			c0.1,0.5,0.8,0.8,0.4,1.5c-0.2,0-0.4-0.2-0.5,0c0.2,0.3,0.8,1.3,0.5,1.9l-0.5-0.6c-0.1,0.6-0.1,1.2-0.1,1.7c0,0.3,0.1,0.5,0.2,0.7
			c0.1,0.4,0.2,0.8,0.3,1.2c0.4,1.5,1,2.6,1.1,4c-0.7,0.5-1.2,1.8-1.5,3.4c0.8,0.2,1.9,0.4,2.6,0.5l-0.2,0.2c1.4,0,2.7,0,4-0.1
			c0.6-0.1,1.2-0.1,1.8-0.2c0.3,0,0.4-0.1,0.6-0.1l0.5-0.1c1.2-0.4,2.4-0.8,3.8-1.1c1.7,1.4,5.8,0.6,8.5,1.4c-0.4-0.2,0.1-1,0.6-1.2
			c0.6,0.3,1.8-0.9,1.7,0.3l-0.2,0c0.5,1.2,1.8,0.9,2.8,0.9l0.2-1.6c2.7,2.3,7.1-0.8,8.5,1.2c0.6-0.4,1.5-0.4,2.1-0.8l0,0.8
			c1.8,0.2,2.7,0.3,4.9,0.1l-0.5,0.6c1.3,0.1,1.6-2.4,2.7-2.5l0.3,1.3c2.2,0,4.4,1.1,6.6-0.1c0,0.2-0.1,0.6-0.5,0.6
			c1,0,4,0.9,3.6-0.9c0,1.1,2.3,0.1,3.4-0.4l-0.2,0.8c1-1.1,1-1.4,2.4-1.7c0.3,0.1,0.3,0.7-0.1,0.5c1.1,0.4,0.9-0.8,2.2-0.3
			l-0.5,0.5c1.1,0.1,1-0.2,1.7-0.8c0.7-0.3,2.1,0.2,2.3,1c0.2-0.5,0.8-1.1,1.4-0.9c0.1,0.3-0.2,0.5-0.3,0.5c1.9,0.6,2.8-1,4.1-0.2
			c0,0.3,0.1,0.4,0.2,0.5c-1.5,0-2.7-0.1-2.6-0.1c0,0.8,1.2,0.9,0.2,2c1-0.6,2.6-1.8,3.8-1.5c0.1,0.1,0.1,0.1,0.2,0.3l-0.1,0.1
			c0.3,0.1,0.5,0,0.7-0.1c0.4,0.1,0.6,0.2,1,0.2c0.1,0.6,1.4,0.3,2,0.4c-0.1-0.8,0.7-0.7,0-1.4c0.1,0.1-0.1,0.1-0.5,0.1
			c-0.1,0-0.2,0-0.3,0.1c0,0,0,0,0-0.1c-0.4,0-0.9,0-1.5,0.1c0.5-0.4,1-0.8,1.6-0.3c0.3-0.5,0.7-1.1,0.8-1.4
			c0.8,1.2,2.4,1.8,2.7,2.5c1.9-0.5,4.4-0.3,5.5-1.9c0.5-0.2,0.6,0.5,0.8,0.7c-0.3,0.2-0.7,0.1-0.8,0.4c1.1-0.4,3.1-0.2,3.4-1.3
			c1.3,0.5-0.7,1,1.1,0.8l-0.2,0.3c3.6,1.8,5.8-2.8,9.8-0.6c-0.3-0.1-0.4-0.2-0.5-0.4c4.5,1,9.3-0.9,13.8,0.6
			c1.3,0.3,1.4-0.4,2.2-0.9l0.3,0.9l1.3-1c1.9-0.8,3.3,2.2,5.6,0.8l-0.3-0.6c0.9,0.1,2.7-0.4,2.6,0.3c0.1-0.1,0.3-0.6,0.6-0.3l0,0.5
			l2.1-0.8c1.6,0.3-0.3,1.9,2.1,2c0.9-0.2,2.5-1.4,2.2-1.7c-0.4,0-0.9-0.3-0.9-0.8l0.8-0.2c0.1-1.4,0.8-2.8-1.2-3.8l-1.4,0.9
			l-0.4-0.7l1.2,0c-0.7-0.6-1.1-0.1-1.5,0.3c-0.1-0.4-0.3-0.6-0.6-0.7l-1.4,1.3c-0.2-0.5,0.6-1.1-0.3-1.4c-0.6,0.6,0.6,1.2-0.4,1.6
			c-0.7-0.6-0.5-1.2-1.2-0.6c-0.1-0.4,0.1-0.6,0.4-0.7c-0.7,0.4-1.8,0.2-2.2,0.9c-0.7-0.8-2.3,0.2-2.3-1.1c-0.2,0.3-1.2,1-1.9,1.1
			c1.2-1.6-2.4-0.1-2.1-1.8c-0.9,1.4-3.1,0.6-4.6,1.4c0.1-0.1,0.3-0.3,0.4-0.3c-0.9-0.1-1.1-0.5-1.7-0.8c-0.1,1.2-1.4,1.4-2.2,2.2
			c-1-1.1,0.6-1.4,0.3-2.5c0.1,1-1.8,1-1.5,1.7c-0.8-0.7-0.7-0.3-1.1-1.3c-0.1,1.5-0.7,0.2-1.4,1.2c-1.2-0.7-0.3-1.4-1.6-0.9
			C112.2,46.9,113.3,46.4,113.3,46.4z M83,48.9C83,48.9,83,48.9,83,48.9c0.3,0,0.5-0.1,0.6-0.1C83.5,48.9,83.3,48.9,83,48.9z
			 M80.5,48.9c0.3,0,0.7,0,1.1,0c0.1,0.3,0,0.6-0.3,0.6C81.5,49.3,80.9,49.2,80.5,48.9z M85.9,54.8c-0.4,0.1-0.5,0-0.6-0.2
			c0.2,0,0.4,0,0.7-0.1c0,0,0-0.1,0-0.1C86,54.5,85.9,54.7,85.9,54.8z"/>
		<path fill="#FCCB7F" d="M86.6,53.7c0.1,0,0.1-0.1,0.2-0.1c-0.1-0.1-0.2-0.1-0.2-0.2c0,0.1-0.1,0.2-0.1,0.3
			C86.4,53.7,86.5,53.7,86.6,53.7z"/>
		<path fill="#FCCB7F" d="M132,8.9L132,8.9c0,0,0,0,0.1,0.1C132,9,132,8.9,132,8.9z"/>
		<polygon fill="#FCCB7F" points="45.3,47.3 45.3,47.5 45.5,47.4 		"/>
		<path fill="#FCCB7F" d="M140,14.7c-0.1,0-0.2,0.1-0.2,0.1C139.8,14.8,139.9,14.8,140,14.7z"/>
		<path fill="#FCCB7F" d="M139.8,20.6l-0.3,0.9C139.7,21.1,139.7,20.8,139.8,20.6z"/>
		<path fill="#FCCB7F" d="M139.4,25.3c0.1,0.1,0.3,0.1,0.4,0.1l0,0L139.4,25.3z"/>
		<path fill="#FCCB7F" d="M82.6,13.4c-0.1,0-0.1,0-0.2,0C82,13.6,82.3,13.5,82.6,13.4z"/>
		<path fill="#FCCB7F" d="M104.7,11.4c-0.2,0.2-0.5,0.3-0.7,0.4C104.4,11.9,104.7,11.9,104.7,11.4z"/>
		<path fill="#FCCB7F" d="M58,14.4C58,14.4,58,14.4,58,14.4c-0.1,0-0.1,0-0.1,0L58,14.4z"/>
		<path fill="#FCCB7F" d="M102.9,11.8c0.4,0.2,0.7,0.1,1,0C103.7,11.8,103.3,11.7,102.9,11.8z"/>
		<path fill="#FCCB7F" d="M139,45.5l0,0.2c0.1,0,0.1,0,0.1,0L139,45.5z"/>
		<path fill="#FCCB7F" d="M139.1,45.7l0.1,0.2C139.2,45.8,139.2,45.7,139.1,45.7z"/>
		<path fill="#FCCB7F" d="M139.4,46.5l-0.2-0.5C139.2,46.1,139.2,46.4,139.4,46.5z"/>
		<path fill="#FCCB7F" d="M139.4,39.3l-0.3-0.1C139.1,39.3,139.2,39.3,139.4,39.3z"/>
		<path fill="#FCCB7F" d="M139.3,37.4c-0.1,0.4-0.7,1.1-0.5,1.7l0.2,0.1C138.6,38.9,139.8,37.8,139.3,37.4z"/>
		<path fill="#FCCB7F" d="M143.1,29.6l-0.2,1.6c0.3-0.3,0.8-0.6,0.8,0.1C144.6,29.3,142.9,31.6,143.1,29.6z"/>
		<path fill="#FCCB7F" d="M143.5,24.7c0.2,0.8,0.5,0,0.7,0C143.9,24.2,143.8,24.1,143.5,24.7z"/>
		<path fill="#FCCB7F" d="M121,8.2l0.1-0.8C120.4,7.6,121.1,7.8,121,8.2z"/>
		<polygon fill="#FCCB7F" points="114.3,12.2 114.9,12.7 115.2,12 		"/>
		<polygon fill="#FCCB7F" points="110.3,6.7 110.6,6.6 109.5,6.9 		"/>
		<path fill="#FCCB7F" d="M51.2,7L51.4,8C51.8,7.8,51.9,6.7,51.2,7z"/>
		<path fill="#FCCB7F" d="M25.7,8c-0.3-0.5-1-0.8-1.4-0.3C24.8,7.7,25.4,8.1,25.7,8z"/>
		<polygon fill="#FCCB7F" points="38.5,54.9 38,55.2 39,55 		"/>
	</g>
</g>
<g>
	<path fill="#FBC36C" d="M53.5,25.3h-5.4v2.2h5v2.2h-5l0,5h-3l0-11.6h8.3V25.3z"/>
	<path fill="#FBC36C" d="M64.1,34.7l-2.8,0v-1c-0.5,0.4-1,0.7-1.4,0.9s-0.9,0.3-1.5,0.3c-1,0-1.7-0.3-2.2-0.8s-0.8-1.4-0.8-2.5
		l0-5.7h2.8v4.4c0,0.4,0,0.8,0,1.1s0.1,0.5,0.2,0.7c0.1,0.2,0.2,0.3,0.4,0.4s0.5,0.1,0.8,0.1c0.2,0,0.5,0,0.8-0.1s0.6-0.2,0.8-0.4
		l0-6.2l2.8,0L64.1,34.7z"/>
	<path fill="#FBC36C" d="M75.4,30.8l-6.4,0c0,0.7,0.3,1.2,0.8,1.6s1.2,0.5,2.1,0.5c0.6,0,1.2-0.1,1.7-0.3s1-0.4,1.3-0.7h0.3v2.3
		c-0.6,0.3-1.2,0.4-1.8,0.6s-1.2,0.2-1.9,0.2c-1.8,0-3.1-0.4-4-1.2s-1.4-1.9-1.4-3.4c0-1.4,0.4-2.6,1.3-3.4s2.1-1.3,3.7-1.3
		c1.4,0,2.5,0.4,3.2,1.1s1.1,1.8,1.1,3.1L75.4,30.8z M72.6,29.1c0-0.6-0.2-1-0.4-1.3s-0.7-0.4-1.3-0.4c-0.5,0-1,0.1-1.3,0.4
		S69,28.5,69,29.1L72.6,29.1z"/>
	<path fill="#FBC36C" d="M86.2,34.7h-2.8l0-4.4c0-0.4,0-0.7-0.1-1.1s-0.1-0.6-0.2-0.8c-0.1-0.2-0.3-0.3-0.5-0.4s-0.5-0.1-0.8-0.1
		c-0.3,0-0.5,0-0.8,0.1s-0.5,0.2-0.9,0.4l0,6.2l-2.8,0l0-8.8l2.8,0v1c0.5-0.4,1-0.7,1.4-0.9s1-0.3,1.5-0.3c0.9,0,1.7,0.3,2.2,0.8
		s0.8,1.4,0.8,2.5L86.2,34.7z"/>
	<path fill="#FBC36C" d="M94.4,34.6c-0.3,0.1-0.6,0.1-1,0.2s-0.8,0.1-1.2,0.1c-1.1,0-1.9-0.2-2.4-0.7S89,33,89,31.9l0-4.1h-1.2v-1.9
		H89v-2.5l2.8,0v2.5h2.6v1.9h-2.6l0,3.1c0,0.3,0,0.6,0,0.8s0,0.4,0.1,0.6c0.1,0.2,0.2,0.3,0.4,0.4c0.2,0.1,0.5,0.2,0.8,0.2
		c0.1,0,0.3,0,0.6-0.1s0.4-0.1,0.5-0.2h0.2V34.6z"/>
	<path fill="#FBC36C" d="M104.7,30.8h-6.4c0,0.7,0.3,1.2,0.8,1.6c0.5,0.4,1.2,0.5,2.1,0.5c0.6,0,1.2-0.1,1.7-0.3s1-0.4,1.3-0.7h0.3
		v2.3c-0.6,0.3-1.2,0.4-1.8,0.6s-1.2,0.2-1.9,0.2c-1.8,0-3.1-0.4-4-1.2s-1.4-1.9-1.4-3.4c0-1.4,0.4-2.6,1.3-3.4s2.1-1.3,3.7-1.3
		c1.4,0,2.5,0.4,3.2,1.1s1.1,1.8,1.1,3.1L104.7,30.8z M101.9,29.1c0-0.6-0.2-1-0.4-1.3s-0.7-0.4-1.3-0.4c-0.5,0-1,0.1-1.3,0.4
		s-0.5,0.7-0.6,1.4H101.9z"/>
	<path fill="#FBC36C" d="M114.3,31.9c0,0.9-0.4,1.6-1.2,2.2s-1.9,0.8-3.3,0.8c-0.8,0-1.5-0.1-2.1-0.2s-1.1-0.3-1.5-0.5v-2.3h0.3
		c0.1,0.1,0.3,0.2,0.5,0.3c0.2,0.1,0.4,0.2,0.8,0.4c0.3,0.1,0.6,0.2,1,0.3s0.8,0.1,1.2,0.1c0.6,0,1-0.1,1.2-0.2s0.4-0.3,0.4-0.5
		c0-0.2-0.1-0.4-0.2-0.5s-0.5-0.2-0.9-0.3c-0.2,0-0.5-0.1-0.8-0.2s-0.7-0.1-1-0.2c-0.8-0.2-1.4-0.5-1.8-1c-0.4-0.4-0.6-1-0.6-1.6
		c0-0.8,0.4-1.5,1.2-2.1c0.8-0.6,1.9-0.8,3.3-0.8c0.7,0,1.3,0.1,1.9,0.2s1.1,0.3,1.4,0.4v2.2h-0.2c-0.4-0.3-0.9-0.5-1.4-0.7
		s-1.1-0.3-1.6-0.3c-0.5,0-0.8,0.1-1.1,0.2s-0.5,0.3-0.5,0.5c0,0.2,0.1,0.4,0.2,0.5s0.5,0.2,1,0.3c0.3,0.1,0.6,0.1,0.9,0.2
		s0.7,0.1,1,0.2c0.7,0.2,1.3,0.5,1.6,0.9C114.2,30.7,114.3,31.2,114.3,31.9z"/>
</g>
</svg>
