<?xml version="1.0" encoding="utf-8"?>
<!-- Generator: Adobe Illustrator 19.1.0, SVG Export Plug-In . SVG Version: 6.00 Build 0)  -->
<svg version="1.1" id="Layer_1" xmlns="http://www.w3.org/2000/svg" xmlns:xlink="http://www.w3.org/1999/xlink" x="0px" y="0px"
	 viewBox="0 0 211.5 103.5" enable-background="new 0 0 211.5 103.5" xml:space="preserve">
<g>
	<g>
		<path fill="#C95156" d="M192.9,77.5c0.3,0.2,0.8,0.1,0.7-0.6l-1-0.5L192.9,77.5z"/>
		<path fill="#C95156" d="M194.7,72.9c-0.5-0.8-1.3-1.7-2.2-1.2c1,0.8,0.6,1,1.7,1.8c0.1,0.7-0.3,1.2-0.7,1.1
			c0.3,0.2-0.2,1.1,0.4,1.4c0.8-0.9,0.8-2,0.2-3.2C194.3,72.6,194.6,72.8,194.7,72.9z"/>
		<path fill="#C95156" d="M184.4,15.5l0.4,0.1C184.7,15.6,184.5,15.5,184.4,15.5z"/>
		<path fill="#C95156" d="M143.2,15c0.3,0,0.4-0.1,0.5-0.2C143.3,14.8,143.1,14.9,143.2,15z"/>
		<path fill="#C95156" d="M136.1,13.9c0.2,0,0.3,0,0.4,0.1C136.4,13.9,136.2,13.8,136.1,13.9z"/>
		<path fill="#C95156" d="M184.4,15.5l-1.1-0.3C183.2,15.5,183.8,15.5,184.4,15.5z"/>
		<path fill="#C95156" d="M192.3,63.7c0,0.2,0.1,0.4,0.3,0.6c0-0.2-0.1-0.4-0.1-0.6C192.4,63.7,192.4,63.7,192.3,63.7z"/>
		<path fill="#C95156" d="M197.1,24.6l0,0.3c0.1,0.1,0.2,0.2,0.4,0.3L197.1,24.6z"/>
		<path fill="#C95156" d="M197.2,38.5c0-0.3-0.8-0.4-1.2-0.5c0.3,0.2,0.5,0.4,0.6,0.7C196.8,38.6,197,38.6,197.2,38.5z"/>
		<path fill="#C95156" d="M195.8,60.6l0.1,0.4C195.8,60.9,195.8,60.7,195.8,60.6z"/>
		<path fill="#C95156" d="M193.8,14.5c0-0.1,0-0.2,0-0.3C193.7,14.3,193.7,14.4,193.8,14.5z"/>
		<path fill="#C95156" d="M178.7,73.5c0,0.1,0,0.1,0,0.2C178.8,73.6,178.8,73.5,178.7,73.5z"/>
		<path fill="#C95156" d="M194.9,77.7l-0.2,0c0,0.2,0,0.3,0,0.5L194.9,77.7z"/>
		<path fill="#C95156" d="M123.3,12.8C123.3,12.8,123.3,12.8,123.3,12.8C123.7,12.7,123.5,12.8,123.3,12.8z"/>
		<path fill="#C95156" d="M17.5,32.9c0.8-1.3,1,2.2,1.8,0.2C19,33.2,18,31.2,17.5,32.9z"/>
		<path fill="#C95156" d="M192.5,63.4c0-0.2,0-0.4,0-0.6C192.4,63,192.4,63.2,192.5,63.4z"/>
		<path fill="#C95156" d="M19.3,33L19.3,33l0.1-0.2C19.4,32.9,19.4,32.9,19.3,33z"/>
		<path fill="#C95156" d="M93.6,13.3c0.1,0.1,0.2,0.3,0.3,0.4C93.9,13.6,93.8,13.5,93.6,13.3z"/>
		<path fill="#C95156" d="M115.7,14.5l-0.5-0.1C115.4,14.5,115.5,14.5,115.7,14.5z"/>
		<path fill="#C95156" d="M82.1,14.5c-0.3-0.1-0.4-0.2-0.8-0.1c0,0,0.1,0.1,0.1,0.1C81.6,14.4,81.8,14.4,82.1,14.5z"/>
		<path fill="#C95156" d="M70.2,14.5c0.1,0.1,0.1,0.1,0.2,0.2c0.1,0,0.3,0,0.4,0L70.2,14.5z"/>
		<path fill="#C95156" d="M142.5,73.9c0.3,0.2,0.4,0.5,0.6,0.8C142.8,74.1,144.6,73.9,142.5,73.9z"/>
		<path fill="#C95156" d="M192.8,63.7c-0.2-0.1-0.3-0.2-0.4-0.4c0,0.1,0,0.3,0,0.4C192.6,63.8,192.7,63.8,192.8,63.7z"/>
		<path fill="#C95156" d="M81.6,21.2L79.8,21C80.3,21.1,81,21.2,81.6,21.2z"/>
		<path fill="#C95156" d="M56.8,74l0.4-0.1C57.1,73.9,56.9,73.9,56.8,74z"/>
		<path fill="#C95156" d="M74.1,21.2c-0.3-0.3-0.7-0.5-1.1-0.6c-0.1,0.1-0.2,0.1-0.2,0.2L74.1,21.2z"/>
		<path fill="#C95156" d="M143,74.7C143,74.7,143,74.7,143,74.7C143,74.7,143,74.7,143,74.7z"/>
		<path fill="#C95156" d="M155.5,72.7c-1.8,0-0.8,1.1-1.2,1.7c-2.2,0.3-1-0.8-1.7-1.4c-1.3,0.3-2.4,1.3-3.4,1.3
			c-0.1-0.2-0.3-0.2,0-0.5c-1.4,0.9-4.2,0-5.9,1.2c-0.1-0.1-0.2-0.2-0.2-0.3c0.3,0.6,0.3,1.1,0.3,1.5c-0.8,0-1.5,0.7-1.8,0
			c0.5,0,0.5-0.3,0.8-0.5l-0.8,0.3c-0.8-1,1.2-0.4,1.2-1.1c-1.7,0.3-3.6,1.2-4.9,0.9c-0.3-1,3-0.3,1.3-1.2l2,0.4
			c-1.5-1.6,1.2,0.1-0.2-1.6c-2.6-0.3-2.9,0.5-5.5,0.2c-0.6,0.6,0.2,0.8-0.4,1.4c-3.7,1-2.9-2.6-5.6-1.2c-0.7,0.7-1,2-2.9,1.3
			l0.7-1.2c-2.5-0.1-1.4,1.7-4,0.9c0.5-0.5,2-0.4,1.6-0.5c-1.7-0.9-1.2,0.7-2.5,0.7l-0.3-1c-2.7,0.2-5.6,0.9-8.5,1.1
			c0.2-0.3,0.7-0.6,0-0.9c-3.7,0.5-7.9-0.1-11.5-0.7l-1.4,0.9c-0.3,0-0.6-0.4-0.2-0.6c-1.4-0.3-0.1,0.6-0.7,0.9
			c-0.8,0.1-1.1-0.5-0.5-0.8c-2.5,0.7-7,1.6-9.6,0.7l0.5-0.3c-2-0.4-2.3,1.8-4.2,1l0.4-0.2c-4.4-0.4-9.2,0.4-12.6-0.9
			c-0.6,1.3-4.3-0.6-4.6,1.2c-2.5-0.9-1.8-1.2-5.3-1.8c-0.9-0.1-1.4,1.1-2.6,1.3l0-0.9l-1.6,1l-0.8-1.1l-1.1,0.2
			c0.4,0.1,0.9,0.4,0.9,0.7c-1.7,0.4-4.2-0.6-4.2-1.1l-4,0.8c0.1-0.4,0.8-0.5,1.3-0.7c-2.2,0.9-0.4-1-2.4-0.1
			c0.3,0.2-0.1,0.6-0.2,0.7c-1-0.6-3.2-0.6-4.9-0.3l0.3-0.6c-3-0.2-6.3,0.3-9.7,0.3c1.2,0.3,0.9,1.4-0.1,1.5l-0.4-1
			c-0.6,0.6,1,0.4-0.3,1.1c-1.3-0.1-0.8-1.1-0.1-1.4l-1.5,0.3c-0.1-0.3,0.3-0.4,0.4-0.8c-0.6,0.6-2.6-1-3.5,0.1L28.7,73
			c-0.8,0-1.6,0-2.2,0c-0.2,0-0.3,0-0.5,0c-0.1,0-0.1,0-0.1,0l0,0l-0.1,0.1c-0.2,0.1-0.4,0.2-0.6,0.2c0,0,0,0-0.1,0
			c-0.8,0.8-0.6,0.4-1.3,0.5c0.1-0.3,0.2-0.5,0.3-0.7l0.2-0.3c0.1-0.1,0.1-0.1,0.1-0.5c0.2-1.1,0.3-2.3,0.3-3.5
			c-0.4-1.7-0.7-0.5-1.2-1.3c0.8-0.1,0.7-2.5,1.2-1.3c-0.1-2.9-0.2-3.7-0.8-7.4c-0.3,0.4-0.5,0.8-0.7,0.6c-0.1-0.7,0.3-1.5,0.7-1.4
			l0.1,0.2c-1.2-4.1,2.2-9.5,0.6-12.8l0.1,0.2l-0.8-3.4c0.1-1.6,0.6,0.9,1.1-0.2c-1.3-3.7,0.2-5.8-0.7-8.9c1.1-1.2,1.1-3.3,1-5.4
			c-0.1-1.1-0.2-2.2-0.2-3.3c0-0.5,0-1,0.1-1.5c0-0.2,0.1-0.5,0.1-0.7c0-0.1,0.1-0.2,0.1-0.3c0,0,0-0.1,0.1-0.1l0.1,0
			c0,0-0.5,0-0.5,0c-0.5-0.2,0.3-0.2,0.4-0.2c-0.4-0.1-0.5,0-0.8-0.2c-0.1-0.3-0.2-0.7-0.2-1.1c0.4,0,0.9,0.1,1.3,0.2
			c1.4,0.1,2.8,0.3,4.1,0.4c3,0.3,6,0.7,8.9,0.9c2.6,0.1,1.5-2.8,4.8-1.5l-0.9,1c5.3-1.2,10.7,0,15.9-1c-0.3,0.2-0.3,0.5-0.8,0.5
			c1.1,0.7,4,0,4-0.6c0.8,0.1,0.2,0.5,0.7,0.8c1.1,0.4,2.7-0.9,3.3-0.2c0.1,0.1-0.3,0.2-0.5,0.3c0.7-0.3,3.3,0.1,2.6-0.7
			c1.9,0.4,3.7-0.4,5.2,0.1c1-0.9,3.3,0.4,3.6-0.9c-0.1,1.4,3.4,1.1,4.6,0.5c-0.4,0.4,1.1,0.4,0.6,1c1.4,0,2.7-0.3,2.4-1
			c2.6,1.6,5.2-1.3,6.6,0.8c4.1-0.7,8-1.2,11.7-1.5c-0.1,1.4-4.1,0.1-4,1.6c3.5-0.6,5.6-1.7,9.1-1.4c0.9,0.2-0.5,0.6-0.8,0.8
			c3.5-0.6,6.8,0.1,10-0.6c0,0.1-0.3,0.3-0.7,0.4c0.6,0,1.4,0.2,1.4-0.4l-0.6,0.2c-1-0.9,2.5-1.9,2.6-2.3c-1,1.8,3.1,0.4,1.4,2.7
			c0.4-0.1,0.9-0.4,0.8-0.8c0.6,0.1,0.8,0.4,0.2,0.8c2.2-0.3,1.4-1,3.4-1c0,0.3-0.4,0.4-0.6,0.8c1-0.6,2-1.2,3.7-0.9
			c-0.1,0.2,0.1,0.4-0.4,0.4c2.9-0.1,5-1.5,8.2-1c-0.9,1.3,1.1,0.4,1.3,1.5l1.7-0.3l-0.7-0.5c1.5,0,2.8-0.8,4.1-0.4l-1.1,0.5
			l2.8-0.2l-1.6-0.4c1.5-0.6-0.2-1.4,1.8-1.1c-0.4,0.1,1.5,0,2.3,0.7l0,0c0.7-0.4,1.5-0.7,2.6-0.5c0.3,0.4-0.2,1.2,0,1.5
			c0.7-0.9,3.5-0.3,4.5-1.3c-0.3,0.2-0.3,0.8-0.2,0.9l0.6-0.8c0.7,0.2,0.8,0.4,0.7,0.8c2.1,0.1-0.7-1.4,1.8-0.8
			c-0.2,0.1-0.1,0.2-0.5,0.3c2.5,0.3,4.8-0.5,7.1-0.1c0.7,1.1-2,0.3-1.2,1.2c3.3-0.2,6.9-1.4,10.1-1.1l-0.6-0.1c0.4-1.6,2.4,0.8,4,0
			c-0.4,0.1-0.5,0.9-0.4,0.7c2.2,0.3,4.5-0.4,7.8-0.9l-0.4,0.4c1.3,0.4,3.4,0.2,4.8,0.4c0.4-0.4,1.2-0.3,0.7-0.9
			c0.6,0.3,1.2,0.5,1.7,0.7c0.5,0.1,0.7,0.2,1.1,0.2c0.7,0,1.4-0.2,2.4-0.4c0.2,0.4,0.3,1,0.3,1.7c0,0.3,0,0.7-0.1,1
			c-0.1,0.3-0.2,0.6-0.5,1.1c0-0.6-0.4-0.8-0.4-0.6c0,0,0,0,0.1,0.4c0,0.3,0.1,0.7,0.1,1.1c0.1,0.8,0.2,1.6,0.2,1.6
			c0.7-0.3,0.4-0.4,1-1.1c0.4,0.4,0.7,1.3,0.7,2.1c-0.5-1.5-1.1,0-1.5,0.6c0.2-0.1,0.4,0.1,0.7,0.1c-1.2,1.7,1.4,0.3,0.6,2.6
			l-0.4-0.1c0.2,0.9,0.7,1.7,0.6,2.6c-0.8,0.4-0.4-0.9-1-1c0,1.3,1.5,2.6,0.7,3.8c-0.2-0.6-0.2-1.4-0.4-1.9
			c-0.9,1.3-0.7,1.4-0.9,2.4l0-0.1l-0.4,2.2l0.3-0.6c2.1,1.6,0.4,3.4,1.8,5.6c-1.3-2.2-0.8-0.4-1.7-0.5c-0.3,0.6-0.5,1.4-0.8,1.2
			c0.7,1-0.6,1.8,0.5,3.2c-0.3,0.1,0,1.1-0.8,0.9c0.2,1.4,0.5-0.3,0.9-0.2c1,2.1-1.2,4.9,0.2,8c0.6,2.6,1.6,3.1,2,5.5
			c-0.5,0.8-1.1-0.7-1.1-0.7c-0.4,1.3-0.4,2.3,0,3.5c-0.3-0.3-0.5,0-0.8,0.4c0.1,1,1.1,0.7,0.6,2c-0.3-0.2-0.8-0.5-1.2-1
			c0.3,1.2,0.8,2.3,1.1,3.5c-0.5,0.3-0.8-0.7-1.1-1.2c0.2,1.4,0.5,3.5,1.3,4l0.3-0.9c0,0.5-0.7,0.3-0.8-0.1
			c-0.6-1.2,0.3-1.7,0.6-1.8l0.2,0.9c1.7-0.9-0.3-3.5-0.2-5.2l1.2,0.7l-1-1.8c0.3-0.4,1-0.6,1.2,0.2c0.6-1.2-0.4-1.1,0.2-2.2
			c0.1-0.1,0.2-0.1,0.2,0l-0.4-1.2c0.3,0.2,0.9-0.2,0.7,0.5c0.7-2.2-0.9-3.5,0-4.4l0.1,0.2c-0.4-3-0.9-0.3-2-2.6l2.3-1.5l-0.9-0.3
			c0-0.3,0.1-0.9,0.5-0.8c-0.6-1.2-0.4,0.2-1-0.5c0.8-1.5-0.4-4.2,1.1-4.5c-0.7-0.5-0.5,1.4-1-0.2c1.6-0.5-0.3-1.9,0.5-3.2
			c0.8,0.4,0.4,1.7,1.1,0.3c-1.4-0.8,0.3-2.7,0-3.8c-1.1-0.1-0.5-2.5-0.8-4.5c0.4,0.1,0.6-3.7,1-5.5l0.2,0.1
			c-1.1-0.4-0.9-2.2-1.1-3.6c0.7,0.1,0.9,0.3,1.2,1l0-1.3c-0.4-0.3-0.5-0.7-0.7-1.5l0.8,0.3c0-0.4-0.1-0.9-0.2-1.3
			c0-0.2-0.1-0.5-0.1-0.7c0-0.3-0.1-0.6-0.1-0.9c-0.2-1.3-0.3-2.5,0-4.2c-0.4,0.2-0.9,1.2-1.4,1.7c-0.5,0.5-1,0.6-1.2-0.1
			c0.4-0.4,1.1-1.2,1.3-0.7c0-0.2-0.3-0.4-0.2-0.9c0,0-0.1,0-0.1,0l0.2-0.1c0.2,0.1,0.4,0.2,0.6,0.4c0.2-0.9-0.1-0.8-0.3-0.7
			c-0.2,0.1-0.5,0.3-0.8,0.2c0.6-0.6-0.3-0.4,0.2-0.9c0.3-0.1,0.7,0.2,1.3,0l0,0l0,0c-1-0.1-2.3-0.5-2.6-0.9
			c-0.1,0.3-0.4,0.8-1.3,0.9c-1.1,0-1.3-0.2-1.3-0.4c0-0.2,0.1-0.5-0.7-0.6c-0.4,0.2-0.7,0.2-1.1,0.3c-0.3,0.1-0.6,0.2-0.6,0.6
			c-0.5,0-0.6-0.4-0.8-0.7c-0.9,0.4-4.1,0.1-3.1,1.1l0.2,0.1c0,0-0.1,0-0.1,0c0,0,0,0,0,0h0c-2.9,0.9-6-0.5-8.9-0.1l0-0.3
			c-1.7,0.3-3.8,0.2-5,0.8c-0.5,0-1.2-0.5-1-0.9c-1.3,0.2-1.5,0.6-3.3,0.1c1.3-0.5-0.5-0.5,1.3-0.4c-1.7-0.3-2.1-0.7-3.9,0.1
			c0.6-0.8-1.3-1-2.1-0.7l1.2,0.5c-0.9,0.1-1.7,0-2.5,0l0.4-1c-3.5-1.2-6.3,2.1-8.9,0c-0.9,0.7,1.9,0.5,1.1,1.3
			c-1.6-0.1-3.3-1.6-3.8-1.6c-2.2-0.6-2,1.5-4.3,1.1c0.3,0.4,0.6,1.3-1.1,1.6c-1.6-0.1-2-1.5-1-1.8c0.4,0,0.6,0.1,0.6,0.2
			c0.5-0.1,1.2-0.3,0.6-0.7l-0.2,0.4c-0.8-0.4-3-0.3-2.5-0.9c-1.2,0.3-0.5,0.6,0.4,0.8c-2.1-0.5-3.2,0-5.3-0.4
			c0.3,0.2,0.6,0.6,0.3,0.6c-3.1-0.4-1.4,0.7-3.5,0.8c-1.2-0.5,0.4-1.3-1.7-0.8c-1.3-0.4-0.3-0.9,0.2-1.2c-1.9,0.7-3.6-0.5-4.7-0.6
			l1-0.3c-0.6,0.2-1.1,0.2-1.6,0.2l0.6,0.7c-0.6-0.1-1.1-0.1-1.1-0.4c-0.6,0.5,0.5,1.2-0.7,1.8c-0.8-0.4-2.4,0.4-2.7-0.6
			c2.5,0.3-0.3-0.9,1.8-1.1c-0.4,0.1-0.9,0.1-1.5,0c-0.1-0.1,0.1-0.2,0.2-0.2c-2.4-0.8-1.1,1.1-3.6,1c0.3-0.5-0.6-1-1-0.9
			c1,0,0.5,0.9-0.4,1.3c-1.6-0.4-1.7,0.3-2.6,0.3l1,0.2c-0.3,0.5-1.1,0.5-2.2,0.6c-0.1-0.4,1-0.3,0.6-0.5c-1.2,0.9-2.8-1-4.5-0.3
			c-0.8-0.4-0.1-1-0.8-1.2c-1.9,0.7-2.1-0.7-4.1-0.2c0.6,0.7,0.7,0.5-0.7,1.2l3.3-0.5l-2.1,1c1,0,2.1-0.4,2.7-0.3
			c-1,0.6-0.9,0.4-0.4,1c-1.4-1.1-2.7,0.6-4.3-0.1l0-1.8c-2.4-0.8-4.2,0.9-7.3,0.5l1,0.3c-0.4,0.7-1.9,0.1-2.9,0.4
			c0.1-0.6-0.5-0.8-1-1.2c0.1,0.4-2.3,0-2.5,1.1L90,14.1c-2.5-0.3-2.9,1.7-5.3,1.5c0.7-0.6-0.4-1.1,1.2-1.5c-0.8,0-1.5-0.1-1.5,0.3
			c-0.5-0.4-2.2,0.8-3,0.2c-0.3,0.3-0.4,0.9-1.4,0.8c-0.1-0.1,0-0.3,0-0.3c0,0.3-1.4,0.4-0.6,1.1c-2.5-1.8-6.9,0.1-9.1-1.5
			c-1.8,0.2-3.9,0.4-5.5,0.4c0.1-0.2,0-0.3,0.3-0.2c-2.2-0.6-1.3,1.7-3.8,1.1c-1.3-1,1.3-0.5,0.5-0.9c-0.3-1.9-3,0.3-4.7-0.9
			l0.4-0.1c-1.3-0.7-3.1,0.7-5.2,0.6c0,0,0.1-0.2,0-0.3c-1.4,1-4.2,1.3-6.2,1.6c0.6-0.8,0.9-0.4,0.5-1.2c-0.9,0.1,0.3,1.2-1.5,1.5
			c-0.6-0.4-1.9-0.8-2.1-1.6l1.7,0c-0.9-1.1-2.2,0-3.1-0.1l0.1-0.5c-2.6,0.2-2.6,1.3-5.5,1.2l0.3,0.4c-1.5,1.2-1.3-0.7-2.8,0.2
			l-0.5-1.2c-1,0.3-3.5,1.1-5.4,1.4c1-0.9,3.2-1.3,4.5-1.8c-1,0-3.4,0.1-3.9,0.7c0.4-0.1,0.9-0.4,1.3-0.2c-0.6,0.5-1.3,0.8-2.1,1
			c-0.4,0.1-0.8,0.2-1.3,0.3c-0.2,0-0.5,0-0.7,0.1c-0.3,0-0.6,0-0.9,0c0.2-1.5-3.2-1.3-6.3-1.5c-0.1,1.5-0.3,2.9-0.9,3.4
			c0.1,0.8,0.2,1.5,0.2,2.3l0.1,1.1l0,0.8c0,0.9-0.1,1.8-0.1,2.7c-0.2,1.8-0.4,3.7-0.4,5.8c1.8-1.5,0.1,1.2,1.9,0.9
			c0.1,1,0.1,1.3,0,1.4l-1.1,2.9c-0.5,0.7-0.4-0.9-0.8-0.8c-0.1,2.1-0.8,0.9-1.3,2.3c0.7-0.3,0.9,0.7,0.7,1.9l0.8-1.7
			c1,2.9-1.5,2.5-0.6,5.5l-0.6-0.9c0.3,1.5,0,5.6,1.5,7.1c-0.2,0.3-0.7,0.6-0.8,0c-0.2,3.6,1.6,8.1,0.7,10.9l-0.4-0.3
			c0.1,0.7,0.8,1.2,0.4,2c-0.2,0-0.4-0.3-0.5,0c0.2,0.4,0.8,1.8,0.5,2.7l-0.5-0.8c-0.6,3.5,1.2,5.4,1.5,8.4c-1.3-0.6-1.7,4.6-2,7.4
			l-0.2,0.1c0,0.8,0,1.5,0,2.1c3.4,0,6.6-0.3,9.2-0.7c1.5-0.3,3.1-0.7,4.8-1c2.4,1.4,8,0.6,11.8,1.4c-0.6-0.2,0.1-1,0.8-1.2
			c0.9,0.3,2.5-0.9,2.3,0.3l-0.3,0c0.7,1.2,2.5,0.9,3.9,0.9l0.2-1.6c3.8,2.3,9.8-0.8,11.9,1.2c0.9-0.4,2-0.4,2.9-0.8l0,0.8
			c2.5,0.2,3.8,0.3,6.9,0.1L70.5,82c1.7,0.1,2.2-2.4,3.8-2.5l0.5,1.3c3.1,0,6.1,1.1,9.2-0.1c0,0.2-0.1,0.6-0.6,0.6
			c1.4,0,5.6,0.9,5-0.9c0,1.1,3.1,0.1,4.8-0.4l-0.3,0.8c1.4-1.1,1.4-1.4,3.4-1.7c0.5,0.1,0.4,0.7-0.2,0.5c1.5,0.4,1.2-0.8,3.1-0.3
			l-0.7,0.5c1.6,0.1,1.5-0.2,2.3-0.8c1-0.3,3,0.2,3.2,1c0.2-0.5,1.1-1.1,2-0.9c0.1,0.3-0.2,0.5-0.4,0.5c2.6,0.6,3.9-1,5.7-0.2
			c0,0.3,0.2,0.4,0.3,0.5c-2.1,0-3.8-0.1-3.6-0.1c0,0.8,1.7,0.9,0.3,2c1.4-0.6,3.7-1.8,5.3-1.5c0.1,0.1,0.2,0.1,0.2,0.3l-0.2,0.1
			c0.4,0.1,0.7,0,1-0.1c0.5,0.1,0.9,0.2,1.4,0.2c0.2,0.6,1.9,0.3,2.8,0.4c-0.1-0.8,1-0.7,0-1.4c0.1,0.1-0.2,0.1-0.7,0.1
			c-0.1,0-0.3,0-0.4,0.1c0,0,0,0,0.1-0.1c-0.6,0-1.3,0-2.1,0.1c0.7-0.4,1.4-0.8,2.3-0.3c0.4-0.5,0.9-1.1,1.2-1.4
			c1.2,1.2,3.4,1.8,3.7,2.5c2.6-0.5,6.1-0.3,7.7-1.9c0.7-0.2,0.8,0.5,1.1,0.7c-0.4,0.2-0.9,0.1-1.2,0.4c1.5-0.4,4.3-0.2,4.7-1.3
			c1.8,0.5-1,1,1.5,0.8l-0.3,0.3c5,1.8,8.1-2.8,13.7-0.6c-0.4-0.1-0.6-0.2-0.7-0.4c6.3,1,13-0.9,19.2,0.6c1.8,0.3,2-0.4,3-0.9
			l0.4,0.9l1.8-1c2.6-0.8,4.5,2.2,7.9,0.8l-0.4-0.6c1.2,0.1,3.8-0.4,3.6,0.3c0.1-0.1,0.4-0.6,0.9-0.3l0,0.5l2.9-0.8
			c2.3,0.3-0.4,1.9,3,2c1.2-0.2,3.5-1.4,3-1.7c-0.5,0-1.3-0.3-1.3-0.8l1.1-0.2c0.2-1.4,1.1-2.8-1.7-3.8l-1.9,0.9l-0.6-0.7l1.6,0
			c-0.9-0.6-1.5-0.1-2.2,0.3c-0.2-0.4-0.4-0.6-0.8-0.7l-1.9,1.3c-0.2-0.5,0.8-1.1-0.4-1.4c-0.9,0.6,0.8,1.2-0.6,1.6
			c-0.9-0.6-0.7-1.2-1.7-0.6c-0.2-0.4,0.1-0.6,0.5-0.7c-1,0.4-2.5,0.2-3,0.9c-1-0.8-3.2,0.2-3.2-1.1c-0.3,0.3-1.7,1-2.6,1.1
			c1.6-1.6-3.3-0.1-2.9-1.8c-1.2,1.4-4.3,0.6-6.4,1.4c0.1-0.1,0.4-0.3,0.5-0.3c-1.2-0.1-1.5-0.5-2.3-0.8c-0.2,1.2-2,1.4-3,2.2
			c-1.5-1.1,0.9-1.4,0.4-2.5c0.1,1-2.5,1-2,1.7c-1.1-0.7-1-0.3-1.5-1.3c-0.2,1.5-1,0.2-2,1.2c-1.6-0.7-0.4-1.4-2.2-0.9
			C153.9,73.2,155.5,72.7,155.5,72.7z M113.3,75.2C113.3,75.2,113.3,75.2,113.3,75.2c0.4,0,0.7-0.1,0.9-0.1
			C114,75.2,113.7,75.2,113.3,75.2z M109.7,75.2c0.4,0,1,0,1.5,0c0.1,0.3,0,0.6-0.4,0.6C111.1,75.6,110.3,75.5,109.7,75.2z
			 M117.2,81.1c-0.6,0.1-0.7,0-0.8-0.2c0.3,0,0.6,0,1-0.1c0,0,0-0.1,0.1-0.1C117.4,80.8,117.3,81,117.2,81.1z"/>
		<path fill="#C95156" d="M118.2,80c0.1,0,0.1-0.1,0.2-0.1c-0.1-0.1-0.2-0.1-0.3-0.2c-0.1,0.1-0.1,0.2-0.2,0.3
			C118,80,118.2,80,118.2,80z"/>
		<path fill="#C95156" d="M184.9,15.7L184.9,15.7c0,0,0,0,0.1,0.1C184.9,15.7,184.9,15.7,184.9,15.7z"/>
		<polygon fill="#C95156" points="60.7,73.6 60.7,73.8 61.1,73.7 		"/>
		<path fill="#C95156" d="M193.2,26.4c-0.1,0-0.2,0.1-0.2,0.3C193.1,26.7,193.2,26.6,193.2,26.4z"/>
		<path fill="#C95156" d="M193.1,34.9l-0.3,1.2C192.9,35.6,193,35.2,193.1,34.9z"/>
		<path fill="#C95156" d="M192.6,41.4c0.1,0.1,0.3,0.1,0.4,0.1l0,0L192.6,41.4z"/>
		<path fill="#C95156" d="M116.1,20.2c-0.1,0-0.2,0-0.3,0C115.3,20.4,115.7,20.3,116.1,20.2z"/>
		<path fill="#C95156" d="M146.9,18.2c-0.3,0.2-0.6,0.3-1,0.4C146.4,18.7,146.8,18.7,146.9,18.2z"/>
		<path fill="#C95156" d="M81.9,21.2C81.9,21.2,81.9,21.2,81.9,21.2c-0.1,0-0.1,0-0.2,0L81.9,21.2z"/>
		<path fill="#C95156" d="M144.4,18.6c0.5,0.2,1,0.1,1.4,0C145.4,18.5,144.9,18.5,144.4,18.6z"/>
		<path fill="#C95156" d="M192.3,69.5l0,0.3c0.1,0,0.1,0,0.1,0L192.3,69.5z"/>
		<path fill="#C95156" d="M192.4,69.9l0.1,0.3C192.5,70,192.5,69.9,192.4,69.9z"/>
		<path fill="#C95156" d="M192.7,70.9l-0.2-0.7C192.5,70.5,192.4,70.8,192.7,70.9z"/>
		<path fill="#C95156" d="M192.7,60.9l-0.3-0.1C192.4,60.9,192.5,60.9,192.7,60.9z"/>
		<path fill="#C95156" d="M192.6,58.3c-0.1,0.6-0.7,1.6-0.5,2.4l0.2,0.1C191.9,60.4,193.1,58.9,192.6,58.3z"/>
		<path fill="#C95156" d="M196.3,47.4l-0.2,2.2c0.3-0.4,0.8-0.9,0.8,0.1C197.9,46.9,196.2,50.3,196.3,47.4z"/>
		<path fill="#C95156" d="M196.8,40.6c0.2,1.2,0.5,0,0.7,0C197.2,39.9,197.1,39.7,196.8,40.6z"/>
		<path fill="#C95156" d="M169.6,15l0.1-0.8C168.8,14.3,169.7,14.5,169.6,15z"/>
		<polygon fill="#C95156" points="160.2,19 161.1,19.4 161.5,18.7 		"/>
		<polygon fill="#C95156" points="154.7,13.5 155,13.4 153.5,13.7 		"/>
		<path fill="#C95156" d="M72.3,13.8l0.3,0.9C73.2,14.6,73.3,13.5,72.3,13.8z"/>
		<path fill="#C95156" d="M36.8,14.7c-0.4-0.5-1.4-0.8-2-0.3C35.6,14.5,36.4,14.9,36.8,14.7z"/>
		<polygon fill="#C95156" points="51.3,81.2 50.6,81.5 51.9,81.3 		"/>
	</g>
</g>
<g>
	<path fill="#C1383D" d="M77.7,40.8c-0.5,0.2-1.2,0.4-2.1,0.6s-1.7,0.3-2.6,0.3c-2,0-3.5-0.5-4.6-1.6s-1.7-2.6-1.7-4.5
		c0-1.8,0.6-3.3,1.7-4.4c1.1-1.1,2.7-1.7,4.7-1.7c0.8,0,1.5,0.1,2.2,0.2s1.5,0.4,2.3,0.8v2.7h-0.3c-0.1-0.1-0.4-0.3-0.6-0.5
		s-0.6-0.4-0.8-0.5c-0.3-0.2-0.7-0.3-1.1-0.4c-0.4-0.1-0.8-0.2-1.3-0.2c-0.5,0-1,0.1-1.4,0.2c-0.4,0.2-0.8,0.4-1.2,0.7
		c-0.3,0.3-0.6,0.7-0.8,1.2s-0.3,1-0.3,1.7c0,1.3,0.3,2.3,1,3s1.7,1,3,1c0.1,0,0.2,0,0.4,0s0.3,0,0.4,0l0-2.3l-2.3,0V35l5.4,0
		L77.7,40.8z"/>
	<path fill="#C1383D" d="M88.9,41.4h-2.8v-1c-0.5,0.4-1,0.7-1.4,0.9s-0.9,0.3-1.5,0.3c-1,0-1.7-0.3-2.2-0.8s-0.8-1.4-0.8-2.5l0-5.7
		H83V37c0,0.4,0,0.8,0,1.1s0.1,0.5,0.2,0.7c0.1,0.2,0.2,0.3,0.4,0.4c0.2,0.1,0.5,0.1,0.8,0.1c0.2,0,0.5,0,0.8-0.1s0.6-0.2,0.8-0.4
		l0-6.2h2.8L88.9,41.4z"/>
	<path fill="#C1383D" d="M95.8,28.3l0,0.2L93,31.4l-1.9,0l1.9-3.1H95.8z M94.4,41.4l-2.8,0l0-8.8l2.8,0L94.4,41.4z"/>
	<path fill="#C1383D" d="M102.4,40.5c-0.2,0.1-0.3,0.3-0.6,0.4s-0.4,0.3-0.6,0.4c-0.3,0.1-0.6,0.2-0.9,0.3s-0.6,0.1-1,0.1
		c-0.8,0-1.5-0.3-2.1-0.8s-0.8-1.2-0.8-2c0-0.6,0.1-1.2,0.4-1.6c0.3-0.4,0.7-0.7,1.2-1c0.5-0.2,1.2-0.4,1.9-0.5s1.6-0.2,2.4-0.2v0
		c0-0.5-0.2-0.8-0.6-1s-1-0.3-1.8-0.3c-0.5,0-1,0.1-1.5,0.2s-0.9,0.3-1.1,0.4h-0.3v-2.1c0.3-0.1,0.8-0.2,1.4-0.3s1.3-0.2,2-0.2
		c1.6,0,2.8,0.2,3.5,0.7s1.1,1.3,1.1,2.3l0,6h-2.8V40.5z M102.4,39.1v-1.8c-0.4,0-0.8,0.1-1.2,0.1c-0.4,0.1-0.8,0.1-1,0.2
		c-0.3,0.1-0.5,0.2-0.6,0.4c-0.1,0.2-0.2,0.4-0.2,0.7c0,0.2,0,0.3,0,0.4s0.1,0.2,0.2,0.3c0.1,0.1,0.3,0.2,0.4,0.2
		c0.2,0,0.4,0.1,0.8,0.1c0.3,0,0.6-0.1,0.9-0.2S102.2,39.3,102.4,39.1z"/>
	<path fill="#C1383D" d="M122.4,36.9c0,0.7-0.1,1.4-0.3,2c-0.2,0.6-0.5,1.1-0.9,1.5c-0.4,0.4-0.8,0.7-1.3,0.9s-1,0.3-1.5,0.3
		c-0.5,0-0.9-0.1-1.3-0.2s-0.7-0.3-1.1-0.4v3.7h-2.8l0-12h2.8v0.9c0.4-0.3,0.9-0.6,1.3-0.8c0.5-0.2,1-0.3,1.6-0.3
		c1.1,0,1.9,0.4,2.5,1.2S122.4,35.5,122.4,36.9z M119.5,37c0-0.9-0.1-1.5-0.4-1.9c-0.3-0.4-0.8-0.6-1.4-0.6c-0.3,0-0.5,0-0.8,0.1
		c-0.3,0.1-0.5,0.2-0.8,0.3l0,4.4c0.2,0.1,0.4,0.1,0.6,0.1c0.2,0,0.4,0,0.6,0c0.7,0,1.3-0.2,1.7-0.7C119.3,38.5,119.5,37.9,119.5,37
		z"/>
	<path fill="#C1383D" d="M129.7,40.5c-0.2,0.1-0.3,0.3-0.6,0.4s-0.4,0.3-0.6,0.4c-0.3,0.1-0.6,0.2-0.9,0.3c-0.3,0.1-0.6,0.1-1,0.1
		c-0.8,0-1.5-0.3-2.1-0.8s-0.8-1.2-0.8-2c0-0.6,0.1-1.2,0.4-1.6c0.3-0.4,0.7-0.7,1.2-1c0.5-0.2,1.2-0.4,1.9-0.5
		c0.8-0.1,1.6-0.2,2.4-0.2v0c0-0.5-0.2-0.8-0.6-1s-1-0.3-1.8-0.3c-0.5,0-1,0.1-1.5,0.2s-0.9,0.3-1.1,0.4h-0.3v-2.1
		c0.3-0.1,0.8-0.2,1.4-0.3s1.3-0.2,2-0.2c1.6,0,2.8,0.2,3.5,0.7s1.1,1.3,1.1,2.3l0,6h-2.8V40.5z M129.7,39.1v-1.8
		c-0.4,0-0.8,0.1-1.2,0.1c-0.4,0.1-0.8,0.1-1,0.2c-0.3,0.1-0.5,0.2-0.6,0.4c-0.1,0.2-0.2,0.4-0.2,0.7c0,0.2,0,0.3,0,0.4
		s0.1,0.2,0.2,0.3c0.1,0.1,0.3,0.2,0.4,0.2c0.2,0,0.4,0.1,0.8,0.1c0.3,0,0.6-0.1,0.9-0.2S129.5,39.3,129.7,39.1z"/>
	<path fill="#C1383D" d="M141.5,35.3h-0.2c-0.1,0-0.3-0.1-0.6-0.1c-0.3,0-0.5,0-0.7,0c-0.4,0-0.8,0-1.1,0.1s-0.6,0.1-1,0.3l0,5.9
		l-2.8,0l0-8.8l2.8,0v1.3c0.6-0.5,1.2-0.9,1.6-1.1s0.9-0.3,1.3-0.3c0.1,0,0.2,0,0.3,0c0.1,0,0.2,0,0.3,0V35.3z"/>
	<path fill="#C1383D" d="M148.4,40.5c-0.2,0.1-0.3,0.3-0.6,0.4s-0.4,0.3-0.6,0.4c-0.3,0.1-0.6,0.2-0.9,0.3s-0.6,0.1-1,0.1
		c-0.8,0-1.5-0.3-2.1-0.8s-0.8-1.2-0.8-2c0-0.6,0.1-1.2,0.4-1.6c0.3-0.4,0.7-0.7,1.2-1c0.5-0.2,1.2-0.4,1.9-0.5
		c0.8-0.1,1.6-0.2,2.4-0.2v0c0-0.5-0.2-0.8-0.6-1s-1-0.3-1.8-0.3c-0.5,0-1,0.1-1.5,0.2s-0.9,0.3-1.1,0.4h-0.3v-2.1
		c0.3-0.1,0.8-0.2,1.4-0.3s1.3-0.2,2-0.2c1.6,0,2.8,0.2,3.5,0.7s1.1,1.3,1.1,2.3l0,6h-2.8V40.5z M148.4,39.1v-1.8
		c-0.4,0-0.8,0.1-1.2,0.1c-0.4,0.1-0.8,0.1-1,0.2c-0.3,0.1-0.5,0.2-0.6,0.4c-0.1,0.2-0.2,0.4-0.2,0.7c0,0.2,0,0.3,0,0.4
		s0.1,0.2,0.2,0.3c0.1,0.1,0.3,0.2,0.4,0.2c0.2,0,0.4,0.1,0.8,0.1c0.3,0,0.6-0.1,0.9-0.2S148.1,39.3,148.4,39.1z"/>
	<path fill="#C1383D" d="M69.9,57c0,1.1-0.5,2.1-1.5,2.8s-2.3,1.1-4,1.1c-1,0-1.8-0.1-2.5-0.3s-1.4-0.4-2-0.6v-2.8h0.3
		c0.6,0.5,1.3,0.9,2.1,1.1s1.5,0.4,2.2,0.4c0.2,0,0.4,0,0.7,0s0.5-0.1,0.7-0.2c0.2-0.1,0.4-0.2,0.6-0.4s0.2-0.3,0.2-0.6
		c0-0.3-0.1-0.5-0.3-0.7s-0.5-0.3-0.9-0.4c-0.4-0.1-0.9-0.2-1.4-0.3c-0.5-0.1-0.9-0.2-1.4-0.3c-1-0.3-1.7-0.7-2.1-1.3
		c-0.4-0.5-0.6-1.2-0.6-2c0-1.1,0.5-2,1.5-2.7s2.2-1,3.7-1c0.8,0,1.5,0.1,2.3,0.2s1.4,0.3,1.9,0.6v2.7h-0.3c-0.5-0.4-1-0.7-1.7-0.9
		s-1.4-0.4-2.1-0.4c-0.2,0-0.5,0-0.7,0.1s-0.5,0.1-0.7,0.2c-0.2,0.1-0.4,0.2-0.5,0.4s-0.2,0.3-0.2,0.5c0,0.3,0.1,0.5,0.4,0.7
		s0.7,0.3,1.3,0.4c0.4,0.1,0.8,0.2,1.2,0.3c0.4,0.1,0.8,0.2,1.3,0.3c0.9,0.3,1.5,0.7,2,1.2C69.6,55.5,69.9,56.2,69.9,57z"/>
	<path fill="#C1383D" d="M80.4,56.8l-6.4,0c0,0.7,0.3,1.2,0.8,1.6c0.5,0.4,1.2,0.5,2.1,0.5c0.6,0,1.2-0.1,1.7-0.3s1-0.4,1.3-0.7h0.3
		v2.3c-0.6,0.3-1.2,0.4-1.8,0.6s-1.2,0.2-1.9,0.2c-1.8,0-3.1-0.4-4-1.2s-1.4-1.9-1.4-3.4c0-1.4,0.4-2.6,1.3-3.4s2.1-1.3,3.7-1.3
		c1.4,0,2.5,0.4,3.2,1.1s1.1,1.8,1.1,3.1V56.8z M77.6,55.1c0-0.6-0.2-1-0.4-1.3s-0.7-0.4-1.3-0.4c-0.5,0-1,0.1-1.3,0.4
		c-0.3,0.3-0.5,0.7-0.6,1.4L77.6,55.1z"/>
	<path fill="#C1383D" d="M87,60.9c-0.8,0-1.5-0.1-2.1-0.3s-1.2-0.5-1.7-0.8c-0.5-0.4-0.8-0.9-1.1-1.4s-0.4-1.3-0.4-2
		c0-0.8,0.1-1.5,0.4-2.1s0.7-1.1,1.1-1.5c0.5-0.4,1-0.6,1.6-0.8s1.3-0.3,1.9-0.3c0.6,0,1.2,0.1,1.7,0.2s1,0.3,1.4,0.5v2.4h-0.4
		c-0.1-0.1-0.2-0.2-0.4-0.3s-0.3-0.2-0.6-0.4c-0.2-0.1-0.4-0.2-0.7-0.3s-0.6-0.1-0.9-0.1c-0.7,0-1.3,0.2-1.7,0.7s-0.6,1.1-0.6,1.9
		c0,0.8,0.2,1.5,0.6,1.9s1,0.7,1.8,0.7c0.4,0,0.7,0,1-0.1s0.5-0.2,0.7-0.3c0.2-0.1,0.3-0.2,0.5-0.3c0.1-0.1,0.3-0.2,0.4-0.3h0.4v2.4
		c-0.4,0.2-0.9,0.4-1.4,0.5S87.5,60.9,87,60.9z"/>
	<path fill="#C1383D" d="M100.5,60.6h-2.8v-1c-0.5,0.4-1,0.7-1.4,0.9s-0.9,0.3-1.5,0.3c-1,0-1.7-0.3-2.2-0.8
		c-0.5-0.6-0.8-1.4-0.8-2.5l0-5.7l2.8,0l0,4.4c0,0.4,0,0.8,0,1.1s0.1,0.5,0.2,0.7c0.1,0.2,0.2,0.3,0.4,0.4s0.5,0.1,0.8,0.1
		c0.2,0,0.5,0,0.8-0.1s0.6-0.2,0.8-0.4l0-6.2h2.8L100.5,60.6z"/>
	<path fill="#C1383D" d="M112,60.6l-2.8,0v-4.4c0-0.4,0-0.7-0.1-1.1c0-0.4-0.1-0.6-0.2-0.8c-0.1-0.2-0.3-0.3-0.5-0.4
		s-0.5-0.1-0.8-0.1c-0.3,0-0.5,0-0.8,0.1s-0.5,0.2-0.9,0.4l0,6.2h-2.8l0-8.8h2.8v1c0.5-0.4,1-0.7,1.4-0.9s1-0.3,1.5-0.3
		c0.9,0,1.7,0.3,2.2,0.8s0.8,1.4,0.8,2.5L112,60.6z"/>
	<path fill="#C1383D" d="M123.1,60.6h-2.8v-0.9c-0.5,0.4-0.9,0.7-1.4,0.9c-0.4,0.2-0.9,0.3-1.5,0.3c-1.1,0-1.9-0.4-2.6-1.2
		s-1-1.9-1-3.3c0-0.7,0.1-1.4,0.3-2c0.2-0.6,0.5-1.1,0.9-1.5c0.4-0.4,0.8-0.7,1.3-0.9s1-0.3,1.5-0.3c0.5,0,1,0.1,1.3,0.2
		c0.3,0.1,0.7,0.3,1,0.4v-3.7h2.8L123.1,60.6z M120.3,58.2l0-4.3c-0.2-0.1-0.4-0.1-0.6-0.2c-0.2,0-0.4-0.1-0.6-0.1
		c-0.7,0-1.3,0.2-1.7,0.7c-0.4,0.5-0.6,1.1-0.6,1.9c0,0.9,0.1,1.5,0.4,1.9s0.8,0.6,1.4,0.6c0.3,0,0.5,0,0.8-0.1
		C119.8,58.5,120.1,58.4,120.3,58.2z"/>
	<path fill="#C1383D" d="M131.1,59.7c-0.2,0.1-0.3,0.3-0.6,0.4s-0.4,0.3-0.6,0.4c-0.3,0.1-0.6,0.2-0.9,0.3s-0.6,0.1-1,0.1
		c-0.8,0-1.5-0.3-2.1-0.8s-0.8-1.2-0.8-2c0-0.6,0.1-1.2,0.4-1.6s0.7-0.7,1.2-1c0.5-0.2,1.2-0.4,1.9-0.5c0.8-0.1,1.6-0.2,2.4-0.2v0
		c0-0.5-0.2-0.8-0.6-1s-1-0.3-1.8-0.3c-0.5,0-1,0.1-1.5,0.2s-0.9,0.3-1.1,0.4h-0.3V52c0.3-0.1,0.8-0.2,1.4-0.3
		c0.7-0.1,1.3-0.2,2-0.2c1.6,0,2.8,0.2,3.5,0.7s1.1,1.3,1.1,2.3l0,6h-2.8V59.7z M131.1,58.3v-1.8c-0.4,0-0.8,0.1-1.2,0.1
		c-0.4,0.1-0.8,0.1-1,0.2c-0.3,0.1-0.5,0.2-0.6,0.4c-0.1,0.2-0.2,0.4-0.2,0.7c0,0.2,0,0.3,0,0.4s0.1,0.2,0.2,0.3
		c0.1,0.1,0.3,0.2,0.4,0.2c0.2,0,0.4,0.1,0.8,0.1c0.3,0,0.6-0.1,0.9-0.2S130.9,58.5,131.1,58.3z"/>
	<path fill="#C1383D" d="M142.8,54.5h-0.2c-0.1,0-0.3-0.1-0.6-0.1c-0.3,0-0.5,0-0.7,0c-0.4,0-0.8,0-1.1,0.1s-0.6,0.1-1,0.3l0,5.9
		l-2.8,0l0-8.8l2.8,0v1.3c0.6-0.5,1.2-0.9,1.6-1.1s0.9-0.3,1.3-0.3c0.1,0,0.2,0,0.3,0c0.1,0,0.2,0,0.3,0V54.5z"/>
	<path fill="#C1383D" d="M147.3,50.6l-3,0v-2.1l3,0V50.6z M147.2,60.6l-2.8,0l0-8.8l2.8,0L147.2,60.6z"/>
	<path fill="#C1383D" d="M155.2,59.7c-0.2,0.1-0.3,0.3-0.6,0.4c-0.2,0.2-0.4,0.3-0.6,0.4c-0.3,0.1-0.6,0.2-0.9,0.3s-0.6,0.1-1,0.1
		c-0.8,0-1.5-0.3-2.1-0.8s-0.8-1.2-0.8-2c0-0.6,0.1-1.2,0.4-1.6s0.7-0.7,1.2-1c0.5-0.2,1.2-0.4,1.9-0.5c0.8-0.1,1.6-0.2,2.4-0.2v0
		c0-0.5-0.2-0.8-0.6-1c-0.4-0.2-1-0.3-1.8-0.3c-0.5,0-1,0.1-1.5,0.2s-0.9,0.3-1.1,0.4H150V52c0.3-0.1,0.8-0.2,1.4-0.3s1.3-0.2,2-0.2
		c1.6,0,2.8,0.2,3.5,0.7s1.1,1.3,1.1,2.3l0,6h-2.8V59.7z M155.2,58.3v-1.8c-0.4,0-0.8,0.1-1.2,0.1c-0.4,0.1-0.8,0.1-1,0.2
		c-0.3,0.1-0.5,0.2-0.6,0.4c-0.1,0.2-0.2,0.4-0.2,0.7c0,0.2,0,0.3,0,0.4s0.1,0.2,0.2,0.3c0.1,0.1,0.3,0.2,0.4,0.2
		c0.2,0,0.4,0.1,0.8,0.1c0.3,0,0.6-0.1,0.9-0.2C154.7,58.7,155,58.5,155.2,58.3z"/>
</g>
</svg>
