<?xml version="1.0" encoding="utf-8"?>
<!-- Generator: Adobe Illustrator 19.1.0, SVG Export Plug-In . SVG Version: 6.00 Build 0)  -->
<svg version="1.1" id="Layer_1" xmlns="http://www.w3.org/2000/svg" xmlns:xlink="http://www.w3.org/1999/xlink" x="0px" y="0px"
	 viewBox="0 0 211.5 103.5" enable-background="new 0 0 211.5 103.5" xml:space="preserve">
<g>
	<g>
		<path fill="#C95156" d="M190.7,80.7c0.3,0.2,0.8,0.1,0.7-0.6l-1-0.5L190.7,80.7z"/>
		<path fill="#C95156" d="M192.5,76.1c-0.5-0.8-1.3-1.7-2.2-1.2c1,0.8,0.6,1,1.7,1.8c0.1,0.7-0.3,1.2-0.7,1.1
			c0.3,0.2-0.2,1.1,0.4,1.4c0.8-0.9,0.8-2,0.2-3.2C192.1,75.8,192.3,76.1,192.5,76.1z"/>
		<path fill="#C95156" d="M182.2,18.8l0.4,0.1C182.5,18.8,182.3,18.8,182.2,18.8z"/>
		<path fill="#C95156" d="M141,18.2c0.3,0,0.4-0.1,0.5-0.2C141.1,18.1,140.9,18.1,141,18.2z"/>
		<path fill="#C95156" d="M133.9,17.1c0.2,0,0.3,0,0.4,0.1C134.2,17.1,134,17.1,133.9,17.1z"/>
		<path fill="#C95156" d="M182.2,18.8l-1.1-0.3C181,18.8,181.6,18.7,182.2,18.8z"/>
		<path fill="#C95156" d="M190.1,66.9c0,0.2,0.1,0.4,0.3,0.6c0-0.2-0.1-0.4-0.1-0.6C190.2,67,190.2,67,190.1,66.9z"/>
		<path fill="#C95156" d="M194.9,27.8l0,0.3c0.1,0.1,0.2,0.2,0.4,0.3L194.9,27.8z"/>
		<path fill="#C95156" d="M195,41.7c0-0.3-0.8-0.4-1.2-0.5c0.3,0.2,0.5,0.4,0.6,0.7C194.6,41.9,194.8,41.8,195,41.7z"/>
		<path fill="#C95156" d="M193.6,63.8l0.1,0.4C193.6,64.1,193.6,63.9,193.6,63.8z"/>
		<path fill="#C95156" d="M191.6,17.8c0-0.1,0-0.2,0-0.3C191.5,17.6,191.5,17.7,191.6,17.8z"/>
		<path fill="#C95156" d="M176.5,76.7c0,0.1,0,0.1,0,0.1C176.6,76.8,176.6,76.7,176.5,76.7z"/>
		<path fill="#C95156" d="M192.7,80.9l-0.2,0c0,0.2,0,0.3,0,0.5L192.7,80.9z"/>
		<path fill="#C95156" d="M121.1,16.1C121.1,16.1,121.1,16.1,121.1,16.1C121.5,16,121.3,16,121.1,16.1z"/>
		<path fill="#C95156" d="M15.3,36.1c0.8-1.3,1,2.2,1.8,0.2C16.8,36.4,15.8,34.4,15.3,36.1z"/>
		<path fill="#C95156" d="M190.2,66.6c0-0.2,0-0.4,0-0.6C190.2,66.3,190.2,66.5,190.2,66.6z"/>
		<path fill="#C95156" d="M17.1,36.2L17.1,36.2l0.1-0.2C17.2,36.1,17.2,36.2,17.1,36.2z"/>
		<path fill="#C95156" d="M91.4,16.6c0.1,0.1,0.2,0.3,0.3,0.4C91.7,16.8,91.6,16.7,91.4,16.6z"/>
		<path fill="#C95156" d="M113.5,17.8l-0.5-0.1C113.2,17.7,113.3,17.7,113.5,17.8z"/>
		<path fill="#C95156" d="M79.9,17.8c-0.3-0.1-0.4-0.2-0.8-0.1c0,0,0.1,0.1,0.1,0.1C79.4,17.7,79.6,17.6,79.9,17.8z"/>
		<path fill="#C95156" d="M68,17.8c0.1,0.1,0.1,0.1,0.2,0.2c0.1,0,0.3,0,0.4,0L68,17.8z"/>
		<path fill="#C95156" d="M140.2,77.1c0.3,0.2,0.4,0.5,0.6,0.8C140.6,77.3,142.4,77.1,140.2,77.1z"/>
		<path fill="#C95156" d="M190.6,66.9c-0.2-0.1-0.3-0.2-0.4-0.4c0,0.1,0,0.3,0,0.4C190.4,67,190.5,67,190.6,66.9z"/>
		<path fill="#C95156" d="M79.4,24.4l-1.9-0.1C78.1,24.4,78.8,24.4,79.4,24.4z"/>
		<path fill="#C95156" d="M54.6,77.3l0.4-0.1C54.9,77.2,54.7,77.2,54.6,77.3z"/>
		<path fill="#C95156" d="M71.9,24.4c-0.3-0.3-0.7-0.5-1.1-0.6c-0.1,0.1-0.2,0.1-0.2,0.2L71.9,24.4z"/>
		<path fill="#C95156" d="M140.8,77.9C140.8,77.9,140.8,77.9,140.8,77.9C140.8,77.9,140.8,77.9,140.8,77.9z"/>
		<path fill="#C95156" d="M153.3,75.9c-1.8,0-0.8,1.1-1.2,1.7c-2.2,0.3-1-0.8-1.7-1.4c-1.3,0.3-2.4,1.3-3.4,1.3
			c-0.1-0.2-0.3-0.2,0-0.5c-1.4,0.9-4.2,0-5.9,1.2c-0.1-0.1-0.2-0.2-0.2-0.3c0.3,0.6,0.3,1.1,0.3,1.5c-0.8,0-1.5,0.7-1.8,0
			c0.5,0,0.5-0.3,0.8-0.5l-0.8,0.3c-0.8-1,1.2-0.4,1.2-1.1c-1.7,0.3-3.6,1.2-4.9,0.9c-0.3-1,3-0.3,1.3-1.2l2,0.4
			c-1.5-1.6,1.2,0.1-0.2-1.6c-2.6-0.3-2.9,0.5-5.5,0.2c-0.6,0.6,0.2,0.8-0.4,1.4c-3.7,1-2.9-2.6-5.6-1.2c-0.7,0.7-1,2-2.9,1.3
			l0.7-1.2c-2.5-0.1-1.4,1.7-4,0.9c0.5-0.5,2-0.4,1.6-0.5c-1.7-0.9-1.2,0.7-2.5,0.7l-0.3-1c-2.7,0.2-5.6,0.9-8.5,1.1
			c0.2-0.3,0.7-0.6,0-0.9c-3.7,0.5-7.9-0.1-11.5-0.7l-1.4,0.9c-0.3,0-0.6-0.4-0.2-0.6c-1.4-0.3-0.1,0.6-0.7,0.9
			c-0.8,0.1-1.1-0.5-0.5-0.8c-2.5,0.7-7,1.6-9.6,0.7l0.5-0.3c-2-0.4-2.3,1.8-4.2,1l0.4-0.2c-4.4-0.4-9.2,0.4-12.6-0.9
			c-0.6,1.3-4.3-0.6-4.6,1.2c-2.5-0.9-1.8-1.2-5.3-1.8c-0.9-0.1-1.4,1.1-2.6,1.3l0-0.9L57,78l-0.8-1.1L55,77.2
			c0.4,0.1,0.9,0.4,0.9,0.7c-1.7,0.4-4.2-0.6-4.2-1.1l-4,0.8c0.1-0.4,0.8-0.5,1.3-0.7c-2.2,0.9-0.4-1-2.4-0.1
			c0.3,0.2-0.1,0.6-0.2,0.7c-1-0.6-3.2-0.6-4.9-0.3l0.3-0.6c-3-0.2-6.3,0.3-9.7,0.3c1.2,0.3,0.9,1.4-0.1,1.5l-0.4-1
			c-0.6,0.6,1,0.4-0.3,1.1c-1.3-0.1-0.8-1.1-0.1-1.4l-1.5,0.3c-0.1-0.3,0.3-0.4,0.4-0.8c-0.6,0.6-2.6-1-3.5,0.1l-0.1-0.3
			c-0.8,0-1.6,0-2.2,0c-0.2,0-0.3,0-0.5,0c-0.1,0-0.1,0-0.1,0l0,0l-0.1,0.1c-0.2,0.1-0.4,0.2-0.6,0.2c0,0,0,0-0.1,0
			c-0.8,0.8-0.6,0.4-1.3,0.5c0.1-0.3,0.2-0.5,0.3-0.7l0.2-0.3c0.1-0.1,0.1-0.1,0.1-0.5c0.2-1.1,0.3-2.3,0.3-3.5
			c-0.4-1.7-0.7-0.5-1.2-1.3c0.8-0.1,0.7-2.5,1.2-1.3c-0.1-2.9-0.2-3.7-0.8-7.4c-0.3,0.4-0.5,0.8-0.7,0.6c-0.1-0.7,0.3-1.5,0.7-1.4
			l0.1,0.2c-1.2-4.1,2.2-9.5,0.6-12.8l0.1,0.2l-0.8-3.4c0.1-1.6,0.6,0.9,1.1-0.2c-1.3-3.7,0.2-5.8-0.7-8.9c1.1-1.2,1.1-3.3,1-5.4
			c-0.1-1.1-0.2-2.2-0.2-3.3c0-0.5,0-1,0.1-1.5c0-0.2,0.1-0.5,0.1-0.7c0-0.1,0.1-0.2,0.1-0.3c0,0,0-0.1,0.1-0.1l0.1,0
			c0,0-0.5,0-0.5,0c-0.5-0.2,0.3-0.2,0.4-0.2c-0.4-0.1-0.5,0-0.8-0.2c-0.1-0.3-0.2-0.7-0.2-1.1c0.4,0,0.9,0.1,1.3,0.2
			c1.4,0.1,2.8,0.3,4.1,0.4c3,0.3,6,0.7,8.9,0.9c2.6,0.1,1.5-2.8,4.8-1.5l-0.9,1c5.3-1.2,10.7,0,15.9-1c-0.3,0.2-0.3,0.5-0.8,0.5
			c1.1,0.7,4,0,4-0.6c0.8,0.1,0.2,0.5,0.7,0.8c1.1,0.4,2.7-0.9,3.3-0.2c0.1,0.1-0.3,0.2-0.5,0.3c0.7-0.3,3.3,0.1,2.6-0.7
			c1.9,0.4,3.7-0.4,5.2,0.1c1-0.9,3.3,0.4,3.6-0.9c-0.1,1.4,3.4,1.1,4.6,0.5c-0.4,0.4,1.1,0.4,0.6,1c1.4,0,2.7-0.3,2.4-1
			c2.6,1.6,5.2-1.3,6.6,0.8c4.1-0.7,8-1.2,11.7-1.5c-0.1,1.4-4.1,0.1-4,1.6c3.5-0.6,5.6-1.7,9.1-1.4c0.9,0.2-0.5,0.6-0.8,0.8
			c3.5-0.6,6.8,0.1,10-0.6c0,0.1-0.3,0.3-0.7,0.4c0.6,0,1.4,0.2,1.4-0.4l-0.6,0.2c-1-0.9,2.5-1.9,2.6-2.3c-1,1.8,3.1,0.4,1.4,2.7
			c0.4-0.1,0.9-0.4,0.8-0.8c0.6,0.1,0.8,0.4,0.2,0.8c2.2-0.3,1.4-1,3.4-1c0,0.3-0.4,0.4-0.6,0.8c1-0.6,2-1.2,3.7-0.9
			c-0.1,0.2,0.1,0.4-0.4,0.4c2.9-0.1,5-1.5,8.2-1c-0.9,1.3,1.1,0.4,1.3,1.5L137,23l-0.7-0.5c1.5,0,2.8-0.8,4.1-0.4l-1.1,0.5l2.8-0.2
			l-1.6-0.4c1.5-0.6-0.2-1.4,1.8-1.1c-0.4,0.1,1.5,0,2.3,0.7l0,0c0.7-0.4,1.5-0.7,2.6-0.5c0.3,0.4-0.2,1.2,0,1.5
			c0.7-0.9,3.5-0.3,4.5-1.3c-0.3,0.2-0.3,0.8-0.2,0.9l0.6-0.8c0.7,0.2,0.8,0.4,0.7,0.8c2.1,0.1-0.7-1.4,1.8-0.8
			c-0.2,0.1-0.1,0.2-0.5,0.3c2.5,0.3,4.8-0.5,7.1-0.1c0.7,1.1-2,0.3-1.2,1.2c3.3-0.2,6.9-1.4,10.1-1.1l-0.6-0.1c0.4-1.6,2.4,0.8,4,0
			c-0.4,0.1-0.5,0.9-0.4,0.7c2.2,0.3,4.5-0.4,7.8-0.9l-0.4,0.4c1.3,0.4,3.4,0.2,4.8,0.4c0.4-0.4,1.2-0.3,0.7-0.9
			c0.6,0.3,1.2,0.5,1.7,0.7c0.5,0.1,0.7,0.2,1.1,0.2c0.7,0,1.4-0.2,2.4-0.4c0.2,0.4,0.3,1,0.3,1.7c0,0.3,0,0.7-0.1,1
			c-0.1,0.3-0.2,0.6-0.5,1.1c0-0.6-0.4-0.8-0.4-0.6c0,0,0,0,0.1,0.4c0,0.3,0.1,0.7,0.1,1.1c0.1,0.8,0.2,1.6,0.2,1.6
			c0.7-0.3,0.4-0.4,1-1.1c0.4,0.4,0.7,1.3,0.7,2.1c-0.5-1.5-1.1,0-1.5,0.6c0.2-0.1,0.4,0.1,0.7,0.1c-1.2,1.7,1.4,0.3,0.6,2.6
			l-0.4-0.1c0.2,0.9,0.7,1.7,0.6,2.6c-0.8,0.4-0.4-0.9-1-1c0,1.3,1.5,2.6,0.7,3.8c-0.2-0.6-0.2-1.4-0.4-1.9
			c-0.9,1.3-0.7,1.4-0.9,2.4l0-0.1l-0.4,2.2l0.3-0.6c2.1,1.6,0.4,3.4,1.8,5.6c-1.3-2.2-0.8-0.4-1.7-0.5c-0.3,0.6-0.5,1.4-0.8,1.2
			c0.7,1-0.6,1.8,0.5,3.2c-0.3,0.1,0,1.1-0.8,0.9c0.2,1.4,0.5-0.3,0.9-0.2c1,2.1-1.2,4.9,0.2,8c0.6,2.6,1.6,3.1,2,5.5
			c-0.5,0.8-1.1-0.7-1.1-0.7c-0.4,1.3-0.4,2.3,0,3.5c-0.3-0.3-0.5,0-0.8,0.4c0.1,1,1.1,0.7,0.6,2c-0.3-0.2-0.8-0.5-1.2-1
			c0.3,1.2,0.8,2.3,1.1,3.5c-0.5,0.3-0.8-0.7-1.1-1.2c0.2,1.4,0.5,3.5,1.3,4l0.3-0.9c0,0.5-0.7,0.3-0.8-0.1
			c-0.6-1.2,0.3-1.7,0.6-1.8l0.2,0.9c1.7-0.9-0.3-3.5-0.2-5.2l1.2,0.7l-1-1.8c0.3-0.4,1-0.6,1.2,0.2c0.6-1.2-0.4-1.1,0.2-2.2
			c0.1-0.1,0.2-0.1,0.2,0l-0.4-1.2c0.3,0.2,0.9-0.2,0.7,0.5c0.7-2.2-0.9-3.5,0-4.4L194,59c-0.4-3-0.9-0.3-2-2.6l2.3-1.5l-0.9-0.3
			c0-0.3,0.1-0.9,0.5-0.8c-0.6-1.2-0.4,0.2-1-0.5c0.8-1.5-0.4-4.2,1.1-4.5c-0.7-0.5-0.5,1.4-1-0.2c1.6-0.5-0.3-1.9,0.5-3.2
			c0.8,0.4,0.4,1.7,1.1,0.3c-1.4-0.8,0.3-2.7,0-3.8c-1.1-0.1-0.5-2.5-0.8-4.5c0.4,0.1,0.6-3.7,1-5.5l0.2,0.1
			c-1.1-0.4-0.9-2.2-1.1-3.6c0.7,0.1,0.9,0.3,1.2,1l0-1.3c-0.4-0.3-0.5-0.7-0.7-1.5l0.8,0.3c0-0.4-0.1-0.9-0.2-1.3
			c0-0.2-0.1-0.5-0.1-0.7c0-0.3-0.1-0.6-0.1-0.9c-0.2-1.3-0.3-2.5,0-4.2c-0.4,0.2-0.9,1.2-1.4,1.7c-0.5,0.5-1,0.6-1.2-0.1
			c0.4-0.4,1.1-1.2,1.3-0.7c0-0.2-0.3-0.4-0.2-0.9c0,0-0.1,0-0.1,0l0.2-0.1c0.2,0.1,0.4,0.2,0.6,0.4c0.2-0.9-0.1-0.8-0.3-0.7
			c-0.2,0.1-0.5,0.3-0.8,0.2c0.6-0.6-0.3-0.4,0.2-0.9c0.3-0.1,0.7,0.2,1.3,0l0,0l0,0c-1-0.1-2.3-0.5-2.6-0.9
			c-0.1,0.3-0.4,0.8-1.3,0.9c-1.1,0-1.3-0.2-1.3-0.4c0-0.2,0.1-0.5-0.7-0.6c-0.4,0.2-0.7,0.2-1.1,0.3c-0.3,0.1-0.6,0.2-0.6,0.6
			c-0.5,0-0.6-0.4-0.8-0.7c-0.9,0.4-4.1,0.1-3.1,1.1l0.2,0.1c0,0-0.1,0-0.1,0c0,0,0,0,0,0h0c-2.9,0.9-6-0.5-8.9-0.1l0-0.3
			c-1.7,0.3-3.8,0.2-5,0.8c-0.5,0-1.2-0.5-1-0.9c-1.3,0.2-1.5,0.6-3.3,0.1c1.3-0.5-0.5-0.5,1.3-0.4c-1.7-0.3-2.1-0.7-3.9,0.1
			c0.6-0.8-1.3-1-2.1-0.7l1.2,0.5c-0.9,0.1-1.7,0-2.5,0l0.4-1c-3.5-1.2-6.3,2.1-8.9,0c-0.9,0.7,1.9,0.5,1.1,1.3
			c-1.6-0.1-3.3-1.6-3.8-1.6c-2.2-0.6-2,1.5-4.3,1.1c0.3,0.4,0.6,1.3-1.1,1.6c-1.6-0.1-2-1.5-1-1.8c0.4,0,0.6,0.1,0.6,0.2
			c0.5-0.1,1.2-0.3,0.6-0.7l-0.2,0.4c-0.8-0.4-3-0.3-2.5-0.9c-1.2,0.3-0.5,0.6,0.4,0.8c-2.1-0.5-3.2,0-5.3-0.4
			c0.3,0.2,0.6,0.6,0.3,0.6c-3.1-0.4-1.4,0.7-3.5,0.8c-1.2-0.5,0.4-1.3-1.7-0.8c-1.3-0.4-0.3-0.9,0.2-1.2c-1.9,0.7-3.6-0.5-4.7-0.6
			l1-0.3c-0.6,0.2-1.1,0.2-1.6,0.2l0.6,0.7c-0.6-0.1-1.1-0.1-1.1-0.4c-0.6,0.5,0.5,1.2-0.7,1.8c-0.8-0.4-2.4,0.4-2.7-0.6
			c2.5,0.3-0.3-0.9,1.8-1.1c-0.4,0.1-0.9,0.1-1.5,0c-0.1-0.1,0.1-0.2,0.2-0.2c-2.4-0.8-1.1,1.1-3.6,1c0.3-0.5-0.6-1-1-0.9
			c1,0,0.5,0.9-0.4,1.3c-1.6-0.4-1.7,0.3-2.6,0.3l1,0.2c-0.3,0.5-1.1,0.5-2.2,0.6c-0.1-0.4,1-0.3,0.6-0.5c-1.2,0.9-2.8-1-4.5-0.3
			c-0.8-0.4-0.1-1-0.8-1.2c-1.9,0.7-2.1-0.7-4.1-0.2c0.6,0.7,0.7,0.5-0.7,1.2l3.3-0.5l-2.1,1c1,0,2.1-0.4,2.7-0.3
			c-1,0.6-0.9,0.4-0.4,1c-1.4-1.1-2.7,0.6-4.3-0.1l0-1.8c-2.4-0.8-4.2,0.9-7.3,0.5l1,0.3c-0.4,0.7-1.9,0.1-2.9,0.4
			c0.1-0.6-0.5-0.8-1-1.2c0.1,0.4-2.3,0-2.5,1.1l-1.4-0.8c-2.5-0.3-2.9,1.7-5.3,1.5c0.7-0.6-0.4-1.1,1.2-1.5c-0.8,0-1.5-0.1-1.5,0.3
			c-0.5-0.4-2.2,0.8-3,0.2c-0.3,0.3-0.4,0.9-1.4,0.8c-0.1-0.1,0-0.3,0-0.3c0,0.3-1.4,0.4-0.6,1.1c-2.5-1.8-6.9,0.1-9.1-1.5
			c-1.8,0.2-3.9,0.4-5.5,0.4c0.1-0.2,0-0.3,0.3-0.2c-2.2-0.6-1.3,1.7-3.8,1.1c-1.3-1,1.3-0.5,0.5-0.9c-0.3-1.9-3,0.3-4.7-0.9
			l0.4-0.1c-1.3-0.7-3.1,0.7-5.2,0.6c0,0,0.1-0.2,0-0.3c-1.4,1-4.2,1.3-6.2,1.6c0.6-0.8,0.9-0.4,0.5-1.2c-0.9,0.1,0.3,1.2-1.5,1.5
			c-0.6-0.4-1.9-0.8-2.1-1.6l1.7,0c-0.9-1.1-2.2,0-3.1-0.1l0.1-0.5c-2.6,0.2-2.6,1.3-5.5,1.2l0.3,0.4c-1.5,1.2-1.3-0.7-2.8,0.2
			l-0.5-1.2c-1,0.3-3.5,1.1-5.4,1.4c1-0.9,3.2-1.3,4.5-1.8c-1,0-3.4,0.1-3.9,0.7c0.4-0.1,0.9-0.4,1.3-0.2c-0.6,0.5-1.3,0.8-2.1,1
			c-0.4,0.1-0.8,0.2-1.3,0.3c-0.2,0-0.5,0-0.7,0.1c-0.3,0-0.6,0-0.9,0c0.2-1.5-3.2-1.3-6.3-1.5c-0.1,1.5-0.3,2.9-0.9,3.4
			c0.1,0.8,0.2,1.5,0.2,2.3l0.1,1.1l0,0.8c0,0.9-0.1,1.8-0.1,2.7c-0.2,1.8-0.4,3.7-0.4,5.8c1.8-1.5,0.1,1.2,1.9,0.9
			c0.1,1,0.1,1.3,0,1.4L16,39.2c-0.5,0.7-0.4-0.9-0.8-0.8c-0.1,2.1-0.8,0.9-1.3,2.3c0.7-0.3,0.9,0.7,0.7,1.9l0.8-1.7
			c1,2.9-1.5,2.5-0.6,5.5l-0.6-0.9c0.3,1.5,0,5.6,1.5,7.1c-0.2,0.3-0.7,0.6-0.8,0c-0.2,3.6,1.6,8.1,0.7,10.9l-0.4-0.3
			c0.1,0.7,0.8,1.2,0.4,2c-0.2,0-0.4-0.3-0.5,0c0.2,0.4,0.8,1.8,0.5,2.7l-0.5-0.8c-0.6,3.5,1.2,5.4,1.5,8.4c-1.3-0.6-1.7,4.6-2,7.4
			l-0.2,0.1c0,0.8,0,1.5,0,2.1c3.4,0,6.6-0.3,9.2-0.7c1.5-0.3,3.1-0.7,4.8-1c2.4,1.4,8,0.6,11.8,1.4c-0.6-0.2,0.1-1,0.8-1.2
			c0.9,0.3,2.5-0.9,2.3,0.3l-0.3,0c0.7,1.2,2.5,0.9,3.9,0.9l0.2-1.6c3.8,2.3,9.8-0.8,11.9,1.2c0.9-0.4,2-0.4,2.9-0.8l0,0.8
			c2.5,0.2,3.8,0.3,6.9,0.1l-0.6,0.6c1.7,0.1,2.2-2.4,3.8-2.5l0.5,1.3c3.1,0,6.1,1.1,9.2-0.1c0,0.2-0.1,0.6-0.6,0.6
			c1.4,0,5.6,0.9,5-0.9c0,1.1,3.1,0.1,4.8-0.4l-0.3,0.8c1.4-1.1,1.4-1.4,3.4-1.7c0.5,0.1,0.4,0.7-0.2,0.5c1.5,0.4,1.2-0.8,3.1-0.3
			l-0.7,0.5c1.6,0.1,1.5-0.2,2.3-0.8c1-0.3,3,0.2,3.2,1c0.2-0.5,1.1-1.1,2-0.9c0.1,0.3-0.2,0.5-0.4,0.5c2.6,0.6,3.9-1,5.7-0.2
			c0,0.3,0.2,0.4,0.3,0.5c-2.1,0-3.8-0.1-3.6-0.1c0,0.8,1.7,0.9,0.3,2c1.4-0.6,3.7-1.8,5.3-1.5c0.1,0.1,0.2,0.1,0.2,0.3l-0.2,0.1
			c0.4,0.1,0.7,0,1-0.1c0.5,0.1,0.9,0.2,1.4,0.2c0.2,0.6,1.9,0.3,2.8,0.4c-0.1-0.8,1-0.7,0-1.4c0.1,0.1-0.2,0.1-0.7,0.1
			c-0.1,0-0.3,0-0.4,0.1c0,0,0,0,0.1-0.1c-0.6,0-1.3,0-2.1,0.1c0.7-0.4,1.4-0.8,2.3-0.3c0.4-0.5,0.9-1.1,1.2-1.4
			c1.2,1.2,3.4,1.8,3.7,2.5c2.6-0.5,6.1-0.3,7.7-1.9c0.7-0.2,0.8,0.5,1.1,0.7c-0.4,0.2-0.9,0.1-1.2,0.4c1.5-0.4,4.3-0.2,4.7-1.3
			c1.8,0.5-1,1,1.5,0.8l-0.3,0.3c5,1.8,8.1-2.8,13.7-0.6c-0.4-0.1-0.6-0.2-0.7-0.4c6.3,1,13-0.9,19.2,0.6c1.8,0.3,2-0.4,3-0.9
			l0.4,0.9l1.8-1c2.6-0.8,4.5,2.2,7.9,0.8l-0.4-0.6c1.2,0.1,3.8-0.4,3.6,0.3c0.1-0.1,0.4-0.6,0.9-0.3l0,0.5l2.9-0.8
			c2.3,0.3-0.4,1.9,3,2c1.2-0.2,3.5-1.4,3-1.7c-0.5,0-1.3-0.3-1.3-0.8l1.1-0.2c0.2-1.4,1.1-2.8-1.7-3.8l-1.9,0.9l-0.6-0.7l1.6,0
			c-0.9-0.6-1.5-0.1-2.2,0.3c-0.2-0.4-0.4-0.6-0.8-0.7l-1.9,1.3c-0.2-0.5,0.8-1.1-0.4-1.4c-0.9,0.6,0.8,1.2-0.6,1.6
			c-0.9-0.6-0.7-1.2-1.7-0.6c-0.2-0.4,0.1-0.6,0.5-0.7c-1,0.4-2.5,0.2-3,0.9c-1-0.8-3.2,0.2-3.2-1.1c-0.3,0.3-1.7,1-2.6,1.1
			c1.6-1.6-3.3-0.1-2.9-1.8c-1.2,1.4-4.3,0.6-6.4,1.4c0.1-0.1,0.4-0.3,0.5-0.3c-1.2-0.1-1.5-0.5-2.3-0.8c-0.2,1.2-2,1.4-3,2.2
			c-1.5-1.1,0.9-1.4,0.4-2.5c0.1,1-2.5,1-2,1.7c-1.1-0.7-1-0.3-1.5-1.3c-0.2,1.5-1,0.2-2,1.2c-1.6-0.7-0.4-1.4-2.2-0.9
			C151.7,76.4,153.3,75.9,153.3,75.9z M111.1,78.5C111.1,78.4,111.1,78.4,111.1,78.5c0.4,0,0.7-0.1,0.9-0.1
			C111.8,78.4,111.5,78.4,111.1,78.5z M107.5,78.5c0.4,0,1,0,1.5,0c0.1,0.3,0,0.6-0.4,0.6C108.9,78.9,108.1,78.7,107.5,78.5z
			 M115,84.3c-0.6,0.1-0.7,0-0.8-0.2c0.3,0,0.6,0,1-0.1c0,0,0-0.1,0.1-0.1C115.2,84,115.1,84.2,115,84.3z"/>
		<path fill="#C95156" d="M116,83.2c0.1,0,0.1-0.1,0.2-0.1c-0.1-0.1-0.2-0.1-0.3-0.2c-0.1,0.1-0.1,0.2-0.2,0.3
			C115.8,83.2,115.9,83.2,116,83.2z"/>
		<path fill="#C95156" d="M182.7,18.9L182.7,18.9c0,0,0,0,0.1,0.1C182.7,19,182.7,18.9,182.7,18.9z"/>
		<polygon fill="#C95156" points="58.5,76.9 58.5,77.1 58.8,76.9 		"/>
		<path fill="#C95156" d="M191,29.7c-0.1,0-0.2,0.1-0.2,0.3C190.9,29.9,191,29.8,191,29.7z"/>
		<path fill="#C95156" d="M190.9,38.1l-0.3,1.2C190.7,38.8,190.8,38.4,190.9,38.1z"/>
		<path fill="#C95156" d="M190.4,44.6c0.1,0.1,0.3,0.1,0.4,0.1l0,0L190.4,44.6z"/>
		<path fill="#C95156" d="M113.9,23.4c-0.1,0-0.2,0-0.3,0C113.1,23.6,113.5,23.5,113.9,23.4z"/>
		<path fill="#C95156" d="M144.6,21.4c-0.3,0.2-0.6,0.3-1,0.4C144.2,21.9,144.6,21.9,144.6,21.4z"/>
		<path fill="#C95156" d="M79.6,24.4C79.7,24.4,79.6,24.4,79.6,24.4c-0.1,0-0.1,0-0.2,0L79.6,24.4z"/>
		<path fill="#C95156" d="M142.2,21.8c0.5,0.2,1,0.1,1.4,0C143.2,21.8,142.7,21.7,142.2,21.8z"/>
		<path fill="#C95156" d="M190.1,72.7l0,0.3c0.1,0,0.1,0,0.1,0L190.1,72.7z"/>
		<path fill="#C95156" d="M190.2,73.1l0.1,0.3C190.3,73.3,190.3,73.1,190.2,73.1z"/>
		<path fill="#C95156" d="M190.5,74.2l-0.2-0.7C190.3,73.7,190.2,74,190.5,74.2z"/>
		<path fill="#C95156" d="M190.4,64.1l-0.3-0.1C190.2,64.1,190.3,64.1,190.4,64.1z"/>
		<path fill="#C95156" d="M190.4,61.5c-0.1,0.6-0.7,1.6-0.5,2.4l0.2,0.1C189.7,63.6,190.9,62.1,190.4,61.5z"/>
		<path fill="#C95156" d="M194.1,50.6l-0.2,2.2c0.3-0.4,0.8-0.9,0.8,0.1C195.7,50.2,194,53.5,194.1,50.6z"/>
		<path fill="#C95156" d="M194.6,43.8c0.2,1.2,0.5,0,0.7,0C195,43.2,194.9,43,194.6,43.8z"/>
		<path fill="#C95156" d="M167.4,18.2l0.1-0.8C166.6,17.6,167.5,17.8,167.4,18.2z"/>
		<polygon fill="#C95156" points="158,22.2 158.9,22.7 159.3,22 		"/>
		<polygon fill="#C95156" points="152.4,16.7 152.8,16.6 151.3,16.9 		"/>
		<path fill="#C95156" d="M70.1,17l0.3,0.9C71,17.8,71.1,16.7,70.1,17z"/>
		<path fill="#C95156" d="M34.6,18c-0.4-0.5-1.4-0.8-2-0.3C33.4,17.7,34.2,18.1,34.6,18z"/>
		<polygon fill="#C95156" points="49.1,84.4 48.4,84.8 49.7,84.5 		"/>
	</g>
</g>
<g>
	<path fill="#C1383D" d="M75.5,44c-0.5,0.2-1.2,0.4-2.1,0.6s-1.7,0.3-2.6,0.3c-2,0-3.5-0.5-4.6-1.6s-1.7-2.6-1.7-4.5
		c0-1.8,0.6-3.3,1.7-4.4s2.7-1.7,4.7-1.7c0.8,0,1.5,0.1,2.2,0.2s1.5,0.4,2.3,0.8v2.7h-0.3c-0.1-0.1-0.4-0.3-0.6-0.5
		s-0.6-0.4-0.8-0.5c-0.3-0.2-0.7-0.3-1.1-0.4C72.2,35,71.7,35,71.3,35c-0.5,0-1,0.1-1.4,0.2s-0.8,0.4-1.2,0.7
		c-0.3,0.3-0.6,0.7-0.8,1.2s-0.3,1-0.3,1.7c0,1.3,0.3,2.3,1,3s1.7,1,3,1c0.1,0,0.2,0,0.4,0s0.3,0,0.4,0l0-2.3l-2.3,0v-2.2l5.4,0
		L75.5,44z"/>
	<path fill="#C1383D" d="M86.7,44.7h-2.8v-1c-0.5,0.4-1,0.7-1.4,0.9s-0.9,0.3-1.5,0.3c-1,0-1.7-0.3-2.2-0.8s-0.8-1.4-0.8-2.5l0-5.7
		h2.8v4.4c0,0.4,0,0.8,0,1.1s0.1,0.5,0.2,0.7c0.1,0.2,0.2,0.3,0.4,0.4c0.2,0.1,0.5,0.1,0.8,0.1c0.2,0,0.5,0,0.8-0.1s0.6-0.2,0.8-0.4
		l0-6.2h2.8L86.7,44.7z"/>
	<path fill="#C1383D" d="M93.6,31.6l0,0.2l-2.8,2.9l-1.9,0l1.9-3.1H93.6z M92.2,44.7l-2.8,0l0-8.8l2.8,0L92.2,44.7z"/>
	<path fill="#C1383D" d="M100.2,43.7c-0.2,0.1-0.3,0.3-0.6,0.4s-0.4,0.3-0.6,0.4c-0.3,0.1-0.6,0.2-0.9,0.3s-0.6,0.1-1,0.1
		c-0.8,0-1.5-0.3-2.1-0.8s-0.8-1.2-0.8-2c0-0.6,0.1-1.2,0.4-1.6c0.3-0.4,0.7-0.7,1.2-1c0.5-0.2,1.2-0.4,1.9-0.5s1.6-0.2,2.4-0.2v0
		c0-0.5-0.2-0.8-0.6-1s-1-0.3-1.8-0.3c-0.5,0-1,0.1-1.5,0.2s-0.9,0.3-1.1,0.4H95v-2.1c0.3-0.1,0.8-0.2,1.4-0.3s1.3-0.2,2-0.2
		c1.6,0,2.8,0.2,3.5,0.7s1.1,1.3,1.1,2.3l0,6h-2.8V43.7z M100.2,42.4v-1.8c-0.4,0-0.8,0.1-1.2,0.1c-0.4,0.1-0.8,0.1-1,0.2
		c-0.3,0.1-0.5,0.2-0.6,0.4c-0.1,0.2-0.2,0.4-0.2,0.7c0,0.2,0,0.3,0,0.4s0.1,0.2,0.2,0.3c0.1,0.1,0.3,0.2,0.4,0.2
		c0.2,0,0.4,0.1,0.8,0.1c0.3,0,0.6-0.1,0.9-0.2S100,42.6,100.2,42.4z"/>
	<path fill="#C1383D" d="M120.2,40.2c0,0.7-0.1,1.4-0.3,2c-0.2,0.6-0.5,1.1-0.9,1.5c-0.4,0.4-0.8,0.7-1.3,0.9s-1,0.3-1.5,0.3
		c-0.5,0-0.9-0.1-1.3-0.2s-0.7-0.3-1.1-0.4v3.7H111l0-12h2.8v0.9c0.4-0.3,0.9-0.6,1.3-0.8c0.5-0.2,1-0.3,1.6-0.3
		c1.1,0,1.9,0.4,2.5,1.2S120.2,38.8,120.2,40.2z M117.3,40.2c0-0.9-0.1-1.5-0.4-1.9c-0.3-0.4-0.8-0.6-1.4-0.6c-0.3,0-0.5,0-0.8,0.1
		c-0.3,0.1-0.5,0.2-0.8,0.3l0,4.4c0.2,0.1,0.4,0.1,0.6,0.1c0.2,0,0.4,0,0.6,0c0.7,0,1.3-0.2,1.7-0.7
		C117.1,41.7,117.3,41.1,117.3,40.2z"/>
	<path fill="#C1383D" d="M127.5,43.7c-0.2,0.1-0.3,0.3-0.6,0.4s-0.4,0.3-0.6,0.4c-0.3,0.1-0.6,0.2-0.9,0.3c-0.3,0.1-0.6,0.1-1,0.1
		c-0.8,0-1.5-0.3-2.1-0.8s-0.8-1.2-0.8-2c0-0.6,0.1-1.2,0.4-1.6c0.3-0.4,0.7-0.7,1.2-1c0.5-0.2,1.2-0.4,1.9-0.5
		c0.8-0.1,1.6-0.2,2.4-0.2v0c0-0.5-0.2-0.8-0.6-1s-1-0.3-1.8-0.3c-0.5,0-1,0.1-1.5,0.2s-0.9,0.3-1.1,0.4h-0.3v-2.1
		c0.3-0.1,0.8-0.2,1.4-0.3s1.3-0.2,2-0.2c1.6,0,2.8,0.2,3.5,0.7s1.1,1.3,1.1,2.3l0,6h-2.8V43.7z M127.5,42.4v-1.8
		c-0.4,0-0.8,0.1-1.2,0.1c-0.4,0.1-0.8,0.1-1,0.2c-0.3,0.1-0.5,0.2-0.6,0.4c-0.1,0.2-0.2,0.4-0.2,0.7c0,0.2,0,0.3,0,0.4
		s0.1,0.2,0.2,0.3c0.1,0.1,0.3,0.2,0.4,0.2c0.2,0,0.4,0.1,0.8,0.1c0.3,0,0.6-0.1,0.9-0.2S127.3,42.6,127.5,42.4z"/>
	<path fill="#C1383D" d="M139.3,38.6H139c-0.1,0-0.3-0.1-0.6-0.1c-0.3,0-0.5,0-0.7,0c-0.4,0-0.8,0-1.1,0.1s-0.6,0.1-1,0.3l0,5.9
		l-2.8,0l0-8.8l2.8,0v1.3c0.6-0.5,1.2-0.9,1.6-1.1s0.9-0.3,1.3-0.3c0.1,0,0.2,0,0.3,0c0.1,0,0.2,0,0.3,0V38.6z"/>
	<path fill="#C1383D" d="M146.2,43.7c-0.2,0.1-0.3,0.3-0.6,0.4s-0.4,0.3-0.6,0.4c-0.3,0.1-0.6,0.2-0.9,0.3s-0.6,0.1-1,0.1
		c-0.8,0-1.5-0.3-2.1-0.8s-0.8-1.2-0.8-2c0-0.6,0.1-1.2,0.4-1.6c0.3-0.4,0.7-0.7,1.2-1c0.5-0.2,1.2-0.4,1.9-0.5
		c0.8-0.1,1.6-0.2,2.4-0.2v0c0-0.5-0.2-0.8-0.6-1s-1-0.3-1.8-0.3c-0.5,0-1,0.1-1.5,0.2s-0.9,0.3-1.1,0.4H141v-2.1
		c0.3-0.1,0.8-0.2,1.4-0.3s1.3-0.2,2-0.2c1.6,0,2.8,0.2,3.5,0.7s1.1,1.3,1.1,2.3l0,6h-2.8V43.7z M146.2,42.4v-1.8
		c-0.4,0-0.8,0.1-1.2,0.1c-0.4,0.1-0.8,0.1-1,0.2c-0.3,0.1-0.5,0.2-0.6,0.4c-0.1,0.2-0.2,0.4-0.2,0.7c0,0.2,0,0.3,0,0.4
		s0.1,0.2,0.2,0.3c0.1,0.1,0.3,0.2,0.4,0.2c0.2,0,0.4,0.1,0.8,0.1c0.3,0,0.6-0.1,0.9-0.2S145.9,42.6,146.2,42.4z"/>
	<path fill="#C1383D" d="M64.6,60.3c0,0.6-0.1,1.1-0.3,1.5s-0.5,0.8-0.9,1.1c-0.5,0.3-1,0.6-1.5,0.7s-1.2,0.2-2.1,0.2l-5.1,0l0-11.6
		l4.5,0c0.9,0,1.6,0,2.1,0.1s0.9,0.2,1.3,0.4c0.4,0.2,0.8,0.5,1,0.9c0.2,0.4,0.3,0.8,0.3,1.3c0,0.6-0.1,1.1-0.4,1.5
		c-0.3,0.4-0.7,0.8-1.3,1v0.1c0.8,0.2,1.4,0.5,1.8,0.9C64.3,58.9,64.6,59.5,64.6,60.3z M60.7,55.5c0-0.2,0-0.4-0.1-0.6
		s-0.3-0.3-0.5-0.4c-0.2-0.1-0.5-0.1-0.8-0.1s-0.8,0-1.4,0h-0.3v2.5h0.5c0.5,0,0.9,0,1.2,0s0.6-0.1,0.8-0.2c0.3-0.1,0.4-0.3,0.5-0.5
		S60.7,55.8,60.7,55.5z M61.5,60.3c0-0.4-0.1-0.7-0.2-0.9c-0.1-0.2-0.4-0.4-0.7-0.4c-0.2-0.1-0.6-0.1-1-0.1s-0.8,0-1.3,0h-0.7v2.9
		h0.2c0.8,0,1.4,0,1.8,0c0.4,0,0.7-0.1,1-0.2c0.3-0.1,0.5-0.3,0.6-0.5C61.4,60.8,61.5,60.5,61.5,60.3z"/>
	<path fill="#C1383D" d="M72,62.9c-0.2,0.1-0.3,0.3-0.6,0.4s-0.4,0.3-0.6,0.4c-0.3,0.1-0.6,0.2-0.9,0.3c-0.3,0.1-0.6,0.1-1,0.1
		c-0.8,0-1.5-0.3-2.1-0.8s-0.8-1.2-0.8-2c0-0.6,0.1-1.2,0.4-1.6s0.7-0.7,1.2-1c0.5-0.2,1.2-0.4,1.9-0.5c0.8-0.1,1.6-0.2,2.4-0.2v0
		c0-0.5-0.2-0.8-0.6-1s-1-0.3-1.8-0.3c-0.5,0-1,0.1-1.5,0.2s-0.9,0.3-1.1,0.4h-0.3v-2.1c0.3-0.1,0.8-0.2,1.4-0.3s1.3-0.2,2-0.2
		c1.6,0,2.8,0.2,3.5,0.7s1.1,1.3,1.1,2.3l0,6l-2.8,0V62.9z M72,61.6v-1.8c-0.4,0-0.8,0.1-1.2,0.1c-0.4,0.1-0.8,0.1-1,0.2
		c-0.3,0.1-0.5,0.2-0.6,0.4c-0.1,0.2-0.2,0.4-0.2,0.7c0,0.2,0,0.3,0,0.4s0.1,0.2,0.2,0.3c0.1,0.1,0.3,0.2,0.4,0.2
		c0.2,0,0.4,0.1,0.8,0.1c0.3,0,0.6-0.1,0.9-0.2S71.7,61.8,72,61.6z"/>
	<path fill="#C1383D" d="M81.9,64.1c-0.8,0-1.5-0.1-2.1-0.3c-0.6-0.2-1.2-0.5-1.7-0.8c-0.5-0.4-0.8-0.9-1.1-1.4s-0.4-1.3-0.4-2
		c0-0.8,0.1-1.5,0.4-2.1s0.7-1.1,1.1-1.5c0.5-0.4,1-0.6,1.6-0.8s1.3-0.3,1.9-0.3c0.6,0,1.2,0.1,1.7,0.2s1,0.3,1.4,0.5V58h-0.4
		c-0.1-0.1-0.2-0.2-0.4-0.3s-0.3-0.2-0.6-0.4c-0.2-0.1-0.4-0.2-0.7-0.3s-0.6-0.1-0.9-0.1c-0.7,0-1.3,0.2-1.7,0.7s-0.6,1.1-0.6,1.9
		c0,0.8,0.2,1.5,0.6,1.9s1,0.7,1.8,0.7c0.4,0,0.7,0,1-0.1s0.5-0.2,0.7-0.3c0.2-0.1,0.3-0.2,0.5-0.3c0.1-0.1,0.3-0.2,0.4-0.3h0.4v2.4
		c-0.4,0.2-0.9,0.4-1.4,0.5C83,64,82.5,64.1,81.9,64.1z"/>
	<path fill="#C1383D" d="M95.6,63.9h-2.8v-4.4c0-0.4,0-0.7-0.1-1.1c0-0.4-0.1-0.6-0.2-0.8c-0.1-0.2-0.3-0.3-0.5-0.4
		s-0.5-0.1-0.8-0.1c-0.3,0-0.5,0-0.8,0.1c-0.3,0.1-0.5,0.2-0.9,0.4l0,6.2h-2.8l0-12.2h2.8v4.4c0.5-0.4,1-0.7,1.4-0.9s1-0.3,1.5-0.3
		c0.9,0,1.7,0.3,2.2,0.8s0.8,1.4,0.8,2.5L95.6,63.9z"/>
	<path fill="#C1383D" d="M101,53.8l-3,0v-2.1l3,0V53.8z M101,63.9l-2.8,0l0-8.8l2.8,0L101,63.9z"/>
	<path fill="#C1383D" d="M106.4,63.9h-2.8l0-12.2h2.8L106.4,63.9z"/>
	<path fill="#C1383D" d="M111.9,63.9h-2.8l0-12.2h2.8L111.9,63.9z"/>
	<path fill="#C1383D" d="M123.2,60l-6.4,0c0,0.7,0.3,1.2,0.8,1.6s1.2,0.5,2.1,0.5c0.6,0,1.2-0.1,1.7-0.3s1-0.4,1.3-0.7h0.3v2.3
		c-0.6,0.3-1.2,0.4-1.8,0.6c-0.6,0.1-1.2,0.2-1.9,0.2c-1.8,0-3.1-0.4-4-1.2s-1.4-1.9-1.4-3.4c0-1.4,0.4-2.6,1.3-3.4s2.1-1.3,3.7-1.3
		c1.4,0,2.5,0.4,3.2,1.1s1.1,1.8,1.1,3.1V60z M120.4,58.3c0-0.6-0.2-1-0.4-1.3s-0.7-0.4-1.3-0.4c-0.5,0-1,0.1-1.3,0.4
		s-0.5,0.7-0.6,1.4L120.4,58.3z"/>
	<path fill="#C1383D" d="M131.5,57.8h-0.2c-0.1,0-0.3-0.1-0.6-0.1c-0.3,0-0.5,0-0.7,0c-0.4,0-0.8,0-1.1,0.1s-0.6,0.1-1,0.3l0,5.9
		l-2.8,0l0-8.8l2.8,0v1.3c0.6-0.5,1.2-0.9,1.6-1.1s0.9-0.3,1.3-0.3c0.1,0,0.2,0,0.3,0c0.1,0,0.2,0,0.3,0V57.8z"/>
	<path fill="#C1383D" d="M138.4,62.9c-0.2,0.1-0.3,0.3-0.6,0.4s-0.4,0.3-0.6,0.4c-0.3,0.1-0.6,0.2-0.9,0.3c-0.3,0.1-0.6,0.1-1,0.1
		c-0.8,0-1.5-0.3-2.1-0.8s-0.8-1.2-0.8-2c0-0.6,0.1-1.2,0.4-1.6s0.7-0.7,1.2-1c0.5-0.2,1.2-0.4,1.9-0.5c0.8-0.1,1.6-0.2,2.4-0.2v0
		c0-0.5-0.2-0.8-0.6-1s-1-0.3-1.8-0.3c-0.5,0-1,0.1-1.5,0.2c-0.5,0.2-0.9,0.3-1.1,0.4h-0.3v-2.1c0.3-0.1,0.8-0.2,1.4-0.3
		c0.7-0.1,1.3-0.2,2-0.2c1.6,0,2.8,0.2,3.5,0.7s1.1,1.3,1.1,2.3l0,6h-2.8V62.9z M138.4,61.6v-1.8c-0.4,0-0.8,0.1-1.2,0.1
		c-0.4,0.1-0.8,0.1-1,0.2c-0.3,0.1-0.5,0.2-0.6,0.4c-0.1,0.2-0.2,0.4-0.2,0.7c0,0.2,0,0.3,0,0.4s0.1,0.2,0.2,0.3
		c0.1,0.1,0.3,0.2,0.4,0.2c0.2,0,0.4,0.1,0.8,0.1c0.3,0,0.6-0.1,0.9-0.2S138.2,61.8,138.4,61.6z"/>
	<path fill="#C1383D" d="M149.4,63.8c-0.3,0.1-0.6,0.1-1,0.2c-0.3,0-0.8,0.1-1.2,0.1c-1.1,0-1.9-0.2-2.4-0.7s-0.8-1.2-0.8-2.3l0-4.1
		l-1.2,0v-1.9l1.2,0v-2.5h2.8v2.5h2.6V57h-2.6l0,3.1c0,0.3,0,0.6,0,0.8s0,0.4,0.1,0.6c0.1,0.2,0.2,0.3,0.4,0.4
		c0.2,0.1,0.5,0.2,0.8,0.2c0.1,0,0.3,0,0.6-0.1s0.4-0.1,0.5-0.2h0.2V63.8z"/>
	<path fill="#C1383D" d="M160.1,59.5c0,1.4-0.4,2.6-1.3,3.4s-2,1.2-3.5,1.2s-2.7-0.4-3.5-1.2c-0.8-0.8-1.3-2-1.3-3.4
		c0-1.5,0.4-2.6,1.3-3.4c0.8-0.8,2-1.2,3.5-1.2c1.5,0,2.7,0.4,3.6,1.2S160.1,58,160.1,59.5z M156.6,61.6c0.2-0.2,0.3-0.5,0.4-0.8
		s0.1-0.8,0.1-1.3c0-0.5,0-0.9-0.1-1.3c-0.1-0.3-0.2-0.6-0.4-0.8c-0.2-0.2-0.4-0.4-0.6-0.5s-0.5-0.1-0.8-0.1s-0.5,0-0.7,0.1
		s-0.4,0.2-0.6,0.4c-0.2,0.2-0.3,0.5-0.4,0.8c-0.1,0.4-0.2,0.8-0.2,1.3c0,0.5,0,0.9,0.1,1.2s0.2,0.6,0.4,0.8
		c0.2,0.2,0.4,0.4,0.6,0.4s0.5,0.1,0.8,0.1c0.3,0,0.5,0,0.7-0.1S156.5,61.8,156.6,61.6z"/>
</g>
</svg>
