<?xml version="1.0" encoding="utf-8"?>
<!-- Generator: Adobe Illustrator 19.1.0, SVG Export Plug-In . SVG Version: 6.00 Build 0)  -->
<svg version="1.1" id="Layer_1" xmlns="http://www.w3.org/2000/svg" xmlns:xlink="http://www.w3.org/1999/xlink" x="0px" y="0px"
	 viewBox="0 0 163.5 151.5" enable-background="new 0 0 163.5 151.5" xml:space="preserve">
<g>
	<path fill="#FFFFFF" d="M121.9,122.5c-47.3,1.7-78.7-1.1-89.6-1.7c9.8-45.4,5.3-91.6,5.3-91.6l83.5-4.9
		C121.1,24.2,126.3,103.7,121.9,122.5z"/>
</g>
<circle fill="#C1383D" cx="41.6" cy="29.5" r="12.6"/>
<g>
	<rect x="45.6" y="59.5" fill="#FFFFFF" width="69.9" height="40"/>
	<g>
		<g>
			<g>
				<rect id="stripe_13_" x="45.6" y="59.5" fill="#DA1E3F" width="69.9" height="3.1"/>
			</g>
			<g>
				<rect id="stripe_12_" x="45.6" y="65.6" fill="#DA1E3F" width="69.9" height="3.1"/>
			</g>
			<g>
				<rect id="stripe_11_" x="45.6" y="71.8" fill="#DA1E3F" width="69.9" height="3.1"/>
			</g>
			<g>
				<rect id="stripe_10_" x="45.6" y="77.9" fill="#DA1E3F" width="69.9" height="3.1"/>
			</g>
			<g>
				<rect id="stripe_9_" x="45.6" y="84.1" fill="#DA1E3F" width="69.9" height="3.1"/>
			</g>
			<g>
				<rect id="stripe_8_" x="45.6" y="90.2" fill="#DA1E3F" width="69.9" height="3.1"/>
			</g>
			<g>
				<rect id="stripe_7_" x="45.6" y="96.4" fill="#DA1E3F" width="69.9" height="3.1"/>
			</g>
		</g>
		<rect x="45.6" y="59.5" fill="#091F44" width="28" height="21.5"/>
		<g>
			<polygon fill="none" points="71.2,74.5 71.2,74.5 71.2,74.5 			"/>
			<polygon fill="none" points="52.6,74.5 52.6,74.5 52.6,74.5 			"/>
			<rect x="61.9" y="74.5" fill="none" width="0" height="0"/>
			<polygon fill="#FFFFFF" points="48,60.4 47.8,61.2 46.9,61.2 47.6,61.7 47.3,62.6 48,62.1 48.7,62.6 48.4,61.7 49.1,61.2 
				48.3,61.2 			"/>
			<polygon fill="#FFFFFF" points="52.6,60.4 52.4,61.2 51.6,61.2 52.2,61.7 52,62.6 52.6,62.1 53.3,62.6 53.1,61.7 53.7,61.2 
				52.9,61.2 			"/>
			<polygon fill="#FFFFFF" points="57.3,60.4 57,61.2 56.2,61.2 56.9,61.7 56.6,62.6 57.3,62.1 57.9,62.6 57.7,61.7 58.4,61.2 
				57.5,61.2 			"/>
			<polygon fill="#FFFFFF" points="61.9,60.4 61.7,61.2 60.8,61.2 61.5,61.7 61.3,62.6 61.9,62.1 62.6,62.6 62.3,61.7 63,61.2 
				62.2,61.2 			"/>
			<polygon fill="#FFFFFF" points="66.6,60.4 66.3,61.2 65.5,61.2 66.1,61.7 65.9,62.6 66.6,62.1 67.2,62.6 67,61.7 67.6,61.2 
				66.8,61.2 			"/>
			<polygon fill="#FFFFFF" points="70.8,61.7 70.5,62.6 71.2,62.1 71.9,62.6 71.6,61.7 72.3,61.2 71.5,61.2 71.2,60.4 70.9,61.2 
				70.1,61.2 			"/>
			<polygon fill="#FFFFFF" points="50.3,62.5 50.1,63.4 49.2,63.4 49.9,63.9 49.7,64.7 50.3,64.2 51,64.7 50.7,63.9 51.4,63.4 
				50.6,63.4 			"/>
			<polygon fill="#FFFFFF" points="55,62.5 54.7,63.4 53.9,63.4 54.6,63.9 54.3,64.7 55,64.2 55.6,64.7 55.4,63.9 56,63.4 
				55.2,63.4 			"/>
			<polygon fill="#FFFFFF" points="59.6,62.5 59.3,63.4 58.5,63.4 59.2,63.9 58.9,64.7 59.6,64.2 60.3,64.7 60,63.9 60.7,63.4 
				59.9,63.4 			"/>
			<polygon fill="#FFFFFF" points="64.2,62.5 64,63.4 63.2,63.4 63.8,63.9 63.6,64.7 64.2,64.2 64.9,64.7 64.7,63.9 65.3,63.4 
				64.5,63.4 			"/>
			<polygon fill="#FFFFFF" points="68.9,62.5 68.6,63.4 67.8,63.4 68.5,63.9 68.2,64.7 68.9,64.2 69.5,64.7 69.3,63.9 70,63.4 
				69.1,63.4 			"/>
			<polygon fill="#FFFFFF" points="48,64.7 47.8,65.5 46.9,65.5 47.6,66 47.3,66.9 48,66.4 48.7,66.9 48.4,66 49.1,65.5 48.3,65.5 
							"/>
			<polygon fill="#FFFFFF" points="52.6,64.7 52.4,65.5 51.6,65.5 52.2,66 52,66.9 52.6,66.4 53.3,66.9 53.1,66 53.7,65.5 
				52.9,65.5 			"/>
			<polygon fill="#FFFFFF" points="57.3,64.7 57,65.5 56.2,65.5 56.9,66 56.6,66.9 57.3,66.4 57.9,66.9 57.7,66 58.4,65.5 
				57.5,65.5 			"/>
			<polygon fill="#FFFFFF" points="61.9,64.7 61.7,65.5 60.8,65.5 61.5,66 61.3,66.9 61.9,66.4 62.6,66.9 62.3,66 63,65.5 
				62.2,65.5 			"/>
			<polygon fill="#FFFFFF" points="66.6,64.7 66.3,65.5 65.5,65.5 66.1,66 65.9,66.9 66.6,66.4 67.2,66.9 67,66 67.6,65.5 
				66.8,65.5 			"/>
			<polygon fill="#FFFFFF" points="71.2,64.7 70.9,65.5 70.1,65.5 70.8,66 70.5,66.9 71.2,66.4 71.9,66.9 71.6,66 72.3,65.5 
				71.5,65.5 			"/>
			<polygon fill="#FFFFFF" points="50.3,66.8 50.1,67.7 49.2,67.7 49.9,68.2 49.7,69.1 50.3,68.5 51,69.1 50.7,68.2 51.4,67.7 
				50.6,67.7 			"/>
			<polygon fill="#FFFFFF" points="55,66.8 54.7,67.7 53.9,67.7 54.6,68.2 54.3,69.1 55,68.5 55.6,69.1 55.4,68.2 56,67.7 
				55.2,67.7 			"/>
			<polygon fill="#FFFFFF" points="59.6,66.8 59.3,67.7 58.5,67.7 59.2,68.2 58.9,69.1 59.6,68.5 60.3,69.1 60,68.2 60.7,67.7 
				59.9,67.7 			"/>
			<polygon fill="#FFFFFF" points="64.2,66.8 64,67.7 63.2,67.7 63.8,68.2 63.6,69.1 64.2,68.5 64.9,69.1 64.7,68.2 65.3,67.7 
				64.5,67.7 			"/>
			<polygon fill="#FFFFFF" points="68.9,66.8 68.6,67.7 67.8,67.7 68.5,68.2 68.2,69.1 68.9,68.5 69.5,69.1 69.3,68.2 70,67.7 
				69.1,67.7 			"/>
			<polygon fill="#FFFFFF" points="48,69 47.8,69.8 46.9,69.8 47.6,70.4 47.3,71.2 48,70.7 48.7,71.2 48.4,70.4 49.1,69.8 
				48.3,69.8 			"/>
			<polygon fill="#FFFFFF" points="52.6,69 52.4,69.8 51.6,69.8 52.2,70.4 52,71.2 52.6,70.7 53.3,71.2 53.1,70.4 53.7,69.8 
				52.9,69.8 			"/>
			<polygon fill="#FFFFFF" points="57.3,69 57,69.8 56.2,69.8 56.9,70.4 56.6,71.2 57.3,70.7 57.9,71.2 57.7,70.4 58.4,69.8 
				57.5,69.8 			"/>
			<polygon fill="#FFFFFF" points="61.9,69 61.7,69.8 60.8,69.8 61.5,70.4 61.3,71.2 61.9,70.7 62.6,71.2 62.3,70.4 63,69.8 
				62.2,69.8 			"/>
			<polygon fill="#FFFFFF" points="66.6,69 66.3,69.8 65.5,69.8 66.1,70.4 65.9,71.2 66.6,70.7 67.2,71.2 67,70.4 67.6,69.8 
				66.8,69.8 			"/>
			<polygon fill="#FFFFFF" points="71.2,69 70.9,69.8 70.1,69.8 70.8,70.4 70.5,71.2 71.2,70.7 71.9,71.2 71.6,70.4 72.3,69.8 
				71.5,69.8 			"/>
			<polygon fill="#FFFFFF" points="50.3,71.1 50.1,72 49.2,72 49.9,72.5 49.7,73.4 50.3,72.8 51,73.4 50.7,72.5 51.4,72 50.6,72 			
				"/>
			<polygon fill="#FFFFFF" points="55,71.1 54.7,72 53.9,72 54.6,72.5 54.3,73.4 55,72.8 55.6,73.4 55.4,72.5 56,72 55.2,72 			"/>
			<polygon fill="#FFFFFF" points="59.6,71.1 59.3,72 58.5,72 59.2,72.5 58.9,73.4 59.6,72.8 60.3,73.4 60,72.5 60.7,72 59.9,72 			
				"/>
			<polygon fill="#FFFFFF" points="64.2,71.1 64,72 63.2,72 63.8,72.5 63.6,73.4 64.2,72.8 64.9,73.4 64.7,72.5 65.3,72 64.5,72 			
				"/>
			<polygon fill="#FFFFFF" points="68.9,71.1 68.6,72 67.8,72 68.5,72.5 68.2,73.4 68.9,72.8 69.5,73.4 69.3,72.5 70,72 69.1,72 			
				"/>
			<polygon fill="#FFFFFF" points="48,73.3 47.8,74.2 46.9,74.2 47.6,74.7 47.3,75.5 48,75 48.7,75.5 48.4,74.7 49.1,74.2 
				48.3,74.2 			"/>
			<path fill="#FFFFFF" d="M52.6,73.3l-0.3,0.9h-0.8l0.7,0.5L52,75.5l0.7-0.5l0.7,0.5l-0.3-0.9l0.7-0.5h-0.8L52.6,73.3z M52.6,74.5
				L52.6,74.5L52.6,74.5L52.6,74.5z"/>
			<polygon fill="#FFFFFF" points="57.3,73.3 57,74.2 56.2,74.2 56.9,74.7 56.6,75.5 57.3,75 57.9,75.5 57.7,74.7 58.4,74.2 
				57.5,74.2 			"/>
			<path fill="#FFFFFF" d="M61.9,73.3l-0.3,0.9h-0.8l0.7,0.5l-0.3,0.9l0.7-0.5l0.7,0.5l-0.3-0.9l0.7-0.5h-0.8L61.9,73.3z M61.9,74.5
				L61.9,74.5L61.9,74.5L61.9,74.5L61.9,74.5z"/>
			<polygon fill="#FFFFFF" points="66.6,73.3 66.3,74.2 65.5,74.2 66.1,74.7 65.9,75.5 66.6,75 67.2,75.5 67,74.7 67.6,74.2 
				66.8,74.2 			"/>
			<path fill="#FFFFFF" d="M71.2,73.3l-0.3,0.9h-0.8l0.7,0.5l-0.3,0.9l0.7-0.5l0.7,0.5l-0.3-0.9l0.7-0.5h-0.8L71.2,73.3z M71.2,74.5
				L71.2,74.5L71.2,74.5L71.2,74.5z"/>
			<polygon fill="#FFFFFF" points="50.6,76.3 50.3,75.5 50.1,76.3 49.2,76.3 49.9,76.8 49.7,77.7 50.3,77.2 51,77.7 50.7,76.8 
				51.4,76.3 			"/>
			<polygon fill="#FFFFFF" points="55.2,76.3 55,75.5 54.7,76.3 53.9,76.3 54.6,76.8 54.3,77.7 55,77.2 55.6,77.7 55.4,76.8 
				56,76.3 			"/>
			<polygon fill="#FFFFFF" points="59.9,76.3 59.6,75.5 59.3,76.3 58.5,76.3 59.2,76.8 58.9,77.7 59.6,77.2 60.3,77.7 60,76.8 
				60.7,76.3 			"/>
			<polygon fill="#FFFFFF" points="64.5,76.3 64.2,75.5 64,76.3 63.2,76.3 63.8,76.8 63.6,77.7 64.2,77.2 64.9,77.7 64.7,76.8 
				65.3,76.3 			"/>
			<polygon fill="#FFFFFF" points="69.1,76.3 68.9,75.5 68.6,76.3 67.8,76.3 68.5,76.8 68.2,77.7 68.9,77.2 69.5,77.7 69.3,76.8 
				70,76.3 			"/>
			<polygon fill="#FFFFFF" points="48.3,78.5 48,77.6 47.8,78.5 46.9,78.5 47.6,79 47.3,79.8 48,79.3 48.7,79.8 48.4,79 49.1,78.5 
							"/>
			<polygon fill="#FFFFFF" points="52.9,78.5 52.6,77.6 52.4,78.5 51.6,78.5 52.2,79 52,79.8 52.6,79.3 53.3,79.8 53.1,79 
				53.7,78.5 			"/>
			<polygon fill="#FFFFFF" points="57.5,78.5 57.3,77.6 57,78.5 56.2,78.5 56.9,79 56.6,79.8 57.3,79.3 57.9,79.8 57.7,79 
				58.4,78.5 			"/>
			<polygon fill="#FFFFFF" points="62.2,78.5 61.9,77.6 61.7,78.5 60.8,78.5 61.5,79 61.3,79.8 61.9,79.3 62.6,79.8 62.3,79 
				63,78.5 			"/>
			<polygon fill="#FFFFFF" points="66.8,78.5 66.6,77.6 66.3,78.5 65.5,78.5 66.1,79 65.9,79.8 66.6,79.3 67.2,79.8 67,79 
				67.6,78.5 			"/>
			<polygon fill="#FFFFFF" points="71.5,78.5 71.2,77.6 70.9,78.5 70.1,78.5 70.8,79 70.5,79.8 71.2,79.3 71.9,79.8 71.6,79 
				72.3,78.5 			"/>
		</g>
	</g>
</g>
</svg>
