<?xml version="1.0" encoding="utf-8"?>
<!-- Generator: Adobe Illustrator 19.1.0, SVG Export Plug-In . SVG Version: 6.00 Build 0)  -->
<svg version="1.1" id="Layer_1" xmlns="http://www.w3.org/2000/svg" xmlns:xlink="http://www.w3.org/1999/xlink" x="0px" y="0px"
	 viewBox="0 0 198.7 148.7" enable-background="new 0 0 198.7 148.7" xml:space="preserve">
<g>
	<path fill="#C1383D" d="M179.4,87c-0.2-0.1-0.1,0.1,0,0.2C179.5,87.2,179.7,87.3,179.4,87z"/>
	<path fill="#C1383D" d="M183.2,66.7c0-0.1,0-0.1,0-0.2c0,0,0,0,0,0C183.2,66.6,183.2,66.7,183.2,66.7z"/>
	<path fill="#C1383D" d="M180.3,55.4c0.1,0,0.1-0.1,0.2-0.1C180.4,55.3,180.3,55.3,180.3,55.4C180.3,55.3,180.3,55.3,180.3,55.4z"/>
	<path fill="#C1383D" d="M180.8,95.6c-0.2,0.1,0.1,0.2,0.2,0.2C181.1,95.7,181.2,95.5,180.8,95.6z"/>
	<path fill="#C1383D" d="M180.6,70.6C180.7,70.7,180.8,70.8,180.6,70.6L180.6,70.6z"/>
	<path fill="#C1383D" d="M110.5,113.9c0.1,0,0.1,0,0.1,0l0.2-0.1C110.7,113.9,110.6,113.9,110.5,113.9z"/>
	<path fill="#C1383D" d="M89.9,120c0.2,0.2,0.8-0.2,1.1-0.3C90.4,119.7,90.2,119.6,89.9,120z"/>
	<path fill="#C1383D" d="M175.5,49.4c0-0.1,0-0.1,0-0.2c-0.1,0-0.2,0-0.2,0.1C175.2,49.4,175.4,49.4,175.5,49.4z"/>
	<path fill="#C1383D" d="M175.2,49.7c0.1,0,0.2,0,0.3,0c0-0.1,0-0.2,0-0.3C175.5,49.5,175.3,49.5,175.2,49.7z"/>
	<path fill="#C1383D" d="M111.7,113.6c-0.2,0.1-0.4,0.1-0.7,0.2l-0.2,0.2l0.6,0.1C111.7,113.9,111.8,113.7,111.7,113.6z"/>
	<path fill="#C1383D" d="M185,103.8C185,103.8,185,103.8,185,103.8L185,103.8L185,103.8z"/>
	<polygon fill="#C1383D" points="185,103.7 185,103.7 185,103.7 185,103.7 	"/>
	<polygon fill="#C1383D" points="185,103.8 184.9,103.9 185,103.8 	"/>
	<rect x="184.9" y="104" fill="#C1383D" width="0" height="0"/>
	<path fill="#C1383D" d="M183.1,60.5l0.2-0.2c0-0.1-0.2-0.1-0.2-0.1c-0.1-0.1-0.2-0.2-0.3-0.2c0,0,0,0,0,0c-0.1,0-0.2,0-0.4,0
		c0.1,0.2,0.3,0.3,0.4,0.4c-0.1-0.1-0.2-0.1-0.3,0l0.2,0.2c0.4,0.1,0.7,0.2,1,0.3L183.1,60.5z"/>
	<path fill="#C1383D" d="M183.5,66.3c0,0,0.1,0,0.1-0.1C183.6,66.2,183.6,66.2,183.5,66.3C183.5,66.2,183.5,66.3,183.5,66.3z"/>
	<path fill="#C1383D" d="M183.6,81.7C183.6,81.8,183.7,81.8,183.6,81.7C183.7,81.8,183.7,81.7,183.6,81.7L183.6,81.7z"/>
	<path fill="#C1383D" d="M183.7,67c0,0,0-0.1,0.1-0.1C183.8,66.9,183.7,67,183.7,67z"/>
	<path fill="#C1383D" d="M183.3,68.7c0,0.2,0,0.3,0.3,0.4c-0.4-0.1-0.2,0.1-0.2,0.3c0,0,0-0.1,0.1-0.1l0.1,0.4
		c-0.1,0-0.1-0.1-0.2-0.1c0,0,0,0.1,0,0.1c0-0.1,0-0.1,0-0.2h0h0c0-0.1-0.1-0.1-0.1-0.2c0,0.2,0,0.3,0,0.5c0,0,0,0.1,0,0.1
		c-0.1,0.1-0.1,0.2-0.1,0.3c0,0.2,0,0.4,0,0.6c0-0.1,0-0.1,0.1-0.2c-0.1,0.2,0,0.5,0.1,0.6l0.2-0.4c0,0.3-0.4,0.5-0.2,1
		c0.3-0.1,0.6,0.3,1-0.1c0.4-0.9-0.7-0.7-0.5-1.8c-0.1-0.1,0.4,0.2,0.3-0.3C183.9,69.3,183.6,68.9,183.3,68.7z"/>
	<path fill="#C1383D" d="M183.2,58.5c0-0.1,0-0.2,0.1-0.3c0-0.1,0-0.3-0.1-0.4l-0.3,0.2C183.1,58.1,183.2,58.3,183.2,58.5z"/>
	<path fill="#C1383D" d="M184.9,78.6C184.9,78.7,184.9,78.7,184.9,78.6L184.9,78.6L184.9,78.6z"/>
	<path fill="#C1383D" d="M184.8,78.6l0.1,0C184.9,78.6,184.8,78.4,184.8,78.6z"/>
	<path fill="#C1383D" d="M35.1,94.5c0.1,0.1,0.1,0.1,0.2,0.1c0.1,0,0.3,0,0.4,0L35.1,94.5z"/>
	<path fill="#C1383D" d="M75.3,30.5c0.1-0.1,0.2-0.2,0.4-0.4c-0.2,0.1-0.2,0.1-0.3,0.1C75.3,30.4,75.3,30.4,75.3,30.5L75.3,30.5z"/>
	<path fill="#C1383D" d="M188.6,86.2C188.6,86.2,188.5,86.2,188.6,86.2L188.6,86.2C188.6,86.3,188.6,86.2,188.6,86.2
		C188.6,86.2,188.6,86.2,188.6,86.2c-0.1-0.1-0.1-0.1-0.2-0.2c0,0,0,0,0,0C188.4,86.1,188.5,86.2,188.6,86.2z"/>
	<path fill="#C1383D" d="M185.1,103.7L185.1,103.7C185,103.7,185,103.7,185.1,103.7L185.1,103.7L185.1,103.7z"/>
	<path fill="#C1383D" d="M37.3,95L36,94.7c-0.1,0-0.3,0-0.4,0.1l0.9,0.5C36.9,95.2,37.2,95.1,37.3,95z"/>
	<path fill="#C1383D" d="M188.1,85.9c0.1,0.1,0.1,0.1,0.2,0.2c0,0,0,0,0,0C188.3,86,188.2,85.9,188.1,85.9L188.1,85.9z"/>
	<path fill="#C1383D" d="M188.4,86C188.4,86,188.4,86,188.4,86L188.4,86L188.4,86z"/>
	<path fill="#C1383D" d="M184.1,98.9C184.1,98.9,184.1,98.9,184.1,98.9L184.1,98.9C184.1,98.9,184.1,98.9,184.1,98.9z"/>
	<path fill="#C1383D" d="M185.3,105.9C185.3,105.9,185.3,105.9,185.3,105.9l0,0.2c0,0,0,0,0,0L185.3,105.9z"/>
	<path fill="#C1383D" d="M184.2,99.1C184.2,99,184.2,99,184.2,99.1L184,99l-0.2,0.2C184,99.2,184.1,99.1,184.2,99.1z"/>
	<path fill="#C1383D" d="M185.7,105.9l-0.2-0.1c0,0-0.1,0-0.1,0.1c0,0.1-0.1,0.2-0.2,0.3l0,0.1c0,0,0.1,0,0.2,0
		c0.1,0,0.2-0.1,0.2-0.2C185.8,105.9,185.8,105.9,185.7,105.9z"/>
	<path fill="#C1383D" d="M184.8,71.8L184.8,71.8C184.8,71.7,184.9,71.6,184.8,71.8z"/>
	<path fill="#C1383D" d="M12.8,80.8c0.7-0.4,1.2-0.6,1.4-1.2C13.8,79.6,13.1,80.4,12.8,80.8z"/>
	<path fill="#C1383D" d="M180.8,88.7C180.8,88.7,180.8,88.7,180.8,88.7L180.8,88.7C180.8,88.7,180.8,88.7,180.8,88.7z"/>
	<path fill="#C1383D" d="M105.4,58.1c-0.2,0-0.3,0.1-0.5,0.1l0,0.2C105.5,58.3,106.5,58.2,105.4,58.1z"/>
	<path fill="#C1383D" d="M180.8,88.8C180.8,88.8,180.8,88.8,180.8,88.8l-0.2,0l-0.2,0.2C180.6,88.9,180.7,88.8,180.8,88.8z"/>
	<path fill="#C1383D" d="M183.9,63.1c-0.2,0-0.5,0-0.8,0l0.1,0.3l-0.2-0.1c0,0.1,0,0.2,0,0.3c0.1,0,0.1,0,0.2,0.1l0.5,0l-0.4,0.1
		c0.1,0.1,0.1,0.2,0.1,0.4l-0.2,0c0,0,0,0,0,0.1c0.1,0,0.2,0.1,0.3,0C183.6,64,183.9,63.2,183.9,63.1z"/>
	<polygon fill="#C1383D" points="183.8,103 183.8,103 183.8,103 	"/>
	<polygon fill="#C1383D" points="183.8,103 183.8,103 183.8,103 	"/>
	<path fill="#C1383D" d="M183.6,102.8c0.4,0.1,0.3,0.1,0.3,0.2l0.8-0.1L183.6,102.8z"/>
	<path fill="#C1383D" d="M188.7,86.2c-0.2-0.2-0.3-0.2-0.4-0.2c0.1,0.1,0.1,0.1,0.2,0.2C188.6,86.2,188.6,86.2,188.7,86.2z"/>
	<path fill="#C1383D" d="M188.7,86.3L188.7,86.3L188.7,86.3C188.6,86.3,188.6,86.2,188.7,86.3C188.6,86.2,188.6,86.2,188.7,86.3
		C188.6,86.2,188.6,86.3,188.7,86.3z"/>
	<polygon fill="#C1383D" points="186.4,84.5 186.4,84.5 186.4,84.5 186.4,84.5 	"/>
	<path fill="#C1383D" d="M185.3,106.2l0.2,0C185.4,106.2,185.4,106.2,185.3,106.2L185.3,106.2z"/>
	<path fill="#C1383D" d="M188.4,86C188.4,86,188.4,86,188.4,86S188.4,86,188.4,86C188.4,86,188.4,86,188.4,86
		C188.4,86,188.4,86,188.4,86z"/>
	<polygon fill="#C1383D" points="184.9,103.9 184.9,104 184.9,103.9 184.9,103.9 185,103.8 185,103.8 	"/>
	<polygon fill="#C1383D" points="184.9,104 184.9,104 184.9,104 	"/>
	<path fill="#C1383D" d="M185.3,106.1L185.3,106.1L185.3,106.1L185.3,106.1C185.3,106.1,185.3,106.1,185.3,106.1z"/>
	<path fill="#C1383D" d="M69.7,34.1c-0.1,0.1-0.2,0.2-0.3,0.2C69.6,34.2,69.6,34.2,69.7,34.1z"/>
	<path fill="#C1383D" d="M188.1,85.7l0.1,0l0.1,0l0,0l0,0l-0.7-0.5L188.1,85.7C188,85.7,188,85.7,188.1,85.7z"/>
	<path fill="#C1383D" d="M188.1,87.1l0.1-0.1l-0.1,0c0,0,0,0,0-0.1l-0.1,0.1C188.1,87,188.1,87.1,188.1,87.1z"/>
	<path fill="#C1383D" d="M185,103.7L185,103.7L185,103.7C185,103.7,185,103.7,185,103.7z"/>
	<path fill="#C1383D" d="M183.8,66.6c0,0.1,0,0.2,0,0.3C183.8,66.8,183.9,66.7,183.8,66.6z"/>
	<path fill="#C1383D" d="M186.6,84.7c-0.1,0-0.2,0-0.2,0c0,0,0-0.1,0-0.1c-0.2,0-0.1,0.2-0.2,0.3l0.5-0.1
		C186.7,84.8,186.7,84.7,186.6,84.7z"/>
	<path fill="#C1383D" d="M189.9,102.8c0.1-0.3,0.1-0.7,0.2-1c-0.1,0-0.2,0-0.3-0.1c-0.1-0.3-0.2-0.7-0.4-1.1v0l0,0
		c-0.1-0.1-0.1-0.2-0.2-0.4c0.1,0,0.1,0,0.2,0l-0.2-0.1c0,0,0,0,0,0c0.1,0,0.2,0,0.2-0.1c-0.1,0-0.2,0-0.3,0c0,0,0-0.1-0.1-0.2
		c0,0,0-0.1,0-0.1c0,0,0,0,0,0c-0.1-0.1-0.1-0.2-0.1-0.3c0,0,0,0,0.1,0c-0.1,0,0,0-0.1,0c-1.1-1.9-2.7-3.9-3.7-5.1
		c-0.1-0.1-0.1-0.3-0.2-0.4c0.2-0.2,0.4-0.4,0.7-0.4c-0.6,0,0.7-0.5-0.1-0.6c0.1-0.1,0.2,0,0.4,0c-0.3,0-0.4-0.1-0.2-0.3l0.1,0
		c0-0.4,0.3-0.6,0.6-1.1l-0.3,0c0.1-0.1,0.2-0.1,0.3-0.1c-0.4-0.3-0.1,0.3-0.6,0.1c0.7,0,0.2-0.8,1-0.7c0.1-0.2-0.4-0.1-0.3-0.2
		l0.2,0l-0.2-0.1c0.1-0.1,0.3-0.1,0.5,0c0,0,0,0.1,0,0.1c0.3-0.1,0.1-0.4,0.2-0.5l-0.2,0.1c0-0.6,0.5-1,0.4-1.7l-0.2,0
		c-0.1-0.5,0.3-0.2,0.4-0.7l0,0c-0.1-0.1-0.1-0.3,0-0.4c0.1,0.2,0.4,0,0.5,0.2c-0.1-0.5-0.1-0.4-0.4-0.7l-1,0.1l-0.4-0.8l0,0
		l0.5-0.5l-0.3-0.4c-0.1,0.1-0.1,0.2-0.2,0.3c0,0,0-0.1,0-0.1c-0.1,0-0.1,0-0.1,0.1c0,0-0.1-0.1-0.1-0.1c0-0.2,0.2-0.3,0.1-0.7
		c-0.2-0.1,0,0.6-0.3,0.1c0.2,0.2,0.1,0.3,0.1,0.4c-0.4-0.4-0.9-0.7-1.5-0.7c0-0.3,0-0.5,0-0.8l-0.3,0.1c0-0.3,0.1-0.3,0.1-0.5
		c-0.4-0.2-0.1,0.3-0.2,0.5c0-0.1,0-0.3,0-0.4c0.1-0.6-0.3-1.4,0.3-1.7c0-0.2-0.1-0.1-0.2-0.1c0.1-0.3,0.4-0.6,0.4-0.6
		c-0.2,0.1-0.4,0.2-0.5,0.3l-0.2,0c0,0,0,0,0,0c0-0.2,0.2-0.4,0.4-0.4c0,0.1,0.1,0.2,0.1,0.2c0.2-0.4-0.2-0.9-0.1-1l-0.1,0.4
		c-0.1-0.2-0.1-0.6-0.1-0.8l0.1,0c0,0.3,0.1,0.2,0.3,0.3l-0.2-0.6l-0.2,0.3c-0.1-0.8-0.2-1.5-0.4-2.2c0-0.1,0-0.2,0-0.3
		c0.3,0.2,1,0,1.5-0.2c-0.1,0-0.2,0-0.4-0.4c-0.1,0.1-0.3,0.8-0.6,0.5c-0.1-0.4,0.1-0.4,0.2-0.6c-0.3,0.2-0.5-0.2-0.7-0.3
		c0-0.3,0-0.6,0-0.8l0.3-0.1l-0.3-0.1c0,0,0,0,0-0.1c0,0,0.1-0.1,0.1,0c-0.1-0.2-0.1-0.3-0.2-0.4c0-0.5,0-0.9,0-1.4c0,0,0.1,0,0.1,0
		l-0.1-0.3c0.3-0.2,0.4,0.5,0.5,0.2c0.2,0.3,0.5,0.7,0.4,1.2l-0.4,0.1c0.1,0,0.3-0.3,0.1-0.5c0.2,0.2-0.5,0.7,0,1l0.3-0.3
		c0.2,0.3,0.6,0.8,0.5,1.2c0.4-0.2-0.1-0.1,0.4-0.4c-0.6,0.3,0-1.1-0.6-0.7c0.6-0.3,0.2-0.5,0.7-0.9c-0.1,0-0.3,0.2-0.2-0.2
		l-0.1-0.1c0,0,0,0,0,0c-0.1,0.1-0.1,0.2-0.2,0.2c-0.3-0.2-0.3-0.7-0.5-0.9c0.1-0.2,0.2,0.1,0.3,0l-0.2-0.3c0.3,0,0.5-0.6,0.7-0.1
		l0-0.5c0.2-0.3,0.2-0.6,0.1-0.9c0.1-0.2-0.3-0.5-0.1-0.3l-0.2-0.7h0.1c0.1-0.7-0.5-1.4,0.1-2.2c-0.1-0.3-0.2-0.5-0.1-0.9l0.3-0.1
		c-0.1-0.3,0.3-1,0-1.1c0.7-0.4,0.1-1.6,0.1-2.2l-0.3,0c0-0.4-0.2-0.8-0.4-1.2l-0.3,0.1c-0.3-0.4,0-1.1-0.2-1.7
		c0.1,0,0.1,0.2,0.1,0.3c0.5-1-0.9-1.5-0.7-2.3c-0.2-0.1-0.2-0.3-0.2-0.4l0,0c0,0,0-0.1,0-0.1l0-0.3c0,0.1-0.1,0.2-0.1,0.3
		c-0.1-0.1-0.2-0.3-0.3-0.5l0.3-0.2l0,0c0-0.2-0.2-0.1-0.4,0.1c-0.1-0.1-0.2-0.1-0.3-0.2c0.4-0.4-0.4-0.4,0-0.9
		c-0.3,0-0.7-0.8-1.2-0.6c0.1,0,0.1-0.1,0.1,0c0-0.2-0.2-0.3-0.3-0.4l0.1-0.3l0.1-0.1l-0.1,0c-0.1,0-0.1-0.1-0.1,0l-0.5-0.1
		c0-0.4,0.1-0.5,0.5-0.5c0,0.1,0,0.1,0.2,0c-0.1-0.1-0.3-0.3-0.3-0.4c0.1,0.1,0.1,0.3,0.1,0.4c-0.8-0.3-0.5-0.4-1.2-0.5l0,0
		c0,0,0,0,0,0l0-0.1l0.2-0.1c0,0-0.1-0.1-0.2-0.1l0-0.2c0.7,0.2,0.8,0.6,0.8,0c-0.6,0.4-1-0.7-1.5-0.8c-0.1-0.1-0.3-0.3-0.4-0.4
		c0,0,0-0.1-0.1-0.1c-0.1-0.1-0.3-0.3-0.4-0.4l0.1-0.1l-0.1-0.1l-0.1,0.2c-0.4-0.4-0.9-0.8-1.2-1.3c-0.2,0.8-0.3-0.5-0.6-0.2
		c0,0,0-0.1,0-0.2c0-0.1,0-0.2,0.2-0.2c-0.3-0.1-0.5-0.3-0.7-0.4c-0.1-0.3-0.3-0.5-0.5-1c0,0.1,0,0.2,0.1,0.3c-0.2-0.1-0.3,0-0.4,0
		c0,0,0-0.1,0-0.1c0-0.1,0-0.2,0-0.3c-0.2-1-1-1.7-1.9-1.9l-20.8-4.8c-1.2-0.4-2.5-0.8-4.1-1.2l0.2,0.3l-0.4-0.1
		c-0.6-0.2-1-0.4-1.3-0.5c-0.3,0-0.3,0.1-0.1,0.2l-1.1-0.2c-2.3-0.6-5-1.2-5.5-1.8c-1.7-0.4,0.4,0.5-1.3,0.1l-0.4-0.3l-0.5,0.2
		c-1.1-0.3-1.6-0.7-1.6-0.9c0.2,0.1,0.8,0.1,1,0.2c-1.4-0.6-4-0.9-4.5-1.1l1.6,0.5c-1.4-0.3-2.9-0.6-4.3-1l0,0l-1.1,0.1l0,0
		c-0.2-0.2-0.3-0.3-0.4-0.5c-3-0.8-6.1-1.5-8.8-1.9l0.3,0.2c-3.4-0.6-2.7-0.8-6.4-1.6l0.2,0c-0.8,0-1.8-0.2-2.8-0.5
		c1,0.1-1.7-0.8-0.4-0.7c-1-0.2-1.6-0.3-2-0.3l-0.1,0.2l-0.6,0l0-0.1c-0.3,0-0.5,0.1-1.6,0.1l-0.5-0.4c-0.9,0-1,0.1-2.8-0.3
		c1.6,0.2-1.1-0.7,0.7-0.5c-3.7-1.5-5.9-0.9-7.5-2.1c-1.9,0.2,3.3,1.2,2.2,1.1c0.8,0.4-1.6,0.1-2.8-0.2c-1.2-0.3-1.9-1.4-5-2.1
		c0.3,0,0.4,0.1,0.7,0.1c-1.1-0.4-2.5-0.4-4-0.7c-0.9,0.3-2.1,0-2.3,0.5c0-0.1,3.1-0.2,3.1-0.1c-1.8,0-3.4,0.6-6.2,1.1
		c0.2-0.2,1-0.6,1.5-0.7c-0.9-0.1-1.6,0.5-2.5,0.6c0.1-0.6,3.6-1.2,5.6-1.5c-1-0.3-3.6,0.7-2.7,0c-1.2,0.9-3.5,0.7-5.3,2.3l0-0.4
		c-0.3,0.2-1.1,0.8-1.5,1.1c0,0,0.8-1,0.8-1c-0.8,0.7-1.5,1.1-2.2,1.6c0,0.2-0.1,0.4-0.2,0.6c0.1,0,0.1,0,0.3-0.1
		c-0.2,0.1-0.2,0.2-0.4,0.4l0.8,0.8l-1-0.7c-2.4,2.2-2.2,0.8-5.3,3.4c0.6-0.5,1.7-1.1,1.1-0.4c-0.8,0.5-1.8,1.2-2.3,1.4
		c-2.5,2.1,0.6-0.1-0.4,1C67,36.5,67,37.2,66,38.2l-0.2-0.2c-3,2.2-0.3,1.1-3.1,3l0.8-1.2l-1.3,1.2l0-0.5c-1.3,1.4-1.8,1.7-3.3,2.8
		c0.5-0.1,0.2,0.6-1.1,1.7c-1,0.5,0.3-0.6-1.5,0.9c0.3-0.5,0.6-1,1.5-1.5c0-0.1,0.3-0.5,0.3-0.6c-1.1,0.6-2.4,1.9-3,2.4
		c0.3-0.2,0.6-0.4,0.7-0.5l-2.3,2.5c-0.5,0.2-0.2-0.1,0-0.4c-0.5,0.5-0.8,0.9-1.5,1.5c0-0.4-0.2-0.5,0.8-1.5l-2.3,2.2
		c-0.2,0.1-1.5,0.8-1.2,0.5c-1.5,1-3,3.1-5,4.5c-0.1,0.1-0.2,0.3-0.6,0.7c-1.7,1.3-3.5,2.3-5.3,4.2l-1.5,0.6
		c-1.5,1.4,1.9-0.8-0.6,1.5c-1.8,1.6-0.9,0.3-1.7,0.7c-0.8,0.9-2.1,2.6-4.1,3.7c0.5-0.5,1-0.8,1.5-1.3l-1.5,0.9
		c1.3-1.6,2.6-2.4,1.1-1.7c0.4,0.9-5,4.2-4.7,5.1l-1,0.5c0.2-0.2,0.3-0.3,0.5-0.4c-2,1-0.8,1.5-3.1,3.2c-0.8,0.6-1.4,0.9-1,0.4
		l-1.5,1.5c-0.5,0.4-0.5,0.2,0-0.2l-1.1,0.9c0,0.1,0,0.1,0,0.2c0.1,0.3,0.1,0.7,0.3,1.1l0,0.1l-0.1,0l-1.3,0.3l0-0.8L18.7,76l0,0
		c-0.3,0.4-1,1.3-1.3,1.7c-0.7,0.4,0.3-0.4,0-0.3l-1.3,1.3c-0.7,0.3,0.3-0.9,1.3-1.6c-1.9,0.4-1,1.1-4.2,3l1.3-1.2
		c-1.2,0.3-2.1,1.3-3.8,2.3c0.5-0.2,3.6-1.8,2.2-0.4c-0.5,0.3-1.1,0.7-1.8,1.6c-0.1-0.1-0.3,0-0.7,0.3C10,82.8,9.5,83.2,8.7,84
		l-0.2-0.3c-0.8,0.9-1.4,1.2-1.2,1.6c0.2,0.4,0.4,0.9,0.7,1.3C8.8,88.9,8.8,89.2,9,90c1.7,1.5,1.2,0.8,0.7,0.4
		c-0.4-0.7-0.7-0.7,1.2,0.2c2,0.6,3.5,0.8,6.1,1.1c1.4,0.5-0.4,0.2,0.1,0.4l1.4,0c0.3,0.1,0.2,0.2,0.1,0.2c1.1,0.1,0.2-0.4,2-0.1
		c0.6-0.3,3.2,1.5,5.5,1.4c0.5,0.2-0.3,0.2-0.2,0.4c3,0.3,2.6,0.3,5.1,0.4l1.9,0.7c-1.4-0.6,0.6-0.6,2.3-0.5
		c-0.1-0.1-0.1-0.1-0.2-0.1l0.6,0.1c-0.1,0-0.2,0-0.4,0l0.3,0.1c0.2,0,0.3,0,0.4-0.1l1.3,0.3c0,0.1-0.4,0.2-0.8,0.2l-0.9-0.5
		c-0.7,0.1-1.4,0.2-1.3,0.5c0.2,0,0.5,0,0.9,0.1c-0.2,0-0.3,0.1-0.3,0.1c0.1,0.1,0.4,0,0.8,0l0.5,0.6l0.2-0.1l3.4,1.1
		c2.6,0.1,4.9-0.1,8.9,0.6c-0.8,0.2,0.2,0.6,0.5,1.1c-1.7-0.9-4.3-0.8-6.1-1.3c1,0.3,0.8,0.4,0.5,0.4c0,0,0.9,0.1,1.9,0.2
		c1.3,0.2,2.5,0.4,2.5,0.4c0,0.4,1.2,0.5,2.8,1.1c-0.7-0.4-0.3-0.5,0.5-0.4c-0.5-1.4-0.9-3.6-1.3-4.8c0.2-0.2,0.6,0.4,1.1,3
		c0-1.3-0.5-2.5-0.9-3.3c-0.4-0.9-0.7-1.3-0.8-2.3c0.1,0.4,0.1,0.7,0.3,0.8c-0.4-1-0.9-3.5-0.5-3l0.1,0.4c-0.5-3-2.2-8.7-2.3-9
		c0.1,0,0.7,0.4,0.7,0.6c0,0-0.5-1.1-0.2-2.4c0-0.3,0.1-0.6,0.2-0.9c0.3-0.5,0.7-0.9,1.1-1.4c0.5,0.2,1.1,0.4,0.3,1.7
		c0.5-0.5,0.7-0.8,1.9-2c-0.4,0.2-1.3,0.2-0.9-0.2c1.7-0.7,1.1-0.6,3.1-1.4c-0.6,0.3-0.4-0.8,0.5-1.4c-0.1,0.2,0.5,0.6,0.2,0.9l2-2
		c-0.6,0.5,0.2,0.6,0.8,0.5c-0.3,0,2.2-1.1,2.8-1.4l-1.1,0.3c2.9-1.2,2.4-2.3,5.4-3.4c-0.3,0.3-0.5,1.2,1,0.7c0.3-0.3,1-1.1,2-2
		c1.1-0.4,2.2-0.8,3.4-1.1c-1.3,1-2.8,2-3.8,2.7c1.2-0.2,0.4,0.1,2.1-0.5c0.7,0-0.8,0.6-1.3,0.8l4-1.2c-0.3-0.4,2.9-1.4,2.6-1.7
		l-4.2,1.8c-0.3-0.4,2.1-2.1,5-2.8c0.8-0.1-0.3,0.9-0.2,1.1c0.3-0.3,2.6-1.1,2.9-1l-1.1,0.6c0.5-0.1,0.9-0.3,1.3-0.4l0.4-0.9
		l0.1,0.7c0.7-0.3,1.5-0.7,2.6-0.7c0.7-0.2,2.1,0,2.2-0.3c-0.7-0.1-1.2-0.7-1.3-1.3c0.7-0.2,1.5-0.4,2.2-0.6l-0.1,0.2l0.4-0.1
		l-0.1-0.2c0.7-0.2,1.5-0.4,2.2-0.5c0.3,0.3-1.4,1.2-0.5,1.3c0-0.1,0.6-0.4,0.8-0.5c0.7-0.1-0.2,0.4,1.3,0c0.1-0.5,3.1-0.7,0.6-0.5
		c1.5-0.5,1.6-0.3,3.3-0.7c-0.3-0.1,0-0.4,0.7-0.8l0,0l0.2-0.6l-0.6-0.5l1.4-0.8l0,0l0.8,1l-0.7,0.3l0,0c0.5-0.1,1-0.2,1.5-0.3
		c0,0,0,0,0.1,0c3.1-0.6,4.8-0.7,7.7-1.3c0.1,0,0.2,0,0.3,0l-0.3-0.7l0.7,0l0.1-0.2l-0.8,0.1l-0.1-0.3l1.1-0.5l-0.9-0.4l0-0.1
		c0-0.1,0.1-0.1,0.1-0.2c0.1-0.2,0.1-0.3,0.2-0.4c0.2-0.2,0.3-0.2,0.6,0c0.4,0.3,0.4,0.4,0.5,0.5c0.1,0.1,0.1,0.2,0.5,0.6l0,0
		l-0.5,0.6l0.3,0.3l0.5,0l0,0.1c3.2-0.5,6.2-1,9.1-1.3c2.1-0.1,7.4-0.8,10.5-0.6c0.4-0.1,1-0.2,1.2-0.3c1.8,0,3.5,0,5,0.1
		c0.1,0,0.2,0,0.3,0l-0.1,0l0.1,0c1.5,0.2,4.3,0.6,6.4,2.2c0,0-0.1,0-0.1,0c0,0,0.7,0.5,1.1,0.8c0.1,0.1,0.1,0.1,0.2,0.2
		c-0.1-0.1-0.4-0.2-0.2,0.1c0.1-0.1,0.2,0,0.4,0.1c0.5,0.7,0.9,1.4,1.1,2.4c0,0.1,0.1,0.2,0.1,0.3c0,0,0,0,0,0l0.5,2.2
		c0,0.1,0,0.1,0,0.2c0,0.1,0,0.1,0,0.1l0.2-0.4l0,0.1c0.1,0.4,0.1,0.8-0.1,1.1l0.5,2.1l0.6-0.1l0,0l0.7,1.9l0,0l-0.7,0.4l1.6,6.7
		l24.1-19.5l0,0c-0.2-0.2-0.5-0.5-0.3-0.7c0.1-0.1,0.4-0.2,0.7-0.4c0.2-0.1,0.5-0.2,0.7-0.3l0,0l0,0l0.2,0.3l4.1-3.3
		c0,0.1-0.1,0.1,0,0.2c0,0.2,1.2-0.1,1.3,0.6c0-0.2,0.1-0.4,0.3-0.4c0.3,0.2,0.3,1.1,0.9,0.9c0,0.1,0,0.1,0,0.1
		c0.3,0.1,0.8,0.5,1.1,0.4c-0.7,0.9,1.5,1,0.7,1.6l0.5,0.7l-0.1,0c0.2,0.5,0.5,0.5,0.8,0.5c0,0.2-0.1,0.1-0.2,0.1
		c0.2,0.8,0.3,0.8,1,1.2l-0.3,0.2c0.3,0.1,0,1.2,0.6,1.8c0,0-0.1,0-0.2,0c0.7,0.7-0.4,2.2,0.9,2.2l0.4,0.5c0-0.8,0.5,0,0.7-0.3
		c0.1,0.3-0.2,0.8-0.4,0.5l0.1-0.1c-0.6,0-0.1,1-0.5,1c0.2,1.5-0.2,2.9-0.2,4.4l0.5-0.2l0,0.5c-0.1,0.1-0.4,0.2-0.4-0.2
		c-0.3,0.2,0.2,0.6,0.3,0.7c-0.2,0.7-0.6-0.3-0.6-0.1l0,0.3l0.1-0.1c0.2,0.2,0.4,0.3,0.4,0.7c-0.1,0.3-0.3,0.1-0.3,0.3
		c0,0-0.1,0,0,0.2l0,0.7l0.4-0.3c0.2,0.3,0,0.6,0.4,0.3c-0.7,0.4-0.2,2.4-0.4,2.7c0.3,0.4,0.3,0.8,0.3,1.3c0.1-0.1,0.5-0.2,0.5,0.2
		c-0.9-0.1-0.4,0.8-1,1.2c0.4-0.3,0.2,1.2,0.8,0.7c-0.1,0.4-0.3,0-0.5,0.3c0.4,0.8-0.1,1.9,0.1,2.9c0.1,0,0.3-0.2,0.5,0l-0.5,0.6
		c0.1,0.2,0.7,0.1,0.3,0.5c0.1-0.1,0.2-0.2,0.3,0c-0.2,1.1,0.1,2.2,0.4,3.3c-0.1,0.1-0.1,0.2-0.2,0.2c0-0.1,0-0.1,0-0.2
		c-0.1-0.1-0.1,0.5-0.2,0.3l0,0.1c0,0,0,0,0,0c-0.1-0.1-0.2-0.3-0.3,0l-0.1-0.5c-0.1,0.1,0.2,0.6,0.1,0.8c-0.1,0.2-0.1-0.4-0.2-0.5
		c0,0.2,0.1,0.7-0.2,0.4c0-0.1,0.1,0,0.1-0.1l-0.2-0.2c0-0.5,0.1-0.3-0.1-0.7c0.3,0.9-0.5,0.3-0.1,1.1l-0.1-0.2c0,0,0-0.1,0,0
		c-0.3-0.3,0.2,0.6,0,0.6c-0.1,0-0.2-0.1-0.2-0.2l0,0.3c0,0-0.1-0.1-0.1-0.1l-0.2,0.2c0.1,0.1,0.2,0.3,0.2,0.4
		c-0.1,0-0.1-0.1-0.2-0.2l0.1,0.3c-0.2-0.1-0.3-0.3-0.2-0.4c-0.8-0.5,0.1,0.2-0.5,0.2l0-0.2c-0.5-0.2-0.5,0.1-0.8,0.2
		c0.2,0,0.9-0.1,1,0.2c-0.1,0-0.2,0.1,0,0.2c-0.3-0.1-0.3,0-0.3,0.1l-0.4-0.1c0.1,0.2,0.3,0.2,0.5,0.3c-0.1,0.1-0.4,0.1-0.7,0.1
		c-0.1,0.2,0.6-0.1,0.6,0.2c-0.2,0.1,0,0.2,0.3,0.4c-0.1,0.1-0.3,0-0.4,0.1l0.3,0c0,0-0.1,0-0.2,0c0.1,0,0.4-0.1,0.5,0
		c0.5-0.1-0.6,0.6,0,0.4c-0.1,0-0.3,0.1-0.4,0.1c0.4,0,0.3,0,0.7-0.1l-0.2,0.1c0.3-0.2,0.6-0.2,1-0.3c0,0,0.1,0,0.1,0c0,0,0,0,0,0
		l-0.1,0l-0.1,0l0.1-0.1c0,0,0,0,0,0c-0.1,0.1-0.2,0.1-0.4,0.2l0.2-0.2c-0.3,0.1-0.5,0.2-0.8,0.3l0.1,0c-0.1,0-0.1,0-0.2,0.1
		c0,0,0.1,0,0.2,0l-0.4,0.3l0.2-0.1c0,0-0.1,0.4,0,0.4c0.5-0.1,1-0.6,1.2-0.7c0,0,0,0,0,0c-0.1,0.3-0.2,0.5-0.4,0.8
		c0.1-0.4-0.3,0.1-0.4-0.1c0,0.1-0.1,0.2-0.2,0.3c0,0,0.5-0.2,0.5-0.2c-0.2,0.3-0.1,0.3,0,0.4c0.2-0.6,0.4-0.3,0.5-0.5
		c0,0.2-0.1,0.4-0.2,0.4c0,0.5,0.4-0.7,0.4-0.3c0,0,0,0-0.1,0.1c0.1-0.2,0.2,0,0.2,0.2c0.1,0.1,0.2,0,0.3-0.2c0,0,0.1,0.1,0.1,0.1
		c0,0,0,0,0,0.1c-0.2,0.1-0.3,0.3-0.3,0.6l-0.5-0.1c0,0.3,0.6,0,0.6,0.5c0,0.4-0.4-0.1-0.6,0c0.1,0.3,0.4,0.7,0,0.9
		c0-0.1,0-0.2,0.1-0.3l-0.3,0.1c-0.3-0.5,0-0.6-0.5-0.5c0.8,0.4-0.3,1,0.6,1.3l-0.2,0.1c0-0.1,0-0.1,0-0.1c-0.5,0.3,0.6,0.5,0.4,0.9
		c-0.1,0.1-0.3,0.3-0.3,0.1l0.2,0.4c0,0.1-0.2,0.1-0.2,0l0.1,0.6l0,0c0.2,0.1,0.4,0.2,0.6,0.2c-0.1,0.2-0.1,0-0.2,0l0.3,0.2
		c-0.2,0.2-0.5,0-0.5-0.2c-0.8,0.5,0.3,0.3,0,1l-0.2-0.2c-0.4,0.4-0.1,0.5-0.2,1c0.1-0.2,0.4-1,0.8-0.8c0,0.1,0,0.3,0.2,0.3
		c-0.3,0.2-0.2,0.2-0.1,0.3l-0.4,0.2c0.2,0.1,0.4,0,0.6,0c0.1,0.2-0.2,0.4-0.5,0.5c0.1,0.3,0.4-0.4,0.6-0.2c0,0.3,0.2,0.4,0.6,0.5
		c-0.1,0.2-0.3,0.1-0.3,0.2l0.4,0c0,0-0.1,0.1-0.1,0.1c0.2,0.1,0.4-0.2,0.6,0c0.5-0.1-0.5,0.7,0.1,0.7c-0.1,0.1-0.3,0.1-0.4,0.1
		c0.5,0.2,0.4,0.2,0.9,0.2l-0.2,0.3c0.2-0.3,0.7-0.2,1-0.2c0,0,0,0,0,0c0,0,0,0,0,0.1l-0.1,0L184,99l0.2,0c0,0,0,0.1,0,0.1
		c-0.1,0.1-0.2,0.1-0.4,0.1L184,99c-0.3,0-0.5,0.1-0.8,0.2c0.1,0,0.1,0,0.2,0c-0.1,0-0.1,0-0.2,0.1c0,0,0.1,0,0.2,0l-0.4,0.2
		l0.2-0.1L183,100c0.6,0.1,1.3,0.1,1.6,0.5c-0.4,0-0.6,0.1-1,0.3c0.4-0.3-0.3-0.3-0.3-0.5c0,0.1-0.2,0.2-0.3,0.2l0.5,0.3
		c-0.3,0.1-0.2,0.2-0.3,0.3c0.6-0.3,0.5,0.2,0.8,0.3c-0.2,0.1-0.4,0.1-0.4-0.1c-0.4,0.4,0.8,0.1,0.5,0.4c0,0,0-0.1-0.1-0.1
		c0.2,0.1,0.1,0.4-0.1,0.3l0,0c0,0.3,0.2,0.9,0.7,0.9c-0.1,0-0.7,0-0.8,0c0,0,0.8,0.2,1.3,0.3c0,0.1,0,0.1,0,0.2
		c-0.5,0-1.1,0-1.3-0.2h0c-0.1,0.1-0.2,0.1,0,0.2c0.1,0,0.7,0,0.8,0c-0.6,0.1-0.3,0.1-0.8,0.2c0.1,0,0.8,0.2,0.8,0.3
		c-0.1,0-0.7-0.2-0.8-0.2c0,0,0.7,0.4,0.7,0.4c-0.1-0.1-0.6-0.2-0.8-0.3c0.1,0.1-0.1,0.1,0,0.1l0.2,0c-0.1,0.1,0.6,0.7,0.5,1
		l-0.1,0.3l0.1,0l0.1,0c-0.1,0.1-0.6,0.8-0.3,1c0.2-0.2,0.5-0.6,0.7-1c0.1,0,0.3,0,0.4,0c-0.3,0.5-0.6,1-0.9,1.2
		c0.2,0.2,0,0.3,0.3,0.3c0.1,0.2-0.2,0.3-0.3,0.3c0,0,0.7,0.3,0.7,0.3c0-0.4,0.6-0.4,0.6-0.8c0,0-0.8,0.4-0.8,0.4
		c0-0.3,0.2-0.6,0.5-0.8c0,0.1,0,0.1,0,0.2c0,0,0,0,0,0l0-0.2c0,0,0,0,0,0l0,0.2c0.1-0.1,0.1-0.2,0.2-0.3c0,0,0,0,0.1-0.1l0.2,0.1
		c0,0,0,0.1,0,0.1c-0.1,0.1-0.2,0.2-0.2,0.2c0.1,0,0.1,0,0.2,0c0,0.2-0.1,0.4-0.1,0.5c0.1-0.2,0.4-0.3,0.5-0.2l-0.2,0.2
		c0.3,0.2,0.4-0.6,0.7-0.2c0.1,0,0.4,0.5,0.4,0.2c-0.2-0.3-0.3-1-0.4-1.6c0.1,0,0.2,0,0.3,0l0,0.2l0.1,0l-0.1-0.2c0.1,0,0.2,0,0.3,0
		c0.2,0.4,0.1,0.9,0.2,1.2c0-0.1,0-0.3,0-0.3c0.1,0.1,0.1,0.4,0.3,0.3c-0.1-0.4,0.4-0.1,0-0.4c0.2-0.2,0.2,0,0.5-0.1
		c-0.1-0.2-0.2-0.6-0.1-1c0,0,0.1,0,0.1-0.1c0,0,0,0.1,0.1,0.1c0.3-0.1,0.6-0.1,1-0.3c0.1,0.1,0.4,0,0.4,0.2c0-0.1-0.1-0.2,0-0.3
		c0.5,0.1-0.2,0.2,0.3,0.4c-0.2-0.2,0.1-0.4,0-0.7c-0.3-0.2-0.4,0.2-0.4,0.4c-0.2-0.2-0.2-0.3-0.3-0.5c0.1,0,0.1-0.1,0.2-0.1
		C189.7,103.5,189.8,103.2,189.9,102.8z M184.8,71.8L184.8,71.8C184.9,71.6,184.8,71.7,184.8,71.8z M12.8,80.8
		c0.3-0.4,1-1.1,1.4-1.2C14,80.2,13.5,80.3,12.8,80.8z M18.1,89.5c-0.1,0.1-0.1,0.1-0.2,0.1c-0.3,0.3-0.5,0.3-0.9,0l-0.5-0.4
		L16,89.8l0-0.1c-0.1-0.2-0.1-0.3-0.2-0.5c-0.4-1.1-0.9-2.7-0.2-3.6l0,0l0,0c0.7,0.7,0.9,1.4,0.6,2.3l1.3,0.6l0,0L18.1,89.5
		L18.1,89.5z M41.6,86.3l-1,0.2L40,85.2l0,0l0.7-0.3l0,0l1,0.9L41.6,86.3z M70.1,58.2c0,0.3-0.2,0.6-0.5,0.9
		c-0.6,0.8-1.9,1.6-3.7,2.4l-0.1,0.1l0.3-0.6l-1.3,0l0-0.1c0-0.1,0-0.2,0-0.3c0-0.1,0-0.2,0.1-0.2c0.1-0.1,0.2-0.1,0.4-0.3l1-0.5
		L66.1,59l0,0l1.4-1l0.3,0.7l0.6-0.3c0.4-0.2,0.5-0.3,0.6-0.4c0.1-0.1,0.2-0.2,0.3-0.3l0,0L70.1,58.2L70.1,58.2z M78.1,64.1
		c0,0.1-0.1,0.1-0.1,0.2c-0.6,0.7-1.1,1-1.9,0.5l0,0l0.8-1c0.3-0.4,0.2-0.4,0.2-0.5c0-0.1-0.1-0.2-0.1-0.3l0,0l0,0
		c0.1,0,0.1-0.1,0.2-0.1c0.3-0.2,0.7-0.4,1-0.2c0.2,0.1,0.2,0.6,0.2,0.8C78.2,63.6,78.2,64,78.1,64.1z M79.9,52.8
		c-0.1,0-0.2,0-0.2,0c-0.2,0-0.2,0-0.5,0.1l-0.4,0.2c-0.4,0.2-0.5,0.1-0.8,0.1c-0.1,0-0.2-0.1-0.4-0.1l0,0l-0.1-0.8l0,0l1.9-0.7l0,0
		L79.9,52.8L79.9,52.8z M83.3,36.6l-0.2,0.2l-0.4,0.6l-0.9-1l0.3-0.8l0.4,0.3l0.3-0.4l0.6,0.5L83.3,36.6z M92.1,29.8l-0.5-0.3l0,0
		c0-0.3,0-0.5,0-0.6c0-0.1,0-0.2,0.1-0.3c0.1-0.1,0.2-0.2,0.4-0.3l0.1-0.1l0.6,0.6l0,0l0.1,0.8L92.1,29.8z M102.4,49.9
		c-0.1,0.1-0.1,0.1-0.2,0.2c-0.9,0.5-1.6,0.6-2.1-0.3l0,0l1.1-0.6c0.2-0.1,0.3-0.2,0.4-0.2c0,0,0-0.1,0-0.2c0-0.1,0-0.2,0-0.3l0,0
		l0,0c0.1,0,0.2,0,0.3,0c0.4,0,0.8-0.1,1,0.2C103,48.9,102.6,49.6,102.4,49.9z M128.2,44.5l-1.9,1.8l-0.5-0.9
		c-0.2-0.3-0.2-0.6-0.1-0.7c0.1-0.2,0.4-0.2,0.7-0.2c0-0.1,0.1-0.1,0.1-0.1c0.1-0.2,0.2-0.2,0.5-0.4c0.6-0.3,0.8-0.1,1,0.4
		C128.1,44.3,128.2,44.4,128.2,44.5L128.2,44.5L128.2,44.5z M152.4,66.8c-0.7,0.2-0.7,0.3-0.8,0.2c0,0,0-0.1,0-0.1c0,0,0-0.1,0-0.1
		c0-0.1-0.2-0.1-0.5-0.2l0.2,0.4l-1.2,0.5l-0.1-2.5l0.9,0.2l0,0l0.4,0.8l0.3-0.1l0,0l0.8,0.7L152.4,66.8z M153.6,50l-1.8,1.3
		c0,0.1,0,0.1,0,0.2c0,0.3,0,0.6-0.1,0.7c-0.2,0.2-0.3,0.2-0.5,0.1c-0.1,0-0.3,0-0.4,0.1c-0.3,0.4-0.4,0.6-0.5,0.8
		c-0.1,0.2-0.2,0.4-0.4,0.7l0,0l0,0c-0.5-0.5-0.5-0.9-0.1-1.4c0.3-0.3,0.8-0.7,1.2-1c0.2-0.1,0.3-0.2,0.5-0.4
		c-0.3-0.6-0.3-0.8,0.1-1.2c0.1-0.1,0.2-0.2,0.3-0.3c0.1-0.1,0.1-0.2,0.2-0.3l0,0l0.6,0.8l0.5-0.5L153.6,50L153.6,50z M155.5,62.6
		L155.5,62.6l-0.4-0.2l0,0l-0.6-0.7l1-0.7l0-0.4c0,0.1,0,0.1-0.1,0.2l0,0l0,0c-0.7-0.6-0.7-0.7-0.7-1c0-0.1,0-0.3-0.1-0.7l0,0
		l0.8-1.4l0,0c0.6,0.6,0.7,1.8,0.3,2.7l0.8-0.1v0.1c0,0.9,0,1-0.3,1.3c0,0-0.1,0.1-0.1,0.1c-0.1,0.1-0.1,0.2-0.2,0.3
		C155.7,62.3,155.6,62.4,155.5,62.6z M157.4,64.8c-0.1,0-0.1,0.1-0.2,0.1c-0.3,0.2-0.7,0.3-0.9,0.2c-0.1,0-0.2-0.1-0.3-0.3
		c-0.1-0.2-0.1-0.4,0-0.5c0.1-0.2,0.4-0.3,0.7-0.4c0.1,0,0.1-0.1,0.2-0.1l0,0L157.4,64.8L157.4,64.8z M161.1,47.5l-1-0.4l0,0
		c-0.3-0.6-0.1-1.1,0.2-1.5c0.1-0.1,0.2-0.2,0.3-0.3c0.1-0.1,0.2-0.2,0.3-0.3l0-0.1l0,0.1c0.2,0.4,0.3,0.5,0.4,0.6
		c0.1,0.1,0.2,0.2,0.4,0.6l0.2,0.5L161.1,47.5z M168.5,50.2c-0.9,0.3-0.9,0.3-1.3-0.5l0,0l1-0.4L168.5,50.2L168.5,50.2z M174,52.3
		c0,0.1-0.1,0.1-0.1,0.1l0,0l0,0c-0.1-0.1-0.2-0.1-0.2-0.2c-0.6-0.5-0.7-0.5-1.4,0l0,0l-0.7-0.8l0,0c0.9-0.7,2.1-0.5,2.5,0
		C174.2,51.7,174.2,52,174,52.3z M175.4,49.2c0,0.1,0,0.1,0,0.2c-0.1,0-0.3,0-0.3-0.1C175.2,49.2,175.3,49.2,175.4,49.2z
		 M175.2,49.7c0-0.2,0.2-0.2,0.3-0.3c0,0.1,0,0.2,0,0.3C175.4,49.7,175.4,49.6,175.2,49.7z M180.3,55.4
		C180.3,55.3,180.3,55.3,180.3,55.4c0-0.1,0.2-0.1,0.2-0.1C180.4,55.3,180.4,55.3,180.3,55.4z M180.6,70.6L180.6,70.6
		C180.8,70.8,180.7,70.7,180.6,70.6z M179.4,87.2c0-0.1-0.2-0.3,0-0.2C179.7,87.3,179.5,87.2,179.4,87.2z M181,95.8
		c-0.1,0-0.4-0.1-0.2-0.2C181.2,95.5,181.1,95.7,181,95.8z M183.2,66.7c0,0,0-0.1,0-0.1c0,0,0,0,0,0
		C183.2,66.6,183.2,66.6,183.2,66.7z M184.1,69.7c0.1,0.6-0.4,0.2-0.3,0.3c-0.1,1,1,0.9,0.5,1.8c-0.4,0.3-0.7,0-1,0.1
		c-0.1-0.5,0.2-0.7,0.2-1l-0.2,0.4c-0.1-0.1-0.2-0.5-0.1-0.6c0,0,0,0.1-0.1,0.2c0-0.2,0-0.4,0-0.6c0-0.1-0.1-0.2,0.1-0.3
		c-0.1,0,0,0,0-0.1c0-0.1,0-0.3,0-0.5c0,0.1,0,0.2,0.1,0.2c0,0.1,0,0.1,0,0.2c0,0,0-0.1,0-0.1c0,0.1,0.1,0.2,0.2,0.1l-0.1-0.4
		c-0.1,0,0,0.1-0.1,0.1c-0.1-0.2-0.2-0.4,0.2-0.3c-0.3-0.1-0.3-0.3-0.3-0.4C183.6,68.9,183.9,69.3,184.1,69.7z M183.5,66.3
		C183.5,66.3,183.5,66.2,183.5,66.3c0.1-0.1,0.1-0.1,0.1-0.1C183.6,66.3,183.5,66.3,183.5,66.3z M183.7,67c0-0.1,0-0.1,0.1-0.1
		c0-0.1,0-0.1,0-0.3c0,0.1,0,0.2,0,0.3C183.8,67,183.8,67,183.7,67z M182.6,60.6l-0.2-0.2c0.1-0.2,0.2-0.1,0.3,0
		c-0.1-0.2-0.3-0.2-0.4-0.4c0.1,0,0.3,0,0.4,0c0,0,0,0,0,0c0.1,0,0.2,0.1,0.3,0.2c0.1,0,0.2,0.1,0.2,0.1l-0.2,0.2l0.4,0.4
		C183.3,60.9,182.9,60.7,182.6,60.6z M183,64.2C183,64.2,183,64.2,183,64.2l0.2-0.1c0-0.2,0-0.3-0.1-0.4l0.4-0.1l-0.5,0
		c-0.1,0-0.1,0-0.2-0.1c0-0.1,0-0.2,0-0.3l0.2,0.1l-0.1-0.3c0.4-0.1,0.7-0.1,0.8,0c0,0.1-0.4,0.9-0.6,1.1
		C183.2,64.3,183.1,64.2,183,64.2z M183.6,81.7L183.6,81.7C183.7,81.7,183.7,81.8,183.6,81.7C183.7,81.8,183.6,81.8,183.6,81.7z
		 M185,103.7L185,103.7C185,103.7,185,103.7,185,103.7C185,103.7,185,103.7,185,103.7C185,103.7,185,103.7,185,103.7
		C185,103.7,185,103.7,185,103.7c-0.1,0.1-0.1,0.1-0.1,0.1c0,0,0,0,0,0l0,0l-0.1,0.1v0l0,0l0,0l0,0l0.1-0.1L185,103.7L185,103.7
		L185,103.7C185,103.7,185,103.7,185,103.7L185,103.7C185,103.7,185,103.7,185,103.7L185,103.7L185,103.7z"/>
	<path fill="#C1383D" d="M185,103.7L185,103.7C185,103.7,185,103.7,185,103.7C185,103.7,185,103.7,185,103.7z"/>
	<path fill="#C1383D" d="M179.8,86.7L179.8,86.7C179.8,86.7,179.8,86.7,179.8,86.7L179.8,86.7z"/>
	<path fill="#C1383D" d="M185.1,103.7L185.1,103.7L185.1,103.7C185,103.7,185,103.7,185.1,103.7C185,103.7,185,103.7,185.1,103.7z"
		/>
	<path fill="#C1383D" d="M185,103.7L185,103.7L185,103.7C185,103.7,185,103.7,185,103.7z"/>
	<path fill="#C1383D" d="M105.4,58.1c1.1,0.1,0.1,0.2-0.5,0.4l0,0l0,0l-0.3,0.1c0,0,0.1,0.1,0.3,0.1c0.1-0.3,2.2-0.7,3.5-1.1
		c-0.4-0.3-2.1,0.1-3.4,0.5l0,0C105.1,58.2,105.2,58.2,105.4,58.1z"/>
	<path fill="#C1383D" d="M187.1,84.7L187.1,84.7L187.1,84.7L187.1,84.7c-0.2-0.1-0.3,0-0.4,0c0,0,0.1,0.1,0.1,0.1L187.1,84.7z"/>
	<path fill="#C1383D" d="M187.8,87.1c0.1,0.1,0.1,0,0.1-0.2l-0.1,0C187.8,87,187.8,87.1,187.8,87.1z"/>
	<path fill="#C1383D" d="M188.3,86.7L188.3,86.7L188.3,86.7z"/>
	<path fill="#C1383D" d="M186.3,85.5l0-0.1l-0.2-0.2C186.1,85.2,186,85.2,186.3,85.5z"/>
	<polygon fill="#C1383D" points="185,103.8 185,103.8 185,103.7 185,103.7 	"/>
	<path fill="#C1383D" d="M188.5,86.2C188.5,86.2,188.6,86.2,188.5,86.2c0-0.1-0.1-0.1-0.2-0.2l0,0l0,0c-0.1-0.1-0.1-0.1-0.2-0.2
		l0,0.1l-0.3,0.1l0.4,0l0,0l0.2,0.4c0,0,0,0,0,0c0,0,0.1,0,0.1-0.1l0.1-0.1l0,0c0,0,0,0,0,0h0L188.5,86.2z"/>
	<polygon fill="#C1383D" points="184.9,104 184.9,104 184.9,104 	"/>
	<path fill="#C1383D" d="M185,103.7C185,103.7,185,103.7,185,103.7C185,103.7,185,103.7,185,103.7C185,103.7,185,103.7,185,103.7
		L185,103.7z"/>
	<polygon fill="#C1383D" points="185,103.7 185,103.8 185,103.7 	"/>
	<path fill="#C1383D" d="M188.4,86C188.4,86,188.3,86,188.4,86L188.4,86l-0.3-0.3l0.1,0.1C188.2,85.9,188.3,86,188.4,86z"/>
	<polygon fill="#C1383D" points="184.9,104 184.9,104 184.9,104 	"/>
	<polygon fill="#C1383D" points="183.8,103 183.8,103 183.8,103 	"/>
	<polygon fill="#C1383D" points="184.9,104 184.9,104 184.9,104 184.9,103.9 184.9,103.9 	"/>
	<polygon fill="#C1383D" points="184.9,104 184.9,104 184.9,104 184.9,103.9 184.9,104 184.9,104 	"/>
	<path fill="#C1383D" d="M185,103.8C185,103.8,185,103.8,185,103.8L185,103.8L185,103.8z"/>
	<polygon fill="#C1383D" points="184.9,104 184.9,104 184.9,104 	"/>
	<path fill="#C1383D" d="M185,103.7C185,103.7,185,103.7,185,103.7L185,103.7L185,103.7z"/>
	<polygon fill="#C1383D" points="185,103.7 185,103.7 185,103.7 	"/>
	<polygon fill="#C1383D" points="189.6,101 189.6,101.1 189.6,100.9 	"/>
	<path fill="#C1383D" d="M190.1,103.2l0.4,0.1l-0.1-0.2C190.3,103.2,190.2,103.2,190.1,103.2z"/>
	<path fill="#C1383D" d="M190.2,103.9c0.1,0.1,0.1,0.5,0.2,0.2C190.4,104,190.4,103.8,190.2,103.9z"/>
	<path fill="#C1383D" d="M183.5,103.8c0,0,0.1,0,0.1,0.1c-0.1-0.1-0.1-0.2-0.3-0.3C183.4,103.6,183.4,103.7,183.5,103.8l0.1,2.6
		l0.1,0c0.1,0,0.1-0.1,0-0.1L183.5,103.8z"/>
	<path fill="#C1383D" d="M183.3,103.5C183.3,103.6,183.3,103.6,183.3,103.5C183.3,103.5,183.2,103.5,183.3,103.5z"/>
	<path fill="#C1383D" d="M180.5,96.7l0.1,0c0.1-0.1,0.1-0.1,0.1-0.2L180.5,96.7z"/>
	<polygon fill="#C1383D" points="180.1,93.2 180.1,93.3 180.5,93.2 	"/>
	<path fill="#C1383D" d="M180.4,90.7c-0.1,0.1,0,0.2-0.1,0.3C180.4,90.7,180.9,90.9,180.4,90.7z"/>
	<path fill="#C1383D" d="M66.4,122.1c0,0-0.6,0.2-0.6,0.2C66.7,122.4,66.3,122.2,66.4,122.1z"/>
	<path fill="#C1383D" d="M56.5,95.8L56.5,95.8C56.3,95.4,56.3,95.5,56.5,95.8z"/>
	<polygon fill="#C1383D" points="131.1,108.6 131.2,108.6 131.1,108.6 	"/>
	<path fill="#C1383D" d="M129.9,109.4c0.4-0.6,0.8-0.7,1.2-0.7l-0.8-0.6L129.9,109.4z"/>
	<path fill="#C1383D" d="M142.8,100.8c0-0.2,0-0.5,0.1-0.7l-0.1,0C142.8,100.4,142.8,100.6,142.8,100.8z"/>
	<path fill="#C1383D" d="M142.6,98.9C142.6,98.8,142.7,98.8,142.6,98.9l-0.1-1.2c-0.4,0.2-0.9-1.7-1.2-1.6l1.1,2.5
		c-0.4,0.2-1.6-1.2-1.9-2.9c0.1-0.5,0.9,0.2,1,0.1c-0.2-0.2-0.7-1.6-0.6-1.7l0.4,0.7c0-0.3-0.1-0.6-0.3-0.9c0,0,0,0,0,0l0,0
		l-0.6-0.6l-1,0.8l0,0l-1-0.4l0.8-0.7l-0.5-1.1l1.1-0.2l0,0l0.4,0.8l0.4-0.2c0-0.1,0-0.2,0-0.3c-0.1-0.4,0.3-1.3,0-1.3
		c-0.2,0.5-0.9,0.8-1.4,0.9l-0.3-1.3l0.2,0l-0.1-0.3l-0.2,0.1l-0.3-1.3c0.3-0.2,1,0.8,1.2,0.2c-0.1,0-0.4-0.3-0.4-0.5
		c0-0.4,0.4,0.1,0.1-0.8c-0.5,0-0.4-1.8-0.5-0.3c-0.3-0.9-0.1-1-0.4-2c-0.2,0.3-0.6-0.1-1-0.7l-0.3-1.1c0,0,0,0,0-0.1
		c-0.4-1.8-0.4-2.8-0.8-4.5c0.1-0.2,0-1,0.3-0.7c-0.1-0.2-0.3-0.4-0.5-0.9c0.2-1.1,0.3,1.1,0.6,0.3c-0.3,0-0.7-1.3-1-2
		c-0.4,0.3,0.3,1.7,0.6,2.4c-0.2,0-0.4-0.1-0.7-0.3l-1.3-5.6c-0.2-1.3-0.9-4.1-1.1-5.9c-0.1-0.2-0.3-0.5-0.4-0.6l-0.3-1.3
		c-0.1-0.5-0.6-0.9-1.3-1.2l0.1,0l-0.4-0.2c-0.9-0.3-2.1-0.5-3.6-0.6c0,0,0.1-0.1,0.1-0.1l-0.9,0.1c0,0-0.1,0-0.1,0
		c0-0.1,0.3-0.2,0.1-0.2c0,0.1-0.3,0.2-0.5,0.2c-0.4,0-0.8,0-1.2,0c-0.1,0-0.1,0-0.2,0c0,0,0,0,0,0c-0.5,0-0.9,0-1.4,0
		c0,0,0,0-0.1,0c-0.1,0-0.2,0-0.2,0c-7.5,0.2-18.7,1.9-30.9,4.7c-0.7,0.2-1.4,0.3-2.1,0.5C89.5,67.5,89,67.3,89,67
		c-0.9,0.8-2.9-0.1-4.4,1.1c-0.4,0,0.3-0.3,0-0.4c-0.3,0.4-0.8,0.6-1.8,0.7l0.1-0.1c-2.6,0.8-3.8,0.9-6.8,1.6l0.3,0.2
		c-0.6,0.2-0.8,0.1-1.1,0.1c-0.6,0.7,1.8-0.5,1.3,0.2c-1-0.4-4.5,1.4-5.3,0.9c-1,0.3,0.4,0.3-0.6,0.6l-0.3-0.1l-0.2,0.3
		c-0.7,0.2-1,0.1-1.1-0.1c0.2,0,0.4-0.2,0.6-0.3c-0.9,0.1-2.3,0.9-2.6,0.9l1-0.2c-2.5,1.2-5.9,2.2-8.1,3.8l0.3,0
		c-1.7,1.2-1.6,0.6-3.5,1.9l0.1-0.1c-0.3,0.4-0.8,0.8-1.3,1.2c0.4-0.5-1.2,0.5-0.6-0.2c-0.8,1-1.1,1.4-1.1,1.7
		c0.1,0.3-0.2,0.4,0,1.4c0,0-0.2,0.4-0.3,0.4c0.3,0.7,0.5,0.7,0.8,1.7c-0.4-0.8-0.2,0.8-0.7-0.2c0,2.4,1.3,3.3,0.8,4.5
		c0.9,0.9-0.1-2.1,0.2-1.5c0.1-0.5,0.7,0.8,0.8,1.5c0.2,0.7-0.6,1.4-0.1,3.3c0-0.1-0.1-0.3-0.1-0.4c0,0.7,0.6,1.3,0.5,2.2
		c0.5,0.4,0.2,1.1,0.8,1.1l-0.5-1.7c0.4,0.9,1.2,1.7,1.3,3.3c-0.1-0.1-0.4-0.5-0.5-0.8c0,0.5,0.3,0.9,0.3,1.4c-0.5,0-0.6-2-1.2-3
		c-0.1,0.5,0.8,1.9,0.1,1.5c0.9,0.6,0.3,1.8,1.2,3l-0.3,0c0.1,0.2,0.3,0.6,0.4,0.9L56.3,99c0.4,0.6,0.4,1.3,0.4,2
		c0-0.4,0.4,0.2,0.4-0.5c0.9,2.2-0.2,1.8,0.2,3.9c0-0.4,0-0.8,0.2-0.4c0.1,0.5,0.1,1.3,0,1.6c0.5,1.8,0.3-0.4,0.6,0.4
		c-0.2,0.7,0.4,0.9,0.7,1.7l-0.3,0.1c0.3,2.1,0.8,0.4,1,2.4l-0.6-0.7l0.3,1l-0.4-0.1c0.5,1,0.5,1.4,0.7,2.5c0.2-0.3,0.6,0,0.8,0.9
		c0,0.7-0.4-0.3,0,1c-0.3-0.3-0.6-0.5-0.4-1.2c-0.1,0-0.3-0.2-0.4-0.3c-0.1,0.7,0.3,1.7,0.5,2.2c0-0.2-0.1-0.4,0-0.5l0.9,1.8
		c-0.1,0.3-0.2,0.1-0.3-0.1c0.1,0.4,0.3,0.6,0.5,1.2c-0.3-0.1-0.6,0-0.9-0.8c0,0,0.2,0.5,0.3,0.9c0.2,0.3,0.5,1.4,0.6,1.2
		c0,0.2,0.6,1.6,0.3,1.3c0.6,0.7,1.8,1.3,2.7,1.3c0.8,0.1,1.7,0.1,2.4,0.3c0.1,0,0.2-0.1,0.6-0.1c1.4,0.2,2.6,0.6,4.2,0.2l0.9,0.5
		c1.2-0.1-1.2-0.6,0.8-0.8c1.4-0.2,0.6,0.4,1.1,0.5c0.7-0.3,1.9-0.8,3.3-0.6c-0.4,0.1-0.8,0.1-1.2,0.2l1,0.2
		c-1.2,0.5-2.1,0.5-1.1,0.7c0.1-0.9,3.9-0.4,4-1.4l0.7,0.1l-0.4,0.1c1.3,0.3,0.9-0.7,2.6-0.8c0.6,0,1,0.1,0.6,0.2l1.3-0.4
		c0.4,0,0.3,0.1-0.1,0.2l1.9-0.4l0,0c0.3-0.2,0.9-0.5,1.1-0.6c0.5,0.1-0.2,0.1-0.1,0.2l1-0.4c0.5,0.2-0.4,0.5-1.1,0.6
		c1.1,0.8,0.8-0.4,3.1-0.2l-1,0.3c0.7,0.4,1.5,0.1,2.7,0.2c-0.3-0.1-2.4-0.4-1.3-0.8c0.3,0,0.8,0,1.4-0.3c0.1,0.3,0.7,0.1,1.4,0
		l0,0.4c0.8-0.3,0.7-0.5,1.1-0.8c0.9-0.1,1.2,0.1,1.5,0.4c1.5-0.2-1.1-0.3,0.6-0.8c1.3-0.1,2.1-0.4,3.5-1c0.9,0-0.1,0.3,0.2,0.3
		l0.7-0.5c0.2,0,0.1,0.1,0.1,0.1c0.6-0.3,0-0.4,0.9-0.8c0.2-0.5,2.2,0.2,3.3-0.6c0.3,0.1-0.1,0.3,0,0.4c1.6-0.8,1.4-0.6,2.7-1.4
		l1.2,0c-0.9-0.1,0.1-0.7,0.9-1.3c-0.1,0-0.1,0-0.1,0c0.1,0,0.2-0.1,0.3-0.1l-0.2,0.1l0.2,0l0.2-0.2c0.2-0.1,0.4-0.1,0.7-0.2
		c0.1,0.1,0,0.3-0.2,0.5l-0.6-0.1c-0.3,0.3-0.6,0.7-0.4,0.9c0.1-0.1,0.3-0.2,0.5-0.2c-0.1,0.1-0.1,0.2-0.1,0.2
		c0.1,0,0.2-0.1,0.4-0.3l0.5,0.4l0-0.2l2.1-0.3c1.3-0.9,2.4-1.9,4.6-2.8c-0.4,0.5,0.1,0.6,0.1,1c-0.7-0.2-1.7,0.7-2.9,1
		c0.6-0.1,0.5,0.1,0.4,0.2l2-1c0.1,0.3,0.5,0.1,1.1,0.1c-0.6-0.5,1.4-0.9,2.2-1.4c0.1,0.2,0,0.5-1.1,0.8c1.3,0.1,1.2-1.2,2.5-1.2
		c-0.2,0.1-0.4,0.1-0.5,0.2c0.5-0.4,2-0.7,1.7-0.4l-0.3,0.1c1.7-0.5,5.1-1.8,5.1-2.4c0,0.1,0,0.7,0,0.9l1.5-2
		c0.3-0.1,0.6-0.2,0.9-0.4c0.3,0.4,0.7,0.9-0.1,1.5c0.4-0.1,0.9-0.2,1.7-0.8c-0.3,0-0.9-0.4-0.6-0.6c1.2,0.1,0.8,0,2.2-0.2
		c-0.4,0.1-0.3-0.8,0.3-1.1c0,0.1,0.4,0.7,0.2,0.8l1.2-1.4c-0.3,0.3,0.2,0.6,0.7,0.6c-0.2,0,1.3-0.7,1.7-1l-0.7,0.3
		c1.8-1,1.1-1.9,2.5-3.1c0,0.2,0.2,1.2,1.1,0.3c0-0.4-0.1-1.1-0.5-1.8c0-0.2,0.1-0.3,0-0.4l-0.4-1.8c0.4,0.5,0.8,0.9,1.2,1.5
		c0.2,0.5,0.3,1,0.4,1.5c0.2-0.8,0.3-0.5,0.3-1.2c0,0,0-0.1,0-0.1C142.3,99.6,142.2,99.3,142.6,98.9z M64.2,89.4l-0.4-0.3l-0.6,0.7
		l0.5,0.4l-1.1-0.1l-0.3,0.3l0-2.7l0.6,0.9c0.1-0.1,0.2-0.2,0.3-0.3c0.2-0.3,0.3-0.3,0.6-0.1c0.1,0,0.2,0.1,0.3,0.1l0,0l0,0l0.4,0.7
		L64.2,89.4z M71.4,90.2l-2-1.6l0.5-0.6l0,0l2.1,1.3L71.4,90.2z M73.6,77.7L73.6,77.7l-0.1-0.6l-0.7-0.2l0.9-1.3l1.2,0.6l-0.5,0.6
		l0.4,0.3l-0.7,0.8L73.6,77.7z M76.8,106.1c-1,0.4-1.1,0.3-1.6-0.1c-0.1-0.1-0.1-0.1-0.2-0.2l0,0l-0.2-1l0,0l1.7-0.8L76.8,106.1
		L76.8,106.1z M81.7,109.5c-0.1,0.1-0.2,0.2-0.4,0.4l-0.1,0.1l-0.2-0.5l-0.5,0.2l-0.3-1.3l0.1,0c0.5-0.1,1.2-0.3,1.4,0.2
		C81.9,109,81.9,109.3,81.7,109.5z M84.3,118.6c-0.4,0.4-1.2,0.7-1.6,0.4c-0.4-0.3-0.1-0.8,0.2-1.1l0.1-0.1c0,0,0-0.1,0.1-0.1l0,0
		L84.3,118.6L84.3,118.6z M84.4,101.9c-0.6,0.2-1.3,0.1-1.6-0.4c-0.1-0.2-0.1-0.4,0-0.5c0.1-0.2,0.4-0.3,0.7-0.4
		c0.1,0,0.1-0.1,0.2-0.1l0,0L84.4,101.9L84.4,101.9z M85,70.7L85,70.7l-1.1-2.3l0.7-0.3l1.4,2.1L85,70.7z M92.5,72.7
		c0.1-0.1,0.2-0.2,0.3-0.2c0.1-0.1,0.2-0.1,0.4,0c0.3,0.1,0.4,0.4,0.6,0.8c0,0.1,0.1,0.1,0.1,0.2l0,0l-1.4,0.7l0-0.1
		C92.2,73.5,92.3,73,92.5,72.7z M89.8,81.1c0.8-0.4,0.9-0.4,1.2-0.3c0.1,0.1,0.3,0.1,0.7,0.2l0,0l0,0l0.9,1.3l-0.1,0
		C91.7,82.6,90.4,82.1,89.8,81.1L89.8,81.1L89.8,81.1z M87.3,95.7l-0.3-0.5l0.9-0.4l-0.3-0.7l0,0l0.7-0.3c0.3-0.2,0.5-0.2,0.7-0.1
		c0.2,0.1,0.2,0.5,0.1,0.9c0,0.3,0,0.5,0,0.7l0,0L87.3,95.7z M89.9,120c0.3-0.4,0.6-0.3,1.1-0.3C90.7,119.8,90.1,120.1,89.9,120z
		 M90.9,101.4c-0.3,0.4-0.6,0.5-0.9,0.5c-0.2,0-0.4-0.2-0.5-0.6l0,0l0,0c0.1,0,0.2-0.1,0.3-0.1c0.3-0.1,0.5-0.2,0.6-0.4
		c0.1-0.1,0.1-0.3,0.1-0.6l-0.4,0.1l0,0l-1-0.3l0,0l-0.4-0.8l0.5-0.6l1.4,0.4l0,0l0.3,0.5l0.6-0.2l0,0.1
		C91.4,100.2,91.3,100.9,90.9,101.4z M93.8,101.6l-1.9,1l0,0c-0.3-0.5-0.4-0.7-0.2-0.9c0.1-0.1,0.2-0.2,0.4-0.3
		c0.3-0.2,0.6-0.4,0.9-0.8l0-0.1L93.8,101.6L93.8,101.6z M94.9,94.3l1.6,0.5l1-1.1L97.4,95l0,0c-0.5,0-0.8,0.3-1.1,0.6
		c-0.2,0.2-0.3,0.3-0.5,0.3c-0.1,0-0.3-0.2-0.4-0.5L94.9,94.3z M98.1,114c-1,0.4-1.6-0.3-2.2-0.9c-0.2-0.2-0.4-0.5-0.6-0.7l0,0
		l-0.1-0.7l1.2,0.1l0,0L98.1,114L98.1,114z M98.2,110.8l-0.4-0.3l-0.7,0.9l-0.9-0.5l-0.4-0.5l0.1-0.1c0.6-0.3,1.6-0.7,2-0.4
		C98.2,110.1,98.3,110.3,98.2,110.8L98.2,110.8z M99.9,116.5c0,0-0.1,0.1-0.1,0.1l0,0l0,0l-0.8,0.2l0-0.1c0-0.2,0-0.3,0-0.4
		c0-0.2,0-0.4-0.1-0.8l-0.2-1.1l0,0l0.6-1.3l0-1.6l1.4,0.2v0c0,0.4,0,0.8,0.1,1.2C100.9,114.3,100.9,115.2,99.9,116.5z M100.9,99.4
		C100.9,99.5,100.9,99.5,100.9,99.4c-0.4,0.2-0.6,0.2-0.7,0.2c-0.2-0.1-0.3-0.2-0.4-0.5c-0.4-0.7,0.2-1.8,0.8-2.3l0.1,0l0,0.1
		C100.9,97.3,101.3,99,100.9,99.4z M100.7,83.3l0.3,0.6l-0.7,0.3l0-0.1l-0.4-2.2c-0.1,0-0.1-0.1-0.2-0.1c-0.3-0.2-0.5-0.3-0.6-0.4
		c-0.1-0.2,0-0.4,0.1-0.5c0.1-0.1,0.1-0.2,0.1-0.4c-0.2-0.4-0.3-0.6-0.5-0.8c-0.1-0.2-0.3-0.3-0.4-0.6l0,0l0.1,0
		c0.4-0.1,0.7-0.1,0.9,0c0.5,0.3,0.7,1.2,0.8,2c0,0.2,0.1,0.4,0.1,0.6c0.8-0.1,0.9,0.2,1.2,1c0,0.1,0.1,0.2,0.1,0.3l0,0.1
		L100.7,83.3z M109.4,113.7c0.1,0.3,0.2,0.4,0.1,0.5c-0.1,0.1-0.2,0.2-0.3,0.3c-0.1,0-0.1,0.1-0.2,0.2l-0.1,0l-0.6-1.9l-1.1,0l0-0.1
		c0-0.1,0-0.2,0-0.2c0-0.2,0-0.4,0.2-0.6c0.1-0.1,0.2-0.2,0.4-0.3c0.4-0.2,0.6-0.2,0.8-0.2c0.1,0,0.2,0,0.4-0.1l0,0l0,0
		c0.1,0.1,0.1,0.2,0.2,0.3c0.3,0.7,0.5,0.9,0.1,1.4c0,0.1-0.1,0.1-0.2,0.2C109.2,113.4,109.3,113.5,109.4,113.7z M112.2,107.2
		c-0.7,0.8-0.8,0.7-1.4,0.6c-0.1,0-0.2,0-0.3-0.1h0l0,0l-0.6-0.8l1.2-1.5L112.2,107.2L112.2,107.2z M112.7,105L112.7,105l-0.6-1.9
		l-1.5-1.9l0.1,0c1-0.2,2.4,1.2,3.3,2.3c0.3,0.4,0.6,0.7,0.9,0.9l0.1,0.1L112.7,105z M126.2,74.3l-2.1,1.4l-0.5-1l0.1,0l2.2-1.1
		L126.2,74.3z M125.4,92.3C125.4,92.3,125.4,92.3,125.4,92.3c0.1,0.1,0.1,0.2,0,0.2c-0.1,0.1-0.3,0.2-0.6,0.4l0,0l0-0.1l-0.9-2.1
		l1.6,0l0.4,0.8l0,0c-0.2,0.2-0.4,0.3-0.4,0.4C125.3,92.1,125.3,92.2,125.4,92.3C125.3,92.2,125.3,92.2,125.4,92.3z M125.6,88.7
		c-0.2,0.2-0.3,0.5-0.3,0.7c-0.1,0.2-0.1,0.3-0.2,0.4c-0.1,0.1-0.2,0.1-0.3,0.1c-0.1,0-0.3-0.1-0.5-0.3l-0.9-0.8l1.7-0.2l0.5-1.4
		l0.4,1.2l0,0C125.9,88.5,125.7,88.6,125.6,88.7z M119.9,75.2c0.1-0.1,0.3-0.2,0.6-0.4l0,0l0.4,1l-1,0.5l0-0.1
		C119.8,75.6,119.7,75.4,119.9,75.2z M121.6,96.4L121.6,96.4l-1,0.2l-0.7-0.5l0.2-0.7l0,0l1.4-0.2l0.8,0.7L121.6,96.4z M122.7,68.7
		l0.4-1l0,0c0.8-0.4,1.3,0,1.8,0.5c0.1,0.1,0.2,0.2,0.3,0.3l0.1,0l-0.1,0c-0.4,0.2-0.5,0.3-0.6,0.4c-0.1,0.1-0.2,0.2-0.6,0.4
		l-0.5,0.2L122.7,68.7z M126.4,94.3l-1.6,0.7l0,0l-1.4-2.4l0.3-0.2l0,0l0.4,0.9c0.2,0,0.3,0,0.5,0C125.3,93.5,126,93.5,126.4,94.3
		L126.4,94.3L126.4,94.3z M128.9,68.5c0,0.1-0.1,0.1-0.2,0.2c-0.1,0.1-0.1,0.1-0.2,0.2l0,0l-0.8,0.1l-0.2-0.5l0.4-0.2l-0.4-0.8
		l-0.5,0.3l0.6-1l-0.1-0.4l2.4,1.1l-1.1,0.2c0.1,0.2,0.1,0.3,0.1,0.4C129,68.3,129,68.4,128.9,68.5z M130,91.1
		c-0.6-0.5-0.6-1.8-0.3-2.5l0-0.1l0.1,0c0.4,0.4,1.6,2,1.3,2.4C130.8,91.4,130.5,91.4,130,91.1z M135.7,83l-1,0.8l-0.3-0.7l-0.4,0.2
		l-0.4-0.9l0.4-0.4l0.6,0.2l0.5-0.6L135.7,83L135.7,83z"/>
	<path fill="#C1383D" d="M57.4,104.4c0,0.2,0,0.3,0.1,0.5C57.5,104.8,57.4,104.6,57.4,104.4z"/>
	<path fill="#C1383D" d="M56.7,101c0,0.1,0,0.2,0,0.4C56.8,101.2,56.8,101.1,56.7,101z"/>
	<path fill="#C1383D" d="M56.8,101.3c0,0.2,0,0.4,0.1,0.6C56.8,101.7,56.8,101.5,56.8,101.3z"/>
	<polygon fill="#C1383D" points="66.5,122.1 66.4,122 66.4,122.1 	"/>
	<path fill="#C1383D" d="M139.7,88.5c0,0.3,0,0.4,0,0.6C139.7,89.1,139.8,88.9,139.7,88.5z"/>
	<path fill="#C1383D" d="M130.6,62.9l0.3,0.2l0.2,0.1c0.1,0,0.2,0.1,0.3,0.1L130.6,62.9z"/>
	<path fill="#C1383D" d="M131.4,63.3c-0.1,0-0.2-0.1-0.3-0.1L131.4,63.3L131.4,63.3z"/>
	<path fill="#C1383D" d="M135,72.5l0.4-0.1l-0.3-0.5C135.1,72.2,135,72.3,135,72.5z"/>
	<path fill="#C1383D" d="M136.2,75c-0.1-0.1-0.5-1.1-0.3-0.1C136,75,136.6,76.3,136.2,75z"/>
	<path fill="#C1383D" d="M140.3,103.7c-0.5,0.6-1,0.8-0.4,1c1.2-0.8,0-0.4,1.1-1.2C141.2,103.1,140.2,104,140.3,103.7z"/>
	<path fill="#C1383D" d="M93.3,120.1c-0.1-0.1-0.3-0.1-0.7,0l0.7,0.1L93.3,120.1z"/>
	<polygon fill="#C1383D" points="82.3,121.2 82.5,121.6 82.7,121.6 	"/>
	<path fill="#C1383D" d="M73.3,122.9c0.4,0,0.8-0.1,1.2-0.1C73.7,122.9,73.2,122.4,73.3,122.9z"/>
	<path fill="#C1383D" d="M185.5,84.6L185.5,84.6c0-0.1,0-0.1,0-0.3C185.4,84.5,185.4,84.1,185.5,84.6z"/>
	<path fill="#C1383D" d="M185.8,83.6c-0.1-0.3-0.2-0.2-0.4,0l0.2,0.3C185.7,83.8,185.7,83.5,185.8,83.6z"/>
	<path fill="#C1383D" d="M185.1,83.5c-0.1,0-0.2,0.1,0.1,0.1c-0.1,0,0,0,0.1,0.2L185.1,83.5z"/>
	<path fill="#C1383D" d="M185.2,84c-0.1,0.2-0.1,0.4-0.3,0.1C185,84.6,185.3,84.5,185.2,84z"/>
	<path fill="#C1383D" d="M185.5,81.8c-0.1,0-0.3,0.1-0.4,0.1l0.1,0.2C185.3,82,185.4,81.8,185.5,81.8z"/>
	<polygon fill="#C1383D" points="184.9,83.8 184.5,83.2 184.5,83.3 	"/>
	<polygon fill="#C1383D" points="185.4,80.4 185.5,80.5 185.7,80.7 	"/>
	<path fill="#C1383D" d="M185.5,79.1c0.1,0.2,0.1,0.4-0.1,0.6c0.2,0.1,0.3-0.2,0.4-0.1C185.8,79.5,185.6,79.3,185.5,79.1z"/>
	<path fill="#C1383D" d="M185.3,80.8l-0.3,0.2l0,0.1C185,81,185.2,81,185.3,80.8z"/>
	<path fill="#C1383D" d="M184.1,82.3c0.2,0.1,0.3-0.1,0.6,0.2C184.5,82.3,184.3,81.9,184.1,82.3z"/>
	<path fill="#C1383D" d="M184.8,81.6l-0.2-0.4l0,0.3C184.6,81.6,184.7,81.5,184.8,81.6z"/>
	<polygon fill="#C1383D" points="184.5,81.1 184.6,81.3 184.6,81.1 	"/>
	<path fill="#C1383D" d="M185,79.4c-0.1-0.2-0.2-0.3-0.2-0.5c-0.1,0.2-0.1,0.4-0.1,0.6C184.9,79.6,185,79.6,185,79.4z"/>
	<polygon fill="#C1383D" points="184.8,77.1 184.7,77.2 184.8,77.2 	"/>
	<path fill="#C1383D" d="M184.8,79.9c0-0.1-0.1-0.2-0.1-0.4c0,0-0.1,0-0.1,0C184.7,79.7,184.7,79.8,184.8,79.9z"/>
	<path fill="#C1383D" d="M185,80.1c0-0.1-0.1-0.1-0.2-0.2L185,80.1L185,80.1z"/>
	<path fill="#C1383D" d="M184.7,77.8l0,0.1c0-0.2,0.1-0.3,0.4-0.5c-0.1-0.2-0.2-0.3-0.3-0.3L184.7,77.8L184.7,77.8z"/>
	<path fill="#C1383D" d="M184.9,78.6l-0.1,0c-0.3-0.1-0.4-0.4-0.7-0.2c0,0.4,0.2,0.3,0.4,0.5c-0.1-0.7,0.2,0.2,0.3-0.3
		c0.1,0.1,0.1,0.2,0.1,0.3L184.9,78.6L184.9,78.6C184.9,78.7,184.9,78.7,184.9,78.6L184.9,78.6z"/>
	<path fill="#C1383D" d="M184.8,78.6c0-0.2,0.1,0,0.1,0l0,0l-0.2-0.7C184.7,78.1,184.7,78.3,184.8,78.6z"/>
	<polygon fill="#C1383D" points="184.9,77.1 185.2,77.1 184.8,76.8 	"/>
	<polygon fill="#C1383D" points="184.9,76.4 185.2,76.4 185,76.2 	"/>
	<path fill="#C1383D" d="M183.4,57.6l-0.2,0.2c0.1,0.2,0.2,0.3,0.1,0.4C183.4,57.9,183.7,57.4,183.4,57.6z"/>
	<path fill="#C1383D" d="M184.9,69c0.1-0.2,0.2-0.4,0.2-0.5C184.9,68.8,184.6,69,184.9,69z"/>
	<path fill="#C1383D" d="M185.1,67.9l-0.1,0.1c0.1,0.1,0.1,0.3,0.1,0.5C185.2,68.4,185.3,68.2,185.1,67.9z"/>
	<path fill="#C1383D" d="M185,73.5c0,0,0-0.1,0-0.2C185,73.4,185,73.5,185,73.5C185,73.5,185,73.5,185,73.5z"/>
	<path fill="#C1383D" d="M185,75c0.1,0,0.2-0.1,0.2,0l-0.1-0.3C185.1,74.9,185,75,185,75z"/>
	<path fill="#C1383D" d="M184.1,75.4c-0.3,0-0.2,0.2-0.1,0.5c0,0,0,0,0,0C184.3,75.9,184.2,75.6,184.1,75.4z"/>
	<path fill="#C1383D" d="M184,75.9c0,0.1,0,0.1,0,0.2C184.1,76.1,184,76,184,75.9z"/>
	<path fill="#C1383D" d="M184.8,73c-0.1,0.1,0.3,0.1,0.2,0.1C185.4,73.3,184.6,72.4,184.8,73z"/>
	<path fill="#C1383D" d="M183.3,74.1c0.1,0,0.1,0,0.1,0.1c0-0.2,0.1-0.5,0-0.5L183.3,74.1z"/>
	<path fill="#C1383D" d="M181.2,90.1L181.2,90.1C181.2,90.1,181.2,90.1,181.2,90.1L181.2,90.1z"/>
	<polygon fill="#C1383D" points="181.4,85.6 181.4,85.6 181.4,85.6 	"/>
	<path fill="#C1383D" d="M178.7,87.2l-0.3,0l0.1,0C178.6,87.3,178.6,87.3,178.7,87.2z"/>
	<polygon fill="#C1383D" points="180,85.9 179.9,85.9 180.2,86.2 	"/>
	<path fill="#C1383D" d="M180.8,85C180.7,85,180.7,85.1,180.8,85C180.7,85,180.9,85.5,180.8,85z"/>
	<path fill="#C1383D" d="M44.5,54.5l0.5-0.8C43.9,54.6,44.5,54.4,44.5,54.5z"/>
	<path fill="#C1383D" d="M83.4,26.9c0.1,0,0.1,0,0.1,0C84.2,26.6,83.9,26.7,83.4,26.9z"/>
	<polygon fill="#C1383D" points="49,78.7 49,78.6 48.9,78.7 	"/>
	<path fill="#C1383D" d="M48.2,80.5c-0.1-0.9,0.3-1.3,0.7-1.8c0,0-1.1,0.1-1.1,0.1C47.7,78.9,48.1,80.6,48.2,80.5z"/>
	<path fill="#C1383D" d="M74.3,30.5c-0.3,0.2-0.6,0.4-0.9,0.7C73.8,30.8,74.1,30.6,74.3,30.5z"/>
	<path fill="#C1383D" d="M74.3,30.5c0.1,0,0.1-0.1,0.2-0.1l0,0C74.5,30.4,74.4,30.4,74.3,30.5z"/>
	<path fill="#C1383D" d="M34.4,95.5c-0.1-0.1-0.1-0.2-0.1-0.2C34,95.3,34,95.4,34.4,95.5z"/>
	<path fill="#C1383D" d="M44.4,54.7L44.4,54.7c0.1-0.1,0.1-0.1,0.1-0.1L44.4,54.7z"/>
	<path fill="#C1383D" d="M86.5,63C86,63,85.7,63,85.6,63C85.6,63.1,85.8,63.1,86.5,63z"/>
	<path fill="#C1383D" d="M132.6,56l-0.5-0.1l-1-0.2c0,0,0,0-0.1,0L132.6,56z"/>
	<path fill="#C1383D" d="M131.1,55.7C131.1,55.7,131.1,55.7,131.1,55.7L131.1,55.7L131.1,55.7z"/>
	<path fill="#C1383D" d="M114.1,57.1l0.8-0.3c-0.5,0-0.5-0.1-0.8-0.2L114.1,57.1z"/>
	<path fill="#C1383D" d="M109.8,57.6c-0.1,0.1-2.5,0.7-0.3,0.4C109.7,57.9,111.4,57.5,109.8,57.6z"/>
	<path fill="#C1383D" d="M61.8,71.1c2-0.6,0.3-0.6,2.1-1.1c0.4-0.3-1.5,0.4-1.1,0.1C61.7,70.8,61.1,70.9,61.8,71.1z"/>
	<path fill="#C1383D" d="M9.3,82.4l0,0.2c0.2,0,0.5-0.2,1-0.6L9.3,82.4z"/>
	<polygon fill="#C1383D" points="23.5,71.4 24.2,71.3 23.8,71.2 	"/>
	<path fill="#C1383D" d="M35.4,61.1c-0.5,0.4-1.1,0.9-1.5,1.3C34.9,61.5,35.9,61.4,35.4,61.1z"/>
</g>
</svg>
