<?xml version="1.0" encoding="utf-8"?>
<!-- Generator: Adobe Illustrator 19.1.0, SVG Export Plug-In . SVG Version: 6.00 Build 0)  -->
<svg version="1.1" id="Layer_1" xmlns="http://www.w3.org/2000/svg" xmlns:xlink="http://www.w3.org/1999/xlink" x="0px" y="0px"
	 viewBox="0 0 163.5 151.5" enable-background="new 0 0 163.5 151.5" xml:space="preserve">
<g opacity="0.5">
	<path fill="#C2C2C2" d="M86.7,95c1.8,0.5,3.8-1.6,4.8-2.8c1.2-1.2,2.8-3.1,2.9-4.8c0-0.4-0.3-0.6-0.6-0.6c-0.2-0.2-0.6-0.3-0.9,0
		c-1.1,0.9-2.5,0.5-3.8,1.1c-1,0.5-1.6,1.8-2.3,2.6C85.9,91.6,84.3,94.3,86.7,95z M91,90.8c-0.3,0.4-0.7,0.8-1.2,1.3
		c-0.6-0.1-1.3,0-1.9-0.2c1.1-0.5,2.5-0.5,3.3-1.5c0.1-0.1,0-0.3-0.1-0.3c-0.8-0.1-1.7,0.2-2.5,0.1c0.1-0.1,0.1-0.1,0.1-0.2
		c1.2-0.3,2.5-0.5,3.6-1.1C92,89.7,91.4,90.3,91,90.8z M92.8,88.5C92.7,88.5,92.7,88.5,92.8,88.5c-0.1,0-0.2,0-0.3,0
		c0.1,0,0.3-0.1,0.4-0.2C92.8,88.4,92.8,88.4,92.8,88.5z M89.5,89.3c0.8-0.1,1.6-0.3,2.5-0.4c-0.9,0.4-1.8,0.6-2.8,0.8
		C89.3,89.5,89.4,89.4,89.5,89.3z M88.4,90.6c0.8,0.1,1.6-0.1,2.3-0.1c-0.8,0.7-2.1,0.8-3.1,1.2C87.9,91.3,88.2,90.9,88.4,90.6z
		 M87.5,92C87.5,92.1,87.5,92.1,87.5,92c0.7,0.4,1.4,0.3,2.1,0.3c-0.3,0.2-0.5,0.5-0.8,0.7c-0.5,0.1-0.9,0.2-1.3,0.6
		c-0.1,0-0.1,0-0.2,0C86.6,93.7,86.9,92.9,87.5,92z"/>
	<path fill="#C2C2C2" d="M115.7,30c-5.1-7.1-12-11.6-19.7-15.4c-0.1,0-0.1-0.1-0.2-0.1c0.1-1-0.2-2-1.4-2.6
		c-4.1-2.2-4.6,3.4-5.8,5.8c0,0.1-0.1,0.1-0.1,0.2c-19-6.5-40.9-0.7-54,14.4c-13,15-14.5,37-4,53.7c5.1,8.1,12.5,14.1,21,17.9
		c-0.9,2.2-6,6.9-3.1,9.1c2.2,1.6,4-0.4,5.4-2.9c4.5,2.1,9.8,2.7,14.8,2.9c-0.8,3.3-3.2,6.8-2,10.2c0,0,0,0,0,0.1
		c-2.9,0.9-6,1.2-9,1.9c-4.3,1.1-8.6,2.5-12.3,5c-1.3,0.9-5.6,3.7-4.3,5.8c1.3,2,5.4,2.1,7.4,2.4c8.1,1.1,16.4,1.5,24.6,1.6
		c8.4,0.1,17-0.1,25.3-1.5c2.1-0.3,4.7-0.7,6.4-2.2c1.8-1.6,0.1-3.7-1.3-4.8c-7.1-5.3-17-7-25.5-8.4c0.6-3.4-0.5-6.9-1.6-10.1
		c3.2-0.2,6.4-0.6,9.6-1.2c7.6-1.5,14.9-4.7,21.2-9.3c14.9-10.8,22.3-30.8,19-48.8C124.5,45.4,120.7,37,115.7,30z M93.2,13
		c3.1,0.6-0.5,4.8-1.5,6.2c-0.6-0.3-1.3-0.5-2-0.8C90.5,16.8,90.9,12.5,93.2,13z M102.1,49.2c0.7-0.1,4.2-0.8,2.7-0.2
		c-0.9,0.3-1.7,0.5-2.5,0.9C102.2,49.7,102.1,49.4,102.1,49.2z M102.9,56.3c0.8,0,1.6,0,2.5-0.2c0.7-0.1,1.3-0.3,2-0.4
		c0.5-0.1,2.9-0.5,0.9,0.2c-1.7,0.6-3.8,0.2-5.4,1.1C102.9,56.8,102.9,56.6,102.9,56.3z M103,55.1c0.6-0.1,1.2-0.3,1.8-0.4
		c0.8-0.2,2.4-0.2,3-0.6c-1.4,0.9-3.2,1.2-4.8,1.7c0-0.1,0-0.3,0-0.4C103,55.3,103,55.2,103,55.1z M102.9,53.3
		c1.4,0,2.9-0.1,4.2-0.5c-1.4,0.4-2.8,1-4.1,1.8C103,54.2,102.9,53.7,102.9,53.3z M102.8,52.7c0-0.3-0.1-0.6-0.1-0.8
		c0.4,0,0.9,0,1.3-0.1c-0.1,0,2.2-0.3,1.3,0.1C104.6,52.2,103.7,52.3,102.8,52.7z M102.7,51.5c1,0,2.5-0.8,3.5-1.3
		c0.1,0.3,0.1,0.5,0.2,0.8C105.2,51.2,103.9,51.5,102.7,51.5z M106.1,49.5c0,0.1,0,0.3,0,0.4c-1-0.2-1.8,0.1-2.7,0.3
		c-2.3,0.5,0.4-0.5,0.9-0.7c0.7-0.2,1.3-0.5,1.9-0.8c0,0,0,0,0,0C106.1,48.9,106.1,49.2,106.1,49.5z M104.6,50.3
		c1-0.2-0.8,0.5-0.9,0.5c-0.4,0.1-0.7,0.2-1.1,0.4c0-0.2-0.1-0.3-0.1-0.5C103.2,50.6,103.9,50.5,104.6,50.3z M103,58.1
		c1.8,0.3,3.7-0.3,5.4-0.7c2.2-0.4,0.9,0.1,0.3,0.5c-0.7,0.4-1.6,0.6-2.4,0.9c-1,0.3-1.9,0.5-2.9,0.7C103.1,59.1,103,58.6,103,58.1z
		 M109.4,59.7c-0.5,0.4-1.3,0.6-2,0.8c-0.6,0.1-1.2,0.2-1.6,0.2c-0.9,0.1-1.5-0.1-1.9-0.4c0.9,0,1.9-0.2,2.8-0.4
		c0.4-0.1,0.8-0.1,1.3-0.2C108,59.6,110.3,59.1,109.4,59.7z M110.4,59c0,0-0.1-0.1-0.2,0c-1.4,0.2-2.8,0.4-4.2,0.6
		c-0.8,0.2-1.6,0.3-2.4,0.3c0,0-0.1,0-0.1,0c0,0-0.1-0.1-0.1-0.1c0.3-0.1,0.9-0.2,0.9-0.2c2-0.5,4.2-1,5.9-2.3c0,0,0,0,0-0.1
		c0.1,0.1,0.1,0.2,0.2,0.4C110.7,58.2,110.6,58.6,110.4,59z M110.1,57c-1.3,0-2.5,0.3-3.8,0.5c-0.8,0.2-1.7,0.3-2.5,0.3
		c-0.4,0-0.7,0-0.9,0c0-0.1,0-0.2,0-0.4c0.3-0.2,0.9-0.4,1.3-0.5c1.7-0.4,3.8-0.1,5.3-1.2C109.8,56.2,110,56.6,110.1,57
		C110.2,57,110.2,57,110.1,57z M103.5,56.1c-0.7,0.1-0.6,0,0.3-0.2c0.7-0.2,1.4-0.4,2.1-0.6c0.9-0.3,1.7-0.7,2.5-1.1
		c0.1,0.1,0.1,0.2,0.2,0.3c0.2,0.2,0.4,0.5,0.5,0.8C107.2,55.4,105.4,56,103.5,56.1z M103.9,54.6c-1.9,0.5,0.1-0.2,0.5-0.4
		c1-0.5,2-0.8,3.1-1.1c0.2,0.2,0.3,0.5,0.5,0.7C106.6,53.9,105.3,54.2,103.9,54.6z M104.6,52.9c-0.6,0.1-2.4,0.3-0.8-0.3
		c1-0.3,1.9-0.5,2.8-1.1c0.2,0.4,0.4,0.8,0.7,1.1C106.4,52.7,105.5,52.8,104.6,52.9z M106.2,48.6c0-0.1-0.1-0.1-0.2-0.1
		c-1.4,0.1-2.7,0.3-4.1,0.5c0,0-0.1,0-0.1,0c0-0.1-0.1-0.1-0.1-0.2c-0.1-0.1-0.1-0.3-0.2-0.4c3.6-0.3,7-1.5,10.5-2
		c0.6-0.1,1.1-0.1,1.7-0.2c0.6-0.1,2.8-0.9,0.9-0.2c-1.9,0.7-3.9,1.2-5.8,1.9c-0.2-0.1-0.4-0.2-0.6-0.3
		C107.3,47.2,106.6,47.7,106.2,48.6z M97.8,51.3C97.9,51.3,97.9,51.3,97.8,51.3c0.1,0.2,0.2,0.4,0.2,0.6c0.1,0.2,0.2,0.4,0.2,0.6
		c-1,0.1-1.9,0.4-2.8,0.8c-2.6,0.8-5.2,1.8-7.8,2.5c-2.9,0.7-6.1,1.1-8.9,2.1c-1.2,0.4-2.3,0.9-3.5,1.3c0,0-1.3,0.3-1.6,0.3
		c0,0,0-0.1,0-0.1c0.8-0.5,2-0.7,2.9-1c4.4-1.2,8.6-2.8,12.9-4.4C92.3,53.2,95.1,52.4,97.8,51.3z M84.7,55.5
		c-2.4,0.8-4.8,1.4-7.1,2.3c-1.3,0.5-2.6,0.7-3.8,1.3c0.1-0.5,0.1-1,0-1.4c3.6-0.1,7.5-1.4,10.9-2.4c0.8-0.2,1.7-0.5,2.6-0.7
		C86.4,54.9,85.5,55.2,84.7,55.5z M73.3,56c3.6-1.7,7.9-2.4,11.8-3.2c3.6-0.8,8.6-1.6,11.6-3.6c-3.7,2.5-8.7,3.4-12.9,5
		c-2.1,0.8-4.3,1.5-6.5,2.1c-1.2,0.3-2.4,0.4-3.6,0.8C73.6,56.7,73.4,56.4,73.3,56z M73.6,59.8c1.4,0,2.8-0.5,4.1-1
		c2-0.8,3.9-1.2,6-1.7c3.4-0.7,6.7-1.8,10.1-2.8c-2.5,1.2-5.3,1.7-7.9,2.5c-2.4,0.7-4.7,1.5-7,2.3c-1.8,0.6-3.7,1-5.5,1.7
		C73.4,60.4,73.5,60.1,73.6,59.8z M73.1,61.4c1.7,0,3.4-0.5,5-1.1c1.8-0.6,3.6-1.1,5.4-1.6c-1.7,0.7-3.4,1.5-5.2,2.1
		c-1.8,0.7-3.8,0.9-5.6,1.6C72.8,62.1,73,61.8,73.1,61.4z M72.4,63.3c1.7-0.2,3.4-0.7,5.1-1.2c2.3-0.7,4.7-1.2,7-1.9
		c5.1-1.5,10.2-3,15.2-4.8c0.1,0.2,0.1,0.4,0.2,0.7c0,0-0.1,0-0.1,0c-4.9,1.6-9.9,2.8-14.9,4.1c-4.3,1.2-8.7,2.1-12.8,4
		C72.1,63.9,72.2,63.6,72.4,63.3z M71.9,64.7c4.4-2.1,9.1-3.1,13.8-4.4c2.3-0.6,4.6-1.4,6.9-2c0.4-0.1,0.8-0.2,1.2-0.3
		c-3.3,1.1-6.7,2.1-10,3.2c-4.2,1.4-8.3,2.8-12.2,4.9C71.7,65.6,71.8,65.2,71.9,64.7z M100.1,60.3c0,0.2,0.1,0.3,0.1,0.5
		c-2.1,1.1-4.4,1.5-6.6,2.2c-2.7,0.8-5.4,1.7-8.1,2.5c-4.6,1.4-9.2,2.9-13.6,4.9c0-0.5-0.1-1.1-0.2-1.6c0.8-0.3,1.6-0.7,2.5-1
		c1.5-0.5,2.9-1,4.4-1.4c2.9-0.8,5.8-1.7,8.7-2.5c3-0.8,6-1.6,8.9-2.4C97.5,61.1,98.9,61,100.1,60.3z M71.6,66.7
		c4.8-0.9,9.3-3,14-4.3c2.5-0.7,5-1.2,7.4-1.9c0.1,0,0.2-0.1,0.3-0.1c-0.4,0.1-0.8,0.3-1.2,0.4c-2.5,0.8-5.1,1.5-7.6,2.4
		c-2.4,0.8-4.7,1.7-7,2.6c-2,0.7-4,1.4-5.8,2.4C71.6,67.7,71.6,67.2,71.6,66.7z M71.9,71.2c0-0.1,0-0.2,0-0.3
		c1.3-0.1,2.5-0.5,3.7-0.9c-1.3,0.6-2.6,1.3-3.9,2.1C71.8,71.8,71.9,71.5,71.9,71.2z M70.8,74.3c0.2-0.3,0.3-0.7,0.5-1
		c2-0.5,3.7-1.5,5.6-2.2c1.8-0.7,3.7-1.3,5.6-1.8C78.5,70.7,74.5,72.3,70.8,74.3C70.8,74.3,70.8,74.3,70.8,74.3z M70.3,75.3
		c1.9-0.4,3.6-1.3,5.4-2.2c3.1-1.6,6.7-2.5,10.1-3.4c0.9-0.2,1.8-0.5,2.6-0.8c-1.4,0.5-2.9,1.1-4.3,1.5c-2.7,0.9-5.4,2-8,3.2
		c-1.9,0.9-4,1-5.9,1.9C70.2,75.5,70.2,75.4,70.3,75.3z M69.7,76.6c2.4-0.3,4.6-1.2,6.9-1.9c2.8-1,5.7-1.8,8.6-2.7
		c-0.2,0.1-0.5,0.2-0.7,0.3c-3.1,1.1-6.2,2.4-9.3,3.6c-2.1,0.8-4.1,1.4-6.1,2.5C69.3,77.7,69.5,77.1,69.7,76.6z M95.4,68.7
		c1.5-0.6,3-1.2,4.5-1.7c0.2-0.1,0.4-0.1,0.6-0.2c0.9-0.3,1.8-0.5,2.7-0.8c0.1,0.3,0.1,0.6,0.1,0.9c-2.7,0.7-5.3,1.7-7.9,2.6
		c-3.1,1.2-6.3,2.1-9.5,3.1c-2.9,1-5.9,1.9-8.8,2.9c-2.7,0.9-5.6,1.6-8.1,3.1l0,0c2.4-1.5,5.3-2.2,7.9-3.2c3.1-1.2,6.1-2.5,9.2-3.5
		c1.9-0.6,3.8-1.3,5.6-2C92.9,69.6,94.2,69.2,95.4,68.7z M98.9,68.6c-1.5,0.6-3.1,1.3-4.7,1.7c-0.1,0-0.2,0.1-0.3,0.1
		c0.3-0.1,0.5-0.2,0.8-0.3C96.1,69.7,97.5,69.1,98.9,68.6z M68.8,79c0.7-0.2,1.3-0.5,2-0.8c1.5-0.8,3.2-1.3,4.9-1.8
		c3.2-1,6.3-2,9.5-3.1c2-0.7,3.9-1.3,5.9-1.9c-2.1,0.8-4.1,1.6-6.2,2.5c-5.5,2.2-11.3,4.1-16.5,7C68.5,80.3,68.6,79.6,68.8,79z
		 M102.3,69c-2.6,1.7-5.9,2.4-8.8,3.5c-3.1,1.2-6.2,2.5-9.2,3.8c-5.5,2.3-11.2,4.3-16.4,7.3c0.1-0.5,0.2-1,0.3-1.5
		c2.7-1.3,5.6-2.1,8.4-3.2c3.2-1.2,6.3-2.5,9.4-3.7c3.1-1.3,6.1-2.6,9.4-3.6c1.6-0.5,3.2-1,4.7-1.5C100.6,69.8,104.1,67.8,102.3,69z
		 M67.7,84.1c2.5-0.6,4.8-1.8,7.2-2.7c3.2-1.2,6.5-2.2,9.8-3.3c0.8-0.3,1.7-0.6,2.6-0.8c-1,0.5-2,1.1-3.1,1.6
		c-3,1.5-6.1,2.8-9.1,4.1c-2.4,1.1-5.2,1.7-7.5,3.1C67.6,85.4,67.7,84.7,67.7,84.1z M69.3,85.5c0,0-0.1,0-0.1,0.1
		C69.2,85.6,69.2,85.5,69.3,85.5z M68.6,85.8c-0.1,0.1-0.2,0.1-0.3,0.2C68.4,85.9,68.5,85.9,68.6,85.8z M80.6,81.7
		c1.1-0.4,2.3-0.8,3.4-1.1c-1.9,0.7-3.7,1.5-5.6,2.3c-2.7,1.1-5.3,2.2-8,3.3c-1,0.4-2.1,0.9-2.8,1.6c0-0.4-0.1-0.8-0.1-1.2
		C71.9,85,76.2,83.3,80.6,81.7z M72.9,86.4c2.3-0.9,4.8-1.5,7.2-2.3c2-0.6,4-1.3,6-1.9c-0.4,0.1-0.8,0.3-1.2,0.4
		c-2.2,0.8-4.4,1.6-6.5,2.5c-2.3,1-4.5,2.1-6.8,3.1c-1.1,0.5-2.5,0.8-3.4,1.6c-0.2-0.4-0.3-0.8-0.4-1.3C69.5,88,71.1,87.1,72.9,86.4
		z M86.5,84.5c-1,0.3-2,0.6-2.9,0.9c-2,0.6-4,1.4-6,2.2c-1.5,0.6-2.9,1.3-4.3,2c-1.1,0.5-2.5,0.8-3.5,1.7c-0.1,0.1,0,0.3,0.1,0.3
		c0.9,0.2,1.7-0.1,2.6-0.4c1.6-0.6,3.2-1.3,4.8-1.9c-0.1,0,2.1-0.9,1.2-0.3c-0.8,0.5-1.7,0.7-2.6,1c-1,0.3-1.9,0.7-2.6,1.5
		c-0.1,0.1,0,0.3,0.1,0.3c0.1,0,0.2,0,0.3,0c0.2,0,0.2-0.3,0-0.3c0,0,1.8-0.9,1.8-1c0.5-0.2,1.1-0.4,1.6-0.6c0.3-0.1,0.7-0.3,1-0.4
		c-2.1,1.5-4.8,3-7.5,2.6c-1.1-0.2-1.8-0.7-2.3-1.5c3.3-0.3,6.4-1.8,9.4-3.2c1.9-0.8,3.8-1.5,5.8-2.2c1.1-0.4,2.5-0.6,3.8-1
		C87,84.2,86.8,84.3,86.5,84.5z M79.6,88.3c0-0.1-0.1-0.2-0.2-0.1c-2.1,0.5-4.1,1.3-6,2.1c-0.5,0.2-1,0.4-1.6,0.6
		c-0.6,0.2-1.9,0.3,0-0.5c1-0.4,2.1-0.9,3.1-1.3c2.6-1.2,5.3-2.3,8-3.3c0.5-0.2,1.1-0.4,1.6-0.5C82.8,86.2,81.2,87.2,79.6,88.3z
		 M89.2,83.1c-3.7,0.9-7.4,2-10.9,3.5c-1.7,0.7-3.4,1.5-5.1,2.2c-1,0.4-2,0.7-3,1c-0.5,0.2-1,0.2-1.5,0c0.4-0.3,0.9-0.5,1.4-0.6
		c3.7-1.4,7.1-3.3,10.8-4.7c3.7-1.5,7.9-2.5,11.4-4.5C91.7,81.4,90.6,82.4,89.2,83.1z M92.4,79.8c0-0.1-0.1-0.1-0.2-0.1
		c-4.1,1.9-8.7,3-13,4.3c-2.4,0.7-4.8,1.4-7.1,2.3c-0.7,0.3-1.4,0.6-2.1,1c-0.7,0.3-1.3,0.6-2,0.9c0.3-0.1,0.9-0.8,1.3-1
		c4.5-2.2,9.3-4,13.9-5.9c2.1-0.8,4.2-1.6,6.2-2.5c0.4-0.1,0.7-0.3,1.1-0.5c0.8-0.3,1.5-0.7,2.3-1.1c0,0.2,0,0.4,0,0.6
		C92.7,78.6,92.6,79.2,92.4,79.8z M92.8,76.8c-0.2,0.1-0.4,0.2-0.6,0.3c-0.1-0.1-0.3,0-0.6,0.3c-1.1,0.5-2.1,1-3.2,1.4
		c-4.5,1.7-9.1,3-13.6,4.7c4.3-1.8,8.5-3.7,12.6-5.9c0.6-0.3,1.3-0.7,1.9-1c1.2-0.4,2.4-0.7,3.6-1.1c0.1,0,0.1,0,0.2-0.1
		C92.9,75.9,92.8,76.4,92.8,76.8z M93.3,75.1c-0.9,0.3-1.8,0.7-2.7,0.9c1-0.5,2-1,3.1-1.5C93.5,74.7,93.4,74.9,93.3,75.1z
		 M94.6,73.6c-0.1,0.1-0.2,0.1-0.2,0.2c-0.4,0.2-0.8,0.4-1.2,0.5c-1.6,0.7-3.1,1.5-4.7,2.3c-1.3,0.4-2.6,0.7-3.9,1.2
		c-3.3,1.1-6.5,2.1-9.8,3.3c-1.4,0.5-2.8,1.2-4.3,1.7c-0.7,0.3-1.4,0.5-2.1,0.8c-0.4,0.1-0.6,0.2-0.6,0.2c0.1,0,0.5-0.2,0.8-0.3
		c6-3.3,12.5-5.5,18.8-8.1c3-1.3,6.1-2.5,9.2-3.6c2.1-0.7,4.1-1.4,5.9-2.5C100.7,71.3,96.5,72,94.6,73.6z M103.1,68.3
		c-2.9,1-5.7,2.2-8.7,3.1c-3.2,1-6.3,2.4-9.4,3.7c-3.1,1.2-6.2,2.5-9.4,3.7c-2.5,0.9-5.1,1.7-7.5,2.8c0-0.1,0-0.2,0.1-0.3
		c5.5-3.1,11.7-5.1,17.5-7.5c3.1-1.3,6.2-2.5,9.4-3.4c2.6-0.8,5-2,7.5-2.9c0.2,0,0.3,0,0.4-0.1c0.1,0,0.2-0.1,0.3-0.1
		C103.3,67.7,103.2,68,103.1,68.3z M102.3,65.9c-0.1,0-0.1,0-0.2,0.1c-4.2,1.1-8.3,2.7-12.4,4.3c-1.9,0.6-3.8,1.1-5.7,1.7
		c-3.3,1-6.6,2-9.9,3.2c-0.7,0.2-1.4,0.5-2.2,0.7c-0.2,0.1-0.5,0.1-0.7,0.2c-0.4,0.2-0.8,0.2-1.2,0c1.4-0.8,3.2-0.9,4.8-1.4
		c2.9-0.9,5.7-2.5,8.6-3.5c3.4-1.2,6.9-2.3,10.3-3.5c0.2-0.1,0.4-0.1,0.6-0.2c0.2-0.1,0.4-0.1,0.6-0.2c2.6-0.6,5.3-1.2,7.7-2.3
		c0.2,0.3,0.3,0.6,0.4,0.9C102.8,65.8,102.6,65.9,102.3,65.9z M96.9,66.4c0.4-0.1,0.8-0.3,1.3-0.4c0.7-0.3,1.5-0.5,2.3-0.7
		c0.3-0.1,2.5-0.9,0.9-0.2C99.9,65.7,98.4,66.1,96.9,66.4z M92.5,67.4c-0.1,0-0.3,0.1-0.4,0.1c-6.3,1.7-12.7,3.4-18.5,6.3
		c-0.9,0.4-1.7,0.7-2.7,1c-0.2,0.1-0.4,0.1-0.4,0.1c0-0.1,0.1-0.1,0.1-0.2c0.4-0.2,1.2-0.6,1.3-0.7c1.6-0.9,3.3-1.6,5-2.3
		c3.3-1.3,6.6-2.7,10-3.8c1.2-0.4,2.4-0.7,3.5-1.1c3.9-0.9,7.9-1.6,11.6-3.3c0.2,0.3,0.4,0.6,0.6,0.9C99.1,65.1,95.8,66.2,92.5,67.4
		z M98.6,64.5c0.8-0.3,1.7-0.5,2.5-0.7C100.3,64,99.5,64.3,98.6,64.5z M94,65.7c-0.2,0.1-0.4,0.1-0.5,0.2
		c-5.9,1.4-11.7,3.1-17.3,5.2c-1.4,0.5-2.7,1.2-4,1.7c-0.1,0-0.4,0.2-0.7,0.3c0.1-0.1,0.1-0.3,0.2-0.4c0.5-0.4,1.1-0.7,1.7-1
		c2.9-1.6,6.2-2.7,9.4-3.7c6-1.9,12.4-3.1,18.2-5.7c0.2,0.4,0.5,0.8,0.8,1.1C99,63.9,96.6,64.9,94,65.7z M88.8,65.8
		c1.7-0.4,3.4-0.9,5-1.4c0.4-0.1,0.9-0.3,1.3-0.4C93.1,64.6,91,65.2,88.8,65.8z M86.4,66.1c-2.5,0.7-4.9,1.4-7.3,2.3
		c-1.2,0.4-2.3,0.9-3.5,1.3c-1.1,0.4-2.4,0.5-3.4,0.9c4.8-2.2,9.9-3.7,15-5.2c2.4-0.7,4.7-1.5,7.1-2.2c2-0.6,4.1-1,6-2
		c0.1,0.3,0.2,0.5,0.4,0.8C96,63.5,91.2,64.8,86.4,66.1z M99.6,59.9c-0.2,0.1-0.1,0.3,0,0.3c-0.5,0.2-1.2,0.4-1.4,0.4
		c-1,0.2-1.9,0.4-2.9,0.7c-2.7,0.7-5.4,1.5-8.1,2.2c-4.7,1.3-10,2.4-14.4,4.5c-0.6,0.3-0.9,0.4-1.1,0.5c0,0,0,0,0,0
		c0.3-0.1,1.2-0.6,1.5-0.7c1.4-0.7,3-1.1,4.4-1.7c2.6-1,5.2-2,7.8-2.8c2.5-0.8,5.1-1.5,7.5-2.3c2.4-0.8,4.7-2.1,7-3c0,0,0,0,0.1,0
		c0,0.6,0,1.2,0,1.8C99.9,59.7,99.7,59.8,99.6,59.9z M99.9,57.6c-2.1,0.7-4.1,1.5-6.2,2.3c-2.4,0.9-4.9,1.3-7.4,2
		c-4.7,1.3-9.2,3.2-13.9,4.3c-1.8,0.4,0.3-0.3,0.7-0.5c1.4-0.7,2.9-1.3,4.4-1.9c2.3-0.9,4.7-1.7,7.1-2.4c4.5-1.5,9.1-2.9,13.6-4.4
		c0.5,0,0.7-0.1,0.7-0.2c0.3-0.1,0.5-0.2,0.8-0.3c0,0,0,0,0.1,0c0.1,0.4,0.1,0.8,0.1,1.2C100,57.6,99.9,57.6,99.9,57.6z M79.4,61.2
		c-1.4,0.4-2.8,0.8-4.2,1.2c-1,0.3-2.4,0.6-2.7,0.5c0,0,0-0.1,0-0.1c0.2-0.1,0.7-0.3,1.6-0.5c3-0.9,5.9-1.7,8.9-3
		c1.6-0.7,3.3-1.3,4.9-1.8c3.7-1,7.4-2,11.1-3.3c0.1,0.3,0.3,0.6,0.4,1C92.9,57.4,86.1,59.5,79.4,61.2z M95.9,54.9
		c0.3-0.1,0.6-0.2,0.9-0.3c0.5-0.2,1-0.3,1.5-0.5C97.4,54.4,96.7,54.7,95.9,54.9z M93.6,55.5c-2.3,0.9-4.7,1.3-7.1,2.1
		c-0.2,0.1-0.5,0.1-0.7,0.2c-3.4,0.9-6.6,2-9.9,3c-0.9,0.3-1.8,0.4-2.7,0.4c0,0,0,0,0,0c0.6-0.1,1.4-0.5,2-0.7
		c1.5-0.4,3-0.8,4.5-1.4c3.4-1.2,6.8-2.2,10.3-3.1c1.3-0.3,2.6-0.7,3.8-1.3c0.5-0.3,1.1-0.6,1.6-0.9c1-0.3,2-0.6,3.1-0.9
		c0.1,0.3,0.3,0.7,0.5,1C97,53.9,95.3,54.8,93.6,55.5z M97.8,51C97.8,51,97.8,51,97.8,51c-2.2,0.5-4.3,1.2-6.4,2
		c-1.5,0.4-3,0.9-4.5,1.3c-4.2,1.2-8.7,2.8-13.1,3c3.9-0.2,8-2.1,11.6-3.5c4-1.5,8.4-2.4,12-4.8c0.2-0.1,0.1-0.4-0.1-0.3
		c-4.3,1.7-8.7,2.9-13.2,3.9c-3.6,0.8-7.6,1.5-11,3.1c-0.2-0.3-0.5-0.6-0.8-0.9c7.5-2,14.9-4.6,22.3-6.7c1.2-0.4,2.5-0.7,3.8-1
		C97.4,47.9,97.5,49.7,97.8,51z M94.6,47.8c-7.4,2.1-14.6,4.6-22,6.6c1.9-1.4,4.6-1.7,6.8-2.3c3.8-0.9,7.5-2.2,11.2-3.5
		c7.3-2.5,15.1-5.6,22.8-6.2c2.3-0.2-2,0.9-2.4,1c-1.7,0.4-3.4,1-5.1,1.4C102.1,45.9,98.3,46.8,94.6,47.8z M101.3,47.9
		c-0.2-0.2-0.4-0.5-0.6-0.6c2.1-0.5,4.3-0.9,6.4-1.3c2.3-0.5,4.5-1.4,6.8-1.9c0.9-0.3,0.9-0.3,0,0.1c-0.7,0.3-1.4,0.6-2.1,0.8
		c-1.2,0.5-2.4,0.8-3.7,1.2C106,46.8,103.6,47.4,101.3,47.9z M109.5,48.1c1.8-0.3,3.5-0.8,5.3-1.2c2.3-0.5-1.5,0.7-1.9,0.9
		c-0.9,0.3-1.8,0.6-2.6,1.1C110.1,48.6,109.8,48.3,109.5,48.1z M110.6,49.2c1.7-0.2,3.3-0.9,5-1.3c1.6-0.4-1.1,1-1.4,1.1
		c-0.9,0.5-1.9,0.9-2.8,1.4C111.2,50,110.9,49.6,110.6,49.2z M112,51.4c-0.1-0.1-0.1-0.3-0.2-0.4c1.6-0.2,3.1-0.6,4.6-1.1
		c1.9-0.5-0.4,0.2-0.9,0.5c-1.1,0.5-2.1,1.1-3.2,1.6C112.2,51.8,112.1,51.6,112,51.4z M112.6,52.5c0.5,0,1-0.1,1.5-0.2
		c0.8-0.2,3-0.4,3.6-0.8c-1.4,0.9-3,1.4-4.3,2.4C113.1,53.4,112.8,53,112.6,52.5z M113.6,54.3c1.4,0,2.6-0.6,3.9-1
		c1.6-0.6-0.7,0.7-1,0.9c-0.7,0.4-1.4,0.8-2.2,1.2C114.1,55.1,113.8,54.7,113.6,54.3z M115.1,56.5c-0.2-0.2-0.4-0.4-0.5-0.7
		c0,0,0,0,0,0c0.9,0,1.7-0.3,2.6-0.5c1.5-0.4-0.3,0.2-0.5,0.3C116.2,55.8,115.7,56.1,115.1,56.5C115.1,56.4,115.1,56.5,115.1,56.5z
		 M116.1,57.5c-0.3-0.2-0.5-0.5-0.8-0.8c0.7-0.1,1.3-0.2,2-0.4c0.6,0.2,0.6,0.4,0,0.5C116.9,57.1,116.5,57.3,116.1,57.5z
		 M118.3,57.8c-0.2,0.2-0.7,0.6-1,0.9c-0.3-0.3-0.5-0.5-0.8-0.8C117.2,57.8,118.2,57.7,118.3,57.8z M117.9,59.2c0,0-0.1-0.1-0.1-0.1
		c0.8-0.1,1.3-0.2,0.7,0.8C118.2,59.7,118.1,59.4,117.9,59.2z M119.4,60.2c0.1,0-0.1,0.6-0.2,1c-0.2-0.3-0.3-0.6-0.5-0.9
		C118.9,60.3,119,60.3,119.4,60.2z M119.7,60.9c0,0.3,0,0.6,0,0.9c0,0.2,0,0.4,0,0.5c-0.1-0.2-0.2-0.5-0.3-0.7
		C119.5,61.5,119.6,61.2,119.7,60.9z M119.3,58.6c0-0.1-0.1-0.2-0.2-0.2c-0.2,0-1.8,0.7-1,0.1c0.5-0.4,0.7-0.6,0.9-1.2
		c0-0.1-0.1-0.2-0.2-0.2c-0.9,0.1-0.6,0-1.5,0.2c0,0-0.1,0-0.1,0c0.6-0.3,1-0.5,1.5-1.1c0.1-0.1,0-0.3-0.1-0.3c-0.8,0-2.1,0-2.7,0.4
		c0.8-0.6,1.8-0.7,2.6-1.3c0.1-0.1,0-0.3-0.2-0.3c-0.6,0.1-1.2,0.2-1.7,0.4c-0.6,0.2-2.7,0.9-1.1,0c1.2-0.6,2.3-1.3,3.3-2.3
		c0,0,0,0,0-0.1c0.5,2.3,0.8,4.6,0.9,6.9C118.6,60,119.2,59.4,119.3,58.6z M118.5,52.6c-1.6,0.4-3,1.2-4.7,1.4
		c0.5,0,1.8-1.1,2.3-1.4c0.8-0.4,1.5-0.8,2.2-1.2c0,0,0,0,0,0c0.1,0.4,0.2,0.9,0.3,1.3C118.6,52.7,118.6,52.6,118.5,52.6z
		 M118.3,51.1c-1.9,0-3.7,0.8-5.6,1.1c0.6-0.1,1.7-0.9,2.3-1.2c1-0.5,2-1,2.9-1.5C118,50.1,118.2,50.6,118.3,51.1
		C118.3,51.1,118.3,51.1,118.3,51.1z M114.7,50c-0.8,0.2-2.4,0.3-3.1,0.7c1.8-1,3.7-1.8,5.4-3c0.1-0.1,0.1-0.3-0.1-0.3
		c-1.9,0.1-3.6,0.9-5.4,1.4c-1.7,0.4,1.9-0.8,2.2-0.9c1-0.3,1.8-0.7,2.7-1.2c0.2-0.1,0.1-0.3-0.1-0.3c-2.2,0.3-4.6,0.8-6.7,1.6
		c2.3-0.8,4.6-1.4,6.8-2.3c0,0,0.1-0.1,0.1-0.1c0.5,1.2,0.9,2.4,1.3,3.7C116.7,49.4,115.7,49.7,114.7,50z M116.3,45.3
		c-2.5,0.5-5,0.7-7.5,1.2c-1.4,0.3-2.7,0.7-4,1c-0.4,0.1-0.9,0.2-1.4,0.3c4.1-0.9,8.3-2.1,12.1-4c0.1-0.1,0.1-0.3-0.1-0.3
		c-2.4,0.3-4.6,1.1-6.8,1.7c-2.7,0.8-5.5,1.1-8.3,1.8c-0.2-0.1-0.3-0.2-0.5-0.2c2.1-0.5,4.1-1,6.2-1.6c2.9-0.8,6.3-1.3,9-2.8
		c0.1-0.1,0.1-0.3-0.1-0.3c-3.6-0.1-7.1,0.9-10.5,1.9c-4.4,1.2-8.7,2.6-13,4.1C87.2,49.5,83,51,78.8,52c-2.3,0.5-5,0.9-6.8,2.5
		c-0.4-0.3-0.9-0.6-1.4-0.9c1-0.1,2-0.4,3-0.7c2.1-0.7,4.2-1.2,6.3-1.7c4-1.1,8-2.5,12-3.8c3.9-1.2,7.6-2.7,11.5-3.7
		c3.6-1,7.2-1.9,10.6-3.4C114.9,41.9,115.7,43.6,116.3,45.3C116.3,45.3,116.3,45.3,116.3,45.3z M60.6,40c0.6-0.2,1.2-0.5,1.3-0.5
		c0.9-0.4,1.9-0.7,2.8-1c2.2-0.6,4.4-1.1,6.6-1.5c4-0.8,7.9-1.6,11.5-3.4c0.2-0.1,0-0.3-0.1-0.3c-3.5,0.6-7,1.5-10.5,2.3
		c-1.9,0.5-3.9,1-5.8,1.4c-1.5,0.3-3,1-4.5,1.3c0.1-0.1,0.2-0.2,0.3-0.3c0.3-0.1,0.6-0.2,0.6-0.2c1-0.4,2-0.7,3.1-1.1
		c1.8-0.6,3.7-1.1,5.5-1.6c3.4-0.9,7.1-1.4,10.3-2.7c0.9,0.7,1.7,1.5,2.5,2.4c-4,0.5-7.9,1.8-11.8,2.6c-2.2,0.5-4.4,1-6.6,1.4
		c-1.8,0.3-3.4,1.2-5.2,1.6c-0.1,0-0.3,0.1-0.4,0.1C60.4,40.3,60.5,40.2,60.6,40z M73.5,33.7c-2.9,0.7-5.7,1.8-8.6,2.4
		c-2.3,0.5,2.2-1.1,2.2-1.1c1.2-0.5,2.5-0.9,3.8-1.3c2.8-0.9,5.8-1.1,8.6-2.3c0.1,0,0.1-0.2,0.1-0.3c0.6,0.2,1.2,0.6,1.8,1
		C78.7,32.8,76.1,33.1,73.5,33.7z M79.4,31.1c-3.4,0.2-6.9,1-10.3,1.8c2.2-1.1,4.6-1.9,7-2.2C77.4,30.6,78.5,30.7,79.4,31.1
		C79.4,31.1,79.4,31.1,79.4,31.1z M68,33.5c2-0.4,4.1-0.7,6.2-1.1c1-0.2,2.1-0.4,3.1-0.6c0.5-0.1,0.9-0.2,1.4-0.3
		c-0.7,0.3-1.5,0.5-2.3,0.7c-2.4,0.6-4.7,1-7.1,1.7c-1.5,0.5-3,1.1-4.5,1.8C65.8,34.9,66.9,34.1,68,33.5z M63.6,36.7
		c3.1-0.5,6.1-1.5,9.2-2.4c1.6-0.5,3.2-0.7,4.9-1c0.4-0.1,0.8-0.1,1.2-0.2c-2.7,0.8-5.6,1.3-8.3,2c-2.7,0.7-5.2,1.6-7.8,2.5
		C63,37.3,63.3,37,63.6,36.7z M61.2,39.2c0.1-0.2,0.3-0.3,0.4-0.5c0.8,0,1.6-0.3,2.4-0.6c1.9-0.6,3.9-1.1,5.8-1.5
		c2.2-0.5,4.3-1,6.5-1.6c1.7-0.4,4.1-0.6,5.6-1.3c-6.6,3.2-14.3,3-21.1,5.9C61,39.5,61.1,39.3,61.2,39.2z M60,40.8
		c1.1-0.1,2.1-0.4,3.1-0.8c2-0.7,4-1.1,6.1-1.6c5.1-1,10.1-2.7,15.2-3.4c0.3,0.3,0.5,0.6,0.8,0.8c0,0,0,0,0,0
		c-4.4,0.9-8.8,1.8-13.2,3c-4.2,1.1-8.4,2.4-12.7,3.1C59.6,41.6,59.8,41.2,60,40.8z M91.4,29c-0.1-0.2-0.2-0.3-0.3-0.5c0,0,0,0,0,0
		c1.4-0.9,2.8-1.7,4.2-2.6c-0.2,0.2-0.4,0.3-0.6,0.5C93.6,27.3,92.5,28.2,91.4,29C91.4,29,91.4,29,91.4,29z M91.6,29.3
		c1.4-0.6,2.7-1.3,4-2c-1.3,0.8-2.6,1.7-3.7,2.7C91.8,29.8,91.7,29.6,91.6,29.3C91.5,29.3,91.6,29.3,91.6,29.3z M95.9,28.1
		c0.7-0.4,1.4-0.7,2-1.1c0.2-0.1,2.7-1.5,1.8-0.6c-0.9,1-2.4,1.5-3.5,2.3c-1.3,0.9-2.5,1.8-3.6,2.9c-0.2-0.4-0.4-0.8-0.6-1.2
		C93.3,29.6,94.6,28.8,95.9,28.1z M92.8,31.9c1.9-1,3.8-2.1,5.8-3.1c1-0.5,2-1,3-1.4c-0.7,0.3-1.7,1.3-2.5,1.9
		c-1.1,0.8-2.3,1.6-3.5,2.3c-0.7,0.4-1.5,0.8-2.2,1.3c-0.1-0.1-0.1-0.2-0.2-0.3C93,32.3,92.8,32.1,92.8,31.9
		C92.7,31.9,92.8,31.9,92.8,31.9z M93.7,33c0.1,0.1,0.3,0,0.5-0.3c0.5-0.3,1-0.6,1.5-0.9c1.1-0.6,2.2-1.2,3.3-1.7
		c0.9-0.4,1.8-0.9,2.8-1.3c0.8-0.5,0.7-0.4-0.1,0.2c-0.6,0.5-1.2,1-1.8,1.4c-0.6,0.4-1.2,0.8-1.7,1.2c-0.4,0.2-0.7,0.4-1.1,0.7
		c-0.3,0-0.6,0.1-0.8,0.2c-1.2,0.6-1.9,1.7-2.8,0.6C93.6,33.1,93.7,33,93.7,33z M97.9,32.2c0,0,0.1-0.1,0.1-0.1
		c0.4-0.2,0.8-0.4,1.2-0.6c0.8-0.4,1.7-0.8,2.5-1.2c0.4-0.2,3.7-2.1,2.1-0.3c-1.1,1.2-2.6,2-4,3c-0.8-0.3-1.6-0.6-2.1-0.6
		C97.8,32.3,97.9,32.3,97.9,32.2z M104.4,31.4c1.9-0.9,0.4,0.3-0.4,0.8c-0.8,0.5-1.6,1-2.4,1.6c-0.3-0.2-0.7-0.4-1-0.6
		C101.8,32.7,103.1,32.1,104.4,31.4z M102,34.2c1.5-0.4,3.8-1,4.7-1.9c-1.1,1.1-2.5,1.8-3.7,2.7C102.7,34.7,102.4,34.4,102,34.2z
		 M104,36.9c0-0.2,0-0.3-0.1-0.5c0.9-0.3,1.9-0.6,2.8-0.9C105.8,36,104.9,36.4,104,36.9z M100.8,39c0.2,0.1,0.4,0.2,0.5,0.2
		c-0.3,0-0.5,0.1-0.8,0.1C100.7,39.1,100.8,39,100.8,39z M99.9,38.3c0.1,0.1,0.2,0.2,0.3,0.2C99.9,38.6,99.7,38.6,99.9,38.3z
		 M98.8,37.3c0.2,0.2,0.4,0.3,0.6,0.5c-0.7,0.2-1.5,0.5-0.6-0.3C98.9,37.5,98.9,37.4,98.8,37.3z M98.7,37.3
		c-0.4,0.1-0.7,0.2-1.1,0.3c0.1-0.3,0.1-0.6,0.2-0.8C98.1,36.9,98.4,37,98.7,37.3C98.7,37.2,98.7,37.3,98.7,37.3
		C98.7,37.3,98.7,37.3,98.7,37.3z M97.5,37.9c0.5-0.2,0.9-0.3,0.2,0.2c0,0,0,0,0,0C97.6,38,97.6,38,97.5,37.9
		C97.5,37.9,97.5,37.9,97.5,37.9z M99,38.7C99,38.7,99,38.7,99,38.7c-0.1,0-0.1,0-0.2,0c-0.3-0.1-0.5-0.2-0.8-0.4
		C98.6,38.3,99.4,38.3,99,38.7z M100.1,39.3c-0.2-0.1-0.4-0.2-0.7-0.3C100.1,38.8,100.7,38.5,100.1,39.3z M110.6,36.4
		c-1.3,0.3-3,1.6-4.4,2.2c-1.5,0.7-3.1,1.4-4.5,2.2c-0.2-0.5-0.5-0.9-1-1.2C104,39.2,107.3,37.3,110.6,36.4z M101.8,41.3
		c2-0.8,4-1.6,6-2.4c1-0.4,2-0.7,3-1c-0.8,0.2-1.7,1.1-2.5,1.5c-1.8,0.9-3.8,1.9-5.7,2.6c-0.2,0.1-0.5,0.2-0.7,0.2c0,0,0-0.1,0-0.1
		C101.9,41.7,101.8,41.5,101.8,41.3z M97.9,43.6c0.1,0,0.2,0.1,0.3,0.1c-3.6,1.6-7.4,2.6-11.1,3.7c1.7-0.6,3.4-1.1,5.1-1.7
		c1.1-0.4,2.2-0.9,3.3-1.3c0.7-0.3,1.4-0.5,2.1-0.7C97.7,43.7,97.8,43.6,97.9,43.6z M92.1,45.3c-3.2,1.2-6.5,2.2-9.7,3.2
		c-3.3,1-6.6,2-9.9,2.9c-1.2,0.3-3.2,0.6-4.1,1.1c1.4-0.8,3.3-1.2,4.8-1.7c2.4-0.9,4.7-1.9,7.1-2.7c5.5-1.5,10.8-3.1,16.1-5.2
		c0,0,0,0,0,0c0.4,0.2,0.8,0.3,1.2,0.5C95.7,43.9,93.9,44.6,92.1,45.3z M85.5,46.3c1.9-0.6,3.8-1.3,5.6-2c1.4-0.6,3-0.9,4.4-1.5
		c-1.5,0.6-3.1,1.2-4.6,1.7C89.1,45.3,87.3,45.8,85.5,46.3z M88.8,44.9c-2.7,1.1-5.6,1.8-8.4,2.8c-0.3,0.1-0.5,0.2-0.8,0.3
		c-3,0.8-6,1.8-9,2.7c-1.6,0.5-3.2,1-4.7,1.4c-0.8,0.3,1.1-0.5,1.1-0.4c0.7-0.2,1.3-0.4,2-0.6c6.4-2.3,12.7-4.8,19.1-7.1
		c1.3-0.5,2.6-1,3.9-1.4c0.2,0,0.3-0.1,0.5-0.1c0.1,0,0.2,0,0.4-0.1c0.1,0,0.2,0,0.3,0c0.4-0.1,0.9-0.1,1.3-0.2
		c0.5,0.2,0.9,0.4,1.4,0.6C93.4,43,91.1,44,88.8,44.9z M93.2,41.8c-0.4,0.1-0.9,0.1-1.3,0.2c-3.3,0.6-6.4,1.8-9.6,2.9
		c-2.7,0.9-5.3,1.8-8,2.6c1.2-0.4,2.4-0.8,3.7-1.2c4.6-1.5,9.4-3.3,13.7-5.4c0.7,0.3,1.3,0.6,2,0.9C93.6,41.7,93.4,41.8,93.2,41.8z
		 M77.1,44.9c-2.7,0.8-5.4,1.6-8.1,2.3c-2.5,0.7-4.8,1.7-7.2,2.5c-1,0.3-2.6,1,0.2-0.1c1.2-0.5,2.5-0.9,3.7-1.3
		c2.6-0.9,5.2-1.7,7.8-2.7c5.3-2,10.5-4.2,15.8-6.2c0.7,0.4,1.4,0.8,2.1,1.2C86.8,42.4,81.8,43.5,77.1,44.9z M74.4,43.5
		c-4.8,1.4-9.4,3.4-14.2,4.6c-2.8,0.7,1.3-0.6,1.9-0.8c1.2-0.4,2.5-0.7,3.7-1c2.5-0.7,5-1.8,7.5-2.6c4.9-1.6,9.8-3,14.4-5.2
		c0.1,0,0.1-0.1,0.1-0.1c0.3,0.2,0.5,0.4,0.8,0.6c0.1,0.1,0.2,0.1,0.3,0.2C84.1,40.7,79.3,42.1,74.4,43.5z M87.5,38.2
		c-4.9,0.9-9.6,2.7-14.5,4.1c-0.8,0.2-1.5,0.4-2.3,0.6c0.6-0.2,1.2-0.4,1.7-0.6c4.7-1.5,9.4-2.9,13.9-4.9c0.2-0.1,0-0.3-0.1-0.3
		c-4.6,0.7-9,2.3-13.5,3.6c-2.5,0.8-5.1,1.5-7.7,2.2c-2.1,0.6-4.9,0.9-6.8,1.9c0,0,0,0,0,0c3.9-2.3,9-2.9,13.3-4.3
		c2.4-0.8,4.9-1.8,7.4-2.4c2.1-0.6,4.3-1,6.4-1.8c0.1,0,0.1-0.1,0.1-0.1C86.1,36.9,86.8,37.6,87.5,38.2
		C87.5,38.2,87.5,38.2,87.5,38.2z M58.3,45.1c4.6-1.2,9.2-2.4,13.8-3.8c2.5-0.7,4.9-1.5,7.3-2.2c1.9-0.6,4.7-0.9,6.1-1.6
		c-4.5,2-9.2,3.3-13.9,4.8c-4.3,1.3-8.5,2.8-12.7,4.1c-0.4,0-0.6,0-0.6,0.2c0,0,0,0,0,0C58.2,46.1,58.2,45.6,58.3,45.1z M59.2,42.3
		c4.4-0.7,8.7-1.9,13-3.1c2.4-0.7,4.9-1.2,7.3-1.7c0.8-0.2,1.7-0.4,2.5-0.5c-1.8,0.5-3.7,0.9-5.5,1.4c-2.5,0.8-5,1.8-7.5,2.6
		c-3.5,1.2-7.3,1.8-10.6,3.4C58.6,43.7,58.9,43,59.2,42.3z M72.3,42.8c2.4-0.7,4.8-1.4,7.2-2.2c2.3-0.7,5.2-1.2,7.2-2.1
		c-4.8,2.3-10.1,3.6-15.2,5.3c-2.2,0.7-4.4,1.7-6.7,2.3c-2.1,0.6-4.2,1.1-6.3,2c0-0.1-0.1-0.2-0.1-0.3c-0.1-0.3-0.2-0.6-0.2-1
		C63,45.7,67.6,44.2,72.3,42.8z M64,47.2c2.4-0.9,4.9-1.6,7.3-2.4c4.2-1.3,8.4-2.5,12.7-3.8c-0.3,0.1-0.6,0.2-0.9,0.3
		c-2.7,1.1-5.4,2.2-8.1,3.2c-4.9,1.9-10.1,3.3-15,5.4c-0.5-0.4-0.9-0.9-1.2-1.5C60.7,48.5,62.3,47.9,64,47.2z M69.9,47.3
		c4-1.1,8-2.3,12-3.6c1.8-0.6,3.6-1,5.4-1.5c0.5-0.1,1-0.3,1.5-0.4c-3.3,1.4-6.8,2.7-10.1,3.8c-3.6,1.3-7.3,2.4-10.9,3.8
		c-0.8,0.3-1.6,0.6-2.4,0.9c-0.4,0.1-0.8,0.3-1.2,0.4c-0.1,0.1-0.3,0.1-0.4,0.2c-0.5,0-0.7,0.1-0.8,0.3c-0.2,0.1-0.4,0.2-0.7,0.2
		c-0.7-0.2-1.3-0.6-1.9-1C63.7,49.8,66.7,48.2,69.9,47.3z M66.1,50.4c1.1-0.4,2.3-0.7,3.4-1.1c4-1.3,8.1-2.5,12.1-3.8
		c2.5-0.8,5-1.7,7.5-2.5c-0.4,0.2-0.8,0.3-1.2,0.5c-2.8,1.1-5.6,2.2-8.4,3.2c-2.8,1-5.7,1.9-8.5,3c-2.1,0.8-4.3,1.4-6.4,2.3
		c-0.6-0.1-1.2-0.3-1.8-0.5C64,51.2,65.1,50.8,66.1,50.4z M71.5,50.7c1.6-0.5,3.1-1,4.7-1.4c-1.3,0.5-2.6,1-3.9,1.5
		c-1.5,0.5-3.4,0.9-4.7,1.9c-0.5-0.1-0.9-0.2-1.4-0.3C68.1,52,69.9,51.2,71.5,50.7z M79.5,49.8c-2.1,0.7-4.2,1.3-6.3,2
		c-1.3,0.4-2.7,0.6-3.8,1.4c-0.3-0.1-0.6-0.2-0.9-0.3C72.2,51.9,75.9,50.9,79.5,49.8z M94.9,46.1c-6.3,2.2-12.8,4.4-19.4,5.8
		c-1.4,0.3-2.8,1-4.2,1.3c-0.6,0.2-1,0.2-1.2,0.2c0,0-0.1,0-0.1-0.1c0.2-0.2,2-0.9,2.5-1.1c3-0.9,6-1.8,8.9-2.8
		c3.1-1,6.1-1.9,9.3-2.7c2.7-0.7,5.3-1.8,7.9-2.9c0.1,0,0.2,0.1,0.3,0.2c0.3,0.2,0.6,0.1,0.8-0.1c0.4,0,0.9-0.2,1.3-0.4
		c4.2-0.9,8.2-3.3,12.2-4.7c0.2,0.4,0.5,0.8,0.7,1.1C107.7,42.7,101.1,43.9,94.9,46.1z M106,41.3c-1.2,0.5-2.4,1-3.6,1.4
		c-0.1,0-0.4,0.1-0.8,0.2c0.1-0.2,0.2-0.4,0.3-0.7c3.3-1.4,7-2.3,9.7-4.7c0.1-0.1,0-0.3-0.2-0.3c-3,0.8-6.5,2-9.1,3.5
		c2.9-1.7,6.2-2.6,9-4.6c0,0,0,0,0-0.1c0.6,0.8,1.1,1.6,1.6,2.4C110.6,39.4,108.3,40.4,106,41.3z M104.8,38
		c-0.5,0.2-0.9,0.4-1.4,0.5c0.1-0.2,0.3-0.4,0.4-0.7c0-0.1,0.1-0.2,0.1-0.2c2.3-0.5,4.3-1.7,6.4-2.4c0.1,0,0.1-0.1,0.1-0.2
		c0.2,0.3,0.5,0.6,0.7,0.9C109,36.5,106.9,37.2,104.8,38z M110.3,34.9c-2.1,0.7-4.1,1.9-6.3,2.4c0,0,0,0,0,0c2-1,4-1.9,5.9-3
		c0.2,0.2,0.3,0.4,0.5,0.6C110.3,34.9,110.3,34.9,110.3,34.9z M103.8,36.1c-0.1-0.2-0.2-0.4-0.4-0.7c1.9-0.6,3.6-1.6,5.4-2.3
		c0,0,0,0,0,0c0.3,0.3,0.5,0.6,0.8,1C107.8,34.8,105.8,35.5,103.8,36.1z M103.2,35.2c1.3-0.4,3.1-2.1,4.2-3.1c0.1-0.1,0-0.3-0.2-0.3
		c-0.8,0.3-1.5,0.6-2.2,0.9c-0.7,0.3-1.4,0.6-2.2,0.9c-0.5,0.2-1.4,0.7-0.3,0.1c1.4-1,2.9-1.7,4-3.1c0.7,0.7,1.5,1.5,2.2,2.3
		C106.8,33.6,105.1,34.5,103.2,35.2z M102.8,31.8c-0.7,0.3-1.3,0.6-2,1c1.5-1,3.3-2,4.2-3.7c0.4,0.4,0.8,0.8,1.2,1.1
		C105.1,30.7,104,31.3,102.8,31.8z M100.3,30.6c1-0.7,1.9-1.5,2.9-2.3c0.1-0.1,0-0.3-0.2-0.3c-1.6,0.6-3.1,1.3-4.6,2.1
		c1.3-0.9,2.6-1.9,3.9-3c0.1,0,0.1-0.1,0-0.2c0.3,0.2,0.5,0.4,0.8,0.6c0.5,0.4,1.1,0.9,1.6,1.4C103.3,29.4,101.8,29.9,100.3,30.6z
		 M102.1,26.8c-1.8,0.7-3.5,1.6-5.2,2.5c-0.7,0.4-1.4,0.8-2.2,1.2c-0.4,0.2-2.3,1.7-0.8,0.4c2-1.7,5.2-2.8,6.7-5c0-0.1,0-0.1,0-0.2
		c0.5,0.4,1,0.7,1.5,1.1C102.2,26.8,102.1,26.8,102.1,26.8z M100.5,25.6c-1.4,0.5-2.7,1.2-4.1,1.9c1.1-0.8,2.1-1.6,3.1-2.3
		c0.1,0,0.1-0.1,0.1-0.2C99.9,25.1,100.2,25.3,100.5,25.6C100.5,25.6,100.5,25.5,100.5,25.6z M99.4,24.8c-2.4,1.3-4.7,2.7-7.2,3.9
		c1.9-0.9,4.1-3,6-4.3c0.2-0.1,0-0.4-0.2-0.3c-0.3,0.1-0.6,0.3-0.8,0.4c-0.1,0-0.2,0.1-0.3,0.2c-0.6,0.4-1.3,0.9-1.9,1.2
		c-1.3,0.8-2.7,1.5-4,2.3c0,0,0,0,0,0c-0.1-0.2-0.3-0.4-0.5-0.5c2.6-0.8,4.5-2.9,7-3.9c0.2-0.1,0.1-0.4-0.1-0.3
		c-1.9,0.8-3.5,2.1-5.2,3.1c-0.5,0.3-1,0.5-1.5,0.7c-0.2,0.1-0.3,0.1-0.4,0.1c0,0,0,0,0,0c0.1-0.1,0.2-0.1,0.4-0.3
		c0.6-0.5,1.2-1,1.7-1.5c0.2,0,0.3,0,0.5,0c1.1,0,1.7-0.7,1.5-1.7c0.6-0.2,1.2-0.5,1.8-0.7c0.2-0.1,0.1-0.4-0.1-0.3
		c-0.6,0.1-1.1,0.3-1.7,0.4c0.4-0.3,0.8-0.5,1.1-0.8c0.1-0.1,0-0.3-0.1-0.3c-0.7-0.1-1.3,0.1-2,0.2c0,0-0.1-0.1-0.1-0.1
		c0.1-0.2,0.3-0.3,0.4-0.5c0.1-0.1,0-0.3-0.1-0.3c-0.5,0-1,0.3-1.5,0.4c0.4-0.2,0.8-0.4,1.2-0.5c0.2,0,0.1-0.3,0-0.3c0,0,0,0,0,0
		C95.4,22.3,97.4,23.5,99.4,24.8C99.4,24.8,99.4,24.8,99.4,24.8z M84,27.5c-0.1,0-0.1,0.1-0.2,0.1c0,0,0,0-0.1,0
		c0.8-0.5,1.7-1.1,2.3-1.8c0.1,0,0.1-0.1,0.2-0.1c0.6-0.4,2.9-1.3,0.9,0.2c-0.4,0.3-0.9,0.6-1.4,0.9C85.1,26.9,84.5,27.1,84,27.5z
		 M85.7,25.6C85.7,25.6,85.7,25.6,85.7,25.6C85.7,25.5,85.8,25.5,85.7,25.6z M86.9,24.9c-0.1,0.1-0.3,0.2-0.4,0.2c0,0,0,0,0,0
		c0.1-0.2-0.1-0.3-0.2-0.2c-0.3,0.2-0.6,0.4-1,0.6c0-0.1-0.1-0.1-0.1-0.2c0.5-0.5,0.9-0.8,1.2-1.4c0-0.1,0-0.1,0-0.2
		c0.4,0.3,0.9,0.6,1.4,0.9C87.5,24.6,87.2,24.7,86.9,24.9z M86.1,23.6c-2.5,1.1-1.4,0.3-0.7-0.5c0-0.1,0-0.1,0-0.2
		C85.7,23.1,86,23.4,86.1,23.6c0.1,0,0.1,0,0.1,0C86.2,23.6,86.2,23.6,86.1,23.6z M85.3,22.8c-0.5,0-0.9,0-1.3,0.1
		c0-0.4,0.2-0.8,0.7-0.5C85,22.6,85.2,22.7,85.3,22.8C85.3,22.8,85.3,22.8,85.3,22.8z M84.1,23.8c0-0.1-0.1-0.3-0.1-0.5
		C84.6,23.2,84.4,23.5,84.1,23.8z M84.2,25.5c0.1-0.3,0.1-0.6,0.1-0.9c0.6-0.2,1.7-0.6,1.1,0c-0.5,0.5-0.9,0.8-1.3,1.4
		c0,0.1,0,0.1,0,0.2c-1.1,0.7-2.3,1.4-3.6,1.8c0,0-0.1,0-0.1,0c0,0-0.1,0-0.1,0c0.1-0.2,1-0.7,1.1-0.8c0.2-0.2,0.3-0.4,0.4-0.6
		C82.7,26.7,83.7,26.4,84.2,25.5z M79.9,26.2c0.4,0.1,0.8,0.2,1.1,0.2c-0.6,0.3-1.3,0.6-2,0.9c0.3-0.1,0.7-0.6,0.9-1
		C79.9,26.4,79.9,26.3,79.9,26.2z M78.4,26.8c-1.2,0.6-0.3-0.1,0-0.7c0,0,0-0.1,0-0.1c0.4,0.1,0.8,0.1,1.2,0.2
		C79,26.4,79,26.4,78.4,26.8z M76.9,26.6c0-0.1-0.1-0.1-0.1-0.2c-0.2-0.4,0.4-0.5,1.2-0.4C77.6,26.1,77.3,26.3,76.9,26.6z M77.3,27
		c-0.1-0.1-0.1-0.1-0.2-0.2C77.9,26.4,77.8,26.5,77.3,27z M78.3,27.5c-0.2-0.1-0.4-0.1-0.5-0.2C78.4,27.1,79.1,26.8,78.3,27.5z
		 M81.1,26.8c-0.1,0.1-0.8,0.7-1.1,1.1c-0.3-0.1-0.7-0.1-1.1-0.2C79.7,27.5,80.4,27.1,81.1,26.8z M84.6,26.2c0.1,0,0.3,0,0.4,0
		c-0.4,0.3-0.9,0.7-1.1,0.8c-0.6,0.4-1.2,0.7-1.8,1.1c-0.4,0.1-0.8,0-1.2,0C82.3,27.7,83.5,27,84.6,26.2z M88.6,24.9
		c0.3,0.1,0.6,0.2,0.9,0.3c-0.7,0.3-1.4,0.7-2.1,1.1c0,0-0.1,0.1-0.1,0.1c-0.1,0-0.3,0-0.4,0C87.5,26,88.1,25.5,88.6,24.9z
		 M90.3,22.1c0.6-0.4,1.5-0.5,2.3-0.6c-0.5,0.2-0.9,0.4-1.4,0.8C90.8,22.2,90.2,22.2,90.3,22.1z M93.6,22.9c0.4-0.1,0.7-0.1,1.1-0.2
		c-0.3,0.2-0.6,0.3-0.8,0.5C93.8,23.1,93.7,23,93.6,22.9z M92.8,22.4c-0.1,0-0.2,0-0.3-0.1c0.1-0.1,0.3-0.1,0.4-0.1
		C92.9,22.3,92.9,22.3,92.8,22.4z M88.9,26.7c-0.1,0-0.1,0-0.2-0.1c0-0.1,0.1-0.1,0.2-0.3c0.3-0.3,0.7-0.6,1-1
		c0.3,0.1,0.7,0.2,1,0.2c-0.2,0.1-0.5,0.2-0.7,0.4C90.1,26.1,89.3,26.6,88.9,26.7z M89.4,25.5c-0.3,0.4-0.7,0.7-1,1.1
		c-0.2-0.1-0.4-0.1-0.5-0.1C88.4,26.2,89.1,25.9,89.4,25.5z M91,26c0.1,0,0.3-0.2,0.5-0.3c0.1,0,0.2,0,0.3,0c0,0-0.1,0.1-0.1,0.1
		c-0.5,0.6-1.1,1-1.8,1.5c-0.2-0.2-0.4-0.3-0.7-0.5C89.8,26.6,90.4,26.3,91,26z M25.7,70.7c0,0,0.1,0.1,0.1,0.1
		c0.6-0.1,2.3-0.9,1.4,0.2c-0.4,0.5-0.8,0.8-1.1,1.3C26,71.7,25.8,71.2,25.7,70.7z M25.2,67.6c0.7-0.4,1.4-0.7,2.1-0.9
		c0.2-0.1,0.5-0.1,0.7-0.2c0,0.1,0,0.2-0.1,0.2c-0.2,0.2-0.4,0.4-0.6,0.5c-0.7,0.5-1.4,1-1.9,1.6C25.4,68.5,25.3,68,25.2,67.6z
		 M25.5,69.4c0.3-0.1,0.6-0.3,0.9-0.4c0.3-0.3,0.7-0.4,1.1-0.2c-0.6,0.6-1.2,1.1-1.8,1.7c0,0,0,0.1,0,0.1
		C25.6,70.1,25.6,69.8,25.5,69.4C25.5,69.4,25.5,69.4,25.5,69.4z M28,71.6C27.9,71.6,27.9,71.6,28,71.6c-0.4,0.1-1.6,0.6-0.8-0.2
		c0.4-0.4,0.7-0.7,0.9-1.1C28,70.8,28,71.2,28,71.6z M26.2,72.5c0.3-0.1,1.9-1,1.4-0.1c-0.2,0.3-0.5,0.6-0.7,0.9
		c-0.2,0.3-0.3,0.6-0.2,0.9C26.5,73.7,26.3,73.1,26.2,72.5C26.2,72.5,26.2,72.5,26.2,72.5z M26.9,75C26.9,75,26.9,75,26.9,75
		c0,0,0,0.1,0,0.1c0-0.1-0.1-0.3-0.1-0.4C26.8,74.8,26.9,74.9,26.9,75z M27.1,74.6c-0.2-0.7,0.2-1.2,0.6-1.8
		c-0.1,0.2-0.1,0.4-0.2,0.6C27.4,73.8,27.2,74.2,27.1,74.6z M27.9,69c0,0.3,0,0.5,0.1,0.8c0,0,0,0,0,0c-0.3,0.1-0.7,0.2-1,0.4
		c-1.4,0.5-0.2-0.3,0.1-0.5c0.3-0.3,0.6-0.6,0.9-0.9C27.9,68.8,27.9,68.9,27.9,69z M27.9,67.9c-0.2,0-0.4,0.1-0.7,0.2
		c-0.3,0.2-0.6,0.3-0.9,0.5c-0.6,0.3-0.6,0.3-0.1,0.1c0.6-0.6,1.2-1,1.8-1.4C27.9,67.4,27.9,67.7,27.9,67.9z M28.2,66.2
		c-1,0.3-2.1,0.5-3,1.1c0-0.3-0.1-0.6-0.1-0.9c1.9-0.5,3.5-1.5,5.2-2.3c0.6-0.3,1.3-0.6,2-0.9c0.9-0.4,0.9-0.3,0.2,0.2
		c-0.7,0.5-1.4,0.9-2,1.4c-0.4-0.2-0.7-0.2-1.1,0C28.8,65,28.4,65.6,28.2,66.2z M28.2,45.5c0.6-0.1,1-0.3,1.5-0.6
		c0.4-0.2,2.5-1.6,0.8-0.3c-0.8,0.6-1.7,1-2.6,1.5C28.1,45.9,28.1,45.7,28.2,45.5z M32.2,38c0.8-0.2,0.9-0.3-0.2,0.2
		C32.1,38.1,32.1,38.1,32.2,38z M31.5,39c0.5-0.2,1.1-0.4,1.7-0.5c-0.4,0.1-1,0.6-1.4,0.9c-0.2,0.1-0.4,0.2-0.7,0.4
		C31.3,39.4,31.4,39.2,31.5,39z M30.3,41.1c0.3-0.1,0.6-0.2,0.9-0.4c0.7-0.3,3.3-1.5,1.2,0c-0.9,0.6-1.9,1.1-2.9,1.7
		C29.9,42,30.1,41.5,30.3,41.1z M29.2,43.3c0.5-0.1,1-0.2,1.5-0.4c0.8-0.4,1.6-0.7,2.5-1c-0.5,0.2-0.9,0.4-1.4,0.6
		c-1.1,0.5-2.1,1-3,1.7C28.9,43.9,29.1,43.6,29.2,43.3z M27.5,47.3c0.6-0.2,1.2-0.4,1.8-0.6c0.6-0.2,3.4-1.5,1.4-0.1
		c-1.2,0.8-2.5,1.3-3.7,2.1C27.2,48.2,27.4,47.8,27.5,47.3z M32.3,47.1c-0.7,0.2-1.4,0.4-2.1,0.7c-0.4,0.2-0.9,0.4-1.3,0.6
		c0.6-0.3-2.8,1.5-1.6,0.6c1.5-1.1,3.4-1.5,4.8-2.9C32.1,46.4,32.1,46.7,32.3,47.1z M26.8,49.5c0.8-0.3,1.5-0.6,2.3-0.9
		c0.9-0.4,1.7-0.8,2.6-1.1c1.1-0.4,0.7-0.2,0.1,0.1c-1.7,1.1-3.6,1.9-5.3,3.1C26.6,50.4,26.7,49.9,26.8,49.5z M26.3,51.5
		c1-0.3,2-0.7,3-1.2c0.8-0.4,1.7-0.8,2.5-1.1c0.5-0.2,2.4-0.7,1,0.2c-2.3,1.4-4.8,2-6.9,3.7C26,52.5,26.1,52,26.3,51.5z M25.8,53.7
		c1.5-0.5,3-1.1,4.4-1.8c1.2-0.5,2.5-1.1,3.8-1.6c1.9-0.7-0.4,0.4-0.7,0.6c-2.6,1.5-5.4,2.3-7.7,4.2C25.6,54.6,25.7,54.1,25.8,53.7z
		 M25.4,55.7c1.4-0.5,2.6-1.1,3.9-1.7c1.1-0.6,2.3-0.9,3.5-1.3c0.5-0.2,1-0.3,1.5-0.5c-0.4,0.2-0.7,0.4-1.1,0.6
		c-1.4,0.8-2.8,1.6-4.2,2.4c-1.3,0.8-2.7,1.2-3.8,2.1C25.2,56.8,25.3,56.3,25.4,55.7z M25.1,57.8C25.2,57.8,25.2,57.8,25.1,57.8
		c1.8-0.8,3.7-1.5,5.5-2.2c0.9-0.4,1.9-0.8,2.8-1.2c0.4-0.2,3.1-1.6,1.1-0.4c-3.1,1.8-6.7,3.2-9.5,5.5C25,58.8,25.1,58.3,25.1,57.8z
		 M28.8,61.2c-1.4,0.7-2.8,1.4-3.9,2.5c0-0.5,0-1,0-1.5c0,0,0.1,0,0.1,0c3.5-0.9,6.6-2.4,9.5-4.4C32.7,59.1,30.8,60.3,28.8,61.2z
		 M24.9,62c0-0.7,0-1.4,0.1-2.1c2.3-0.5,4.3-1.7,6.4-2.6c0.7-0.3,1.4-0.5,2.1-0.8c0.6-0.3,1.3-0.5,1.9-0.8c0.1-0.1,0.3-0.1,0.4-0.2
		c-0.1,0-0.2,0.1-0.3,0.2c-1.8,1.1-3.8,1.8-5.6,2.9C28.1,59.6,26.4,60.7,24.9,62z M24.9,64.1C25,64.1,25,64.1,24.9,64.1
		c1.3-0.2,2.4-0.7,3.6-1.2c1.7-0.8,3.4-1.4,5.1-2.2c0,0,0,0,0,0c-3,1.4-5.7,3.4-8.5,5.1C25,65.3,25,64.7,24.9,64.1z M32.1,65.6
		c0.3,0,0.6-0.1,0.8-0.2c-0.2,0.4-0.6,0.6-1.1,0.2c-0.2-0.2-0.4-0.4-0.7-0.6c0.6-0.1,1.2-0.1,0.9,0.3C31.8,65.5,31.9,65.6,32.1,65.6
		z M33.1,65c-0.7,0.2-0.5,0.2-0.1-0.4c0.1-0.1,0-0.2-0.1-0.3c-0.7-0.1-2.6,0.8-1.3-0.1c0.7-0.5,1.3-0.9,1.9-1.4
		C33.4,63.4,33.3,64.3,33.1,65z M33.4,62.3c-1.4,0.4-2.6,1-3.9,1.7c-0.7,0.3-1.3,0.7-2,1c0,0-3.3,1.7-1.4,0.6
		c2.4-1.5,5.1-2.9,7.4-4.6C33.5,61.4,33.5,61.9,33.4,62.3z M33.8,59.5c-0.1,0.3-0.1,0.5-0.2,0.8c-1.4,0.6-2.8,1.1-4.2,1.7
		c-0.6,0.3-1.2,0.6-1.7,0.8c0,0-2.4,0.9-2.2,0.7c1.2-1.3,3.4-2,4.9-2.8c1.3-0.7,2.6-1.5,3.9-2.3C34.1,58.7,33.9,59.1,33.8,59.5z
		 M35.5,57.5c0-0.1-0.1-0.1-0.2-0.1c-1.6,0.7-3,1.7-4.6,2.4c-1.2,0.5-2.4,1-3.6,1.5c-1,0.4-2.5,1.2-0.2-0.5c3.1-2.2,6.7-3.4,9.8-5.6
		C36.6,56.1,36,57,35.5,57.5z M25.5,59.4c0.7-0.2,1.7-1.1,2.4-1.5c0.9-0.5,1.8-0.9,2.7-1.3c1.7-0.9,3.4-1.9,5.1-2.9
		c0.2,0.3,0.4,0.6,0.6,0.7c0.2,0.2,0.3,0.4,0.3,0.6C32.8,56.1,29.3,58.2,25.5,59.4z M31.2,55c-1.3,0.6-2.6,1-3.8,1.5
		c-0.1,0.1-2.3,1.3-1.1,0.5c2.8-1.9,6.3-2.9,8.9-5.1c0.1-0.1,0-0.3-0.2-0.3c-1.5,0.5-3.1,0.9-4.5,1.5c-0.9,0.4-1.8,0.9-2.7,1.3
		c-0.8,0.4-3.5,1.9-1,0.2c2.7-1.9,6-2.6,8.7-4.6c0.1,0.6,0.1,1.3-0.1,2c-0.1,0.5,0,0.9,0.2,1.3C34,53.6,32.6,54.3,31.2,55z
		 M30.8,51.3c-1,0.4-2,0.9-3,1.3c-0.7,0.3-2.9,1.5-0.6,0c2.3-1.6,5.1-2.1,7.3-3.9c0.4,0.2,0.6,0.6,0.8,0.9
		C33.7,50,32.3,50.7,30.8,51.3z M27.2,50.9c-1.7,0.7,0.2-0.4,0.5-0.5c0.6-0.4,1.2-0.7,1.8-1c1.1-0.6,2.1-1.1,3.1-1.8
		c0.2,0.3,0.5,0.5,1,0.7c0.1,0,0.3,0.1,0.4,0.1C31.5,48.7,29.4,50,27.2,50.9z M32.2,44c-0.2,0.4-0.3,1-0.2,1.5
		c-1.5,0.3-2.9,0.9-4.3,1.4c0,0,0,0,0,0c1.6-0.6,3.1-2.1,4.4-3c0.1-0.1,0.1-0.4-0.1-0.3c-0.7,0.2-1.2,0.4-1.8,0.7
		c-0.5,0.3-1.1,0.6-1.6,0.8c0.1-0.2,0.1-0.3,0.2-0.5c0.4-0.4,0.8-0.7,1.2-0.9c1-0.6,2.1-1,3.1-1.6C32.8,42.8,32.5,43.4,32.2,44z
		 M33.4,41.5c-0.5,0.2-1.1,0.4-1.6,0.6c-1,0.4-3,1.2-1.1,0.1c1.1-0.6,2.3-1.1,3.1-2.2C33.7,40.5,33.5,41,33.4,41.5z M33.9,38.8
		c0,0.2,0,0.4,0,0.6c0,0,0,0-0.1,0c-0.5,0.1-0.9,0.2-1.4,0.4c-0.6,0.3-1.3,0.6-1.9,0.8c0.1-0.2,0.2-0.3,0.3-0.5c1-0.6,2.1-1.1,3-1.8
		C33.8,38.5,33.9,38.7,33.9,38.8z M33.8,37.9c-0.4,0.1-0.9,0.2-1.3,0.3c0.4-0.2,0.8-0.4,1.1-0.7c0.1-0.1,0-0.3-0.2-0.3
		c-0.4,0.1-0.7,0.2-1.1,0.3c0.4-0.5,0.7-1.1,1.1-1.6C33.6,36.6,33.7,37.3,33.8,37.9z M29.4,81.2c-0.6-1.3-1.2-2.5-1.7-3.8
		c0.1-0.1,0.2-0.2,0.2-0.4c0.1-1.6,0.9-3,1.4-4.5c0.3-1.1,0.1-2.3,0-3.5c-0.1-0.9-0.1-3.9,1.3-2.6c0.4,0.3,0.8,0.8,1.3,0.9
		c1.1,0.3,2.1-0.3,2.5-1.4c0.3-0.9,0.3-1.8,0.4-2.7c0.1-2,0.4-3.2,1.8-4.7c1-1.1,2.1-3,1.3-4.4c-0.4-0.7-1.4-1.1-1.1-2
		c0.2-0.7,0.5-1.8,0.2-2.5c-0.2-0.8-0.6-1.5-1.3-1.9c-0.4-0.2-0.6-0.3-1-0.4c-1.9-0.6-1.1-2.8-0.6-4c0.5-1.1,1.1-2.2,1.1-3.4
		c0.1-1.8-0.4-3.6-0.4-5.4c2.5-3.2,5.5-6,8.8-8.5c13.8-10.1,32.1-11.7,47.5-5.4c-0.8,0.2-1.5,0.4-2.1,1c-0.9,0.9,0.1,2,1,2.3
		c0.3,0.1,0.7,0,1.1,0c0.2,0,0.3,0,0.5,0c0.5-0.2,0.8,0.1,0.7,0.7c-1.5,0-3.4-0.7-4.6-1.5c-1-0.5-2.9-2.9-4.2-1.7
		c-0.5,0.5-0.7,1-0.8,1.7c-0.1,0.8,0.9,2.2-0.6,2.3c-1.4,0.1-3-0.7-4.4-0.8c-2.9-0.3-2.9,2.9-0.6,4c1.4,0.7,3.4,1.2,5,1.2
		c0.8,0,1.5-0.4,2.1-0.8c2-1.2,3.7-1.6,5.6,0c1.8,1.6,1.6,4.4,3.6,5.9c1.6,1.2,2.9-1.3,4.4-1.1c1,0.2,2,0.7,2.9,1.2
		c0.5,0.3,0.9,0.7,1.3,1.1c0.2,0.2,1.3,2.7-0.5,1.8c-1.4-0.7-2.2-2.4-3.9-2.5c-1.3-0.1-1.8,0.8-1.8,2c0,1.7,2,2.4,3.2,2.9
		c0.1,0.1,0.3,0.1,0.4,0.2c1.1,0.4,0.9,1.2-0.4,2.2c0,0,0,0,0,0c-2.4-1.2-4.9-2.2-7.3-3.4c-2.8-1.4-4.7-3.3-6.7-5.6
		c-1.3-1.5-2.8-3.1-4.7-3.8c-2.2-0.8-4.5-0.6-6.8-0.1c-7.4,1.7-20.1,10.7-15.8,19.7c2.2,4.6,9,3.5,12.8,5.6c3.1,1.7,1.6,5.2,0.7,7.7
		c-0.4,1-0.7,2-0.9,3.1c-0.3,1.5,0.2,3,0.3,4.5c0.2,2.1-1.6,4.3-2.4,6.3c-0.6,1.6-1,3.2-1.4,4.8c-0.6,2.8-1.1,6.2,0.1,8.9
		c1.1,2.6,3.6,3.2,6.2,2.8c2.5-0.4,4.5-1.8,6.5-3.2c2.7-2,5.5-3.4,8.6-4.8c2-0.9,3.9-2,5.2-3.9c1.5-2.3-0.1-5.1,2.4-7
		c2.7-1.9,6.8-2.2,8.5-5.5c0.7-1.4,0.5-3.1-0.3-4.5c-0.7-1.2-1.8-2.1-2.3-3.5c-0.6-1.5-0.1-3.3-0.4-4.8c-0.2-1.1-0.7-2.1-1.2-3.1
		c-0.3-0.7-0.6-1.4-0.9-2.1c-0.1-0.2-0.1-0.4-0.2-0.6c-0.4-1,0.1-1.5,1.4-1.5c1.4,2.1,1.2,5.5,1.1,8c0,1.5,0,3,1.1,4.2
		c1.1,1.3,3.4,1,4.9,0.7c1.4-0.2,3.7-1,4.2-2.5c0.6-2.1-0.8-4-2-5.6c-0.4-0.6-0.8-1.1-1.2-1.7c-0.2-0.3-0.4-0.6-0.6-1
		c0.1,0.2-1.4-3,0.3-2.1c2,1,3,4,4,5.8c1,1.8,2.2,3.2,3.7,4.5c2.2,2,2.9,4.2,3.4,7c0,0.1,0.1,0.2,0.1,0.3
		c-2.2,19.5-17.3,35.1-36.6,39.5C61.8,110.6,39.2,100.5,29.4,81.2z M49.1,111.7c-0.7-1,1.3-3.5,1.8-4.3c0.6-0.9,1.4-1.9,1.9-2.9
		c0.6,0.2,1.2,0.5,1.7,0.7C53.6,107.3,50.7,114,49.1,111.7z M70.5,113.1c1.2,0,2.4,0.1,3.6,0c-1.5,0.4-3,0.7-4.5,0.9
		c0.1-0.3,0.2-0.7,0.3-1C70.1,113,70.3,113.1,70.5,113.1z M75.7,115.7c0.1,0.3,0.2,0.7,0.3,1c-2.5,0.8-4.9,1.8-7.5,2.4
		c-0.1,0-0.2,0.1-0.3,0.1c0.1,0,0.3-0.1,0.4-0.2c0.7-0.3,1.4-0.7,2-1c1.6-0.8,3.2-1.5,4.9-2.1C75.6,115.8,75.7,115.7,75.7,115.7z
		 M76.4,118.6C76.4,118.6,76.4,118.6,76.4,118.6c-2.9,0.8-5.8,1.9-8.8,2c0,0,0,0,0,0c1.3-0.2,2.8-1.1,4-1.6c1.5-0.6,3-1.3,4.5-2
		C76.2,117.6,76.3,118.1,76.4,118.6z M83.1,125.5c-1.7,0.7-3.4,1.3-5.1,1.9c-1.2,0.3-2.3,0.5-3.5,0.7c-3.1,0.7-6.1,1.7-9.1,2.7
		c-6.3,2-12.5,4.2-18.9,5.7c2.3-0.5,5.5-2,8.1-2.8c2.9-1,5.7-2.2,8.6-3.2c5.2-1.7,10.5-3,15.2-5.9C80,124.9,81.6,125.2,83.1,125.5z
		 M87.4,126.4c-5.8,1.3-11.5,3-17.1,4.9c-6,2-11.8,4.3-18.1,5.5c-0.5,0-1.1,0.2-1.6,0.4c0.8-0.3,1.5-0.6,2.3-0.8
		c1.5-0.6,3.1-1,4.7-1.5c3.1-1,6.2-2,9.2-3.1c2.9-1,5.7-2,8.6-3c1-0.4,2-0.7,3.1-1.1c1.9-0.5,3.7-1.1,5.3-2
		C85,125.9,86.2,126.1,87.4,126.4z M90.5,127.3c-5.5,1.3-10.8,3.1-16.1,5c-2.6,0.9-5.2,1.7-7.9,2.4c-2.8,0.7-5.5,1.8-8.3,2.5
		c-2.2,0.5,0.9-0.6,1.3-0.7c1.2-0.4,2.5-0.7,3.7-1.1c2.8-0.8,5.6-1.6,8.3-2.7c5.5-2.1,10.8-4.5,16.5-6.2c0,0,0,0,0.1,0
		C88.9,126.8,89.7,127.1,90.5,127.3z M98,129.9c-4.5,1.3-8.8,3.3-13.3,4.6c-1.9,0.6-3.8,1.2-5.8,1.8c2.1-0.8,4.3-1.7,6.4-2.6
		c2.1-0.9,4-2.2,6.2-3c1.5-0.5,2.9-0.9,4.3-1.6C96.5,129.4,97.3,129.6,98,129.9z M101.9,132C101.9,132,101.9,132,101.9,132
		c-1,0.6-2.1,1.1-3.2,1.7c-0.1,0-0.2,0.1-0.3,0.1c-2.3,0.8-4.6,1.4-6.9,2.3c-1.3,0.5-2.5,1.1-3.8,1.5c-0.8,0.3-1.6,0.5-2.3,0.7
		c0.4-0.1,1.1-0.8,1.5-1c4.3-2.6,9.3-3.5,13.4-6.4C100.8,131.3,101.4,131.6,101.9,132z M104,134.1c0.2,0.3,0.2,0.5,0.1,0.8
		c0,0-0.1,0-0.1,0c-1.2,0.5-2.3,0.9-3.5,1.4c-0.7,0.3-1.4,0.5-2.1,0.6c0,0,0,0,0,0c1.9-0.8,3.9-1.7,5.5-3.1
		C103.9,134,103.9,134,104,134.1z M102.5,134.4c-0.4,0.2-0.7,0.4-1.1,0.7c-1.5,0.8-3,1.5-4.6,2.1c-0.1,0-0.1,0.1-0.1,0.2
		c-1.8,0.3-3.6,0.5-5.4,0.6c3.1-1.5,6.4-2.4,9.7-3.4c0.6-0.2,1.2-0.4,1.9-0.6C102.9,134.1,102.7,134.2,102.5,134.4z M90.6,137.9
		c-0.1,0-0.2,0.1-0.3,0.2c0,0-0.1,0-0.1,0.1c-1.3,0.1-2.6,0.2-3.9,0.2c2.8-0.8,5.5-2.1,8.2-3.1c0.9-0.3,1.7-0.6,2.6-0.8
		C94.9,135.5,92.7,136.5,90.6,137.9z M78.4,138.6C78.3,138.6,78.3,138.6,78.4,138.6c0.1,0,0.3-0.1,0.6-0.3c1.1-0.6,2.3-1,3.4-1.5
		c1.6-0.7,3.2-1.3,4.9-1.9c3.7-1.4,7.4-3,11-4.7c0.1,0,0.1-0.1,0.1-0.2c0.5,0.2,1,0.4,1.5,0.7c-6.8,2.8-13.5,6.1-20.8,7.7
		C78.7,138.5,78.5,138.6,78.4,138.6z M86.6,132.8c-4.8,2.3-9.9,4.1-14.9,5.9c-1.5,0-3-0.1-4.5-0.1c0.9-0.2,1.8-0.5,2.7-0.9
		c2.5-0.9,4.9-1.8,7.4-2.5c4.5-1.3,8.8-2.7,13.1-4.3C89.2,131.4,87.9,132.1,86.6,132.8z M61.9,138.2c5.1-1.5,10.2-3.2,15.2-4.9
		c4.9-1.7,9.6-4.2,14.7-5.2c-0.9,0.2-2,0.9-3,1.3c-1.5,0.7-2.9,1.2-4.4,1.8c-2.5,0.9-5.1,1.8-7.7,2.6c-4.2,1.3-8.6,2.2-12.3,4.6
		C63.6,138.3,62.8,138.3,61.9,138.2z M56.7,137.8c2.1-0.3,4-1,6-1.6c2.8-1,5.7-1.6,8.6-2.5c5.8-1.8,11.3-4.1,17.2-5.6
		c0.5-0.1,1.1-0.3,1.6-0.4c0.1,0-1.7,0.6-2.1,0.7c-1.5,0.6-3,1-4.4,1.5c-2.8,1-5.6,2.1-8.4,3.1c-4.7,1.8-9.9,2.7-14.4,5.1
		C59.5,138,58.1,137.9,56.7,137.8z M76.1,133.1c1.8-0.7,3.7-1.3,5.6-1.9c-1.3,0.5-2.5,1-3.8,1.5c-2.7,1-5.5,1.9-8.2,2.8
		c-2.6,0.9-5.8,1.5-8.2,2.7h0C65.9,135.8,71.3,134.9,76.1,133.1z M89.1,128.4c0.6-0.3,1.3-0.6,1.9-0.9c0,0,0,0,0.1-0.1
		c0.3,0.1,0.6,0.2,0.9,0.3C91,127.9,90,128.1,89.1,128.4z M43.7,136.1c3.5-1.5,7.2-2.7,10.8-3.9c2.7-0.8,5.5-1.6,8.2-2.3
		c2.8-0.8,5.6-1.6,8.4-2.5c1.3-0.4,2.5-0.8,3.7-1.3c0.4-0.2,0.9-0.3,1.3-0.5c-4.5,2.3-9.6,3.4-14.4,5.1c-2.7,0.9-5.3,2.1-8,3
		c-2.7,0.9-5.4,1.8-7.9,3C45.2,136.5,44.4,136.3,43.7,136.1z M62,129.7c4.1-1.4,8.2-2.9,12.1-4.7c0.3,0,0.4-0.1,0.5-0.2
		c0.9,0,1.8-0.1,2.7-0.2c0.1,0,0.2-0.1,0.3-0.1c0.1,0,0.2,0,0.3,0C72.7,126.7,67.4,128.2,62,129.7z M67.8,119.5c2-0.4,4-1.1,6-1.8
		c-0.8,0.3-1.5,0.7-2.3,1c-1.3,0.5-2.6,1-3.8,1.5C67.7,120,67.8,119.8,67.8,119.5z M73.3,124.8c-3.9,1.4-7.9,2.2-11.9,3.3
		c2.9-1,5.8-2.1,8.6-3.4C71.2,124.7,72.3,124.8,73.3,124.8z M76.4,123.3c-0.1,0-0.2,0-0.3,0c0-0.1,0-0.2-0.2-0.2
		c-0.2,0-1.6-0.1-1.7,0c0.8-0.4,1.6-0.7,2.4-1.2C76.6,122.4,76.5,122.9,76.4,123.3z M73.4,123.2c-0.1,0.1-0.1,0.3,0,0.3
		c-1.4,0-2.7-0.1-4.1-0.2c1.1-0.2,2.1-0.5,3.2-0.7c1.1-0.3,2.3-0.5,3.4-0.6C75.3,122,74.1,122.8,73.4,123.2z M67.9,123
		c0-0.1,0-0.2,0-0.2c-0.1-0.1-0.1-0.3-0.1-0.4c2.4-0.1,4.7-1.1,7.1-1.6c1.8-0.4-1,0.6-0.9,0.5c-0.8,0.3-1.6,0.5-2.3,0.7
		C70.3,122.3,69.1,122.6,67.9,123z M67.6,121c1.2,0,2.5-0.3,3.7-0.6l0,0c-1.2,0.4-2.5,0.8-3.7,1.3C67.6,121.5,67.6,121.2,67.6,121z
		 M74,116.1c-2.1,0.8-4.1,1.8-6.1,2.8c0.1-0.4,0.3-0.9,0.4-1.3c1.1-0.2,2.1-0.5,3.1-0.8c0.7-0.2,1.4-0.4,2-0.6
		C73.8,116.1,75.8,115.3,74,116.1z M69,115.9c1.7-0.3,3.7-0.6,5-1.3c-1.8,0.9-3.6,1.3-5.3,2.2C68.7,116.6,68.9,116.3,69,115.9z
		 M69.6,114.4c0.9-0.1,1.9-0.3,2.8-0.5c0.2,0,0.5-0.1,0.8-0.2c-0.1,0-0.2,0.1-0.3,0.1c-1.2,0.5-2.4,0.8-3.5,1.3
		C69.4,114.9,69.5,114.6,69.6,114.4z M58,126.5c3.1-0.8,6.3-1.1,9.3-2c0.1,0,0.3,0,0.4,0c-2.9,0.8-5.8,2-8.7,2.7
		c-4.2,1.1-8.4,2.2-12.4,3.7C50,128.7,54.1,127.4,58,126.5z M45.5,131.6c0.2-0.1,0.3-0.3,0.5-0.4c0,0.1,0.1,0.2,0.2,0.1
		c4.7-1.8,9.6-3,14.5-4.3c2.3-0.6,4.6-1.5,6.9-2.2c0.4-0.1,0.7-0.2,1.1-0.3c0.2,0,0.4,0,0.7,0.1c-0.5,0.2-1,0.5-1.5,0.7
		c-8.3,3.7-17.3,5.2-25.5,9.2C43.2,133.4,45.1,131.9,45.5,131.6z M54.9,130.1c-3.9,1.4-7.6,3.1-11.6,4.3c0.4-0.2,0.8-0.4,1.3-0.6
		c1.4-0.6,2.9-1.2,4.3-1.7C50.9,131.4,52.9,130.8,54.9,130.1z M42.2,135.1c5.5-1.5,10.6-3.9,16-5.7c2.8-0.9,5.8-1.6,8.7-2.3
		c1.3-0.3,2.6-0.7,3.9-1.1c0.4-0.1,0.7-0.2,1.1-0.3c-4.7,2.1-9.7,3.7-14.6,5.2c-1.6,0.5-3.2,1-4.8,1.6c-3.1,1-6.2,2.1-9.3,3.4
		c-0.3-0.1-0.6-0.3-0.9-0.5C42.2,135.4,42.2,135.2,42.2,135.1z M46.8,136.8c6.6-1.5,13-3.8,19.5-5.9c3.1-1,6.1-1.9,9.3-2.6
		c-3,1.1-6,2.1-9,3.1c-5.6,2-11.4,3.5-16.9,5.8c0,0,0,0,0,0C48.7,137.1,47.8,136.9,46.8,136.8z M51,137.3c5.3-0.8,10.4-2.5,15.4-4.3
		c5.8-2,11.6-3.9,17.5-5.4c-0.8,0.3-1.6,0.6-2.4,0.9c-3.1,1.2-6.3,2.5-9.4,3.7c-5.4,2.1-11.2,3.1-16.4,5.4c-0.1,0-0.1,0.1-0.1,0.1
		c-0.3,0-0.5,0-0.7-0.1C53.7,137.6,52.3,137.4,51,137.3z M72.8,138.6c3.7-1.2,7.5-2.4,11.2-3.5c3.9-1.2,7.7-2.6,11.5-4
		c-0.4,0.2-0.9,0.4-1.4,0.6c-2.3,1-4.7,2-7,2.9c-3.2,1.3-6.4,2.4-9.5,4.1C76,138.7,74.4,138.7,72.8,138.6z M79.8,138.6
		c2.9-0.7,5.6-1.8,8.4-2.8c3.1-1.2,6.2-2.2,9.2-3.6c0.8-0.4,1.4-0.7,2.1-1.1c-0.7,0.5-1.5,0.9-2.3,1.3c-1.6,0.8-3.3,1.5-5,2.1
		c-2.7,1.1-5.4,2.2-7.6,4c-0.3,0-0.6,0-0.9,0C82.4,138.5,81.1,138.6,79.8,138.6z M99.4,136.9c1.5-0.4,2.9-1,4.3-1.6
		C103,136.1,101.1,136.6,99.4,136.9z M103.5,133.5c-2.3,0.8-4.6,1.5-6.8,2.2c-1.2,0.4-2.4,0.8-3.6,1.2c-0.3,0.1-0.7,0.3-1,0.4
		c1.7-1,3.6-1.9,5.5-2.7c0.7-0.3,1.4-0.7,2-1c0.8-0.3,1.7-0.8,2.5-1.3c0,0,0.1-0.1,0.1-0.1C102.6,132.5,103.1,133,103.5,133.5z
		 M95.1,128.8c-4.8,1.8-9.6,3.6-14.5,5c-2.7,0.7-5.3,1.5-8,2.4c-2.3,0.8-4.5,1.9-6.9,2.2c-0.2,0-0.3,0-0.5,0c0.5-0.3,1.6-1,2-1.2
		c1.2-0.6,2.5-1,3.8-1.4c2.2-0.7,4.4-1.3,6.6-2c5.1-1.6,10.2-3.3,15-5.8c0,0,0,0,0,0c0.4,0.1,0.8,0.3,1.2,0.4
		C94.2,128.5,94.6,128.7,95.1,128.8z M76.7,121.6c-1.4,0-2.8,0.3-4.2,0.6c-0.7,0.2-1.4,0.3-2.1,0.5c-0.2,0-1.2,0.3-1.7,0.5
		c0,0-0.1,0-0.2,0c0.1,0,0.1-0.1,0.2-0.1c2.5-0.9,5.1-1.1,7.3-2.5c0.1-0.1,0.1-0.3-0.1-0.3c-2.8,0.3-5.4,1.6-8.3,1.8c0,0,0,0,0,0
		c1.4-0.1,3.1-1,4.4-1.5c1.5-0.5,3-1,4.4-1.6C76.6,119.8,76.7,120.7,76.7,121.6z M75.6,115.5C75.6,115.5,75.6,115.5,75.6,115.5
		c-2.4,0.3-4.6,1.1-6.9,1.7c0.9-0.2,2-0.9,3-1.3c1-0.4,2-0.7,3-1.2c0.2-0.1,0-0.3-0.1-0.3c-0.9,0.1-1.9,0.3-2.8,0.6
		c-0.7,0.2-1.9,0.3-2.6,0.6c0,0,0,0,0,0c1.7-1,3.8-1.3,5.6-2.2c0.1,0,0.1-0.1,0.1-0.2c0,0,0,0,0,0C75.1,113.9,75.4,114.7,75.6,115.5
		z M120.6,83.7c-6.4,14.3-19.6,23.4-34.6,26.7c-4.6,1-9.4,1.4-14.1,1.3c-5.7-0.1-12.2-0.5-17.5-2.9c0.6-1.3,1-2.5,1.4-3.3
		c8.3,2.8,17.4,3.6,26.2,1.9c21.9-4.1,38.9-23.2,39.1-45.6c-0.1-18.5-11.6-34.6-28.1-42.1c0.7-1,1.9-2.4,2.5-3.9
		c5.8,2.9,11.3,6.2,15.8,10.9c4.7,5,7.9,11.1,10.5,17.4C127,57.1,126.3,71,120.6,83.7z"/>
</g>
</svg>
