<?xml version="1.0" encoding="utf-8"?>
<!-- Generator: Adobe Illustrator 19.1.0, SVG Export Plug-In . SVG Version: 6.00 Build 0)  -->
<svg version="1.1" id="Layer_1" xmlns="http://www.w3.org/2000/svg" xmlns:xlink="http://www.w3.org/1999/xlink" x="0px" y="0px"
	 viewBox="0 0 124.7 139.3" enable-background="new 0 0 124.7 139.3" xml:space="preserve">
<g>
	<g>
		<path fill="#00C2B4" d="M85.6,79.4l2.3,3.4l-0.7,0.3c-0.7-1.6-1.2-3.2-1.6-5.1c-0.1-0.3,0.2-0.7,0.5-0.7c0.3-0.1,0.6,0.1,0.7,0.3
			l0,0l2.1,4.2l-1.4,0.5c-0.4-1.3-0.8-2.9-0.9-4.6c0-0.4,0.3-0.8,0.7-0.8c0.3,0,0.6,0.2,0.7,0.5l1.7,4.2L88.5,82
			c-0.4-1-0.7-2.2-0.8-3.6l0,0c0-0.3,0.2-0.5,0.5-0.5c0.1,0,0.3,0,0.4,0.1c0.9,0.8,1.5,1.8,1.8,2.7l0,0.1c0.1,0.2,0,0.4-0.3,0.5
			c-0.2,0.1-0.4,0-0.5-0.2c-0.3-0.4-0.5-0.8-0.7-1.2c-0.1-0.5,0-1,0-1.4c0-0.1,0.1-0.2,0.2-0.2l0.1,0c0.7,0.3,1.5,1.1,1.1,1.8
			c0.3-0.8-0.5-1.3-1.2-1.4l0.3-0.2c0.1,0.4,0.1,0.7,0.2,1.1c0.3,0.3,0.5,0.6,0.7,0.9L89.6,81c-0.4-0.9-1-1.6-1.6-2.1l0.9-0.5
			c0.2,1,0.5,2,1,3.2c0.1,0.3,0,0.8-0.4,0.9c-0.4,0.1-0.7,0-0.9-0.4l0-0.1l-1.8-4l1.5-0.3c0.2,1.3,0.4,2.7,0.8,4.3
			c0.1,0.4-0.1,0.8-0.5,0.9c-0.4,0.1-0.7-0.1-0.9-0.4l-1.9-4.2l1.2-0.4c0.1,1.6,0.5,3.2,1,4.9l0,0.1c0.1,0.2-0.1,0.4-0.2,0.5
			c-0.2,0-0.4,0-0.5-0.2L85.6,79.4z"/>
		<path fill="#00C2B4" d="M88.3,84.5l0.3-1.1c0,0,0,0-0.1,0c-0.1,0-0.2,0-0.3,0c-0.1,0.2-0.3,0.3-0.5,0.4c-0.3,0.1-0.6,0-0.8-0.2
			l-0.1,0l-0.1-0.3c0,0,0,0,0-0.1l-0.1-0.2c-0.1-0.2-0.2-0.4-0.3-0.6l-1.3-3l0.3-0.1c-0.1-0.4-0.2-0.7-0.2-1.1L85,78l0.1,0
			c0-0.6,0.3-1.1,0.9-1.2c0.2,0,0.3,0,0.5,0c0.2-0.2,0.5-0.4,0.9-0.4c0.5-0.1,1,0.3,1.2,0.8l0,0l0,0l0,0.2c0.1,0,0.2,0.1,0.3,0.2
			c0.1,0.1,0.1,0.1,0.2,0.2l0.1-0.1l0,0.1c0.1,0,0.1,0,0.2,0.1l0.2-0.1l0.1,0.3c0.5,0.3,0.9,0.7,1,1.1c0.1,0.4,0.1,0.7,0,1.1
			c0,0.1,0,0.1,0.1,0.2l0.2,0.2l-0.1,0.1c0.1,0.4-0.1,0.8-0.5,1l0.1,0.1l-0.1,0c0,0.2,0,0.3-0.1,0.5c-0.1,0.3-0.4,0.5-0.7,0.6
			c-0.2,0.1-0.3,0.1-0.5,0.1c0,0-0.1,0.1-0.1,0.1L88.3,84.5z"/>
	</g>
	<g>
		<path fill="#00C2B4" d="M95.3,39.2c0,0-0.2-0.6-0.7-1.7c-0.3-1-1.2-2.5-1.5-4.3c-0.4-1.8-1-4-1.5-6.3c-0.3-1.2-0.6-2.3-0.9-3.6
			c-0.2-1.3-0.9-2.2-1.4-3.4c-0.5-1-1-2.4-1.5-3.1c-0.8-1.1-1.7-1.5-2.6-1.9c-1-0.2-2.1-0.4-3.1-0.3c-1,0-2,0.2-2.9,0.3
			c-1.8,0.4-3.4,0.3-4.5,0.5c-1.1,0.1-1.7,0.2-1.7,0.2s0.6-0.3,1.6-0.7c1-0.4,2.5-1.2,4.4-1.5c1.9-0.2,4.2-0.6,6.8,0.1
			c1.4,0.5,2.6,1.4,3.3,2.3c0.9,1.3,1.2,2.4,1.8,3.6c0.5,1.2,1.2,2.4,1.4,3.6c0.3,1.2,0.6,2.4,0.9,3.5c0.6,2.3,1.1,4.5,1.5,6.3
			c0.6,1.8,0.4,3.5,0.6,4.6C95.2,38.5,95.3,39.2,95.3,39.2z"/>
		<path fill="#00C2B4" d="M96,42.4l-1.9-4.7c-0.1-0.4-0.3-0.8-0.5-1.2c-0.4-0.9-0.9-2-1.1-3.2L91.1,27c-0.3-1-0.5-2.1-0.8-3.1
			l-0.1-0.4c-0.1-0.8-0.5-1.4-0.8-2.1c-0.2-0.4-0.4-0.8-0.6-1.2c-0.2-0.3-0.3-0.8-0.5-1.2c-0.3-0.7-0.6-1.4-0.9-1.9
			c-0.7-1-1.5-1.4-2.3-1.7c-1.1-0.2-2-0.4-2.9-0.3c-0.7,0-1.5,0.1-2.2,0.2c-0.3,0-0.5,0.1-0.8,0.1c-1.1,0.2-2.2,0.3-3.1,0.3
			c-0.6,0-1,0.1-1.4,0.1C73.5,16,72.9,16,72.9,16l-3.2,0.3l2.9-1.3c0,0,0.6-0.3,1.6-0.7c0.3-0.1,0.7-0.3,1-0.4
			c0.9-0.4,2.1-0.9,3.5-1.1l0.6-0.1c1.8-0.2,4-0.5,6.3,0.2c1.5,0.5,2.8,1.4,3.5,2.5c0.6,0.9,0.9,1.7,1.3,2.4
			c0.2,0.4,0.4,0.8,0.6,1.2c0.2,0.5,0.4,0.9,0.6,1.3c0.4,0.8,0.8,1.6,0.9,2.5c0.3,1.2,0.6,2.4,0.9,3.5l1.5,6.3
			c0.4,1.2,0.4,2.4,0.5,3.3c0,0.5,0,0.9,0.1,1.3L96,42.4z M82.6,14.1c0.8,0,1.7,0.1,2.8,0.4c0.9,0.3,2,0.8,2.9,2.1
			c0.4,0.5,0.7,1.3,1,2c0.2,0.4,0.4,0.8,0.5,1.2c0.2,0.4,0.4,0.8,0.5,1.2c0.4,0.7,0.7,1.5,0.9,2.3l0.1,0.4c0.3,1.1,0.5,2.1,0.8,3.1
			l1.5,6.3c0.2,1.1,0.6,2.1,1,2.9c0-0.9-0.1-1.9-0.4-3l-1.5-6.4c-0.3-1.1-0.6-2.3-0.9-3.5c-0.1-0.8-0.5-1.5-0.9-2.3
			c-0.2-0.4-0.4-0.9-0.6-1.3c-0.2-0.4-0.4-0.8-0.6-1.3c-0.3-0.8-0.6-1.5-1.2-2.2c-0.6-0.9-1.8-1.7-3-2.1c-2.1-0.6-4.1-0.4-5.9-0.2
			L79,13.9c-1.1,0.1-2.1,0.5-2.9,0.9c0.9,0,1.9-0.1,3-0.3c0.3,0,0.5-0.1,0.8-0.1c0.7-0.1,1.5-0.2,2.3-0.2
			C82.2,14.1,82.4,14.1,82.6,14.1z"/>
	</g>
	<g>
		<path fill="#00C2B4" d="M24.6,27.9c0,0-0.8,0.5-2.4,0.9c-1.6,0.5-4,1-6.9,2.1c-3.7,0.5-3.3,5.4-2.3,9.1c1.3,3.9,3.6,8.5,4.6,13.8
			c0.9,5.4,2.4,10.8,3.9,16.8c1.5,5.9,3,12.2,4.6,18.7c1.8,6.5,3.7,13.1,5.7,19.8c1.1,3.4,1.6,7,2.9,10.1c0.6,1.6,1.6,2.8,3.1,3
			c1.4,0.2,3.2-0.2,4.9-0.7c7-1.8,13.9-3.2,20.8-4.9c6.8-1.5,13.6-3,20.1-4.4c6.6-1.2,12.6-3.5,18.5-5c2.9-0.7,6.2-1.3,7.7-2.9
			c1.4-2.2,0.4-4.9-0.3-7.4c-2-5-2.5-10-3.4-14.2c-0.8-4.3-1.5-8-2.1-11c-1.2-6.1-1.9-9.6-1.9-9.6s0.9,3.5,2.4,9.5
			c0.8,3,1.7,6.7,2.7,10.9c1.2,4.2,1.9,9,3.8,14c0.7,2.4,1.9,5.8,0.2,8.7c-2.5,2.7-5.7,2.7-8.6,3.6c-5.9,1.5-12.1,3.8-18.6,5
			c-6.5,1.4-13.3,2.9-20.1,4.4c-6.8,1.6-13.8,3.1-20.6,4.8c-1.7,0.5-3.5,1.1-5.6,0.7c-2.2-0.3-3.6-2.2-4.2-3.9
			c-1.4-3.5-1.8-7-2.9-10.2c-2.1-6.7-4-13.4-5.7-19.8c-1.6-6.5-3.2-12.8-4.6-18.7c-1.4-5.9-3-11.6-3.9-16.8c-1.1-5.2-3.1-9.6-4.2-14
			c-0.3-1-0.4-2.2-0.5-3.2c-0.1-1.1-0.1-2.1,0.2-3c0.2-0.9,0.3-1.9,1.2-2.6c0.8-0.5,1.5-0.9,2.3-1.1c3-1,5.4-1.3,7-1.7
			C23.8,28.3,24.6,27.9,24.6,27.9z"/>
		<path fill="#00C2B4" d="M38.8,124.3c-0.4,0-0.9,0-1.3-0.1c-2.9-0.3-4.3-3.3-4.6-4.2c-0.8-2-1.3-4-1.8-6c-0.4-1.5-0.7-2.9-1.1-4.3
			c-2-6.5-3.9-13.2-5.7-19.8l-0.1-0.4C22.5,83.2,21,77,19.6,71.2c-0.4-1.6-0.8-3.1-1.2-4.7c-1.1-4.3-2.1-8.3-2.7-12.1
			c-0.6-3.1-1.6-5.8-2.5-8.5c-0.6-1.9-1.2-3.6-1.7-5.4c-0.4-1.2-0.5-2.4-0.5-3.3c-0.2-1.2-0.1-2.2,0.2-3.1l0-0.2
			c0.2-0.9,0.3-1.9,1.3-2.7c1-0.6,1.7-1,2.5-1.2c2.1-0.7,4-1.1,5.4-1.4c0.6-0.1,1.1-0.2,1.6-0.4c1.5-0.3,2.3-0.7,2.3-0.8l0.5,0.9
			c0,0-0.8,0.5-2.5,1c-0.5,0.1-1.1,0.3-1.7,0.5c-1.4,0.4-3.2,0.9-5.2,1.6l-0.1,0c-0.8,0.1-1.4,0.5-1.9,1.1c-0.9,1.4-0.9,4,0,7.4
			c0.4,1.1,0.9,2.3,1.3,3.6c1.2,3,2.5,6.5,3.2,10.2c0.7,4,1.7,8.1,2.8,12.3c0.4,1.5,0.7,3,1.1,4.5l4.6,18.7
			c1.9,6.9,3.8,13.5,5.7,19.7c0.5,1.5,0.9,3,1.2,4.6c0.5,2,0.9,3.8,1.6,5.5c0.7,1.7,1.6,2.6,2.7,2.7c1.4,0.2,3.1-0.2,4.7-0.7
			c4.3-1.1,8.6-2.1,12.8-3c2.7-0.6,5.4-1.2,8-1.8c5.3-1.2,10.6-2.3,15.7-3.5l4.4-1c4-0.7,7.9-1.9,11.5-3c2.4-0.7,4.7-1.4,7-2
			c0.5-0.1,0.9-0.2,1.4-0.3c2.4-0.6,4.9-1.1,6-2.4c1.1-1.8,0.4-4.2-0.3-6.5l-0.1-0.4c-1.5-3.6-2.2-7.4-2.8-10.7
			c-0.2-1.2-0.4-2.4-0.7-3.5l-0.9-4.8c-0.5-2.3-0.9-4.4-1.2-6.3c-1.2-6.1-1.9-9.6-1.9-9.6l1-0.2c0,0,0.9,3.5,2.4,9.5l2.7,10.9
			c0.4,1.5,0.8,3.1,1.2,4.8c0.7,2.9,1.4,6,2.6,9.1l0.2,0.6c0.7,2.4,1.7,5.6-0.1,8.5c-2.1,2.2-4.5,2.8-6.9,3.3
			c-0.7,0.1-1.3,0.3-2,0.5c-2.3,0.6-4.5,1.2-6.9,1.9c-3.8,1.1-7.7,2.3-11.8,3.1c-4.4,1-9,2-13.6,3l-6.5,1.4
			c-2.4,0.6-4.8,1.1-7.2,1.7c-4.4,1-9,2-13.4,3.2l-0.5,0.1C41.5,124,40.2,124.3,38.8,124.3z M12,37.1c0,0.9,0.1,2,0.4,3
			c0.5,1.8,1.1,3.5,1.7,5.4c0.9,2.7,1.9,5.5,2.5,8.7c0.6,3.8,1.6,7.8,2.7,12.1c0.4,1.5,0.8,3.1,1.2,4.7c1.4,5.8,3,12,4.5,18.3
			l0.1,0.4c1.8,6.7,3.7,13.3,5.7,19.8c0.5,1.4,0.8,2.9,1.2,4.3c0.5,1.9,0.9,3.9,1.7,5.9c0.6,1.6,1.9,3.4,3.8,3.6
			c1.8,0.3,3.4-0.2,4.9-0.6l0.5-0.1c4.4-1.1,9-2.2,13.4-3.2c2.4-0.5,4.8-1.1,7.2-1.7l6.5-1.4c4.6-1,9.2-2,13.6-3
			c4.1-0.8,8-1.9,11.7-3c2.4-0.7,4.6-1.4,6.9-1.9c0.7-0.2,1.3-0.3,2-0.5c2.2-0.5,4.5-1,6.3-2.9c1.5-2.4,0.6-5.3-0.1-7.6l-0.2-0.6
			c-1.2-3.2-1.9-6.2-2.6-9.2c-0.4-1.7-0.8-3.3-1.2-4.8l-0.6-2.4l0.5,2.4c0.2,1.1,0.5,2.3,0.7,3.6c0.6,3.3,1.3,7,2.7,10.6l0.1,0.5
			c0.7,2.4,1.6,5.1,0.1,7.4c-1.4,1.6-4,2.2-6.6,2.8c-0.5,0.1-0.9,0.2-1.4,0.3c-2.3,0.6-4.5,1.2-6.9,2c-3.7,1.1-7.6,2.3-11.6,3
			l-4.4,1c-5.1,1.1-10.4,2.3-15.7,3.5c-2.7,0.6-5.3,1.2-8,1.8c-4.1,0.9-8.4,1.9-12.7,3c-1.6,0.5-3.5,1-5.1,0.7
			c-1.5-0.2-2.7-1.3-3.5-3.3c-0.7-1.8-1.2-3.8-1.7-5.7c-0.4-1.5-0.7-3-1.2-4.5c-1.9-6.3-3.8-12.9-5.7-19.8L21,70.8
			c-0.4-1.5-0.7-3-1.1-4.5c-1.1-4.3-2.1-8.4-2.8-12.4c-0.7-3.7-2-7.1-3.2-10.1c-0.5-1.3-1-2.5-1.4-3.7C12.4,39.4,12.1,38.3,12,37.1z
			"/>
	</g>
	<g>
		<path fill="#FFFFFF" d="M29.2,39.7c0.5,0.9,0.8,2,1.5,2.7c0.9,0.5,2,0.2,3,0.1c2-0.5,4.1-0.9,6-1.6c3.9-1.4,7.9-2.6,12-3.6
			c8.1-2,15.9-4.9,23.8-7.4l-0.5,0.9l-2.7-9.6c-0.5-1.6-0.8-3.4-1.5-4.5c-0.4-0.5-0.8-0.8-1.5-0.7c-0.6-0.1-1.4,0.3-2.1,0.5l0.5-0.9
			L71.1,28c0.1,0.4-0.1,0.8-0.5,0.9l0,0l-0.1,0c-5.7,1.5-11.5,3.3-17.2,5.2l-8.6,2.7c-2.9,0.9-5.9,1.4-8.9,2.2
			c-0.6,0.2-1.8,0.4-2.7-0.6c-0.7-0.8-0.8-1.6-1.1-2.3c-0.5-1.5-0.9-2.9-1.5-4.2c-0.6-1.2-0.9-3.1-1.2-4.5c-0.1-0.7-0.4-1.4-0.6-2
			c-0.3-0.5-0.1-0.4-1.2-0.4c-1.5,0.1-2.7,0.2-2.3,1.8c0.2,1.4,0.6,2.9,1,4.4C26.7,34.2,28.1,36.9,29.2,39.7z M29.2,39.7
			c-1.2-2.8-2.7-5.4-3.5-8.3c-0.5-1.4-1-2.8-1.4-4.3c-0.3-0.6-0.3-2,0.7-2.6c0.8-0.6,1.7-0.7,2.4-0.8c0.5,0,0.5-0.2,1.3,0
			c0.9,0.2,1,0.7,1.3,1.1c0.4,0.8,0.6,1.6,0.7,2.3c0.4,1.6,0.4,2.7,1.1,4.2c0.6,1.4,1,2.9,1.5,4.3c0.2,0.7,0.5,1.4,0.8,1.8
			c0.1,0.2,0.6,0.4,1.4,0.1c2.9-0.7,5.8-1.2,8.6-2.1l8.6-2.7c5.7-1.9,11.4-3.8,17.3-5.3l-0.6,0.9l-3.5-12.5l0-0.1
			c-0.1-0.4,0.1-0.7,0.5-0.8l0,0c0.9-0.2,1.7-0.6,2.8-0.6c1-0.1,2.2,0.6,2.7,1.4c1,1.7,1.2,3.4,1.7,5l2.8,9.8
			c0.1,0.4-0.1,0.7-0.5,0.8c-8,2.5-15.9,5.5-24,7.4c-4,1.2-8.1,2-12.2,3c-2,0.6-4.1,0.7-6.2,1c-1,0-2.1,0.3-3.1-0.3
			C29.9,41.7,29.7,40.6,29.2,39.7z"/>
		<path fill="#FFFFFF" d="M32.2,43.3c-0.6,0-1.2-0.1-1.8-0.4l-0.1-0.1c-0.6-0.6-0.8-1.3-1.1-2c-0.1-0.3-0.2-0.6-0.4-0.9l0,0
			c-0.4-0.9-0.8-1.9-1.3-2.8c-0.9-1.8-1.7-3.6-2.3-5.6c-0.2-0.5-0.3-1-0.5-1.5c-0.3-0.9-0.6-1.8-0.9-2.8c-0.3-0.8-0.3-2.4,0.9-3.1
			c0.8-0.6,1.8-0.7,2.5-0.8l0.1,0c0.2,0,0.3,0,0.4,0c0.2,0,0.5-0.1,1.1,0c0.9,0.2,1.2,0.7,1.5,1.1c0.1,0.1,0.1,0.2,0.2,0.2l0.1,0.1
			c0.4,0.8,0.6,1.6,0.8,2.5c0.1,0.4,0.2,0.8,0.2,1.2c0.2,1,0.4,1.9,0.9,3c0.4,1,0.7,2,1,2.9c0.2,0.5,0.3,0.9,0.5,1.4l0.1,0.2
			c0.2,0.5,0.4,1.1,0.6,1.4l0.1,0.1c0.1,0,0.4,0,0.8-0.1c1.1-0.3,2.1-0.5,3.1-0.7c1.8-0.4,3.7-0.8,5.5-1.4l8.6-2.7
			C59,30,64,28.5,68.8,27.2l-3.1-11.3c-0.1-0.4-0.1-0.7,0.1-1c0.2-0.3,0.4-0.5,0.7-0.6c0.2-0.1,0.5-0.1,0.7-0.2
			c0.7-0.2,1.4-0.4,2.2-0.4c1.2-0.1,2.5,0.7,3.1,1.6c0.8,1.3,1.1,2.5,1.4,3.7c0.1,0.5,0.2,0.9,0.4,1.4l2.8,9.8
			c0.2,0.6-0.2,1.3-0.8,1.5c-2.3,0.7-4.6,1.5-7,2.3c-5.6,1.8-11.3,3.8-17,5.2c-3.3,1-6.7,1.7-10,2.5l-2.2,0.5
			c-1.4,0.4-2.8,0.6-4.2,0.8c-0.7,0.1-1.4,0.2-2,0.3c-0.4,0-0.6,0-0.9,0C32.7,43.3,32.4,43.3,32.2,43.3z M31,42
			c0.6,0.3,1.4,0.2,2.1,0.1c0.2,0,0.3,0,0.5-0.1c0.5-0.1,1.1-0.3,1.7-0.4c1.4-0.3,2.9-0.7,4.2-1.2c3.7-1.3,7.6-2.5,12-3.6
			c5.7-1.4,11.4-3.3,16.8-5.1c2-0.7,3.9-1.3,5.9-1.9l-2.4-8.5c-0.1-0.4-0.3-0.9-0.4-1.4c-0.3-1.2-0.6-2.3-1.1-3.1
			c-0.4-0.4-0.6-0.6-1.1-0.5c-0.3,0-0.6,0-0.9,0.1l2.8,10.2l0.1,0l-0.1,0.1l0.3,1.2c0.2,0.7-0.2,1.3-0.8,1.5l-0.1,0
			c-5,1.3-10.4,2.9-17.1,5.2l-8.6,2.7c-1.9,0.6-3.8,1-5.7,1.5C38,39,37,39.2,35.9,39.5c-1.6,0.5-2.7-0.1-3.2-0.7
			c-0.6-0.7-0.8-1.4-1-2c-0.1-0.2-0.1-0.3-0.2-0.5c-0.1-0.4-0.3-0.8-0.4-1.2c-0.3-1.1-0.7-2.1-1.1-3.1c-0.6-1.1-0.9-2.8-1.2-4.2
			l-0.1-0.4c-0.1-0.6-0.3-1.3-0.6-1.9c0,0,0,0-0.1-0.1c0,0-0.1,0-0.2,0l-0.5,0c-0.8,0.1-1.6,0.1-1.8,0.4c-0.1,0.2-0.1,0.5,0,0.7
			c0.2,1,0.4,2,0.6,3c0.1,0.5,0.2,1,0.3,1.4c0.3,2.2,1.2,4.1,2.1,6.2c0.3,0.7,0.6,1.4,0.9,2.1c0.2,0.3,0.3,0.7,0.5,1
			C30.4,41,30.6,41.6,31,42z M74.6,30.7c-2,0.6-3.9,1.3-5.8,1.9c-5.5,1.8-11.1,3.7-16.9,5.1c-4,1-7.6,2.1-10.9,3.2l1.1-0.3
			c3.4-0.8,6.7-1.5,10-2.5c5.7-1.4,11.5-3.3,17-5.1c1.9-0.6,3.8-1.3,5.7-1.9L74.6,30.7z M28,24.6c0.5,0,0.7,0,1,0.5l0.1,0.2
			c0.3,0.7,0.5,1.4,0.7,2.1l0.1,0.4c0.2,1.3,0.5,2.9,1.1,3.9c0.4,1.1,0.8,2.1,1.1,3.2c0.1,0.4,0.2,0.7,0.4,1.1
			c0.1,0.1,0.1,0.3,0.2,0.5c0.2,0.6,0.4,1.1,0.8,1.6c0.5,0.6,1.3,0.7,2.2,0.4c1.1-0.3,2.1-0.5,3.2-0.7c1.9-0.4,3.8-0.8,5.7-1.4
			l8.6-2.7c6.2-2.1,11.3-3.7,16-4.9L69,28.2c-4.7,1.3-9.8,2.8-16,4.9l-8.6,2.7c-1.9,0.6-3.8,1-5.6,1.4c-1,0.2-2,0.4-3,0.7
			c-0.6,0.2-1.2,0.2-1.6,0c-0.1-0.1-0.3-0.2-0.3-0.3c-0.3-0.4-0.6-1-0.8-1.6l-0.1-0.2c-0.2-0.5-0.3-0.9-0.5-1.4
			c-0.3-0.9-0.6-1.9-1-2.8c-0.5-1.2-0.7-2.1-0.9-3.2c-0.1-0.4-0.1-0.7-0.2-1.1c-0.2-0.8-0.3-1.5-0.7-2.2c-0.1-0.1-0.1-0.2-0.2-0.3
			c-0.2-0.3-0.3-0.5-0.8-0.6c-0.4-0.1-0.5,0-0.7,0c-0.1,0-0.3,0-0.5,0.1l-0.1,0c-0.7,0.1-1.4,0.2-2.1,0.7c-0.4,0.3-0.6,0.8-0.6,1.2
			c0-0.2,0.1-0.5,0.2-0.7c0.5-0.7,1.5-0.8,2.6-0.8L28,24.6C28,24.6,28,24.6,28,24.6z M76,30.1L75.5,31c0.1,0,0.3-0.1,0.4-0.1
			c0.1,0,0.2-0.1,0.1-0.2L76,30.1z M69.5,15.3c0.7,0,1.3,0.5,1.7,0.9c0.6,1,0.9,2.2,1.3,3.4c0.1,0.5,0.2,0.9,0.4,1.3l2.4,8.5
			c0.1,0,0.1,0,0.2,0l0.4-0.1l-2.4-8.5c-0.1-0.5-0.3-0.9-0.4-1.4c-0.3-1.1-0.6-2.3-1.3-3.4c-0.5-0.7-1.5-1.3-2.3-1.2
			c-0.5,0-1,0.1-1.4,0.2l0.1,0.5c0.4-0.1,0.8-0.2,1.2-0.2C69.4,15.3,69.5,15.3,69.5,15.3z M70.5,27.8L70,28.5c0.1,0,0.2-0.1,0.3-0.1
			l0.1,0c0.1,0,0.2-0.1,0.1-0.3L70.5,27.8z M66.9,16.9L69.7,27c0.1,0,0.2-0.1,0.3-0.1l0.2,0l-2.8-10.1c-0.1,0-0.1,0-0.2,0.1
			L66.9,16.9z M67.1,15.2c-0.1,0-0.3,0.1-0.4,0.1c-0.1,0-0.1,0.1-0.1,0.1c0,0,0,0.1,0,0.1l0.1,0.5L67.1,15.2z"/>
	</g>
	<g>
		<path fill="#FFFFFF" d="M30.9,27c0,0,0.5-0.2,1.4-0.7c0.9-0.3,2.2-1.2,3.9-1.5c3.3-0.9,7.7-2,12.1-3.2c4.4-1.2,8.9-2.2,12.3-2.8
			c1.6-0.5,3.1-0.3,4-0.6c1-0.2,1.4-0.6,1.5-0.5c0,0-0.3,0.5-1.3,1c-0.9,0.5-2.2,1.3-3.9,1.6c-3.4,0.6-7.8,1.5-12.2,2.8
			c-4.4,1.1-8.8,2.3-12.2,3.1c-1.6,0.5-3.1,0.4-4.1,0.6C31.4,26.9,30.9,27,30.9,27z"/>
		<path fill="#FFFFFF" d="M28,27.7l2.7-1.2c0,0,0.5-0.2,1.4-0.7c0.3-0.1,0.7-0.3,1.1-0.5c0.8-0.4,1.7-0.9,2.9-1.1l3.6-0.9
			c2.6-0.7,5.6-1.5,8.6-2.2c5.2-1.5,10.3-2.4,12.3-2.8c0.9-0.3,1.7-0.3,2.5-0.4c0.6,0,1.1-0.1,1.5-0.2c0.7-0.1,1.1-0.3,1.3-0.4
			c0.1,0,0.1-0.1,0.1-0.1c0.1,0,0.2-0.1,0.3,0c0,0,0,0,0.1,0l0.2,0l1.9,4.5L66,18.5c-0.2,0.2-0.5,0.4-0.9,0.7l-0.4,0.2
			c-0.9,0.5-2.1,1.2-3.7,1.5c-2.9,0.5-7.4,1.4-12.1,2.8c-4.4,1.1-8.8,2.3-12.2,3.1c-1.1,0.4-2.2,0.4-3,0.5c-0.4,0-0.8,0-1.1,0.1
			L28,27.7z M63.4,19c-0.1,0-0.2,0-0.3,0c-0.7,0.1-1.5,0.1-2.3,0.4c-2,0.4-7.1,1.3-12.3,2.8c-3,0.8-5.9,1.5-8.6,2.2l-3.6,0.9
			c-1,0.2-1.9,0.6-2.6,1c0.8,0,1.7-0.1,2.7-0.4c3.4-0.9,7.8-2,12.2-3.1c4.8-1.4,9.3-2.3,12.2-2.8C61.8,19.7,62.7,19.3,63.4,19z"/>
	</g>
	<g>
		<path fill="#FFFFFF" d="M32.3,32.9c0,0,0.5-0.3,1.5-0.7c1-0.3,2.2-1.3,3.9-1.6c3.3-1,7.8-2.3,12.2-3.6c2.2-0.6,4.4-1.4,6.6-1.9
			c2.1-0.5,4.1-0.9,5.8-1.3c0.8-0.3,1.6-0.4,2.3-0.5c0.7,0,1.3-0.3,1.7-0.4c1-0.4,1.5-0.6,1.5-0.6s-0.5,0.4-1.2,1
			c-0.8,0.7-2.2,1.5-3.9,1.9c-1.7,0.4-3.7,0.9-5.8,1.3c-2.1,0.4-4.3,1.2-6.5,1.8c-4.4,1.3-8.9,2.6-12.2,3.6
			c-1.6,0.6-3.2,0.5-4.2,0.7C32.9,32.8,32.3,32.9,32.3,32.9z"/>
		<path fill="#FFFFFF" d="M29.5,33.8l2.6-1.3c0,0,0.5-0.3,1.5-0.7c0.3-0.1,0.7-0.3,1.1-0.5c0.8-0.4,1.7-0.9,2.9-1.2
			c2.2-0.6,4.9-1.4,7.8-2.3l4.4-1.3c0.7-0.2,1.5-0.4,2.2-0.7c1.5-0.4,3-0.9,4.4-1.2c1.4-0.3,2.8-0.6,4-0.9l1.7-0.4
			c0.8-0.3,1.6-0.4,2.3-0.5c0.7,0,1.1-0.2,1.5-0.4l4.6-1.7l-2.5,2c0,0-0.5,0.4-1.2,1c-1,0.8-2.4,1.6-4.1,2c-1.7,0.4-3.7,0.9-5.8,1.3
			c-1.3,0.3-2.6,0.7-4,1.1c-0.8,0.2-1.6,0.5-2.5,0.7l-12.2,3.6c-1.1,0.4-2.2,0.5-3.1,0.6c-0.4,0-0.8,0.1-1.1,0.1
			c-1.1,0.1-1.6,0.2-1.6,0.2L29.5,33.8z M65.1,23.8c-0.2,0-0.3,0-0.5,0.1c-0.7,0.1-1.4,0.2-2.1,0.5l-1.8,0.4c-1.3,0.3-2.6,0.6-4,0.9
			c-1.4,0.3-2.9,0.7-4.4,1.2c-0.7,0.2-1.5,0.4-2.2,0.7l-4.4,1.3c-2.9,0.8-5.6,1.6-7.8,2.3c-1,0.2-1.9,0.6-2.6,1
			c0.8-0.1,1.7-0.2,2.7-0.5L50.2,28c0.8-0.2,1.6-0.5,2.4-0.7c1.4-0.4,2.8-0.9,4.1-1.1c2.1-0.5,4.1-0.9,5.8-1.3
			C63.5,24.5,64.3,24.2,65.1,23.8z"/>
	</g>
	<g>
		<path fill="#00C2B4" d="M101.3,92.8c-0.5,1.3-0.8,2.7-1.8,3.8c-0.7,1.2-1.8,2.1-2.8,3.2c-1.1,0.8-2.3,1.9-3.5,2.4
			c-1.2,0.7-2.7,1-4.1,1.4c-2.9,0.4-5.5,0.4-8.3,0.9l-8.3,1.3c-2.8,0.3-5.3,1.1-8.1,1.8l-8.1,2c-2.6,0.7-5.3,1.7-7.8,2.7
			c-1.3,0.5-2.7,0.9-4,1.4c-1.4,0.4-2.9,0.4-4.4,0.6c-0.3,0-0.6-0.1-0.7-0.4l-0.1-0.2c-0.9-3.1-1.5-6.2-2.5-9.4L34,94.7
			c-1.8-6.3-3.9-12.5-5.5-18.9l-4.9-19c-1.5-6.6,0-13.5-3.9-19.1c1,1.3,1.9,2.7,2.4,4.3c0.5,1.6,0.9,3.2,1.2,4.8
			c0.6,3.3,0.9,6.5,1.8,9.6l4.9,19c1.5,6.4,3.6,12.6,5.5,18.9l2.9,9.4c1,3.1,1.7,6.4,2.6,9.6l-0.7-0.7c1.3-0.2,2.6-0.2,3.9-0.5
			c1.3-0.4,2.6-0.8,3.9-1.3c2.6-1.1,5.2-2.1,8-2.8l8.1-2c2.7-0.6,5.4-1.5,8.2-1.8l8.2-1.3c2.7-0.5,5.7-0.7,8.3-0.8
			c1.3-0.2,2.6-0.3,3.9-0.9c1.4-0.4,2.3-1.2,3.5-2c1-0.9,2.2-1.7,3-2.8C100.2,95.4,100.7,94,101.3,92.8z"/>
		<path fill="#00C2B4" d="M41.9,114.8l-0.3-0.3c0,0,0,0,0,0c-0.4,0-0.9,0.1-1.3,0.1c-0.5,0.1-1.1-0.3-1.2-0.8l-0.1-0.2
			c-0.3-1.1-0.6-2.3-0.9-3.4c-0.5-2-1-4-1.6-6l-2.9-9.4c-0.6-2.1-1.2-4.1-1.9-6.2c-1.3-4.1-2.6-8.4-3.6-12.7l-4.9-19
			c-0.5-2.4-0.7-4.8-0.9-7.1c-0.3-4.3-0.6-8.3-3-11.8l0.8-0.6c1.1,1.3,2,2.8,2.5,4.4c0.5,1.4,0.9,3,1.3,4.9c0.2,1,0.3,2.1,0.5,3.1
			c0.3,2.2,0.7,4.4,1.2,6.5l4.9,19c1,4.3,2.3,8.5,3.6,12.6c0.6,2.1,1.3,4.2,1.9,6.2l2.9,9.3c0.7,2,1.2,4.2,1.7,6.3
			c0.2,0.7,0.4,1.5,0.6,2.2c0.2,0,0.3,0,0.5,0c0.8-0.1,1.6-0.2,2.4-0.4c0.4-0.1,0.8-0.3,1.2-0.4c0.8-0.3,1.7-0.6,2.6-0.9
			c2.4-1,5.1-2,8-2.8l8.1-2c0.7-0.2,1.4-0.4,2.2-0.5c2-0.5,4-1,6.1-1.3l8.2-1.3c2.8-0.5,5.8-0.7,8.4-0.8c0.3-0.1,0.6-0.1,0.9-0.1
			c1-0.1,1.9-0.3,2.7-0.7c1-0.3,1.8-0.8,2.6-1.4c0.3-0.2,0.6-0.4,0.9-0.6c0.2-0.2,0.5-0.5,0.9-0.7c0.7-0.6,1.4-1.2,2-1.9
			c0.8-0.8,1.3-1.8,1.7-2.9l0.3-0.6l0.9,0.4l-0.2,0.6c-0.4,1.1-0.8,2.3-1.6,3.3c-0.5,0.9-1.2,1.6-2,2.3c-0.3,0.3-0.6,0.6-0.8,0.9
			c-0.3,0.2-0.5,0.4-0.7,0.6c-0.9,0.7-1.9,1.5-3,1.9c-0.9,0.6-2.2,0.9-3.4,1.2c-0.3,0.1-0.5,0.1-0.8,0.2c-1.3,0.2-2.5,0.3-3.7,0.4
			c-1.6,0.1-3,0.2-4.6,0.5l-8.3,1.3c-2,0.2-3.9,0.7-5.8,1.2c-0.7,0.2-1.5,0.4-2.2,0.6l-8.1,2c-2.8,0.7-5.6,1.8-7.7,2.7
			c-0.9,0.3-1.8,0.6-2.7,0.9c-0.5,0.1-0.9,0.3-1.4,0.4c-0.9,0.3-1.9,0.4-2.9,0.5L41.9,114.8z M39.8,112.9c0,0.2,0.1,0.3,0.1,0.5
			l0.1,0.2c0,0.1,0.1,0.1,0.1,0.1c0.2,0,0.3,0,0.5-0.1L39.8,112.9z M41.4,113c0,0.1,0,0.1,0,0.2l0.1,0.4c1-0.1,2-0.2,2.9-0.4
			c0.4-0.1,0.9-0.3,1.3-0.4c0.9-0.3,1.8-0.6,2.6-0.9c2.2-0.9,5-2,7.8-2.8l8.1-2c0.8-0.2,1.5-0.4,2.2-0.6c2-0.5,3.9-1,5.9-1.2
			l8.2-1.3c1.6-0.3,3.2-0.4,4.7-0.6c1.2-0.1,2.3-0.2,3.6-0.4c0.2-0.1,0.5-0.1,0.7-0.2c1.2-0.3,2.3-0.6,3.2-1.1
			c0.2-0.1,0.5-0.2,0.7-0.4c-0.2,0.1-0.5,0.2-0.8,0.3c-1,0.5-2,0.7-3,0.8c-0.3,0-0.6,0.1-0.9,0.1c-2.6,0.2-5.6,0.4-8.3,0.8l-8.3,1.3
			c-2,0.2-4,0.8-6,1.2c-0.7,0.2-1.5,0.4-2.2,0.5l-8.1,2c-2.9,0.7-5.5,1.8-7.9,2.8c-0.9,0.4-1.8,0.6-2.6,0.9
			c-0.4,0.1-0.8,0.3-1.3,0.4c-0.9,0.2-1.7,0.3-2.6,0.4C41.6,113,41.5,113,41.4,113z M23.3,48.8c0,0.3,0,0.6,0.1,0.9
			c0.2,2.3,0.3,4.7,0.8,7l4.9,19c1,4.3,2.3,8.5,3.6,12.7c0.6,2.1,1.3,4.1,1.9,6.2l2.9,9.4c0.6,2,1.2,4.1,1.7,6
			c0.2,0.7,0.4,1.5,0.6,2.2l0.5-0.1c-0.2-0.7-0.4-1.4-0.5-2.1c-0.5-2.1-1.1-4.2-1.7-6.2L35,94.5c-0.6-2.1-1.2-4.2-1.9-6.2
			c-1.3-4.1-2.6-8.4-3.6-12.7l-4.9-19c-0.6-2.2-0.9-4.3-1.3-6.6C23.4,49.6,23.3,49.2,23.3,48.8z"/>
	</g>
	<g>
		<path fill="#00C2B4" d="M101.2,91.2c-0.8,0.6-1.8,1.1-3,1.2c-1-0.1-2-0.2-3-0.3c-1.9-0.3-3.9-0.5-5.5,0l0.5-0.9
			c0.4,1.6,0.8,3.3,1.3,5c0.2,0.9,0.4,1.8,0.5,2.7c-0.2,1-0.6,1.9-0.9,2.7c-0.2-1-0.3-1.8-0.6-2.6c-0.3-0.8-0.3-1.6-0.5-2.4
			c-0.5-1.6-1-3.4-1.4-5.2c-0.1-0.4,0.1-0.8,0.5-0.9c2.2-0.8,4.3-0.4,6.3-0.1c1,0.1,2,0.3,2.9,0.3C99.2,91.1,100.1,91.4,101.2,91.2z
			"/>
		<path fill="#00C2B4" d="M90.9,103.6l-0.4-2.2c-0.1-0.8-0.3-1.4-0.5-2c-0.2-0.5-0.3-1-0.4-1.6c-0.1-0.3-0.1-0.6-0.2-0.9
			c-0.5-1.8-1-3.5-1.4-5.2c-0.1-0.6,0.2-1.2,0.8-1.5c2.1-0.7,4.1-0.5,5.8-0.3l1.3,0.2c0.8,0.1,1.5,0.2,2.2,0.2l0.1,0
			c0.8,0.2,1.7,0.5,2.6,0.4l1.8-0.3l-1.4,1.1c-0.9,0.7-2.1,1.2-3.2,1.4c-1-0.1-1.9-0.2-2.7-0.3l-0.4,0c-1.5-0.2-2.9-0.4-4.2-0.2
			c0.3,1.3,0.7,2.5,1.1,3.8l0.1,0.6c0.2,0.7,0.3,1.5,0.4,2.2l0,0.1l0,0.1c-0.2,0.8-0.5,1.5-0.7,2.2L90.9,103.6z M89.4,92.8
			c0.3,1.2,0.7,2.5,1.1,3.8c0.1,0.4,0.1,0.7,0.2,1c0.1,0.5,0.2,1,0.3,1.4c0.1,0.3,0.2,0.6,0.2,0.9c0.1-0.3,0.2-0.6,0.3-0.9
			c-0.1-0.7-0.2-1.3-0.3-2l-0.1-0.6c-0.4-1.2-0.7-2.5-1.1-3.8c0,0-0.1,0-0.1,0L89.4,92.8z M89.8,91c-0.2,0-0.4,0.1-0.5,0.2
			c-0.1,0-0.2,0.2-0.2,0.3c0,0.2,0.1,0.4,0.1,0.5L89.8,91z M92,91.4c1,0,2.1,0.1,3.2,0.3l0.5,0.1c0.8,0.1,1.7,0.2,2.6,0.3
			c0.4,0,0.8-0.1,1.2-0.3c-0.4-0.1-0.9-0.2-1.2-0.3c-0.8,0-1.5-0.1-2.3-0.2L94.6,91c-1.3-0.2-2.7-0.3-4-0.1l0.1,0.4
			c0,0.1,0,0.1,0,0.2C91.1,91.4,91.5,91.4,92,91.4z"/>
	</g>
	<g>
		<path fill="#00C2B4" d="M19.3,38.2c0,0,0-0.2,0-0.4c0-0.2-0.2-0.8,0.4-1c0.8-0.5,1.6-0.8,2.6-1.1c0.9-0.3,1.8-0.5,2.5-0.7
			c0.3-0.2,0.7,0.3,0.9,0.3c0.2,0.1,0.4,0.2,0.4,0.2s-0.1,0.1-0.2,0.3c-0.2,0.1-0.3,0.7-0.7,0.7c-0.7,0.2-1.5,0.4-2.4,0.6
			c-0.8,0.3-1.8,0.6-2.1,0.8c-0.1,0.1-0.7-0.1-0.9,0.1C19.4,38.1,19.3,38.2,19.3,38.2z"/>
		<path fill="#00C2B4" d="M18.8,38.8l0-0.6c0,0,0-0.2,0-0.4l0-0.1c0-0.3-0.1-1,0.6-1.3c0.7-0.5,1.5-0.7,2.2-1l0.4-0.2
			c0.7-0.2,1.4-0.4,1.9-0.5l0.6-0.1c0.4-0.2,0.9,0.1,1.1,0.2c0,0,0.1,0.1,0.1,0.1c0.3,0.1,0.5,0.2,0.5,0.2l0.6,0.3l-0.4,0.5
			c0,0-0.1,0.1-0.2,0.3l-0.1,0.1c0,0,0,0,0,0c0,0,0,0,0,0.1c-0.2,0.2-0.4,0.6-0.9,0.7c-0.7,0.2-1.5,0.4-2.4,0.6
			c-0.9,0.3-1.6,0.6-1.9,0.8c-0.2,0.2-0.5,0.2-0.7,0.1c-0.1,0-0.2,0-0.2,0l-0.1,0L18.8,38.8z M20,37.5c0.1,0,0.2,0,0.3,0
			c0,0,0.1,0,0.1,0c0.5-0.3,1.8-0.7,2.2-0.9c0.9-0.3,1.8-0.5,2.5-0.6l0.1,0l0.1,0c-0.1,0,0-0.1,0.1-0.2c0,0,0.1-0.1,0.1-0.1
			c0,0-0.1-0.1-0.1-0.1c-0.1,0-0.2-0.1-0.2-0.1l-0.6,0.2c-0.6,0.1-1.2,0.3-1.9,0.5L22,36.3c-0.7,0.3-1.4,0.5-2,0.9l-0.1,0
			c-0.1,0-0.1,0-0.1,0.3C19.8,37.5,19.9,37.5,20,37.5z"/>
	</g>
	<g>
		<path fill="#00C2B4" d="M97.6,72.3c0.5,0.7,1.3,1.4,1.3,2.3l0.6,2.5l1,4.9l0.3,1.2c0.1,0.4,0,0.8,0.1,1.2l0.6,2.4
			c0.4,1.6,0.8,3.4,0.6,5.1l0,0c-0.2,0.2-0.4,0-0.6-0.1c0.2,0.1,0.3,0.2,0.5,0l0,0c0-1.7-0.7-3.2-1.3-4.8c-0.6-1.5-1.5-3.2-1.7-4.8
			l-1-4.9L97.5,75C97.1,74.2,97.5,73.2,97.6,72.3z"/>
		<path fill="#00C2B4" d="M101.7,94.7l-0.1-2.1c-0.1,0-0.2-0.1-0.3-0.2l0.3-0.4c-0.1-1.5-0.6-2.8-1.2-4.3l-0.1-0.2
			c-0.2-0.5-0.4-0.9-0.6-1.4c-0.5-1.1-1-2.3-1.1-3.6l-1-4.9L97,75.1c-0.3-0.7-0.1-1.5,0-2.3c0-0.2,0.1-0.4,0.1-0.6l0.2-1.2L98,72
			c0.1,0.2,0.3,0.3,0.4,0.5c0.5,0.6,1,1.2,1,2L100,77l1.3,6.2c0.1,0.2,0.1,0.4,0.1,0.6c0,0.2,0,0.4,0.1,0.5l0.7,2.7
			c0.3,1.2,0.6,2.4,0.6,3.6l0.6-0.6l-0.6,1.8c0,0.1,0,0.2,0,0.3l-0.1,0.3l-0.1,0.1c0,0,0,0,0,0L101.7,94.7z M97.9,73.5
			c-0.1,0.5-0.2,0.9,0,1.3l0,0.1l0.6,2.5l1.1,5c0.1,1.1,0.6,2.3,1.1,3.3c0.1,0.1,0.1,0.3,0.2,0.4l-0.3-1.4c-0.1-0.2-0.1-0.6-0.1-0.8
			c0-0.2,0-0.3,0-0.4L99,77.2l-0.6-2.6C98.4,74.2,98.2,73.9,97.9,73.5z"/>
	</g>
	<g>
		<path fill="#00C2B4" d="M74.4,23.5c0,0,0.6-0.2,1.5-0.7c1-0.4,2.3-1.2,4-1.7c1-0.3,1.8-0.6,3.1-0.3c1.3,0.2,2.3,1.5,2.7,2.5
			c0.9,2.1,1.8,4.4,2.4,6.7c1.3,4.7,2.2,9.4,3,12.9c0.5,1.7,0.6,3.2,0.5,4.3c0,1.1,0,1.7,0,1.7s-0.3-0.6-0.7-1.5
			c-0.5-0.9-1.1-2.4-1.3-4.1c-0.7-3.5-1.7-8.2-2.9-12.8c-0.6-2.2-1.4-4.5-2.3-6.5c-0.5-1-0.9-1.6-1.7-1.9c-0.7-0.3-1.8-0.2-2.6-0.1
			C78.4,22.2,77,22.7,76,23C75,23.3,74.4,23.5,74.4,23.5z"/>
		<path fill="#00C2B4" d="M92.2,51.2l-1-2.1c0,0-0.3-0.6-0.7-1.5c-0.6-1.2-1.1-2.7-1.4-4.3l-0.4-1.7c-0.7-3.2-1.5-7.2-2.6-11
			c-0.7-2.4-1.4-4.5-2.3-6.4c-0.4-0.9-0.8-1.4-1.4-1.6c-0.7-0.3-1.9-0.1-2.4-0.1C79,22.6,77.9,23,77,23.2c-0.3,0.1-0.6,0.2-0.9,0.3
			c-1,0.3-1.6,0.4-1.6,0.4L74.2,23l1.5-0.7c0.2-0.1,0.5-0.2,0.8-0.4c0.9-0.4,1.9-0.9,3.3-1.4l0.4-0.1c0.8-0.2,1.7-0.5,3-0.2
			c1.5,0.2,2.7,1.6,3.1,2.9c0.9,2,1.7,4.3,2.4,6.8c1.1,3.8,1.9,7.7,2.5,10.8l0.4,2.1c0.5,1.9,0.6,3.5,0.5,4.5c0,1,0,1.6,0,1.6
			L92.2,51.2z M81.5,21.3c0.5,0,1,0.1,1.4,0.2c0.9,0.3,1.5,1.2,1.9,2.1c0.9,2,1.7,4.2,2.4,6.6c1.1,3.9,1.9,7.9,2.6,11.1l0.4,1.8
			c0.2,1.6,0.7,2.8,1,3.5c0-0.9-0.1-2.2-0.5-3.6l-0.4-2.1c-0.7-3.1-1.5-7-2.5-10.8c-0.7-2.4-1.5-4.6-2.4-6.7c-0.4-1-1.3-2.1-2.3-2.2
			c-0.9-0.2-1.5-0.1-2.2,0.1C81,21.3,81.3,21.3,81.5,21.3z"/>
	</g>
	<g>
		<path fill="#00C2B4" d="M69.5,122.1c-1.9,0.5-3.8,0.8-5.6,1.1c-2,0.4-4.1,0.7-6,1.3c-2.5,0.7-5.3,1.2-7.9,1.6
			c-1.1,0.2-2.3,0.4-3.4,0.6l-1,0.2c-2.1,0.4-4.6,0.9-6.6,0.5c-1.8-0.4-2.7-2-3.4-3.4c-0.2-0.5-0.5-0.9-0.8-1.3
			c-0.3-0.4-0.2-0.9,0.2-1.1c0.4-0.3,0.9-0.2,1.1,0.2c0.3,0.4,0.6,1,0.9,1.5c0.7,1.2,1.3,2.3,2.4,2.6c1.7,0.4,3.9-0.1,5.9-0.5l1-0.2
			c1.1-0.2,2.3-0.4,3.4-0.6c2.6-0.5,5.3-0.9,7.8-1.6c2.1-0.5,4.1-0.9,6.2-1.3c2.4-0.5,5-0.9,7.4-1.7c1.9-0.6,3.9-1.2,5.8-1.8
			c6.5-2,13.3-4,19.8-5.3l1.5-0.3c2.4-0.5,4.9-1,7.4-1.7c0.4-0.1,0.7-0.2,1.1-0.3c1.7-0.4,3.6-0.8,4.4-2.1c1-1.7,0.5-4.5-0.6-6
			c-0.3-0.4-0.2-0.9,0.2-1.1c0.4-0.3,0.9-0.2,1.1,0.2c1.4,1.9,2.1,5.5,0.6,7.8c-1.1,1.9-3.5,2.4-5.4,2.9c-0.4,0.1-0.7,0.2-1,0.2
			c-2.6,0.7-5.1,1.2-7.6,1.7l-1.5,0.3c-6.5,1.3-13.2,3.2-19.7,5.3c-1.9,0.6-3.9,1.2-5.8,1.8C70.8,121.7,70.1,121.9,69.5,122.1z"/>
		<path fill="#00C2B4" d="M40.8,128.1c-0.7,0-1.3-0.1-2-0.2c-2-0.5-3-2.2-3.7-3.6c-0.2-0.4-0.5-0.9-0.8-1.3
			c-0.4-0.6-0.3-1.4,0.3-1.8c0.6-0.4,1.4-0.3,1.8,0.3c0.4,0.5,0.7,1,0.9,1.5c0.6,1.2,1.2,2.1,2.1,2.4c1.6,0.4,3.7-0.1,5.6-0.5
			l1.1-0.2c1.1-0.2,2.3-0.4,3.4-0.6l0.2,0c2.5-0.5,5.1-0.9,7.6-1.6c2-0.5,4.1-0.9,6.2-1.3c2.6-0.5,5-0.9,7.3-1.6
			c1.9-0.6,3.9-1.2,5.8-1.8c7.8-2.4,14.3-4.2,19.9-5.3l1.5-0.3c2.5-0.5,5-1,7.4-1.7l1.1-0.3c1.6-0.4,3.4-0.8,4.1-1.9
			c0.9-1.5,0.4-4.1-0.6-5.4c-0.4-0.6-0.3-1.4,0.3-1.8c0.6-0.4,1.4-0.3,1.8,0.3c1.5,2,2.2,5.8,0.7,8.3c-1.2,2-3.7,2.6-5.7,3.1
			c-0.4,0.1-0.7,0.2-1,0.2c-2.5,0.7-4.9,1.2-7.6,1.7l-1.5,0.3c-5.5,1.1-11.8,2.8-19.6,5.3c-1.9,0.6-3.9,1.2-5.8,1.8
			c-0.7,0.2-1.3,0.4-2,0.6l0,0c-1.8,0.4-3.5,0.8-5.2,1.1l-0.4,0.1c-1.9,0.3-4,0.7-6,1.3c-2.5,0.7-5.2,1.1-7.8,1.6l-0.1,0
			c-1.1,0.2-2.3,0.4-3.4,0.6l-1,0.2C44,127.8,42.4,128.1,40.8,128.1z M35.3,121.9c-0.1,0-0.1,0-0.2,0.1c-0.1,0.1-0.2,0.3-0.1,0.4
			c0.3,0.4,0.6,0.9,0.8,1.4c0.8,1.4,1.5,2.8,3.1,3.2c1.9,0.5,4.3,0,6.3-0.4l1.1-0.2c1.1-0.2,2.3-0.4,3.4-0.6l0.1,0
			c2.6-0.5,5.3-0.9,7.7-1.6c2-0.6,4.2-0.9,6.1-1.3l0.4-0.1c1.7-0.3,3.4-0.6,5.2-1.1l0,0c0.6-0.2,1.3-0.3,2-0.5
			c1.9-0.6,3.9-1.2,5.8-1.8c7.9-2.5,14.2-4.2,19.7-5.3l1.5-0.3c2.7-0.5,5.1-1,7.5-1.7c0.3-0.1,0.7-0.2,1-0.2c1.9-0.4,4.1-1,5.1-2.6
			c1.3-2.1,0.7-5.4-0.6-7.2c-0.1-0.1-0.3-0.2-0.4-0.1c-0.1,0.1-0.2,0.3-0.1,0.4c1.2,1.6,1.8,4.7,0.6,6.5c-0.9,1.4-2.9,1.9-4.7,2.3
			l-1.1,0.3c-2.4,0.7-4.9,1.2-7.5,1.7l-1.5,0.3c-5.6,1.1-12.1,2.9-19.8,5.3c-1.9,0.6-3.9,1.2-5.8,1.8c-2.4,0.7-4.8,1.2-7.5,1.7
			c-2.1,0.4-4.1,0.8-6.1,1.3c-2.5,0.7-5.1,1.1-7.7,1.6l-0.2,0c-1.2,0.2-2.3,0.4-3.4,0.6l-1,0.2c-2.1,0.4-4.4,0.9-6.1,0.5
			c-1.3-0.3-2-1.6-2.7-2.8c-0.3-0.5-0.6-1-0.9-1.5C35.5,122,35.4,121.9,35.3,121.9z"/>
	</g>
	<g>
		<path fill="#00C2B4" d="M40.3,126.3c-1.1-0.6-1.4-1.9-2.2-2.7c0,0-0.1-0.1,0-0.2c0,0,0.1-0.1,0.1,0l5.9,2.1l-0.3,0.6
			c-1-0.9-2-1.8-3.1-2.9c-0.2-0.2-0.2-0.5,0-0.7c0.1-0.1,0.3-0.2,0.5-0.1c2,0.5,3.9,1.2,5.4,2l-0.6,1.2c-1-0.7-2.4-1-3.4-2.6
			c-0.2-0.4-0.1-0.8,0.2-1.1c0.1-0.1,0.3-0.1,0.5-0.1c1.3,0.2,2.3,0.6,3.3,1.2c0.9,0.6,1.7,0.9,2.5,1.2l-0.8,1.3
			c-0.4-0.4-0.8-0.8-1.4-1.3c-0.6-0.5-1-1.2-1.3-2.1l0-0.1c-0.1-0.4,0.1-0.8,0.4-0.9c0.2-0.1,0.3,0,0.5,0l3.1,1.1l2.5,1.4l-0.8,1.4
			l-3.6-3.1c-0.3-0.3-0.4-0.8-0.1-1.1c0.2-0.2,0.5-0.3,0.8-0.2l0.1,0c2,0.7,3.9,1.5,5.6,2.5l-0.8,1.4c-0.6-0.3-1.2-0.8-1.8-1.2
			l-0.9-0.9c-0.3-0.3-0.5-0.9-0.6-1.4c-0.1-0.3,0.1-0.7,0.4-0.8l0,0l0.1,0c1.5-0.4,2.6,0.3,3.5,0.8c0.9,0.5,1.7,1.1,2.5,1.5
			l-0.8,1.4c-1.3-0.9-2.5-2-3.6-3.4c-0.2-0.3-0.2-0.8,0.1-1.1c0.2-0.1,0.4-0.2,0.6-0.1c1.3,0.2,2.3,0.7,3.3,1.3
			c0.9,0.6,1.7,1.1,2.5,1.6l-0.9,1.3l-1.7-1.4c-0.6-0.5-1.2-1.2-1.6-2.2l0-0.1c-0.1-0.4,0.1-0.8,0.4-0.9c0.2-0.1,0.4,0,0.5,0
			l2.7,1.2l2.2,1.5l-0.9,1.3l-2-1.4l-1.9-1.9c-0.3-0.3-0.3-0.8,0-1.1c0.3-0.2,0.6-0.3,0.9-0.1l0,0c1.8,1.1,3.5,2,5,2.7l-0.8,1.3
			c-0.3-0.3-0.7-0.7-1.3-1.1c-0.6-0.4-1.1-1-1.5-1.8c-0.2-0.4,0-0.8,0.4-1c0.2-0.1,0.4-0.1,0.6,0l2.7,1.1l2.6,1.5l-1,1.3
			c-1.2-1-2.9-1.7-3.9-3.5c-0.2-0.4-0.1-0.9,0.3-1.1c0.3-0.2,0.6-0.1,0.8,0c1.8,1.2,3.6,2.3,5.3,3.2l-1,1.2
			c-0.4-0.4-0.9-0.9-1.5-1.4c-0.6-0.5-1.2-1.1-1.8-1.9l-0.1-0.1c-0.2-0.3-0.1-0.8,0.2-1c0.2-0.1,0.5-0.1,0.7-0.1l3.2,1.2l2.7,1.6
			l0.1,0c0.4,0.2,0.5,0.7,0.3,1.1c-0.2,0.4-0.7,0.5-1.1,0.3l0,0l-2.3-1.4l-2-1.9c-0.3-0.3-0.3-0.8,0-1.1c0.2-0.2,0.6-0.3,0.9-0.2
			l5.5,2.6l-0.9,1.2c-0.3-0.3-0.7-0.7-1.4-1c-0.7-0.4-1.3-0.9-1.9-1.7c-0.2-0.3-0.1-0.8,0.2-1l0.1-0.1c1.7-0.6,2.9,0,4.1,0.3
			c1.1,0.5,2.2,1,3.2,1.5c0.4,0.2,0.6,0.7,0.4,1.1c-0.2,0.4-0.6,0.6-1,0.4c-0.8-0.3-1.5-0.7-2.1-1.2l-0.9-0.9
			c-0.3-0.4-0.5-0.9-0.7-1.4c-0.1-0.4,0-0.8,0.4-0.9c0.2-0.1,0.4-0.1,0.5,0l0,0c1.9,0.8,3.6,1.6,5.1,2.4l-0.7,1.4
			c-0.6-0.5-1.4-0.8-2.1-1.6c-0.2-0.2-0.4-0.5-0.5-0.9c-0.1-0.4,0.2-1.1,0.4-1.2c0.1-0.2,0.8-0.5,0.9-0.5c0.2,0,0.4-0.1,0.7-0.1
			c1.3,0,2,0.4,2.8,0.8c0.8,0.4,1.5,0.9,2.3,1.4l0.1,0.1c0.3,0.2,0.3,0.6,0.1,0.9c-0.2,0.3-0.6,0.3-0.9,0.1l-0.1-0.1l-1.2-1.3
			l-0.7-1.8c-0.1-0.2,0-0.4,0.2-0.5l0.1,0l0,0c1.3-0.3,2.2,0.4,3,0.9c0.8,0.5,1.5,1.1,2.3,1.5L81,118c-0.5-0.5-1.1-1-1.5-1.6
			c-0.2-0.2-0.3-1,0.2-1.2c0.5-0.3,0.7-0.2,1.1-0.1c0.8,0.2,1.3,0.6,2,0.9c0.6,0.2,1.4,0.7,2,0.1c-0.6,0.6-1.4,0.2-2,0
			c-0.7-0.2-1.3-0.6-2-0.7c-0.7-0.2-1.4,0.1-0.9,0.7c0.4,0.5,0.9,1,1.5,1.4c0.1,0.1,0.1,0.3,0,0.4c-0.1,0.1-0.2,0.1-0.4,0.1
			c-0.9-0.4-1.7-1-2.5-1.4c-0.8-0.4-1.7-0.8-2.3-0.6l0.3-0.5l0.6,1.3l1.1,1l-0.8,1c-0.6-0.4-1.3-0.8-2.1-1.1c-0.7-0.3-1.6-0.5-2-0.5
			c-0.1-0.1-0.3,0-0.5,0.1c-0.3,0.1,0,0-0.2,0.1c-0.1,0.1,0.1-0.1,0-0.1c0,0,0,0,0.1,0.1c0.4,0.5,1.1,0.9,1.8,1.4l0.1,0.1
			c0.4,0.3,0.4,0.8,0.2,1.1c-0.2,0.3-0.7,0.4-1,0.3c-1.8-0.9-3.5-1.7-4.9-2.3l1-0.9c0.2,0.2,0.2,0.4,0.3,0.6l0.7,0.6
			c0.5,0.4,1.1,0.7,1.7,0.9l-0.6,1.5c-1.1-0.5-2.1-1.1-3.1-1.5c-1-0.4-2.2-0.7-2.7-0.4l0.4-1.1c0.3,0.3,0.6,0.7,1.2,1
			c0.6,0.3,1.3,0.8,1.9,1.5c0.3,0.3,0.3,0.8,0,1.1c-0.2,0.2-0.6,0.2-0.8,0.1l-5.5-2.5l0.9-1.3l1.7,1.6l2,1.3l-0.8,1.4l-2.7-1.6
			l-2.7-1l0.8-1.2c0.3,0.5,0.8,0.9,1.3,1.4c0.6,0.4,1.2,1,1.8,1.7c0.3,0.3,0.2,0.8-0.1,1.1c-0.2,0.2-0.6,0.2-0.9,0.1
			c-2-1-3.8-2.2-5.5-3.3l1.1-1.1c0.3,0.5,0.8,1,1.4,1.5l2,1.5c0.4,0.3,0.4,0.8,0.2,1.1c-0.2,0.3-0.7,0.4-1.1,0.2l-0.1-0.1l-2.3-1.4
			l-2.5-1l1-1c0.2,0.3,0.5,0.7,0.9,1c0.5,0.4,1,0.8,1.6,1.4l0.1,0.1c0.3,0.3,0.3,0.8,0,1.1c-0.2,0.2-0.6,0.2-0.8,0.1
			c-2-0.9-3.7-1.8-5.2-2.7l1-1.2l1.5,1.5l2,1.4c0.4,0.3,0.5,0.8,0.2,1.1c-0.3,0.4-0.8,0.5-1.1,0.2l-2.2-1.5l-2.1-1l1-1
			c0.2,0.4,0.5,0.9,1,1.3l1.8,1.4c0.3,0.3,0.4,0.8,0.1,1.1c-0.2,0.3-0.7,0.4-1,0.2c-1-0.5-2-1.1-2.8-1.7c-0.8-0.6-1.7-0.9-2.5-1.1
			l0.7-1.2c0.8,1.1,1.8,2,3.1,2.9c0.4,0.3,0.5,0.7,0.2,1.1c-0.2,0.3-0.7,0.4-1,0.3c-1-0.5-1.8-1.1-2.6-1.6c-0.8-0.5-1.7-0.8-2.1-0.7
			l0.5-0.8c0.1,0.2,0.1,0.3,0.3,0.5l0.6,0.6c0.5,0.4,1,0.7,1.7,1.1c0.4,0.2,0.5,0.7,0.3,1.1c-0.2,0.4-0.7,0.5-1.1,0.3
			c-1.7-1-3.5-1.7-5.3-2.3l0.8-1.3l3.4,2.8l0.1,0.1c0.3,0.3,0.4,0.8,0.1,1.1c-0.2,0.3-0.7,0.4-1,0.2l-2.6-1.4l-2.5-0.9l0.9-1
			c0.2,0.4,0.4,0.9,0.9,1.3c0.5,0.4,1,0.9,1.5,1.5c0.3,0.3,0.3,0.8,0,1.1c-0.2,0.2-0.5,0.2-0.7,0.2c-1.2-0.3-2.2-0.8-3.1-1.4
			c-0.9-0.5-1.7-0.8-2.5-0.9l0.7-1.2c0.4,0.8,1.6,1.4,2.8,2.2l0.1,0.1c0.3,0.2,0.4,0.6,0.2,1c-0.2,0.3-0.6,0.4-0.9,0.2
			c-1.8-1-3.4-1.8-5.1-2.3l0.5-0.8c0.9,1,1.8,2,2.8,3.1l0,0c0.1,0.1,0.1,0.3,0,0.5c-0.1,0.1-0.2,0.1-0.4,0.1l-5.8-2.6l0.1-0.2
			C39.1,124.3,39.3,125.6,40.3,126.3z"/>
		<path fill="#00C2B4" d="M43.9,126.8l-0.3-0.3l-3.8-1.7c0.2,0.4,0.5,0.8,0.9,1l-0.5,0.8c-0.7-0.4-1.2-1.1-1.5-1.8
			c-0.2-0.4-0.4-0.7-0.7-1l-0.4-0.2l0.1-0.2c0-0.2,0-0.3,0.1-0.5c0.1-0.1,0.2-0.2,0.4-0.3l0.2-0.3l0.4,0.4l1.7,0.6l0,0c0,0,0,0,0,0
			c-0.2-0.2-0.3-0.4-0.3-0.7c0-0.3,0.1-0.5,0.3-0.7c0.2-0.2,0.6-0.4,1-0.2l0.1-0.2l0.3,0.3c0.1,0,0.2,0.1,0.3,0.1
			c0.1-0.2,0.3-0.4,0.5-0.6c0.2-0.2,0.5-0.2,0.8-0.2c0.2,0,0.4,0.1,0.6,0.1l0.1-0.1l0.1,0.2c0.3,0.1,0.6,0.2,0.9,0.3
			c0-0.5,0.3-0.9,0.8-1.1c0.3-0.1,0.6-0.1,0.8,0l0.3,0.1c0-0.1,0.1-0.2,0.2-0.3c0.3-0.4,0.9-0.5,1.3-0.4l0.1,0.1c0,0,0,0,0.1,0
			l0-0.1l0.1,0.1c0.2,0.1,0.4,0.1,0.6,0.2c0,0,0-0.1,0-0.1c0.1-0.3,0.4-0.5,0.6-0.6l0.2-0.1c0.4-0.1,0.8-0.1,1.1-0.1
			c0.1-0.2,0.2-0.4,0.4-0.6c0.3-0.2,0.6-0.3,1-0.2c0.1,0,0.3,0.1,0.4,0.1l0.1-0.1l0.1,0.1c0.2,0,0.4,0.1,0.6,0.2
			c0.1-0.3,0.4-0.5,0.6-0.6c0.1,0,0.2,0,0.3-0.1c0-0.1,0.1-0.1,0.2-0.2c0.4-0.4,1.1-0.5,1.5-0.2c0,0,0.1,0,0.1,0.1l0,0l0.1,0.1
			c0.2,0.1,0.4,0.2,0.6,0.3c0.1-0.2,0.3-0.3,0.5-0.4c0.2-0.1,0.5-0.1,0.7-0.1c0.1-0.2,0.3-0.5,0.5-0.6c0.4-0.3,1-0.2,1.4,0
			c0,0,0,0,0.1,0l0.1-0.1l0.1,0.2c0,0,0.1,0.1,0.1,0.1c0.1-0.1,0.2-0.2,0.3-0.2c0.3-0.2,0.7-0.3,1.1-0.1l0.3,0.1
			c0-0.1,0.1-0.1,0.1-0.2c0.3-0.4,0.9-0.5,1.4-0.3l0.1,0l0-0.1l0.2,0.2l0.4,0.2c0.1-0.1,0.2-0.2,0.3-0.3l0.2-0.1
			c1-0.4,1.9-0.4,2.6-0.2c0.1-0.4,0.3-0.7,0.7-0.8c0.3-0.1,0.6-0.1,0.8,0l0.1,0c0.4,0.2,0.9,0.4,1.3,0.5c0.1-0.2,0.2-0.4,0.4-0.5
			c0.2-0.2,0.7-0.6,1.1-0.6c0.2-0.1,0.5-0.1,0.8-0.1c0.7,0,1.3,0.1,1.8,0.3c0-0.1,0-0.1,0.1-0.2c0.1-0.2,0.3-0.4,0.5-0.5l0.2,0
			c0.3-0.1,0.5-0.1,0.8-0.1l0.1-0.1l0,0.1c0.9,0,1.6,0.4,2.2,0.8c0.1-0.3,0.3-0.5,0.6-0.6c0.5-0.3,0.9-0.2,1.3-0.1l0.1,0
			c0.6,0.2,1,0.4,1.4,0.6c0.2,0.1,0.4,0.2,0.6,0.3l0.2,0.1c0.6,0.3,1,0.4,1.3,0.1l0.7,0.7c-0.8,0.7-1.8,0.4-2.4,0.2l-0.1,0
			c-0.3-0.1-0.5-0.2-0.7-0.3c-0.4-0.2-0.8-0.3-1.2-0.4c-0.1,0-0.3,0-0.4,0c0.3,0.4,0.8,0.8,1.2,1.2l0.1,0l0.4,0.2l-0.1,0.2
			c0.1,0.3,0.1,0.6-0.1,0.8c-0.2,0.2-0.4,0.3-0.6,0.3l-0.1,0.2l-0.3-0.3c-0.6-0.3-1.1-0.6-1.6-0.9c-0.3-0.2-0.5-0.3-0.8-0.5l0.4,0.4
			c0,0,0.1,0.1,0.1,0.1l0.1,0.1l0,0c0.3,0.4,0.2,0.9-0.1,1.3c-0.2,0.2-0.4,0.4-0.7,0.4c-0.2,0-0.3,0-0.5,0l0,0l-0.1-0.1
			c-0.1,0-0.2-0.1-0.2-0.2l-0.1-0.1c-0.5-0.4-1.2-0.7-1.9-1c-0.3-0.1-0.7-0.3-1-0.4c0.1,0,0.1,0.1,0.2,0.2c0.2,0.1,0.4,0.3,0.6,0.4
			l0.1,0.1l0,0c0.2,0.2,0.4,0.5,0.5,0.8c0,0.3,0,0.7-0.2,0.9c-0.3,0.5-0.9,0.6-1.4,0.5l-0.1,0.1l-0.3-0.3c-0.2,0.4-0.7,0.6-1.2,0.6
			l0,0.1l-0.4-0.2c0,0,0,0,0,0c-0.5-0.2-0.9-0.4-1.3-0.6c-0.1,0-0.2-0.1-0.3-0.1c0.2,0.5,0.1,1-0.3,1.4c-0.4,0.3-0.9,0.4-1.3,0.3
			c0,0,0,0,0,0c-0.2,0.3-0.5,0.5-0.8,0.6c-0.2,0-0.4,0.1-0.5,0l0,0.1l-1-0.6c-0.1,0.2-0.2,0.5-0.4,0.7c-0.4,0.3-0.9,0.4-1.4,0.2
			c0,0-0.1,0-0.1-0.1l-0.1,0.1l-0.2-0.2c-0.3,0.3-0.8,0.4-1.2,0.2l-0.1,0.1l-0.4-0.3l-0.4-0.2c-0.1,0.1-0.2,0.3-0.3,0.4
			c-0.4,0.3-0.9,0.4-1.4,0.3c0,0,0,0,0,0c-0.3,0.4-0.8,0.5-1.3,0.4l0,0.1l-0.1,0c0,0-0.1,0.1-0.1,0.1c-0.4,0.4-1,0.6-1.5,0.4l0,0.1
			l-0.3-0.2c-0.1-0.1-0.2-0.1-0.3-0.2c0,0,0,0.1-0.1,0.1c-0.3,0.4-0.9,0.6-1.4,0.5l-0.1,0.1l-0.4-0.3c-0.1-0.1-0.2-0.1-0.4-0.2
			c0,0.1-0.1,0.2-0.1,0.4c-0.2,0.3-0.4,0.5-0.8,0.6c-0.2,0.1-0.4,0.1-0.6,0l0,0.1l-0.4-0.2c0,0,0,0,0,0c-0.1,0.1-0.1,0.2-0.2,0.3
			c-0.3,0.4-0.8,0.5-1.3,0.4l-0.1,0.1l-0.4-0.3l-0.7-0.4c0,0.3-0.1,0.7-0.4,0.9c-0.3,0.3-0.8,0.4-1.2,0.3c-0.1,0-0.2,0-0.2-0.1
			l-0.1,0.1l-0.1-0.2c-0.3-0.1-0.6-0.2-0.9-0.3c-0.3,0.4-0.8,0.5-1.2,0.4l0,0.1l-0.4-0.3c-0.3-0.1-0.5-0.3-0.8-0.4
			c0,0.1,0,0.2,0,0.3c0,0.2-0.1,0.4-0.3,0.6c-0.2,0.2-0.5,0.3-0.7,0.2L43.9,126.8z M47.8,124.2c0.1,0.1,0.3,0.3,0.4,0.4l0.1-0.2
			C48.1,124.4,47.9,124.3,47.8,124.2z M50.4,123.6l0.7,0.6l0.1-0.2C50.9,123.8,50.6,123.7,50.4,123.6z M52.8,123.6
			c0.1,0,0.1,0.1,0.2,0.1l0.3-0.5c-0.7-0.4-1.4-0.7-2.1-1l1.2,1l0.3,0.2l0,0.1C52.7,123.5,52.7,123.5,52.8,123.6z M53.7,121.7
			c0.5,0.5,1,1,1.6,1.4l0.2-0.3c-0.3-0.2-0.5-0.3-0.8-0.5C54.4,122.1,54.1,121.9,53.7,121.7z M57,122.3l0.5,0.4l0.2-0.2l-0.8-0.6
			l-0.8-0.3c0.1,0.1,0.1,0.1,0.2,0.1l0.5,0.4L57,122.3L57,122.3z M46.2,121.6C46.2,121.6,46.1,121.6,46.2,121.6
			c-0.2,0-0.2,0.2-0.2,0.3l0,0.1c0,0.1,0,0.1,0.1,0.2l0.4-0.4L46.2,121.6C46.2,121.6,46.2,121.6,46.2,121.6z M50.3,120.7
			c0.2,0.1,0.3,0.1,0.5,0.2l0.3-0.4c-0.2,0-0.4,0-0.5,0.1L50.3,120.7C50.4,120.7,50.3,120.7,50.3,120.7
			C50.3,120.7,50.3,120.7,50.3,120.7z M68.5,120.1l0.1,0.1l0.1-0.2l-1.4-0.7L68.5,120.1C68.4,120.1,68.4,120.1,68.5,120.1z
			 M71.3,119.5c0.1,0,0.1,0,0.2,0.1c0.2,0.1,0.4,0.2,0.6,0.3l0.1-0.2c-0.6-0.3-1.2-0.6-1.7-0.8l0.2,0.2
			C70.8,119.2,71,119.4,71.3,119.5z M73.5,118.9c0.1,0.1,0.2,0.2,0.3,0.4l0.2-0.4c-0.6-0.3-1.3-0.7-2-1c0,0.1,0.1,0.1,0.1,0.2
			c0.1,0.1,0.2,0.2,0.3,0.3c0.2,0.1,0.5,0.2,0.7,0.4c0,0,0,0,0,0L73.5,118.9L73.5,118.9z M68.4,118.3c0.1,0,0.1,0,0.2,0
			c-0.1-0.1-0.1-0.2-0.2-0.3l-0.1,0l0.1,0c0-0.1-0.1-0.2-0.1-0.3c-0.3-0.1-0.6-0.1-1-0.2c0.2,0.2,0.5,0.5,0.9,0.7
			C68.3,118.3,68.4,118.3,68.4,118.3z M77.3,117.6l0.4,0.4l0.1-0.1C77.6,117.8,77.4,117.7,77.3,117.6z M73.7,116.7
			c0.4,0,1,0.1,1.6,0.3l0.2-0.4c-0.6-0.3-1.2-0.5-2.1-0.5c-0.2,0-0.4,0-0.5,0.1l-0.1,0c-0.1,0-0.5,0.3-0.6,0.4l-0.2,0.2c0,0,0,0,0,0
			c0.2,0.1,0.4,0.2,0.6,0.3l0.1-0.3l0.6,0C73.4,116.7,73.5,116.6,73.7,116.7z M69.1,116.9c0.1,0,0.2,0.1,0.4,0.1l0.2-0.2
			c0,0-0.1,0-0.1-0.1l-0.1,0c0,0-0.1,0-0.1,0C69.1,116.8,69.1,116.8,69.1,116.9z"/>
	</g>
	<g>
		<path fill="#00C2B4" d="M72.3,116.1c1.3,1.3,3.2,1.4,4.9,1.7l-0.4,0.3c-0.1-0.4-0.4-0.7-0.7-1c-0.4-0.3-0.7-0.8-0.9-1.5
			c-0.1-0.2,0.1-0.5,0.3-0.5c0.1,0,0.2,0,0.2,0l0.1,0l4,1.1L79,117c-0.2-0.3-0.3-0.5-0.5-0.7l-0.9-1.1c-0.3-0.4-0.2-0.8,0.1-1.1
			c0.2-0.2,0.5-0.2,0.8-0.1l0.1,0c1.6,0.5,2.9,1.2,4.1,1.7l-0.9,1.4l-1.6-2c-0.3-0.3-0.3-0.9,0.1-1.2c0.2-0.2,0.5-0.3,0.8-0.2l3.5,1
			l-0.7,1.5l-0.9-1c-0.3-0.5-0.5-1-0.6-1.5c-0.1-0.4,0.1-0.8,0.5-0.9l0.2,0l0.1,0c1.2-0.1,2.2,0.2,3.1,0.7c0.8,0.4,1.6,0.8,2.2,1.1
			l-0.8,1.6c-0.4-0.3-0.9-0.6-1.3-1.1c-0.5-0.5-0.8-1.2-0.9-1.9l0-0.1c-0.1-0.4,0.2-0.8,0.6-0.8l0.2,0l2.8,0.4l2.5,0.9l-0.9,1.5
			c-0.4-0.3-0.7-0.6-1.1-1c-0.3-0.4-0.8-0.8-0.9-1.7c-0.1-0.5,0.3-1,0.6-1.2l0.5-0.2c0.2-0.1-0.1,0,0.5-0.2l0.2,0l1.3,0
			c0.9,0.2,2.2,0.6,2.9,0.9c0.8,0.4,1.6,0.7,2.3,1l-1,1.3c-0.3-0.3-0.7-0.7-1.2-1.2c-0.5-0.5-1-1.1-1.3-2.1l0-0.1
			c-0.1-0.4,0.1-0.8,0.5-0.9l0.1,0c0.6-0.1,1.2-0.1,1.8-0.1l1.5,0.4c0.9,0.4,1.7,0.8,2.5,1.3l-1,1.4l-2.4-2
			c-0.4-0.3-0.4-0.9-0.1-1.2c0.2-0.3,0.6-0.4,1-0.3c1.7,0.6,3.2,1.3,4.5,1.9l-0.9,1.5c-0.4-0.3-0.9-0.6-1.5-1
			c-0.3-0.2-0.6-0.5-0.9-0.8c-0.3-0.4-0.5-0.9-0.6-1.4c-0.1-0.4,0.1-0.8,0.5-1c0.1,0,0.3,0,0.4,0l0.1,0c2.3,0.7,4.4,1.5,6.3,2.4
			l-1.1,1.3c-0.2-0.3-0.6-0.6-1.2-0.9c-0.6-0.4-1.2-0.9-1.6-1.8c-0.2-0.4,0-0.9,0.4-1.1c0.2-0.1,0.5-0.1,0.7,0
			c1.9,0.8,3.5,1.5,4.9,2.2l-1.1,1.2c-0.2-0.3-0.6-0.7-1.2-1.1c-0.6-0.4-1.2-1-1.6-2c-0.2-0.4,0-0.9,0.4-1.1
			c0.3-0.1,0.6-0.1,0.8,0.1l2,1.2c0.6,0.4,1.2,0.6,1.8,0.7l-0.7,1.5c-0.6-0.7-1.9-1.1-2.5-2.9l0-0.1c-0.1-0.4,0.1-0.9,0.5-1
			c0.2-0.1,0.4-0.1,0.5,0l2.1,0.8c0.6,0.3,1.1,0.6,1.6,0.9l-0.7,1.6c-1-0.5-2.3-0.9-3-2.7c-0.1-0.4,0.1-0.8,0.5-1l0.2,0
			c1.1-0.1,1.9,0.2,2.6,0.6l1.7,1l-0.9,1.2c-0.5-0.5-1.1-1.3-1.7-2.3l0,0c-0.2-0.3-0.1-0.6,0.2-0.8c0.1-0.1,0.3-0.1,0.4-0.1
			c1.3,0.2,2.3,0.7,3.2,1.4c0.2,0.1,0.3,0.4,0.1,0.6c-0.1,0.2-0.4,0.3-0.6,0.2c-0.9-0.4-1.8-1.1-2.4-2c-0.1-0.1-0.1-0.3,0-0.4
			c0.1-0.1,0.2-0.1,0.3-0.1c0.8,0.2,1.5,0.4,2.1,0.7l-0.1,0.3c-0.6-0.4-1-0.9-1.2-1.6c0,0,0-0.1,0-0.1l0,0l1.5-0.2l-1.4,0.3l0-0.1
			c0.3,0.6,0.7,1,1.3,1.3c0.1,0,0.1,0.2,0.1,0.3c0,0.1-0.1,0.1-0.2,0.1c-0.7-0.3-1.4-0.4-2-0.5l0.3-0.5c0.6,0.6,1.4,1.1,2.3,1.4
			l-0.5,0.8c-0.9-0.5-1.8-0.8-2.6-0.9l0.6-0.9c0.5,0.5,1.1,1.1,1.9,2c0.3,0.3,0.3,0.8,0,1.1c-0.2,0.2-0.5,0.3-0.8,0.2l-0.1-0.1
			c-0.8-0.3-1.4-0.6-2-0.9l-0.8-0.4c-0.2-0.1-0.4,0-0.6-0.1l0.7-1c0.1,0.2,0.3,0.4,0.7,0.7c0.4,0.3,0.8,0.5,1.3,0.7l0.1,0
			c0.5,0.2,0.6,0.7,0.5,1.2c-0.2,0.4-0.7,0.6-1.2,0.4l0,0c-0.6-0.3-1.2-0.6-1.8-1l-1.5-0.6l1-1.1c0.1,0.2,0.3,0.5,0.7,0.9l1.3,1.1
			c0.4,0.3,0.4,0.8,0.1,1.2c-0.2,0.2-0.5,0.3-0.8,0.3c-2-0.2-3.3-1.5-4.5-2l1.2-1c0.2,0.3,0.4,0.7,1,1c0.5,0.4,1.1,0.9,1.7,1.7
			c0.3,0.4,0.2,0.9-0.2,1.2c-0.3,0.2-0.6,0.2-0.8,0.1c-1.8-0.9-3.4-1.6-4.8-2.2l1.1-1.1c0.1,0.2,0.4,0.6,0.9,0.9
			c0.5,0.3,1.1,0.7,1.7,1.4c0.3,0.4,0.3,0.9-0.1,1.2c-0.3,0.2-0.6,0.2-0.9,0.1l0,0c-2-1-4-1.7-5.9-2.3l1-0.9
			c0.1,0.1,0.1,0.2,0.2,0.4c0.2,0.1,0.3,0.3,0.5,0.5c0.5,0.3,1,0.7,1.6,1.2l0,0c0.4,0.3,0.4,0.8,0.1,1.2c-0.3,0.3-0.7,0.4-1,0.2
			c-1.6-0.7-3.1-1.3-4.4-1.8l0.8-1.5l2.2,1.9c0.4,0.3,0.4,0.9,0.1,1.3c-0.3,0.3-0.7,0.4-1.1,0.2c-0.8-0.4-1.6-0.8-2.3-1.2l-1.1-0.4
			c-0.3,0-0.6,0.1-0.9,0l0.6-1c0.1,0.3,0.3,0.7,0.8,1.1c0.5,0.4,1,0.9,1.5,1.6c0.3,0.4,0.2,0.9-0.2,1.2c-0.2,0.2-0.6,0.2-0.8,0.1
			c-0.9-0.4-1.8-0.7-2.5-1.1c-0.9-0.4-1.3-0.5-2-0.8l-1.3,0l-0.2,0c0.4-0.1,0.1,0,0.2,0l-0.1,0c0,0,0-0.1,0.1-0.1
			c0-0.1,0.1,0.3,0.4,0.5c0.2,0.3,0.6,0.5,0.9,0.8c0.4,0.3,0.4,0.9,0.1,1.2c-0.3,0.3-0.7,0.4-1,0.3l-2.3-0.8l-2.2-0.3l0.8-0.9
			c0.1,0.3,0.2,0.5,0.4,0.8c0.3,0.3,0.7,0.6,1.1,0.9l0,0c0.4,0.3,0.5,0.8,0.2,1.2c-0.2,0.3-0.7,0.5-1,0.3c-1-0.4-1.8-0.8-2.5-1.2
			c-0.7-0.4-1.4-0.5-2-0.5l0.7-1c0.1,0.2,0.2,0.4,0.3,0.7l0.7,0.8l0.1,0.2c0.3,0.3,0.3,0.9-0.1,1.2c-0.2,0.2-0.5,0.3-0.8,0.2l-3.6-1
			l0.8-1.4l1.6,1.9l0.1,0.1c0.3,0.4,0.2,0.9-0.1,1.2c-0.3,0.2-0.6,0.3-0.9,0.1c-1.6-0.6-2.9-1.1-4-1.7l0.9-1.2l0.6,0.9
			c0.3,0.5,0.5,1,0.7,1.5c0.1,0.3,0,0.7-0.4,0.8c-0.1,0.1-0.3,0-0.5,0l-3.9-1.6l0.6-0.5c0.1,0.3,0.2,0.7,0.5,1.1
			c0.3,0.4,0.6,0.9,0.7,1.5c0,0.1-0.1,0.3-0.2,0.3l-0.1,0C75.4,117.9,73.4,117.5,72.3,116.1z"/>
		<path fill="#00C2B4" d="M76.6,118.9l-0.1-0.2l-0.2-0.1c-1.6-0.4-3.3-0.9-4.4-2.3l0.8-0.7c0.7,0.7,1.7,1,2.7,1.2
			c-0.2-0.2-0.3-0.4-0.4-0.7l-0.3-0.1l0.2-0.2c0-0.1-0.1-0.2-0.1-0.2c-0.1-0.5,0.1-1,0.6-1.1c0.2-0.1,0.4,0,0.5,0l0.4,0.1l0.2-0.2
			l0,0.2l0.4,0.1c-0.1-0.4,0.1-0.9,0.5-1.2c0.3-0.3,0.8-0.4,1.3-0.2c0.1,0,0.3,0.1,0.4,0.1l0.1-0.1l0.1,0.2c0.1,0,0.2,0.1,0.3,0.1
			c0.1-0.1,0.1-0.2,0.2-0.3c0.3-0.3,0.8-0.4,1.2-0.3l0.4,0.1l0.1-0.1l0.2,0.2c0-0.5,0.3-0.9,0.8-1.1l0.3-0.1l0.1,0
			c0.6,0,1.2,0,1.8,0.2c0-0.1,0.1-0.2,0.2-0.3c0.2-0.3,0.5-0.4,0.8-0.5l0.3,0l2,0.3c0.1-0.5,0.5-1,0.8-1.3l0.5-0.3l0,0
			c0.1-0.1,0.3-0.1,0.6-0.2l1.6-0.1l0.1,0c0.3,0.1,0.7,0.2,1.1,0.3c0-0.6,0.3-1.1,0.9-1.3l0.2,0c0.6-0.1,1.3-0.1,1.9-0.1l0.1,0
			c0.4-0.4,0.9-0.5,1.4-0.3c0,0,0.1,0,0.1,0l0,0c0.1-0.4,0.4-0.7,0.8-0.8c0.3-0.1,0.5-0.1,0.7,0l0.1,0c0.6,0.2,1.2,0.4,1.8,0.6
			c0.1-0.3,0.4-0.5,0.6-0.7c0.3-0.2,0.7-0.2,1.1,0c0.1,0.1,0.3,0.1,0.4,0.2c0,0,0,0,0-0.1c0.1-0.3,0.4-0.6,0.7-0.7
			c0.4-0.2,0.8-0.1,1.2,0.1l0,0c0.1-0.3,0.4-0.5,0.7-0.6c0.2-0.1,0.4-0.1,0.6-0.1c0.1-0.1,0.3-0.2,0.5-0.3l0.1,0l0.2,0
			c0.4,0,0.8,0,1.2,0.1c0.1-0.1,0.2-0.2,0.3-0.3c0.2-0.1,0.5-0.2,0.7-0.2c0,0,0,0,0,0c0.2-0.1,0.4-0.2,0.6-0.2l0.1-0.2l0.1,0.1
			l0-0.2l0.3-0.3l0.2-0.5l0.3,0.4l1.1-0.1l0.2,1l-0.6,0.1c0.2,0.2,0.4,0.4,0.7,0.5c0,0,0,0,0,0l0.3,0.2l-0.1,0.1c0,0,0,0.1,0,0.1
			c0,0.1,0,0.2,0,0.3c0,0,0.1,0,0.1,0.1l0.5,0.2l-0.1,0.2c0.1,0.1,0.1,0.2,0.1,0.3c0.1,0.3,0,0.5-0.1,0.7c-0.1,0.2-0.3,0.3-0.5,0.4
			c0.1,0.4-0.1,0.8-0.3,1.1c-0.3,0.3-0.8,0.4-1.2,0.3c-0.3,0.4-0.7,0.6-1.2,0.6c-0.1,0.1-0.1,0.2-0.2,0.3c-0.3,0.3-0.7,0.5-1.2,0.5
			c-0.1,0.3-0.3,0.5-0.5,0.7c-0.4,0.3-0.9,0.3-1.3,0.1c-0.1,0-0.2-0.1-0.3-0.1l0,0l0,0c0,0-0.1,0-0.1,0c-0.1,0.1-0.2,0.2-0.3,0.3
			c-0.4,0.3-1,0.4-1.4,0.2c-0.1,0-0.1-0.1-0.2-0.1l0,0l-0.1-0.1c-0.4-0.2-0.8-0.4-1.2-0.6c0,0.2-0.1,0.4-0.3,0.6
			c-0.4,0.5-1.1,0.6-1.6,0.4l0,0.1l-0.3-0.2c-0.1,0-0.2-0.1-0.3-0.1c0,0,0,0,0,0c-0.4,0.4-1,0.6-1.5,0.4l-0.1,0.1l-0.3-0.3
			c-0.2-0.1-0.4-0.2-0.6-0.3c0.3,0.6,0.1,1.3-0.4,1.7c-0.4,0.3-0.9,0.4-1.3,0.2c-0.1,0-0.2-0.1-0.3-0.1l0,0.1l-0.1-0.1
			c-0.7-0.3-1.5-0.6-2.1-0.9c-0.5-0.2-0.8-0.4-1.2-0.5c-0.2-0.1-0.4-0.1-0.7-0.2l-0.1,0c0.1,0.1,0.2,0.1,0.2,0.2l0.4,0.1l-0.1,0.1
			c0.5,0.5,0.5,1.3,0.1,1.8c-0.3,0.4-0.9,0.6-1.4,0.5l-0.1,0.1l-0.3-0.3l-0.9-0.3c0,0,0,0,0,0.1c0.1,0.4,0,0.7-0.2,1
			c-0.3,0.5-0.9,0.7-1.5,0.5l0,0.1l-0.4-0.3c-0.5-0.2-1-0.4-1.4-0.7c0,0.3-0.2,0.6-0.4,0.8c-0.4,0.3-0.8,0.4-1.3,0.3l-0.2,0
			l-0.1,0.2l-0.1-0.1c-0.1,0.2-0.2,0.4-0.4,0.6c-0.4,0.3-0.9,0.4-1.4,0.2c0,0-0.1,0-0.1-0.1l-0.1,0.1l-0.2-0.2
			c-0.2-0.1-0.5-0.2-0.7-0.3c0,0,0,0.1,0,0.1c-0.1,0.3-0.4,0.5-0.6,0.6c-0.2,0.1-0.6,0.1-0.8,0l-1.1-0.5l-0.3,0.3c0,0,0,0.1,0,0.1
			c0,0.2,0,0.4-0.1,0.6c-0.1,0.2-0.3,0.3-0.5,0.3l-0.2,0l-0.3-0.1L76.6,118.9z M76.9,115.9l1.1,0.4l-0.2-0.3L76.9,115.9
			C76.9,115.9,76.9,115.9,76.9,115.9z M84.4,115.9L84.4,115.9c0.2,0.1,0.3,0,0.3-0.1c0.1-0.1,0.1-0.2,0.1-0.2c0-0.1,0-0.2-0.1-0.2
			l-0.1-0.1L84.4,115.9z M88.4,115.3l-0.2,0.4c0.1,0,0.1-0.1,0.1-0.1C88.4,115.5,88.4,115.4,88.4,115.3
			C88.4,115.3,88.4,115.3,88.4,115.3z M83.3,114.9l0.3,0.3l0.1-0.3l-0.1,0C83.5,114.9,83.4,114.9,83.3,114.9z M86.3,114.3
			c0.1,0.1,0.1,0.2,0.2,0.2c0.3,0.2,0.5,0.5,0.8,0.7l0.3-0.6c-0.2-0.1-0.4-0.2-0.6-0.3L86.3,114.3z M78.2,114.4
			c-0.1,0-0.1,0-0.2,0.1c-0.1,0.1-0.1,0.3,0,0.4l0,0l0.4-0.5C78.3,114.4,78.3,114.4,78.2,114.4z M84.7,113.9l0.3,0.4
			c-0.1-0.3-0.2-0.6-0.3-0.9c-0.1,0-0.2-0.1-0.3-0.1C84.6,113.5,84.6,113.7,84.7,113.9z M89.4,113.2c0.1,0.1,0.1,0.2,0.2,0.2
			l0.2,0.2c0.2,0.2,0.4,0.4,0.6,0.5l0.3-0.5L89.4,113.2z M82.7,113.7l0.4,0.1l0.4-0.6c-0.2,0-0.4,0-0.5,0l0,0l-0.1,0l-0.1,0
			c-0.1,0-0.1,0.2-0.1,0.3C82.7,113.6,82.7,113.6,82.7,113.7z M96.4,113.6C96.4,113.6,96.4,113.6,96.4,113.6c0.1,0.1,0.2,0,0.3,0
			c0.2-0.1,0.2-0.3,0.1-0.5c0,0,0,0,0,0L96.4,113.6z M88,113.6l0.5,0.1c-0.1-0.2-0.3-0.5-0.4-0.8l-0.7-0.1l0,0
			c0,0.2,0.1,0.4,0.3,0.6C87.8,113.4,87.9,113.5,88,113.6z M85.7,112.7c0.2,0.1,0.4,0.2,0.5,0.3c0,0,0,0,0,0l0.3-0.3l-0.1,0
			L85.7,112.7C85.7,112.6,85.7,112.6,85.7,112.7C85.7,112.6,85.7,112.7,85.7,112.7z M94.9,112.2c0.3,0.3,0.5,0.5,0.7,0.7l0.2-0.3
			l-0.1,0C95.5,112.5,95.2,112.3,94.9,112.2z M92.6,112c0.4,0.1,0.7,0.2,1.3,0.5c-0.2-0.2-0.4-0.5-0.6-0.7L92.6,112z M89.9,111.1
			c0,0-0.1,0.1-0.2,0.1l-0.4,0.2c-0.1,0.1-0.3,0.4-0.4,0.6l0.8-0.1l0-0.1l0.7,0l0.1,0.1l2.5-0.2c0,0,0-0.1-0.1-0.1
			c-0.5-0.2-1.1-0.3-1.6-0.4l-1.4,0C90,111,90,111,89.9,111.1z M100.5,111.6C100.5,111.6,100.5,111.6,100.5,111.6l0.2-0.3
			c-0.2-0.1-0.3-0.1-0.5-0.2C100.4,111.2,100.4,111.4,100.5,111.6z M93.8,110.6c0.1,0,0.1,0.1,0.2,0.1l0.5-0.8c-0.2,0-0.5,0-0.7,0.1
			l-0.1,0c-0.1,0-0.1,0.1-0.1,0.2C93.7,110.3,93.7,110.5,93.8,110.6z M100.2,109.2C100.3,109.3,100.3,109.3,100.2,109.2
			c0.2,0.1,0.2,0.2,0.3,0.3c0.1,0.1,0.2,0.2,0.4,0.2c-0.1-0.1-0.1-0.2-0.2-0.3c0,0,0,0,0,0C100.6,109.3,100.4,109.3,100.2,109.2z
			 M111.1,109.3c0.1,0,0.2,0,0.3-0.1c0.1-0.1,0.1-0.2,0-0.3L111.1,109.3C111.1,109.2,111.1,109.3,111.1,109.3z M98.2,109
			c0.2,0.1,0.3,0.1,0.5,0.2l0.3-0.3c-0.1,0-0.2-0.1-0.3-0.1c-0.1,0-0.2,0-0.2,0C98.3,108.8,98.2,108.8,98.2,109z M101.7,108.7
			c0.1,0,0.3,0.1,0.4,0.1l0.2-0.2c-0.1,0-0.1-0.1-0.2-0.1c-0.1,0-0.2,0-0.2,0C101.8,108.6,101.7,108.6,101.7,108.7z M103.8,108.2
			c0.1,0,0.2,0.1,0.2,0.1l0.4-0.3l0,0c-0.1-0.1-0.3-0.1-0.3,0C103.9,108,103.9,108,103.8,108.2C103.8,108.1,103.8,108.2,103.8,108.2
			z"/>
	</g>
	<g>
		<g>
			<path fill="#00C2B4" d="M40.5,59.9c-1.3,0.3-3-0.4-4.6-1c-0.5-0.2-1-0.4-1.4-0.5c-0.2-0.1-0.4-0.2-0.4-0.4
				c-0.1-0.2-0.1-0.4,0-0.6c0,0,1.4-2.4,2.4-2.1c0.2,0.1,0.4,0.3,0.5,0.6c0.9,0.1,1.8,0.5,2.6,0.7l0.1,0c0.6-0.7,0.9-1.4,1.3-2
				c0.3-0.6,0.6-1.1,1-1.7l0.5-0.6c1.3-1.8,2.8-3.8,3.3-4.4c0.3-0.3,0.6-0.6,1.1-0.5c0.2,0.1,0.4,0.3,0.5,0.5c0,0,0,0,0,0
				c0.3,0,0.5,0.1,0.7,0.3c0.2,0.2,0.2,0.5,0,0.7c-0.4,0.7-1.1,1.7-1.9,2.8c-0.7,0.9-1.4,1.9-1.7,2.5c-0.2,0.3-0.4,0.7-0.6,1.2
				c-0.7,1.5-1.7,3.4-2.7,4C40.9,59.7,40.7,59.8,40.5,59.9z M35.9,57.4c0.2,0.1,0.3,0.1,0.5,0.2c1.2,0.5,3.3,1.3,3.9,0.8
				c0.7-0.5,1.6-2.3,2.2-3.5c0.3-0.5,0.5-1,0.7-1.3c0.1-0.2,0.2-0.4,0.4-0.6c0,0-0.1,0.1-0.1,0.1L43,53.8c-0.3,0.5-0.6,1-0.9,1.5
				c-0.4,0.8-0.9,1.7-1.7,2.7c-0.2,0.2-0.5,0.3-0.8,0.2L39,58C37.2,57.4,36.2,57.1,35.9,57.4C35.9,57.4,35.9,57.4,35.9,57.4z"/>
			<path fill="#00C2B4" d="M39.8,60.5c-1.3,0-2.7-0.6-4.1-1.1l-0.3-0.1c-0.4-0.2-0.8-0.3-1-0.4c-0.4-0.1-0.7-0.4-0.8-0.7
				c-0.1-0.3-0.1-0.7,0-1c0,0,1.6-2.9,3-2.3c0.3,0.1,0.5,0.3,0.7,0.6c0.7,0.1,1.5,0.4,2.2,0.6c0.4-0.6,0.7-1.1,1-1.6l0.1-0.2
				c0.3-0.5,0.6-1.1,1-1.6l0.5-0.6c1.3-1.9,2.8-3.8,3.4-4.4c0.3-0.3,0.8-0.8,1.6-0.6c0.3,0.1,0.5,0.3,0.6,0.5c0.4,0,0.6,0.2,0.8,0.5
				c0.3,0.4,0.3,0.9,0.1,1.3c-0.3,0.7-1,1.5-1.6,2.4l-0.5,0.7c-0.6,0.8-1.2,1.7-1.5,2.2c-0.1,0.2-0.3,0.5-0.5,0.9l-0.2,0.3
				c-0.9,1.8-1.8,3.5-2.9,4.2c-0.2,0.2-0.5,0.3-0.8,0.3h0C40.3,60.4,40.1,60.5,39.8,60.5z M36.2,55.8c-0.3,0-1.1,0.8-1.7,1.9
				c0,0,0,0.1,0,0.1c0,0.1,0.1,0.1,0.2,0.1c0.3,0.1,0.7,0.2,1.1,0.4l0.2,0.1c1.5,0.6,3.2,1.2,4.3,1l0,0c0.2,0,0.3-0.1,0.5-0.2
				c0.9-0.6,1.9-2.6,2.5-3.8l0.2-0.3c0.2-0.3,0.3-0.7,0.5-0.9c0.3-0.6,0.9-1.4,1.6-2.3l0.5-0.7c0.6-0.9,1.3-1.7,1.6-2.3
				c0-0.1,0-0.2,0-0.2c-0.1-0.1-0.1-0.1-0.2-0.1L47,48.6l-0.2-0.4c-0.1-0.1-0.2-0.2-0.2-0.3c-0.2,0-0.3,0.1-0.6,0.3
				c-0.6,0.6-2.6,3.3-3.3,4.3l-0.5,0.6c-0.4,0.5-0.6,1-0.9,1.5L41.2,55c-0.4,0.6-0.7,1.3-1.3,2l-0.2,0.3L39.1,57
				c-0.7-0.2-1.6-0.5-2.3-0.6l-0.4,0L36.4,56C36.4,55.9,36.3,55.9,36.2,55.8C36.2,55.8,36.2,55.8,36.2,55.8z M39.8,59.1
				c-0.8,0-2-0.4-3.6-1c-0.2-0.1-0.3-0.1-0.5-0.2l-0.8-0.3l0.7-0.6l0.3,0.4L35.5,57c0.5-0.3,1.2-0.3,3.7,0.5l0.6,0.2
				c0.1,0,0.2,0,0.2-0.1c0.8-0.9,1.3-1.8,1.7-2.5l0.1-0.2c0.3-0.5,0.5-1,0.9-1.4l0.5-0.7c0,0,0,0,0-0.1c0,0,0,0,0-0.1l0.8,0.6
				c0,0,0,0,0,0.1c0,0,0,0,0,0c-0.1,0.2-0.2,0.3-0.3,0.5c-0.2,0.3-0.4,0.8-0.7,1.3l-0.1,0.1c-0.8,1.7-1.6,3.1-2.3,3.6
				C40.4,59,40.1,59.1,39.8,59.1z"/>
		</g>
		<g>
			<path fill="#00C2B4" d="M40.7,59.1c-0.1,0-0.1,0-0.2,0c-1.5-0.1-3.9-0.2-5.3-1.4c-0.3-0.3-0.3-0.7-0.1-1c0.3-0.3,0.7-0.3,1-0.1
				c0.9,0.8,2.6,0.9,3.8,1c0.3-1.1,1-2.2,1.8-3.2c0.6-0.9,1.2-1.7,1.5-2.5c0.1-0.4,0.5-0.6,0.9-0.5c0.4,0.1,0.6,0.5,0.5,0.9
				c-0.3,1-1,2-1.7,2.9c-0.8,1.1-1.6,2.2-1.6,3.2C41.2,58.8,41,59.1,40.7,59.1z"/>
			<path fill="#00C2B4" d="M40.6,59.6c0,0-0.1,0-0.1,0c-1.4-0.1-4.1-0.2-5.6-1.5c-0.5-0.4-0.6-1.2-0.1-1.7c0.5-0.5,1.2-0.6,1.7-0.1
				c0.7,0.6,2.3,0.8,3.1,0.9c0.4-1.1,1.1-2,1.7-3c0.6-0.9,1.2-1.7,1.4-2.4c0.1-0.3,0.3-0.6,0.6-0.7c0.3-0.1,0.6-0.2,0.9-0.1
				c0.6,0.2,1,0.9,0.8,1.5c-0.3,1-1,2-1.7,3.1c-0.7,0.9-1.5,2.1-1.5,3c0,0.5-0.4,1-0.9,1.1C40.8,59.6,40.7,59.6,40.6,59.6z M35.6,57
				c-0.1,0-0.1,0-0.2,0.1c-0.1,0.1-0.1,0.2,0,0.3c1.3,1.1,3.7,1.2,5,1.3l0.1,0c0.1,0,0.1-0.1,0.2-0.2c0.1-1.2,1-2.5,1.7-3.5
				c0.7-1,1.3-1.9,1.6-2.8c0-0.1,0-0.2-0.1-0.3c0,0-0.1,0-0.1,0c0,0-0.1,0.1-0.1,0.1c-0.3,0.8-0.9,1.7-1.5,2.6
				c-0.8,1.1-1.5,2.1-1.7,3.1l-0.1,0.4l-0.4,0c-1.5-0.1-3.2-0.3-4.1-1.1C35.7,57,35.7,57,35.6,57z"/>
		</g>
	</g>
	<g>
		<path fill="#00C2B4" d="M31.1,52.9c1,1.6,1.2,3.6,1.9,5.3c0.5,1.8,1.4,3.5,1.1,5.7l-0.8-0.7c1.9-0.7,4-1.6,6-2l6.1-1.5l-0.6,1
			c-0.5-2-0.5-3.7-0.8-5.5c-0.3-1.7-0.9-3.5-2-4.2c-0.8-0.4-1.4-0.3-2.4-0.1l-2.7,0.6l-5.4,0.9l5.2-1.7l2.6-0.8c0.8-0.3,2.1-0.4,3,0
			c2.2,1.1,2.6,3.4,3,5.1c0.4,1.8,0.5,3.7,0.9,5.3l0,0.1c0.1,0.4-0.1,0.8-0.5,0.9l0,0l-6.2,1.4c-2.1,0.3-3.9,1.1-6,1.7
			c-0.3,0.1-0.7-0.1-0.8-0.4c0-0.1,0-0.2,0-0.3c0.3-1.5-0.3-3.4-0.7-5.2C31.8,56.5,31.9,54.7,31.1,52.9z"/>
		<path fill="#00C2B4" d="M34.5,65l-0.3-0.3c-0.1,0-0.3,0.1-0.4,0.1c-0.6,0.2-1.2-0.2-1.4-0.7c-0.1-0.2-0.1-0.4,0-0.6
			c0-0.1,0-0.3,0.1-0.4L32.4,63l0.1,0c0-1-0.3-2.3-0.6-3.5c-0.1-0.3-0.2-0.6-0.2-1c-0.2-0.7-0.3-1.5-0.4-2.2
			c-0.1-1.1-0.3-2.2-0.7-3.2l0.9-0.5c0.7,1.1,1,2.3,1.3,3.5c0.2,0.7,0.4,1.3,0.6,1.9c0.1,0.4,0.3,0.8,0.4,1.2
			c0.3,0.9,0.6,1.9,0.8,2.9c1.5-0.6,3.1-1.2,4.7-1.5l4.9-1.2c-0.1-0.7-0.2-1.3-0.3-2c-0.1-0.8-0.2-1.5-0.3-2.2c-0.3-2-1-3.4-1.8-3.9
			c-0.6-0.3-1.1-0.2-2-0.1l-2.7,0.6l-5.4,1l-0.2-1l7.9-2.5c0.9-0.3,2.3-0.4,3.4,0c2.2,1.1,2.8,3.2,3.2,4.9l0.1,0.5
			c0.2,0.8,0.3,1.7,0.4,2.5c0.1,1,0.3,2,0.5,2.8c0.1,0.4,0.1,0.7-0.1,1c-0.2,0.3-0.4,0.5-0.8,0.6L44.7,62l0,0l-4.9,1.1
			c-1.3,0.2-2.5,0.6-3.8,1c-0.5,0.2-1,0.3-1.5,0.5L34.5,65z M34.6,63.2c0,0.1,0,0.2,0,0.3c0.4-0.1,0.7-0.2,1.1-0.4
			c1.3-0.4,2.5-0.8,3.9-1.1l4.8-1.1l-0.1-0.2c0-0.1,0-0.2-0.1-0.3l-4.9,1.2C37.8,62,36.2,62.6,34.6,63.2z M33.3,60.9
			c0.1,0.6,0.2,1.1,0.2,1.7l0.1,0c0,0,0,0,0,0C33.6,62,33.4,61.4,33.3,60.9z M45.9,60l-0.5,0.8l0.4-0.1c0.1,0,0.1-0.1,0.2-0.1
			c0,0,0-0.1,0-0.2C45.9,60.3,45.9,60.2,45.9,60z M40.9,50.2c0.5,0,0.9,0.1,1.4,0.3c1.4,0.8,2,2.9,2.3,4.6c0.1,0.8,0.2,1.5,0.3,2.3
			c0.1,0.6,0.1,1.2,0.2,1.9l0.5-0.1c-0.1-0.6-0.2-1.1-0.3-1.7c-0.1-0.8-0.2-1.6-0.4-2.4l-0.1-0.5c-0.4-1.6-0.8-3.3-2.6-4.2
			c-0.7-0.3-1.9-0.2-2.7,0l-0.2,0.1l0.2,0C40.1,50.3,40.5,50.2,40.9,50.2z"/>
	</g>
	<g>
		<g>
			<path fill="#00C2B4" d="M44.9,77.8c-1.2,0.3-3-0.4-4.6-1c-0.5-0.2-1-0.4-1.4-0.5c-0.2,0-0.4-0.2-0.4-0.4c-0.1-0.2-0.1-0.4,0-0.6
				c0,0,1.4-2.4,2.3-2.1c0.3,0.1,0.4,0.3,0.5,0.6c0.8,0.1,1.7,0.4,2.6,0.7l0.1,0c0.6-0.7,0.9-1.4,1.3-2.1c0.3-0.6,0.6-1.1,1-1.6
				l0.5-0.7c1.4-1.9,2.7-3.7,3.3-4.3c0.3-0.3,0.6-0.6,1.1-0.5c0.2,0.1,0.4,0.3,0.5,0.5c0,0,0,0,0,0c0.3,0,0.5,0.1,0.7,0.3
				c0.2,0.2,0.2,0.5,0,0.8c-0.4,0.7-1.2,1.8-1.9,2.8c-0.7,0.9-1.3,1.8-1.7,2.4c-0.2,0.3-0.4,0.7-0.6,1.2c-0.7,1.5-1.7,3.4-2.7,4.1
				C45.4,77.7,45.2,77.8,44.9,77.8z M40.3,75.3c0.2,0.1,0.3,0.1,0.5,0.2c1.2,0.5,3.4,1.3,3.9,0.9c0.7-0.5,1.6-2.3,2.2-3.5
				c0.3-0.5,0.5-1,0.7-1.3c0.1-0.2,0.2-0.4,0.4-0.6c0,0,0,0,0,0l-0.5,0.8c-0.3,0.5-0.6,1-0.9,1.5c-0.4,0.8-0.9,1.7-1.7,2.6
				c-0.2,0.2-0.5,0.3-0.8,0.2l-0.6-0.2C41.7,75.3,40.6,75.1,40.3,75.3C40.4,75.3,40.3,75.3,40.3,75.3z"/>
			<path fill="#00C2B4" d="M44.2,78.4c-1.2,0-2.7-0.6-4-1.1c-0.6-0.2-1-0.4-1.4-0.5c-0.3-0.1-0.6-0.3-0.7-0.7c-0.1-0.3-0.1-0.7,0-1
				c0.5-0.9,1.8-2.7,3-2.3c0.3,0.1,0.5,0.3,0.7,0.6c0.7,0.1,1.4,0.4,2.1,0.6c0.4-0.6,0.7-1.1,1-1.6l0.1-0.1c0.3-0.6,0.6-1.2,1.1-1.7
				l0.5-0.7c1.4-1.9,2.7-3.8,3.3-4.3c0.3-0.3,0.8-0.8,1.6-0.6c0.3,0.1,0.5,0.3,0.6,0.5c0.4,0,0.6,0.2,0.8,0.5
				c0.3,0.4,0.3,0.8,0.1,1.3c-0.4,0.7-1.1,1.8-2,2.9c-0.7,0.9-1.3,1.8-1.7,2.4c-0.1,0.2-0.3,0.5-0.5,0.9l-0.2,0.3
				c-0.8,1.5-1.7,3.5-2.9,4.2c-0.2,0.2-0.5,0.3-0.8,0.4C44.8,78.4,44.5,78.4,44.2,78.4z M39.1,75.4c0,0.1-0.1,0.2-0.1,0.2
				c0,0,0,0.1,0,0.1c0,0.1,0.1,0.1,0.1,0.1c0.5,0.2,0.9,0.3,1.5,0.5c1.5,0.6,3.2,1.2,4.3,0.9h0c0.2,0,0.3-0.1,0.5-0.2
				c0.9-0.6,1.8-2.5,2.5-3.9L48,73c0.2-0.4,0.3-0.7,0.5-0.9c0.3-0.6,1-1.5,1.7-2.4c0.7-1,1.6-2.1,2-2.9c0-0.1,0-0.2,0-0.2
				c0-0.1-0.1-0.1-0.2-0.1l-0.4,0.1l-0.2-0.4c-0.1-0.1-0.2-0.2-0.2-0.3c-0.2-0.1-0.3,0.1-0.6,0.3c-0.5,0.5-2,2.5-3.2,4.2l-0.5,0.7
				c-0.4,0.5-0.7,1-1,1.6l-0.1,0.1c-0.4,0.6-0.7,1.3-1.3,2l-0.2,0.2l-0.5-0.1c-0.8-0.3-1.8-0.6-2.5-0.7l-0.4,0l-0.1-0.4
				c0-0.1-0.1-0.2-0.2-0.2c-0.2-0.1-0.8,0.5-1.4,1.3l0.8-0.2c0.3-0.2,0.9-0.4,3.6,0.6l0.6,0.2c0.1,0,0.1,0,0.2-0.1
				c0.8-0.9,1.3-1.8,1.7-2.5l0.1-0.1c0.3-0.5,0.6-1,0.9-1.5l0.5-0.7l0.1-0.2l0.3-0.1l1.2-0.3l-0.8,1.2c-0.1,0.1-0.2,0.3-0.3,0.4
				c-0.2,0.3-0.4,0.8-0.7,1.3c-0.8,1.5-1.6,3.2-2.4,3.7c-0.6,0.5-2.1,0.1-4.4-0.8c-0.2-0.1-0.3-0.1-0.5-0.2L39.1,75.4z"/>
		</g>
		<g>
			<path fill="#00C2B4" d="M45.2,77c-0.1,0-0.1,0-0.2,0c-1.4-0.1-3.9-0.2-5.3-1.4c-0.3-0.2-0.3-0.7-0.1-1c0.3-0.3,0.7-0.3,1-0.1
				c0.9,0.8,2.6,0.9,3.8,1c0.3-1.1,1-2.2,1.8-3.2c0.6-0.9,1.2-1.7,1.5-2.5c0.1-0.4,0.5-0.6,0.9-0.5c0.4,0.1,0.6,0.5,0.5,0.9
				c-0.3,1-1,2-1.7,2.9c-0.8,1.1-1.6,2.2-1.6,3.2C45.7,76.7,45.5,77,45.2,77z"/>
			<path fill="#00C2B4" d="M45,77.6L45,77.6c-1.5-0.1-4.1-0.2-5.7-1.5c-0.5-0.4-0.6-1.2-0.1-1.7c0.5-0.5,1.2-0.6,1.7-0.1
				c0.7,0.6,2,0.8,3.1,0.8c0.4-1,1-2,1.7-3c0.6-0.8,1.2-1.7,1.4-2.4c0.2-0.6,0.9-1,1.5-0.8c0.3,0.1,0.5,0.3,0.7,0.6
				c0.2,0.3,0.2,0.6,0.1,0.9c-0.3,1.1-1.1,2.1-1.7,3.1c-0.7,1-1.5,2.1-1.5,3c0,0.5-0.4,0.9-0.9,1.1h0C45.2,77.6,45.1,77.6,45,77.6
				L45,77.6z M40.1,75C40,75,40,75,39.9,75c-0.1,0.1-0.1,0.2,0,0.3c1.2,1.1,3.7,1.2,5,1.3l0.2,0.5l-0.1-0.5c0,0,0.1,0,0.2-0.2
				c0.1-1.1,0.9-2.3,1.7-3.5c0.6-0.9,1.3-1.8,1.6-2.8c0-0.1,0-0.1,0-0.2c0,0-0.1-0.1-0.1-0.1c-0.1,0-0.2,0-0.3,0.1
				c-0.3,0.9-0.9,1.8-1.5,2.7c-0.7,1-1.4,2.1-1.7,3.1l-0.1,0.4l-0.4,0c-1.4-0.1-3.2-0.3-4.1-1.1C40.2,75,40.2,75,40.1,75z"/>
		</g>
	</g>
	<g>
		<path fill="#00C2B4" d="M35.5,70.9c1,1.6,1.2,3.6,1.9,5.3c0.5,1.8,1.4,3.5,1.1,5.7l-0.8-0.7c1.9-0.7,4-1.6,6-2l6.1-1.5l-0.6,1
			c-0.5-1.9-0.5-3.7-0.8-5.5c-0.3-1.7-0.9-3.5-2-4.2c-0.8-0.4-1.4-0.3-2.4-0.1l-2.7,0.6l-5.4,0.9l5.2-1.7l2.6-0.8
			c0.8-0.3,2.1-0.4,3,0c2.2,1.1,2.6,3.3,3,5.1c0.4,1.8,0.5,3.7,0.9,5.3l0,0c0.1,0.4-0.1,0.8-0.5,0.9l0,0l-6.2,1.4
			c-2.1,0.4-3.9,1.1-6,1.7c-0.3,0.1-0.7-0.1-0.8-0.4c0-0.1,0-0.2,0-0.3c0.3-1.5-0.3-3.5-0.7-5.2C36.2,74.5,36.3,72.6,35.5,70.9z"/>
		<path fill="#00C2B4" d="M38.9,82.9l-0.3-0.3c-0.1,0-0.3,0.1-0.4,0.1c-0.6,0.2-1.2-0.2-1.4-0.8c-0.1-0.2-0.1-0.4,0-0.6
			c0-0.1,0-0.3,0.1-0.4l-0.1-0.1l0.1,0c0-1-0.3-2.3-0.6-3.5c-0.1-0.3-0.2-0.6-0.2-1c-0.2-0.7-0.3-1.5-0.4-2.2
			c-0.1-1.1-0.3-2.2-0.7-3.2l0.9-0.5c0.7,1.1,1,2.3,1.3,3.5c0.2,0.7,0.4,1.3,0.6,1.9c0.1,0.4,0.3,0.8,0.4,1.2
			c0.3,0.9,0.6,1.9,0.8,2.9c1.5-0.6,3.1-1.2,4.7-1.5l4.9-1.2c-0.1-0.7-0.2-1.3-0.3-2c-0.1-0.8-0.2-1.5-0.3-2.2c-0.3-2-1-3.4-1.8-3.9
			c-0.6-0.3-1.1-0.2-2-0.1l-2.6,0.6l-5.4,0.9l-0.2-1l7.9-2.5c0.9-0.3,2.3-0.4,3.4,0c2.2,1.1,2.7,3.2,3.2,4.9l0.1,0.5
			c0.2,0.8,0.3,1.7,0.4,2.5c0.1,1,0.3,2,0.5,2.9c0.1,0.4,0.1,0.7-0.1,1c-0.2,0.3-0.4,0.5-0.8,0.6L44.3,81c-1.3,0.2-2.5,0.6-3.8,1
			c-0.5,0.2-1,0.3-1.5,0.5L38.9,82.9z M39.1,81.1c0,0.1,0,0.2,0,0.3c0.4-0.1,0.7-0.2,1.1-0.4c1.3-0.4,2.5-0.8,3.9-1.1l4.8-1.1
			l-0.1-0.2c0-0.1,0-0.2-0.1-0.3l-4.9,1.2C42.3,79.9,40.6,80.5,39.1,81.1z M37.8,78.8c0.1,0.6,0.2,1.1,0.2,1.7l0.1,0c0,0,0,0,0,0
			C38,79.9,37.9,79.4,37.8,78.8z M50.3,78l-0.5,0.8l0.4-0.1c0.1,0,0.2-0.1,0.2-0.1c0-0.1,0-0.1,0-0.2C50.4,78.2,50.3,78.1,50.3,78z
			 M45.4,68.2c0.5,0,0.9,0.1,1.4,0.3c1.1,0.6,1.9,2.2,2.3,4.6c0.1,0.7,0.2,1.5,0.3,2.3c0.1,0.6,0.1,1.2,0.2,1.9l0.5-0.1
			c-0.1-0.6-0.2-1.1-0.3-1.7c-0.1-0.8-0.2-1.6-0.4-2.4l-0.1-0.5c-0.4-1.6-0.8-3.3-2.6-4.2c-0.7-0.3-1.8-0.2-2.7,0l-0.2,0l0.1,0
			C44.5,68.2,44.9,68.2,45.4,68.2z"/>
	</g>
	<g>
		<g>
			<path fill="#00C2B4" d="M49.8,97.3c-1.2,0.3-3-0.4-4.6-1c-0.5-0.2-1-0.4-1.4-0.5c-0.2,0-0.4-0.2-0.4-0.4c-0.1-0.2-0.1-0.4,0-0.6
				c0,0,1.4-2.4,2.4-2.1c0.3,0.1,0.4,0.3,0.5,0.6c0.8,0.1,1.7,0.4,2.6,0.7l0.1,0c0.6-0.7,0.9-1.4,1.3-2.1c0.3-0.6,0.6-1.1,1-1.7
				l0.5-0.6c1.3-1.8,2.8-3.8,3.3-4.4c0.3-0.3,0.6-0.6,1.1-0.4c0.2,0.1,0.4,0.3,0.5,0.5c0,0,0,0,0,0c0.3-0.1,0.5,0.1,0.7,0.3
				c0.2,0.2,0.2,0.5,0,0.8c-0.4,0.7-1.2,1.8-2,2.8c-0.7,0.9-1.3,1.9-1.7,2.5c-0.2,0.3-0.4,0.7-0.6,1.2c-0.7,1.5-1.7,3.4-2.7,4.1
				C50.2,97.2,50,97.3,49.8,97.3z M45.2,94.8c0.2,0.1,0.3,0.1,0.5,0.2c1.2,0.5,3.4,1.3,3.9,0.9c0.7-0.5,1.6-2.3,2.2-3.5
				c0.3-0.5,0.5-1,0.7-1.3c0.1-0.2,0.3-0.4,0.4-0.7c0,0-0.1,0.1-0.1,0.1l-0.5,0.7c-0.3,0.5-0.6,1-0.9,1.5c-0.4,0.8-0.9,1.7-1.7,2.7
				c-0.2,0.2-0.5,0.3-0.8,0.2l-0.6-0.2C46.5,94.8,45.5,94.6,45.2,94.8C45.2,94.8,45.2,94.8,45.2,94.8z"/>
			<path fill="#00C2B4" d="M49.1,97.9c-1.3,0-2.8-0.6-4.1-1.1l-0.1-0.1c-0.5-0.2-0.9-0.3-1.2-0.5c-0.3-0.1-0.6-0.3-0.8-0.7
				c-0.1-0.3-0.1-0.6,0-1c0-0.1,1.6-2.9,3-2.3c0.3,0.1,0.5,0.3,0.7,0.6c0.7,0.1,1.5,0.4,2.2,0.6c0.4-0.6,0.7-1.2,1-1.7l0.1-0.1
				c0.3-0.6,0.6-1.1,1-1.6l0.5-0.6c1.7-2.4,2.9-3.9,3.4-4.4c0.3-0.3,0.8-0.8,1.6-0.6c0.3,0.1,0.5,0.3,0.6,0.5c0.3,0,0.6,0.2,0.8,0.5
				c0.3,0.4,0.3,0.8,0.1,1.3c-0.4,0.8-1.3,1.9-2,2.9l-0.2,0.3c-0.6,0.8-1.2,1.6-1.5,2.1c-0.2,0.3-0.4,0.7-0.6,1.2
				c-0.9,1.7-1.8,3.5-2.9,4.2c-0.2,0.2-0.5,0.3-0.8,0.4h0C49.6,97.9,49.4,97.9,49.1,97.9z M45.5,93.2c-0.3,0-1.1,0.9-1.7,1.9
				c0,0,0,0.1,0,0.1c0,0.1,0.1,0.1,0.1,0.1c0.4,0.1,0.9,0.3,1.3,0.5l0.1,0.1c1.5,0.6,3.2,1.2,4.3,1c0.2,0,0.3-0.1,0.5-0.2
				c1-0.7,2-2.7,2.5-3.9c0.2-0.5,0.5-0.9,0.6-1.2c0.3-0.6,0.9-1.4,1.5-2.2L55,89c0.7-1,1.5-2.1,1.9-2.8c0-0.1,0-0.2,0-0.2
				c0-0.1-0.1-0.1-0.2-0.1L56.3,86l-0.2-0.4c-0.1-0.1-0.1-0.2-0.2-0.3c-0.2-0.1-0.3,0.1-0.6,0.3c-0.6,0.6-2.3,3-3.3,4.3l-0.5,0.6
				c-0.4,0.5-0.6,1-0.9,1.5l-0.5-0.1l0.4,0.2c-0.4,0.7-0.7,1.3-1.3,2.1l-0.2,0.3l-0.3-0.1c-0.8-0.3-1.8-0.6-2.6-0.7l-0.4-0.1
				l-0.1-0.4C45.7,93.4,45.6,93.3,45.5,93.2C45.5,93.2,45.5,93.2,45.5,93.2z M49.1,96.5c-0.7,0-1.9-0.3-3.6-1
				c-0.1,0-0.3-0.1-0.5-0.2L44.2,95l0.7-0.6c0.3-0.2,0.9-0.4,3.6,0.6l0.6,0.2c0.1,0,0.2,0,0.2-0.1c0.8-0.9,1.2-1.8,1.7-2.5l0.1-0.2
				c0.3-0.5,0.6-1,0.9-1.5l0.5-0.6c0,0,0.1-0.1,0.1-0.2l0.8,0.6l-0.1,0.1c-0.1,0.2-0.2,0.3-0.3,0.5c-0.1,0.2-0.3,0.6-0.5,0.9
				l-0.2,0.3c-0.8,1.5-1.6,3.2-2.4,3.7C49.7,96.4,49.4,96.5,49.1,96.5z"/>
		</g>
		<g>
			<path fill="#00C2B4" d="M50,96.5c-0.1,0-0.1,0-0.2,0c-1.5-0.1-3.9-0.2-5.3-1.4c-0.3-0.3-0.3-0.7-0.1-1c0.3-0.3,0.7-0.3,1-0.1
				c0.9,0.7,2.6,0.9,3.8,1c0.3-1.1,1-2.2,1.8-3.2c0.6-0.9,1.2-1.7,1.5-2.5c0.1-0.4,0.5-0.6,0.9-0.5c0.4,0.1,0.6,0.5,0.5,0.9
				c-0.3,1-1,2-1.7,2.9c-0.8,1.1-1.6,2.2-1.6,3.2C50.5,96.2,50.3,96.5,50,96.5z"/>
			<path fill="#00C2B4" d="M49.8,97.1L49.8,97.1c-1.6-0.1-4.1-0.2-5.7-1.5c-0.5-0.4-0.6-1.2-0.1-1.7c0.5-0.5,1.2-0.6,1.7-0.1
				c0.7,0.6,2.3,0.8,3.1,0.8c0.4-1.1,1.1-2.1,1.7-3c0.6-0.9,1.2-1.7,1.4-2.4c0.1-0.3,0.3-0.6,0.6-0.7c0.3-0.1,0.6-0.2,0.9-0.1
				c0.6,0.2,1,0.9,0.8,1.5C54,91,53.2,92.1,52.6,93c-0.7,1-1.5,2.1-1.5,3c0,0.5-0.4,0.9-0.9,1.1h0C50,97,49.9,97.1,49.8,97.1
				L49.8,97.1z M44.9,94.4c-0.1,0-0.1,0-0.2,0.1c-0.1,0.1-0.1,0.2,0,0.3c1.2,1.1,3.6,1.2,5,1.2c0,0,0.1,0,0.1,0c0,0,0.1,0,0.2-0.2
				c0.1-1.2,1-2.4,1.7-3.5c0.6-0.9,1.3-1.8,1.6-2.8c0-0.1,0-0.2-0.1-0.3c-0.1,0-0.1,0-0.1,0c-0.1,0-0.1,0.1-0.1,0.1
				c-0.3,0.9-0.9,1.7-1.5,2.7c-0.7,1-1.4,2-1.7,3.1l-0.1,0.4l-0.4,0c-1.3-0.1-3.1-0.3-4.1-1.1C45,94.5,45,94.4,44.9,94.4z"/>
		</g>
	</g>
	<g>
		<path fill="#00C2B4" d="M40.4,90.4c1,1.6,1.2,3.6,1.9,5.3c0.5,1.8,1.4,3.5,1.1,5.7l-0.8-0.7c1.9-0.7,4-1.6,6-2l6.1-1.5l-0.6,1
			c-0.5-2-0.5-3.7-0.8-5.5c-0.3-1.7-0.9-3.5-2-4.2c-0.8-0.4-1.4-0.3-2.4-0.2l-2.7,0.6l-5.4,0.9l5.2-1.7l2.6-0.8c0.8-0.3,2.1-0.4,3,0
			c2.2,1.1,2.6,3.4,3,5.1c0.4,1.8,0.5,3.7,0.9,5.3l0,0c0.1,0.4-0.1,0.8-0.5,0.9l0,0L49,100c-2.1,0.4-3.9,1.2-6,1.7
			c-0.3,0.1-0.7-0.1-0.8-0.4c0-0.1,0-0.2,0-0.3c0.3-1.5-0.3-3.4-0.7-5.2C41.1,94,41.2,92.1,40.4,90.4z"/>
		<path fill="#00C2B4" d="M43.8,102.4l-0.3-0.3c-0.1,0-0.3,0.1-0.4,0.1c-0.3,0.1-0.6,0.1-0.8-0.1c-0.3-0.1-0.5-0.4-0.6-0.7
			c-0.1-0.2-0.1-0.4,0-0.6c0-0.1,0-0.3,0.1-0.4l-0.1-0.1l0.1,0c0-1-0.3-2.3-0.6-3.5c-0.1-0.3-0.2-0.7-0.2-1
			c-0.2-0.7-0.3-1.5-0.4-2.2c-0.1-1.1-0.3-2.2-0.7-3.2l0.9-0.5c0.7,1.1,1,2.3,1.3,3.5c0.2,0.7,0.4,1.3,0.6,1.9
			c0.1,0.4,0.3,0.8,0.4,1.2c0.3,0.9,0.6,1.9,0.8,2.9c1.5-0.6,3.1-1.2,4.7-1.5l4.9-1.2c-0.1-0.7-0.2-1.3-0.3-2
			c-0.1-0.8-0.2-1.5-0.3-2.2c-0.3-2-1-3.4-1.8-3.9c-0.6-0.3-1.1-0.2-2-0.1l-2.7,0.6L41,90.3l-0.2-1l7.9-2.5c1-0.3,2.4-0.4,3.4,0
			c2.2,1.1,2.8,3.2,3.2,4.9l0.1,0.5c0.2,0.8,0.3,1.7,0.4,2.5c0.1,1,0.3,2,0.5,2.9c0.1,0.4,0.1,0.7-0.1,1c-0.2,0.3-0.4,0.5-0.8,0.6
			L54,99.5l0,0l-4.9,1.1c-1.3,0.2-2.5,0.6-3.8,1c-0.5,0.2-1,0.3-1.5,0.5L43.8,102.4z M43.9,100.6c0,0.1,0,0.2,0,0.3
			c0.4-0.1,0.7-0.2,1.1-0.4c1.3-0.4,2.5-0.8,3.9-1.1l4.8-1.1l-0.1-0.2c0-0.1,0-0.2-0.1-0.3l-4.9,1.2C47.1,99.4,45.5,100,43.9,100.6z
			 M42.6,98.3c0.1,0.6,0.2,1.1,0.2,1.7l0.1,0C42.9,99.4,42.7,98.9,42.6,98.3z M55.1,97.5l-0.5,0.8l0.4-0.1c0.1,0,0.2-0.1,0.2-0.1
			c0-0.1,0-0.1,0-0.2C55.2,97.7,55.2,97.6,55.1,97.5z M50.2,87.7c0.5,0,0.9,0.1,1.4,0.3c1.4,0.8,2,2.9,2.3,4.6
			c0.1,0.7,0.2,1.5,0.3,2.3c0.1,0.6,0.1,1.2,0.2,1.9l0.5-0.1c-0.1-0.6-0.2-1.1-0.3-1.7c-0.1-0.8-0.2-1.6-0.4-2.4l-0.1-0.5
			c-0.4-1.6-0.8-3.3-2.6-4.2c-0.7-0.3-1.9-0.2-2.6,0.1l0,0l0,0C49.4,87.7,49.8,87.7,50.2,87.7z"/>
	</g>
	<g>
		<path fill="#00C2B4" d="M61.9,94.6c-0.3,0.1-0.6,0-0.8-0.3c-0.2-0.3-0.1-0.8,0.3-1c0.4-0.2,1.1-0.9,1.7-1.5c1.5-1.4,3-2.9,4.4-2.5
			c0.8,0.2,1.1,1,1.3,1.6c0.9-0.3,1.6-1,2.4-1.8c0.2-0.2,0.5-0.5,0.7-0.7c0.2-0.2,0.6-0.3,0.9-0.1c0.6,0.1,4.7-0.9,7.4-1.6
			c6.2-1.5,7-1.6,7.5-1c0.2,0.2,0.2,0.6,0.1,0.8c-0.1,0.4-0.6,0.5-0.9,0.4c-0.1,0-0.1-0.1-0.2-0.1c-0.9,0-3.9,0.8-6.1,1.3
			c-5,1.2-7,1.6-7.9,1.5c-0.1,0.1-0.3,0.3-0.4,0.4c-1,1-2.1,2-3.8,2.4c-0.2,0-0.4,0-0.5-0.1c-0.2-0.1-0.3-0.3-0.3-0.5
			c-0.1-0.8-0.4-1.2-0.5-1.2c-0.6-0.2-2.1,1.3-3,2.1c-0.7,0.7-1.4,1.4-2,1.7C62,94.5,61.9,94.5,61.9,94.6z"/>
		<path fill="#00C2B4" d="M61.7,95.1c-0.4,0-0.8-0.2-1-0.6c-0.2-0.3-0.2-0.6-0.1-0.9c0.1-0.3,0.3-0.6,0.6-0.7
			c0.3-0.2,0.9-0.7,1.4-1.2l0.2-0.2c1.6-1.6,3.3-3.1,4.9-2.6c0.4,0.1,1,0.5,1.4,1.4c0.6-0.3,1.1-0.9,1.8-1.5
			c0.2-0.2,0.5-0.5,0.7-0.7c0.4-0.4,0.9-0.4,1.4-0.2c0.3,0,1.7-0.2,7.1-1.5c6.4-1.5,7.3-1.7,8-0.8c0.3,0.4,0.4,0.9,0.2,1.4
			c-0.1,0.3-0.3,0.5-0.6,0.6c-0.3,0.1-0.7,0.1-1,0c0,0,0,0-0.1,0c-1.2,0.1-4.7,1-5.9,1.3c-5,1.2-6.8,1.6-7.9,1.5
			c-0.1,0.1-0.2,0.2-0.3,0.3c-1.1,1.1-2.3,2.1-4,2.5c-0.3,0.1-0.7,0-0.9-0.2c-0.3-0.2-0.4-0.5-0.5-0.8c-0.1-0.5-0.2-0.7-0.2-0.8
			c-0.4,0.1-1.8,1.4-2.3,1.8l-0.2,0.2c-0.7,0.7-1.4,1.4-2.1,1.8C62.2,95,62.1,95,62,95l0,0C61.9,95.1,61.8,95.1,61.7,95.1z M67,89.7
			c-1,0-2.3,1.2-3.5,2.4l-0.2,0.2c-0.6,0.6-1.2,1.2-1.7,1.4c-0.1,0-0.1,0.1-0.1,0.1c0,0.1,0,0.1,0,0.2c0,0.1,0.2,0.1,0.2,0.1l0,0
			c0.6-0.3,1.3-1,2-1.6l0.2-0.2c1.7-1.6,2.6-2.3,3.3-2.1c0.4,0.2,0.7,0.7,0.9,1.6c0,0,0,0.1,0.1,0.1c0,0,0.1,0,0.1,0
			c1.5-0.3,2.4-1.2,3.5-2.2c0.1-0.1,0.2-0.2,0.3-0.3l0.3-0.3l0.2,0c0.9,0.1,3.2-0.4,7.8-1.5c2.4-0.6,5.3-1.3,6.2-1.3l0.2,0l0.3,0.2
			c0,0,0.1,0,0.1,0c0,0,0.1,0,0.1-0.1c0-0.1,0-0.3,0-0.4c-0.3-0.3-1.7-0.1-7,1.2c-6.9,1.7-7.4,1.6-7.6,1.6l-0.1,0l-0.1-0.1
			c-0.1-0.1-0.2-0.1-0.3,0c-0.3,0.2-0.5,0.5-0.7,0.7C70.7,90.2,70,91,69,91.3l-0.5,0.2L68.3,91c-0.2-0.7-0.5-1.1-1-1.2
			C67.2,89.7,67.1,89.7,67,89.7z"/>
	</g>
	<g>
		<path fill="#00C2B4" d="M62.2,68.5c-0.3,0.1-0.7,0.1-1.1,0.1c-0.3,0-0.5-0.1-0.7-0.4c-0.4-0.9-0.8-1-0.9-1
			c-0.5-0.1-1.2,0.8-1.8,1.4c-0.3,0.4-0.6,0.7-1,1c-0.3,0.3-0.7,0.3-1,0c-0.3-0.3-0.2-0.7,0-1c0.3-0.3,0.6-0.6,0.9-0.9
			c0.9-1,1.8-2.1,3-1.9c0.7,0.1,1.2,0.5,1.7,1.3c1-0.1,1.6-0.6,2.4-1.2c0.6-0.4,1.2-0.9,2-1.3c1.6-0.7,2.8-0.7,4.2-0.8
			c0.6,0,1.3-0.1,2-0.2c1.4-0.2,3-1,4.5-1.7c2.1-1,4.3-2.1,6.4-1.8c0.4,0.1,0.6,0.4,0.6,0.8c-0.1,0.4-0.4,0.6-0.8,0.6
			c-1.6-0.3-3.5,0.7-5.6,1.6c-1.6,0.8-3.2,1.6-5,1.9c-0.8,0.1-1.5,0.2-2.1,0.2c-1.3,0.1-2.3,0.1-3.7,0.7c-0.7,0.3-1.2,0.7-1.7,1.1
			C64,67.6,63.2,68.2,62.2,68.5z"/>
		<path fill="#00C2B4" d="M56.3,70.3c-0.3,0-0.7-0.1-0.9-0.4c-0.4-0.5-0.4-1.3,0.1-1.7c0.3-0.2,0.5-0.5,0.8-0.8c1-1.1,2-2.3,3.5-2.1
			c0.7,0.1,1.3,0.5,1.9,1.3c0.7-0.2,1.2-0.6,1.9-1c0.6-0.5,1.3-0.9,2.1-1.3c1.7-0.7,3-0.8,4.3-0.8l0.2,0c0.5,0,1.1-0.1,1.8-0.2
			c1.3-0.2,2.7-0.9,4.4-1.7c2.1-1,4.4-2.2,6.7-1.8c0.7,0.1,1.1,0.7,1,1.4c0,0.3-0.2,0.6-0.5,0.8c-0.3,0.2-0.6,0.3-0.9,0.2
			c-1.4-0.2-3.2,0.6-5.1,1.5l-0.2,0.1c-1.7,0.8-3.3,1.6-5.1,1.9c-0.7,0.1-1.4,0.2-2,0.2l-0.2,0c-1.2,0.1-2.3,0.1-3.5,0.7
			c-0.6,0.3-1.1,0.6-1.6,1c-0.8,0.6-1.6,1.2-2.7,1.5c-0.4,0.1-0.8,0.1-1.2,0.2c-0.5,0-0.9-0.2-1.1-0.6c-0.3-0.7-0.5-0.8-0.5-0.8
			c-0.2,0-0.9,0.8-1.2,1.1L58.2,69c-0.4,0.4-0.7,0.8-1,1.1C56.9,70.2,56.6,70.3,56.3,70.3z M59.5,66.3c-0.9,0-1.6,0.8-2.4,1.7
			c-0.3,0.4-0.6,0.7-0.9,1c-0.1,0.1-0.1,0.2,0,0.3c0.1,0.1,0.2,0.1,0.3,0c0.3-0.3,0.6-0.6,0.9-1l0.1-0.1c0.7-0.8,1.4-1.6,2.1-1.5
			c0.4,0,0.8,0.4,1.2,1.3c0,0.1,0.1,0.1,0.2,0.1c0.3,0,0.6-0.1,1-0.1h0c0.9-0.2,1.6-0.7,2.4-1.3c0.5-0.4,1.1-0.8,1.8-1.2
			c1.4-0.6,2.6-0.7,3.9-0.8l0.2,0c0.6,0,1.2-0.1,1.9-0.2c1.6-0.2,3.2-1,4.7-1.8l0.2-0.1c2-1,3.9-1.9,5.7-1.6c0.1,0,0.1,0,0.1,0
			c0,0,0.1-0.1,0.1-0.1c0-0.1-0.1-0.2-0.2-0.3c-1.9-0.3-4,0.7-6.1,1.7c-1.7,0.8-3.2,1.5-4.7,1.8c-0.7,0.1-1.3,0.1-1.9,0.2l-0.2,0
			c-1.3,0.1-2.5,0.1-4,0.8c-0.8,0.3-1.3,0.8-1.9,1.2c-0.7,0.6-1.5,1.1-2.6,1.3l-0.3,0l-0.2-0.3c-0.4-0.7-0.9-1.1-1.4-1.1
			C59.6,66.3,59.6,66.3,59.5,66.3z"/>
	</g>
	<g>
		<path fill="#00C2B4" d="M60.2,74.7c-0.4,0.1-0.7-0.1-0.8-0.5c-0.1-0.4,0.1-0.8,0.4-0.9c6-2.1,11.5-3.6,17.8-5.2l0,0
			c0.4-0.1,0.8,0.1,0.9,0.5c0.1,0.4-0.1,0.8-0.5,0.9C71.7,71.1,66.3,72.6,60.2,74.7C60.3,74.7,60.3,74.7,60.2,74.7z"/>
		<path fill="#00C2B4" d="M60.1,75.2c-0.5,0-1-0.3-1.1-0.8c-0.2-0.6,0.1-1.3,0.7-1.5c6.2-2.2,11.6-3.7,17.9-5.3
			c0.6-0.2,1.3,0.2,1.5,0.9c0.2,0.7-0.2,1.3-0.9,1.5c-6.2,1.6-11.6,3.1-17.6,5.2l-0.1,0C60.3,75.2,60.2,75.2,60.1,75.2z M60.1,74.2
			l0.1,0.5L60.1,74.2c6.1-2.1,11.5-3.6,17.7-5.2c0.1,0,0.2-0.1,0.1-0.3c0-0.1-0.1-0.2-0.2-0.1c-6.2,1.6-11.6,3.1-17.8,5.2
			c-0.1,0-0.2,0.2-0.1,0.3C59.9,74.2,60,74.2,60.1,74.2L60.1,74.2z"/>
	</g>
	<g>
		<path fill="#00C2B4" d="M66.3,49.9c-1.3,0.3-2.4,0.1-3.4,0c-0.8-0.1-1.5-0.2-2.3-0.1c-1.2,0.1-2.4,0.7-3.6,1.3
			c-0.9,0.4-1.8,0.9-2.7,1.1l0,0c-0.4,0.1-0.8-0.1-0.9-0.5c-0.1-0.4,0.1-0.8,0.5-0.9c0.8-0.2,1.6-0.6,2.5-1.1c1.3-0.6,2.6-1.3,4-1.4
			c1-0.1,1.8,0,2.7,0.2c1,0.2,1.9,0.3,3,0c0.8-0.2,1.5-0.7,2.4-1.1c0.8-0.5,1.6-0.9,2.4-1.2c0.1,0,2.5-0.8,4-1l0,0l0.2,0l0,0
			c0.3,0,0.6,0,0.7,0.1c0.2,0.2,0.3,0.4,0.2,0.7c-0.1,0.5-0.5,0.6-0.9,0.6c-0.9,0.2-3.1,0.7-3.7,0.9c-0.7,0.2-1.4,0.7-2.2,1.1
			c-0.9,0.5-1.7,1-2.7,1.3C66.4,49.9,66.4,49.9,66.3,49.9z"/>
		<path fill="#00C2B4" d="M54.1,52.7c-0.5,0-1-0.3-1.2-0.9c-0.2-0.6,0.2-1.3,0.8-1.5c0.8-0.2,1.6-0.6,2.4-1l0.1-0.1
			c1.3-0.6,2.6-1.3,4.1-1.4c1.1-0.1,2,0,2.8,0.2c0.9,0.1,1.8,0.3,2.8,0c0.7-0.2,1.4-0.6,2.1-1l0.1-0.1c0.8-0.5,1.6-0.9,2.5-1.2
			c1.8-0.6,3.2-0.9,4.1-1l0.5-0.1l0.1,0.1c0.3,0,0.5,0.1,0.7,0.2c0.3,0.3,0.5,0.8,0.4,1.2c-0.2,0.6-0.6,0.9-1.3,1l-0.1,0
			c-0.9,0.2-3,0.7-3.5,0.9c-0.7,0.2-1.3,0.6-2.1,1c-0.9,0.5-1.8,1-2.8,1.3c0,0-0.1,0-0.2,0.1l0,0c-1.4,0.3-2.6,0.2-3.6,0l-0.1,0
			c-0.7-0.1-1.3-0.2-2.1-0.1c-1.1,0.1-2.2,0.6-3.4,1.2c-0.9,0.4-1.8,0.9-2.8,1.2C54.3,52.7,54.2,52.7,54.1,52.7z M61.1,48.8
			c-0.2,0-0.4,0-0.7,0c-1.3,0.1-2.6,0.7-3.8,1.3l-0.1,0.1c-0.9,0.4-1.7,0.8-2.6,1.1c-0.1,0-0.2,0.1-0.1,0.3c0,0.1,0.1,0.2,0.3,0.1
			c0.9-0.3,1.8-0.7,2.6-1.1c1.3-0.6,2.5-1.2,3.7-1.3c0.8-0.1,1.6,0,2.3,0.1l0.1,0c1,0.2,2,0.3,3.2,0l0,0c0,0,0.1,0,0.1,0
			c0.9-0.3,1.8-0.8,2.6-1.2c0.8-0.5,1.5-0.9,2.3-1.1c0.5-0.2,2-0.5,3.6-0.9l0.3-0.1c0.4,0,0.4-0.1,0.4-0.2c0-0.1,0-0.1-0.1-0.2
			c0,0-0.1,0-0.4,0l-0.1,0c-0.9,0.1-2.2,0.4-3.9,1l-0.1,0c-0.7,0.2-1.5,0.7-2.3,1.1l-0.1,0.1c-0.8,0.5-1.6,0.9-2.4,1.1
			C65,49.3,64,49.1,63,49C62.4,48.9,61.8,48.8,61.1,48.8z"/>
	</g>
	<g>
		<path fill="#00C2B4" d="M65.8,55.2c-0.7,0.2-1.5,0.3-2.4,0.4c-1.6,0.2-3.5,0.5-4.5,1.2c-0.3,0.2-0.8,0.1-1-0.2
			c-0.2-0.3-0.1-0.8,0.2-1c1.3-0.8,3.2-1.1,5-1.4c1.5-0.2,3.3-0.5,3.6-1c0.2-0.4,0.6-0.4,1-0.2c0.3,0.2,0.4,0.6,0.2,1
			C67.6,54.6,66.8,54.9,65.8,55.2z"/>
		<path fill="#00C2B4" d="M58.5,57.4c-0.4,0-0.8-0.2-1-0.5c-0.4-0.6-0.2-1.3,0.4-1.7c1.3-0.8,3.3-1.1,5.1-1.4
			c0.9-0.1,3.1-0.5,3.4-0.8c0.1-0.2,0.4-0.4,0.7-0.5c0.3-0.1,0.7,0,0.9,0.2c0.2,0.2,0.4,0.4,0.5,0.7c0.1,0.3,0,0.7-0.2,0.9
			c-0.4,0.7-1.2,1.1-2.5,1.4h0c-0.6,0.1-1.2,0.3-1.9,0.4l-0.7,0.1c-1.5,0.2-3.3,0.5-4.2,1.1C59,57.3,58.8,57.4,58.5,57.4z
			 M67.4,53.3C67.4,53.3,67.4,53.3,67.4,53.3c-0.1,0-0.1,0-0.1,0.1c-0.4,0.6-1.6,0.9-4,1.3c-1.8,0.3-3.7,0.6-4.8,1.3
			c-0.1,0.1-0.1,0.2-0.1,0.3c0.1,0.1,0.2,0.1,0.3,0c1.1-0.7,2.9-1,4.5-1.2l0.6-0.1c0.7-0.1,1.3-0.2,1.9-0.4c1-0.2,1.6-0.6,1.9-1
			c0,0,0-0.1,0-0.2c0,0,0-0.1-0.1-0.1C67.5,53.4,67.4,53.3,67.4,53.3z"/>
	</g>
	<g>
		<path fill="#00C2B4" d="M86.2,14.4c0,0,0.4-0.1,1.1-0.1c0.5-0.1,2,0.4,2.8,1.4c1.9,1.9,2.4,5.3,3.1,7.9c0.7,2.9,1.4,5.8,1.6,8
			c0.3,2.2,0.2,3.8,0.2,3.8s-0.9-1.3-1.9-3.3c-1.1-2-2.1-4.8-3-7.7c-0.2-1.5-0.5-2.9-0.7-4.3c-0.3-1.3-0.4-2.5-0.8-3.3
			c-0.4-0.9-0.7-1.5-1.4-1.8C86.6,14.6,86.2,14.4,86.2,14.4z"/>
		<path fill="#00C2B4" d="M95.4,36.8l-0.8-1.2c0-0.1-1-1.4-2-3.4c-1.1-2.2-2.2-5.3-3-7.8c-0.3-1.5-0.5-3-0.7-4.4
			c-0.1-0.3-0.1-0.7-0.2-1.1c-0.1-0.8-0.3-1.6-0.6-2.1l-0.1-0.1c-0.4-0.8-0.6-1.2-1.1-1.5c-0.7-0.3-1-0.5-1-0.5l-1.1-0.7l1.3-0.2
			c0,0,0.4-0.1,1.1-0.1c0.6-0.1,2.3,0.4,3.2,1.5c1.7,1.7,2.3,4.4,2.9,6.7c0.1,0.5,0.2,0.9,0.3,1.4c0.7,2.7,1.4,5.8,1.7,8.1
			c0.3,2.2,0.2,3.8,0.2,3.9L95.4,36.8z M88,14.9c0.4,0.4,0.6,0.9,0.9,1.5c0.4,0.7,0.5,1.6,0.7,2.4c0.1,0.4,0.1,0.7,0.2,1.1
			c0.2,1.4,0.4,2.9,0.7,4.4c0.8,2.3,1.8,5.4,3,7.5c0.3,0.7,0.7,1.3,1,1.8c0-0.6-0.1-1.2-0.2-2c-0.2-2.3-1-5.3-1.6-8
			c-0.1-0.4-0.2-0.9-0.3-1.4c-0.5-2.3-1.2-4.8-2.7-6.3C89.3,15.4,88.6,15.1,88,14.9z"/>
	</g>
	<g>
		<path fill="#00C2B4" d="M102.2,62c0,0,1.2,2.7,2.7,6.8c0.7,2.1,1.6,4.5,2.4,7.1c0.8,2.6,1.6,5.4,2.4,8.2c0.6,2.8,1.1,5.7,1.7,8.4
			c0.5,2.8,0.9,5,1.6,7.2c0.6,2.1,0.8,4.1,0.7,5.4c0,1.3-0.5,2-0.5,2c-0.1,0,0.1-0.8-0.2-2c-0.2-1.2-0.9-2.8-1.8-4.8
			c-0.9-1.9-2-4.5-2.6-7.1c-0.7-2.6-1.4-5.5-2.1-8.3c-0.7-2.8-1.3-5.7-2-8.3c-0.6-2.7-1-5.2-1.4-7.3C102.4,65,102.2,62,102.2,62z"/>
		<path fill="#00C2B4" d="M113.1,107.5l-0.3,0l-0.1-0.2c-0.1-0.1-0.1-0.2-0.1-0.3c0-0.1,0-0.1,0-0.2c0-0.3,0-0.8-0.1-1.6
			c-0.2-1.1-0.8-2.5-1.6-4.2l-0.2-0.5c-1-2.1-2.1-4.6-2.6-7.2c-0.7-2.6-1.4-5.4-2.1-8.3l-0.5-2.1c-0.5-2.1-1-4.2-1.5-6.2
			c-0.4-1.7-0.7-3.3-0.9-4.8c-0.2-0.9-0.3-1.7-0.5-2.5c-0.7-4.3-1-7.3-1-7.3l-0.2-2.8l1.2,2.6c0,0,1.3,2.7,2.7,6.8
			c0.2,0.7,0.5,1.4,0.8,2.2c0.5,1.5,1.1,3.2,1.6,4.9c0.5,1.7,1,3.5,1.5,5.3l0.8,2.9l0.7,3.5c0.3,1.7,0.7,3.3,1,4.9l0,0.2
			c0.5,2.7,0.8,4.8,1.5,6.9c0.6,2,0.8,4,0.7,5.6c0,1-0.3,1.7-0.5,2l-0.5-0.1l0,0L113.1,107.5z M103.1,65.4c0.1,1.1,0.3,2.3,0.6,3.8
			c0.2,0.8,0.3,1.6,0.5,2.5c0.3,1.5,0.5,3.1,0.9,4.7c0.5,2,1,4.1,1.5,6.2l0.5,2.1c0.7,2.8,1.4,5.6,2.1,8.3c0.5,2.5,1.6,5,2.5,7
			l0.2,0.5c0.5,1.1,0.9,2.1,1.2,3c-0.1-1.2-0.3-2.5-0.7-3.7c-0.7-2.1-1.1-4.4-1.5-7l0-0.2c-0.3-1.6-0.6-3.2-1-4.9l-0.7-3.4l-0.8-2.9
			c-0.5-1.8-1-3.6-1.5-5.3c-0.5-1.7-1.1-3.3-1.6-4.9c-0.3-0.8-0.5-1.5-0.8-2.2C103.9,67.6,103.5,66.4,103.1,65.4z"/>
	</g>
	<g>
		<g>
			<g>
				<path fill="#FBC36C" d="M103.4,17.1L92.4,50.8c-0.9,2.8-1.6,5.7-2.5,8.5c-0.8,2.8-1.8,5.7-2.2,8.5c-0.6,2.9-0.9,5.8-1.1,8.7
					c-0.1,1.4-0.1,2.9-0.1,4.3c0.1,1.4,0.2,2.9,0.7,3.8l-1.7-0.5c5.7-3.4,9.3-10,12-16.2l7.6-20l7.9-19.9c0.6-1.6,1.1-3.3,1.4-5
					c0.2-1.7,0.1-3.5-1.3-4.5c-1.3-1-3-1.8-4.7-2.2c-1.5-0.4-3.9-0.7-4.6,1.2c0.5-2,3.1-1.9,4.7-1.6c1.8,0.3,3.5,1,5.1,2
					c1.7,1.1,2.1,3.4,1.9,5.2c-0.1,1.9-0.6,3.6-1.2,5.4l-7.2,20.2l-7.4,20.1c-2.8,6.7-6.4,13.5-13.2,17.5l0,0
					c-0.6,0.3-1.3,0.2-1.6-0.4l-0.1-0.1c-0.8-1.8-0.8-3.3-0.9-4.9c0-1.5,0-3.1,0.1-4.6c0.2-3,0.6-6,1.3-8.9c0.6-3,1.5-5.8,2.4-8.6
					c0.9-2.8,1.8-5.7,2.8-8.5C94.5,39.1,99.1,28.1,103.4,17.1z"/>
				<path fill="#FBC36C" d="M86,87c-0.1,0-0.3,0-0.4-0.1c-0.4-0.1-0.8-0.4-1-0.8L84.5,86c-0.8-1.8-0.8-3.2-0.9-4.6l0-0.5
					c0-1.4,0-2.9,0.1-4.6c0.2-3.1,0.7-6.2,1.3-9c0.5-2.6,1.3-5.1,2.1-7.5l0.4-1.2c0.3-1,0.7-2,1-3.1c0.6-1.8,1.2-3.6,1.8-5.4
					c3-8.7,6.5-17.4,9.9-25.8c1-2.5,2-5,3-7.4l0.5,0.2c0.6-1.6,2.4-2.2,5.2-1.7c2,0.4,3.7,1.1,5.3,2.1c2.3,1.5,2.3,4.5,2.2,5.7
					c-0.1,2-0.6,3.8-1.2,5.5l-7.2,20.2l-7.4,20.1c-2.7,6.5-6.3,13.6-13.4,17.8C86.6,86.9,86.3,87,86,87z M85,84.5
					c0.1,0.4,0.2,0.7,0.4,1.1l0.1,0.1c0.1,0.1,0.2,0.2,0.4,0.3c0.2,0,0.4,0,0.5-0.1c0.4-0.2,0.7-0.4,1.1-0.7L85,84.5z M87.3,83.5
					c0.1,0.4,0.2,0.7,0.3,1l0.2,0.5c5.9-4.1,9.1-10.5,11.5-16.4l7.4-20.1l7.2-20.2c0.5-1.6,1-3.4,1.1-5.2c0-0.5,0.1-1.3-0.1-2.2
					c0.1,0.6,0.1,1.4,0,2.1c-0.3,1.9-0.9,3.7-1.4,5.1l-8,19.9l-7.6,20C95.6,73.3,92.4,79.6,87.3,83.5z M97.9,32.2
					c-2.4,6-4.7,12.1-6.8,18.2c-0.7,1.8-1.3,3.6-1.8,5.4c-0.3,1-0.6,2-1,3.1l-0.4,1.2c-0.8,2.5-1.5,4.8-2,7.4
					c-0.6,2.8-1,5.8-1.3,8.9c-0.1,1.7-0.1,3.1-0.1,4.5l0,0.5c0,0.9,0.1,1.7,0.3,2.5l0.3-0.2c0.3-0.2,0.7-0.4,1-0.7
					c-0.1-0.7-0.2-1.5-0.2-2.2c-0.1-1.3,0-2.7,0.1-4.4c0.2-3,0.6-5.9,1.1-8.7c0.3-2,1-4,1.5-6c0.2-0.8,0.5-1.7,0.7-2.5
					c0.3-1,0.6-2,0.8-2.9c0.5-1.8,1-3.7,1.7-5.6L97.9,32.2z M103.9,17.4L92.8,51c-0.6,1.8-1.1,3.7-1.6,5.5c-0.3,1-0.5,2-0.8,3
					c-0.2,0.8-0.5,1.7-0.7,2.5c-0.6,2-1.2,4-1.5,5.9c-0.6,2.8-0.9,5.7-1.1,8.6c-0.1,1.7-0.1,3-0.1,4.3c0,0.6,0.1,1.1,0.1,1.6
					c4.7-3.7,7.7-9.7,9.9-14.6l7.6-20l8-19.9c0.5-1.3,1.1-3.1,1.4-4.9c0.2-1.3,0.2-3.1-1.1-4c-1.2-1-2.8-1.7-4.5-2.1
					c-1.5-0.4-3.5-0.6-4,0.9L103.9,17.4z"/>
			</g>
			<g>
				<path fill="#FBC36C" d="M102.1,21.8c0,0,0.8-0.2,2-0.3c0.6-0.1,1.3,0,2.1,0.1c0.7,0.2,1.6,0.2,2.3,0.6c1.4,0.7,2.8,1.4,3.9,2
					c1,0.7,1.6,1.2,1.6,1.2s-0.8-0.2-1.9-0.5c-1.1-0.5-2.6-1-4.1-1.5c-1.4-0.5-2.8-1.1-4-1.1C102.8,22,102.1,21.8,102.1,21.8z"/>
				<path fill="#FBC36C" d="M115.9,26.3l-2-0.4c0,0-0.8-0.2-2-0.5c-0.8-0.3-1.8-0.7-2.9-1.1l-1.2-0.4c-1.3-0.5-2.8-1.1-3.8-1.1
					c-1.2-0.2-2-0.4-2.1-0.4l-1.6-0.5l1.6-0.5c0,0,0.9-0.3,2.1-0.3c0.6-0.1,1.2,0,1.9,0.1l0.3,0c0.3,0.1,0.6,0.1,0.8,0.2
					c0.5,0.1,1.1,0.2,1.7,0.5l1,0.5c1.1,0.5,2.1,1.1,2.9,1.5c1,0.7,1.7,1.2,1.7,1.2L115.9,26.3z M105.9,22c0.8,0.2,1.6,0.5,2.3,0.8
					l1.2,0.4c0.3,0.1,0.5,0.2,0.8,0.3c-0.3-0.1-0.6-0.3-0.9-0.4l-1-0.5c-0.4-0.2-0.9-0.3-1.4-0.4c-0.3,0-0.6-0.1-0.8-0.2L105.9,22z"
					/>
			</g>
			<g>
				<path fill="#FBC36C" d="M100.4,25.2c0,0,0.2-0.1,0.6-0.2c0.4-0.1,0.9-0.4,1.6-0.4c1.4-0.1,3.2,0.3,4.9,0.9
					c1.6,0.8,3.1,1.8,4.2,2.4c1.1,0.7,1.9,1.2,1.9,1.2s-0.9-0.1-2.2-0.6c-1.2-0.5-2.8-1.2-4.5-1.9c-1.5-0.8-3.1-1.3-4.4-1.4
					C101.3,25.2,100.4,25.2,100.4,25.2z"/>
				<path fill="#FBC36C" d="M115.5,30l-2-0.3c0,0-1-0.1-2.3-0.6c-0.7-0.3-1.6-0.7-2.5-1l-2-0.9c-1.5-0.8-3.1-1.3-4.2-1.4
					c-1.3-0.1-2.2-0.2-2.2-0.2l-3-0.1l3.5-1c0.2,0,0.3-0.1,0.4-0.1c0.3-0.1,0.8-0.3,1.3-0.3c1.4-0.1,3.2,0.3,5.1,1
					c1.1,0.6,2.1,1.2,3,1.7c0.5,0.3,0.9,0.5,1.3,0.8c1.1,0.7,1.9,1.2,1.9,1.2L115.5,30z M104.8,25.4c0.8,0.2,1.6,0.6,2.4,1l2,0.8
					c0.1,0.1,0.3,0.1,0.4,0.2c-0.7-0.4-1.5-0.9-2.4-1.3C106.4,25.7,105.6,25.5,104.8,25.4z"/>
			</g>
			<g>
				<path fill="#FBC36C" d="M84.8,69.2c1.3-0.5,2.4-1.2,3.2-2.1c0.1-0.1,0.3-0.1,0.4-0.1c1.8,1,1.7,3.4,1,4.9l-0.9-0.5
					c0.4-0.7,0.7-1.4,1.2-2c0.2-0.3,0.5-0.7,0.8-1c0.1-0.2,0.4-0.3,0.7-0.4c0.3-0.1,0.8-0.1,1.2,0.1c0.6,0.6,0.6,1,0.7,1.5
					c0.1,0.4,0.1,0.8,0,1.2c0,0.8-0.2,1.6-0.3,2.3l-0.1,0.2c-0.1,0.3-0.8,0.4-0.8,0.2c-0.2-0.2-0.1-0.7,0-0.8l0.2-0.4
					c0.2-0.2,0.4-0.5,0.6-0.7c0.4-0.5,0.9-0.9,1.6-1c0.7-0.3,1.6,0.2,1.7,0.9c0.2,0.6,0,1.2-0.1,1.8c0.1-0.6,0-1.2-0.2-1.7
					c-0.3-0.5-0.7-0.5-1.2-0.3c-0.5,0.2-0.9,0.5-1.2,0.9c-0.2,0.2-0.3,0.4-0.5,0.6l-0.2,0.4c0.2,0-0.5-0.9-0.8-0.4l-0.1,0.2
					c0.1-0.7,0.1-1.5,0.1-2.2c0-0.6-0.2-1.6-0.3-1.6c0.2,0,0,0-0.2,0.2c-0.2,0.2-0.5,0.4-0.7,0.7c-0.5,0.5-0.9,1.2-1.3,1.8l0,0
					c-0.1,0.2-0.5,0.3-0.7,0.2c-0.2-0.1-0.3-0.4-0.2-0.7c0.7-1.3,0.9-3.1-0.4-3.8l0.4-0.1C87.4,68.5,86.1,68.9,84.8,69.2z"/>
				<path fill="#FBC36C" d="M91.1,76.7l0.2-3.1c0-0.2,0-0.4,0-0.5c0-0.1,0-0.1,0-0.2l0-0.1c0-0.6,0.1-1.3,0.1-1.9
					c0-0.2,0-0.5-0.1-0.8c-0.1,0.1-0.2,0.2-0.3,0.4c-0.4,0.5-0.8,1.1-1.2,1.7l0,0l-0.2,0.4l-0.1-0.1c-0.1,0.1-0.2,0.1-0.3,0.2
					c-0.3,0.1-0.6,0-0.8-0.1c-0.3-0.2-0.5-0.5-0.5-0.9l-0.1-0.1l0.2-0.4c0,0,0,0,0,0c0.3-0.6,0.6-1.5,0.4-2.3l-0.8-0.2
					c-0.8,0.4-1.7,0.7-2.8,0.9l-0.3-1c0.8-0.3,1.6-0.7,2.2-1.2l-0.2-0.1l0.5-0.1c0.2-0.2,0.4-0.3,0.5-0.5c0.2-0.3,0.6-0.3,1-0.2
					c0.2,0.1,0.4,0.3,0.6,0.4l0.8-0.1l-0.5,0.4c0.2,0.3,0.4,0.6,0.5,0.9c0,0,0.1-0.1,0.1-0.1c0.2-0.2,0.5-0.4,0.8-0.5
					c0.5-0.2,1.2-0.2,1.7,0.2c0.7,0.6,0.7,1.2,0.8,1.6l0,0.2c0,0.3,0.1,0.7,0.1,1c0.2-0.1,0.4-0.2,0.7-0.3c0.4-0.2,1-0.1,1.5,0.1
					c0.5,0.3,0.8,0.7,0.9,1.1c0.2,0.7,0,1.4-0.2,2l-1-0.2c0.1-0.6,0-1.1-0.1-1.4c-0.1-0.1-0.1-0.2-0.6-0.1c-0.3,0.1-0.6,0.4-1,0.8
					c-0.2,0.2-0.3,0.3-0.4,0.6l-0.1,0.2l0,0.3l-0.1,0c-0.2,0.3-0.7,0.5-1,0.5c-0.1,0-0.1,0-0.1,0L91.1,76.7z M92.2,69.3
					c0.2,0.6,0.2,1.5,0.2,1.6c0,0.2,0,0.3,0,0.5c0,0,0.1-0.1,0.1-0.1c0-0.1,0-0.3,0-0.4c0-0.4,0-0.8,0-1.2c0,0,0-0.1,0-0.2
					c0-0.3-0.1-0.6-0.5-1c-0.2-0.1-0.5-0.1-0.6-0.1c0,0-0.2,0.1-0.4,0.2l0.6,0c0,0,0.1,0,0.1,0v0l0.4,0.1L92.2,69.3z"/>
			</g>
			<g>
				<path fill="#FBC36C" d="M86.1,78.1c0,0,0.2-0.4,0.7-0.8c0.5-0.3,1.5-0.6,2.4-0.3c1.6,1,2,2.6,2,2.6c0,0-0.4-0.1-0.9-0.4
					c-0.4-0.3-1-0.8-1.6-0.9c-0.5-0.3-1-0.4-1.6-0.3C86.5,78.1,86.1,78,86.1,78.1z"/>
				<path fill="#FBC36C" d="M90.8,80.2l0-0.2c-0.2-0.1-0.5-0.2-0.8-0.4l-0.1-0.1c-0.4-0.3-0.9-0.7-1.3-0.8l-0.2-0.1
					c-0.4-0.2-0.8-0.3-1.2-0.2c-0.4,0.1-0.8,0.1-1,0.1c0,0,0.1,0,0.1-0.1l-0.2,0.1l-0.9,0.1l0.5-0.8c0,0,0.1-0.1,0.1-0.1
					c0.1-0.2,0.4-0.5,0.7-0.8c0.7-0.5,1.9-0.7,2.9-0.4l0.1,0.1c1.4,0.9,1.9,2.1,2.1,2.6l0.1,0l0,0.3c0,0,0,0,0,0l0,0.1l0,0.4
					L90.8,80.2z M88.8,77.8c0.4,0.1,0.7,0.3,1,0.5c-0.2-0.3-0.5-0.5-0.9-0.8c-0.3-0.1-0.7-0.1-1-0.1C88.2,77.5,88.5,77.6,88.8,77.8z
					"/>
			</g>
			<g>
				<path fill="#FBC36C" d="M89.3,69.6c0,0,0.8-2.8,2.1-7c0.6-2.1,1.4-4.5,2.2-7.1c0.9-2.6,1.6-5.4,2.8-8.1
					c2.5-5.3,4.1-10.8,5.6-14.9c0.7-2.1,1.5-3.7,2-4.9c0.5-1.2,1.1-1.7,1.1-1.7s-0.5,0.5-0.9,1.7c-0.5,1.2-0.9,2.9-1.6,5
					c-1.3,4.1-2.8,9.9-5,15.2c-2.2,5.3-4,10.9-5.5,15C90.5,67,89.3,69.6,89.3,69.6z"/>
				<path fill="#FBC36C" d="M89.7,69.8l-0.9-0.4l2.1-7c0.6-2.1,1.4-4.5,2.2-7.1c0.3-0.9,0.6-1.8,0.8-2.6c0.6-1.8,1.1-3.7,2-5.5
					c1.9-4,3.2-8,4.4-11.6c0.4-1.2,0.8-2.3,1.1-3.3c0.6-1.7,1.3-3.4,2.1-4.9c0.6-1.2,1.2-1.8,1.3-1.8l0.7,0.7c0,0-0.5,0.5-0.8,1.5
					c-0.4,0.9-0.7,2.2-1.2,3.7l-0.4,1.3c-0.3,1-0.6,2.1-1,3.2c-1.1,3.6-2.4,8-4.1,12.1c-1.7,4.2-3.2,8.5-4.5,12.3
					c-0.3,0.9-0.6,1.8-0.9,2.7C91,67.1,89.8,69.8,89.7,69.8z M99.5,40.9c-0.8,2.2-1.7,4.5-2.7,6.7c-0.8,1.8-1.4,3.6-1.9,5.4
					c-0.3,0.9-0.6,1.8-0.9,2.7c-0.1,0.2-0.1,0.4-0.2,0.6c1-2.7,2.1-5.7,3.2-8.6C98,45.5,98.8,43.1,99.5,40.9z"/>
			</g>
			<g>
				<path fill="#FBC36C" d="M92.5,72.8c0,0,0.7-2.9,1.9-7.3c1.3-4.3,3.2-10.1,5.2-15.8c2.4-5.6,4.8-11.1,6.2-15.4c1.5-4.3,3-7,3-7
					s-1.1,2.8-2.3,7.2c-1.2,4.4-3.4,10.1-5.6,15.7c-2.2,5.6-4.2,11.3-5.7,15.6C93.6,70,92.5,72.8,92.5,72.8z"/>
				<path fill="#FBC36C" d="M93,73l-1-0.3c0,0,0.7-3,1.9-7.3c1.3-4.4,3.2-10.1,5.2-15.9c2.5-5.7,4.8-11.2,6.2-15.4
					c1.5-4.3,2.9-6.9,3-7l0.9,0.4c0,0-1.1,2.8-2.3,7.1c-1.3,4.4-3.5,10.1-5.6,15.6C99.1,56,97,61.7,95.5,65.9C94.1,70.2,93,73,93,73
					z M103.2,42.4c-1,2.4-2.1,4.9-3.2,7.5c-1,2.9-2,5.9-2.9,8.6c1-2.7,2.1-5.6,3.2-8.5C101.3,47.5,102.3,44.9,103.2,42.4z"/>
			</g>
		</g>
	</g>
</g>
</svg>
