<?xml version="1.0" encoding="utf-8"?>
<!-- Generator: Adobe Illustrator 19.1.0, SVG Export Plug-In . SVG Version: 6.00 Build 0)  -->
<svg version="1.1" id="Layer_1" xmlns="http://www.w3.org/2000/svg" xmlns:xlink="http://www.w3.org/1999/xlink" x="0px" y="0px"
	 viewBox="0 0 221.7 105.8" enable-background="new 0 0 221.7 105.8" xml:space="preserve">
<g>
	<g>
		<g>
			<linearGradient id="SVGID_1_" gradientUnits="userSpaceOnUse" x1="46.8909" y1="107.92" x2="178.441" y2="-23.6301">
				<stop  offset="0" style="stop-color:#D9D9D9"/>
				<stop  offset="0.1786" style="stop-color:#FFFFFF"/>
			</linearGradient>
			<path fill="url(#SVGID_1_)" d="M214.9,55.9c0,7.7-0.5,15.2-1.2,16.6s-10.3,2.6-18,2.6H29.6c-7.7,0-15.2-0.5-16.6-1.2
				c-1.4-0.6-2.6-10.3-2.6-18V28.4c0-7.7,0.5-15.2,1.2-16.6c0.6-1.4,10.3-2.6,18-2.6h166.2c7.7,0,15.2,0.5,16.6,1.2
				c1.4,0.6,2.6,10.3,2.6,18V55.9z"/>
		</g>
		<g>
			<path fill="#2E8045" d="M66.7,12.5c0-1.6,1.3-2.9,2.9-2.9h142.3c1.6,0,2.9,1.3,2.9,2.9v59.4c0,1.6-1.3,2.9-2.9,2.9H69.5
				c-1.6,0-2.9-1.3-2.9-2.9V12.5L66.7,12.5z"/>
			<path fill="#2E8045" d="M140.7,42.2"/>
		</g>
		<g>
			<path fill="none" stroke="#FFFFFF" stroke-width="4" stroke-miterlimit="3.8637" d="M11.5,13.9c0-1.7,1.3-3,3-3h196.4
				c1.7,0,3,1.3,3,3v56.5c0,1.7-1.3,3-3,3H14.5c-1.7,0-3-1.3-3-3V13.9L11.5,13.9z"/>
			<path fill="none" stroke="#FFFFFF" stroke-width="4" stroke-miterlimit="3.8637" d="M112.7,42.2"/>
		</g>
		<path fill-rule="evenodd" clip-rule="evenodd" fill="none" stroke="#2E8045" stroke-width="6" stroke-miterlimit="3.8637" d="
			M10.2,14c0-2.4,2-4.4,4.4-4.4h196c2.4,0,4.4,2,4.4,4.4v56.4c0,2.4-2,4.4-4.4,4.4h-196c-2.4,0-4.4-2-4.4-4.4V14z"/>
		<g>
			<path fill-rule="evenodd" clip-rule="evenodd" fill="#D1D627" d="M94,50.4h2.5l3.7,10.8l3.6-10.8h2.4v12.8h-1.6v-7.5
				c0-0.3,0-0.7,0-1.3c0-0.6,0-1.2,0-1.9L101,63.1h-1.7l-3.7-10.8v0.4c0,0.3,0,0.8,0,1.4c0,0.6,0,1.1,0,1.4v7.5H94V50.4z"/>
			<rect x="108.1" y="50.4" fill-rule="evenodd" clip-rule="evenodd" fill="#D1D627" width="1.7" height="12.8"/>
			<path fill-rule="evenodd" clip-rule="evenodd" fill="#D1D627" d="M120.1,50.7c1.3,0.7,2,1.8,2.3,3.5h-1.7c-0.2-0.9-0.6-1.6-1.3-2
				c-0.7-0.4-1.5-0.6-2.5-0.6c-1.2,0-2.2,0.4-3,1.3c-0.8,0.9-1.2,2.2-1.2,4c0,1.5,0.3,2.8,1,3.7c0.7,0.9,1.8,1.4,3.3,1.4
				c1.2,0,2.1-0.3,2.9-1c0.8-0.7,1.1-1.8,1.2-3.2h-4v-1.4h5.6v6.8h-1.1l-0.4-1.6c-0.6,0.6-1.1,1.1-1.6,1.3c-0.8,0.4-1.7,0.6-2.9,0.6
				c-1.5,0-2.8-0.5-3.9-1.5c-1.2-1.2-1.8-2.9-1.8-5.1c0-2.1,0.6-3.8,1.7-5.1c1.1-1.2,2.5-1.8,4.3-1.8
				C118.2,50,119.2,50.3,120.1,50.7z"/>
			<path fill-rule="evenodd" clip-rule="evenodd" fill="#D1D627" d="M130,56.2c0.8,0,1.4-0.2,1.9-0.5c0.5-0.3,0.7-0.9,0.7-1.8
				c0-0.9-0.3-1.5-1-1.9c-0.4-0.2-0.8-0.3-1.4-0.3H126v4.4H130z M124.3,50.4h5.9c1,0,1.8,0.1,2.4,0.4c1.2,0.5,1.8,1.5,1.8,3
				c0,0.8-0.2,1.4-0.5,1.9c-0.3,0.5-0.8,0.9-1.3,1.2c0.5,0.2,0.9,0.5,1.1,0.8c0.3,0.3,0.4,0.9,0.4,1.6l0.1,1.7
				c0,0.5,0.1,0.8,0.1,1.1c0.1,0.4,0.3,0.7,0.6,0.8v0.3h-2.1c-0.1-0.1-0.1-0.3-0.1-0.4c0-0.2-0.1-0.5-0.1-1l-0.1-2.1
				c0-0.8-0.4-1.4-0.9-1.7c-0.3-0.2-0.8-0.2-1.6-0.2H126v5.5h-1.7V50.4z"/>
			<path fill-rule="evenodd" clip-rule="evenodd" fill="#D1D627" d="M142.3,57.9l-1.9-5.6l-2.1,5.6H142.3z M139.4,50.4h2l4.6,12.8
				h-1.9l-1.3-3.8h-5l-1.4,3.8h-1.8L139.4,50.4z"/>
			<polygon fill-rule="evenodd" clip-rule="evenodd" fill="#D1D627" points="146.4,50.4 148.5,50.4 154.9,60.7 154.9,50.4 
				156.5,50.4 156.5,63.1 154.6,63.1 148.1,52.8 148.1,63.1 146.4,63.1 			"/>
			<polygon fill-rule="evenodd" clip-rule="evenodd" fill="#D1D627" points="167.3,50.4 167.3,51.9 163,51.9 163,63.1 161.3,63.1 
				161.3,51.9 157,51.9 157,50.4 			"/>
			<polygon fill-rule="evenodd" clip-rule="evenodd" fill="#D1D627" points="167.9,50.4 177.2,50.4 177.2,51.9 169.6,51.9 
				169.6,55.8 176.6,55.8 176.6,57.3 169.6,57.3 169.6,61.6 177.3,61.6 177.3,63.1 167.9,63.1 			"/>
			<rect x="178.6" y="61.2" fill-rule="evenodd" clip-rule="evenodd" fill="#D1D627" width="1.8" height="1.9"/>
			<path fill-rule="evenodd" clip-rule="evenodd" fill="#D1D627" d="M182.6,50.4h2.5l3.7,10.8l3.6-10.8h2.4v12.8h-1.6v-7.5
				c0-0.3,0-0.7,0-1.3c0-0.6,0-1.2,0-1.9l-3.6,10.8h-1.7l-3.7-10.8v0.4c0,0.3,0,0.8,0,1.4c0,0.6,0,1.1,0,1.4v7.5h-1.6V50.4z"/>
			<polygon fill-rule="evenodd" clip-rule="evenodd" fill="#D1D627" points="197.4,63.1 195.3,63.1 199.9,56.6 195.6,50.4 
				197.8,50.4 201,55.2 204.3,50.4 206.3,50.4 202,56.6 206.5,63.1 204.4,63.1 200.9,57.9 			"/>
		</g>
		<g>
			<polygon fill-rule="evenodd" clip-rule="evenodd" fill="#FFFFFF" points="119.3,20.2 107.7,46.7 107.6,46.7 96,20.2 94.7,20.2 
				94.7,47.7 95.5,47.7 95.5,21.2 95.6,21.2 107.2,47.7 108.1,47.7 119.7,21.2 119.8,21.2 119.8,47.7 120.6,47.7 120.6,20.2 			"/>
			
				<polygon fill-rule="evenodd" clip-rule="evenodd" fill="none" stroke="#FFFFFF" stroke-width="0.8477" stroke-miterlimit="3.8637" points="
				119.3,20.2 107.7,46.7 107.6,46.7 96,20.2 94.7,20.2 94.7,47.7 95.5,47.7 95.5,21.2 95.6,21.2 107.2,47.7 108.1,47.7 119.7,21.2 
				119.8,21.2 119.8,47.7 120.6,47.7 120.6,20.2 			"/>
		</g>
		<g>
			<path fill-rule="evenodd" clip-rule="evenodd" fill="#FFFFFF" d="M143.6,20.2v17.2c0,3.3-0.8,5.8-2.3,7.5c-1.5,1.7-3.9,2.6-7,2.6
				c-3.2,0-5.5-0.9-7-2.6c-1.5-1.7-2.3-4.2-2.3-7.5V20.2h-0.8v17.2c0,3.7,0.9,6.4,2.6,8.2c1.7,1.8,4.2,2.7,7.5,2.7
				c3.3,0,5.8-0.9,7.5-2.7c1.7-1.8,2.6-4.5,2.6-8.2V20.2H143.6z"/>
			
				<path fill-rule="evenodd" clip-rule="evenodd" fill="none" stroke="#FFFFFF" stroke-width="0.8477" stroke-miterlimit="3.8637" d="
				M143.6,20.2v17.2c0,3.3-0.8,5.8-2.3,7.5c-1.5,1.7-3.9,2.6-7,2.6c-3.2,0-5.5-0.9-7-2.6c-1.5-1.7-2.3-4.2-2.3-7.5V20.2h-0.8v17.2
				c0,3.7,0.9,6.4,2.6,8.2c1.7,1.8,4.2,2.7,7.5,2.7c3.3,0,5.8-0.9,7.5-2.7c1.7-1.8,2.6-4.5,2.6-8.2V20.2H143.6z"/>
		</g>
		<g>
			<path fill-rule="evenodd" clip-rule="evenodd" fill="#FFFFFF" d="M160.6,20.2V40c0,1.4-0.2,2.6-0.5,3.6c-0.3,1-0.7,1.8-1.3,2.3
				c-0.6,0.6-1.3,1-2.1,1.3c-0.8,0.3-1.8,0.4-2.9,0.4c-2.2,0-3.8-0.6-4.9-1.7c-1.1-1.1-1.7-2.8-1.7-5.1v-1.7h-0.8v1.7
				c0,1.1,0.1,2.1,0.4,3c0.3,0.9,0.7,1.7,1.3,2.3c0.6,0.7,1.3,1.2,2.3,1.5c0.9,0.4,2,0.6,3.3,0.6c1.4,0,2.6-0.2,3.5-0.6
				c1-0.4,1.8-0.9,2.3-1.6c0.6-0.7,1-1.5,1.3-2.5c0.3-0.9,0.4-2,0.4-3.2V20.2H160.6z"/>
			
				<path fill-rule="evenodd" clip-rule="evenodd" fill="none" stroke="#FFFFFF" stroke-width="0.8477" stroke-miterlimit="3.8637" d="
				M160.6,20.2V40c0,1.4-0.2,2.6-0.5,3.6c-0.3,1-0.7,1.8-1.3,2.3c-0.6,0.6-1.3,1-2.1,1.3c-0.8,0.3-1.8,0.4-2.9,0.4
				c-2.2,0-3.8-0.6-4.9-1.7c-1.1-1.1-1.7-2.8-1.7-5.1v-1.7h-0.8v1.7c0,1.1,0.1,2.1,0.4,3c0.3,0.9,0.7,1.7,1.3,2.3
				c0.6,0.7,1.3,1.2,2.3,1.5c0.9,0.4,2,0.6,3.3,0.6c1.4,0,2.6-0.2,3.5-0.6c1-0.4,1.8-0.9,2.3-1.6c0.6-0.7,1-1.5,1.3-2.5
				c0.3-0.9,0.4-2,0.4-3.2V20.2H160.6z"/>
		</g>
		<g>
			<polygon fill-rule="evenodd" clip-rule="evenodd" fill="#FFFFFF" points="166,46.9 166,33.8 182.4,33.8 182.4,33 166,33 166,21 
				183.4,21 183.4,20.2 165.2,20.2 165.2,47.7 183.6,47.7 183.6,46.9 			"/>
			
				<polygon fill-rule="evenodd" clip-rule="evenodd" fill="none" stroke="#FFFFFF" stroke-width="0.8477" stroke-miterlimit="3.8637" points="
				166,46.9 166,33.8 182.4,33.8 182.4,33 166,33 166,21 183.4,21 183.4,20.2 165.2,20.2 165.2,47.7 183.6,47.7 183.6,46.9 			"/>
		</g>
		<path fill="#F89A1C" d="M84.2,37.3c-1.4,2-1.9,4-3.7,5c-1.8,1.1-5,2.2-8.4,2.7c-3.5,0.5-4.6,1.2-4.5,3.1c0.1,1.5,2.8,4.5-0.4,5.3
			c-1.1,0.2-2.3,1.4-2.1,3.7c0.1,0.8-1.5,1-1.9,2c-0.5,1.4,0.1,1.2-0.2,2.4c-0.4,1.3-0.6,1.7-1.9,2.8c-0.9,0.8-1.9,1.5-1.9,3.5
			c0,1-16.8-13.6-5.5-31.2c9.8-15.2,29.6-14.1,38.8-5.4C93.2,31.9,88.8,30.7,84.2,37.3z M20.7,30.8c-1.3-7.2-6-6.9-5.1-7.4
			c12.9-6.5,32.3-3.7,34.3,12.8c2.4,18.9-20.6,29.5-20.1,28.6c1-1.8,0.3-2.7-0.2-3.7c-0.7-1.3-0.7-1.8-0.4-3.1
			c0.3-1.3,0.8-0.9,1-2.4c0.1-1-1.3-1.5-0.8-2.3c1.4-2.2,0.7-3.5-0.2-4c-2.7-1.3,1.3-3.7,2.1-5.1c1-1.8,0.3-2.7-2.7-3.9
			c-3-1.2-5.4-2.9-6.7-4.2C20.6,35,21,33.1,20.7,30.8z"/>
		<g>
			<g>
				<defs>
					<path id="SVGID_2_" d="M48.9,48.5c-5.7,11-19,18.9-28.9,18.9c0,0,12.3-2.4,11.9-7.8c-0.1-1.8-0.2-2.3,0.5-3.7
						c0.6-1.4,1.1-0.8,1.7-2.4c0.4-1.1-0.9-2.2-0.2-2.9c2-2,1.7-3.8,1-4.6c-2.3-2.5,2.5-3.8,3.7-5.1c1.5-1.7,1.1-2.9-1.7-5.4
						c-2.7-2.3-5-5.1-5.8-7.1c-0.8-2,0.5-4,0.7-6.7c0.5-7-1-8.6-1.7-8.9l-0.3,0c0,0,0.1-0.1,0.3,0c14.7,1.6,21.6,13.7,21.7,24.4
						c5.2-10.1,17.5-20.3,32.3-18.9c0.2,0,0.4,0,0.3,0l-0.3,0c-0.8,0.2-3,1.3-5.8,8.1C77,29,77.3,31.2,75.5,33
						c-1.8,1.7-5.3,4-8.9,5.7c-3.8,1.8-4.8,2.9-4.2,4.8c0.5,1.5,4.4,3.7,1,5.6c-1.1,0.6-2.3,2.3-1.3,4.6c0.3,0.8-1.4,1.5-1.6,2.7
						c-0.2,1.6,0.5,1.2,0.4,2.6c-0.1,1.4-0.3,1.9-1.3,3.6c-3,5.1,7.6,9.8,7.6,9.8C57.9,70.2,49,60.1,48.9,48.5z"/>
				</defs>
				<use xlink:href="#SVGID_2_"  overflow="visible" fill="#B9D65F"/>
				<clipPath id="SVGID_3_">
					<use xlink:href="#SVGID_2_"  overflow="visible"/>
				</clipPath>
				<g clip-path="url(#SVGID_3_)">
					<g>
						<g>
							<defs>
								<path id="SVGID_4_" d="M10.2,14c0-2.4,2-4.4,4.4-4.4h196c2.4,0,4.4,2,4.4,4.4v56.4c0,2.4-2,4.4-4.4,4.4h-196
									c-2.4,0-4.4-2-4.4-4.4V14z"/>
							</defs>
							<clipPath id="SVGID_5_">
								<use xlink:href="#SVGID_4_"  overflow="visible"/>
							</clipPath>
							<g clip-path="url(#SVGID_5_)">
								<g>
									<defs>
										<polygon id="SVGID_6_" points="104.1,-32.7 177.8,-67 238.2,62.5 164.5,96.8 104.1,-32.7 										"/>
									</defs>
									<clipPath id="SVGID_7_">
										<use xlink:href="#SVGID_6_"  overflow="visible"/>
									</clipPath>
									<g clip-path="url(#SVGID_7_)">
										<polygon fill="#B9D65F" points="104.1,-32.7 110.3,-35.5 170.7,94 164.5,96.9 104.1,-32.7 										"/>
										<polygon fill="#B8D55F" points="110.3,-35.5 116.4,-38.4 176.8,91.1 170.7,94 110.3,-35.5 										"/>
										<polygon fill="#B7D35E" points="116.4,-38.4 122.5,-41.3 182.9,88.3 176.8,91.1 116.4,-38.4 										"/>
										<polygon fill="#B5D15D" points="122.5,-41.3 128.7,-44.1 189.1,85.4 182.9,88.3 122.5,-41.3 										"/>
										<polygon fill="#B4D05D" points="128.7,-44.1 134.8,-47 195.2,82.5 189.1,85.4 128.7,-44.1 										"/>
										<polygon fill="#B3D05D" points="134.8,-47 141,-49.9 201.4,79.7 195.2,82.5 134.8,-47 										"/>
										<polygon fill="#B2CE5C" points="141,-49.9 147.1,-52.7 207.5,76.8 201.4,79.7 141,-49.9 										"/>
										<polygon fill="#B1CE5C" points="147.1,-52.7 153.2,-55.6 213.6,73.9 207.5,76.8 147.1,-52.7 										"/>
										<polygon fill="#B0CC5B" points="153.2,-55.6 159.4,-58.4 219.8,71.1 213.6,73.9 153.2,-55.6 										"/>
										<polygon fill="#AFCB5B" points="159.4,-58.4 165.5,-61.3 225.9,68.2 219.8,71.1 159.4,-58.4 										"/>
										<polygon fill="#AFCB5A" points="165.5,-61.3 171.7,-64.2 232.1,65.4 225.9,68.2 165.5,-61.3 										"/>
										<polygon fill="#AEC95A" points="171.7,-64.2 177.8,-67 238.2,62.5 232.1,65.4 171.7,-64.2 										"/>
									</g>
								</g>
								<g>
									<defs>
										<polygon id="SVGID_8_" points="14.8,9 104.3,-32.8 164.7,96.8 75.2,138.5 14.8,9 										"/>
									</defs>
									<clipPath id="SVGID_9_">
										<use xlink:href="#SVGID_8_"  overflow="visible"/>
									</clipPath>
									<g clip-path="url(#SVGID_9_)">
										<polygon fill="#B9D65F" points="14.8,9 59.6,-11.9 120,117.6 75.2,138.5 14.8,9 										"/>
										<polygon fill="#B9D65F" points="59.6,-11.9 104.3,-32.8 164.7,96.8 120,117.6 59.6,-11.9 										"/>
									</g>
								</g>
								<g>
									<defs>
										<polygon id="SVGID_10_" points="-12.9,21.9 15,8.9 75.4,138.4 47.5,151.4 -12.9,21.9 										"/>
									</defs>
									<clipPath id="SVGID_11_">
										<use xlink:href="#SVGID_10_"  overflow="visible"/>
									</clipPath>
									<g clip-path="url(#SVGID_11_)">
										<polygon fill="#B1CD5B" points="-12.9,21.9 -9.8,20.5 50.6,150 47.5,151.4 -12.9,21.9 										"/>
										<polygon fill="#B2CE5C" points="-9.8,20.5 -6.7,19 53.7,148.5 50.6,150 -9.8,20.5 										"/>
										<polygon fill="#B3CF5C" points="-6.7,19 -3.6,17.6 56.8,147.1 53.7,148.5 -6.7,19 										"/>
										<polygon fill="#B3D05D" points="-3.6,17.6 -0.5,16.1 59.9,145.7 56.8,147.1 -3.6,17.6 										"/>
										<polygon fill="#B4D05D" points="-0.5,16.1 2.6,14.7 63,144.2 59.9,145.7 -0.5,16.1 										"/>
										<polygon fill="#B6D25E" points="2.6,14.7 5.7,13.2 66.1,142.8 63,144.2 2.6,14.7 										"/>
										<polygon fill="#B7D35E" points="5.7,13.2 8.8,11.8 69.2,141.3 66.1,142.8 5.7,13.2 										"/>
										<polygon fill="#B8D55F" points="8.8,11.8 11.9,10.3 72.3,139.9 69.2,141.3 8.8,11.8 										"/>
										<polygon fill="#B9D65F" points="11.9,10.3 15,8.9 75.4,138.4 72.3,139.9 11.9,10.3 										"/>
									</g>
								</g>
							</g>
						</g>
						<g>
							<defs>
								<path id="SVGID_12_" d="M10.2,14c0-2.4,2-4.4,4.4-4.4h196c2.4,0,4.4,2,4.4,4.4v56.4c0,2.4-2,4.4-4.4,4.4h-196
									c-2.4,0-4.4-2-4.4-4.4V14z"/>
							</defs>
							<clipPath id="SVGID_13_">
								<use xlink:href="#SVGID_12_"  overflow="visible"/>
							</clipPath>
							<g clip-path="url(#SVGID_13_)">
								<g>
									<path fill="#91BA3D" d="M66.7,12.5c0-1.6,1.3-2.9,2.9-2.9h142.3c1.6,0,2.9,1.3,2.9,2.9v59.4c0,1.6-1.3,2.9-2.9,2.9H69.5
										c-1.6,0-2.9-1.3-2.9-2.9V12.5L66.7,12.5z"/>
									<path fill="#91BA3D" d="M140.7,42.2"/>
								</g>
								<g>
									<path fill="none" stroke="#B9D65F" stroke-width="4" stroke-miterlimit="3.8637" d="M11.5,13.9c0-1.7,1.3-3,3-3h196.4
										c1.7,0,3,1.3,3,3v56.5c0,1.7-1.3,3-3,3H14.5c-1.7,0-3-1.3-3-3V13.9L11.5,13.9z"/>
									<path fill="none" stroke="#B9D65F" stroke-width="4" stroke-miterlimit="3.8637" d="M112.7,42.2"/>
								</g>
							</g>
							
								<use xlink:href="#SVGID_12_"  overflow="visible" fill-rule="evenodd" clip-rule="evenodd" fill="none" stroke="#91BA3D" stroke-width="6" stroke-miterlimit="3.8637"/>
						</g>
					</g>
					<g>
						<path fill="#BBC532" d="M84.2,37.3c-1.4,2-1.9,4-3.7,5c-1.8,1.1-5,2.2-8.4,2.7c-3.5,0.5-4.6,1.2-4.5,3.1
							c0.1,1.5,2.8,4.5-0.4,5.3c-1.1,0.2-2.3,1.4-2.1,3.7c0.1,0.8-1.5,1-1.9,2c-0.5,1.4,0.1,1.2-0.2,2.4c-0.4,1.3-0.6,1.7-1.9,2.8
							c-0.9,0.8-1.9,1.5-1.9,3.5c0,1-16.8-13.6-5.5-31.2c9.8-15.2,29.6-14.1,38.8-5.4C93.2,31.9,88.8,30.7,84.2,37.3z M20.7,30.8
							c-1.3-7.2-6-6.9-5.1-7.4c12.9-6.5,32.3-3.7,34.3,12.8c2.4,18.9-20.6,29.5-20.1,28.6c1-1.8,0.3-2.7-0.2-3.7
							c-0.7-1.3-0.7-1.8-0.4-3.1c0.3-1.3,0.8-0.9,1-2.4c0.1-1-1.3-1.5-0.8-2.3c1.4-2.2,0.7-3.5-0.2-4c-2.7-1.3,1.3-3.7,2.1-5.1
							c1-1.8,0.3-2.7-2.7-3.9c-3-1.2-5.4-2.9-6.7-4.2C20.6,35,21,33.1,20.7,30.8z"/>
					</g>
				</g>
			</g>
		</g>
		<g>
			<path fill-rule="evenodd" clip-rule="evenodd" fill="#FFFFFF" d="M186.6,47.7V34.8H197c1.6,0,2.9,0.2,3.8,0.5
				c0.9,0.3,1.7,0.8,2.2,1.4c0.5,0.6,0.8,1.3,1,2.2c0.2,0.9,0.3,1.9,0.3,3c0,0.4,0,0.9,0,1.5c0,0.5,0.1,1.1,0.1,1.6
				c0.1,0.5,0.1,1.1,0.2,1.5c0.1,0.5,0.2,0.8,0.3,1.1h0.8c-0.1-0.2-0.2-0.5-0.3-1c-0.1-0.5-0.1-1-0.2-1.5c-0.1-0.6-0.1-1.1-0.1-1.7
				c0-0.6,0-1.1,0-1.5c0-1.1-0.1-2.1-0.2-3c-0.1-0.9-0.4-1.6-0.8-2.3c-0.4-0.6-0.9-1.2-1.7-1.5c-0.7-0.4-1.7-0.7-2.8-0.8v-0.1
				c1.9-0.4,3.4-1.3,4.4-2.5c1-1.2,1.5-2.8,1.5-4.6c-0.1-2.4-0.7-4.2-2.1-5.3c-1.3-1.2-3.4-1.7-6.3-1.7h-11.2v27.5H186.6z M186.6,34
				V21h10.7c2.6,0,4.5,0.6,5.7,1.7c1.2,1.1,1.7,2.6,1.8,4.5c0,1.2-0.2,2.2-0.7,3.1c-0.4,0.8-1,1.6-1.7,2.1c-0.7,0.6-1.6,1-2.5,1.2
				c-0.9,0.3-1.9,0.4-2.9,0.4H186.6z"/>
			
				<path fill-rule="evenodd" clip-rule="evenodd" fill="none" stroke="#FFFFFF" stroke-width="0.8477" stroke-miterlimit="3.8637" d="
				M186.6,47.7V34.8H197c1.6,0,2.9,0.2,3.8,0.5c0.9,0.3,1.7,0.8,2.2,1.4c0.5,0.6,0.8,1.3,1,2.2c0.2,0.9,0.3,1.9,0.3,3
				c0,0.4,0,0.9,0,1.5c0,0.5,0.1,1.1,0.1,1.6c0.1,0.5,0.1,1.1,0.2,1.5c0.1,0.5,0.2,0.8,0.3,1.1h0.8c-0.1-0.2-0.2-0.5-0.3-1
				c-0.1-0.5-0.1-1-0.2-1.5c-0.1-0.6-0.1-1.1-0.1-1.7c0-0.6,0-1.1,0-1.5c0-1.1-0.1-2.1-0.2-3c-0.1-0.9-0.4-1.6-0.8-2.3
				c-0.4-0.6-0.9-1.2-1.7-1.5c-0.7-0.4-1.7-0.7-2.8-0.8v-0.1c1.9-0.4,3.4-1.3,4.4-2.5c1-1.2,1.5-2.8,1.5-4.6
				c-0.1-2.4-0.7-4.2-2.1-5.3c-1.3-1.2-3.4-1.7-6.3-1.7h-11.2v27.5H186.6z M186.6,34V21h10.7c2.6,0,4.5,0.6,5.7,1.7
				c1.2,1.1,1.7,2.6,1.8,4.5c0,1.2-0.2,2.2-0.7,3.1c-0.4,0.8-1,1.6-1.7,2.1c-0.7,0.6-1.6,1-2.5,1.2c-0.9,0.3-1.9,0.4-2.9,0.4H186.6z
				"/>
		</g>
	</g>
	
		<text transform="matrix(1.0562 0 0 1 24.8332 94.2069)" fill="#FFFFFF" font-family="'HelveticaNeue-CondensedBold'" font-size="13.1395px">AQUÍ O ALLÁ, TIENES DERECHOS</text>
</g>
</svg>
