<?xml version="1.0" encoding="utf-8"?>
<!-- Generator: Adobe Illustrator 19.1.0, SVG Export Plug-In . SVG Version: 6.00 Build 0)  -->
<svg version="1.1" id="Layer_1" xmlns="http://www.w3.org/2000/svg" xmlns:xlink="http://www.w3.org/1999/xlink" x="0px" y="0px"
	 viewBox="0 0 353.3 24" enable-background="new 0 0 353.3 24" xml:space="preserve">
<g>
	<path fill="#FFFFFF" d="M340.2,13.4c0.2,0,0.1,0-0.4,0l-0.3,0L340.2,13.4z"/>
	<path fill="#FFFFFF" d="M337,13.4c-0.5,0-1.2,0.1-0.8,0.1c0.5-0.1,0.7,0,1.3-0.1c0.5,0,0.8,0,0.7,0c0.2,0,0.7,0,1,0
		C338.6,13.4,337.8,13.4,337,13.4C336.8,13.4,337,13.4,337,13.4z"/>
	<path fill="#FFFFFF" d="M291.3,12.9l0.3,0C291.6,13,291.5,13,291.3,12.9z"/>
	<path fill="#FFFFFF" d="M263,12.7c0.2,0,0.3,0,0.3-0.1C263.2,12.6,263,12.6,263,12.7z"/>
	<path fill="#FFFFFF" d="M258.2,12.3c0.1,0,0.2,0,0.3,0C258.4,12.3,258.3,12.2,258.2,12.3z"/>
	<path fill="#FFFFFF" d="M291.3,12.9l-0.8-0.1C290.5,12.9,291,12.9,291.3,12.9z"/>
	<path fill="#FFFFFF" d="M330.7,13.6c0.2,0,0.3,0,0.4,0L330.7,13.6C330.7,13.6,330.7,13.6,330.7,13.6z"/>
	<path fill="#FFFFFF" d="M303.8,12.8l0.2,0c0.1,0,0.1-0.1,0.2-0.1L303.8,12.8z"/>
	<path fill="#FFFFFF" d="M313.4,12.9c-0.2,0-0.3,0.2-0.4,0.2c0.1-0.1,0.3-0.1,0.5-0.1C313.5,13,313.5,12.9,313.4,12.9z"/>
	<path fill="#FFFFFF" d="M328.6,13.2l0.3,0C328.8,13.2,328.7,13.2,328.6,13.2z"/>
	<path fill="#FFFFFF" d="M297,12.7C296.9,12.7,296.9,12.6,297,12.7C296.9,12.6,296.9,12.7,297,12.7z"/>
	<path fill="#FFFFFF" d="M29.2,13.8C29.2,13.8,29.1,13.8,29.2,13.8C29.1,13.8,29.1,13.8,29.2,13.8z"/>
	<path fill="#FFFFFF" d="M18.1,13.3l0.2,0c0,0,0,0,0,0L18.1,13.3z"/>
	<path fill="#FFFFFF" d="M249.4,11.9C249.4,11.9,249.4,11.9,249.4,11.9C249.6,11.9,249.5,11.9,249.4,11.9z"/>
	<path fill="#FFFFFF" d="M168.2,12.9c0.9,0.1-1.5,0.1-0.1,0.2C167.9,13.1,169.3,12.9,168.2,12.9z"/>
	<path fill="#FFFFFF" d="M330.5,13.6l-0.4,0C330.3,13.6,330.4,13.6,330.5,13.6z"/>
	<path fill="#FFFFFF" d="M168.1,13.1L168.1,13.1l0.1,0C168.1,13.1,168.1,13.1,168.1,13.1z"/>
	<path fill="#FFFFFF" d="M229,12.2c0,0,0.1,0.1,0.2,0.1C229.2,12.2,229.1,12.2,229,12.2z"/>
	<path fill="#FFFFFF" d="M244.2,12.5l-0.4,0C243.9,12.5,244.1,12.5,244.2,12.5z"/>
	<path fill="#FFFFFF" d="M221.1,12.6c-0.2,0-0.3-0.1-0.6,0c0,0,0.1,0,0.1,0C220.7,12.6,220.9,12.5,221.1,12.6z"/>
	<path fill="#FFFFFF" d="M212.9,12.6c0,0,0.1,0,0.2,0.1c0.1,0,0.2,0,0.3,0L212.9,12.6z"/>
	<path fill="#FFFFFF" d="M54.1,14.2c-0.2-0.1-0.3-0.1-0.4-0.2C53.8,14.2,52.6,14.2,54.1,14.2z"/>
	<path fill="#FFFFFF" d="M330.7,13.6c0,0-0.1,0-0.2,0C330.6,13.6,330.7,13.6,330.7,13.6C330.8,13.6,330.8,13.6,330.7,13.6z"/>
	<path fill="#FFFFFF" d="M220.8,14.7l-1.3,0C219.8,14.7,220.3,14.7,220.8,14.7z"/>
	<path fill="#FFFFFF" d="M112.9,14.1l-0.3,0C112.8,14.1,112.9,14.1,112.9,14.1z"/>
	<path fill="#FFFFFF" d="M215.6,14.7c-0.2-0.1-0.5-0.1-0.7-0.2c-0.1,0-0.1,0-0.2,0.1L215.6,14.7z"/>
	<path fill="#FFFFFF" d="M53.7,14L53.7,14L53.7,14z"/>
	<path fill="#FFFFFF" d="M45.1,14.4c1.2,0,0.6-0.2,0.8-0.4c1.5,0,0.7,0.2,1.2,0.3c0.9,0,1.6-0.3,2.3-0.3c0.1,0,0.2,0.1,0,0.1
		c1-0.2,2.9,0,4-0.2c0.1,0,0.1,0,0.1,0.1c-0.2-0.1-0.2-0.3-0.2-0.4c0.6,0,1-0.2,1.2,0c-0.3,0-0.4,0.1-0.5,0.1l0.6-0.1
		C55.3,14,54,13.8,54,14c1.1-0.1,2.5-0.3,3.3-0.2c0.2,0.3-2,0.1-0.9,0.3L55.1,14c1,0.4-0.8,0,0.1,0.4c1.8,0.1,2-0.1,3.8,0
		c0.4-0.1-0.1-0.2,0.3-0.4c2.5-0.3,2,0.7,3.8,0.4c0.5-0.2,0.7-0.5,2-0.3l-0.4,0.3c1.7,0,1-0.5,2.8-0.2c-0.3,0.1-1.4,0.1-1.1,0.1
		c1.2,0.3,0.8-0.2,1.7-0.2l0.2,0.3c1.8,0,3.8-0.2,5.9-0.3c-0.1,0.1-0.5,0.2,0,0.3c2.6-0.1,5.5,0.1,7.9,0.2l0.9-0.3
		c0.2,0,0.4,0.1,0.2,0.2c1,0.1,0-0.2,0.5-0.3c0.5,0,0.7,0.2,0.4,0.2c1.7-0.2,4.8-0.5,6.6-0.2l-0.3,0.1c1.4,0.1,1.6-0.5,2.9-0.3
		l-0.2,0c3,0.1,6.4-0.2,8.7,0.2c0.4-0.3,3,0.1,3.2-0.4c1.7,0.2,1.2,0.3,3.7,0.4c0.6,0,1-0.3,1.8-0.3l0,0.2l1.1-0.2l0.6,0.2l0.8-0.1
		c-0.3,0-0.6-0.1-0.6-0.1c1.2-0.1,2.9,0.1,2.9,0.2l2.8-0.2c-0.1,0.1-0.5,0.1-0.9,0.2c1.5-0.2,0.3,0.2,1.6,0c-0.2,0,0.1-0.1,0.1-0.1
		c0.7,0.1,2.2,0.1,3.4,0l-0.2,0.1c2.1-0.1,4.3-0.1,6.7-0.2c-0.8,0-0.6-0.2,0-0.2l0.3,0.1c0.4-0.1-0.7,0,0.2-0.2
		c0.9,0,0.6,0.1,0.1,0.2l1.1-0.1c0.1,0-0.2,0.1-0.2,0.1c0.4-0.1,1.8,0.1,2.4,0l0.1,0c2.3,0,3.4-0.1,5.2-0.1c0-0.1,0.8-0.1,1.3-0.2
		c1.4,0,2.9,0.1,4.6,0.1c1.2,0,0.3-0.1,0.9-0.1c0.1,0.1,1.8,0.1,0.9,0.1c2,0,2.6,0,5.1-0.1c-0.3,0-0.6,0-0.4-0.1c0.5,0,1,0,1,0.1
		l-0.1,0c2.8-0.1,6.6,0.3,8.8,0.1l-0.1,0l2.3-0.1c1.1,0-0.6,0.1,0.2,0.1c2.5-0.1,4,0.1,6.1,0c1.6,0.3,5.7,0,7.9,0.3l-0.1-0.1
		c0.6-0.1,0.7,0.1,1.1,0.1c-0.1-0.1-0.6-0.1-0.3-0.1c4.8,0,9.8,0.3,14.7,0.5c1.8,0.1,1-0.7,3.3-0.3l-0.6,0.2
		c3.6-0.2,7.4,0.1,10.9-0.1c-0.2,0.1-0.2,0.1-0.6,0.1c0.7,0.2,2.8,0,2.8-0.1c0.6,0,0.1,0.2,0.5,0.2c0.7,0.1,1.9-0.3,2.3,0
		c0.1,0-0.2,0.1-0.3,0.1c0.5-0.1,2.3,0,1.8-0.2c1.3,0.1,2.5-0.1,3.6,0.1c0.7-0.3,2.3,0.2,2.5-0.3c-0.1,0.4,2.3,0.4,3.2,0.2
		c-0.3,0.1,0.7,0.1,0.4,0.3c1,0,1.8-0.1,1.7-0.3c1.8,0.5,3.5-0.4,4.5,0.3c2.8-0.2,5.5-0.4,8-0.5c-0.1,0.5-2.8,0-2.7,0.5
		c2.4-0.2,3.8-0.6,6.2-0.4c0.6,0.1-0.4,0.2-0.6,0.3c2.4-0.2,4.7,0.1,6.8-0.2c0,0-0.2,0.1-0.5,0.1c0.4,0,1,0.1,0.9-0.1l-0.4,0.1
		c-0.7-0.3,1.7-0.7,1.8-0.8c-0.7,0.6,2.1,0.2,1,1c0.3,0,0.6-0.1,0.6-0.3c0.4,0,0.5,0.1,0.1,0.3c1.5-0.1,1-0.4,2.4-0.3
		c0,0.1-0.3,0.1-0.4,0.3c0.7-0.2,1.4-0.4,2.6-0.3c-0.1,0.1,0.1,0.1-0.3,0.1c2,0,3.4-0.6,5.6-0.4c-0.6,0.5,0.7,0.2,0.9,0.6l1.2-0.1
		l-0.5-0.2c1,0,1.9-0.3,2.8-0.2l-0.8,0.2l1.9-0.1l-1.1-0.1c1-0.2-0.1-0.5,1.3-0.4c-0.3,0,1,0,1.6,0.2l0,0c0.5-0.1,1-0.3,1.8-0.2
		c0.2,0.1-0.2,0.4,0,0.5c0.5-0.3,2.4-0.1,3.1-0.4c-0.2,0.1-0.2,0.3-0.2,0.3l0.4-0.3c0.5,0.1,0.5,0.1,0.5,0.3c1.4,0-0.5-0.5,1.3-0.3
		c-0.1,0-0.1,0.1-0.3,0.1c1.7,0.1,3.3-0.2,4.9-0.1c0.5,0.4-1.4,0.1-0.8,0.4c2.3-0.1,4.7-0.5,6.9-0.4l-0.4,0c0.3-0.5,1.6,0.2,2.8,0
		c-0.3,0-0.4,0.3-0.3,0.2c1.5,0.1,3.1-0.1,5.4-0.3l-0.3,0.1c0.9,0.1,2.3,0,3.3,0.1c0.3-0.1,0.8-0.1,0.5-0.3c3,0.6,5.6-0.4,8.3,0.1
		c-0.3,0-0.7,0.1-0.5,0.1l2.2-0.1c-0.2-0.2-0.3-0.1-0.8-0.2c0.3-0.1,0.9-0.2,1.5-0.2c-1,0.1,0,0.3,0.4,0.4c-0.1-0.1,0.1-0.1,0-0.2
		c1.2,0.3,0.2-0.3,1.8-0.1l-0.1,0.1c0.6,0,1.1-0.2,1.8-0.1c0.3,0.2-0.6,0.1-0.7,0.2c0.9,0,1.8-0.3,2.6-0.2c-0.4,0.1-0.9,0.1-1.3,0.1
		c0.9,0.2,1,0.1,1.7,0.2l-0.1,0l1.5,0.1l-0.4-0.1c1.1-0.4,2.3-0.1,3.8-0.4c-1.5,0.3-0.2,0.1-0.4,0.3c0.4,0,1,0.1,0.8,0.1
		c0.7-0.1,1.2,0.1,2.2-0.1c0,0.1,0.8,0,0.6,0.1c0.9-0.1-0.2-0.1-0.1-0.2c1.4-0.2,3.4,0.2,5.5-0.1c1.8-0.1,2.1-0.2,3.8-0.3
		c0.6,0.1-0.5,0.1-0.5,0.1c0.9,0,1.6,0,2.4,0c-0.2,0,0,0.1,0.3,0.1c0.7,0,0.5-0.1,1.4-0.1c-0.2,0-0.4,0.1-0.7,0.1
		c0.8,0,1.6-0.1,2.4-0.1c0.2,0-0.5,0.1-0.8,0.1c0.9,0,2.4-0.1,2.7-0.1l-0.6,0c0.3,0,0.2,0.1-0.1,0.1c-0.8,0.1-1.2,0-1.2,0l0.6,0
		c-0.6-0.1-2.4,0-3.6,0l0.5-0.1l-1.2,0.1c-0.3,0-0.4-0.1,0.2-0.1c-0.9-0.1-0.8,0-1.5,0c-0.1,0,0,0,0,0l-0.8,0c0.2,0-0.1-0.1,0.4-0.1
		c-1.5-0.1-2.4,0.1-3,0l0.1,0c-2.1,0-0.2,0.1-1.8,0.3l-1.1-0.4l-0.2,0.1c-0.2,0-0.6,0-0.6-0.1c-0.8,0.1,0.1,0.1-0.3,0.2
		c-1-0.1-2.9,0.1-3.1-0.2c-0.4,0.1,1,0.1-0.1,0.2c-0.3-0.3-1.3,0-2.2-0.1c0.3-0.2,1.2-0.1,0.2-0.2c-0.6,0.3-1.8-0.1-2.6,0
		c0,0.2-1.7,0.1-3.1,0.2c0.1-0.1-2.5-0.1-3.8-0.3l0,0c-0.2,0.3-1.5,0.2-2.5,0.3c0-0.2,0.2-0.2,0.7-0.3l-0.9,0
		c-0.2,0.1-0.5,0.1-1.1,0.2l0.2-0.2c-1.2,0-2.4,0.2-3.9,0.1c-0.1,0.2,1.2,0.6-0.4,0.7c-0.1-0.1-0.1-0.3,0.3-0.3
		c-0.1,0-0.5,0.1-0.8,0l0.6-0.2c-0.7-0.1-0.4,0.2-0.9,0.1c0-0.2-0.4-0.1-0.3-0.2c0.1,0,0.5,0.1,0.7,0c-0.6,0-1.4-0.1-1.6-0.3
		c0.1,0.1,0,0.2-0.5,0.2c-1.2,0-0.4-0.2-1.1-0.3c-0.3,0.1-1,0-1.1,0.2c-0.3,0-0.4-0.1-0.5-0.2c-0.6,0.1-2.8,0-2.1,0.3l0.2,0
		c0,0-0.1,0-0.1,0l0,0l0,0c-2,0.3-4.1-0.2-6.1-0.1l0-0.1c-1.2,0.1-2.6,0.1-3.5,0.3c-0.3,0-0.8-0.2-0.7-0.3c-0.9,0.1-1,0.2-2.3,0
		c0.9-0.2-0.3-0.2,0.9-0.1c-1.2-0.1-1.4-0.2-2.7,0c0.4-0.2-0.9-0.3-1.4-0.2l0.8,0.2c-0.6,0-1.2,0-1.7,0l0.3-0.3
		c-2.4-0.4-4.3,0.7-6.1,0c-0.6,0.2,1.3,0.2,0.7,0.5c-1.1,0-2.2-0.5-2.6-0.6c-1.5-0.2-1.4,0.5-3,0.4c0.2,0.1,0.4,0.5-0.8,0.6
		c-1.1,0-1.4-0.5-0.7-0.6c0.3,0,0.4,0,0.4,0.1c0.4,0,0.8-0.1,0.4-0.2l-0.1,0.1c-0.5-0.1-2.1-0.1-1.7-0.3c-0.8,0.1-0.4,0.2,0.3,0.3
		c-1.4-0.2-2.2,0-3.7-0.1c0.2,0.1,0.4,0.2,0.2,0.2c-2.1-0.2-0.9,0.2-2.4,0.3c-0.8-0.2,0.3-0.5-1.2-0.3c-0.9-0.1-0.2-0.3,0.2-0.4
		c-1.3,0.2-2.5-0.2-3.2-0.2l0.7-0.1c-0.4,0.1-0.8,0.1-1.1,0.1l0.4,0.3c-0.4,0-0.8,0-0.7-0.2c-0.4,0.2,0.3,0.4-0.5,0.7
		c-0.5-0.1-1.7,0.1-1.9-0.2c1.7,0.1-0.2-0.3,1.3-0.4c-0.3,0-0.6,0-1,0c-0.1,0,0.1-0.1,0.2-0.1c-1.6-0.3-0.8,0.4-2.5,0.4
		c0.2-0.2-0.4-0.4-0.7-0.3c0.7,0,0.3,0.3-0.3,0.5c-1.1-0.1-1.2,0.1-1.8,0.1l0.7,0.1c-0.2,0.2-0.8,0.2-1.5,0.2
		c-0.1-0.1,0.7-0.1,0.4-0.2c-0.8,0.3-1.9-0.3-3.1-0.1c-0.5-0.1-0.1-0.4-0.5-0.4c-1.3,0.2-1.4-0.2-2.8,0c0.4,0.2,0.5,0.2-0.5,0.4
		l2.3-0.2l-1.5,0.4c0.7,0,1.5-0.2,1.9-0.1c-0.7,0.2-0.6,0.1-0.3,0.4c-0.9-0.4-1.9,0.2-3,0l0-0.6c-1.6-0.3-2.9,0.3-5,0.2l0.7,0.1
		c-0.3,0.2-1.3,0-2,0.1c0.1-0.2-0.4-0.3-0.7-0.4c0,0.1-1.6,0-1.8,0.4l-1-0.3c-1.7-0.1-2,0.6-3.6,0.5c0.5-0.2-0.3-0.3,0.9-0.5
		c-0.6,0-1,0-1.1,0.1c-0.3-0.1-1.5,0.3-2,0.1c-0.2,0.1-0.3,0.3-0.9,0.3c-0.1,0,0-0.1,0-0.1c0,0.1-1,0.1-0.4,0.3
		c-1.7-0.6-4.8,0-6.2-0.4c-1.2,0.1-2.7,0.1-3.7,0.1c0.1-0.1,0-0.1,0.2-0.1c-1.5-0.2-0.9,0.5-2.6,0.3c-0.9-0.3,0.9-0.2,0.4-0.3
		c-0.2-0.6-2.1,0.1-3.2-0.2l0.3,0c-0.9-0.2-2.2,0.2-3.6,0.2c0,0,0.1,0,0-0.1c-1,0.3-2.9,0.4-4.2,0.5c0.4-0.2,0.6-0.1,0.4-0.3
		c-0.6,0,0.2,0.3-1.1,0.4c-0.4-0.1-1.3-0.2-1.4-0.4l1.2,0c-0.6-0.3-1.5,0-2.1,0l0.1-0.1c-1.8,0.1-1.8,0.3-3.7,0.3l0.2,0.1
		c-1.1,0.3-0.9-0.1-1.9,0.1l-0.3-0.3c-0.7,0.1-2.4,0.3-3.7,0.3c0.7-0.2,2.2-0.3,3.1-0.4c-0.7,0-2.3,0-2.7,0.2c0.3,0,0.6-0.1,0.9-0.1
		c-0.8,0.2-2,0.3-3.3,0.3c0.2-0.4-3.6-0.1-4.6-0.4c-2.4,0.2-4.8,0-7.7,0.1c1,0.2-0.8,0-0.7,0.3c-0.7,0-0.9,0-1,0l-2-0.1
		c-0.5-0.1,0.6-0.1,0.6-0.1c-1.4,0-0.6-0.1-1.6-0.1c0.2,0.1-0.5,0.1-1.3,0.1l1.2,0.1c-2,0.1-1.7-0.2-3.8,0l0.6-0.1
		c-1,0.1-3.9,0-4.9,0.2c-0.2,0-0.4-0.1,0-0.1c-2.5,0-5.6,0.2-7.5,0.1l0.2,0c-0.5,0-0.8,0.1-1.4,0c0,0,0.2,0,0,0
		c-0.2,0-1.2,0.1-1.9,0.1l0.5-0.1c-2.4-0.1-3.7,0.1-5.8,0.1c0-0.1-1.9-0.2-2.9-0.2l0,0c-2.8,0-4.8,0.1-7.4,0.1
		c-1.6-0.2-5.5-0.1-8.1-0.3c0.4,0-0.1,0.2-0.5,0.2c-0.6-0.1-1.7,0.1-1.6-0.1l0.2,0c-0.5-0.2-1.7-0.2-2.7-0.2l-0.2,0.3
		c-2.6-0.5-6.8,0.1-8.2-0.4c-0.6,0.1-1.4,0.1-2,0.2l0-0.2c-1.7-0.1-2.6-0.1-4.7-0.1l0.4-0.2c-1.2,0-1.5,0.6-2.6,0.6l-0.3-0.3
		c-2.1,0-4.2-0.4-6.3,0c0-0.1,0.1-0.2,0.4-0.2c-1,0-3.8-0.3-3.5,0.2c0-0.3-2.2,0-3.3,0.1l0.2-0.2c-1,0.3-1,0.4-2.3,0.5
		c-0.3,0-0.3-0.2,0.1-0.1c-1.1-0.1-0.8,0.2-2.1,0.1l0.5-0.2c-1.1,0-1,0.1-1.6,0.3c-0.7,0.1-2.1-0.1-2.2-0.3
		c-0.1,0.1-0.7,0.3-1.4,0.3c-0.1-0.1,0.1-0.1,0.3-0.2c-1.8-0.2-2.7,0.3-3.9,0.1c0-0.1-0.1-0.1-0.2-0.1c1.4,0,2.6,0,2.5,0
		c0-0.2-1.2-0.3-0.2-0.6c-0.9,0.2-2.5,0.6-3.7,0.5c-0.1,0-0.1,0-0.1-0.1l0.1,0c-0.3,0-0.5,0-0.7,0c-0.4,0-0.6-0.1-0.9-0.1
		c-0.1-0.2-1.3-0.1-1.9-0.1c0,0.2-0.7,0.2,0,0.4c-0.1,0,0.1,0,0.5,0c0.1,0,0.2,0,0.2,0l0,0c0.4,0,0.9,0,1.4,0
		c-0.5,0.1-0.9,0.2-1.6,0.1c-0.3,0.2-0.6,0.3-0.8,0.4c-0.8-0.3-2.3-0.5-2.5-0.7c-1.8,0.1-4.2,0.1-5.3,0.6c-0.5,0.1-0.6-0.1-0.8-0.2
		c0.3,0,0.6,0,0.8-0.1c-1,0.1-3,0.1-3.2,0.4c-1.3-0.1,0.7-0.3-1-0.2l0.2-0.1c-3.4-0.4-5.6,0.7-9.4,0.2c0.3,0,0.4,0,0.4,0.1
		c-4.3-0.2-8.9,0.2-13.2,0c-1.2,0-1.3,0.1-2.1,0.2L33.7,13l-1.3,0.2c-1.8,0.1-3.1-0.3-5.4,0l0.3,0.1c-0.8,0-2.6,0.1-2.5,0
		c-0.1,0-0.3,0.1-0.6,0l0,0l-2,0.1c-1.6,0,0.2-0.1-2-0.1c-0.8,0-2.4,0.1-2.1,0.1c0.3,0,0.9,0,0.9,0l-0.8,0c-0.1,0.1-0.7,0.1,1.2,0.2
		l1.3,0l0.4,0.1l-1.1,0c0.6,0.1,1,0,1.5,0c0.1,0,0.3,0,0.6,0.1l1.3-0.1c0.2,0-0.6,0.1,0.3,0.1c0.6,0-0.6-0.1,0.4-0.1
		c0.6,0.1,0.4,0.1,1.2,0.1c0.1,0-0.1,0.1-0.3,0.1c0.7,0,1.7,0,2.1,0c0.7,0.1,2.2,0,2.2,0.2c0.2,0,1.2-0.1,1.8-0.1
		c-1.1,0.2,2.3,0.1,2,0.3c0.8-0.2,3,0,4.4-0.1c-0.1,0-0.2,0.1-0.4,0c0.8,0,1.1,0.1,1.6,0.2c0.1-0.2,1.4-0.2,2.1-0.4
		c1,0.2-0.6,0.3-0.3,0.5c-0.1-0.2,1.7-0.1,1.4-0.3c0.8,0.1,0.7,0.1,1.1,0.3c0.1-0.3,0.7,0,1.4-0.2c1.1,0.2,0.3,0.3,1.5,0.2
		C46.2,14.3,45.1,14.4,45.1,14.4z M74.1,14L74.1,14c-0.2,0-0.5,0-0.6,0C73.6,14,73.8,14,74.1,14z M76.6,14c-0.3,0-0.7,0-1.1,0
		c-0.1-0.1,0-0.2,0.3-0.2C75.6,13.9,76.2,13.9,76.6,14z M71.4,12.3c0.4,0,0.5,0,0.6,0.1c-0.2,0-0.4,0-0.7,0c0,0,0,0,0,0
		C71.3,12.4,71.3,12.3,71.4,12.3z"/>
	<path fill="#FFFFFF" d="M70.7,12.6c-0.1,0-0.1,0-0.2,0C70.6,12.7,70.7,12.7,70.7,12.6c0.1,0,0.2,0,0.2,0
		C70.8,12.6,70.8,12.6,70.7,12.6z"/>
	<path fill="#FFFFFF" d="M291.7,13L291.7,13C291.7,13,291.7,13,291.7,13C291.7,13,291.7,13,291.7,13z"/>
	<polygon fill="#FFFFFF" points="110.2,14.2 110.2,14.2 110,14.2 	"/>
	<path fill="#FFFFFF" d="M305.1,13.8c0,0,0.1,0,0.2,0.1C305.3,13.8,305.2,13.8,305.1,13.8z"/>
	<path fill="#FFFFFF" d="M310.9,13.8l0.8,0.1C311.4,13.8,311.1,13.8,310.9,13.8z"/>
	<path fill="#FFFFFF" d="M315.4,13.8C315.4,13.8,315.4,13.7,315.4,13.8L315.4,13.8L315.4,13.8z"/>
	<path fill="#FFFFFF" d="M244.5,14.5c-0.1,0-0.1,0-0.2,0C243.9,14.6,244.2,14.6,244.5,14.5z"/>
	<path fill="#FFFFFF" d="M265.6,13.8c-0.2,0.1-0.4,0.1-0.7,0.1C265.3,14,265.6,14,265.6,13.8z"/>
	<path fill="#FFFFFF" d="M220.9,14.7L220.9,14.7c0,0-0.1,0-0.1,0L220.9,14.7z"/>
	<path fill="#FFFFFF" d="M263.9,13.9c0.4,0.1,0.7,0,1,0C264.6,13.9,264.2,13.9,263.9,13.9z"/>
	<path fill="#FFFFFF" d="M334.7,13.6l0.2,0c0,0,0,0,0,0L334.7,13.6z"/>
	<path fill="#FFFFFF" d="M334.9,13.5l0.2,0C335.1,13.5,335,13.5,334.9,13.5z"/>
	<path fill="#FFFFFF" d="M335.7,13.5l-0.5,0C335.4,13.5,335.6,13.5,335.7,13.5z"/>
	<path fill="#FFFFFF" d="M328.8,13.6L328.8,13.6C328.8,13.6,328.8,13.6,328.8,13.6z"/>
	<path fill="#FFFFFF" d="M327,13.7c0.4,0,1.1,0.1,1.7,0l0.1,0C328.4,13.7,327.4,13.6,327,13.7z"/>
	<path fill="#FFFFFF" d="M319.5,13.1l1.5,0.1c-0.3-0.1-0.6-0.1,0.1-0.1C319.2,12.8,321.5,13.1,319.5,13.1z"/>
	<path fill="#FFFFFF" d="M314.9,13c0.8,0,0-0.1,0-0.1C314.4,12.9,314.3,12.9,314.9,13z"/>
	<path fill="#FFFFFF" d="M281.2,12.7l0.1-0.2C280.6,12.5,281.2,12.6,281.2,12.7z"/>
	<polygon fill="#FFFFFF" points="274.7,14 275.3,14.2 275.6,14 	"/>
	<polygon fill="#FFFFFF" points="270.9,12.2 271.2,12.1 270.2,12.2 	"/>
	<path fill="#FFFFFF" d="M214.4,12.4l0.2,0.3C215,12.6,215.1,12.3,214.4,12.4z"/>
	<path fill="#FFFFFF" d="M189.9,12.8c-0.3-0.1-1-0.2-1.4-0.1C189.1,12.8,189.7,12.9,189.9,12.8z"/>
	<polygon fill="#FFFFFF" points="116.7,12.6 117.2,12.6 116.3,12.6 	"/>
</g>
</svg>
