<?xml version="1.0" encoding="utf-8"?>
<!-- Generator: Adobe Illustrator 19.1.0, SVG Export Plug-In . SVG Version: 6.00 Build 0)  -->
<svg version="1.1" id="Layer_1" xmlns="http://www.w3.org/2000/svg" xmlns:xlink="http://www.w3.org/1999/xlink" x="0px" y="0px"
	 viewBox="0 0 170.4 60.7" enable-background="new 0 0 170.4 60.7" xml:space="preserve">
<g>
	<g>
		<g>
			<rect x="11.4" y="8.5" fill="#A64D79" width="140.3" height="44.8"/>
			<g>
				<path fill="#B1648A" d="M150.3,53.3c0.2,0.2,0.6,0.1,0.5-0.5l-0.7-0.4L150.3,53.3z"/>
				<path fill="#B1648A" d="M151.5,49.7c-0.3-0.6-0.9-1.4-1.5-1c0.6,0.6,0.4,0.8,1.1,1.5c0.1,0.5-0.2,0.9-0.5,0.8
					c0.2,0.2-0.1,0.8,0.3,1.1c0.5-0.7,0.5-1.6,0.1-2.5C151.2,49.5,151.4,49.6,151.5,49.7z"/>
				<path fill="#B1648A" d="M140.4,7.6l0.3,0.1C140.6,7.6,140.5,7.6,140.4,7.6z"/>
				<path fill="#B1648A" d="M107.8,7.2c0.2,0,0.4-0.1,0.4-0.1C108,7.1,107.8,7.2,107.8,7.2z"/>
				<path fill="#B1648A" d="M102.3,6.5c0.1,0,0.2,0,0.3,0C102.5,6.5,102.4,6.4,102.3,6.5z"/>
				<path fill="#B1648A" d="M140.4,7.6l-0.9-0.2C139.4,7.6,139.9,7.6,140.4,7.6z"/>
				<path fill="#B1648A" d="M149.9,42.5c0,0.2,0.1,0.3,0.2,0.5c0-0.1-0.1-0.3-0.1-0.4C150,42.5,150,42.5,149.9,42.5z"/>
				<path fill="#B1648A" d="M153.1,11.4l0,0.4c0.1,0.1,0.2,0.2,0.3,0.2c0,0-0.1-0.1-0.1-0.2C153.2,11.6,153.1,11.4,153.1,11.4z"/>
				<path fill="#B1648A" d="M153.2,22.5c0-0.2-0.5-0.3-0.8-0.4c0.2,0.1,0.3,0.3,0.4,0.5C152.9,22.7,153.1,22.6,153.2,22.5z"/>
				<path fill="#B1648A" d="M152.2,40l0.1,0.3C152.3,40.2,152.3,40.1,152.2,40z"/>
				<path fill="#B1648A" d="M146.8,6.9c0-0.1-0.1-0.2-0.1-0.2C146.7,6.8,146.8,6.9,146.8,6.9z"/>
				<path fill="#B1648A" d="M138.9,50.7C138.9,50.7,138.9,50.7,138.9,50.7C139,50.7,139,50.7,138.9,50.7z"/>
				<path fill="#B1648A" d="M151.6,53.5l-0.2,0c0,0.1,0,0.2,0,0.3L151.6,53.5z"/>
				<path fill="#B1648A" d="M92.1,5.7C92.1,5.8,92.1,5.8,92.1,5.7C92.4,5.7,92.3,5.7,92.1,5.7z"/>
				<path fill="#B1648A" d="M9.1,21c0.5-1.1,0.6,1.7,1.2,0.1C10,21.3,9.4,19.7,9.1,21z"/>
				<path fill="#B1648A" d="M150,42.2c0-0.1,0-0.3,0-0.5C150,41.9,150,42.1,150,42.2z"/>
				<path fill="#B1648A" d="M10.3,21.1L10.3,21.1l0.1-0.2C10.3,21,10.3,21.1,10.3,21.1z"/>
				<path fill="#B1648A" d="M68.7,6.1c0,0.1,0.1,0.2,0.2,0.2C68.9,6.3,68.9,6.2,68.7,6.1z"/>
				<path fill="#B1648A" d="M86.1,6.9l-0.4-0.1C85.9,6.9,86,6.9,86.1,6.9z"/>
				<path fill="#B1648A" d="M59.7,6.9c-0.2,0-0.3-0.1-0.6,0c0,0,0.1,0,0.1,0.1C59.2,6.8,59.4,6.8,59.7,6.9z"/>
				<path fill="#B1648A" d="M50.2,6.8c0,0,0.1,0.1,0.2,0.1c0.1,0,0.2,0,0.3,0L50.2,6.8z"/>
				<path fill="#B1648A" d="M110.2,50.9c0.2,0.2,0.3,0.3,0.4,0.5C110.5,51,111.9,50.9,110.2,50.9z"/>
				<path fill="#B1648A" d="M150.3,42.5c-0.1-0.1-0.2-0.1-0.2-0.3c0,0.1,0,0.2,0,0.3C150.1,42.5,150.2,42.5,150.3,42.5z"/>
				<path fill="#B1648A" d="M59.3,11.3l-1.5-0.1C58.2,11.3,58.7,11.3,59.3,11.3z"/>
				<path fill="#B1648A" d="M42.6,50.9l0.3-0.1C42.8,50.8,42.7,50.9,42.6,50.9z"/>
				<path fill="#B1648A" d="M53.3,11.3c-0.3-0.2-0.6-0.3-0.8-0.4c-0.1,0-0.1,0.1-0.2,0.1L53.3,11.3z"/>
				<path fill="#B1648A" d="M110.7,51.4L110.7,51.4L110.7,51.4z"/>
				<path fill="#B1648A" d="M120.5,50.1c-1.4,0-0.7,0.7-1,1.1c-1.7,0.2-0.8-0.5-1.4-0.9c-1.1,0.2-1.9,0.9-2.7,0.8
					c-0.1-0.1-0.2-0.2,0-0.3c-1.1,0.6-3.3,0-4.6,0.8c-0.1-0.1-0.1-0.1-0.2-0.2c0.2,0.4,0.2,0.7,0.2,1c-0.6,0-1.2,0.5-1.4,0
					c0.4,0,0.4-0.2,0.6-0.3l-0.7,0.2c-0.6-0.7,0.9-0.2,0.9-0.8c-1.3,0.2-2.8,0.8-3.8,0.6c-0.2-0.7,2.3-0.2,1-0.8l1.5,0.3
					c-1.2-1.1,0.9,0.1-0.1-1.1c-2-0.2-2.3,0.3-4.3,0.1c-0.5,0.4,0.2,0.6-0.3,0.9c-2.9,0.7-2.3-1.7-4.4-0.8c-0.6,0.5-0.8,1.3-2.3,0.9
					l0.5-0.8c-2-0.1-1.1,1.1-3.2,0.6c0.4-0.3,1.6-0.3,1.3-0.3c-1.3-0.6-0.9,0.4-2,0.4L94,50.8c-2.1,0.1-4.4,0.6-6.7,0.7
					c0.1-0.2,0.5-0.4,0-0.6c-2.9,0.3-6.3-0.1-9.1-0.5L77,51c-0.3,0-0.5-0.3-0.2-0.4c-1.1-0.2-0.1,0.4-0.6,0.6
					c-0.6,0-0.8-0.3-0.4-0.5c-1.9,0.5-5.5,1.1-7.6,0.4l0.4-0.2c-1.6-0.2-1.8,1.2-3.3,0.7l0.3-0.1c-3.5-0.3-7.3,0.3-9.9-0.6
					c-0.5,0.8-3.4-0.4-3.7,0.8c-2-0.6-1.4-0.8-4.2-1.2c-0.7-0.1-1.1,0.7-2,0.9l0-0.6l-1.3,0.6l-0.7-0.7L43,50.9
					c0.3,0,0.7,0.3,0.7,0.5c-1.3,0.3-3.3-0.4-3.3-0.7l-3.2,0.5c0.1-0.2,0.6-0.3,1-0.5c-1.7,0.6-0.3-0.6-1.9-0.1
					c0.2,0.1-0.1,0.4-0.1,0.5c-0.8-0.4-2.5-0.4-3.9-0.2l0.3-0.4c-2.4-0.1-5,0.2-7.6,0.2c1,0.2,0.7,0.9,0,1l-0.3-0.7
					c-0.5,0.4,0.8,0.2-0.2,0.7c-1-0.1-0.7-0.7-0.1-1L23,50.9c-0.1-0.2,0.2-0.3,0.3-0.5c-0.5,0.4-2.1-0.7-2.8,0l-0.1-0.2
					c-1.3,0-2.3,0.1-3.2,0.1c-0.5,0-0.9,0.1-1.3,0.1c-0.4,0-0.8,0-1.3,0.1c0,0.6-0.2,0.4-0.7,0.9c-0.2-0.1-0.3-0.1-0.4-0.2
					c0.1-0.3,0.2-0.5,0.3-0.8c0-0.1,0.1-0.2,0.1-0.3c0-0.1,0-0.1,0-0.2l0-0.5c-0.3-1.3-0.5-0.4-0.8-1c0.5-0.1,0.5-2,0.8-1
					c-0.1-2.3-0.1-2.9-0.5-5.8c-0.2,0.3-0.3,0.7-0.5,0.5c-0.1-0.5,0.2-1.2,0.5-1.1l0.1,0.1c-0.8-3.3,1.5-7.5,0.4-10.1l0.1,0.1
					l-0.6-2.7c0.1-1.2,0.4,0.7,0.7-0.2c-0.9-2.9,0.1-4.6-0.4-7c1.5-1.9-0.1-6.6,0.9-9.1L14,12.3c-0.1-0.2-0.1-0.3-0.1-0.4
					c0-0.1,0-0.2,0.1-0.2c0.1,0,0.3,0,0.3,0c-0.3-0.1-0.3,0.1-0.5,0c-0.1-0.3-0.1-0.6-0.1-0.9c0.2,0,0.3,0,0.5,0l0.3,0l0.1,0
					c0,0,0,0,0.1,0l0.2,0c1.2,0.1,2.3,0.2,3.5,0.3c2.4,0.2,4.7,0.4,7,0.6c2.1,0.1,1.2-1.8,3.8-1l-0.7,0.7c4.1-0.8,8.5,0,12.5-0.6
					c-0.2,0.2-0.2,0.4-0.6,0.3c0.9,0.5,3.2,0,3.2-0.4c0.6,0,0.1,0.4,0.5,0.6c0.9,0.3,2.2-0.6,2.6-0.1c0.1,0.1-0.2,0.2-0.4,0.2
					c0.6-0.2,2.6,0.1,2.1-0.5c1.5,0.3,2.9-0.2,4.1,0.1c0.8-0.6,2.6,0.3,2.9-0.6C55.2,11.2,58,11,59,10.6c-0.3,0.3,0.8,0.3,0.5,0.7
					c1.1,0,2.1-0.2,1.9-0.6c2,1.1,4.1-0.9,5.2,0.5c3.3-0.5,6.3-0.8,9.2-1c-0.1,0.9-3.2,0.1-3.1,1c2.8-0.4,4.4-1.1,7.2-0.9
					c0.7,0.1-0.4,0.4-0.6,0.5c2.8-0.4,5.4,0.1,7.9-0.4c0,0.1-0.3,0.2-0.5,0.2c0.5,0,1.1,0.1,1.1-0.3l-0.5,0.1
					c-0.8-0.6,1.9-1.2,2-1.6c-0.8,1.2,2.4,0.3,1.1,1.8c0.3-0.1,0.7-0.3,0.7-0.5c0.5,0.1,0.6,0.2,0.1,0.6c1.7-0.2,1.1-0.7,2.7-0.6
					c0,0.2-0.3,0.3-0.5,0.5c0.8-0.4,1.6-0.8,2.9-0.6c-0.1,0.1,0.1,0.3-0.3,0.3c2.3-0.1,3.9-1,6.4-0.7c-0.7,0.9,0.9,0.3,1,1l1.4-0.2
					l-0.5-0.4c1.2,0,2.2-0.5,3.3-0.3l-0.9,0.3l2.2-0.1l-1.3-0.3c1.2-0.4-0.1-0.9,1.5-0.7c-0.3,0.1,1.2,0,1.8,0.5l0,0
					c0.6-0.2,1.2-0.5,2.1-0.3c0.2,0.2-0.2,0.8,0,1c0.6-0.6,2.8-0.2,3.5-0.8c-0.2,0.2-0.3,0.5-0.2,0.6l0.5-0.5
					c0.6,0.2,0.6,0.2,0.5,0.6c1.7,0.1-0.5-0.9,1.4-0.5c-0.2,0-0.1,0.1-0.4,0.2c2,0.2,3.8-0.3,5.6-0.1c0.5,0.8-1.6,0.2-1,0.8
					c2.6-0.1,5.4-0.9,7.9-0.7l-0.5-0.1c0.4-1.1,1.9,0.5,3.2,0c-0.3,0.1-0.4,0.6-0.3,0.5c1.7,0.2,3.5-0.3,6.2-0.6L139,9.7
					c1,0.2,2.7,0.1,3.8,0.3c0.3-0.3,1-0.2,0.6-0.6c1.5,0.7,2.9,0.6,4.3,0.4l0.5-0.1c0.2,0,0.3-0.1,0.4-0.1c0.2-0.1,0.5-0.1,0.7-0.1
					c0.5-0.1,1.1-0.1,1.4,0c-0.1,0.3-0.2,0.7-0.3,1.1c0-0.2-0.2-0.3-0.2-0.2c0,0,0.1,0.3,0.1,0.6c0.1,0.4,0.1,0.7,0.1,0.7
					c0.5-0.2,0.3-0.2,0.6-0.7c0.3,0.2,0.5,0.9,0.5,1.5c-0.3-1.2-0.7,0-1,0.5c0.1-0.1,0.3,0.1,0.4,0c-0.8,1.3,0.9,0.2,0.4,2.1
					l-0.2-0.1c0.1,0.7,0.4,1.3,0.4,2.1c-0.5,0.3-0.2-0.7-0.7-0.8c0,1,1,2.1,0.5,3c-0.1-0.4-0.2-1.1-0.3-1.5c-0.6,1-0.5,1.1-0.6,1.9
					l0-0.1l-0.3,1.8l0.2-0.4c1.4,1.3,0.3,2.6,1.2,4.4c-0.9-1.7-0.5-0.3-1.1-0.4c-0.2,0.4-0.4,1.1-0.5,0.9c0.5,0.8-0.4,1.4,0.3,2.6
					c-0.2,0.1,0,0.9-0.5,0.7c0.2,1.1,0.3-0.3,0.6-0.2c0.7,1.7-0.8,3.9,0.1,6.3c0.4,2.1,1,2.4,1.4,4.3c-0.3,0.6-0.7-0.5-0.7-0.5
					c-0.3,1-0.2,1.8,0,2.8c-0.2-0.2-0.3,0-0.5,0.3c0.1,0.8,0.7,0.5,0.4,1.6c-0.2-0.2-0.6-0.4-0.8-0.8c0.2,0.9,0.5,1.8,0.7,2.8
					c-0.3,0.3-0.5-0.6-0.7-0.9c0.2,1.1,0.3,2.8,0.8,3.1l0.2-0.7c0,0.4-0.5,0.2-0.6-0.1c-0.4-0.9,0.2-1.3,0.4-1.4l0.1,0.7
					c1.1-0.7-0.2-2.7-0.1-4.1l0.8,0.6l-0.7-1.4c0.2-0.3,0.7-0.5,0.8,0.2c0.4-1-0.3-0.9,0.2-1.7c0.1-0.1,0.1-0.1,0.1,0l-0.2-1
					c0.2,0.2,0.6-0.2,0.5,0.4c0.5-1.7-0.6-2.8,0-3.4l0.1,0.1c-0.3-2.4-0.6-0.2-1.3-2l1.5-1.2l-0.6-0.2c0-0.2,0.1-0.7,0.3-0.6
					c-0.4-0.9-0.3,0.2-0.7-0.4c0.6-1.2-0.3-3.3,0.7-3.6c-0.5-0.4-0.4,1.1-0.7-0.1c1-0.4-0.2-1.5,0.3-2.6c0.5,0.3,0.3,1.4,0.7,0.3
					c-0.9-0.7,0.2-2.1,0-3c-0.7,0-0.3-2-0.5-3.5c0.2,0.1,0.4-2.9,0.7-4.3l0.1,0c-0.7-0.3-0.6-1.8-0.7-2.8c0.4,0,0.6,0.2,0.8,0.8l0-1
					c-0.2-0.3-0.4-0.8-0.4-1.6c0,0,0.5,0.2,0.5,0.2c0-1.1-0.2-2.1-0.3-3.1c-1,0.1-1.9,0.1-2.9,0c-0.1,0.3,0.2,0.6,0.1,0.9
					c0,0.3-0.3,0.6-1.1,0.8c0-0.3,0-0.8,0.6-0.9c-0.2,0-0.7,0.2-1,0.1c0,0,0.9-0.5,0.9-0.5c-0.9-0.2-0.6,0.4-1.2,0.3
					c0-0.4-0.5-0.3-0.4-0.6c0.2,0,0.5,0.2,0.9,0c-0.3,0-0.4,0-0.6-0.1c-0.2,0-0.4-0.1-0.5-0.1c-0.3-0.1-0.6-0.2-0.8-0.4
					c0.1,0.2,0,0.5-0.5,0.6c-1.3,0-0.5-0.5-1.2-0.7c-0.3,0.3-1.2,0-1.2,0.6c-0.4,0-0.5-0.3-0.6-0.4c-0.7,0.3-3.3,0.1-2.5,0.7l0.2,0
					c0,0-0.1,0-0.1,0c0,0,0,0,0,0l0,0c-2.3,0.6-4.7-0.3-7-0.1l0-0.2c-1.4,0.2-3,0.1-4,0.6c-0.4,0-0.9-0.4-0.8-0.6
					c-1,0.1-1.2,0.4-2.6,0c1-0.3-0.4-0.3,1.1-0.3c-1.3-0.2-1.6-0.5-3.1,0.1c0.5-0.5-1-0.6-1.7-0.5l0.9,0.4c-0.7,0.1-1.3,0-2,0
					l0.3-0.7c-2.7-0.8-5,1.4-7.1,0c-0.7,0.5,1.5,0.3,0.8,0.9c-1.3-0.1-2.6-1-3-1c-1.7-0.4-1.6,1-3.4,0.7c0.2,0.2,0.5,0.9-0.9,1.1
					c-1.3-0.1-1.6-1-0.8-1.2c0.3,0,0.5,0.1,0.4,0.1c0.4-0.1,0.9-0.2,0.4-0.4l-0.2,0.2c-0.6-0.2-2.4-0.2-2-0.6
					c-1,0.2-0.4,0.4,0.3,0.5c-1.6-0.3-2.5,0-4.2-0.2c0.3,0.1,0.5,0.4,0.2,0.4c-2.5-0.3-1.1,0.4-2.7,0.6c-0.9-0.4,0.3-0.9-1.3-0.6
					c-1-0.2-0.2-0.6,0.2-0.8c-1.5,0.5-2.8-0.3-3.7-0.4l0.8-0.2c-0.5,0.1-0.9,0.1-1.3,0.1l0.5,0.5C94.8,6,94.4,6,94.4,5.8
					c-0.5,0.3,0.4,0.8-0.6,1.2c-0.6-0.2-1.9,0.3-2.1-0.4c2,0.2-0.2-0.6,1.5-0.7c-0.3,0.1-0.7,0.1-1.2,0c-0.1-0.1,0.1-0.1,0.2-0.2
					c-1.9-0.6-0.9,0.7-2.8,0.7c0.2-0.4-0.5-0.7-0.8-0.6c0.8,0,0.4,0.6-0.3,0.9c-1.3-0.3-1.4,0.2-2,0.2L86.9,7
					c-0.3,0.4-0.9,0.3-1.8,0.4c-0.1-0.3,0.8-0.2,0.5-0.3c-1,0.6-2.2-0.6-3.6-0.2c-0.6-0.2-0.1-0.7-0.6-0.8c-1.5,0.5-1.6-0.5-3.2-0.1
					c0.5,0.5,0.5,0.4-0.6,0.8l2.6-0.3l-1.7,0.7c0.8,0,1.7-0.3,2.1-0.2c-0.8,0.4-0.7,0.3-0.3,0.7C79.3,6.9,78.2,8,77,7.5l0-1.2
					c-1.9-0.5-3.3,0.6-5.8,0.3L72,6.8c-0.3,0.5-1.5,0.1-2.3,0.3c0.1-0.4-0.4-0.5-0.8-0.8c0,0.3-1.8,0-2,0.8l-1.1-0.5
					c-2-0.2-2.3,1.1-4.2,1c0.6-0.4-0.3-0.7,1-1c-0.6,0-1.2-0.1-1.2,0.2c-0.4-0.2-1.8,0.5-2.3,0.2C58.8,7,58.8,7.5,58,7.4
					c-0.1-0.1,0-0.2,0-0.2c0,0.2-1.1,0.3-0.5,0.7c-2-1.2-5.5,0.1-7.2-1c-1.4,0.1-3.1,0.3-4.3,0.3c0.1-0.1,0-0.2,0.2-0.2
					c-1.7-0.4-1.1,1.1-3,0.7c-1-0.6,1-0.3,0.4-0.6c-0.3-1.3-2.4,0.2-3.7-0.6l0.3-0.1c-1-0.4-2.5,0.5-4.1,0.4c0,0,0.1-0.1,0-0.2
					c-1.1,0.7-3.3,0.9-4.9,1.1c0.5-0.5,0.7-0.3,0.4-0.8C31,7.1,32,7.9,30.5,8c-0.5-0.3-1.5-0.5-1.6-1.1l1.3,0
					c-0.7-0.7-1.7,0-2.5-0.1l0.1-0.3c-2.1,0.1-2.1,0.9-4.3,0.8l0.2,0.2c-1.2,0.8-1-0.4-2.2,0.1l-0.4-0.8c-0.8,0.2-2.8,0.8-4.2,0.9
					c0.8-0.6,2.5-0.9,3.5-1.2c-0.8,0-2.7,0.1-3.1,0.4c0.3-0.1,0.7-0.3,1-0.1c-1,0.6-2.3,0.9-3.8,0.9c0.3-1-2.4-0.9-4.8-1
					C9.7,8,9.6,9.1,9.2,9.6c0.1,0.6,0.1,1.2,0.2,1.8l0,0.6l0,0.5c0,0.7,0,1.4-0.1,2.1C9.2,16.1,9,17.6,9,19.2c1.2-1.2,0,0.9,1.3,0.8
					c0.1,0.8,0.1,1,0,1.1l-0.7,2.3c-0.4,0.5-0.3-0.7-0.5-0.7c-0.1,1.7-0.5,0.7-0.8,1.8c0.4-0.2,0.6,0.6,0.5,1.5l0.6-1.3
					c0.6,2.3-1,2-0.4,4.3l-0.4-0.7c0.2,1.2,0,4.4,1,5.6c-0.1,0.2-0.5,0.5-0.6,0c-0.1,2.9,1,6.4,0.4,8.6l-0.3-0.2
					c0.1,0.5,0.6,0.9,0.3,1.6c-0.1,0-0.3-0.2-0.3,0c0.1,0.3,0.5,1.4,0.3,2.1l-0.3-0.6c-0.2,1.4,0,2.5,0.3,3.5
					c0.1,0.5,0.3,0.9,0.4,1.8c0.1,0.8,0.2,1.5,0.3,2.3c-0.4,0.3-0.7,1.2-0.9,2.5c1,0.2,2.6,0.3,3.6,0.4l-0.1,0.1c0.4,0,0.8,0,1.1,0
					c0.3,0,0.7,0,1,0c0.4,0,0.7,0,1.1-0.1c0.7-0.1,1.4-0.2,2.1-0.3c1.4-0.2,2.7-0.5,4.2-0.7c1.9,1,6.3,0.4,9.3,0.9
					c-0.5-0.2,0.1-0.7,0.6-0.8c0.7,0.2,2-0.6,1.8,0.2l-0.3,0c0.5,0.8,2,0.6,3.1,0.6l0.2-1.1c3,1.5,7.8-0.6,9.4,0.8
					c0.7-0.3,1.6-0.3,2.3-0.5l0,0.6c2,0.1,3,0.2,5.4,0.1l-0.5,0.4c1.4,0,1.7-1.6,3-1.7l0.4,0.8c2.4,0,4.8,0.7,7.2,0
					c0,0.1-0.1,0.4-0.5,0.4c1.1,0,4.4,0.6,4-0.6c0,0.8,2.5,0.1,3.8-0.3l-0.2,0.6c1.1-0.7,1.1-0.9,2.7-1.1c0.4,0.1,0.3,0.4-0.2,0.3
					c1.2,0.3,0.9-0.5,2.4-0.2l-0.5,0.4c1.2,0,1.1-0.1,1.8-0.6c0.8-0.2,2.4,0.1,2.5,0.6c0.2-0.3,0.9-0.7,1.6-0.6
					c0.1,0.2-0.2,0.3-0.3,0.4c2.1,0.4,3.1-0.6,4.5-0.1c0,0.2,0.1,0.3,0.2,0.3c-1.7,0-3,0-2.9-0.1c0,0.5,1.3,0.6,0.3,1.3
					c1.1-0.4,2.9-1.2,4.2-1c0.1,0,0.1,0.1,0.2,0.2l-0.1,0.1c0.3,0.1,0.6,0,0.8-0.1c0.4,0.1,0.7,0.1,1.1,0.2c0.2,0.4,1.5,0.2,2.2,0.3
					c-0.1-0.6,0.8-0.5,0-0.9c0.1,0-0.1,0.1-0.6,0.1c-0.1,0-0.2,0-0.3,0.1c0,0,0,0,0,0c-0.4,0-1,0-1.7,0c0.5-0.3,1.1-0.5,1.8-0.2
					c0.3-0.4,0.7-0.7,0.9-0.9c0.9,0.8,2.7,1.2,2.9,1.7c2-0.3,4.8-0.2,6.1-1.3c0.6-0.1,0.7,0.3,0.9,0.5c-0.3,0.1-0.7,0.1-0.9,0.2
					c1.2-0.3,3.4-0.1,3.7-0.8c1.5,0.3-0.8,0.7,1.2,0.6l-0.3,0.2c3.9,1.2,6.4-1.9,10.8-0.4c-0.3-0.1-0.5-0.1-0.5-0.3
					c5,0.7,10.3-0.6,15.2,0.4c1.4,0.2,1.5-0.3,2.4-0.6l0.3,0.6l1.5-0.7c2.1-0.5,3.6,1.5,6.2,0.5l-0.3-0.4c0.9,0.1,3-0.2,2.8,0.2
					c0.1-0.1,0.3-0.4,0.7-0.2l0,0.3l2.3-0.5c1.8,0.2-0.3,1.3,2.3,1.3c1-0.1,2.8-0.9,2.4-1.1c-0.4,0-1-0.2-1-0.5l0.9-0.2
					c0.2-0.9,0.8-1.9-1.3-2.5l-1.5,0.6l-0.5-0.5l1.3,0c-0.7-0.4-1.2,0-1.7,0.2c-0.1-0.2-0.3-0.4-0.6-0.5l-1.5,0.9
					c-0.2-0.4,0.7-0.7-0.3-0.9c-0.7,0.4,0.7,0.8-0.5,1.1c-0.7-0.4-0.5-0.8-1.4-0.4c-0.1-0.2,0.1-0.4,0.4-0.5c-0.8,0.3-2,0.1-2.4,0.6
					c-0.8-0.5-2.6,0.1-2.5-0.7c-0.2,0.2-1.3,0.7-2,0.7c1.3-1.1-2.6-0.1-2.3-1.2c-0.9,0.9-3.4,0.4-5.1,0.9c0.1-0.1,0.3-0.2,0.4-0.2
					c-0.9-0.1-1.2-0.4-1.8-0.5c-0.1,0.8-1.6,1-2.4,1.4c-1.2-0.8,0.7-0.9,0.3-1.6c0.1,0.6-2,0.6-1.6,1.2c-0.9-0.5-0.8-0.2-1.2-0.9
					c-0.2,1-0.8,0.2-1.6,0.8c-1.3-0.5-0.3-0.9-1.7-0.6C119.3,50.4,120.5,50.1,120.5,50.1z M87.2,51.8C87.2,51.7,87.2,51.7,87.2,51.8
					c0.3,0,0.5,0,0.7,0C87.8,51.7,87.6,51.7,87.2,51.8z M84.4,51.8c0.3,0,0.8,0,1.2,0c0.1,0.2,0,0.4-0.3,0.4
					C85.5,52,84.8,51.9,84.4,51.8z M90.3,55.7c-0.4,0.1-0.6,0-0.7-0.1c0.2,0,0.5,0,0.8-0.1c0,0,0,0,0.1-0.1
					C90.5,55.5,90.4,55.6,90.3,55.7z"/>
				<path fill="#B1648A" d="M91.1,54.9c0.1,0,0.1,0,0.2,0c-0.1,0-0.2-0.1-0.3-0.1c-0.1,0.1-0.1,0.1-0.2,0.2
					C91,54.9,91.1,54.9,91.1,54.9z"/>
				<path fill="#B1648A" d="M140.7,7.7L140.7,7.7C140.7,7.7,140.8,7.7,140.7,7.7C140.8,7.7,140.8,7.7,140.7,7.7z"/>
				<polygon fill="#B1648A" points="45.7,50.7 45.7,50.8 46,50.7 				"/>
				<path fill="#B1648A" d="M150.6,13c0,0-0.1,0.1-0.1,0.2C150.5,13.2,150.5,13.1,150.6,13z"/>
				<path fill="#B1648A" d="M150.4,19.7l-0.2,0.9C150.4,20.2,150.4,19.9,150.4,19.7z"/>
				<path fill="#B1648A" d="M150.2,24.8c0.1,0.1,0.2,0.1,0.2,0.1l0,0L150.2,24.8z"/>
				<path fill="#B1648A" d="M86.5,10.6c-0.1,0-0.1,0-0.2,0C85.8,10.8,86.2,10.7,86.5,10.6z"/>
				<path fill="#B1648A" d="M110.7,9.4c-0.3,0.1-0.5,0.2-0.8,0.3C110.4,9.7,110.7,9.7,110.7,9.4z"/>
				<path fill="#B1648A" d="M59.4,11.3C59.4,11.3,59.4,11.3,59.4,11.3c-0.1,0-0.1,0-0.2,0L59.4,11.3z"/>
				<path fill="#B1648A" d="M108.8,9.6c0.4,0.1,0.8,0.1,1.1,0C109.6,9.6,109.2,9.5,108.8,9.6z"/>
				<path fill="#B1648A" d="M149.9,47l0,0.2c0,0,0.1,0,0.1,0L149.9,47z"/>
				<path fill="#B1648A" d="M150,47.3l0.1,0.3C150,47.4,150,47.3,150,47.3z"/>
				<path fill="#B1648A" d="M150.2,48.2l-0.1-0.6C150,47.8,150,48,150.2,48.2z"/>
				<path fill="#B1648A" d="M150.2,40.2l-0.2-0.1C150,40.2,150.1,40.2,150.2,40.2z"/>
				<path fill="#B1648A" d="M150.1,38.2c0,0.5-0.4,1.2-0.3,1.9l0.2,0.1C149.7,39.8,150.4,38.6,150.1,38.2z"/>
				<path fill="#B1648A" d="M152.6,29.6l-0.2,1.7c0.2-0.3,0.5-0.7,0.6,0.1C153.7,29.2,152.5,31.8,152.6,29.6z"/>
				<path fill="#B1648A" d="M152.9,24.2c0.1,0.9,0.3,0,0.4,0C153.2,23.7,153.1,23.5,152.9,24.2z"/>
				<path fill="#B1648A" d="M128.7,7.2l0.1-0.5C128,6.8,128.8,6.9,128.7,7.2z"/>
				<polygon fill="#B1648A" points="121.3,9.9 122,10.2 122.3,9.7 				"/>
				<polygon fill="#B1648A" points="116.9,6.2 117.2,6.2 116,6.3 				"/>
				<path fill="#B1648A" d="M51.9,6.4L52.1,7C52.6,6.9,52.7,6.2,51.9,6.4z"/>
				<path fill="#B1648A" d="M23.8,7c-0.3-0.3-1.1-0.5-1.6-0.2C22.9,6.8,23.5,7.1,23.8,7z"/>
				<polygon fill="#B1648A" points="38.3,55.7 37.7,55.9 38.8,55.7 				"/>
			</g>
		</g>
	</g>
	<g>
		<path d="M77.6,27.6l-3,0l0-7.8l-2.2,5.1l-2.1,0l-2.2-5.1l0,7.8l-2.8,0l0-11.6l3.5,0l2.6,5.8l2.6-5.8l3.5,0L77.6,27.6z"/>
		<path d="M85.7,26.6c-0.2,0.1-0.3,0.3-0.6,0.4c-0.2,0.2-0.4,0.3-0.6,0.4c-0.3,0.1-0.6,0.2-0.9,0.3s-0.6,0.1-1,0.1
			c-0.8,0-1.5-0.3-2.1-0.8c-0.6-0.5-0.8-1.2-0.8-2c0-0.6,0.1-1.2,0.4-1.6c0.3-0.4,0.7-0.7,1.2-1c0.5-0.2,1.2-0.4,1.9-0.5
			s1.6-0.2,2.4-0.2v0c0-0.5-0.2-0.8-0.6-1c-0.4-0.2-1-0.3-1.8-0.3c-0.5,0-1,0.1-1.5,0.2c-0.5,0.2-0.9,0.3-1.1,0.4l-0.3,0l0-2.1
			c0.3-0.1,0.8-0.2,1.4-0.3c0.7-0.1,1.3-0.2,2-0.2c1.6,0,2.8,0.2,3.5,0.7c0.7,0.5,1.1,1.3,1.1,2.3l0,6l-2.8,0L85.7,26.6z M87.2,14.5
			v0.2l-2.8,2.9l-1.9,0l1.9-3.1L87.2,14.5z M85.7,25.3l0-1.8c-0.4,0-0.8,0.1-1.2,0.1c-0.4,0.1-0.8,0.1-1,0.2
			c-0.3,0.1-0.5,0.2-0.6,0.4s-0.2,0.4-0.2,0.7c0,0.2,0,0.3,0,0.4s0.1,0.2,0.2,0.3c0.1,0.1,0.3,0.2,0.4,0.2c0.2,0,0.4,0.1,0.8,0.1
			c0.3,0,0.6-0.1,0.9-0.2C85.2,25.6,85.5,25.5,85.7,25.3z"/>
		<path d="M98.7,24.8c0,0.9-0.4,1.6-1.2,2.2c-0.8,0.6-1.9,0.8-3.3,0.8c-0.8,0-1.5-0.1-2.1-0.2c-0.6-0.1-1.1-0.3-1.5-0.5l0-2.3h0.3
			c0.1,0.1,0.3,0.2,0.5,0.3c0.2,0.1,0.4,0.2,0.8,0.4c0.3,0.1,0.6,0.2,1,0.3c0.4,0.1,0.8,0.1,1.2,0.1c0.6,0,1-0.1,1.2-0.2
			c0.3-0.1,0.4-0.3,0.4-0.5c0-0.2-0.1-0.4-0.2-0.5s-0.5-0.2-0.9-0.3c-0.2,0-0.5-0.1-0.8-0.2s-0.7-0.1-1-0.2c-0.8-0.2-1.4-0.5-1.8-1
			c-0.4-0.4-0.6-1-0.6-1.6c0-0.8,0.4-1.5,1.2-2.1c0.8-0.6,1.9-0.8,3.3-0.8c0.7,0,1.3,0.1,1.9,0.2c0.6,0.1,1.1,0.3,1.4,0.4l0,2.2
			l-0.2,0c-0.4-0.3-0.9-0.5-1.4-0.7c-0.5-0.2-1.1-0.3-1.6-0.3c-0.5,0-0.8,0.1-1.1,0.2s-0.5,0.3-0.5,0.5c0,0.2,0.1,0.4,0.2,0.5
			s0.5,0.2,1,0.3c0.3,0.1,0.6,0.1,0.9,0.2c0.3,0.1,0.7,0.1,1,0.2c0.7,0.2,1.3,0.5,1.6,0.9C98.5,23.7,98.7,24.2,98.7,24.8z"/>
		<path d="M34,41.5l-6.8,0l0-2.1l1.9,0l0-7.5l-1.9,0l0-2.1l6.8,0l0,2.1l-1.9,0l0,7.5l1.9,0L34,41.5z"/>
		<path d="M45.1,41.5l-2.8,0l0-4.4c0-0.4,0-0.7-0.1-1.1c0-0.4-0.1-0.6-0.2-0.8c-0.1-0.2-0.3-0.3-0.5-0.4c-0.2-0.1-0.5-0.1-0.8-0.1
			c-0.3,0-0.5,0-0.8,0.1s-0.5,0.2-0.9,0.4l0,6.2l-2.8,0l0-8.8l2.8,0l0,1c0.5-0.4,1-0.7,1.4-0.9c0.5-0.2,1-0.3,1.5-0.3
			c0.9,0,1.7,0.3,2.2,0.8c0.5,0.6,0.8,1.4,0.8,2.5L45.1,41.5z"/>
		<path d="M53.4,31.4h-0.2c-0.1,0-0.3-0.1-0.5-0.1s-0.4-0.1-0.6-0.1c-0.6,0-0.9,0.1-1.1,0.3c-0.2,0.2-0.3,0.6-0.3,1.1v0.1l2.2,0
			l0,1.9l-2.1,0l0,6.9l-2.8,0l0-6.9l-1.2,0l0-1.9l1.2,0v-0.2c0-1.1,0.3-1.9,0.9-2.4c0.6-0.5,1.4-0.8,2.6-0.8c0.4,0,0.8,0,1.1,0
			c0.3,0,0.6,0.1,0.9,0.1L53.4,31.4z"/>
		<path d="M63.4,37.2c0,1.4-0.4,2.6-1.3,3.4s-2,1.2-3.5,1.2s-2.7-0.4-3.5-1.2s-1.3-2-1.3-3.4c0-1.5,0.4-2.6,1.3-3.4
			c0.8-0.8,2-1.2,3.5-1.2c1.5,0,2.7,0.4,3.5,1.3C63,34.6,63.4,35.7,63.4,37.2z M59.9,39.3c0.2-0.2,0.3-0.5,0.4-0.8
			c0.1-0.3,0.1-0.8,0.1-1.3c0-0.5,0-0.9-0.1-1.3s-0.2-0.6-0.4-0.8c-0.2-0.2-0.4-0.4-0.6-0.5c-0.2-0.1-0.5-0.1-0.8-0.1
			s-0.5,0-0.7,0.1s-0.4,0.2-0.6,0.4c-0.2,0.2-0.3,0.5-0.4,0.8s-0.2,0.8-0.2,1.3c0,0.5,0,0.9,0.1,1.2c0.1,0.4,0.2,0.6,0.4,0.8
			c0.2,0.2,0.4,0.4,0.6,0.4s0.5,0.1,0.8,0.1c0.3,0,0.5,0,0.7-0.1C59.6,39.6,59.8,39.5,59.9,39.3z"/>
		<path d="M71.8,35.5h-0.2c-0.1,0-0.3-0.1-0.6-0.1c-0.3,0-0.5,0-0.7,0c-0.4,0-0.8,0-1.1,0.1s-0.6,0.1-1,0.3l0,5.9l-2.8,0l0-8.8
			l2.8,0l0,1.3c0.6-0.5,1.2-0.9,1.6-1.1c0.5-0.2,0.9-0.3,1.3-0.3c0.1,0,0.2,0,0.3,0c0.1,0,0.2,0,0.3,0L71.8,35.5z"/>
		<path d="M81.9,35.3l0,6.2l-2.8,0l0-4.4c0-0.4,0-0.8,0-1.1c0-0.3-0.1-0.5-0.2-0.7s-0.2-0.3-0.4-0.4s-0.5-0.1-0.8-0.1
			c-0.3,0-0.5,0.1-0.8,0.2c-0.3,0.1-0.5,0.2-0.7,0.4l0,6.2l-2.8,0l0-8.8l2.8,0l0,1c0.5-0.4,0.9-0.7,1.4-0.9c0.4-0.2,0.9-0.3,1.5-0.3
			c0.6,0,1.1,0.1,1.5,0.4c0.4,0.3,0.8,0.6,1,1.1c0.6-0.5,1.1-0.8,1.6-1.1c0.5-0.3,1.1-0.4,1.6-0.4c0.9,0,1.7,0.3,2.2,0.9
			s0.7,1.4,0.7,2.5l0,5.7l-2.8,0l0-4.4c0-0.4,0-0.8,0-1.1c0-0.3-0.1-0.5-0.2-0.7c-0.1-0.2-0.2-0.3-0.4-0.4s-0.5-0.1-0.8-0.1
			c-0.2,0-0.5,0-0.7,0.1C82.5,35,82.3,35.2,81.9,35.3z"/>
		<path d="M95.6,40.6c-0.2,0.1-0.3,0.3-0.6,0.4c-0.2,0.2-0.4,0.3-0.6,0.4c-0.3,0.1-0.6,0.2-0.9,0.3c-0.3,0.1-0.6,0.1-1,0.1
			c-0.8,0-1.5-0.3-2.1-0.8c-0.6-0.5-0.8-1.2-0.8-2c0-0.6,0.1-1.2,0.4-1.6c0.3-0.4,0.7-0.7,1.2-1c0.5-0.2,1.2-0.4,1.9-0.5
			c0.8-0.1,1.6-0.2,2.4-0.2v0c0-0.5-0.2-0.8-0.6-1s-1-0.3-1.8-0.3c-0.5,0-1,0.1-1.5,0.2c-0.5,0.2-0.9,0.3-1.1,0.4h-0.3l0-2.1
			c0.3-0.1,0.8-0.2,1.5-0.3c0.7-0.1,1.3-0.2,2-0.2c1.6,0,2.8,0.2,3.5,0.7c0.7,0.5,1.1,1.3,1.1,2.3l0,6l-2.8,0L95.6,40.6z M95.6,39.3
			l0-1.8c-0.4,0-0.8,0.1-1.2,0.1c-0.4,0.1-0.8,0.1-1,0.2c-0.3,0.1-0.5,0.2-0.6,0.4c-0.1,0.2-0.2,0.4-0.2,0.7c0,0.2,0,0.3,0,0.4
			s0.1,0.2,0.2,0.3c0.1,0.1,0.3,0.2,0.4,0.2c0.2,0,0.4,0.1,0.8,0.1c0.3,0,0.6-0.1,0.9-0.2C95.1,39.6,95.4,39.5,95.6,39.3z"/>
		<path d="M105.5,41.8c-0.8,0-1.5-0.1-2.1-0.3s-1.2-0.5-1.7-0.8c-0.5-0.4-0.8-0.9-1.1-1.4c-0.3-0.6-0.4-1.3-0.4-2
			c0-0.8,0.1-1.5,0.4-2.1c0.3-0.6,0.7-1.1,1.1-1.5c0.5-0.4,1-0.6,1.6-0.8c0.6-0.2,1.3-0.3,1.9-0.3c0.6,0,1.2,0.1,1.7,0.2
			c0.5,0.1,1,0.3,1.4,0.5l0,2.4h-0.4c-0.1-0.1-0.2-0.2-0.4-0.3s-0.3-0.2-0.6-0.4c-0.2-0.1-0.4-0.2-0.7-0.3c-0.3-0.1-0.6-0.1-0.9-0.1
			c-0.7,0-1.3,0.2-1.7,0.7c-0.4,0.5-0.6,1.1-0.6,1.9c0,0.8,0.2,1.5,0.6,1.9c0.4,0.4,1,0.7,1.8,0.7c0.4,0,0.7,0,1-0.1
			c0.3-0.1,0.5-0.2,0.7-0.3c0.2-0.1,0.3-0.2,0.5-0.3c0.1-0.1,0.3-0.2,0.4-0.3h0.4l0,2.4c-0.4,0.2-0.9,0.4-1.4,0.5
			C106.7,41.8,106.1,41.8,105.5,41.8z"/>
		<path d="M113.3,31.6l-3,0l0-2.1l3,0L113.3,31.6z M113.2,41.6l-2.8,0l0-8.8l2.8,0L113.2,41.6z"/>
		<path d="M124.8,37.2c0,1.4-0.4,2.6-1.3,3.4s-2,1.2-3.5,1.2s-2.7-0.4-3.5-1.2s-1.3-2-1.3-3.4c0-1.5,0.4-2.6,1.3-3.4
			c0.8-0.8,2-1.2,3.5-1.2c1.5,0,2.7,0.4,3.5,1.3C124.4,34.6,124.8,35.8,124.8,37.2z M122.8,28.5v0.2l-2.8,2.9l-1.9,0l1.9-3.1
			L122.8,28.5z M121.4,39.3c0.2-0.2,0.3-0.5,0.4-0.8c0.1-0.3,0.1-0.8,0.1-1.3c0-0.5,0-0.9-0.1-1.3c-0.1-0.3-0.2-0.6-0.4-0.8
			c-0.2-0.2-0.4-0.4-0.6-0.5s-0.5-0.1-0.8-0.1s-0.5,0-0.7,0.1c-0.2,0.1-0.4,0.2-0.6,0.4c-0.2,0.2-0.3,0.5-0.4,0.8s-0.2,0.8-0.2,1.3
			c0,0.5,0,0.9,0.1,1.2c0.1,0.4,0.2,0.6,0.4,0.8c0.2,0.2,0.4,0.4,0.6,0.4c0.2,0.1,0.5,0.1,0.8,0.1c0.3,0,0.5,0,0.7-0.1
			S121.2,39.5,121.4,39.3z"/>
		<path d="M135.7,41.6l-2.8,0l0-4.4c0-0.4,0-0.7-0.1-1.1c0-0.4-0.1-0.6-0.2-0.8c-0.1-0.2-0.3-0.3-0.5-0.4c-0.2-0.1-0.5-0.1-0.8-0.1
			c-0.3,0-0.5,0-0.8,0.1s-0.5,0.2-0.9,0.4l0,6.2l-2.8,0l0-8.8l2.8,0l0,1c0.5-0.4,1-0.7,1.4-0.9c0.5-0.2,1-0.3,1.5-0.3
			c0.9,0,1.7,0.3,2.2,0.8c0.5,0.6,0.8,1.4,0.8,2.5L135.7,41.6z"/>
	</g>
</g>
</svg>
