<?xml version="1.0" encoding="utf-8"?>
<!-- Generator: Adobe Illustrator 19.1.0, SVG Export Plug-In . SVG Version: 6.00 Build 0)  -->
<svg version="1.1" id="Layer_1" xmlns="http://www.w3.org/2000/svg" xmlns:xlink="http://www.w3.org/1999/xlink" x="0px" y="0px"
	 viewBox="0 0 129.2 60.7" enable-background="new 0 0 129.2 60.7" xml:space="preserve">
<g>
	<g>
		<path fill="#B1648A" d="M116.3,51c0.3,0.2,0.8,0.1,0.7-0.4l-1-0.3L116.3,51z"/>
		<path fill="#B1648A" d="M118.2,48.1c-0.5-0.5-1.3-1.1-2.2-0.8c1,0.5,0.6,0.6,1.7,1.2c0.1,0.4-0.3,0.8-0.7,0.7
			c0.3,0.2-0.2,0.7,0.4,0.9c0.8-0.6,0.8-1.3,0.2-2C117.7,47.9,118,48,118.2,48.1z"/>
		<path fill="#B1648A" d="M114.1,8.6l0.3,0.1C114.3,8.6,114.2,8.6,114.1,8.6z"/>
		<path fill="#B1648A" d="M87.6,8c0.2,0,0.3-0.1,0.3-0.2C87.7,7.9,87.6,7.9,87.6,8z"/>
		<path fill="#B1648A" d="M83.1,6.9c0.1,0,0.2,0,0.3,0.1C83.3,6.9,83.2,6.9,83.1,6.9z"/>
		<path fill="#B1648A" d="M114.1,8.6c0,0-0.2-0.1-0.4-0.2c-0.2-0.1-0.4-0.2-0.4-0.2c0,0.2,0.1,0.2,0.2,0.3
			C113.6,8.5,113.9,8.5,114.1,8.6z"/>
		<path fill="#B1648A" d="M115.8,42.2c0,0.1,0.1,0.3,0.3,0.4c0-0.1-0.1-0.2-0.1-0.4C115.9,42.2,115.9,42.2,115.8,42.2z"/>
		<path fill="#B1648A" d="M120.5,17.2l0,0.2c0.1,0.1,0.2,0.1,0.4,0.2L120.5,17.2z"/>
		<path fill="#B1648A" d="M120.7,26.1c0-0.2-0.8-0.3-1.2-0.3c0.3,0.1,0.5,0.3,0.6,0.4C120.3,26.2,120.4,26.1,120.7,26.1z"/>
		<path fill="#B1648A" d="M119.2,40.2l0.1,0.3C119.3,40.4,119.3,40.3,119.2,40.2z"/>
		<path fill="#B1648A" d="M120.7,8.8c0.1-0.1,0.2-0.3,0.3-0.4C120.9,8.6,120.8,8.7,120.7,8.8z"/>
		<path fill="#B1648A" d="M108,47c0,0.1,0,0.1,0,0.1C108.1,47.1,108.1,47,108,47z"/>
		<path fill="#B1648A" d="M118.3,51.2l-0.1,0c0,0.2,0,0.3,0,0.5L118.3,51.2z"/>
		<path fill="#B1648A" d="M74.9,5.9C74.9,5.9,74.9,5.9,74.9,5.9C75.2,5.8,75.1,5.8,74.9,5.9z"/>
		<path fill="#B1648A" d="M6.1,20.1c0.8-0.9,1,1.4,1.8,0.1C7.6,20.4,6.6,19.1,6.1,20.1z"/>
		<path fill="#B1648A" d="M115.9,42c0-0.1,0-0.2,0-0.4C115.9,41.8,115.9,41.9,115.9,42z"/>
		<path fill="#B1648A" d="M7.9,20.2L7.9,20.2L8,20.1C8,20.2,7.9,20.2,7.9,20.2z"/>
		<path fill="#B1648A" d="M56,6.4c0,0.1,0.1,0.3,0.2,0.4C56.2,6.6,56.1,6.5,56,6.4z"/>
		<path fill="#B1648A" d="M70.1,7.6l-0.3-0.1C69.9,7.5,70,7.6,70.1,7.6z"/>
		<path fill="#B1648A" d="M48.6,7.6c-0.2-0.1-0.3-0.2-0.5-0.1c0,0,0,0.1,0.1,0.1C48.3,7.5,48.4,7.4,48.6,7.6z"/>
		<path fill="#B1648A" d="M41,7.6c0,0.1,0.1,0.1,0.1,0.2c0.1,0,0.2,0,0.2,0L41,7.6z"/>
		<path fill="#B1648A" d="M84.8,47.4c0.2,0.2,0.3,0.5,0.4,0.8C85.1,47.6,86.2,47.4,84.8,47.4z"/>
		<path fill="#B1648A" d="M116.3,42.2c-0.2,0-0.3-0.1-0.4-0.2c0,0.1,0,0.2,0,0.3C116.1,42.2,116.2,42.2,116.3,42.2z"/>
		<path fill="#B1648A" d="M48.3,14.2l-1.2-0.1C47.5,14.2,47.9,14.2,48.3,14.2z"/>
		<path fill="#B1648A" d="M30.1,47.6l0.3-0.1C30.3,47.4,30.2,47.5,30.1,47.6z"/>
		<path fill="#B1648A" d="M43.5,14.2c-0.2-0.3-0.4-0.5-0.7-0.6c-0.1,0.1-0.1,0.1-0.1,0.2L43.5,14.2z"/>
		<path fill="#B1648A" d="M85.2,48.2L85.2,48.2L85.2,48.2z"/>
		<path fill="#B1648A" d="M93.2,46.2c-1.2,0-0.5,1.1-0.8,1.7c-1.4,0.3-0.6-0.8-1.1-1.4c-0.9,0.3-1.5,1.3-2.2,1.3
			c0-0.2-0.2-0.2,0-0.5c-0.9,0.9-2.7,0-3.8,1.2c-0.1-0.1-0.1-0.2-0.1-0.3c0.2,0.6,0.2,1.1,0.2,1.5c-0.5,0-1,0.7-1.2,0
			c0.3,0,0.3-0.3,0.5-0.5l-0.5,0.3c-0.5-1,0.7-0.4,0.7-1.1c-1.1,0.3-2.3,1.2-3.1,0.9c-0.2-1,1.9-0.3,0.8-1.2l1.3,0.4
			c-1-1.6,0.8,0.1-0.1-1.6c-1.7-0.3-1.8,0.5-3.5,0.2c-0.4,0.6,0.1,0.8-0.2,1.4c-2.3,1-1.8-2.6-3.6-1.2c-0.4,0.7-0.6,2-1.8,1.3
			l0.4-1.2c-1.6-0.1-0.9,1.7-2.6,0.9c0.3-0.5,1.3-0.4,1-0.5c-1.1-0.9-0.8,0.7-1.6,0.7l-0.2-1c-1.7,0.2-3.6,0.9-5.5,1.1
			c0.1-0.3,0.4-0.6,0-0.9c-2.4,0.5-5.1-0.1-7.4-0.7L58,47.7c-0.2,0-0.4-0.4-0.2-0.6c-0.9-0.3,0,0.6-0.5,0.9
			c-0.5,0.1-0.7-0.5-0.3-0.8c-1.6,0.7-4.5,1.6-6.2,0.7l0.3-0.3c-1.3-0.4-1.5,1.8-2.7,1l0.2-0.2c-2.8-0.4-5.9,0.4-8.1-0.9
			c-0.4,1.3-2.8-0.6-3,1.2c-1.6-0.9-1.1-1.2-3.4-1.8c-0.6-0.1-0.9,1.1-1.6,1.3l0-0.9l-1,1l-0.5-1.1l-0.7,0.2
			c0.3,0.1,0.6,0.4,0.5,0.7c-1.1,0.4-2.7-0.6-2.7-1.1l-2.6,0.8c0.1-0.4,0.5-0.5,0.8-0.7c-1.4,0.9-0.3-1-1.5-0.1
			c0.2,0.2-0.1,0.6-0.1,0.7c-0.6-0.6-2.1-0.6-3.1-0.3l0.2-0.6c-1.9-0.2-4,0.3-6.2,0.3c0.8,0.3,0.6,1.4,0,1.5l-0.3-1
			c-0.4,0.6,0.7,0.4-0.2,1.1c-0.8-0.1-0.5-1.1-0.1-1.4c0,0-1,0.3-0.8,0.3c0-0.3,0.1-0.4,0.1-0.8c-0.1,0.3-0.1,0.1-0.1-0.1
			c0-0.2,0.1-0.3-0.2,0.2l0.1-0.3c-0.1,0-0.2,0.1-0.4,0.2c-0.1,0-0.2,0-0.2-0.2c-0.8,0.4-0.7,0.2-1.3,0.2c0.3-0.2,0.9-2.1,0.9-3.5
			c-0.4-1.1-0.7-0.3-1.2-0.8c0.8-0.1,0.7-1.6,1.2-0.8c-0.1-1.9-0.2-2.4-0.8-4.7c-0.3,0.3-0.5,0.5-0.7,0.4c-0.1-0.4,0.3-1,0.7-0.9
			l0.1,0.1c-1.2-2.6,2.2-6.1,0.6-8.2l0.1,0.1l-0.8-2.2c0.1-1,0.6,0.6,1.1-0.1c-1.3-2.4,0.2-3.7-0.7-5.7c1.1-0.8,1.1-2.1,1-3.5
			c-0.1-0.7-0.2-1.5-0.2-2c0-0.1,0.1-0.2,0.5-0.1l-0.5-0.2c-0.5-0.3,0.3,0,0.4,0.1c-0.4-0.2-0.5-0.2-0.8-0.4
			c-0.1-0.3-0.2-0.5-0.2-0.8c0.3,0,0.6,0.1,0.9,0.2c0.1,0.1,0.3,0.1,0.4,0.2l0.1,0.1c0.1,0,0,0,0.2,0.1l0.7,0.1
			c1.9,0.3,3.8,0.7,5.7,0.9c1.7,0.1,0.9-2.8,3-1.5l-0.6,1c3.4-1.2,6.9,0,10.1-1c-0.2,0.2-0.2,0.5-0.5,0.5c0.7,0.7,2.6,0,2.6-0.6
			c0.5,0.1,0.1,0.5,0.4,0.8c0.7,0.4,1.7-0.9,2.1-0.2c0.1,0.1-0.2,0.2-0.3,0.3c0.5-0.3,2.1,0.1,1.7-0.7c1.2,0.4,2.4-0.4,3.3,0.1
			c0.6-0.9,2.1,0.4,2.3-0.9c-0.1,1.4,2.2,1.1,2.9,0.5c-0.3,0.4,0.7,0.4,0.4,1c0.9,0,1.7-0.3,1.5-1c1.6,1.6,3.3-1.3,4.2,0.8
			c2.6-0.7,5.1-1.2,7.5-1.5c-0.1,1.4-2.6,0.1-2.5,1.6c2.3-0.6,3.6-1.7,5.8-1.4c0.6,0.2-0.3,0.6-0.5,0.8c2.3-0.6,4.4,0.1,6.4-0.6
			c0,0.1-0.2,0.3-0.4,0.4c0.4,0,0.9,0.2,0.9-0.4L70.9,13c-0.6-0.9,1.6-1.9,1.6-2.3c-0.7,1.8,2,0.4,0.9,2.7c0.3-0.1,0.6-0.4,0.5-0.8
			c0.4,0.1,0.5,0.4,0.1,0.8c1.4-0.3,0.9-1,2.2-1c0,0.3-0.3,0.4-0.4,0.8c0.6-0.6,1.3-1.2,2.4-0.9c-0.1,0.2,0.1,0.4-0.3,0.4
			c1.9-0.1,3.2-1.5,5.2-1c-0.6,1.3,0.7,0.4,0.8,1.5l1.1-0.3l-0.4-0.5c1,0,1.8-0.8,2.6-0.4l-0.7,0.5l1.8-0.2l-1-0.4
			c1-0.6-0.1-1.4,1.2-1.1c-0.3,0.1,1,0,1.5,0.7l0,0c0.5-0.4,1-0.7,1.7-0.5c0.2,0.4-0.1,1.2,0,1.5c0.5-0.9,2.3-0.3,2.8-1.3
			c-0.2,0.2-0.2,0.8-0.1,0.9l0.4-0.8c0.4,0.2,0.5,0.4,0.4,0.8c1.3,0.1-0.4-1.4,1.2-0.8c-0.1,0.1-0.1,0.2-0.3,0.3
			c1.6,0.3,3.1-0.5,4.6-0.1c0.4,1.1-1.3,0.3-0.8,1.2c2.1-0.2,4.4-1.4,6.4-1.1l-0.4-0.1c0.3-1.6,1.5,0.8,2.6,0
			c-0.3,0.1-0.3,0.9-0.3,0.7c1.4,0.3,2.9-0.4,5-0.9l-0.3,0.4c0.2,0.1,0.5,0.1,0.7,0.2c0.2,0,0.3,0.1,0.5,0.1c0.3,0,0.7,0,0.9,0.1
			c0.4-0.4,0.7-0.3,0.8-0.9c0.2,0.6,0.3,0.8,0.7,0.8c-0.1,0.6,0.3,0.9,0.6,1.5c0.1,0.3,0.2,0.6,0.1,1c0,0.3-0.2,0.8-0.6,1.3
			c0-0.3-0.4-0.7-0.4-0.5l0.4,2.1c0.7-0.2,0.4-0.3,1-0.7c0.4,0.3,0.7,0.9,0.7,1.4c-0.5-0.9-1.1,0-1.5,0.4c0.2-0.1,0.4,0.1,0.7,0
			c-1.2,1.1,1.4,0.2,0.6,1.7l-0.4-0.1c0.2,0.6,0.7,1.1,0.6,1.7c-0.8,0.2-0.4-0.6-1-0.6c0,0.8,1.5,1.7,0.7,2.4
			c-0.2-0.4-0.2-0.9-0.4-1.2c-0.9,0.8-0.7,0.9-0.9,1.5l0-0.1l-0.4,1.4l0.3-0.4c2.1,1.1,0.4,2.1,1.8,3.6c-1.3-1.4-0.8-0.2-1.7-0.3
			c-0.3,0.4-0.5,0.9-0.8,0.8c0.7,0.7-0.6,1.1,0.5,2.1c-0.3,0,0,0.7-0.8,0.6c0.2,0.9,0.5-0.2,0.9-0.1c1,1.3-1.2,3.2,0.2,5.1
			c0.6,1.7,1.6,2,2,3.5c-0.5,0.5-1.1-0.4-1.1-0.4c-0.4,0.8-0.4,1.5,0,2.3c-0.3-0.2-0.5,0-0.8,0.2c0.1,0.6,1.1,0.4,0.6,1.3
			c-0.3-0.1-0.8-0.3-1.2-0.6c0.3,0.7,0.8,1.5,1.1,2.3c-0.5,0.2-0.8-0.5-1.1-0.7c0.2,0.9,0.5,2.3,1.3,2.5l0.3-0.6
			c0,0.3-0.7,0.2-0.8-0.1c-0.6-0.7,0.3-1.1,0.6-1.1l0.2,0.6c1.7-0.6-0.3-2.2-0.2-3.3l1.2,0.5l-1-1.1c0.3-0.2,1-0.4,1.2,0.1
			c0.6-0.8-0.4-0.7,0.2-1.4c0.1-0.1,0.2,0,0.2,0l-0.4-0.8c0.3,0.2,0.9-0.1,0.7,0.3c0.7-1.4-0.9-2.3,0-2.8l0.1,0.1
			c-0.4-1.9-0.9-0.2-2-1.6l2.3-1l-0.9-0.2c0-0.2,0.1-0.6,0.5-0.5c-0.6-0.7-0.4,0.1-1-0.3c0.8-1-0.4-2.7,1.1-2.9
			c-0.7-0.3-0.5,0.9-1-0.1c1.6-0.3-0.3-1.2,0.5-2.1c0.8,0.3,0.4,1.1,1.1,0.2c-1.4-0.5,0.3-1.7,0-2.5c-1.1,0-0.5-1.6-0.8-2.9
			c0.4,0.1,0.6-2.3,1-3.5l0.2,0c-1.1-0.2-0.9-1.4-1.1-2.3c0.7,0,0.9,0.2,1.2,0.7l0-0.8c-0.4-0.2-0.5-0.4-0.7-1l0.8,0.2
			c0-0.5-0.3-1.1-0.4-1.7c-0.1-0.3-0.1-0.8-0.2-1.2c0-0.4,0-0.9,0.2-1.4c-0.4,0.1-0.9,0.7-1.4,0.9c-0.5,0.3-1,0.3-1.2-0.2
			c0.4-0.2,1.1-0.6,1.3-0.3c-0.1-0.1-0.3-0.3-0.2-0.7c0,0,0.7,0.3,0.7,0.4c0.3-0.9-0.6-0.1-0.5-0.7c0.6-0.3,0.4-0.7,0.9-0.9
			c0.1,0.1-0.2,0.7,0,0.8c0.1-0.8,0.5-2,0.9-2.7c-0.3,0.4-0.8,0.6-0.9,0.2c0-0.3,0-0.5,0-0.6c-0.4-0.2,0.6-0.7,0.1-1
			c-0.7,0.4-1.4,0-2.1,0.9c-0.4,0-0.2-0.4-0.3-0.7c-1,0.4-3.8,0.1-3.1,1.1l0.2,0.1c0,0-0.1,0-0.1,0h0h0c-0.6,0.2-1.2,0.3-1.6,0.3
			c-0.5,0-1-0.1-1.4-0.2c-1-0.2-1.9-0.4-2.8-0.2l0-0.3c-1.1,0.3-2.4,0.2-3.2,0.8c-0.3,0-0.8-0.5-0.6-0.9c-0.8,0.2-0.9,0.6-2.1,0.1
			c0.8-0.5-0.3-0.5,0.9-0.4c-1.1-0.3-1.3-0.7-2.5,0.1c0.4-0.8-0.8-1-1.3-0.7l0.8,0.5c-0.6,0.1-1.1,0-1.6,0l0.3-1
			c-2.2-1.2-4,2.1-5.7,0c-0.6,0.7,1.2,0.5,0.7,1.3c-1-0.1-2.1-1.6-2.4-1.6c-1.4-0.6-1.3,1.5-2.8,1.1c0.2,0.4,0.4,1.3-0.7,1.6
			c-1-0.1-1.3-1.5-0.6-1.8c0.2,0,0.4,0.1,0.4,0.2c0.3-0.1,0.8-0.3,0.4-0.7l-0.1,0.4c-0.5-0.4-1.9-0.3-1.6-0.9
			c-0.8,0.3-0.3,0.6,0.2,0.8c-1.3-0.5-2.1,0-3.4-0.4c0.2,0.2,0.4,0.6,0.2,0.6c-2-0.4-0.9,0.7-2.2,0.8c-0.8-0.5,0.3-1.3-1.1-0.8
			c-0.8-0.4-0.2-0.9,0.2-1.2c-1.2,0.7-2.3-0.5-3-0.6l0.6-0.3c-0.4,0.2-0.7,0.2-1,0.2l0.4,0.7c-0.4-0.1-0.7-0.1-0.7-0.4
			c-0.4,0.5,0.3,1.2-0.5,1.8c-0.5-0.4-1.5,0.4-1.7-0.6c1.6,0.3-0.2-0.9,1.2-1.1c-0.3,0.1-0.6,0.1-1,0c-0.1-0.1,0.1-0.2,0.2-0.2
			c-1.5-0.8-0.7,1.1-2.3,1c0.2-0.5-0.4-1-0.6-0.9c0.6,0,0.3,0.9-0.3,1.3c-1-0.4-1.1,0.3-1.6,0.3l0.6,0.2c-0.2,0.5-0.7,0.5-1.4,0.6
			c-0.1-0.4,0.6-0.3,0.4-0.5c-0.8,0.9-1.8-1-2.9-0.3c-0.5-0.4,0-1-0.5-1.2C65.1,7,65,5.6,63.7,6.2c0.4,0.7,0.4,0.5-0.5,1.2l2.1-0.5
			L64,8c0.6,0,1.4-0.4,1.7-0.3c-0.6,0.6-0.6,0.4-0.3,1c-0.9-1.1-1.7,0.6-2.8-0.1l0-1.8C61.2,6,60,7.7,58,7.2l0.6,0.3
			c-0.3,0.7-1.2,0.1-1.9,0.4c0.1-0.6-0.3-0.8-0.6-1.2c0,0.4-1.4,0-1.6,1.1l-0.9-0.8c-1.6-0.3-1.8,1.7-3.4,1.5
			c0.5-0.6-0.2-1.1,0.8-1.5c-0.5,0-1-0.1-1,0.3c-0.3-0.4-1.4,0.8-1.9,0.2c-0.2,0.3-0.3,0.9-0.9,0.8c-0.1-0.1,0-0.3,0-0.3
			c0,0.3-0.9,0.4-0.4,1.1c-1.6-1.8-4.4,0.1-5.8-1.5c-1.1,0.2-2.5,0.4-3.5,0.4c0.1-0.2,0-0.3,0.2-0.2C36.5,7.4,37,9.6,35.4,9
			c-0.8-1,0.8-0.5,0.3-0.9c-0.2-1.9-1.9,0.3-3-0.9L33,7.2c-0.8-0.7-2,0.7-3.3,0.6c0,0,0.1-0.2,0-0.3c-0.9,1-2.7,1.3-3.9,1.6
			c0.4-0.8,0.6-0.4,0.3-1.2c-0.6,0.1,0.2,1.2-1,1.5c-0.4-0.4-1.2-0.8-1.3-1.6l1.1,0c-0.6-1.1-1.4,0-2-0.1L23,7.1
			c-1.7,0.2-1.7,1.3-3.5,1.2l0.2,0.4c-1,1.2-0.8-0.7-1.8,0.2l-0.3-1.2c-0.7,0.3-2.2,1.1-3.5,1.4c0.8-0.9,2-1.3,2.9-1.8
			c-0.6,0-2.2,0.1-2.5,0.7c0.3-0.1,0.6-0.4,0.8-0.2c-0.4,0.5-0.8,0.8-1.5,1c-0.6,0.2-1.3,0.3-2,0.3c-0.4-1.5-2.5-1.3-4.6-1.5
			C7.1,8.5,6.9,9.3,6.3,9.4c0.2,1.1,0.3,2,0.3,2.9c0,0.5,0,0.9,0,1.4l0,0.7l0,0.4l0,0.2c-0.2,1.2-0.4,2.4-0.4,3.7
			c1.8-0.9,0.1,0.8,1.9,0.6c0.1,0.6,0.1,0.8,0,0.9l-1.1,1.9c-0.5,0.4-0.4-0.6-0.8-0.5c-0.1,1.3-0.8,0.6-1.3,1.5
			c0.7-0.2,0.9,0.5,0.7,1.2l0.8-1.1c1,1.9-1.5,1.6-0.6,3.5l-0.6-0.6c0.3,1,0,3.6,1.5,4.5c-0.2,0.2-0.7,0.4-0.8,0
			c-0.2,2.3,1.6,5.2,0.7,7L6,37.4c0.1,0.4,0.8,0.8,0.4,1.3c-0.2,0-0.4-0.2-0.5,0c0.2,0.2,0.8,1.1,0.5,1.7l-0.5-0.5
			c-0.6,2.3,1.2,3.5,1.5,5.4c-0.3,0-0.6,0.1-0.8,0.3c-0.1,0.1-0.2,0.2-0.3,0.3c0,0.1-0.1,0.1-0.1,0.2c0,0.1-0.1,0.2-0.1,0.3
			c-0.3,1-0.5,2.2-0.6,3.1l-0.2,0c-0.1,2.2,0.1,4,0.4,5.4c2.7-0.4,5-0.9,7.2-1.2c0.3,0.2,0.6,0.3,1,0.4c0.2,0,0.4,0.1,0.6,0.2
			c0.1,0,0.3,0.1,0.4,0.1c0.6,0.1,1.3,0.2,2,0.2c1.4,0.1,2.9,0.1,4.1,0.5c-0.4-0.2,0.1-1,0.5-1.2c0.6,0.3,1.6-0.9,1.5,0.3l-0.2,0
			c0.4,1.2,1.6,0.9,2.5,0.9l0.2-1.6c2.4,2.3,6.3-0.8,7.6,1.2c0.6-0.4,1.3-0.4,1.9-0.8l0,0.8c1.6,0.2,2.4,0.3,4.4,0.1l-0.4,0.6
			c1.1,0.1,1.4-2.4,2.4-2.5l0.3,1.3c1.9,0,3.9,1.1,5.8-0.1c0,0.2-0.1,0.6-0.4,0.6c0.9,0,3.5,0.9,3.2-0.9c0,1.1,2,0.1,3.1-0.4
			l-0.2,0.8c0.9-1.1,0.9-1.4,2.2-1.7c0.3,0.1,0.3,0.7-0.1,0.5c1,0.4,0.8-0.8,2-0.3l-0.4,0.5c1,0.1,0.9-0.2,1.5-0.8
			c0.6-0.3,1.9,0.2,2.1,1c0.1-0.5,0.7-1.1,1.3-0.9c0.1,0.3-0.1,0.5-0.2,0.5c1.7,0.6,2.5-1,3.7-0.2c0,0.3,0.1,0.4,0.2,0.5
			c-1.3,0-2.4-0.1-2.3-0.1c0,0.8,1.1,0.9,0.2,2c0.9-0.6,2.4-1.8,3.4-1.5c0.1,0.1,0.1,0.1,0.1,0.3l-0.1,0.1c0.2,0.1,0.5,0,0.7-0.1
			c0.3,0.1,0.6,0.2,0.9,0.2c0.1,0.6,1.2,0.3,1.8,0.4c0-0.8,0.7-0.7,0-1.4c0.1,0.1-0.1,0.1-0.5,0.1c-0.1,0-0.2,0-0.2,0.1
			c0,0,0,0,0-0.1c-0.4,0-0.8,0-1.3,0.1c0.4-0.4,0.9-0.8,1.5-0.3c0.3-0.5,0.6-1.1,0.8-1.4c0.7,1.2,2.2,1.8,2.4,2.5
			c1.6-0.5,3.9-0.3,4.9-1.9c0.5-0.2,0.5,0.5,0.7,0.7c-0.3,0.2-0.6,0.1-0.7,0.4c0.9-0.4,2.8-0.2,3-1.3c1.2,0.5-0.7,1,1,0.8l-0.2,0.3
			c3.2,1.8,5.2-2.8,8.7-0.6c-0.2-0.1-0.4-0.2-0.4-0.4c4,1,8.3-0.9,12.3,0.6c1.1,0.3,1.3-0.4,1.9-0.9l0.2,0.9l1.2-1
			c1.7-0.8,2.9,2.2,5,0.8l-0.3-0.6c0.8,0.1,2.4-0.4,2.3,0.3c0.1-0.1,0.2-0.6,0.5-0.3l0,0.5l1.9-0.8c1.4,0.3-0.2,1.9,1.9,2
			c0.8-0.2,2.2-1.4,1.9-1.7c-0.3,0-0.8-0.3-0.8-0.8l0.7-0.2c0.1-1.4,0.7-2.8-1.1-3.8l-1.2,0.9l-0.4-0.7l1,0c-0.6-0.6-1-0.1-1.4,0.3
			c-0.1-0.4-0.3-0.6-0.5-0.7l-1.2,1.3c-0.1-0.5,0.5-1.1-0.3-1.4c-0.6,0.6,0.5,1.2-0.4,1.6c-0.6-0.6-0.4-1.2-1.1-0.6
			c-0.1-0.4,0-0.6,0.3-0.7c-0.6,0.4-1.6,0.2-1.9,0.9c-0.6-0.8-2.1,0.2-2-1.1c-0.2,0.3-1.1,1-1.6,1.1c1-1.6-2.1-0.1-1.8-1.8
			c-0.8,1.4-2.8,0.6-4.1,1.4c0.1-0.1,0.2-0.3,0.3-0.3c-0.8-0.1-1-0.5-1.5-0.8C99.2,48,98,48.3,97.4,49c-0.9-1.1,0.6-1.4,0.3-2.5
			c0,1-1.6,1-1.3,1.7c-0.7-0.7-0.6-0.3-1-1.3c-0.1,1.5-0.7,0.2-1.3,1.2c-1-0.7-0.3-1.4-1.4-0.9C92.2,46.7,93.2,46.2,93.2,46.2z
			 M66.2,48.7C66.2,48.7,66.2,48.7,66.2,48.7c0.2,0,0.4-0.1,0.6-0.1C66.6,48.7,66.5,48.7,66.2,48.7z M63.9,48.7c0.3,0,0.6,0,1,0
			c0.1,0.3,0,0.6-0.2,0.6C64.8,49.2,64.3,49,63.9,48.7z M68.7,54.6c-0.4,0.1-0.5,0-0.5-0.2c0.2,0,0.4,0,0.6-0.1c0,0,0-0.1,0-0.1
			C68.8,54.3,68.8,54.5,68.7,54.6z"/>
		<path fill="#B1648A" d="M69.4,53.5c0.1,0,0.1-0.1,0.1-0.1c-0.1-0.1-0.1-0.1-0.2-0.2c0,0.1-0.1,0.2-0.1,0.3
			C69.3,53.5,69.3,53.5,69.4,53.5z"/>
		<path fill="#B1648A" d="M114.5,8.7L114.5,8.7c0,0,0,0,0,0.1C114.5,8.8,114.5,8.7,114.5,8.7z"/>
		<polygon fill="#B1648A" points="32.6,47.1 32.6,47.3 32.8,47.2 		"/>
		<path fill="#B1648A" d="M116.7,18.4c-0.1,0-0.2,0.1-0.2,0.2C116.5,18.5,116.6,18.5,116.7,18.4z"/>
		<path fill="#B1648A" d="M116.5,23.8l-0.3,0.8C116.4,24.2,116.5,24,116.5,23.8z"/>
		<path fill="#B1648A" d="M116.1,27.9c0.1,0.1,0.3,0.1,0.4,0.1l0,0L116.1,27.9z"/>
		<path fill="#B1648A" d="M70.4,13.2c-0.1,0-0.1,0-0.2,0C69.8,13.4,70.1,13.3,70.4,13.2z"/>
		<path fill="#B1648A" d="M90,11.2c-0.2,0.2-0.4,0.3-0.6,0.4C89.7,11.7,90,11.7,90,11.2z"/>
		<path fill="#B1648A" d="M48.5,14.2C48.5,14.2,48.5,14.2,48.5,14.2c0,0-0.1,0-0.1,0L48.5,14.2z"/>
		<path fill="#B1648A" d="M88.5,11.6c0.3,0.2,0.6,0.1,0.9,0C89.1,11.6,88.7,11.5,88.5,11.6z"/>
		<path fill="#B1648A" d="M115.7,45.9l0,0.2c0.1,0,0.1,0,0.1,0L115.7,45.9z"/>
		<path fill="#B1648A" d="M115.8,46.1l0.1,0.2C115.9,46.2,115.9,46.1,115.8,46.1z"/>
		<path fill="#B1648A" d="M116.1,46.8l-0.2-0.5C115.9,46.5,115.9,46.7,116.1,46.8z"/>
		<path fill="#B1648A" d="M116.1,40.4l-0.3-0.1C115.9,40.4,116,40.4,116.1,40.4z"/>
		<path fill="#B1648A" d="M116,38.7c-0.1,0.4-0.7,1-0.5,1.6l0.2,0.1C115.3,40.1,116.5,39.1,116,38.7z"/>
		<path fill="#B1648A" d="M119.8,31.8l-0.2,1.4c0.3-0.2,0.8-0.6,0.8,0.1C121.4,31.5,119.7,33.6,119.8,31.8z"/>
		<path fill="#B1648A" d="M120.3,27.4c0.2,0.8,0.5,0,0.7,0C120.6,27,120.6,26.9,120.3,27.4z"/>
		<path fill="#B1648A" d="M104.5,8l0.1-0.8C104,7.4,104.6,7.6,104.5,8z"/>
		<polygon fill="#B1648A" points="98.5,12 99.1,12.5 99.3,11.8 		"/>
		<polygon fill="#B1648A" points="95,6.5 95.2,6.4 94.3,6.7 		"/>
		<path fill="#B1648A" d="M42.4,6.8l0.2,0.9C42.9,7.6,43,6.5,42.4,6.8z"/>
		<path fill="#B1648A" d="M19.7,7.8c-0.2-0.5-0.9-0.8-1.3-0.3C18.9,7.5,19.4,7.9,19.7,7.8z"/>
		<polygon fill="#B1648A" points="26.6,54.7 26.2,55 27,54.8 		"/>
	</g>
</g>
<g>
	<path fill="#A64D79" d="M45.2,34.5h-3l0-7.8l-2.2,5.1H38l-2.2-5.1l0,7.8H33l0-11.6h3.5l2.6,5.8l2.6-5.8h3.5L45.2,34.5z"/>
	<path fill="#A64D79" d="M56.6,30.6l-6.4,0c0,0.7,0.3,1.2,0.8,1.6c0.5,0.4,1.2,0.5,2.1,0.5c0.6,0,1.2-0.1,1.7-0.3s1-0.4,1.3-0.7h0.3
		V34c-0.6,0.3-1.2,0.4-1.8,0.6s-1.2,0.2-1.9,0.2c-1.8,0-3.1-0.4-4-1.2s-1.4-1.9-1.4-3.4c0-1.4,0.4-2.6,1.3-3.4s2.1-1.3,3.7-1.3
		c1.4,0,2.5,0.4,3.2,1.1s1.1,1.8,1.1,3.1L56.6,30.6z M53.8,28.9c0-0.6-0.2-1-0.4-1.3s-0.7-0.4-1.3-0.4c-0.5,0-1,0.1-1.3,0.4
		s-0.5,0.7-0.6,1.4L53.8,28.9z M55,21.4l0,0.2l-2.8,2.9h-1.9l1.9-3.1H55z"/>
	<path fill="#A64D79" d="M67.8,34.5h-3.3l-1.9-2.6l-1.9,2.6l-3.2,0l3.5-4.4l-3.4-4.4l3.3,0l1.8,2.6l1.9-2.6h3.2L64.3,30L67.8,34.5z"
		/>
	<path fill="#A64D79" d="M72.2,24.4h-3v-2.1h3V24.4z M72.2,34.5h-2.8l0-8.8h2.8L72.2,34.5z"/>
	<path fill="#A64D79" d="M79.4,34.7c-0.8,0-1.5-0.1-2.1-0.3c-0.6-0.2-1.2-0.5-1.7-0.8c-0.5-0.4-0.8-0.9-1.1-1.4
		c-0.3-0.6-0.4-1.3-0.4-2c0-0.8,0.1-1.5,0.4-2.1s0.7-1.1,1.1-1.5c0.5-0.4,1-0.6,1.6-0.8c0.6-0.2,1.3-0.3,1.9-0.3
		c0.6,0,1.2,0.1,1.7,0.2s1,0.3,1.4,0.5v2.4H82c-0.1-0.1-0.2-0.2-0.4-0.3S81.2,28,81,27.9c-0.2-0.1-0.4-0.2-0.7-0.3s-0.6-0.1-0.9-0.1
		c-0.7,0-1.3,0.2-1.7,0.7s-0.6,1.1-0.6,1.9c0,0.8,0.2,1.5,0.6,1.9c0.4,0.4,1,0.7,1.8,0.7c0.4,0,0.7,0,1-0.1s0.5-0.2,0.7-0.3
		c0.2-0.1,0.3-0.2,0.5-0.3c0.1-0.1,0.3-0.2,0.4-0.3h0.4V34c-0.4,0.2-0.9,0.4-1.4,0.5S80,34.7,79.4,34.7z"/>
	<path fill="#A64D79" d="M93.2,30.1c0,1.4-0.4,2.6-1.3,3.4s-2,1.2-3.5,1.2s-2.7-0.4-3.5-1.2s-1.3-2-1.3-3.4c0-1.5,0.4-2.6,1.3-3.4
		s2-1.2,3.5-1.2c1.5,0,2.7,0.4,3.6,1.2S93.2,28.6,93.2,30.1z M89.7,32.2c0.2-0.2,0.3-0.5,0.4-0.8s0.1-0.8,0.1-1.3
		c0-0.5,0-0.9-0.1-1.3s-0.2-0.6-0.4-0.8c-0.2-0.2-0.4-0.4-0.6-0.5s-0.5-0.1-0.8-0.1s-0.5,0-0.7,0.1s-0.4,0.2-0.6,0.4
		c-0.2,0.2-0.3,0.5-0.4,0.8s-0.2,0.8-0.2,1.3c0,0.5,0,0.9,0.1,1.2s0.2,0.6,0.4,0.8c0.2,0.2,0.4,0.4,0.6,0.4s0.5,0.1,0.8,0.1
		c0.3,0,0.5,0,0.7-0.1S89.6,32.4,89.7,32.2z"/>
</g>
</svg>
