<?xml version="1.0" encoding="utf-8"?>
<!-- Generator: Adobe Illustrator 19.1.0, SVG Export Plug-In . SVG Version: 6.00 Build 0)  -->
<svg version="1.1" id="Layer_1" xmlns="http://www.w3.org/2000/svg" xmlns:xlink="http://www.w3.org/1999/xlink" x="0px" y="0px"
	 viewBox="0 0 167.4 60.7" enable-background="new 0 0 167.4 60.7" xml:space="preserve">
<g>
	<g>
		<g>
			<rect x="12.6" y="9.3" fill="#C1383D" width="140.3" height="44.8"/>
			<g>
				<path fill="#C95156" d="M150.8,54.1c0.3,0.2,0.8,0.1,0.7-0.5l-1-0.4L150.8,54.1z"/>
				<path fill="#C95156" d="M152.7,50.5c-0.5-0.6-1.3-1.4-2.2-1c1,0.6,0.6,0.8,1.7,1.5c0.1,0.5-0.3,0.9-0.7,0.8
					c0.3,0.2-0.2,0.8,0.4,1.1c0.8-0.7,0.8-1.6,0.2-2.5C152.2,50.3,152.5,50.5,152.7,50.5z"/>
				<path fill="#C95156" d="M141.5,8l0.3,0.1C141.8,8,141.7,8,141.5,8z"/>
				<path fill="#C95156" d="M109,7.4c0.2,0,0.4-0.1,0.4-0.2C109.1,7.2,108.9,7.3,109,7.4z"/>
				<path fill="#C95156" d="M103.5,6.3c0.1,0,0.2,0,0.3,0.1C103.7,6.3,103.5,6.2,103.5,6.3z"/>
				<path fill="#C95156" d="M141.5,8l-0.9-0.3C140.6,8,141.1,7.9,141.5,8z"/>
				<path fill="#C95156" d="M150.3,43.3c0,0.2,0.1,0.3,0.3,0.5c0-0.1-0.1-0.3-0.1-0.4C150.4,43.3,150.3,43.3,150.3,43.3z"/>
				<path fill="#C95156" d="M155,11.5l0,0.4c0.1,0.1,0.2,0.1,0.4,0.2c0,0-0.1-0.2-0.2-0.3C155.1,11.7,155,11.5,155,11.5z"/>
				<path fill="#C95156" d="M155.2,23.4c0-0.2-0.8-0.3-1.2-0.4c0.3,0.1,0.5,0.3,0.6,0.5C154.8,23.5,154.9,23.5,155.2,23.4z"/>
				<path fill="#C95156" d="M153.7,40.8l0.1,0.3C153.8,41,153.7,40.9,153.7,40.8z"/>
				<path fill="#C95156" d="M148,7c0-0.1-0.1-0.2-0.1-0.3C147.9,6.8,147.9,6.9,148,7z"/>
				<path fill="#C95156" d="M140.1,50.2c0,0.1,0,0.1,0,0.2C140.1,50.2,140.1,50.2,140.1,50.2z"/>
				<path fill="#C95156" d="M152.8,54.3l-0.2,0c0,0.2,0,0.3,0,0.5L152.8,54.3z"/>
				<path fill="#C95156" d="M93.3,5.2C93.3,5.2,93.3,5.2,93.3,5.2C93.6,5.1,93.5,5.1,93.3,5.2z"/>
				<path fill="#C95156" d="M9.1,21.8c0.8-1.1,1,1.7,1.8,0.1C10.5,22.1,9.6,20.5,9.1,21.8z"/>
				<path fill="#C95156" d="M150.4,43c0-0.1,0-0.3,0-0.5C150.3,42.7,150.3,42.9,150.4,43z"/>
				<path fill="#C95156" d="M10.9,21.9L10.9,21.9l0.1-0.2C10.9,21.8,10.9,21.9,10.9,21.9z"/>
				<path fill="#C95156" d="M69.9,5.7c0,0.1,0.1,0.3,0.2,0.4C70.1,6,70.1,5.9,69.9,5.7z"/>
				<path fill="#C95156" d="M87.3,6.9l-0.4-0.1C87.1,6.9,87.2,6.9,87.3,6.9z"/>
				<path fill="#C95156" d="M60.8,6.9c-0.2-0.1-0.3-0.2-0.6-0.1c0,0,0.1,0.1,0.1,0.1C60.4,6.8,60.6,6.7,60.8,6.9z"/>
				<path fill="#C95156" d="M51.4,6.9c0,0.1,0.1,0.1,0.2,0.2c0.1,0,0.2,0,0.3,0L51.4,6.9z"/>
				<path fill="#C95156" d="M111.4,50.5c0.2,0.2,0.3,0.5,0.4,0.8C111.7,50.7,113.1,50.5,111.4,50.5z"/>
				<path fill="#C95156" d="M150.7,43.3c-0.2-0.1-0.3-0.1-0.4-0.3c0,0.1,0,0.2,0,0.3C150.6,43.3,150.7,43.3,150.7,43.3z"/>
				<path fill="#C95156" d="M60.4,13.5l-1.5-0.1C59.4,13.5,59.9,13.5,60.4,13.5z"/>
				<path fill="#C95156" d="M43.8,50.6l0.3-0.1C44,50.5,43.9,50.5,43.8,50.6z"/>
				<path fill="#C95156" d="M54.5,13.5c-0.3-0.3-0.6-0.5-0.8-0.6c-0.1,0.1-0.1,0.1-0.2,0.2L54.5,13.5z"/>
				<path fill="#C95156" d="M111.9,51.3L111.9,51.3L111.9,51.3z"/>
				<path fill="#C95156" d="M121.7,49.3c-1.4,0-0.7,1.1-1,1.7c-1.7,0.3-0.8-0.8-1.4-1.4c-1.1,0.3-1.9,1.3-2.7,1.3
					c-0.1-0.2-0.2-0.2,0-0.5c-1.1,0.9-3.3,0-4.6,1.1c-0.1-0.1-0.1-0.2-0.2-0.3c0.2,0.6,0.2,1.1,0.2,1.5c-0.6,0-1.2,0.7-1.4,0
					c0.4,0,0.4-0.3,0.6-0.5l-0.7,0.3c-0.6-1,0.9-0.4,0.9-1.1c-1.3,0.3-2.8,1.2-3.8,0.9c-0.2-1,2.3-0.3,1-1.2l1.5,0.4
					c-1.2-1.6,0.9,0.1-0.1-1.6c-2-0.3-2.3,0.5-4.3,0.2c-0.5,0.6,0.2,0.8-0.3,1.4c-2.9,1-2.3-2.6-4.4-1.2c-0.6,0.7-0.8,2-2.3,1.3
					l0.5-1.2c-2-0.1-1.1,1.7-3.2,0.9c0.4-0.5,1.6-0.4,1.3-0.5c-1.3-0.9-0.9,0.7-2,0.7l-0.2-1c-2.1,0.2-4.4,0.9-6.7,1.1
					c0.1-0.3,0.5-0.6,0-0.9c-2.9,0.5-6.3-0.1-9.1-0.7l-1.1,0.9c-0.3,0-0.5-0.4-0.2-0.6c-1.1-0.3-0.1,0.6-0.6,0.9
					c-0.6,0.1-0.8-0.5-0.4-0.8c-1.9,0.7-5.6,1.6-7.6,0.7l0.4-0.3c-1.6-0.4-1.8,1.8-3.3,1l0.3-0.2c-3.5-0.4-7.3,0.4-9.9-0.9
					c-0.5,1.3-3.4-0.6-3.7,1.2c-2-0.9-1.4-1.2-4.2-1.8c-0.7-0.1-1.1,1.1-2,1.3l0-0.9l-1.3,1L45,50.3l-0.9,0.2
					c0.3,0.1,0.7,0.4,0.7,0.7c-1.3,0.4-3.3-0.6-3.3-1.1l-3.2,0.8c0.1-0.4,0.6-0.5,1-0.7c-1.7,0.9-0.3-1-1.9-0.1
					c0.2,0.2-0.1,0.6-0.1,0.7c-0.8-0.6-2.5-0.6-3.9-0.3l0.3-0.6c-2.4-0.2-5,0.3-7.6,0.3c1,0.3,0.7,1.4,0,1.5l-0.3-1
					c-0.5,0.6,0.8,0.4-0.2,1.1c-1-0.1-0.7-1.1-0.1-1.4l-1.2,0.3c-0.1-0.3,0.2-0.4,0.3-0.8c-0.5,0.6-2.1-1-2.8,0.1l-0.1-0.3
					c-1.3,0-2.3,0.1-3.2,0.2c-0.2,0-0.4,0-0.7,0.1l-0.3,0l-0.1,0c-0.1,0-0.2,0.1-0.2,0.1c-0.3,0.8-0.5,0.7-1.2,1.3
					c-0.2-0.1-0.3-0.2-0.3-0.3c0.3-0.7,0.6-1.2,0.5-1.5c-0.2-0.1-0.4-0.2-0.6-0.2c-0.2,0-0.4,0.1-0.6-0.1c0.8,0,0.7-2,1.2-1
					c-0.1-2.3-0.2-2.9-0.8-5.8c-0.3,0.3-0.5,0.7-0.7,0.5c-0.1-0.5,0.3-1.2,0.7-1.1l0.1,0.1c-1.2-3.3,2.2-7.5,0.6-10.1l0.1,0.1
					l-0.8-2.7c0.1-1.2,0.6,0.7,1.1-0.2c-1.3-2.9,0.2-4.6-0.7-7c1.1-0.9,1.1-2.6,1-4.3c-0.1-0.9-0.2-1.7-0.2-2.6c0-0.2,0-0.4,0-0.6
					l0-0.3c0-0.1,0-0.2,0-0.2C16.7,14,16.9,14,17,14l-0.5-0.1c-0.5-0.3,0.3-0.1,0.4,0c-0.4-0.2-0.5-0.1-0.8-0.3
					C16,13.3,16,13,16,12.7c0.3,0,0.7,0.1,1.1,0.2c0.1,0,0.2,0.1,0.2,0.1l0.1,0c0.1,0,0.3,0,0.4,0l1.8,0.2c2.4,0.3,4.7,0.7,7,0.9
					c2.1,0.1,1.2-2.8,3.8-1.5l-0.7,1c4.1-1.2,8.5,0,12.5-1c-0.2,0.2-0.2,0.5-0.6,0.5c0.9,0.7,3.2,0,3.2-0.5c0.6,0.1,0.1,0.5,0.5,0.8
					c0.9,0.4,2.2-0.9,2.6-0.2c0.1,0.1-0.2,0.2-0.4,0.3c0.6-0.3,2.6,0.1,2.1-0.7c1.5,0.4,2.9-0.4,4.1,0.1c0.8-0.9,2.6,0.4,2.9-0.9
					c-0.1,1.4,2.7,1.1,3.6,0.5c-0.3,0.4,0.8,0.4,0.5,1c1.1,0,2.1-0.3,1.9-1c2,1.6,4.1-1.3,5.2,0.8c3.3-0.7,6.3-1.2,9.2-1.5
					c-0.1,1.4-3.2,0.1-3.1,1.6c2.8-0.6,4.4-1.7,7.2-1.4c0.7,0.2-0.4,0.6-0.6,0.8c2.8-0.6,5.4,0.1,7.9-0.6c0,0.1-0.3,0.3-0.5,0.4
					c0.5,0,1.1,0.2,1.1-0.4l-0.5,0.2c-0.8-0.9,1.9-1.9,2-2.3c-0.8,1.8,2.4,0.4,1.1,2.7c0.3-0.1,0.7-0.4,0.7-0.8
					c0.5,0.1,0.6,0.4,0.1,0.8c1.7-0.3,1.1-1,2.7-1c0,0.3-0.3,0.4-0.5,0.8c0.8-0.6,1.6-1.2,2.9-0.9c-0.1,0.2,0.1,0.4-0.3,0.4
					c2.3-0.1,3.9-1.5,6.4-1c-0.7,1.3,0.9,0.4,1,1.5l1.4-0.3l-0.5-0.5c1.2,0,2.2-0.8,3.3-0.4l-0.9,0.5l2.2-0.2l-1.3-0.4
					c1.2-0.6-0.1-1.4,1.5-1.1c-0.3,0.1,1.2,0,1.8,0.7l0,0c0.6-0.4,1.2-0.7,2.1-0.5c0.2,0.4-0.2,1.2,0,1.5c0.6-0.9,2.8-0.3,3.5-1.3
					c-0.2,0.2-0.3,0.8-0.2,0.9l0.5-0.8c0.6,0.2,0.6,0.4,0.5,0.8c1.7,0.1-0.5-1.4,1.4-0.8c-0.2,0.1-0.1,0.2-0.4,0.3
					c2,0.3,3.8-0.5,5.6-0.1c0.5,1.1-1.6,0.3-1,1.2c2.6-0.2,5.4-1.3,7.9-1.1l-0.5-0.1c0.4-1.6,1.9,0.8,3.2,0
					c-0.3,0.1-0.4,0.9-0.3,0.7c1.7,0.3,3.5-0.4,6.2-0.9l-0.3,0.4c1,0.4,2.7,0.2,3.8,0.4c0.3-0.4,1-0.3,0.6-0.9c3.2,2,5.1-0.4,7,0.2
					c-0.1,0.4-0.3,0.8-0.5,1.2c0-0.2-0.4-0.2-0.4,0c0,0,0.1,0.3,0.2,0.6c0.1,0.3,0.2,0.7,0.2,0.7c0.7-0.4,0.4-0.4,1-1.1
					c0.4,0,0.7,0.6,0.7,1.3c-0.2-0.5-0.5-0.4-0.8-0.2c-0.3,0.2-0.5,0.6-0.7,0.8c0.2-0.1,0.4,0,0.7,0c-0.3,0.3-0.4,0.5-0.3,0.6
					c0.1,0.1,0.2,0.2,0.4,0.2c0.4,0.1,0.8,0.3,0.4,1.2l-0.4-0.1c0.2,0.7,0.7,1.3,0.6,2.1c-0.8,0.3-0.4-0.7-1-0.8c0,1,1.5,2.1,0.7,3
					c-0.2-0.4-0.2-1.1-0.4-1.5c-0.9,1-0.7,1.1-0.9,1.9l0-0.1l-0.4,1.8l0.3-0.4c2.1,1.3,0.4,2.6,1.7,4.4c-1.3-1.7-0.7-0.3-1.7-0.4
					c-0.3,0.4-0.5,1.1-0.8,0.9c0.7,0.8-0.6,1.4,0.5,2.6c-0.3,0.1,0,0.9-0.8,0.7c0.2,1.1,0.5-0.3,0.9-0.2c1,1.7-1.2,3.9,0.2,6.3
					c0.6,2.1,1.5,2.4,2,4.3c-0.5,0.6-1.1-0.5-1.1-0.5c-0.4,1-0.4,1.8,0,2.8c-0.3-0.2-0.5,0-0.8,0.3c0.1,0.8,1.1,0.5,0.6,1.6
					c-0.3-0.2-0.8-0.4-1.2-0.8c0.3,0.9,0.8,1.8,1.1,2.8c-0.5,0.3-0.8-0.6-1.1-0.9c0.2,1.1,0.5,2.8,1.3,3.1l0.3-0.7
					c0,0.4-0.7,0.2-0.8-0.1c-0.6-0.9,0.3-1.3,0.6-1.4l0.2,0.7c1.7-0.7-0.3-2.7-0.2-4.1l1.2,0.6l-1-1.4c0.3-0.3,1-0.5,1.2,0.2
					c0.6-1-0.4-0.9,0.2-1.7c0.1-0.1,0.2-0.1,0.2,0l-0.4-1c0.3,0.2,0.9-0.2,0.7,0.4c0.7-1.7-0.9-2.8,0-3.4l0.1,0.1
					c-0.4-2.4-0.9-0.2-2-2l2.3-1.2l-0.9-0.2c0-0.2,0.1-0.7,0.5-0.6c-0.6-0.9-0.4,0.2-1-0.4c0.8-1.2-0.4-3.3,1.1-3.6
					c-0.7-0.4-0.5,1.1-1-0.1c1.6-0.4-0.3-1.5,0.5-2.6c0.8,0.3,0.4,1.4,1.1,0.3c-1.4-0.7,0.3-2.1,0-3c-1.1,0-0.5-2-0.8-3.5
					c0.4,0.1,0.6-2.9,1-4.3l0.2,0c-0.6-0.1-0.8-0.6-0.9-1.1c-0.1-0.2-0.1-0.6-0.1-1c0-0.4-0.1-0.7-0.1-1c0.7-0.1,0.9,0,1.2,0.8
					l0-1.5c-0.4-0.2-0.5-0.6-0.7-1.4c0,0,0.2,0,0.4-0.1c0.2,0,0.4,0,0.4,0c0-1.1-0.3-2-0.5-3c-1,0.1-2,0.2-2.9-0.1
					c-0.3,0.4-0.1,0.9-0.3,1.4c-0.2,0.5-0.6,1-1.5,1.2c0.1-0.4,0.4-1.1,1-1.3c-0.2,0.1-0.8,0.3-1,0.2c0,0,1.1-0.7,1.1-0.7
					c-0.8-0.3-0.8,0.6-1.4,0.5c0.2-0.6-0.4-0.4-0.2-0.9c0.2-0.1,0.6,0.2,1,0c-0.9-0.1-2-0.5-2.4-0.9c0.1,0.3,0,0.8-0.5,0.9
					c-1.3,0-0.5-0.7-1.2-1c-0.3,0.4-1.2,0-1.2,0.9c-0.4,0-0.5-0.4-0.6-0.7c-0.7,0.4-3.3,0.1-2.5,1.1l0.2,0.1c0,0-0.1,0-0.1,0
					c0,0,0,0,0,0l0,0c-2.3,0.9-4.7-0.5-7-0.1l0-0.3c-1.4,0.3-3,0.2-4,0.8c-0.4,0-0.9-0.5-0.8-0.9c-1,0.2-1.2,0.6-2.6,0.1
					c1-0.5-0.4-0.5,1.1-0.4c-1.3-0.3-1.6-0.7-3.1,0.1c0.5-0.8-1-1-1.6-0.7l0.9,0.5c-0.7,0.1-1.3,0-2,0l0.3-1c-2.7-1.2-5,2.1-7.1,0
					c-0.7,0.7,1.5,0.5,0.8,1.3c-1.3-0.1-2.6-1.6-3-1.6c-1.7-0.6-1.6,1.5-3.4,1.1c0.2,0.4,0.4,1.3-0.9,1.6c-1.3-0.1-1.6-1.5-0.8-1.8
					c0.3,0,0.4,0.1,0.4,0.2c0.4-0.1,0.9-0.3,0.4-0.7l-0.2,0.4c-0.6-0.4-2.4-0.3-2-0.9c-1,0.3-0.4,0.6,0.3,0.8
					c-1.6-0.5-2.5,0-4.2-0.4C104,6.6,104.3,7,104,7c-2.5-0.4-1.1,0.7-2.7,0.8c-0.9-0.5,0.3-1.3-1.3-0.8c-1-0.4-0.2-0.9,0.2-1.2
					c-1.5,0.7-2.8-0.5-3.7-0.6l0.8-0.3C96.7,5,96.4,5,96,5l0.5,0.7c-0.5-0.1-0.9-0.1-0.9-0.4c-0.5,0.5,0.4,1.2-0.6,1.8
					c-0.6-0.4-1.9,0.4-2.1-0.6c2,0.3-0.2-0.9,1.5-1.1c-0.3,0.1-0.7,0.1-1.2,0c-0.1-0.1,0.1-0.2,0.2-0.2c-1.9-0.8-0.9,1.1-2.8,1
					c0.2-0.5-0.5-1-0.8-0.9c0.8,0,0.4,0.9-0.3,1.3c-1.3-0.4-1.4,0.3-2,0.3l0.8,0.2c-0.3,0.5-0.9,0.5-1.8,0.6
					c-0.1-0.4,0.8-0.3,0.5-0.5c-1,0.9-2.2-1-3.6-0.3c-0.6-0.4-0.1-1-0.6-1.2c-1.5,0.7-1.6-0.7-3.2-0.2c0.5,0.7,0.5,0.5-0.6,1.2
					l2.6-0.5l-1.7,1c0.8,0,1.7-0.4,2.1-0.3c-0.8,0.6-0.7,0.4-0.3,1c-1.1-1.1-2.1,0.6-3.4-0.1l0-1.8c-1.9-0.8-3.3,0.9-5.8,0.5
					l0.8,0.3c-0.3,0.7-1.5,0.1-2.3,0.4c0.1-0.6-0.4-0.8-0.8-1.2c0,0.4-1.8,0-2,1.1L67,6.4c-2-0.3-2.3,1.7-4.2,1.5
					c0.6-0.6-0.3-1.1,1-1.5c-0.6,0-1.2-0.1-1.2,0.3c-0.4-0.4-1.8,0.8-2.3,0.2c-0.3,0.3-0.4,0.9-1.1,0.8c-0.1-0.1,0-0.3,0-0.3
					c0,0.3-1.1,0.4-0.5,1.1c-2-1.8-5.5,0.1-7.2-1.5c-1.4,0.2-3.1,0.4-4.3,0.4c0.1-0.2,0-0.3,0.2-0.2c-1.7-0.6-1.1,1.7-3,1.1
					c-1-1,1-0.5,0.4-0.9c-0.3-1.9-2.4,0.3-3.7-0.9l0.3-0.1c-1-0.7-2.5,0.7-4.1,0.6c0,0,0.1-0.2,0-0.3c-1.1,1-3.3,1.3-4.9,1.6
					c0.5-0.8,0.7-0.4,0.4-1.2c-0.7,0.1,0.2,1.2-1.2,1.5c-0.5-0.4-1.5-0.8-1.6-1.6l1.3,0c-0.7-1.1-1.7,0-2.5-0.2l0.1-0.5
					C27,6.5,27,7.7,24.8,7.6L25,8c-1.2,1.2-1-0.7-2.2,0.2L22.4,7c-0.8,0.3-2.8,1.1-4.2,1.4C19,7.5,20.7,7,21.7,6.5
					c-0.8,0-2.7,0.1-3.1,0.7c0.3-0.1,0.7-0.4,1-0.2c-0.5,0.5-1,0.8-1.7,1c-0.2,0.1-0.3,0.1-0.5,0.1c-0.2,0-0.4,0.1-0.6,0.1
					c-0.4,0.1-0.9,0.1-1.3,0.1c-0.2-1.5-2.8-1.3-5.3-1.5C10.1,8,9.9,9,9.3,9.3c0.2,1.3,0.3,2.4,0.3,3.6c0,1.3-0.1,1.8-0.2,2.6
					C9.2,16.9,9,18.4,9,20.1c1.8-1.2,0,0.9,1.9,0.8c0.1,0.8,0.1,1,0,1.1l-1.1,2.3c-0.5,0.5-0.4-0.7-0.8-0.7
					c-0.1,1.7-0.8,0.7-1.3,1.8c0.7-0.2,0.9,0.6,0.7,1.5l0.8-1.3c1,2.3-1.5,2-0.6,4.3l-0.6-0.7c0.3,1.2,0,4.4,1.5,5.6
					c-0.2,0.2-0.7,0.5-0.8,0c-0.2,2.9,1.6,6.4,0.7,8.6l-0.4-0.2C9,43.6,9.7,44,9.3,44.7c-0.2,0-0.4-0.2-0.5,0
					C9,45,9.6,46.2,9.3,46.9l-0.5-0.6c-0.1,0.7-0.1,1.3-0.1,1.9c0,0.3,0.1,0.6,0.2,0.8C9,49,9,49.1,9,49.2l0.1,0.3
					c0.1,0.2,0.1,0.4,0.2,0.6c0.4,1.7,0.9,2.9,1.1,4.4c-0.6,0.5-1,1.5-1.3,2.9c0.9,0.3,2.4,0.5,3.4,0.6l-0.2,0.2c1.5,0,3,0,4.3-0.1
					l0.5,0c0.2,0,0.3,0,0.4,0L18,58c0.3-0.1,0.7-0.2,1-0.2c1.4-0.4,2.7-0.8,4.2-1.1c1.9,1.4,6.3,0.6,9.3,1.4c-0.5-0.2,0.1-1,0.6-1.2
					c0.7,0.3,2-0.9,1.8,0.3l-0.3,0c0.5,1.2,2,0.9,3.1,0.9l0.2-1.6c3,2.3,7.8-0.8,9.4,1.2c0.7-0.4,1.6-0.4,2.3-0.8l0,0.8
					c2,0.2,3,0.3,5.4,0.1l-0.5,0.6c1.4,0.1,1.7-2.4,3-2.5l0.4,1.3c2.4,0,4.8,1.1,7.2-0.1c0,0.2-0.1,0.6-0.5,0.6c1.1,0,4.4,0.9,4-0.9
					c0,1.1,2.5,0.1,3.8-0.4l-0.2,0.8c1.1-1.1,1.1-1.4,2.7-1.7c0.4,0.1,0.3,0.7-0.2,0.5c1.2,0.4,0.9-0.8,2.4-0.3l-0.5,0.5
					c1.2,0.1,1.1-0.2,1.8-0.8c0.8-0.3,2.4,0.2,2.5,1c0.2-0.5,0.9-1.1,1.6-0.9c0.1,0.3-0.2,0.5-0.3,0.5c2.1,0.6,3.1-1,4.5-0.1
					c0,0.3,0.1,0.4,0.2,0.5c-1.7,0-3-0.1-2.9-0.1c0,0.8,1.3,0.9,0.3,2c1.1-0.6,2.9-1.8,4.2-1.5c0.1,0.1,0.1,0.1,0.2,0.3l-0.1,0.1
					c0.3,0.1,0.6,0,0.8-0.1c0.4,0.1,0.7,0.2,1.1,0.2c0.2,0.6,1.5,0.3,2.2,0.4c-0.1-0.8,0.8-0.7,0-1.4c0.1,0.1-0.1,0.1-0.6,0.1
					c-0.1,0-0.2,0-0.3,0.1c0,0,0,0,0-0.1c-0.4,0-1,0-1.7,0.1c0.5-0.4,1.1-0.8,1.8-0.3c0.3-0.5,0.7-1.1,0.9-1.4
					c0.9,1.2,2.7,1.8,2.9,2.5c2-0.5,4.8-0.3,6.1-1.9c0.6-0.2,0.7,0.5,0.9,0.7c-0.3,0.2-0.7,0.1-0.9,0.4c1.2-0.4,3.4-0.2,3.7-1.3
					c1.5,0.5-0.8,1,1.2,0.8l-0.3,0.3c3.9,1.8,6.4-2.8,10.8-0.5c-0.3-0.1-0.5-0.2-0.5-0.4c5,1,10.3-0.9,15.2,0.7
					c1.4,0.3,1.5-0.4,2.4-0.9l0.3,0.9l1.5-1c2.1-0.8,3.6,2.2,6.2,0.8l-0.3-0.6c0.9,0.1,3-0.4,2.8,0.3c0.1-0.1,0.3-0.6,0.7-0.3l0,0.5
					l2.3-0.8c1.8,0.3-0.3,1.9,2.3,2c1-0.2,2.8-1.4,2.4-1.7c-0.4,0-1-0.3-1-0.8l0.9-0.2c0.2-1.4,0.8-2.8-1.3-3.8l-1.5,0.9l-0.5-0.7
					l1.3,0c-0.7-0.6-1.2-0.1-1.7,0.3c-0.1-0.4-0.3-0.6-0.6-0.7l-1.5,1.3c-0.2-0.5,0.7-1.1-0.3-1.4c-0.7,0.6,0.7,1.2-0.5,1.6
					c-0.7-0.6-0.5-1.2-1.4-0.6c-0.1-0.4,0.1-0.6,0.4-0.7c-0.8,0.4-2,0.2-2.4,0.9c-0.8-0.8-2.6,0.2-2.5-1.1c-0.2,0.3-1.3,1-2,1.1
					c1.3-1.6-2.6-0.1-2.3-1.8c-0.9,1.4-3.4,0.6-5.1,1.4c0.1-0.1,0.3-0.3,0.4-0.3c-0.9-0.1-1.2-0.5-1.8-0.8c-0.1,1.2-1.6,1.4-2.4,2.2
					c-1.2-1.1,0.7-1.4,0.3-2.5c0.1,1-2,0.9-1.6,1.7c-0.9-0.7-0.8-0.3-1.2-1.3c-0.2,1.5-0.8,0.2-1.6,1.2c-1.3-0.7-0.3-1.4-1.7-0.9
					C120.5,49.8,121.7,49.3,121.7,49.3z M88.4,51.8C88.4,51.8,88.4,51.8,88.4,51.8c0.3,0,0.5-0.1,0.7-0.1
					C88.9,51.8,88.7,51.8,88.4,51.8z M85.6,51.8c0.3,0,0.8,0,1.2,0c0.1,0.3,0,0.6-0.3,0.6C86.7,52.3,86,52.1,85.6,51.8z M91.5,57.7
					c-0.4,0.1-0.6,0-0.7-0.2c0.2,0,0.5,0,0.8-0.1c0,0,0-0.1,0.1-0.1C91.6,57.4,91.6,57.6,91.5,57.7z"/>
				<path fill="#C95156" d="M92.3,56.6c0.1,0,0.1-0.1,0.2-0.1c-0.1-0.1-0.2-0.1-0.3-0.2c-0.1,0.1-0.1,0.2-0.2,0.3
					C92.1,56.6,92.2,56.6,92.3,56.6z"/>
				<path fill="#C95156" d="M141.9,8.1L141.9,8.1c0,0,0,0,0.1,0.1C141.9,8.2,141.9,8.1,141.9,8.1z"/>
				<polygon fill="#C95156" points="46.9,50.2 46.9,50.4 47.2,50.2 				"/>
				<path fill="#C95156" d="M151.2,14c-0.1,0-0.2,0.1-0.2,0.1C151,14.1,151.1,14.1,151.2,14z"/>
				<path fill="#C95156" d="M151,20.5l-0.3,0.9C150.9,21.1,151,20.8,151,20.5z"/>
				<path fill="#C95156" d="M150.6,25.6c0.1,0.1,0.3,0.1,0.4,0.1l0,0L150.6,25.6z"/>
				<path fill="#C95156" d="M87.7,12.5c-0.1,0-0.1,0-0.2,0C87,12.7,87.3,12.7,87.7,12.5z"/>
				<path fill="#C95156" d="M111.9,10.6c-0.3,0.2-0.5,0.3-0.8,0.4C111.6,11.1,111.9,11.1,111.9,10.6z"/>
				<path fill="#C95156" d="M60.6,13.5C60.6,13.5,60.6,13.5,60.6,13.5c-0.1,0-0.1,0-0.2,0L60.6,13.5z"/>
				<path fill="#C95156" d="M110,11c0.4,0.2,0.8,0.1,1.1,0C110.8,10.9,110.4,10.9,110,11z"/>
				<path fill="#C95156" d="M150.2,47.8l0,0.2c0.1,0,0.1,0,0.1,0L150.2,47.8z"/>
				<path fill="#C95156" d="M150.3,48.1l0.1,0.3C150.4,48.3,150.4,48.2,150.3,48.1z"/>
				<path fill="#C95156" d="M150.6,49l-0.2-0.6C150.4,48.6,150.4,48.8,150.6,49z"/>
				<path fill="#C95156" d="M150.6,41.1l-0.3-0.1C150.3,41,150.4,41.1,150.6,41.1z"/>
				<path fill="#C95156" d="M150.5,39c-0.1,0.5-0.7,1.2-0.5,1.9l0.2,0.1C149.8,40.7,151,39.5,150.5,39z"/>
				<path fill="#C95156" d="M154.3,30.4l-0.2,1.7c0.3-0.3,0.8-0.7,0.8,0.1C155.9,30,154.2,32.7,154.3,30.4z"/>
				<path fill="#C95156" d="M154.8,25.1c0.2,0.9,0.5,0,0.7,0C155.1,24.5,155,24.4,154.8,25.1z"/>
				<path fill="#C95156" d="M129.8,7.4l0.1-0.8C129.2,6.8,129.9,6.9,129.8,7.4z"/>
				<polygon fill="#C95156" points="122.4,11.4 123.1,11.9 123.5,11.2 				"/>
				<polygon fill="#C95156" points="118.1,5.9 118.4,5.8 117.2,6.1 				"/>
				<path fill="#C95156" d="M53.1,6.1l0.2,0.9C53.8,6.9,53.9,5.8,53.1,6.1z"/>
				<path fill="#C95156" d="M25,7.1c-0.3-0.5-1.1-0.8-1.6-0.3C24.1,6.8,24.7,7.2,25,7.1z"/>
				<polygon fill="#C95156" points="39.5,57.8 38.9,58.1 40,57.8 				"/>
			</g>
		</g>
	</g>
</g>
<g>
	<path d="M42.6,20.4c0,0.5-0.1,1-0.3,1.5c-0.2,0.5-0.4,0.9-0.8,1.3c-0.5,0.5-1,0.8-1.6,1c-0.6,0.2-1.3,0.4-2.1,0.3l-1.9,0l0,3.8
		l-3,0l0-11.6l4.9,0c0.7,0,1.4,0.1,1.9,0.2c0.5,0.1,1,0.3,1.3,0.6c0.5,0.3,0.8,0.7,1.1,1.2C42.5,19.1,42.6,19.7,42.6,20.4z
		 M39.5,20.5c0-0.3-0.1-0.6-0.3-0.8c-0.2-0.2-0.4-0.4-0.6-0.5c-0.3-0.1-0.6-0.2-0.9-0.2s-0.7,0-1.2,0l-0.5,0l0,3.5l0.9,0
		c0.5,0,0.9,0,1.3-0.1s0.6-0.2,0.8-0.4c0.2-0.2,0.3-0.4,0.4-0.6C39.5,21.1,39.5,20.8,39.5,20.5z"/>
	<path d="M50.9,22.3h-0.2c-0.1,0-0.3-0.1-0.6-0.1c-0.3,0-0.5,0-0.7,0c-0.4,0-0.8,0-1.1,0.1s-0.6,0.1-1,0.3l0,5.9l-2.8,0l0-8.8l2.8,0
		l0,1.3c0.6-0.5,1.2-0.9,1.6-1.1c0.5-0.2,0.9-0.3,1.3-0.3c0.1,0,0.2,0,0.3,0c0.1,0,0.2,0,0.3,0L50.9,22.3z"/>
	<path d="M61.5,24c0,1.4-0.4,2.6-1.3,3.4c-0.8,0.8-2,1.2-3.5,1.2s-2.7-0.4-3.5-1.2c-0.8-0.8-1.3-2-1.3-3.4c0-1.5,0.4-2.6,1.3-3.4
		c0.8-0.8,2-1.2,3.5-1.2c1.5,0,2.7,0.4,3.5,1.3C61.1,21.4,61.5,22.5,61.5,24z M58,26.1c0.2-0.2,0.3-0.5,0.4-0.8
		c0.1-0.3,0.1-0.8,0.1-1.3c0-0.5,0-0.9-0.1-1.3c-0.1-0.3-0.2-0.6-0.4-0.8c-0.2-0.2-0.4-0.4-0.6-0.5c-0.2-0.1-0.5-0.1-0.8-0.1
		s-0.5,0-0.7,0.1c-0.2,0.1-0.4,0.2-0.6,0.4c-0.2,0.2-0.3,0.5-0.4,0.8c-0.1,0.4-0.2,0.8-0.2,1.3c0,0.5,0,0.9,0.1,1.2
		c0.1,0.4,0.2,0.6,0.4,0.8c0.2,0.2,0.4,0.4,0.6,0.4c0.2,0.1,0.5,0.1,0.8,0.1c0.3,0,0.5,0,0.7-0.1C57.7,26.5,57.9,26.3,58,26.1z"/>
	<path d="M68.1,28.6c-0.8,0-1.5-0.1-2.1-0.3c-0.6-0.2-1.2-0.5-1.7-0.8c-0.5-0.4-0.8-0.9-1.1-1.4c-0.3-0.6-0.4-1.3-0.4-2
		c0-0.8,0.1-1.5,0.4-2.1c0.3-0.6,0.7-1.1,1.1-1.5c0.5-0.4,1-0.6,1.6-0.8c0.6-0.2,1.3-0.3,1.9-0.3c0.6,0,1.2,0.1,1.7,0.2
		c0.5,0.1,1,0.3,1.4,0.5l0,2.4h-0.4c-0.1-0.1-0.2-0.2-0.4-0.3c-0.2-0.1-0.3-0.2-0.6-0.4c-0.2-0.1-0.4-0.2-0.7-0.3
		c-0.3-0.1-0.6-0.1-0.9-0.1c-0.7,0-1.3,0.2-1.7,0.7c-0.4,0.5-0.6,1.1-0.6,1.9c0,0.8,0.2,1.5,0.6,1.9c0.4,0.4,1,0.7,1.8,0.7
		c0.4,0,0.7,0,1-0.1c0.3-0.1,0.5-0.2,0.7-0.3c0.2-0.1,0.3-0.2,0.5-0.3c0.1-0.1,0.3-0.2,0.4-0.3h0.4l0,2.4c-0.4,0.2-0.9,0.4-1.4,0.5
		S68.7,28.6,68.1,28.6z"/>
	<path d="M81.6,24.5l-6.4,0c0,0.7,0.3,1.2,0.8,1.6c0.5,0.4,1.2,0.5,2.1,0.5c0.6,0,1.2-0.1,1.7-0.3c0.6-0.2,1-0.4,1.3-0.7h0.3l0,2.3
		c-0.6,0.3-1.2,0.4-1.8,0.6c-0.6,0.1-1.2,0.2-1.9,0.2c-1.8,0-3.1-0.4-4-1.2c-0.9-0.8-1.4-1.9-1.4-3.4c0-1.4,0.4-2.6,1.3-3.4
		c0.9-0.8,2.1-1.3,3.7-1.3c1.4,0,2.5,0.4,3.2,1.1c0.7,0.7,1.1,1.8,1.1,3.1L81.6,24.5z M78.8,22.9c0-0.6-0.2-1-0.4-1.3
		c-0.3-0.3-0.7-0.4-1.3-0.4c-0.5,0-1,0.1-1.3,0.4s-0.5,0.7-0.6,1.4L78.8,22.9z"/>
	<path d="M91.2,25.6c0,0.9-0.4,1.6-1.2,2.2c-0.8,0.6-1.9,0.8-3.3,0.8c-0.8,0-1.5-0.1-2.1-0.2c-0.6-0.1-1.1-0.3-1.5-0.5l0-2.3l0.3,0
		c0.1,0.1,0.3,0.2,0.5,0.3s0.4,0.2,0.8,0.4c0.3,0.1,0.6,0.2,1,0.3c0.4,0.1,0.8,0.1,1.2,0.1c0.6,0,1-0.1,1.2-0.2
		c0.3-0.1,0.4-0.3,0.4-0.5c0-0.2-0.1-0.4-0.2-0.5c-0.2-0.1-0.5-0.2-0.9-0.3c-0.2,0-0.5-0.1-0.8-0.2s-0.7-0.1-1-0.2
		c-0.8-0.2-1.4-0.5-1.8-1c-0.4-0.4-0.6-1-0.6-1.6c0-0.8,0.4-1.5,1.2-2.1c0.8-0.6,1.9-0.8,3.3-0.8c0.7,0,1.3,0.1,1.9,0.2
		c0.6,0.1,1.1,0.3,1.4,0.4l0,2.2h-0.2c-0.4-0.3-0.9-0.5-1.4-0.7c-0.5-0.2-1.1-0.3-1.6-0.3c-0.5,0-0.8,0.1-1.1,0.2s-0.5,0.3-0.5,0.5
		c0,0.2,0.1,0.4,0.2,0.5s0.5,0.2,1,0.3c0.3,0.1,0.6,0.1,0.9,0.2c0.3,0.1,0.7,0.1,1,0.2c0.7,0.2,1.3,0.5,1.6,0.9
		C91,24.5,91.2,25,91.2,25.6z"/>
	<path d="M102,24c0,1.4-0.4,2.6-1.3,3.4c-0.8,0.8-2,1.2-3.5,1.2c-1.5,0-2.7-0.4-3.5-1.2c-0.8-0.8-1.3-2-1.3-3.4
		c0-1.5,0.4-2.6,1.3-3.4c0.8-0.8,2-1.2,3.5-1.2c1.5,0,2.7,0.4,3.5,1.3C101.6,21.4,102,22.6,102,24z M98.5,26.1
		c0.2-0.2,0.3-0.5,0.4-0.8c0.1-0.3,0.1-0.8,0.1-1.3c0-0.5,0-0.9-0.1-1.3c-0.1-0.3-0.2-0.6-0.4-0.8c-0.2-0.2-0.4-0.4-0.6-0.5
		s-0.5-0.1-0.8-0.1c-0.3,0-0.5,0-0.7,0.1s-0.4,0.2-0.6,0.4c-0.2,0.2-0.3,0.5-0.4,0.8s-0.2,0.8-0.2,1.3c0,0.5,0,0.9,0.1,1.2
		c0.1,0.4,0.2,0.6,0.4,0.8c0.2,0.2,0.4,0.4,0.6,0.4c0.2,0.1,0.5,0.1,0.8,0.1c0.3,0,0.5,0,0.7-0.1C98.2,26.5,98.4,26.4,98.5,26.1z"/>
	<path d="M118,28.4l-2.8,0l0-0.9c-0.5,0.4-0.9,0.7-1.4,0.9c-0.4,0.2-0.9,0.3-1.5,0.3c-1.1,0-1.9-0.4-2.6-1.2c-0.6-0.8-1-1.9-1-3.3
		c0-0.7,0.1-1.4,0.3-2c0.2-0.6,0.5-1.1,0.9-1.5c0.4-0.4,0.8-0.7,1.3-0.9c0.5-0.2,1-0.3,1.5-0.3c0.5,0,1,0.1,1.3,0.2
		c0.3,0.1,0.7,0.3,1,0.4l0-3.7l2.8,0L118,28.4z M115.2,26l0-4.3c-0.2-0.1-0.4-0.1-0.6-0.2c-0.2,0-0.4-0.1-0.6-0.1
		c-0.7,0-1.3,0.2-1.7,0.7c-0.4,0.5-0.6,1.1-0.6,1.9c0,0.9,0.1,1.5,0.4,1.9s0.8,0.6,1.4,0.6c0.3,0,0.5,0,0.8-0.1
		C114.7,26.3,115,26.2,115.2,26z"/>
	<path d="M129.3,24.6l-6.4,0c0,0.7,0.3,1.2,0.8,1.6c0.5,0.4,1.2,0.5,2.1,0.5c0.6,0,1.2-0.1,1.7-0.3c0.6-0.2,1-0.4,1.3-0.7l0.3,0
		l0,2.3c-0.6,0.3-1.2,0.4-1.8,0.6s-1.2,0.2-1.9,0.2c-1.8,0-3.1-0.4-4-1.2c-0.9-0.8-1.4-1.9-1.4-3.4c0-1.4,0.4-2.6,1.3-3.4
		c0.9-0.8,2.1-1.3,3.7-1.3c1.4,0,2.5,0.4,3.2,1.1c0.7,0.7,1.1,1.8,1.1,3.1L129.3,24.6z M126.5,22.9c0-0.6-0.2-1-0.4-1.3
		s-0.7-0.4-1.3-0.4c-0.5,0-1,0.1-1.3,0.4c-0.3,0.3-0.5,0.7-0.6,1.4L126.5,22.9z"/>
	<path d="M32.1,41.4c-0.2,0.1-0.3,0.3-0.6,0.4c-0.2,0.2-0.4,0.3-0.6,0.4c-0.3,0.1-0.6,0.2-0.9,0.3c-0.3,0.1-0.6,0.1-1,0.1
		c-0.8,0-1.5-0.3-2.1-0.8c-0.6-0.5-0.8-1.2-0.8-2c0-0.6,0.1-1.2,0.4-1.6c0.3-0.4,0.7-0.7,1.2-1c0.5-0.2,1.2-0.4,1.9-0.5
		s1.6-0.2,2.4-0.2v0c0-0.5-0.2-0.8-0.6-1c-0.4-0.2-1-0.3-1.8-0.3c-0.5,0-1,0.1-1.5,0.2c-0.5,0.2-0.9,0.3-1.1,0.4h-0.3l0-2.1
		c0.3-0.1,0.8-0.2,1.5-0.3c0.7-0.1,1.3-0.2,2-0.2c1.6,0,2.8,0.2,3.5,0.7c0.7,0.5,1.1,1.3,1.1,2.3l0,6l-2.8,0L32.1,41.4z M32.1,40
		l0-1.8c-0.4,0-0.8,0.1-1.2,0.1c-0.4,0.1-0.8,0.1-1,0.2c-0.3,0.1-0.5,0.2-0.6,0.4C29,39.1,29,39.3,29,39.6c0,0.2,0,0.3,0,0.4
		s0.1,0.2,0.2,0.3c0.1,0.1,0.3,0.2,0.4,0.2c0.2,0,0.4,0.1,0.8,0.1c0.3,0,0.6-0.1,0.9-0.2C31.6,40.4,31.9,40.2,32.1,40z"/>
	<path d="M42,42.6c-0.8,0-1.5-0.1-2.1-0.3c-0.6-0.2-1.2-0.5-1.7-0.8c-0.5-0.4-0.8-0.9-1.1-1.4c-0.3-0.6-0.4-1.3-0.4-2
		c0-0.8,0.1-1.5,0.4-2.1c0.3-0.6,0.7-1.1,1.1-1.5c0.5-0.4,1-0.6,1.6-0.8c0.6-0.2,1.3-0.3,1.9-0.3c0.6,0,1.2,0.1,1.7,0.2
		c0.5,0.1,1,0.3,1.4,0.5l0,2.4h-0.4c-0.1-0.1-0.2-0.2-0.4-0.3s-0.3-0.2-0.6-0.4c-0.2-0.1-0.4-0.2-0.7-0.3c-0.3-0.1-0.6-0.1-0.9-0.1
		c-0.7,0-1.3,0.2-1.7,0.7c-0.4,0.5-0.6,1.1-0.6,1.9c0,0.8,0.2,1.5,0.6,1.9c0.4,0.4,1,0.7,1.8,0.7c0.4,0,0.7,0,1-0.1
		c0.3-0.1,0.5-0.2,0.7-0.3c0.2-0.1,0.3-0.2,0.5-0.3c0.1-0.1,0.3-0.2,0.4-0.3H45l0,2.4c-0.4,0.2-0.9,0.4-1.4,0.5
		C43.1,42.5,42.6,42.6,42,42.6z"/>
	<path d="M53.2,36.3H53c-0.1,0-0.3-0.1-0.6-0.1c-0.3,0-0.5,0-0.7,0c-0.4,0-0.8,0-1.1,0.1s-0.6,0.1-1,0.3l0,5.9l-2.8,0l0-8.8l2.8,0
		l0,1.3c0.6-0.5,1.2-0.9,1.6-1.1c0.5-0.2,0.9-0.3,1.3-0.3c0.1,0,0.2,0,0.3,0c0.1,0,0.2,0,0.3,0L53.2,36.3z"/>
	<path d="M63.5,38.5l-6.4,0c0,0.7,0.3,1.2,0.8,1.6s1.2,0.5,2.1,0.5c0.6,0,1.2-0.1,1.7-0.3c0.6-0.2,1-0.4,1.3-0.7l0.3,0l0,2.3
		c-0.6,0.3-1.2,0.4-1.8,0.6c-0.6,0.1-1.2,0.2-1.9,0.2c-1.8,0-3.1-0.4-4-1.2s-1.4-1.9-1.4-3.4c0-1.4,0.4-2.6,1.3-3.4
		c0.9-0.8,2.1-1.3,3.7-1.3c1.4,0,2.5,0.4,3.2,1.1c0.7,0.7,1.1,1.8,1.1,3.1L63.5,38.5z M60.7,36.9c0-0.6-0.2-1-0.4-1.3
		s-0.7-0.4-1.3-0.4c-0.5,0-1,0.1-1.3,0.4c-0.3,0.3-0.5,0.7-0.6,1.4L60.7,36.9z"/>
	<path d="M74,42.4l-2.8,0l0-0.9c-0.5,0.4-0.9,0.7-1.4,0.9c-0.4,0.2-0.9,0.3-1.5,0.3c-1.1,0-1.9-0.4-2.6-1.2c-0.6-0.8-1-1.9-1-3.3
		c0-0.7,0.1-1.4,0.3-2c0.2-0.6,0.5-1.1,0.9-1.5c0.4-0.4,0.8-0.7,1.3-0.9c0.5-0.2,1-0.3,1.5-0.3c0.5,0,1,0.1,1.3,0.2
		c0.3,0.1,0.7,0.3,1,0.4l0-3.7l2.8,0L74,42.4z M71.2,40l0-4.3c-0.2-0.1-0.4-0.1-0.6-0.2c-0.2,0-0.4-0.1-0.6-0.1
		c-0.7,0-1.3,0.2-1.7,0.7s-0.6,1.1-0.6,1.9c0,0.9,0.1,1.5,0.4,1.9c0.3,0.4,0.8,0.6,1.4,0.6c0.3,0,0.5,0,0.8-0.1
		C70.7,40.2,70.9,40.1,71.2,40z"/>
	<path d="M79.5,32.4l-3,0l0-2.1l3,0L79.5,32.4z M79.5,42.4l-2.8,0l0-8.8l2.8,0L79.5,42.4z"/>
	<path d="M87.7,42.3c-0.3,0.1-0.6,0.1-1,0.2c-0.3,0-0.8,0.1-1.2,0.1c-1.1,0-1.9-0.2-2.4-0.7c-0.5-0.4-0.8-1.2-0.8-2.3l0-4.1l-1.2,0
		l0-1.9l1.2,0l0-2.5l2.8,0l0,2.5l2.6,0l0,1.9l-2.6,0l0,3.1c0,0.3,0,0.6,0,0.8c0,0.2,0,0.4,0.1,0.6c0.1,0.2,0.2,0.3,0.4,0.4
		c0.2,0.1,0.5,0.2,0.8,0.2c0.1,0,0.3,0,0.6-0.1s0.4-0.1,0.5-0.2h0.2L87.7,42.3z"/>
	<path d="M94.7,41.5c-0.2,0.1-0.3,0.3-0.6,0.4c-0.2,0.2-0.4,0.3-0.6,0.4c-0.3,0.1-0.6,0.2-0.9,0.3c-0.3,0.1-0.6,0.1-1,0.1
		c-0.8,0-1.5-0.3-2.1-0.8c-0.6-0.5-0.8-1.2-0.8-2c0-0.6,0.1-1.2,0.4-1.6c0.3-0.4,0.7-0.7,1.2-1c0.5-0.2,1.2-0.4,1.9-0.5
		c0.8-0.1,1.6-0.2,2.4-0.2v0c0-0.5-0.2-0.8-0.6-1c-0.4-0.2-1-0.3-1.8-0.3c-0.5,0-1,0.1-1.5,0.2s-0.9,0.3-1.1,0.4h-0.3l0-2.1
		c0.3-0.1,0.8-0.2,1.5-0.3c0.7-0.1,1.3-0.2,2-0.2c1.6,0,2.8,0.2,3.5,0.7c0.7,0.5,1.1,1.3,1.1,2.3l0,6l-2.8,0L94.7,41.5z M94.7,40.1
		l0-1.8c-0.4,0-0.8,0.1-1.2,0.1c-0.4,0.1-0.8,0.1-1,0.2c-0.3,0.1-0.5,0.2-0.6,0.4c-0.1,0.2-0.2,0.4-0.2,0.7c0,0.2,0,0.3,0,0.4
		s0.1,0.2,0.2,0.3c0.1,0.1,0.3,0.2,0.4,0.2c0.2,0,0.4,0.1,0.8,0.1c0.3,0,0.6-0.1,0.9-0.2C94.2,40.4,94.5,40.3,94.7,40.1z"/>
	<path d="M104.7,42.6c-0.8,0-1.5-0.1-2.1-0.3c-0.6-0.2-1.2-0.5-1.7-0.8c-0.5-0.4-0.8-0.9-1.1-1.4c-0.3-0.6-0.4-1.3-0.4-2
		c0-0.8,0.1-1.5,0.4-2.1c0.3-0.6,0.7-1.1,1.1-1.5c0.5-0.4,1-0.6,1.6-0.8c0.6-0.2,1.3-0.3,1.9-0.3c0.6,0,1.2,0.1,1.7,0.2
		c0.5,0.1,1,0.3,1.4,0.5l0,2.4h-0.4c-0.1-0.1-0.2-0.2-0.4-0.3c-0.2-0.1-0.3-0.2-0.6-0.4c-0.2-0.1-0.4-0.2-0.7-0.3
		c-0.3-0.1-0.6-0.1-0.9-0.1c-0.7,0-1.3,0.2-1.7,0.7c-0.4,0.5-0.6,1.1-0.6,1.9c0,0.8,0.2,1.5,0.6,1.9c0.4,0.4,1,0.7,1.8,0.7
		c0.4,0,0.7,0,1-0.1c0.3-0.1,0.5-0.2,0.7-0.3c0.2-0.1,0.3-0.2,0.5-0.3c0.1-0.1,0.3-0.2,0.4-0.3h0.4l0,2.4c-0.4,0.2-0.9,0.4-1.4,0.5
		S105.2,42.6,104.7,42.6z"/>
	<path d="M112.4,32.4l-3,0l0-2.1l3,0L112.4,32.4z M112.3,42.4l-2.8,0l0-8.8l2.8,0L112.3,42.4z"/>
	<path d="M123.9,38c0,1.4-0.4,2.6-1.3,3.4s-2,1.2-3.5,1.2s-2.7-0.4-3.5-1.2s-1.3-2-1.3-3.4c0-1.5,0.4-2.6,1.3-3.4
		c0.8-0.8,2-1.2,3.5-1.2c1.5,0,2.7,0.4,3.5,1.3C123.5,35.5,123.9,36.6,123.9,38z M121.9,29.3v0.2l-2.8,2.9l-1.9,0l1.9-3.1
		L121.9,29.3z M120.5,40.2c0.2-0.2,0.3-0.5,0.4-0.8c0.1-0.3,0.1-0.8,0.1-1.3c0-0.5,0-0.9-0.1-1.3c-0.1-0.3-0.2-0.6-0.4-0.8
		c-0.2-0.2-0.4-0.4-0.6-0.5c-0.2-0.1-0.5-0.1-0.8-0.1s-0.5,0-0.7,0.1c-0.2,0.1-0.4,0.2-0.6,0.4c-0.2,0.2-0.3,0.5-0.4,0.8
		c-0.1,0.4-0.2,0.8-0.2,1.3c0,0.5,0,0.9,0.1,1.2c0.1,0.4,0.2,0.6,0.4,0.8c0.2,0.2,0.4,0.4,0.6,0.4c0.2,0.1,0.5,0.1,0.8,0.1
		c0.3,0,0.5,0,0.7-0.1C120.1,40.5,120.3,40.4,120.5,40.2z"/>
	<path d="M134.8,42.4l-2.8,0l0-4.4c0-0.4,0-0.7-0.1-1.1c0-0.4-0.1-0.6-0.2-0.8c-0.1-0.2-0.3-0.3-0.5-0.4c-0.2-0.1-0.5-0.1-0.8-0.1
		c-0.3,0-0.5,0-0.8,0.1s-0.5,0.2-0.9,0.4l0,6.2l-2.8,0l0-8.8l2.8,0l0,1c0.5-0.4,1-0.7,1.4-0.9c0.5-0.2,1-0.3,1.5-0.3
		c0.9,0,1.7,0.3,2.2,0.8c0.5,0.6,0.8,1.4,0.8,2.5L134.8,42.4z"/>
</g>
</svg>
