<?xml version="1.0" encoding="utf-8"?>
<!-- Generator: Adobe Illustrator 19.1.0, SVG Export Plug-In . SVG Version: 6.00 Build 0)  -->
<svg version="1.1" id="Layer_1" xmlns="http://www.w3.org/2000/svg" xmlns:xlink="http://www.w3.org/1999/xlink" x="0px" y="0px"
	 viewBox="0 0 215.9 68.3" enable-background="new 0 0 215.9 68.3" xml:space="preserve">
<g>
	<g>
		<path fill="#FCCB7F" d="M203.2,56.3c0.3,0.2,0.8,0.1,0.7-0.6l-1-0.5L203.2,56.3z"/>
		<path fill="#FCCB7F" d="M205,51.8c-0.5-0.8-1.3-1.7-2.2-1.2c1,0.8,0.6,1,1.7,1.8c0.1,0.7-0.3,1.2-0.7,1c0.3,0.2-0.2,1,0.4,1.4
			c0.8-0.9,0.8-2,0.2-3.1C204.6,51.5,204.8,51.7,205,51.8z"/>
		<path fill="#FCCB7F" d="M176.8,13.9l0.4,0.1C177.1,13.9,176.9,13.9,176.8,13.9z"/>
		<path fill="#FCCB7F" d="M136.5,13.3c0.3,0,0.4-0.1,0.4-0.2C136.7,13.2,136.5,13.2,136.5,13.3z"/>
		<path fill="#FCCB7F" d="M129.7,12.2c0.1,0,0.3,0,0.4,0.1C129.9,12.2,129.7,12.1,129.7,12.2z"/>
		<path fill="#FCCB7F" d="M176.8,13.9l-1.1-0.3C175.6,13.9,176.2,13.8,176.8,13.9z"/>
		<path fill="#FCCB7F" d="M202.6,42.8c0,0.2,0.1,0.4,0.3,0.6c0-0.2-0.1-0.4-0.1-0.5C202.7,42.9,202.7,42.8,202.6,42.8z"/>
		<path fill="#FCCB7F" d="M194.5,13.1l0.3,0c0.1-0.1,0.2-0.2,0.3-0.4L194.5,13.1z"/>
		<path fill="#FCCB7F" d="M207.5,17.3c0-0.5-0.8-0.2-1.2-0.2c0.3,0,0.5,0.3,0.6,0.6C207.1,17.6,207.3,17.5,207.5,17.3z"/>
		<path fill="#FCCB7F" d="M206,39.8l0.1,0.4C206.1,40.1,206.1,39.9,206,39.8z"/>
		<path fill="#FCCB7F" d="M184.8,12.9c0-0.1-0.1-0.2-0.1-0.3C184.6,12.7,184.7,12.8,184.8,12.9z"/>
		<path fill="#FCCB7F" d="M189.4,52.3c0,0.1,0,0.1,0,0.1C189.5,52.4,189.5,52.3,189.4,52.3z"/>
		<path fill="#FCCB7F" d="M205.2,56.5l-0.2,0c0,0.2,0,0.3,0,0.5L205.2,56.5z"/>
		<path fill="#FCCB7F" d="M117.1,11.1C117.1,11.2,117.1,11.2,117.1,11.1C117.5,11.1,117.3,11.1,117.1,11.1z"/>
		<path fill="#FCCB7F" d="M13.7,30.8c0.8-1.3,1,2.1,1.8,0.2C15.2,31.2,14.2,29.2,13.7,30.8z"/>
		<path fill="#FCCB7F" d="M202.7,42.5c0-0.2,0-0.4,0-0.6C202.7,42.2,202.7,42.3,202.7,42.5z"/>
		<path fill="#FCCB7F" d="M15.5,31L15.5,31l0.1-0.2C15.6,30.8,15.5,30.9,15.5,31z"/>
		<path fill="#FCCB7F" d="M88.1,11.7c0.1,0.1,0.2,0.3,0.3,0.4C88.4,11.9,88.3,11.8,88.1,11.7z"/>
		<path fill="#FCCB7F" d="M109.7,12.9l-0.5-0.1C109.4,12.8,109.5,12.8,109.7,12.9z"/>
		<path fill="#FCCB7F" d="M76.9,12.8c-0.3-0.1-0.4-0.2-0.8-0.1c0,0,0.1,0.1,0.1,0.1C76.4,12.8,76.6,12.7,76.9,12.8z"/>
		<path fill="#FCCB7F" d="M65.2,12.9c0.1,0.1,0.1,0.1,0.2,0.2c0.1,0,0.3,0,0.4,0L65.2,12.9z"/>
		<path fill="#FCCB7F" d="M154,52.7c0.3,0.2,0.4,0.5,0.5,0.8C154.3,52.9,156,52.7,154,52.7z"/>
		<path fill="#FCCB7F" d="M203.1,42.8c-0.2-0.1-0.3-0.2-0.4-0.3c0,0.1,0,0.3,0,0.4C202.9,42.9,203,42.9,203.1,42.8z"/>
		<path fill="#FCCB7F" d="M76.4,19.5l-1.9-0.1C75.1,19.5,75.8,19.5,76.4,19.5z"/>
		<path fill="#FCCB7F" d="M70.3,52.8l0.4-0.1C70.5,52.7,70.4,52.7,70.3,52.8z"/>
		<path fill="#FCCB7F" d="M69.1,19.5c-0.3-0.3-0.7-0.5-1-0.6C68,19,67.9,19,67.8,19.1L69.1,19.5z"/>
		<path fill="#FCCB7F" d="M154.5,53.5L154.5,53.5L154.5,53.5z"/>
		<path fill="#FCCB7F" d="M166.7,51.5c-1.8,0-0.8,1.1-1.2,1.7c-2.1,0.3-1-0.8-1.7-1.4c-1.3,0.3-2.3,1.3-3.3,1.3
			c-0.1-0.2-0.3-0.2,0-0.5c-1.4,0.9-4.1,0-5.8,1.2c-0.1-0.1-0.2-0.2-0.2-0.3c0.3,0.6,0.3,1.1,0.2,1.5c-0.8,0-1.5,0.7-1.8,0
			c0.5,0,0.5-0.3,0.8-0.5l-0.8,0.3c-0.7-1,1.1-0.4,1.1-1.1c-1.6,0.3-3.5,1.2-4.7,0.9c-0.3-1,2.9-0.3,1.2-1.2l1.9,0.4
			c-1.5-1.6,1.2,0.1-0.2-1.6c-2.5-0.3-2.8,0.5-5.3,0.2c-0.6,0.6,0.2,0.8-0.4,1.4c-3.6,1-2.8-2.6-5.4-1.2c-0.7,0.7-0.9,2-2.8,1.3
			l0.6-1.2c-2.4-0.1-1.4,1.7-4,0.9c0.5-0.5,1.9-0.4,1.6-0.5c-1.7-0.9-1.2,0.7-2.4,0.7l-0.3-1c-2.6,0.2-5.5,0.9-8.3,1.1
			c0.2-0.3,0.7-0.6,0-0.9c-3.6,0.5-7.8-0.1-11.3-0.7l-1.3,0.9c-0.3,0-0.6-0.4-0.2-0.6c-1.4-0.3-0.1,0.6-0.7,0.9
			c-0.8,0.1-1-0.5-0.5-0.8c-2.4,0.7-6.9,1.6-9.4,0.7l0.5-0.3c-2-0.4-2.2,1.8-4.1,1l0.4-0.2c-4.3-0.4-9,0.4-12.3-0.9
			c-0.6,1.3-4.2-0.6-4.5,1.2c-2.5-0.9-1.7-1.2-5.2-1.8c-0.9-0.1-1.4,1.1-2.5,1.3l0-0.9l-1.5,1l-0.8-1.1l-1.1,0.2
			c0.4,0.1,0.9,0.4,0.8,0.7c-1.7,0.4-4.1-0.6-4.1-1.1l-4,0.8c0.1-0.4,0.7-0.5,1.3-0.7c-2.1,0.9-0.4-1-2.3-0.1
			c0.3,0.2-0.1,0.6-0.2,0.7c-1-0.6-3.2-0.6-4.8-0.3l0.3-0.6c-2.9-0.2-6.2,0.3-9.5,0.3c1.2,0.3,0.9,1.4-0.1,1.5l-0.4-1
			c-0.6,0.6,1,0.4-0.3,1.1c-1.2-0.1-0.8-1.1-0.1-1.4L46,52.9c-0.1-0.3,0.3-0.4,0.4-0.8c-0.6,0.6-2.6-1-3.5,0.1l-0.1-0.3
			c-3.3,0-4.8,0.3-7.5,0.4c-0.1,0.8-1.1,0.7-1.9,1.3c-2-0.3-4.2-0.9-6.5-0.9c-1.7,0.4-0.5,0.7-1.2,1.2c-0.1-0.8-2.5-0.7-1.3-1.2
			c-3.4,0.1-2.2,0.2-4.4,0.8l0,0l0,0c-0.2,0.3,0,0.4-0.4,0.7c-0.1,0-0.3,0-0.3,0c0.1-0.4,0.4-0.8,0.7-1l0.1,0
			c-0.3-0.2-0.3-0.7-0.2-1.3c0-0.1,0.1-0.3,0.1-0.4c0,0,0,0,0-0.1l0-0.2l0.1-0.4c0.1-0.6,0.2-1.1,0.4-1.7c0.5-2.2,1-4.4,0.1-6
			l0.1,0.2L20,40c0.1-1.5,0.6,0.9,1.1-0.2c-1.3-3.6,0.2-5.7-0.7-8.6c1.1-1.1,1.1-3.2,1-5.3c-0.1-1.1-0.2-2.2-0.2-3.2
			c0-0.5,0-1,0.1-1.5c0-0.2,0.1-0.5,0.1-0.7c0-0.1,0.1-0.2,0.1-0.3c0-0.1,0.1,0,0.1,0c0,0-0.1,0-0.3,0c-0.1,0-0.3,0-0.3,0
			c-0.5-0.2,0.3-0.2,0.4-0.1c-0.4-0.1-0.5,0-0.8-0.2c-0.1-0.3-0.2-0.7-0.2-1.1c0.4,0,0.9,0.1,1.3,0.2l0.1,0l0.5,0l1.1,0.1l2.2,0.2
			c2.9,0.3,5.8,0.7,8.7,0.9c2.5,0.1,1.4-2.8,4.6-1.5l-0.9,1c5.1-1.2,10.5,0,15.5-1c-0.3,0.2-0.3,0.5-0.8,0.5c1.1,0.7,3.9,0,3.9-0.6
			c0.8,0.1,0.2,0.5,0.7,0.8c1.1,0.4,2.7-0.9,3.2-0.2c0.1,0.1-0.3,0.2-0.5,0.3c0.7-0.3,3.2,0.1,2.6-0.7c1.9,0.4,3.6-0.4,5.1,0.1
			c1-0.9,3.2,0.4,3.5-0.9c-0.1,1.4,3.3,1.1,4.5,0.5c-0.4,0.4,1,0.4,0.6,1c1.4,0,2.6-0.3,2.4-1c2.5,1.6,5-1.3,6.4,0.8
			c4-0.7,7.8-1.2,11.4-1.5c-0.1,1.4-4,0.1-3.9,1.6c3.4-0.6,5.4-1.7,8.9-1.4c0.9,0.2-0.5,0.6-0.8,0.8c3.4-0.6,6.7,0.1,9.7-0.6
			c0,0.1-0.3,0.3-0.7,0.4c0.6,0,1.4,0.2,1.3-0.4l-0.6,0.2c-1-0.9,2.4-1.9,2.5-2.3c-1,1.8,3,0.4,1.4,2.7c0.4-0.1,0.9-0.4,0.8-0.8
			c0.6,0.1,0.8,0.4,0.2,0.8c2.2-0.3,1.4-1,3.4-1c0,0.3-0.4,0.4-0.6,0.8c1-0.6,2-1.2,3.6-0.9c-0.1,0.2,0.1,0.4-0.4,0.4
			c2.8-0.1,4.8-1.5,8-1c-0.9,1.3,1.1,0.4,1.2,1.5l1.7-0.3l-0.7-0.5c1.5,0,2.8-0.8,4-0.4l-1.1,0.5l2.8-0.2l-1.6-0.4
			c1.5-0.6-0.2-1.4,1.8-1.1c-0.4,0.1,1.5,0,2.2,0.7l0,0c0.7-0.4,1.5-0.7,2.6-0.5c0.3,0.4-0.2,1.2,0,1.5c0.7-0.9,3.4-0.3,4.4-1.3
			c-0.3,0.2-0.3,0.8-0.2,0.9l0.6-0.8c0.7,0.2,0.8,0.4,0.7,0.8c2,0.1-0.7-1.4,1.8-0.8c-0.2,0.1-0.1,0.2-0.5,0.3
			c2.4,0.3,4.7-0.5,7-0.1c0.7,1.1-2,0.3-1.2,1.2c3.2-0.2,6.7-1.4,9.8-1.1l-0.6-0.1c0.4-1.6,2.3,0.8,3.9,0c-0.4,0.1-0.5,0.9-0.4,0.7
			c2.1,0.3,4.4-0.4,7.6-0.9l-0.4,0.4c1.3,0.4,3.3,0.2,4.7,0.4c0.4-0.4,1.2-0.3,0.7-0.9c4.2,2.3,8-1.2,11.8,0.7
			c-0.4,0-1.1,0.4-0.7,0.4l3.2-0.4c-0.3-0.7-0.4-0.4-1.1-1c0.4-0.4,1.3-0.7,2.1-0.7c-1.4,0.5,0,1.1,0.6,1.5
			c-0.1-0.2,0.1-0.4,0.1-0.7c1.7,1.2,0.3-1.4,2.5-0.6l-0.1,0.4c0.9-0.2,1.6-0.7,2.5-0.6c0.2,0.8-0.9,0.4-0.9,1c0.5,0,1-0.4,1.7-0.7
			c0.6-0.3,1.4-0.4,1.6,0c-0.7,0.2-1.3,0.2-1.9,0.4c0.3,0.5,0.4,0.6,0.6,0.7c0.1,0.1,0.3,0.1,0.6,0.1l0,0l0.3,0.1
			c-0.1,0.4-0.2,0.8-0.3,1.1l0.3-0.5c1-0.3,1.1,0.5,1.1,1.2c0,0.4,0,0.7,0,1.2c0.1,0.5,0.2,1,0.6,1.5c-1.3-2.1-0.8-0.3-1.7-0.5
			c-0.3,0.6-0.5,1.4-0.8,1.2c0.7,1-0.6,1.7,0.5,3.2c-0.3,0.1,0,1.1-0.8,0.9c0.2,1.3,0.5-0.3,0.9-0.2c1,2.1-1.2,4.8,0.2,7.8
			c0.6,2.5,1.6,3,2,5.4c-0.5,0.8-1.1-0.7-1.1-0.7c-0.4,1.3-0.4,2.3,0,3.5c-0.3-0.2-0.5,0-0.8,0.4c0.1,1,1.1,0.7,0.6,1.9
			c-0.3-0.2-0.8-0.5-1.2-1c0.3,1.1,0.8,2.3,1.1,3.5c-0.5,0.3-0.8-0.7-1.1-1.1c0.2,1.3,0.5,3.5,1.3,3.9l0.3-0.9
			c0,0.5-0.7,0.3-0.8-0.1c-0.6-1.1,0.3-1.6,0.6-1.7l0.2,0.8c1.7-0.9-0.3-3.4-0.2-5.1l1.2,0.7l-1-1.7c0.3-0.4,1-0.6,1.2,0.2
			c0.6-1.2-0.4-1.1,0.2-2.1c0.1-0.1,0.2-0.1,0.2,0l-0.4-1.2c0.3,0.2,0.9-0.2,0.7,0.5c0.7-2.1-0.9-3.5,0-4.3l0.1,0.2
			c-0.4-3-0.9-0.3-2-2.5l2.3-1.5l-0.9-0.3c0-0.3,0.1-0.9,0.5-0.8c-0.6-1.1-0.4,0.2-1-0.5c0.8-1.5-0.4-4.1,1.1-4.4
			c-0.7-0.5-0.5,1.4-1-0.2c1.6-0.4-0.3-1.8,0.5-3.2c0.8,0.4,0.4,1.7,1.1,0.3c-0.7-0.4-0.6-1.1-0.4-1.8c0.2-0.7,0.6-1.9,0.4-2.6
			c-0.9,0.2-0.7-1.6-0.7-3.5c-0.5,0-1.1,0-1.7,0.1c0.2-0.2-0.8-0.3-2.2-0.5c-0.7-0.1-1.5-0.2-2.3-0.2c-0.6-0.1-1.2-0.2-1.6-0.3
			l0.1-0.2c-0.3,1.1-2.2,0.9-3.5,1.1c0.1-0.7,0.3-0.9,1-1.2l-1.3,0c-0.3,0.4-0.7,0.5-1.5,0.7l0.3-0.8c-1.7,0-3.4,1-5.5,0.4
			c-0.1,0.8,1.7,2.1-0.6,2.7c-0.1-0.4-0.2-1.1,0.4-1.3c-0.2,0.1-0.7,0.3-1.1,0.2l0.9-0.7c-1-0.3-0.5,0.6-1.3,0.5
			c0-0.6-0.6-0.4-0.5-0.9c0.2-0.1,0.7,0.2,1,0c-0.9-0.1-1.9-0.5-2.3-0.9c0.1,0.3,0,0.8-0.6,0.9c-1.7,0-0.6-0.7-1.5-1
			c-0.4,0.4-1.5,0-1.5,0.9c-0.5,0-0.6-0.4-0.8-0.7c-0.9,0.4-4,0.1-3.1,1.1l0.2,0.1c0,0-0.1,0-0.1,0c0,0,0,0,0,0h0
			c-2.8,0.9-5.9-0.5-8.7-0.1l0-0.3c-1.7,0.3-3.7,0.2-4.9,0.8c-0.5,0-1.2-0.5-1-0.9c-1.3,0.2-1.4,0.6-3.3,0.1
			c1.3-0.5-0.4-0.5,1.3-0.4c-1.7-0.3-2-0.7-3.8,0.1c0.6-0.8-1.3-1-2-0.7l1.2,0.5c-0.9,0.1-1.7,0-2.5,0l0.4-1c-3.4-1.2-6.1,2.1-8.7,0
			c-0.9,0.7,1.8,0.5,1,1.3c-1.6-0.1-3.2-1.6-3.7-1.6c-2.1-0.6-2,1.5-4.2,1.1c0.3,0.4,0.6,1.3-1.1,1.6c-1.6-0.1-1.9-1.5-0.9-1.8
			c0.4,0,0.6,0.1,0.5,0.2c0.5-0.1,1.2-0.3,0.5-0.7l-0.2,0.4c-0.8-0.4-2.9-0.3-2.4-0.9c-1.2,0.3-0.5,0.6,0.4,0.8
			c-2-0.5-3.1,0-5.2-0.4c0.3,0.2,0.6,0.6,0.3,0.6c-3-0.4-1.3,0.7-3.4,0.8c-1.2-0.5,0.4-1.3-1.7-0.8c-1.3-0.4-0.3-0.9,0.2-1.2
			c-1.9,0.7-3.5-0.5-4.6-0.6l1-0.3c-0.6,0.2-1.1,0.2-1.6,0.2l0.6,0.7c-0.6-0.1-1.1-0.1-1.1-0.4c-0.6,0.5,0.5,1.2-0.7,1.8
			c-0.8-0.4-2.4,0.4-2.6-0.6c2.4,0.3-0.3-0.9,1.8-1.1c-0.4,0.1-0.9,0.1-1.5,0c-0.1-0.1,0.1-0.2,0.2-0.2c-2.3-0.8-1.1,1.1-3.5,1
			c0.3-0.5-0.6-1-1-0.9c1,0,0.5,0.9-0.4,1.3c-1.6-0.4-1.7,0.3-2.5,0.3l0.9,0.2c-0.3,0.5-1.1,0.5-2.2,0.6c-0.1-0.4,1-0.3,0.6-0.5
			c-1.2,0.9-2.7-1-4.4-0.3c-0.8-0.4-0.1-1-0.8-1.2c-1.9,0.7-2-0.7-4-0.2c0.6,0.7,0.7,0.5-0.7,1.2l3.2-0.5l-2.1,1
			c1,0,2.1-0.4,2.7-0.3c-1,0.6-0.9,0.4-0.4,1c-1.3-1.1-2.7,0.6-4.2-0.1l0-1.8c-2.3-0.8-4.1,0.9-7.2,0.5l1,0.3
			c-0.4,0.7-1.9,0.1-2.8,0.4c0.1-0.6-0.5-0.8-0.9-1.2c0.1,0.4-2.2,0-2.5,1.1l-1.4-0.8c-2.4-0.3-2.8,1.7-5.1,1.5
			c0.7-0.6-0.4-1.1,1.2-1.5c-0.8,0-1.5-0.1-1.5,0.3c-0.5-0.4-2.2,0.8-2.9,0.2c-0.3,0.3-0.4,0.9-1.3,0.8c-0.1-0.1,0-0.3,0-0.3
			c0,0.3-1.4,0.4-0.6,1.1c-2.4-1.8-6.8,0.1-8.9-1.5c-1.7,0.2-3.8,0.4-5.3,0.4c0.1-0.2,0-0.3,0.3-0.2c-2.1-0.6-1.3,1.7-3.8,1.1
			c-1.2-1,1.3-0.5,0.5-0.9c-0.3-1.9-2.9,0.3-4.6-0.9l0.4-0.1c-1.3-0.7-3.1,0.7-5.1,0.6c0,0,0.1-0.2,0-0.3c-1.4,1-4.1,1.3-6,1.6
			c0.6-0.8,0.9-0.4,0.5-1.2c-0.9,0.1,0.3,1.2-1.5,1.5c-0.6-0.4-1.8-0.8-2-1.6l1.7,0c-0.9-1.1-2.2,0-3-0.1l0.1-0.5
			c-2.6,0.2-2.6,1.3-5.3,1.2l0.3,0.4c-1.5,1.2-1.3-0.7-2.8,0.2L29.4,13c-1,0.3-3.5,1.1-5.2,1.4c1-0.9,3.1-1.3,4.4-1.8
			c-1,0-3.3,0.1-3.8,0.7c0.4-0.1,0.9-0.4,1.3-0.2c-0.6,0.5-1.3,0.8-2.1,1c-0.8,0.2-1.6,0.3-2.8,0.3c0.1-1.5-3.2-1.3-6.2-1.5
			c-0.1,1.5-0.3,2.8-0.9,3.3c0.1,0.8,0.2,1.5,0.2,2.2l0.1,1.1l0,0.9c0,0.9-0.1,1.7-0.1,2.6c-0.2,1.8-0.4,3.6-0.4,5.7
			c1.8-1.4,0.1,1.2,1.9,0.9c0.1,0.9,0.1,1.3,0,1.4l-1.1,2.8c-0.5,0.7-0.4-0.9-0.8-0.8c-0.1,2.1-0.8,0.9-1.3,2.2
			c0.7-0.3,0.9,0.7,0.7,1.9l0.8-1.6c1,2.9-1.5,2.5-0.6,5.4l-0.6-0.9c0.3,1.5,0,5.5,1.5,6.9c-0.2,0.3-0.7,0.6-0.8,0
			c0,0.8,0,1.6,0.1,2.4c0,0.4,0.1,0.8,0.2,1.2l0.1,0.6l0.1,0.3c0,0.1,0,0.3,0.1,0.5c0.3,2.8,0.5,5.1,0.4,7.4c0.6,0,1.2,0.1,1.7,0.2
			l-0.8,0.4c0.6-0.1,1.3-0.3,1.9-0.4c0.6-0.1,1.1-0.2,1.7,0c-0.1,0.2-0.7,0.4-0.1,0.5c0.3-0.1,1.2-0.3,2-0.4
			c0.4-0.1,0.9-0.1,1.3-0.2c0.3,0,0.5,0,0.7,0.1c0,0-0.2,0.1-0.4,0.3C22.2,59.9,22,60,22,60c3.5,0.6,5.3-1.2,8.2-1.5
			c0,1.3,2.7,1.7,4.1,2l0,0.2c4,0.2,6.8-1.1,10.6-1.6c2.3,1.4,7.8,0.6,11.6,1.4c-0.6-0.2,0.1-1,0.8-1.2c0.9,0.3,2.4-0.9,2.3,0.3
			l-0.3,0c0.7,1.2,2.5,0.9,3.9,0.9l0.2-1.6c3.7,2.3,9.6-0.8,11.6,1.2c0.9-0.4,2-0.4,2.9-0.8l0,0.8c2.5,0.2,3.7,0.3,6.7,0.1l-0.6,0.6
			c1.7,0.1,2.2-2.4,3.7-2.5l0.5,1.3c3,0,6,1.1,8.9-0.1c0,0.2-0.1,0.6-0.6,0.6c1.4,0,5.4,0.9,4.9-0.9c0,1.1,3.1,0.1,4.7-0.4l-0.3,0.8
			c1.4-1.1,1.4-1.4,3.3-1.7c0.4,0.1,0.4,0.7-0.2,0.5c1.5,0.4,1.2-0.8,3-0.3l-0.7,0.5c1.5,0.1,1.4-0.2,2.3-0.8c1-0.3,2.9,0.2,3.2,1
			c0.2-0.5,1.1-1.1,2-0.9c0.1,0.3-0.2,0.5-0.4,0.5c2.6,0.6,3.8-1,5.6-0.2c0,0.3,0.2,0.4,0.3,0.5c-2,0-3.7-0.1-3.5-0.1
			c0,0.8,1.7,0.9,0.3,2c1.3-0.6,3.6-1.8,5.2-1.5c0.1,0.1,0.2,0.1,0.2,0.3l-0.2,0.1c0.4,0.1,0.7,0,1-0.1c0.5,0.1,0.8,0.2,1.3,0.2
			c0.2,0.6,1.9,0.3,2.7,0.4c-0.1-0.8,1-0.7,0-1.4c0.1,0.1-0.2,0.1-0.7,0.1c-0.1,0-0.3,0-0.4,0.1c0,0,0,0,0.1-0.1
			c-0.5,0-1.2,0-2.1,0.1c0.7-0.4,1.3-0.8,2.2-0.3c0.4-0.5,0.9-1.1,1.2-1.4c1.1,1.2,3.3,1.8,3.6,2.5c2.5-0.5,5.9-0.3,7.5-1.9
			c0.7-0.2,0.8,0.5,1.1,0.7c-0.4,0.2-0.9,0.1-1.1,0.4c1.4-0.4,4.2-0.2,4.6-1.3c1.8,0.5-1,1,1.5,0.8l-0.3,0.3
			c4.9,1.8,7.9-2.8,13.3-0.6c-0.4-0.1-0.6-0.2-0.6-0.4c6.2,1,12.7-0.9,18.8,0.6c1.7,0.3,1.9-0.4,3-0.9l0.4,0.9l1.8-1
			c2.6-0.8,4.4,2.2,7.7,0.8l-0.4-0.6c1.2,0.1,3.7-0.4,3.5,0.3c0.1-0.1,0.4-0.6,0.8-0.3l0,0.5l2.9-0.8c2.2,0.3-0.3,1.9,2.9,2
			c1.2-0.2,3.4-1.4,3-1.7c-0.5,0-1.2-0.3-1.3-0.8l1.1-0.2c0.2-1.4,1-2.8-1.7-3.8l-1.9,0.9l-0.6-0.7l1.6,0c-0.9-0.6-1.5-0.1-2.1,0.3
			c-0.2-0.4-0.4-0.6-0.8-0.7l-1.8,1.3c-0.2-0.5,0.8-1.1-0.4-1.4c-0.9,0.6,0.8,1.2-0.6,1.6c-0.9-0.6-0.6-1.2-1.7-0.6
			c-0.1-0.4,0.1-0.6,0.5-0.7c-0.9,0.4-2.5,0.2-3,0.9c-0.9-0.8-3.2,0.2-3.1-1.1c-0.3,0.3-1.7,1-2.5,1.1c1.6-1.6-3.2-0.1-2.8-1.8
			c-1.2,1.4-4.2,0.6-6.3,1.4c0.1-0.1,0.3-0.3,0.5-0.3c-1.2-0.1-1.5-0.5-2.2-0.8c-0.1,1.2-2,1.4-2.9,2.2c-1.4-1.1,0.9-1.4,0.4-2.5
			c0.1,1-2.5,1-2,1.7c-1.1-0.7-0.9-0.3-1.5-1.3c-0.2,1.5-1,0.2-1.9,1.2c-1.6-0.7-0.4-1.4-2.1-0.9C165.2,52,166.7,51.5,166.7,51.5z
			 M125.5,54C125.5,54,125.5,54,125.5,54c0.4,0,0.7-0.1,0.9-0.1C126.1,54,125.9,54,125.5,54z M122,54c0.4,0,0.9,0,1.5,0
			c0.1,0.3,0,0.6-0.4,0.6C123.3,54.4,122.5,54.3,122,54z M129.3,59.9c-0.5,0.1-0.7,0-0.8-0.2c0.3,0,0.6,0,1-0.1c0,0,0-0.1,0.1-0.1
			C129.5,59.6,129.4,59.8,129.3,59.9z"/>
		<path fill="#FCCB7F" d="M130.3,58.8c0.1,0,0.1-0.1,0.2-0.1c-0.1-0.1-0.2-0.1-0.3-0.2c-0.1,0.1-0.1,0.2-0.2,0.3
			C130.1,58.8,130.2,58.8,130.3,58.8z"/>
		<path fill="#FCCB7F" d="M177.3,14L177.3,14c0,0,0,0,0.1,0.1C177.3,14.1,177.3,14,177.3,14z"/>
		<polygon fill="#FCCB7F" points="74.1,52.4 74.1,52.6 74.4,52.4 		"/>
		<path fill="#FCCB7F" d="M196.4,16.9c0,0.1,0.1,0.2,0.3,0.2C196.6,17,196.5,17,196.4,16.9z"/>
		<path fill="#FCCB7F" d="M203,17.1c0.1,0.1,0.1,0.1,0.2,0.2l-0.2,0.5c0.1-0.2,0.2-0.4,0.2-0.5C203.1,17.1,203.1,17.1,203,17.1z"/>
		<path fill="#FCCB7F" d="M202.9,21c0.1,0.1,0.3,0.1,0.4,0.1c0,0,0,0,0,0L202.9,21z"/>
		<path fill="#FCCB7F" d="M110.1,18.5c-0.1,0-0.2,0-0.2,0C109.3,18.7,109.7,18.6,110.1,18.5z"/>
		<path fill="#FCCB7F" d="M140.1,16.5c-0.3,0.2-0.6,0.3-1,0.4C139.7,17,140.1,17,140.1,16.5z"/>
		<path fill="#FCCB7F" d="M76.6,19.5C76.6,19.5,76.6,19.5,76.6,19.5c-0.1,0-0.1,0-0.2,0L76.6,19.5z"/>
		<path fill="#FCCB7F" d="M137.8,16.9c0.5,0.2,1,0.1,1.4,0C138.7,16.9,138.2,16.8,137.8,16.9z"/>
		<path fill="#FCCB7F" d="M202.6,48.5l0,0.3c0.1,0,0.1,0,0.1,0L202.6,48.5z"/>
		<path fill="#FCCB7F" d="M202.7,48.8l0.1,0.3C202.8,49,202.7,48.9,202.7,48.8z"/>
		<path fill="#FCCB7F" d="M203,49.9l-0.2-0.7C202.8,49.4,202.7,49.7,203,49.9z"/>
		<path fill="#FCCB7F" d="M202.9,40.1l-0.3-0.1C202.7,40,202.8,40.1,202.9,40.1z"/>
		<path fill="#FCCB7F" d="M202.9,37.5c-0.1,0.6-0.7,1.5-0.5,2.4l0.2,0.1C202.2,39.6,203.4,38.1,202.9,37.5z"/>
		<path fill="#FCCB7F" d="M206.6,26.9l-0.2,2.1c0.3-0.4,0.8-0.9,0.8,0.1C208.2,26.4,206.5,29.7,206.6,26.9z"/>
		<path fill="#FCCB7F" d="M207.1,20.3c0.2,1.1,0.5,0,0.7,0c0-0.1-0.1-0.2-0.1-0.3c0-0.1-0.1-0.2-0.1-0.3c-0.1-0.2-0.1-0.2-0.1-0.3
			c0,0-0.1,0-0.1,0.2C207.2,19.8,207.2,20.1,207.1,20.3z"/>
		<path fill="#FCCB7F" d="M162.3,13.3l0.1-0.8C161.5,12.7,162.4,12.9,162.3,13.3z"/>
		<polygon fill="#FCCB7F" points="153.2,17.3 154,17.8 154.4,17.1 		"/>
		<polygon fill="#FCCB7F" points="147.7,11.8 148.1,11.7 146.7,12 		"/>
		<path fill="#FCCB7F" d="M67.3,12.1l0.3,0.9C68.2,12.9,68.3,11.8,67.3,12.1z"/>
		<path fill="#FCCB7F" d="M32.6,13.1c-0.4-0.5-1.4-0.8-2-0.3C31.4,12.8,32.2,13.2,32.6,13.1z"/>
		<polygon fill="#FCCB7F" points="64.9,60 64.2,60.3 65.5,60.1 		"/>
	</g>
</g>
<g>
	<path fill="#FBC36C" d="M46.3,36.1c0,1.1-0.5,2.1-1.5,2.8c-1,0.7-2.3,1.1-4,1.1c-1,0-1.8-0.1-2.5-0.3s-1.4-0.4-2-0.6v-2.8l0.3,0
		c0.6,0.5,1.3,0.9,2.1,1.1s1.5,0.4,2.2,0.4c0.2,0,0.4,0,0.7,0s0.5-0.1,0.7-0.2c0.2-0.1,0.4-0.2,0.6-0.4s0.2-0.3,0.2-0.6
		c0-0.3-0.1-0.5-0.3-0.7s-0.5-0.3-1-0.4c-0.4-0.1-0.9-0.2-1.4-0.3s-0.9-0.2-1.4-0.3c-1-0.3-1.7-0.7-2.1-1.3s-0.6-1.2-0.6-2
		c0-1.1,0.5-2,1.5-2.7s2.2-1,3.7-1c0.8,0,1.5,0.1,2.3,0.2s1.4,0.3,1.9,0.6v2.7h-0.3c-0.5-0.4-1-0.7-1.7-0.9s-1.4-0.4-2.1-0.4
		c-0.2,0-0.5,0-0.7,0.1s-0.5,0.1-0.7,0.2c-0.2,0.1-0.4,0.2-0.5,0.4s-0.2,0.3-0.2,0.5c0,0.3,0.1,0.5,0.4,0.7s0.7,0.3,1.3,0.4
		c0.4,0.1,0.8,0.2,1.2,0.3s0.8,0.2,1.3,0.3c0.9,0.3,1.5,0.7,2,1.2C46.1,34.6,46.3,35.3,46.3,36.1z"/>
	<path fill="#FBC36C" d="M56.8,35.9l-6.4,0c0,0.7,0.3,1.2,0.8,1.6s1.2,0.5,2.1,0.5c0.6,0,1.2-0.1,1.7-0.3s1-0.4,1.3-0.7h0.3v2.3
		c-0.6,0.3-1.2,0.4-1.8,0.6S53.7,40,53,40c-1.8,0-3.1-0.4-4-1.2s-1.4-1.9-1.4-3.4c0-1.4,0.4-2.6,1.3-3.4s2.1-1.3,3.7-1.3
		c1.4,0,2.5,0.4,3.2,1.1s1.1,1.8,1.1,3.1L56.8,35.9z M54,34.2c0-0.6-0.2-1-0.4-1.3s-0.7-0.4-1.3-0.4c-0.5,0-1,0.1-1.3,0.4
		s-0.5,0.7-0.6,1.4H54z"/>
	<path fill="#FBC36C" d="M67.3,39.8h-2.8v-0.9c-0.5,0.4-0.9,0.7-1.4,0.9c-0.4,0.2-0.9,0.3-1.5,0.3c-1.1,0-1.9-0.4-2.6-1.2
		s-1-1.9-1-3.3c0-0.7,0.1-1.4,0.3-2c0.2-0.6,0.5-1.1,0.9-1.5c0.4-0.4,0.8-0.7,1.3-0.9s1-0.3,1.5-0.3c0.5,0,1,0.1,1.3,0.2
		c0.3,0.1,0.7,0.3,1,0.4v-3.7h2.8L67.3,39.8z M64.5,37.3l0-4.3c-0.2-0.1-0.4-0.1-0.6-0.2c-0.2,0-0.4-0.1-0.6-0.1
		c-0.7,0-1.3,0.2-1.7,0.7c-0.4,0.5-0.6,1.1-0.6,1.9c0,0.9,0.1,1.5,0.4,1.9s0.8,0.6,1.4,0.6c0.3,0,0.5,0,0.8-0.1
		C64.1,37.6,64.3,37.5,64.5,37.3z"/>
	<path fill="#FBC36C" d="M78.6,35.9h-6.4c0,0.7,0.3,1.2,0.8,1.6s1.2,0.5,2.1,0.5c0.6,0,1.2-0.1,1.7-0.3s1-0.4,1.3-0.7h0.3v2.3
		c-0.6,0.3-1.2,0.4-1.8,0.6S75.5,40,74.8,40c-1.8,0-3.1-0.4-4-1.2s-1.4-1.9-1.4-3.4c0-1.4,0.4-2.6,1.3-3.4s2.1-1.3,3.7-1.3
		c1.4,0,2.5,0.4,3.2,1.1s1.1,1.8,1.1,3.1L78.6,35.9z M75.8,34.2c0-0.6-0.2-1-0.4-1.3s-0.7-0.4-1.3-0.4c-0.5,0-1,0.1-1.3,0.4
		s-0.5,0.7-0.6,1.4H75.8z"/>
	<path fill="#FBC36C" d="M88.3,37c0,0.9-0.4,1.6-1.2,2.2S85.1,40,83.7,40c-0.8,0-1.5-0.1-2.1-0.2s-1.1-0.3-1.5-0.5V37h0.3
		c0.1,0.1,0.3,0.2,0.5,0.3c0.2,0.1,0.4,0.2,0.8,0.4c0.3,0.1,0.6,0.2,1,0.3s0.8,0.1,1.2,0.1c0.6,0,1-0.1,1.2-0.2s0.4-0.3,0.4-0.5
		c0-0.2-0.1-0.4-0.2-0.5s-0.5-0.2-0.9-0.3c-0.2,0-0.5-0.1-0.8-0.2s-0.7-0.1-1-0.2c-0.8-0.2-1.4-0.5-1.8-1c-0.4-0.4-0.6-1-0.6-1.6
		c0-0.8,0.4-1.5,1.2-2.1c0.8-0.6,1.9-0.8,3.3-0.8c0.7,0,1.3,0.1,1.9,0.2s1.1,0.3,1.4,0.4v2.2h-0.2c-0.4-0.3-0.9-0.5-1.4-0.7
		s-1.1-0.3-1.6-0.3c-0.5,0-0.8,0.1-1.1,0.2S83,33.1,83,33.3c0,0.2,0.1,0.4,0.2,0.5s0.5,0.2,1,0.3c0.3,0.1,0.6,0.1,0.9,0.2
		s0.7,0.1,1,0.2c0.7,0.2,1.3,0.5,1.6,0.9C88.1,35.8,88.3,36.4,88.3,37z"/>
	<path fill="#FBC36C" d="M104.2,35.9l-6.4,0c0,0.7,0.3,1.2,0.8,1.6c0.5,0.4,1.2,0.5,2.1,0.5c0.6,0,1.2-0.1,1.7-0.3s1-0.4,1.3-0.7
		h0.3v2.3c-0.6,0.3-1.2,0.4-1.8,0.6s-1.2,0.2-1.9,0.2c-1.8,0-3.1-0.4-4-1.2S95,36.9,95,35.4c0-1.4,0.4-2.6,1.3-3.4s2.1-1.3,3.7-1.3
		c1.4,0,2.5,0.4,3.2,1.1s1.1,1.8,1.1,3.1L104.2,35.9z M101.4,34.2c0-0.6-0.2-1-0.4-1.3s-0.7-0.4-1.3-0.4c-0.5,0-1,0.1-1.3,0.4
		c-0.3,0.3-0.5,0.7-0.6,1.4L101.4,34.2z"/>
	<path fill="#FBC36C" d="M115,39.7h-2.8l0-4.4c0-0.4,0-0.7-0.1-1.1s-0.1-0.6-0.2-0.8c-0.1-0.2-0.3-0.3-0.5-0.4S111,33,110.7,33
		c-0.3,0-0.5,0-0.8,0.1s-0.5,0.2-0.9,0.4l0,6.2l-2.8,0l0-8.8l2.8,0v1c0.5-0.4,1-0.7,1.4-0.9s1-0.3,1.5-0.3c0.9,0,1.7,0.3,2.2,0.8
		s0.8,1.4,0.8,2.5L115,39.7z"/>
	<path fill="#FBC36C" d="M135.4,39.7l-3,0l0-7.8l-2.2,5.1h-2.1l-2.2-5.1l0,7.8l-2.8,0l0-11.6l3.5,0l2.6,5.8l2.6-5.8l3.5,0
		L135.4,39.7z"/>
	<path fill="#FBC36C" d="M146.9,35.9l-6.4,0c0,0.7,0.3,1.2,0.8,1.6s1.2,0.5,2.1,0.5c0.6,0,1.2-0.1,1.7-0.3s1-0.4,1.3-0.7h0.3v2.3
		c-0.6,0.3-1.2,0.4-1.8,0.6s-1.2,0.2-1.9,0.2c-1.8,0-3.1-0.4-4-1.2s-1.4-1.9-1.4-3.4c0-1.4,0.4-2.6,1.3-3.4s2.1-1.3,3.7-1.3
		c1.4,0,2.5,0.4,3.2,1.1s1.1,1.8,1.1,3.1L146.9,35.9z M144.1,34.2c0-0.6-0.2-1-0.4-1.3s-0.7-0.4-1.3-0.4c-0.5,0-1,0.1-1.3,0.4
		s-0.5,0.7-0.6,1.4L144.1,34.2z M145.2,26.7l0,0.2l-2.8,2.9h-1.9l1.9-3.1L145.2,26.7z"/>
	<path fill="#FBC36C" d="M158,39.7h-3.3l-1.9-2.6l-1.9,2.6h-3.2l3.5-4.4l-3.4-4.4h3.3l1.8,2.6l1.9-2.6h3.2l-3.4,4.3L158,39.7z"/>
	<path fill="#FBC36C" d="M162.5,29.7l-3,0v-2.1l3,0V29.7z M162.4,39.7l-2.8,0l0-8.8l2.8,0L162.4,39.7z"/>
	<path fill="#FBC36C" d="M169.6,40c-0.8,0-1.5-0.1-2.1-0.3s-1.2-0.5-1.7-0.8c-0.5-0.4-0.8-0.9-1.1-1.4s-0.4-1.3-0.4-2
		c0-0.8,0.1-1.5,0.4-2.1s0.7-1.1,1.1-1.5c0.5-0.4,1-0.6,1.6-0.8s1.3-0.3,1.9-0.3c0.6,0,1.2,0.1,1.7,0.2s1,0.3,1.4,0.5v2.4h-0.4
		c-0.1-0.1-0.2-0.2-0.4-0.3s-0.3-0.2-0.6-0.4c-0.2-0.1-0.4-0.2-0.7-0.3s-0.6-0.1-0.9-0.1c-0.7,0-1.3,0.2-1.7,0.7s-0.6,1.1-0.6,1.9
		c0,0.8,0.2,1.5,0.6,1.9s1,0.7,1.8,0.7c0.4,0,0.7,0,1-0.1s0.5-0.2,0.7-0.3c0.2-0.1,0.3-0.2,0.5-0.3c0.1-0.1,0.3-0.2,0.4-0.3h0.4v2.4
		c-0.4,0.2-0.9,0.4-1.4,0.5S170.2,40,169.6,40z"/>
	<path fill="#FBC36C" d="M183.4,35.4c0,1.4-0.4,2.6-1.3,3.4s-2,1.2-3.5,1.2c-1.5,0-2.7-0.4-3.5-1.2s-1.3-2-1.3-3.4
		c0-1.5,0.4-2.6,1.3-3.4s2-1.2,3.5-1.2c1.5,0,2.7,0.4,3.6,1.2S183.4,33.9,183.4,35.4z M180,37.5c0.2-0.2,0.3-0.5,0.4-0.8
		s0.1-0.8,0.1-1.3c0-0.5,0-0.9-0.1-1.3s-0.2-0.6-0.4-0.8c-0.2-0.2-0.4-0.4-0.6-0.5s-0.5-0.1-0.8-0.1c-0.3,0-0.5,0-0.7,0.1
		s-0.4,0.2-0.6,0.4c-0.2,0.2-0.3,0.5-0.4,0.8s-0.2,0.8-0.2,1.3c0,0.5,0,0.9,0.1,1.2s0.2,0.6,0.4,0.8c0.2,0.2,0.4,0.4,0.6,0.4
		s0.5,0.1,0.8,0.1c0.3,0,0.5,0,0.7-0.1S179.8,37.7,180,37.5z"/>
</g>
</svg>
