<?xml version="1.0" encoding="utf-8"?>
<!-- Generator: Adobe Illustrator 19.1.0, SVG Export Plug-In . SVG Version: 6.00 Build 0)  -->
<svg version="1.1" id="Layer_1" xmlns="http://www.w3.org/2000/svg" xmlns:xlink="http://www.w3.org/1999/xlink" x="0px" y="0px"
	 viewBox="0 0 212 68.3" enable-background="new 0 0 212 68.3" xml:space="preserve">
<g>
	<g>
		<path fill="#FCCB7F" d="M194.7,57.3c0.3,0.2,0.8,0.1,0.7-0.6l-1-0.5L194.7,57.3z"/>
		<path fill="#FCCB7F" d="M196.6,52.8c-0.5-0.8-1.3-1.7-2.2-1.2c1,0.8,0.6,1,1.7,1.8c0.1,0.7-0.3,1.2-0.7,1c0.3,0.2-0.2,1,0.4,1.4
			c0.8-0.9,0.8-2,0.2-3.1C196.1,52.5,196.4,52.7,196.6,52.8z"/>
		<path fill="#FCCB7F" d="M168.3,14.9l0.4,0.1C168.6,14.9,168.5,14.9,168.3,14.9z"/>
		<path fill="#FCCB7F" d="M128.1,14.3c0.3,0,0.4-0.1,0.4-0.2C128.3,14.2,128,14.2,128.1,14.3z"/>
		<path fill="#FCCB7F" d="M121.2,13.2c0.1,0,0.3,0,0.4,0.1C121.5,13.2,121.3,13.1,121.2,13.2z"/>
		<path fill="#FCCB7F" d="M168.3,14.9l-1.1-0.3C167.2,14.9,167.8,14.8,168.3,14.9z"/>
		<path fill="#FCCB7F" d="M194.2,43.8c0,0.2,0.1,0.4,0.3,0.6c0-0.2-0.1-0.4-0.1-0.5C194.3,43.8,194.2,43.8,194.2,43.8z"/>
		<path fill="#FCCB7F" d="M186.1,14l0.3,0c0.1-0.1,0.2-0.2,0.3-0.4L186.1,14z"/>
		<path fill="#FCCB7F" d="M199.1,18.3c0-0.5-0.8-0.2-1.2-0.2c0.3,0,0.5,0.3,0.6,0.6C198.7,18.6,198.8,18.5,199.1,18.3z"/>
		<path fill="#FCCB7F" d="M197.6,40.8l0.1,0.4C197.7,41.1,197.7,40.9,197.6,40.8z"/>
		<path fill="#FCCB7F" d="M176.3,13.9c0-0.1-0.1-0.2-0.1-0.3C176.2,13.7,176.3,13.8,176.3,13.9z"/>
		<path fill="#FCCB7F" d="M181,53.3c0,0.1,0,0.1,0,0.2C181,53.4,181.1,53.3,181,53.3z"/>
		<path fill="#FCCB7F" d="M196.7,57.5l-0.2,0c0,0.2,0,0.3,0,0.5L196.7,57.5z"/>
		<path fill="#FCCB7F" d="M108.6,12.1C108.7,12.1,108.7,12.1,108.6,12.1C109,12.1,108.8,12.1,108.6,12.1z"/>
		<path fill="#FCCB7F" d="M5.3,31.8c0.8-1.3,1,2.1,1.8,0.2C6.7,32.1,5.7,30.2,5.3,31.8z"/>
		<path fill="#FCCB7F" d="M194.3,43.5c0-0.2,0-0.4,0-0.6C194.3,43.2,194.3,43.3,194.3,43.5z"/>
		<path fill="#FCCB7F" d="M7.1,32L7.1,32l0.1-0.2C7.1,31.8,7.1,31.9,7.1,32z"/>
		<path fill="#FCCB7F" d="M79.7,12.6c0.1,0.1,0.2,0.3,0.3,0.4C80,12.9,79.9,12.8,79.7,12.6z"/>
		<path fill="#FCCB7F" d="M101.3,13.8l-0.5-0.1C100.9,13.8,101.1,13.8,101.3,13.8z"/>
		<path fill="#FCCB7F" d="M68.5,13.8c-0.3-0.1-0.4-0.2-0.8-0.1c0,0,0.1,0.1,0.1,0.1C67.9,13.8,68.1,13.7,68.5,13.8z"/>
		<path fill="#FCCB7F" d="M56.8,13.8c0.1,0.1,0.1,0.1,0.2,0.2c0.1,0,0.3,0,0.4,0L56.8,13.8z"/>
		<path fill="#FCCB7F" d="M145.5,53.7c0.3,0.2,0.4,0.5,0.5,0.8C145.9,53.9,147.6,53.6,145.5,53.7z"/>
		<path fill="#FCCB7F" d="M194.7,43.8c-0.2-0.1-0.3-0.2-0.4-0.3c0,0.1,0,0.3,0,0.4C194.5,43.9,194.6,43.9,194.7,43.8z"/>
		<path fill="#FCCB7F" d="M68,20.5l-1.9-0.1C66.7,20.4,67.3,20.5,68,20.5z"/>
		<path fill="#FCCB7F" d="M61.8,53.8l0.4-0.1C62.1,53.7,61.9,53.7,61.8,53.8z"/>
		<path fill="#FCCB7F" d="M60.6,20.5c-0.3-0.3-0.7-0.5-1-0.6c-0.1,0.1-0.2,0.1-0.2,0.2L60.6,20.5z"/>
		<path fill="#FCCB7F" d="M146.1,54.5L146.1,54.5L146.1,54.5z"/>
		<path fill="#FCCB7F" d="M158.3,52.5c-1.8,0-0.8,1.1-1.2,1.7c-2.1,0.3-1-0.8-1.7-1.4c-1.3,0.3-2.3,1.3-3.3,1.3
			c-0.1-0.2-0.3-0.2,0-0.5c-1.4,0.9-4.1,0-5.8,1.2c-0.1-0.1-0.2-0.2-0.2-0.3c0.3,0.6,0.3,1.1,0.2,1.5c-0.8,0-1.5,0.7-1.8,0
			c0.5,0,0.5-0.3,0.8-0.5l-0.8,0.3c-0.7-1,1.1-0.4,1.1-1.1c-1.6,0.3-3.5,1.2-4.7,0.9c-0.3-1,2.9-0.3,1.2-1.2l1.9,0.4
			c-1.5-1.6,1.2,0.1-0.2-1.6c-2.5-0.3-2.8,0.5-5.3,0.2c-0.6,0.6,0.2,0.8-0.4,1.4c-3.6,1-2.8-2.6-5.4-1.2c-0.7,0.7-0.9,2-2.8,1.3
			l0.6-1.2c-2.4-0.1-1.4,1.7-4,0.9c0.5-0.5,1.9-0.4,1.6-0.5c-1.7-0.9-1.2,0.7-2.4,0.7l-0.3-1c-2.6,0.2-5.5,0.9-8.3,1.1
			c0.2-0.3,0.7-0.6,0-0.9c-3.6,0.5-7.8-0.1-11.3-0.7l-1.3,0.9c-0.3,0-0.6-0.4-0.2-0.6c-1.4-0.3-0.1,0.6-0.7,0.9
			c-0.8,0.1-1-0.5-0.5-0.8c-2.4,0.7-6.9,1.6-9.4,0.7l0.5-0.3c-2-0.4-2.2,1.8-4.1,1l0.4-0.2c-4.3-0.4-9,0.4-12.3-0.9
			c-0.6,1.3-4.2-0.6-4.5,1.2c-2.5-0.9-1.7-1.2-5.2-1.8c-0.9-0.1-1.4,1.1-2.5,1.3l0-0.9l-1.5,1l-0.8-1.1l-1.1,0.2
			c0.4,0.1,0.9,0.4,0.8,0.7c-1.7,0.4-4.1-0.6-4.1-1.1l-4,0.8c0.1-0.4,0.7-0.5,1.3-0.7c-2.1,0.9-0.4-1-2.3-0.1
			c0.3,0.2-0.1,0.6-0.2,0.7c-1-0.6-3.2-0.6-4.8-0.3l0.3-0.6c-2.9-0.2-6.2,0.3-9.5,0.3c1.2,0.3,0.9,1.4-0.1,1.5l-0.4-1
			c-0.6,0.6,1,0.4-0.3,1.1c-1.2-0.1-0.8-1.1-0.1-1.4l-1.5,0.3c-0.1-0.3,0.3-0.4,0.4-0.8c-0.6,0.6-2.6-1-3.5,0.1l-0.1-0.3
			c-3.3,0-4.8,0.3-7.5,0.4c-0.1,0.8-1.1,0.7-1.9,1.3c-2-0.3-4.2-0.9-6.5-0.9c-1.7,0.4-0.5,0.7-1.2,1.2c-0.1-0.8-2.5-0.7-1.3-1.2
			c-3.4,0.1-2.2,0.2-4.4,0.8l0,0l0,0c-0.2,0.3,0,0.4-0.4,0.7c-0.1,0-0.3,0-0.3,0c0.1-0.4,0.4-0.8,0.7-1l0.1,0
			c-0.3-0.2-0.3-0.7-0.2-1.3c0-0.1,0.1-0.3,0.1-0.4c0,0,0,0,0-0.1l0-0.2l0.1-0.4c0.1-0.6,0.2-1.1,0.4-1.7c0.5-2.2,1-4.4,0.1-6
			l0.1,0.2l-0.8-3.3c0.1-1.5,0.6,0.9,1.1-0.2c-1.3-3.6,0.2-5.7-0.7-8.6c1.1-1.1,1.1-3.2,1-5.3c-0.1-1.1-0.2-2.2-0.2-3.2
			c0-0.5,0-1,0.1-1.5c0-0.2,0.1-0.5,0.1-0.7c0-0.1,0.1-0.2,0.1-0.3c0-0.1,0.1,0,0.1,0c0,0-0.1,0-0.3,0c-0.1,0-0.3,0-0.3,0
			c-0.5-0.2,0.3-0.2,0.4-0.1c-0.4-0.1-0.5,0-0.8-0.2c-0.1-0.3-0.2-0.7-0.2-1.1c0.4,0,0.9,0.1,1.3,0.2l0.1,0l0.5,0l1.1,0.1l2.2,0.2
			c2.9,0.3,5.8,0.7,8.7,0.9c2.5,0.1,1.4-2.8,4.6-1.5l-0.9,1c5.1-1.2,10.5,0,15.5-1c-0.3,0.2-0.3,0.5-0.8,0.5c1.1,0.7,3.9,0,3.9-0.6
			c0.8,0.1,0.2,0.5,0.7,0.8c1.1,0.4,2.7-0.9,3.2-0.2c0.1,0.1-0.3,0.2-0.5,0.3c0.7-0.3,3.2,0.1,2.6-0.7c1.9,0.4,3.6-0.4,5.1,0.1
			c1-0.9,3.2,0.4,3.5-0.9c-0.1,1.4,3.3,1.1,4.5,0.5c-0.4,0.4,1,0.4,0.6,1c1.4,0,2.6-0.3,2.4-1c2.5,1.6,5-1.3,6.4,0.8
			c4-0.7,7.8-1.2,11.4-1.5c-0.1,1.4-4,0.1-3.9,1.6c3.4-0.6,5.4-1.7,8.9-1.4c0.9,0.2-0.5,0.6-0.8,0.8c3.4-0.6,6.7,0.1,9.7-0.6
			c0,0.1-0.3,0.3-0.7,0.4c0.6,0,1.4,0.2,1.3-0.4l-0.6,0.2c-1-0.9,2.4-1.9,2.5-2.3c-1,1.8,3,0.4,1.4,2.7c0.4-0.1,0.9-0.4,0.8-0.8
			c0.6,0.1,0.8,0.4,0.2,0.8c2.2-0.3,1.4-1,3.4-1c0,0.3-0.4,0.4-0.6,0.8c1-0.6,2-1.2,3.6-0.9c-0.1,0.2,0.1,0.4-0.4,0.4
			c2.8-0.1,4.8-1.5,8-1c-0.9,1.3,1.1,0.4,1.2,1.5l1.7-0.3l-0.7-0.5c1.5,0,2.8-0.8,4-0.4l-1.1,0.5l2.8-0.2l-1.6-0.4
			c1.5-0.6-0.2-1.4,1.8-1.1c-0.4,0.1,1.5,0,2.2,0.7l0,0c0.7-0.4,1.5-0.7,2.6-0.5c0.3,0.4-0.2,1.2,0,1.5c0.7-0.9,3.4-0.3,4.4-1.3
			c-0.3,0.2-0.3,0.8-0.2,0.9l0.6-0.8c0.7,0.2,0.8,0.4,0.7,0.8c2,0.1-0.7-1.4,1.8-0.8c-0.2,0.1-0.1,0.2-0.5,0.3
			c2.4,0.3,4.7-0.5,7-0.1c0.7,1.1-2,0.3-1.2,1.2c3.2-0.2,6.7-1.4,9.8-1.1l-0.6-0.1c0.4-1.6,2.3,0.8,3.9,0c-0.4,0.1-0.5,0.9-0.4,0.7
			c2.1,0.3,4.4-0.4,7.6-0.9l-0.4,0.4c1.3,0.4,3.3,0.2,4.7,0.4c0.4-0.4,1.2-0.3,0.7-0.9c4.2,2.3,8-1.2,11.8,0.7
			c-0.4,0-1.1,0.4-0.7,0.4l3.2-0.4c-0.3-0.7-0.4-0.4-1.1-1c0.4-0.4,1.3-0.7,2.1-0.7c-1.4,0.5,0,1.1,0.6,1.5
			c-0.1-0.2,0.1-0.4,0.1-0.7c1.7,1.2,0.3-1.4,2.5-0.6l-0.1,0.4c0.9-0.2,1.6-0.7,2.5-0.6c0.2,0.8-0.9,0.4-0.9,1c0.5,0,1-0.4,1.7-0.7
			c0.6-0.3,1.4-0.4,1.6,0c-0.7,0.2-1.3,0.2-1.9,0.4c0.3,0.5,0.4,0.6,0.6,0.7c0.1,0.1,0.3,0.1,0.6,0.1l0,0l0.3,0.1
			c-0.1,0.4-0.2,0.8-0.3,1.1l0.3-0.5c1-0.3,1.1,0.5,1.1,1.2c0,0.4,0,0.7,0,1.2c0.1,0.5,0.2,1,0.6,1.5c-1.3-2.1-0.8-0.3-1.7-0.5
			c-0.3,0.6-0.5,1.4-0.8,1.2c0.7,1-0.6,1.7,0.5,3.2c-0.3,0.1,0,1.1-0.8,0.9c0.2,1.3,0.5-0.3,0.9-0.2c1,2.1-1.2,4.8,0.2,7.8
			c0.6,2.5,1.6,3,2,5.4c-0.5,0.8-1.1-0.7-1.1-0.7c-0.4,1.3-0.4,2.3,0,3.5c-0.3-0.2-0.5,0-0.8,0.4c0.1,1,1.1,0.7,0.6,1.9
			c-0.3-0.2-0.8-0.5-1.2-1c0.3,1.1,0.8,2.3,1.1,3.5c-0.5,0.3-0.8-0.7-1.1-1.1c0.2,1.3,0.5,3.5,1.3,3.9l0.3-0.9
			c0,0.5-0.7,0.3-0.8-0.1c-0.6-1.1,0.3-1.6,0.6-1.7l0.2,0.8c1.7-0.9-0.3-3.4-0.2-5.1l1.2,0.7l-1-1.7c0.3-0.4,1-0.6,1.2,0.2
			c0.6-1.2-0.4-1.1,0.2-2.1c0.1-0.1,0.2-0.1,0.2,0l-0.4-1.2c0.3,0.2,0.9-0.2,0.7,0.5c0.7-2.1-0.9-3.5,0-4.3L198,36
			c-0.4-3-0.9-0.3-2-2.5l2.3-1.5l-0.9-0.3c0-0.3,0.1-0.9,0.5-0.8c-0.6-1.1-0.4,0.2-1-0.5c0.8-1.5-0.4-4.1,1.1-4.4
			c-0.7-0.5-0.5,1.4-1-0.2c1.6-0.4-0.3-1.8,0.5-3.2c0.8,0.4,0.4,1.7,1.1,0.3c-0.7-0.4-0.6-1.1-0.4-1.8c0.2-0.7,0.6-1.9,0.4-2.6
			c-0.9,0.2-0.7-1.6-0.7-3.5c-0.5,0-1.1,0-1.7,0.1c0.2-0.2-0.8-0.3-2.2-0.5c-0.7-0.1-1.5-0.2-2.3-0.2c-0.6-0.1-1.2-0.2-1.6-0.3
			l0.1-0.2c-0.3,1.1-2.2,0.9-3.5,1.1c0.1-0.7,0.3-0.9,1-1.2l-1.3,0c-0.3,0.4-0.7,0.5-1.5,0.7l0.3-0.8c-1.7,0-3.4,1-5.5,0.4
			c-0.1,0.8,1.7,2.1-0.6,2.7c-0.1-0.4-0.2-1.1,0.4-1.3c-0.2,0.1-0.7,0.3-1.1,0.2l0.9-0.7c-1-0.3-0.5,0.6-1.3,0.5
			c0-0.6-0.6-0.4-0.5-0.9c0.2-0.1,0.7,0.2,1,0c-0.9-0.1-1.9-0.5-2.3-0.9c0.1,0.3,0,0.8-0.6,0.9c-1.7,0-0.6-0.7-1.5-1
			c-0.4,0.4-1.5,0-1.5,0.9c-0.5,0-0.6-0.4-0.8-0.7c-0.9,0.4-4,0.1-3.1,1.1l0.2,0.1c0,0-0.1,0-0.1,0c0,0,0,0,0,0h0
			c-2.8,0.9-5.9-0.5-8.7-0.1l0-0.3c-1.7,0.3-3.7,0.2-4.9,0.8c-0.5,0-1.2-0.5-1-0.9c-1.3,0.2-1.4,0.6-3.3,0.1
			c1.3-0.5-0.4-0.5,1.3-0.4c-1.7-0.3-2-0.7-3.8,0.1c0.6-0.8-1.3-1-2-0.7l1.2,0.5c-0.9,0.1-1.7,0-2.5,0l0.4-1c-3.4-1.2-6.1,2.1-8.7,0
			c-0.9,0.7,1.8,0.5,1,1.3c-1.6-0.1-3.2-1.6-3.7-1.6c-2.1-0.6-2,1.5-4.2,1.1c0.3,0.4,0.6,1.3-1.1,1.6c-1.6-0.1-1.9-1.5-0.9-1.8
			c0.4,0,0.6,0.1,0.5,0.2c0.5-0.1,1.2-0.3,0.5-0.7l-0.2,0.4c-0.8-0.4-2.9-0.3-2.4-0.9c-1.2,0.3-0.5,0.6,0.4,0.8
			c-2-0.5-3.1,0-5.2-0.4c0.3,0.2,0.6,0.6,0.3,0.6c-3-0.4-1.3,0.7-3.4,0.8c-1.2-0.5,0.4-1.3-1.7-0.8c-1.3-0.4-0.3-0.9,0.2-1.2
			c-1.9,0.7-3.5-0.5-4.6-0.6l1-0.3c-0.6,0.2-1.1,0.2-1.6,0.2l0.6,0.7c-0.6-0.1-1.1-0.1-1.1-0.4c-0.6,0.5,0.5,1.2-0.7,1.8
			c-0.8-0.4-2.4,0.4-2.6-0.6c2.4,0.3-0.3-0.9,1.8-1.1c-0.4,0.1-0.9,0.1-1.5,0c-0.1-0.1,0.1-0.2,0.2-0.2c-2.3-0.8-1.1,1.1-3.5,1
			c0.3-0.5-0.6-1-1-0.9c1,0,0.5,0.9-0.4,1.3c-1.6-0.4-1.7,0.3-2.5,0.3l0.9,0.2c-0.3,0.5-1.1,0.5-2.2,0.6c-0.1-0.4,1-0.3,0.6-0.5
			c-1.2,0.9-2.7-1-4.4-0.3c-0.8-0.4-0.1-1-0.8-1.2c-1.9,0.7-2-0.7-4-0.2c0.6,0.7,0.7,0.5-0.7,1.2l3.2-0.5l-2.1,1
			c1,0,2.1-0.4,2.7-0.3c-1,0.6-0.9,0.4-0.4,1c-1.3-1.1-2.7,0.6-4.2-0.1l0-1.8c-2.3-0.8-4.1,0.9-7.2,0.5l1,0.3
			c-0.4,0.7-1.9,0.1-2.8,0.4c0.1-0.6-0.5-0.8-0.9-1.2c0.1,0.4-2.2,0-2.5,1.1l-1.4-0.8c-2.4-0.3-2.8,1.7-5.1,1.5
			c0.7-0.6-0.4-1.1,1.2-1.5c-0.8,0-1.5-0.1-1.5,0.3c-0.5-0.4-2.2,0.8-2.9,0.2c-0.3,0.3-0.4,0.9-1.3,0.8c-0.1-0.1,0-0.3,0-0.3
			c0,0.3-1.4,0.4-0.6,1.1c-2.4-1.8-6.8,0.1-8.9-1.5c-1.7,0.2-3.8,0.4-5.3,0.4c0.1-0.2,0-0.3,0.3-0.2c-2.1-0.6-1.3,1.7-3.8,1.1
			c-1.2-1,1.3-0.5,0.5-0.9c-0.3-1.9-2.9,0.3-4.6-0.9l0.4-0.1c-1.3-0.7-3.1,0.7-5.1,0.6c0,0,0.1-0.2,0-0.3c-1.4,1-4.1,1.3-6,1.6
			c0.6-0.8,0.9-0.4,0.5-1.2c-0.9,0.1,0.3,1.2-1.5,1.5c-0.6-0.4-1.8-0.8-2-1.6l1.7,0c-0.9-1.1-2.2,0-3-0.1l0.1-0.5
			c-2.6,0.2-2.6,1.3-5.3,1.2l0.3,0.4c-1.5,1.2-1.3-0.7-2.8,0.2L20.9,14c-1,0.3-3.5,1.1-5.2,1.4c1-0.9,3.1-1.3,4.4-1.8
			c-1,0-3.3,0.1-3.8,0.7c0.4-0.1,0.9-0.4,1.3-0.2c-0.6,0.5-1.3,0.8-2.1,1c-0.8,0.2-1.6,0.3-2.8,0.3c0.1-1.5-3.2-1.3-6.2-1.5
			c-0.1,1.5-0.3,2.8-0.9,3.3c0.1,0.8,0.2,1.5,0.2,2.2l0.1,1.1l0,0.9c0,0.9-0.1,1.7-0.1,2.6c-0.2,1.8-0.4,3.6-0.4,5.7
			c1.8-1.4,0.1,1.2,1.9,0.9c0.1,0.9,0.1,1.3,0,1.4L6,34.8c-0.5,0.7-0.4-0.9-0.8-0.8C5,36,4.4,34.9,3.9,36.2c0.7-0.3,0.9,0.7,0.7,1.9
			l0.8-1.6c1,2.9-1.5,2.5-0.6,5.4l-0.6-0.9c0.3,1.5,0,5.5,1.5,6.9c-0.2,0.3-0.7,0.6-0.8,0c0,0.8,0,1.6,0.1,2.4
			c0,0.4,0.1,0.8,0.2,1.2L5.3,52l0.1,0.3c0,0.1,0,0.3,0.1,0.5c0.3,2.8,0.5,5.1,0.4,7.4c0.6,0,1.2,0.1,1.7,0.2l-0.8,0.4
			c0.6-0.1,1.3-0.3,1.9-0.4c0.6-0.1,1.1-0.2,1.7,0c-0.1,0.2-0.7,0.4-0.1,0.5c0.3-0.1,1.2-0.3,2-0.4c0.4-0.1,0.9-0.1,1.3-0.2
			c0.3,0,0.5,0,0.7,0.1c0,0-0.2,0.1-0.4,0.3c-0.2,0.1-0.4,0.3-0.4,0.3c3.5,0.6,5.3-1.2,8.2-1.5c0,1.3,2.7,1.7,4.1,2l0,0.2
			c4,0.2,6.8-1.1,10.6-1.6c2.3,1.4,7.8,0.6,11.6,1.4c-0.6-0.2,0.1-1,0.8-1.2c0.9,0.3,2.4-0.9,2.3,0.3l-0.3,0
			c0.7,1.2,2.5,0.9,3.9,0.9l0.2-1.6c3.7,2.3,9.6-0.8,11.6,1.2c0.9-0.4,2-0.4,2.9-0.8l0,0.8c2.5,0.2,3.7,0.3,6.7,0.1l-0.6,0.6
			c1.7,0.1,2.2-2.4,3.7-2.5l0.5,1.3c3,0,6,1.1,8.9-0.1c0,0.2-0.1,0.6-0.6,0.6c1.4,0,5.4,0.9,4.9-0.9c0,1.1,3.1,0.1,4.7-0.4l-0.3,0.8
			c1.4-1.1,1.4-1.4,3.3-1.7c0.4,0.1,0.4,0.7-0.2,0.5c1.5,0.4,1.2-0.8,3-0.3l-0.7,0.5c1.5,0.1,1.4-0.2,2.3-0.8c1-0.3,2.9,0.2,3.2,1
			c0.2-0.5,1.1-1.1,2-0.9c0.1,0.3-0.2,0.5-0.4,0.5c2.6,0.6,3.8-1,5.6-0.2c0,0.3,0.2,0.4,0.3,0.5c-2,0-3.7-0.1-3.5-0.1
			c0,0.8,1.7,0.9,0.3,2c1.3-0.6,3.6-1.8,5.2-1.5c0.1,0.1,0.2,0.1,0.2,0.3l-0.2,0.1c0.4,0.1,0.7,0,1-0.1c0.5,0.1,0.8,0.2,1.3,0.2
			c0.2,0.6,1.9,0.3,2.7,0.4c-0.1-0.8,1-0.7,0-1.4c0.1,0.1-0.2,0.1-0.7,0.1c-0.1,0-0.3,0-0.4,0.1c0,0,0,0,0.1-0.1
			c-0.5,0-1.2,0-2.1,0.1c0.7-0.4,1.3-0.8,2.2-0.3c0.4-0.5,0.9-1.1,1.2-1.4c1.1,1.2,3.3,1.8,3.6,2.5c2.5-0.5,5.9-0.3,7.5-1.9
			c0.7-0.2,0.8,0.5,1.1,0.7c-0.4,0.2-0.9,0.1-1.1,0.4c1.4-0.4,4.2-0.2,4.6-1.3c1.8,0.5-1,1,1.5,0.8l-0.3,0.3
			c4.9,1.8,7.9-2.8,13.3-0.6c-0.4-0.1-0.6-0.2-0.6-0.4c6.2,1,12.7-0.9,18.8,0.6c1.7,0.3,1.9-0.4,3-0.9l0.4,0.9l1.8-1
			c2.6-0.8,4.4,2.2,7.7,0.8l-0.4-0.6c1.2,0.1,3.7-0.4,3.5,0.3c0.1-0.1,0.4-0.6,0.8-0.3l0,0.5l2.9-0.8c2.2,0.3-0.3,1.9,2.9,2
			c1.2-0.2,3.4-1.4,3-1.7c-0.5,0-1.2-0.3-1.3-0.8l1.1-0.2c0.2-1.4,1-2.8-1.7-3.8l-1.9,0.9l-0.6-0.7l1.6,0c-0.9-0.6-1.5-0.1-2.1,0.3
			c-0.2-0.4-0.4-0.6-0.8-0.7l-1.8,1.3c-0.2-0.5,0.8-1.1-0.4-1.4c-0.9,0.6,0.8,1.2-0.6,1.6c-0.9-0.6-0.6-1.2-1.7-0.6
			c-0.1-0.4,0.1-0.6,0.5-0.7c-0.9,0.4-2.5,0.2-3,0.9c-0.9-0.8-3.2,0.2-3.1-1.1c-0.3,0.3-1.7,1-2.5,1.1c1.6-1.6-3.2-0.1-2.8-1.8
			c-1.2,1.4-4.2,0.6-6.3,1.4c0.1-0.1,0.3-0.3,0.5-0.3c-1.2-0.1-1.5-0.5-2.2-0.8c-0.1,1.2-2,1.4-2.9,2.2c-1.4-1.1,0.9-1.4,0.4-2.5
			c0.1,1-2.5,1-2,1.7c-1.1-0.7-0.9-0.3-1.5-1.3c-0.2,1.5-1,0.2-1.9,1.2c-1.6-0.7-0.4-1.4-2.1-0.9C156.7,53,158.3,52.5,158.3,52.5z
			 M117,55C117,55,117,55,117,55c0.4,0,0.7-0.1,0.9-0.1C117.7,55,117.4,55,117,55z M113.6,55c0.4,0,0.9,0,1.5,0
			c0.1,0.3,0,0.6-0.4,0.6C114.9,55.4,114.1,55.3,113.6,55z M120.9,60.9c-0.5,0.1-0.7,0-0.8-0.2c0.3,0,0.6,0,1-0.1c0,0,0-0.1,0.1-0.1
			C121,60.6,121,60.8,120.9,60.9z"/>
		<path fill="#FCCB7F" d="M121.9,59.8c0.1,0,0.1-0.1,0.2-0.1c-0.1-0.1-0.2-0.1-0.3-0.2c-0.1,0.1-0.1,0.2-0.2,0.3
			C121.7,59.8,121.8,59.8,121.9,59.8z"/>
		<path fill="#FCCB7F" d="M168.8,15L168.8,15c0,0,0,0,0.1,0.1C168.9,15,168.9,15,168.8,15z"/>
		<polygon fill="#FCCB7F" points="65.7,53.4 65.7,53.6 66,53.4 		"/>
		<path fill="#FCCB7F" d="M187.9,17.9c0,0.1,0.1,0.2,0.3,0.2C188.2,18,188,18,187.9,17.9z"/>
		<path fill="#FCCB7F" d="M194.5,18.1c0.1,0,0.1,0.1,0.2,0.2l-0.2,0.5c0.1-0.2,0.2-0.4,0.2-0.5C194.7,18.1,194.6,18.1,194.5,18.1z"
			/>
		<path fill="#FCCB7F" d="M194.5,22c0.1,0.1,0.3,0.1,0.4,0.1c0,0,0,0,0,0L194.5,22z"/>
		<path fill="#FCCB7F" d="M101.7,19.5c-0.1,0-0.2,0-0.2,0C100.9,19.7,101.3,19.6,101.7,19.5z"/>
		<path fill="#FCCB7F" d="M131.7,17.5c-0.3,0.2-0.6,0.3-1,0.4C131.3,18,131.7,18,131.7,17.5z"/>
		<path fill="#FCCB7F" d="M68.2,20.5C68.2,20.5,68.2,20.5,68.2,20.5c-0.1,0-0.1,0-0.2,0L68.2,20.5z"/>
		<path fill="#FCCB7F" d="M129.3,17.9c0.5,0.2,1,0.1,1.4,0C130.3,17.9,129.8,17.8,129.3,17.9z"/>
		<path fill="#FCCB7F" d="M194.1,49.5l0,0.3c0.1,0,0.1,0,0.1,0L194.1,49.5z"/>
		<path fill="#FCCB7F" d="M194.2,49.8l0.1,0.3C194.3,50,194.3,49.9,194.2,49.8z"/>
		<path fill="#FCCB7F" d="M194.5,50.9l-0.2-0.7C194.3,50.4,194.3,50.7,194.5,50.9z"/>
		<path fill="#FCCB7F" d="M194.5,41.1l-0.3-0.1C194.3,41,194.4,41.1,194.5,41.1z"/>
		<path fill="#FCCB7F" d="M194.4,38.5c-0.1,0.6-0.7,1.5-0.5,2.4l0.2,0.1C193.7,40.6,194.9,39.1,194.4,38.5z"/>
		<path fill="#FCCB7F" d="M198.2,27.9L198,30c0.3-0.4,0.8-0.9,0.8,0.1C199.8,27.4,198.1,30.7,198.2,27.9z"/>
		<path fill="#FCCB7F" d="M198.7,21.3c0.2,1.1,0.5,0,0.7,0c0-0.1-0.1-0.2-0.1-0.3c0-0.1-0.1-0.2-0.1-0.3c-0.1-0.2-0.1-0.2-0.1-0.3
			c0,0-0.1,0-0.1,0.2C198.8,20.8,198.7,21.1,198.7,21.3z"/>
		<path fill="#FCCB7F" d="M153.9,14.3l0.1-0.8C153.1,13.7,154,13.8,153.9,14.3z"/>
		<polygon fill="#FCCB7F" points="144.7,18.3 145.6,18.8 146,18.1 		"/>
		<polygon fill="#FCCB7F" points="139.3,12.8 139.7,12.7 138.2,13 		"/>
		<path fill="#FCCB7F" d="M58.9,13.1l0.3,0.9C59.7,13.9,59.9,12.8,58.9,13.1z"/>
		<path fill="#FCCB7F" d="M24.1,14.1c-0.4-0.5-1.4-0.8-2-0.3C23,13.8,23.7,14.2,24.1,14.1z"/>
		<polygon fill="#FCCB7F" points="56.5,61 55.8,61.3 57.1,61 		"/>
	</g>
</g>
<g>
	<path fill="#FBC36C" d="M48.9,37.1c0,1.1-0.5,2.1-1.5,2.8c-1,0.7-2.3,1.1-4,1.1c-1,0-1.8-0.1-2.5-0.3s-1.4-0.4-2-0.6v-2.8l0.3,0
		c0.6,0.5,1.3,0.9,2.1,1.1s1.5,0.4,2.2,0.4c0.2,0,0.4,0,0.7,0s0.5-0.1,0.7-0.2c0.2-0.1,0.4-0.2,0.6-0.4s0.2-0.3,0.2-0.6
		c0-0.3-0.1-0.5-0.3-0.7s-0.5-0.3-1-0.4c-0.4-0.1-0.9-0.2-1.4-0.3s-0.9-0.2-1.4-0.3c-1-0.3-1.7-0.7-2.1-1.3s-0.6-1.2-0.6-2
		c0-1.1,0.5-2,1.5-2.7s2.2-1,3.7-1c0.8,0,1.5,0.1,2.3,0.2s1.4,0.3,1.9,0.6v2.7h-0.3c-0.5-0.4-1-0.7-1.7-0.9S45,31,44.3,31
		c-0.2,0-0.5,0-0.7,0.1s-0.5,0.1-0.7,0.2c-0.2,0.1-0.4,0.2-0.5,0.4s-0.2,0.3-0.2,0.5c0,0.3,0.1,0.5,0.4,0.7s0.7,0.3,1.3,0.4
		c0.4,0.1,0.8,0.2,1.2,0.3s0.8,0.2,1.3,0.3c0.9,0.3,1.5,0.7,2,1.2C48.6,35.6,48.9,36.3,48.9,37.1z"/>
	<path fill="#FBC36C" d="M59.4,36.9l-6.4,0c0,0.7,0.3,1.2,0.8,1.6s1.2,0.5,2.1,0.5c0.6,0,1.2-0.1,1.7-0.3s1-0.4,1.3-0.7h0.3v2.3
		c-0.6,0.3-1.2,0.4-1.8,0.6S56.3,41,55.6,41c-1.8,0-3.1-0.4-4-1.2s-1.4-1.9-1.4-3.4c0-1.4,0.4-2.6,1.3-3.4s2.1-1.3,3.7-1.3
		c1.4,0,2.5,0.4,3.2,1.1s1.1,1.8,1.1,3.1L59.4,36.9z M56.6,35.2c0-0.6-0.2-1-0.4-1.3s-0.7-0.4-1.3-0.4c-0.5,0-1,0.1-1.3,0.4
		s-0.5,0.7-0.6,1.4H56.6z"/>
	<path fill="#FBC36C" d="M69.9,40.7h-2.8v-0.9c-0.5,0.4-0.9,0.7-1.4,0.9c-0.4,0.2-0.9,0.3-1.5,0.3c-1.1,0-1.9-0.4-2.6-1.2
		s-1-1.9-1-3.3c0-0.7,0.1-1.4,0.3-2c0.2-0.6,0.5-1.1,0.9-1.5c0.4-0.4,0.8-0.7,1.3-0.9s1-0.3,1.5-0.3c0.5,0,1,0.1,1.3,0.2
		c0.3,0.1,0.7,0.3,1,0.4v-3.7h2.8L69.9,40.7z M67.1,38.3l0-4.3c-0.2-0.1-0.4-0.1-0.6-0.2c-0.2,0-0.4-0.1-0.6-0.1
		c-0.7,0-1.3,0.2-1.7,0.7c-0.4,0.5-0.6,1.1-0.6,1.9c0,0.9,0.1,1.5,0.4,1.9s0.8,0.6,1.4,0.6c0.3,0,0.5,0,0.8-0.1
		C66.6,38.6,66.9,38.5,67.1,38.3z"/>
	<path fill="#FBC36C" d="M81.2,36.9h-6.4c0,0.7,0.3,1.2,0.8,1.6s1.2,0.5,2.1,0.5c0.6,0,1.2-0.1,1.7-0.3s1-0.4,1.3-0.7H81v2.3
		c-0.6,0.3-1.2,0.4-1.8,0.6S78.1,41,77.4,41c-1.8,0-3.1-0.4-4-1.2s-1.4-1.9-1.4-3.4c0-1.4,0.4-2.6,1.3-3.4s2.1-1.3,3.7-1.3
		c1.4,0,2.5,0.4,3.2,1.1s1.1,1.8,1.1,3.1L81.2,36.9z M78.4,35.2c0-0.6-0.2-1-0.4-1.3s-0.7-0.4-1.3-0.4c-0.5,0-1,0.1-1.3,0.4
		s-0.5,0.7-0.6,1.4H78.4z"/>
	<path fill="#FBC36C" d="M90.8,38c0,0.9-0.4,1.6-1.2,2.2S87.7,41,86.3,41c-0.8,0-1.5-0.1-2.1-0.2s-1.1-0.3-1.5-0.5V38h0.3
		c0.1,0.1,0.3,0.2,0.5,0.3c0.2,0.1,0.4,0.2,0.8,0.4c0.3,0.1,0.6,0.2,1,0.3s0.8,0.1,1.2,0.1c0.6,0,1-0.1,1.2-0.2s0.4-0.3,0.4-0.5
		c0-0.2-0.1-0.4-0.2-0.5s-0.5-0.2-0.9-0.3c-0.2,0-0.5-0.1-0.8-0.2s-0.7-0.1-1-0.2c-0.8-0.2-1.4-0.5-1.8-1c-0.4-0.4-0.6-1-0.6-1.6
		c0-0.8,0.4-1.5,1.2-2.1c0.8-0.6,1.9-0.8,3.3-0.8c0.7,0,1.3,0.1,1.9,0.2s1.1,0.3,1.4,0.4v2.2h-0.2c-0.4-0.3-0.9-0.5-1.4-0.7
		s-1.1-0.3-1.6-0.3c-0.5,0-0.8,0.1-1.1,0.2s-0.5,0.3-0.5,0.5c0,0.2,0.1,0.4,0.2,0.5s0.5,0.2,1,0.3c0.3,0.1,0.6,0.1,0.9,0.2
		s0.7,0.1,1,0.2c0.7,0.2,1.3,0.5,1.6,0.9C90.6,36.8,90.8,37.3,90.8,38z"/>
	<path fill="#FBC36C" d="M106.8,36.9l-6.4,0c0,0.7,0.3,1.2,0.8,1.6c0.5,0.4,1.2,0.5,2.1,0.5c0.6,0,1.2-0.1,1.7-0.3s1-0.4,1.3-0.7
		h0.3v2.3c-0.6,0.3-1.2,0.4-1.8,0.6S103.6,41,103,41c-1.8,0-3.1-0.4-4-1.2s-1.4-1.9-1.4-3.4c0-1.4,0.4-2.6,1.3-3.4s2.1-1.3,3.7-1.3
		c1.4,0,2.5,0.4,3.2,1.1s1.1,1.8,1.1,3.1L106.8,36.9z M104,35.2c0-0.6-0.2-1-0.4-1.3s-0.7-0.4-1.3-0.4c-0.5,0-1,0.1-1.3,0.4
		c-0.3,0.3-0.5,0.7-0.6,1.4L104,35.2z"/>
	<path fill="#FBC36C" d="M117.6,40.7h-2.8l0-4.4c0-0.4,0-0.7-0.1-1.1s-0.1-0.6-0.2-0.8c-0.1-0.2-0.3-0.3-0.5-0.4s-0.5-0.1-0.8-0.1
		c-0.3,0-0.5,0-0.8,0.1s-0.5,0.2-0.9,0.4l0,6.2l-2.8,0l0-8.8l2.8,0v1c0.5-0.4,1-0.7,1.4-0.9s1-0.3,1.5-0.3c0.9,0,1.7,0.3,2.2,0.8
		s0.8,1.4,0.8,2.5L117.6,40.7z"/>
	<path fill="#FBC36C" d="M134.2,40.7l-8.4,0l0-11.6l8.4,0v2.2h-5.4v2h5v2.2h-5l0,2.9h5.4V40.7z"/>
	<path fill="#FBC36C" d="M146.9,36.5c0,1.4-0.4,2.5-1.3,3.3c-0.9,0.8-2.2,1.1-3.9,1.1s-3-0.4-3.9-1.1s-1.3-1.9-1.3-3.3v-7.4l3,0v7.3
		c0,0.8,0.2,1.4,0.5,1.8s0.9,0.6,1.6,0.6c0.8,0,1.3-0.2,1.6-0.6s0.5-1,0.5-1.8v-7.3l3,0V36.5z"/>
	<path fill="#FBC36C" d="M160.5,40.7h-3.1l-0.8-2.4l-4.3,0l-0.8,2.4h-3l4.3-11.6l3.5,0L160.5,40.7z M155.8,36.3l-1.4-4.2l-1.4,4.2
		L155.8,36.3z"/>
</g>
</svg>
