<?xml version="1.0" encoding="utf-8"?>
<!-- Generator: Adobe Illustrator 19.1.0, SVG Export Plug-In . SVG Version: 6.00 Build 0)  -->
<svg version="1.1" id="Layer_1" xmlns="http://www.w3.org/2000/svg" xmlns:xlink="http://www.w3.org/1999/xlink" x="0px" y="0px"
	 viewBox="0 0 183.3 66" enable-background="new 0 0 183.3 66" xml:space="preserve">
<g>
	<g>
		<path fill="#20CABE" d="M171.5,51.2c0.3,0.2,0.8,0.1,0.7-0.5l-1-0.4L171.5,51.2z"/>
		<path fill="#20CABE" d="M173.3,47.3c-0.5-0.7-1.3-1.5-2.2-1c1,0.7,0.6,0.8,1.7,1.6c0.1,0.6-0.3,1-0.7,0.9c0.3,0.2-0.2,0.9,0.4,1.2
			c0.8-0.8,0.8-1.7,0.2-2.7C172.9,47,173.1,47.2,173.3,47.3z"/>
		<path fill="#20CABE" d="M153.1,8.8l0.4,0.1C153.4,8.9,153.3,8.9,153.1,8.8z"/>
		<path fill="#20CABE" d="M117.6,8.3c0.3,0,0.4-0.1,0.4-0.2C117.7,8.2,117.5,8.2,117.6,8.3z"/>
		<path fill="#20CABE" d="M111.5,7.2c0.1,0,0.2,0,0.4,0.1C111.7,7.2,111.6,7.1,111.5,7.2z"/>
		<path fill="#20CABE" d="M153.1,8.8l-1-0.3C152.1,8.9,152.7,8.8,153.1,8.8z"/>
		<path fill="#20CABE" d="M170.9,39.4c0,0.2,0.1,0.4,0.3,0.5c0-0.2-0.1-0.3-0.1-0.5C171,39.4,171,39.4,170.9,39.4z"/>
		<path fill="#20CABE" d="M168.9,8l0.4,0c0.1-0.1,0.3-0.2,0.4-0.4c0,0-0.2,0.1-0.4,0.2C169.1,7.9,168.9,8,168.9,8z"/>
		<path fill="#20CABE" d="M175.8,17.6c0-0.3-0.8-0.4-1.2-0.5c0.3,0.2,0.5,0.4,0.6,0.6C175.4,17.7,175.6,17.7,175.8,17.6z"/>
		<path fill="#20CABE" d="M174.3,36.7l0.1,0.3C174.4,36.9,174.4,36.8,174.3,36.7z"/>
		<path fill="#20CABE" d="M160.2,7.9c0-0.1-0.1-0.2-0.1-0.3C160.1,7.7,160.1,7.8,160.2,7.9z"/>
		<path fill="#20CABE" d="M159.5,47.3c0,0.1,0,0.1,0,0.1C159.6,47.4,159.6,47.3,159.5,47.3z"/>
		<path fill="#20CABE" d="M173.5,51.5l-0.2,0c0,0.2,0,0.3,0,0.5L173.5,51.5z"/>
		<path fill="#20CABE" d="M100.4,6.1C100.4,6.1,100.4,6.1,100.4,6.1C100.7,6.1,100.6,6.1,100.4,6.1z"/>
		<path fill="#20CABE" d="M8.6,24c0.8-1.2,1,1.9,1.8,0.1C10.1,24.3,9.1,22.5,8.6,24z"/>
		<path fill="#20CABE" d="M171,39.1c0-0.2,0-0.3,0-0.5C171,38.8,171,39,171,39.1z"/>
		<path fill="#20CABE" d="M10.5,24.1L10.5,24.1l0.1-0.2C10.5,24,10.5,24.1,10.5,24.1z"/>
		<path fill="#20CABE" d="M74.8,6.6C74.9,6.8,75,6.9,75.1,7C75.1,6.9,75,6.8,74.8,6.6z"/>
		<path fill="#20CABE" d="M93.9,7.8l-0.5-0.1C93.6,7.8,93.7,7.8,93.9,7.8z"/>
		<path fill="#20CABE" d="M64.9,7.8c-0.3-0.1-0.3-0.2-0.7-0.1c0,0,0.1,0.1,0.1,0.1C64.4,7.8,64.6,7.7,64.9,7.8z"/>
		<path fill="#20CABE" d="M54.6,7.8C54.6,7.9,54.7,8,54.8,8c0.1,0,0.2,0,0.3,0L54.6,7.8z"/>
		<path fill="#20CABE" d="M128.2,47.7c0.2,0.2,0.4,0.5,0.5,0.8C128.5,47.9,130,47.6,128.2,47.7z"/>
		<path fill="#20CABE" d="M171.4,39.4c-0.2-0.1-0.3-0.1-0.4-0.3c0,0.1,0,0.2,0,0.3C171.2,39.4,171.3,39.5,171.4,39.4z"/>
		<path fill="#20CABE" d="M64.5,14.5l-1.6-0.1C63.3,14.4,63.9,14.5,64.5,14.5z"/>
		<path fill="#20CABE" d="M54.3,47.8l0.4-0.1C54.5,47.7,54.4,47.7,54.3,47.8z"/>
		<path fill="#20CABE" d="M58,14.5c-0.3-0.3-0.6-0.5-0.9-0.6C57,14,56.9,14,56.9,14.1L58,14.5z"/>
		<path fill="#20CABE" d="M128.7,48.5L128.7,48.5L128.7,48.5z"/>
		<path fill="#20CABE" d="M139.5,46.5c-1.6,0-0.7,1.1-1.1,1.7c-1.9,0.3-0.9-0.8-1.5-1.4c-1.2,0.3-2.1,1.3-2.9,1.3
			c-0.1-0.2-0.2-0.2,0-0.5c-1.2,0.9-3.6,0-5.1,1.2c-0.1-0.1-0.2-0.2-0.2-0.3c0.2,0.6,0.3,1.1,0.2,1.5c-0.7,0-1.3,0.7-1.6,0
			c0.4,0,0.5-0.3,0.7-0.5l-0.7,0.3c-0.7-1,1-0.4,1-1.1c-1.4,0.3-3.1,1.2-4.2,0.9c-0.2-1,2.6-0.3,1.1-1.2l1.7,0.4
			c-1.3-1.6,1,0.1-0.2-1.6c-2.2-0.3-2.5,0.5-4.7,0.2c-0.5,0.6,0.2,0.8-0.3,1.4c-3.2,1-2.5-2.6-4.8-1.2c-0.6,0.7-0.8,2-2.5,1.3
			l0.6-1.2c-2.2-0.1-1.2,1.7-3.5,0.9c0.4-0.5,1.7-0.4,1.4-0.5c-1.5-0.9-1,0.7-2.2,0.7l-0.2-1c-2.3,0.2-4.8,0.9-7.4,1.1
			c0.1-0.3,0.6-0.6,0-0.9c-3.2,0.5-6.9-0.1-10-0.7l-1.2,0.9c-0.3,0-0.5-0.4-0.2-0.6c-1.2-0.3-0.1,0.6-0.6,0.9
			c-0.7,0.1-0.9-0.5-0.5-0.8c-2.1,0.7-6.1,1.6-8.3,0.7l0.4-0.3c-1.7-0.4-2,1.8-3.6,1l0.3-0.2c-3.8-0.4-8,0.4-10.9-0.9
			c-0.6,1.3-3.8-0.6-4,1.2c-2.2-0.9-1.5-1.2-4.6-1.8c-0.8-0.1-1.2,1.1-2.2,1.3l0-0.9l-1.4,1l-0.7-1.1l-0.9,0.2
			c0.4,0.1,0.8,0.4,0.7,0.7c-1.5,0.4-3.6-0.6-3.6-1.1l-3.5,0.8c0.1-0.4,0.7-0.5,1.1-0.7c-1.9,0.9-0.3-1-2-0.1
			c0.2,0.2-0.1,0.6-0.2,0.7c-0.9-0.6-2.8-0.6-4.2-0.3l0.3-0.6c-2.6-0.2-5.5,0.3-8.4,0.3c1,0.3,0.8,1.4,0,1.5l-0.3-1
			c-0.6,0.6,0.9,0.4-0.2,1.1c-1.1-0.1-0.7-1.1-0.1-1.4l-1.3,0.3c-0.1-0.3,0.2-0.4,0.3-0.8c-0.5,0.6-2.3-1-3.1,0.1L30,46.8
			c-2.9,0-4.2,0.3-6.6,0.4c0,0.8-1,0.7-1.7,1.3c-0.9-0.1-1.8-0.4-2.7-0.6c-0.9-0.2-2.3-0.3-2.2-0.3c-0.2,0.2-0.4,0.4-0.4,0.6
			c-0.1,0.2-0.1,0.4-0.4,0.6c0.2-0.8-0.4-0.7,0.3-1.2c-0.2,0-0.4,0.1-0.5,0.1c-0.1-0.3-0.2-0.4-0.7-1.3c-0.3,0.1-0.5,0.4-0.7,0.3
			c-0.1-0.2,0.3-1.1,0.7-1l0.1,0.2c-1.2-3.6,2.2-8.2,0.6-11.1l0.1,0.2l-0.8-2.9c0.1-1.4,0.6,0.8,1.1-0.2c-1.3-3.2,0.2-5-0.7-7.6
			c1.1-1,1.1-2.8,1-4.7c-0.1-0.9-0.2-1.9-0.2-2.8c0-0.5,0-0.9,0.1-1.3c0-0.1,0-0.2,0.1-0.3c0-0.1,0.1,0,0.1-0.1c0.1,0,0.1,0,0.2,0
			L16.1,15c-0.5-0.3,0.3-0.1,0.4-0.1c-0.4-0.2-0.5,0-0.8-0.2c-0.1-0.3-0.2-0.7-0.2-1c0.4,0,0.8,0.1,1.2,0.2c0.1,0,0.2,0.1,0.3,0.1
			c0,0,0.1,0,0.2,0l0.2,0l0.5,0l1.9,0.2c2.6,0.3,5.2,0.7,7.7,0.9c2.2,0.1,1.3-2.8,4.1-1.5l-0.8,1c4.5-1.2,9.3,0,13.7-1
			c-0.3,0.2-0.3,0.5-0.7,0.5c0.9,0.7,3.5,0,3.5-0.6c0.7,0.1,0.2,0.5,0.6,0.8c0.9,0.4,2.4-0.9,2.9-0.2c0.1,0.1-0.3,0.2-0.4,0.3
			c0.6-0.3,2.9,0.1,2.3-0.7c1.7,0.4,3.2-0.4,4.5,0.1c0.9-0.9,2.9,0.4,3.1-0.9c-0.1,1.4,2.9,1.1,4,0.5c-0.4,0.4,0.9,0.4,0.5,1
			c1.2,0,2.3-0.3,2.1-1c2.2,1.6,4.5-1.3,5.7,0.8c3.6-0.7,6.9-1.2,10.1-1.5c-0.1,1.4-3.5,0.1-3.4,1.6c3-0.6,4.8-1.7,7.8-1.4
			c0.8,0.2-0.4,0.6-0.7,0.8c3-0.6,5.9,0.1,8.6-0.6c0,0.1-0.3,0.3-0.6,0.4c0.5,0,1.2,0.2,1.2-0.4l-0.5,0.2c-0.9-0.9,2.1-1.9,2.2-2.3
			c-0.9,1.8,2.7,0.4,1.2,2.7c0.4-0.1,0.8-0.4,0.7-0.8c0.5,0.1,0.7,0.4,0.2,0.8c1.9-0.3,1.2-1,3-1c0,0.3-0.4,0.4-0.5,0.8
			c0.9-0.6,1.8-1.2,3.2-0.9c-0.1,0.2,0.1,0.4-0.4,0.4c2.5-0.1,4.3-1.5,7-1c-0.8,1.3,0.9,0.4,1.1,1.5l1.5-0.3l-0.6-0.5
			c1.3,0,2.4-0.8,3.6-0.4l-1,0.5l2.4-0.2l-1.4-0.4c1.3-0.6-0.1-1.4,1.6-1.1c-0.4,0.1,1.3,0,2,0.7l0,0c0.6-0.4,1.3-0.7,2.3-0.5
			c0.2,0.4-0.2,1.2,0,1.5c0.6-0.9,3-0.3,3.8-1.3c-0.3,0.2-0.3,0.8-0.2,0.9l0.5-0.8c0.6,0.2,0.7,0.4,0.6,0.8c1.8,0.1-0.6-1.4,1.6-0.8
			c-0.2,0.1-0.1,0.2-0.4,0.3c2.2,0.3,4.2-0.5,6.2-0.1c0.6,1.1-1.7,0.3-1.1,1.2c2.9-0.2,5.9-1.4,8.7-1.1l-0.5-0.1
			c0.4-1.6,2.1,0.8,3.5,0c-0.3,0.1-0.4,0.9-0.4,0.7c1.9,0.3,3.9-0.4,6.7-0.9l-0.4,0.4c1.1,0.4,2.9,0.2,4.1,0.4
			c0.4-0.4,1-0.3,0.6-0.9c3.7,2.3,7.1-1.2,10.4,0.7c-0.4,0-0.9,0.4-0.6,0.4c0,0,0.7-0.1,1.4-0.2c0.4,0,0.7-0.1,1-0.1
			c0.2,0,0.3-0.1,0.3-0.1c-0.1-0.7-0.2-0.4-0.8-1c0.4-0.4,1.1-0.7,1.8-0.7c-0.7,0.2-0.7,0.5-0.5,0.8c0.1,0.3,0.4,0.5,0.5,0.7
			c0-0.2,0.2-0.4,0.3-0.7c0.3,0.6,0.5,0.3,0.8-0.1c0.3-0.4,0.8-0.8,1.5-0.4L172,11c0.3-0.1,0.6-0.2,1-0.3c0.2,0.2,0.3,0.5,0.3,1.1
			c-0.8,0.9-0.4-0.4-1,0.1c0,0.4,0.4,0.5,0.7,0.9c0.3,0.3,0.4,0.8,0,1.4c-0.2-0.4-0.2-1-0.4-1.2c-0.5,0.7-0.6,0.9-0.7,1.1
			c-0.1,0.2-0.1,0.4-0.1,0.6l0-0.1c0,0,0,0.1-0.1,0.2c0,0.1-0.1,0.2-0.1,0.5c-0.1,0.5-0.2,1-0.2,1l0.3-0.5c2.1,1.4,0.4,2.9,1.8,4.8
			c-1.3-1.9-0.8-0.3-1.7-0.5c-0.3,0.5-0.5,1.2-0.8,1c0.7,0.9-0.6,1.5,0.5,2.8c-0.3,0.1,0,1-0.8,0.8c0.2,1.2,0.5-0.3,0.9-0.2
			c1,1.8-1.2,4.3,0.2,6.9c0.6,2.3,1.6,2.7,2,4.8c-0.5,0.7-1.1-0.6-1.1-0.6c-0.4,1.1-0.4,2,0,3.1c-0.3-0.2-0.5,0-0.8,0.3
			c0.1,0.9,1.1,0.6,0.6,1.7c-0.3-0.2-0.8-0.4-1.2-0.9c0.3,1,0.8,2,1.1,3.1c-0.5,0.3-0.8-0.6-1.1-1c0.2,1.2,0.5,3.1,1.3,3.4l0.3-0.8
			c0,0.4-0.7,0.2-0.8-0.1c-0.6-1,0.3-1.5,0.6-1.5l0.2,0.7c1.7-0.8-0.3-3-0.2-4.5l1.2,0.6l-1-1.5c0.3-0.3,1-0.6,1.2,0.2
			c0.6-1.1-0.4-1,0.2-1.9c0.1-0.1,0.2-0.1,0.2,0l-0.4-1.1c0.3,0.2,0.9-0.2,0.7,0.5c0.7-1.9-0.9-3,0-3.8l0.1,0.2
			c-0.4-2.6-0.9-0.3-2-2.2L175,29l-0.9-0.3c0-0.3,0.1-0.8,0.5-0.7c-0.6-1-0.4,0.2-1-0.4c0.8-1.3-0.4-3.6,1.1-3.9
			c-0.7-0.5-0.5,1.2-1-0.1c1.6-0.4-0.3-1.6,0.5-2.8c0.8,0.4,0.4,1.5,1.1,0.3c-1.4-0.7,0.3-2.3,0-3.3c-0.5,0-0.7-0.6-0.7-1.3
			c0-0.4,0-0.8,0-1.2c0-0.5,0-1.1-0.1-1.5c0.3,0.1,0.5-2.6,0.8-5.1c-0.5-0.1-0.9-0.1-1.3-0.2l0.2-0.2c-1.3,1.1-3.1,0.9-4.6,1.1
			c0.2-0.7,0.5-0.9,1.5-1.2l-1.6,0c-0.2,0.2-0.4,0.3-0.7,0.4c-0.2,0.1-0.5,0.2-0.8,0.2l0.3-0.8c-1.5,0-3,1-4.9,0.4
			c-0.1,0.8,1.5,2.1-0.5,2.7c-0.1-0.4-0.1-1.1,0.4-1.3c-0.2,0.1-0.6,0.3-1,0.2l0.8-0.7c-0.9-0.3-0.5,0.6-1.1,0.5
			c0-0.6-0.5-0.4-0.4-0.9c0.2-0.1,0.6,0.2,0.9,0c-0.8-0.1-1.7-0.5-2-0.9c0.1,0.3,0,0.8-0.6,0.9c-1.5,0-0.5-0.7-1.4-1
			c-0.4,0.4-1.3,0-1.3,0.9c-0.4,0-0.5-0.4-0.7-0.7c-0.8,0.4-3.6,0.1-2.7,1.1l0.2,0.1c0,0-0.1,0-0.1,0c0,0,0,0,0,0h0
			c-2.5,0.9-5.2-0.5-7.7-0.1l0-0.3c-1.5,0.3-3.3,0.2-4.3,0.8c-0.4,0-1-0.5-0.8-0.9c-1.1,0.2-1.3,0.6-2.9,0.1
			c1.1-0.5-0.4-0.5,1.2-0.4c-1.5-0.3-1.8-0.7-3.4,0.1c0.5-0.8-1.1-1-1.8-0.7l1,0.5c-0.8,0.1-1.5,0-2.2,0l0.4-1c-3-1.2-5.4,2.1-7.7,0
			c-0.8,0.7,1.6,0.5,0.9,1.3c-1.4-0.1-2.8-1.6-3.3-1.6c-1.9-0.6-1.8,1.5-3.8,1.1c0.3,0.4,0.5,1.3-1,1.6c-1.4-0.1-1.7-1.5-0.8-1.8
			c0.3,0,0.5,0.1,0.5,0.2c0.4-0.1,1-0.3,0.5-0.7l-0.2,0.4c-0.7-0.4-2.6-0.3-2.1-0.9c-1,0.3-0.4,0.6,0.3,0.8c-1.8-0.5-2.8,0-4.6-0.4
			c0.3,0.2,0.6,0.6,0.3,0.6c-2.7-0.4-1.2,0.7-3,0.8c-1-0.5,0.4-1.3-1.5-0.8c-1.1-0.4-0.2-0.9,0.2-1.2c-1.7,0.7-3.1-0.5-4.1-0.6
			l0.9-0.3c-0.5,0.2-1,0.2-1.4,0.2l0.5,0.7c-0.5-0.1-1-0.1-0.9-0.4c-0.5,0.5,0.4,1.2-0.6,1.8c-0.7-0.4-2.1,0.4-2.3-0.6
			c2.2,0.3-0.2-0.9,1.6-1.1c-0.4,0.1-0.8,0.1-1.3,0c-0.1-0.1,0.1-0.2,0.2-0.2c-2.1-0.8-0.9,1.1-3.1,1c0.3-0.5-0.5-1-0.8-0.9
			c0.9,0,0.4,0.9-0.4,1.3c-1.4-0.4-1.5,0.3-2.2,0.3L94.7,8c-0.3,0.5-1,0.5-1.9,0.6c-0.1-0.4,0.9-0.3,0.5-0.5c-1.1,0.9-2.4-1-3.9-0.3
			c-0.7-0.4-0.1-1-0.7-1.2c-1.7,0.7-1.8-0.7-3.5-0.2c0.5,0.7,0.6,0.5-0.6,1.2l2.9-0.5l-1.8,1c0.9,0,1.8-0.4,2.3-0.3
			c-0.9,0.6-0.8,0.4-0.4,1c-1.2-1.1-2.4,0.6-3.7-0.1l0-1.8c-2.1-0.8-3.7,0.9-6.3,0.5l0.9,0.3c-0.4,0.7-1.7,0.1-2.5,0.4
			C76,7.6,75.4,7.4,75.1,7c0,0.4-2,0-2.2,1.1l-1.2-0.8c-2.2-0.3-2.5,1.7-4.5,1.5c0.6-0.6-0.3-1.1,1.1-1.5c-0.7,0-1.3-0.1-1.3,0.3
			c-0.4-0.4-1.9,0.8-2.6,0.2c-0.3,0.3-0.4,0.9-1.2,0.8c-0.1-0.1,0-0.3,0-0.3c0,0.3-1.2,0.4-0.5,1.1c-2.1-1.8-6,0.1-7.8-1.5
			c-1.5,0.2-3.3,0.4-4.7,0.4c0.1-0.2,0-0.3,0.3-0.2c-1.9-0.6-1.2,1.7-3.3,1.1c-1.1-1,1.1-0.5,0.5-0.9c-0.3-1.9-2.6,0.3-4.1-0.9
			l0.4-0.1c-1.1-0.7-2.7,0.7-4.5,0.6c0,0,0.1-0.2,0-0.3c-1.2,1-3.6,1.3-5.3,1.6c0.5-0.8,0.8-0.4,0.5-1.2c-0.8,0.1,0.2,1.2-1.3,1.5
			c-0.5-0.4-1.6-0.8-1.8-1.6l1.5,0c-0.8-1.1-1.9,0-2.7-0.1l0.1-0.5c-2.3,0.2-2.3,1.3-4.7,1.2l0.3,0.4c-1.3,1.2-1.1-0.7-2.4,0.2
			L22.9,8c-0.9,0.3-3.1,1.1-4.6,1.4C19.1,8.5,21,8,22.1,7.5c-0.9,0-2.9,0.1-3.4,0.7c0.3-0.1,0.8-0.4,1.1-0.2c-0.5,0.5-1.1,0.8-1.8,1
			c-0.4,0.1-0.7,0.2-1.1,0.3c-0.5,0.1-1,0.1-1.5,0.1C15.3,7.8,12.5,8,9.7,7.9c-0.1,1.3-0.3,2.4-0.9,2.8c0.2,1.4,0.3,2.6,0.3,3.9
			l0,0.8l0,0.6c0,0.4-0.1,0.8-0.1,1.2c-0.2,1.6-0.4,3.2-0.4,5c1.8-1.3,0.1,1,1.9,0.8c0.1,0.8,0.1,1.1,0,1.2l-1.1,2.5
			c-0.5,0.6-0.4-0.8-0.8-0.7c-0.1,1.8-0.8,0.8-1.3,2c0.7-0.2,0.9,0.6,0.7,1.7l0.8-1.5c1,2.5-1.5,2.2-0.6,4.7L7.7,32
			c0.3,1.3,0,4.8,1.5,6.1c-0.2,0.2-0.7,0.5-0.8,0c-0.1,1.6,0.3,3.3,0.6,5c0.2,0.8,0.3,1.6,0.3,2.4c0,0.2,0,0.4,0,0.6
			c0,0.2,0,0.4,0,0.6c0,0.6-0.1,1.1-0.2,1.6c0,0-0.1-0.1-0.2-0.2c-0.1-0.1-0.2-0.2-0.2-0.2c0.1,1,0.8,1.4,0.4,2.9
			c-0.2,0-0.4-0.2-0.5,0.3c0.1,0.2,0.3,0.7,0.4,1.3C9,53,9.1,53.7,9,54.4c0.1,0,0.1,0,0.2,0l-0.3,0.1c-0.1-0.2-0.3-0.3-0.4-0.5
			c0,0.4-0.1,0.7-0.1,1c2.3,0.1,4.6-0.2,6.4-0.6c0.4-0.1,0.9-0.2,1.3-0.3l0.6-0.2l0.3-0.1l0.2-0.1c0.5-0.2,1.1-0.3,1.7-0.4
			c0,1.3,2.4,1.7,3.6,2l0,0.2c3.6,0.2,6-1.1,9.3-1.6c2,1.4,6.9,0.6,10.2,1.4c-0.5-0.2,0.1-1,0.7-1.2c0.8,0.3,2.1-0.9,2,0.3l-0.3,0
			c0.6,1.2,2.2,0.9,3.4,0.9l0.2-1.6c3.2,2.3,8.5-0.8,10.3,1.2c0.8-0.4,1.7-0.4,2.5-0.8l0,0.8c2.2,0.2,3.2,0.3,5.9,0.1l-0.5,0.6
			c1.5,0.1,1.9-2.4,3.3-2.5l0.4,1.3c2.6,0,5.3,1.1,7.9-0.1c0,0.2-0.1,0.6-0.5,0.6c1.2,0,4.8,0.9,4.3-0.9c0,1.1,2.7,0.1,4.1-0.4
			l-0.2,0.8c1.2-1.1,1.2-1.4,2.9-1.7c0.4,0.1,0.3,0.7-0.2,0.5c1.3,0.4,1-0.8,2.6-0.3l-0.6,0.5c1.4,0.1,1.3-0.2,2-0.8
			c0.9-0.3,2.6,0.2,2.8,1c0.2-0.5,0.9-1.1,1.7-0.9c0.1,0.3-0.2,0.5-0.3,0.5c2.3,0.6,3.4-1,5-0.2c0,0.3,0.1,0.4,0.3,0.5
			c-1.8,0-3.3-0.1-3.1-0.1c0,0.8,1.5,0.9,0.3,2c1.2-0.6,3.2-1.8,4.6-1.5c0.1,0.1,0.1,0.1,0.2,0.3l-0.1,0.1c0.3,0.1,0.6,0,0.9-0.1
			c0.5,0.1,0.7,0.2,1.2,0.2c0.2,0.6,1.7,0.3,2.4,0.4c-0.1-0.8,0.9-0.7,0-1.4c0.1,0.1-0.1,0.1-0.6,0.1c-0.1,0-0.2,0-0.3,0.1
			c0,0,0,0,0-0.1c-0.5,0-1.1,0-1.8,0.1c0.6-0.4,1.2-0.8,2-0.3c0.4-0.5,0.8-1.1,1-1.4c1,1.2,2.9,1.8,3.2,2.5c2.2-0.5,5.2-0.3,6.6-1.9
			c0.6-0.2,0.7,0.5,1,0.7c-0.4,0.2-0.8,0.1-1,0.4c1.3-0.4,3.7-0.2,4.1-1.3c1.6,0.5-0.9,1,1.3,0.8l-0.3,0.3c4.3,1.8,7-2.8,11.8-0.6
			c-0.3-0.1-0.5-0.2-0.6-0.4c5.4,1,11.2-0.9,16.6,0.6c1.5,0.3,1.7-0.4,2.6-0.9l0.3,0.9l1.6-1c2.3-0.8,3.9,2.2,6.8,0.8l-0.4-0.6
			c1,0.1,3.3-0.4,3.1,0.3c0.1-0.1,0.3-0.6,0.7-0.3l0,0.5l2.5-0.8c2,0.3-0.3,1.9,2.6,2c1.1-0.2,3-1.4,2.6-1.7c-0.4,0-1.1-0.3-1.1-0.8
			l1-0.2c0.2-1.4,0.9-2.8-1.5-3.8l-1.7,0.9l-0.5-0.7l1.4,0c-0.8-0.6-1.3-0.1-1.9,0.3c-0.1-0.4-0.4-0.6-0.7-0.7l-1.6,1.3
			c-0.2-0.5,0.7-1.1-0.4-1.4c-0.8,0.6,0.7,1.2-0.5,1.6c-0.8-0.6-0.6-1.2-1.5-0.6c-0.1-0.4,0.1-0.6,0.4-0.7c-0.8,0.4-2.2,0.2-2.6,0.9
			c-0.8-0.8-2.8,0.2-2.7-1.1c-0.3,0.3-1.5,1-2.2,1.1c1.4-1.6-2.9-0.1-2.5-1.8c-1,1.4-3.7,0.6-5.6,1.4c0.1-0.1,0.3-0.3,0.5-0.3
			c-1-0.1-1.3-0.5-2-0.8c-0.1,1.2-1.7,1.4-2.6,2.2c-1.3-1.1,0.8-1.4,0.4-2.5c0.1,1-2.2,1-1.8,1.7c-1-0.7-0.8-0.3-1.3-1.3
			c-0.2,1.5-0.9,0.2-1.7,1.2c-1.4-0.7-0.4-1.4-1.9-0.9C138.1,47,139.5,46.5,139.5,46.5z M103,49C103,49,103,49,103,49
			c0.3,0,0.6-0.1,0.8-0.1C103.6,49,103.4,49,103,49z M100,49c0.4,0,0.8,0,1.3,0c0.1,0.3,0,0.6-0.3,0.6C101.1,49.4,100.4,49.3,100,49
			z M106.4,54.9c-0.5,0.1-0.6,0-0.7-0.2c0.2,0,0.5,0,0.8-0.1c0,0,0-0.1,0.1-0.1C106.6,54.6,106.5,54.8,106.4,54.9z"/>
		<path fill="#20CABE" d="M107.3,53.8c0.1,0,0.1-0.1,0.2-0.1c-0.1-0.1-0.2-0.1-0.3-0.2c-0.1,0.1-0.1,0.2-0.2,0.3
			C107.1,53.8,107.2,53.8,107.3,53.8z"/>
		<path fill="#20CABE" d="M153.6,9L153.6,9c0,0,0,0,0.1,0.1C153.6,9,153.6,9,153.6,9z"/>
		<polygon fill="#20CABE" points="57.7,47.4 57.7,47.6 57.9,47.4 		"/>
		<path fill="#20CABE" d="M169.8,11.9c0,0.1,0,0.2,0.1,0.2C169.9,12,169.9,12,169.8,11.9z"/>
		<path fill="#20CABE" d="M171.6,14.7c0,0-0.1,0.2-0.2,0.3c-0.1,0.2-0.2,0.5-0.2,0.5C171.5,15,171.6,14.9,171.6,14.7z"/>
		<path fill="#20CABE" d="M171.2,20.1c0.1,0.1,0.3,0.1,0.4,0.1l0,0L171.2,20.1z"/>
		<path fill="#20CABE" d="M94.3,13.5c-0.1,0-0.1,0-0.2,0C93.5,13.7,93.9,13.6,94.3,13.5z"/>
		<path fill="#20CABE" d="M120.8,11.5c-0.3,0.2-0.6,0.3-0.9,0.4C120.4,12,120.8,12,120.8,11.5z"/>
		<path fill="#20CABE" d="M64.7,14.5C64.7,14.5,64.7,14.5,64.7,14.5c-0.1,0-0.1,0-0.2,0L64.7,14.5z"/>
		<path fill="#20CABE" d="M118.7,11.9c0.5,0.2,0.9,0.1,1.2,0C119.5,11.9,119.1,11.8,118.7,11.9z"/>
		<path fill="#20CABE" d="M170.8,44.4l0,0.3c0.1,0,0.1,0,0.1,0L170.8,44.4z"/>
		<path fill="#20CABE" d="M170.9,44.7L171,45C171,44.8,171,44.7,170.9,44.7z"/>
		<path fill="#20CABE" d="M171.3,45.6L171,45C171,45.2,171,45.5,171.3,45.6z"/>
		<path fill="#20CABE" d="M171.2,37l-0.3-0.1C171,36.9,171.1,37,171.2,37z"/>
		<path fill="#20CABE" d="M171.1,34.7c-0.1,0.5-0.7,1.3-0.5,2.1l0.2,0.1C170.5,36.5,171.7,35.2,171.1,34.7z"/>
		<path fill="#20CABE" d="M174.9,25.3l-0.2,1.9c0.3-0.3,0.8-0.8,0.8,0.1C176.5,24.9,174.8,27.8,174.9,25.3z"/>
		<path fill="#20CABE" d="M175.4,19.4c0.2,1,0.5,0,0.7,0C175.8,18.8,175.7,18.7,175.4,19.4z"/>
		<path fill="#20CABE" d="M140.4,8.3l0.1-0.8C139.7,7.7,140.5,7.8,140.4,8.3z"/>
		<polygon fill="#20CABE" points="132.3,12.3 133,12.8 133.4,12.1 		"/>
		<polygon fill="#20CABE" points="127.5,6.8 127.8,6.7 126.5,7 		"/>
		<path fill="#20CABE" d="M56.4,7.1L56.7,8C57.2,7.9,57.3,6.8,56.4,7.1z"/>
		<path fill="#20CABE" d="M25.7,8.1c-0.3-0.5-1.2-0.8-1.7-0.3C24.7,7.8,25.4,8.2,25.7,8.1z"/>
		<polygon fill="#20CABE" points="49.5,55 48.9,55.3 50.1,55 		"/>
	</g>
</g>
<g>
	<path fill="#00C2B4" d="M42.1,30.5c0,1.4-0.4,2.5-1.3,3.3c-0.9,0.8-2.2,1.1-3.9,1.1s-3-0.4-3.9-1.1s-1.3-1.9-1.3-3.3v-7.4h3v7.3
		c0,0.8,0.2,1.4,0.5,1.8s0.9,0.6,1.6,0.6c0.8,0,1.3-0.2,1.6-0.6s0.5-1,0.5-1.8v-7.3l3,0V30.5z"/>
	<path fill="#00C2B4" d="M53.9,30.2c0,1.4-0.4,2.5-1.1,3.4c-0.8,0.9-1.7,1.3-2.9,1.3c-0.5,0-0.9-0.1-1.3-0.2
		c-0.4-0.1-0.7-0.3-1.1-0.5l-0.1,0.4h-2.7l0-12.2h2.8v4.3c0.4-0.3,0.9-0.6,1.3-0.8c0.5-0.2,1-0.3,1.6-0.3c1.1,0,2,0.4,2.6,1.2
		S53.9,28.8,53.9,30.2z M51,30.3c0-0.8-0.1-1.4-0.4-1.8s-0.7-0.6-1.4-0.6c-0.3,0-0.5,0-0.8,0.1c-0.3,0.1-0.5,0.2-0.8,0.3l0,4.4
		c0.2,0.1,0.4,0.1,0.6,0.1c0.2,0,0.4,0,0.7,0c0.7,0,1.3-0.2,1.7-0.7C50.8,31.8,51,31.2,51,30.3z"/>
	<path fill="#00C2B4" d="M58.9,24.7l-3,0v-2.1l3,0V24.7z M58.8,34.7l-2.8,0l0-8.8l2.8,0L58.8,34.7z"/>
	<path fill="#00C2B4" d="M66,35c-0.8,0-1.5-0.1-2.1-0.3c-0.6-0.2-1.2-0.5-1.7-0.8c-0.5-0.4-0.8-0.9-1.1-1.4s-0.4-1.3-0.4-2
		c0-0.8,0.1-1.5,0.4-2.1s0.7-1.1,1.1-1.5c0.5-0.4,1-0.6,1.6-0.8c0.6-0.2,1.3-0.3,1.9-0.3c0.6,0,1.2,0.1,1.7,0.2s1,0.3,1.4,0.5v2.4
		h-0.4c-0.1-0.1-0.2-0.2-0.4-0.3s-0.3-0.2-0.6-0.4c-0.2-0.1-0.4-0.2-0.7-0.3c-0.3-0.1-0.6-0.1-0.9-0.1c-0.7,0-1.3,0.2-1.7,0.7
		c-0.4,0.5-0.6,1.1-0.6,1.9c0,0.8,0.2,1.5,0.6,1.9c0.4,0.4,1,0.7,1.8,0.7c0.4,0,0.7,0,1-0.1c0.3-0.1,0.5-0.2,0.7-0.3
		c0.2-0.1,0.3-0.2,0.5-0.3c0.1-0.1,0.3-0.2,0.4-0.3H69v2.4c-0.4,0.2-0.9,0.4-1.4,0.5S66.6,35,66,35z"/>
	<path fill="#00C2B4" d="M76.2,33.8c-0.2,0.1-0.3,0.3-0.6,0.4c-0.2,0.2-0.4,0.3-0.6,0.4c-0.3,0.1-0.6,0.2-0.9,0.3s-0.6,0.1-1,0.1
		c-0.8,0-1.5-0.3-2.1-0.8s-0.8-1.2-0.8-2c0-0.6,0.1-1.2,0.4-1.6c0.3-0.4,0.7-0.7,1.2-1c0.5-0.2,1.2-0.4,1.9-0.5s1.6-0.2,2.4-0.2v0
		c0-0.5-0.2-0.8-0.6-1c-0.4-0.2-1-0.3-1.8-0.3c-0.5,0-1,0.1-1.5,0.2s-0.9,0.3-1.1,0.4h-0.3v-2.1c0.3-0.1,0.8-0.2,1.4-0.3
		s1.3-0.2,2-0.2c1.6,0,2.8,0.2,3.5,0.7s1.1,1.3,1.1,2.3l0,6h-2.8V33.8z M76.2,32.4v-1.8c-0.4,0-0.8,0.1-1.2,0.1
		c-0.4,0.1-0.8,0.1-1,0.2c-0.3,0.1-0.5,0.2-0.6,0.4C73.1,31.5,73,31.7,73,32c0,0.2,0,0.3,0,0.4s0.1,0.2,0.2,0.3
		c0.1,0.1,0.3,0.2,0.4,0.2c0.2,0,0.4,0.1,0.8,0.1c0.3,0,0.6-0.1,0.9-0.2S75.9,32.6,76.2,32.4z"/>
	<path fill="#00C2B4" d="M92.6,34.7c-0.3,0.1-0.6,0.1-1,0.2s-0.8,0.1-1.2,0.1c-1.1,0-1.9-0.2-2.4-0.7S87.2,33,87.2,32l0-4.1H86V26
		h1.2v-2.5H90V26h2.6v1.9H90l0,3.1c0,0.3,0,0.6,0,0.8s0,0.4,0.1,0.6c0.1,0.2,0.2,0.3,0.4,0.4c0.2,0.1,0.5,0.2,0.8,0.2
		c0.1,0,0.3,0,0.6-0.1s0.4-0.1,0.5-0.2h0.2V34.7z"/>
	<path fill="#00C2B4" d="M103,34.7l-2.8,0v-1c-0.5,0.4-1,0.7-1.4,0.9S97.8,35,97.2,35c-1,0-1.7-0.3-2.2-0.8s-0.8-1.4-0.8-2.5l0-5.7
		H97v4.4c0,0.4,0,0.8,0,1.1s0.1,0.5,0.2,0.7c0.1,0.2,0.2,0.3,0.4,0.4s0.5,0.1,0.8,0.1c0.2,0,0.5,0,0.8-0.1s0.6-0.2,0.8-0.4l0-6.2
		l2.8,0L103,34.7z"/>
	<path fill="#00C2B4" d="M115.7,35c-0.8,0-1.5-0.1-2.1-0.3s-1.2-0.5-1.7-0.8c-0.5-0.4-0.8-0.9-1.1-1.4s-0.4-1.3-0.4-2
		c0-0.8,0.1-1.5,0.4-2.1s0.7-1.1,1.1-1.5c0.5-0.4,1-0.6,1.6-0.8s1.3-0.3,1.9-0.3c0.6,0,1.2,0.1,1.7,0.2s1,0.3,1.4,0.5v2.4h-0.4
		c-0.1-0.1-0.2-0.2-0.4-0.3s-0.3-0.2-0.6-0.4c-0.2-0.1-0.4-0.2-0.7-0.3s-0.6-0.1-0.9-0.1c-0.7,0-1.3,0.2-1.7,0.7s-0.6,1.1-0.6,1.9
		c0,0.8,0.2,1.5,0.6,1.9s1,0.7,1.8,0.7c0.4,0,0.7,0,1-0.1s0.5-0.2,0.7-0.3c0.2-0.1,0.3-0.2,0.5-0.3c0.1-0.1,0.3-0.2,0.4-0.3h0.4v2.4
		c-0.4,0.2-0.9,0.4-1.4,0.5S116.3,35,115.7,35z"/>
	<path fill="#00C2B4" d="M129.2,30.9l-6.4,0c0,0.7,0.3,1.2,0.8,1.6s1.2,0.5,2.1,0.5c0.6,0,1.2-0.1,1.7-0.3s1-0.4,1.3-0.7h0.3v2.3
		c-0.6,0.3-1.2,0.4-1.8,0.6s-1.2,0.2-1.9,0.2c-1.8,0-3.1-0.4-4-1.2s-1.4-1.9-1.4-3.4c0-1.4,0.4-2.6,1.3-3.4s2.1-1.3,3.7-1.3
		c1.4,0,2.5,0.4,3.2,1.1c0.7,0.7,1.1,1.8,1.1,3.1L129.2,30.9z M126.4,29.2c0-0.6-0.2-1-0.4-1.3s-0.7-0.4-1.3-0.4
		c-0.5,0-1,0.1-1.3,0.4s-0.5,0.7-0.6,1.4H126.4z"/>
	<path fill="#00C2B4" d="M139.7,34.7l-2.8,0v-0.9c-0.5,0.4-0.9,0.7-1.4,0.9c-0.4,0.2-0.9,0.3-1.5,0.3c-1.1,0-1.9-0.4-2.6-1.2
		s-1-1.9-1-3.3c0-0.7,0.1-1.4,0.3-2c0.2-0.6,0.5-1.1,0.9-1.5c0.4-0.4,0.8-0.7,1.3-0.9s1-0.3,1.5-0.3c0.5,0,1,0.1,1.3,0.2
		c0.3,0.1,0.7,0.3,1,0.4v-3.7l2.8,0L139.7,34.7z M136.9,32.3l0-4.3c-0.2-0.1-0.4-0.1-0.6-0.2c-0.2,0-0.4-0.1-0.6-0.1
		c-0.7,0-1.3,0.2-1.7,0.7c-0.4,0.5-0.6,1.1-0.6,1.9c0,0.9,0.1,1.5,0.4,1.9s0.8,0.6,1.4,0.6c0.3,0,0.5,0,0.8-0.1
		C136.4,32.6,136.7,32.5,136.9,32.3z"/>
	<path fill="#00C2B4" d="M151,30.9l-6.4,0c0,0.7,0.3,1.2,0.8,1.6s1.2,0.5,2.1,0.5c0.6,0,1.2-0.1,1.7-0.3s1-0.4,1.3-0.7h0.3v2.3
		c-0.6,0.3-1.2,0.4-1.8,0.6s-1.2,0.2-1.9,0.2c-1.8,0-3.1-0.4-4-1.2s-1.4-1.9-1.4-3.4c0-1.4,0.4-2.6,1.3-3.4s2.1-1.3,3.7-1.3
		c1.4,0,2.5,0.4,3.2,1.1s1.1,1.8,1.1,3.1L151,30.9z M148.2,29.2c0-0.6-0.2-1-0.4-1.3s-0.7-0.4-1.3-0.4c-0.5,0-1,0.1-1.3,0.4
		s-0.5,0.7-0.6,1.4L148.2,29.2z"/>
</g>
</svg>
