<?xml version="1.0" encoding="utf-8"?>
<!-- Generator: Adobe Illustrator 19.1.0, SVG Export Plug-In . SVG Version: 6.00 Build 0)  -->
<svg version="1.1" id="Layer_1" xmlns="http://www.w3.org/2000/svg" xmlns:xlink="http://www.w3.org/1999/xlink" x="0px" y="0px"
	 viewBox="0 0 193.8 68.3" enable-background="new 0 0 193.8 68.3" xml:space="preserve">
<g>
	<g>
		<path fill="#20CABE" d="M176.7,57.5c0.3,0.2,0.8,0.1,0.7-0.5l-1-0.4L176.7,57.5z"/>
		<path fill="#20CABE" d="M178.5,53.6c-0.5-0.7-1.3-1.5-2.2-1c1,0.7,0.6,0.8,1.7,1.6c0.1,0.6-0.3,1-0.7,0.9c0.3,0.2-0.2,0.9,0.4,1.2
			c0.8-0.8,0.8-1.7,0.2-2.7C178.1,53.3,178.3,53.5,178.5,53.6z"/>
		<path fill="#20CABE" d="M158.4,15.1l0.4,0.1C158.6,15.2,158.5,15.1,158.4,15.1z"/>
		<path fill="#20CABE" d="M122.8,14.6c0.3,0,0.4-0.1,0.4-0.2C122.9,14.4,122.7,14.5,122.8,14.6z"/>
		<path fill="#20CABE" d="M116.7,13.5c0.1,0,0.2,0,0.4,0.1C116.9,13.5,116.8,13.4,116.7,13.5z"/>
		<path fill="#20CABE" d="M158.4,15.1l-0.9-0.3C157.3,15.1,157.9,15,158.4,15.1z"/>
		<path fill="#20CABE" d="M176.1,45.7c0,0.2,0.1,0.4,0.3,0.5c0-0.2-0.1-0.3-0.1-0.5C176.2,45.7,176.2,45.7,176.1,45.7z"/>
		<path fill="#20CABE" d="M174.1,14.3l0.4,0c0.1-0.1,0.3-0.2,0.4-0.4c0,0-0.2,0.1-0.4,0.2C174.3,14.2,174.1,14.3,174.1,14.3z"/>
		<path fill="#20CABE" d="M181,23.9c0-0.3-0.8-0.4-1.2-0.5c0.3,0.2,0.5,0.4,0.6,0.6C180.6,24,180.8,24,181,23.9z"/>
		<path fill="#20CABE" d="M179.6,43l0.1,0.3C179.6,43.2,179.6,43.1,179.6,43z"/>
		<path fill="#20CABE" d="M165.4,14.1c0-0.1-0.1-0.2-0.1-0.3C165.3,13.9,165.4,14,165.4,14.1z"/>
		<path fill="#20CABE" d="M164.7,53.6c0,0.1,0,0.1,0,0.2C164.8,53.6,164.8,53.6,164.7,53.6z"/>
		<path fill="#20CABE" d="M178.7,57.7l-0.2,0c0,0.2,0,0.3,0,0.5L178.7,57.7z"/>
		<path fill="#20CABE" d="M105.6,12.4C105.6,12.4,105.6,12.4,105.6,12.4C106,12.3,105.8,12.3,105.6,12.4z"/>
		<path fill="#20CABE" d="M13.9,30.3c0.8-1.2,1,1.9,1.8,0.1C15.3,30.6,14.3,28.8,13.9,30.3z"/>
		<path fill="#20CABE" d="M176.2,45.3c0-0.2,0-0.3,0-0.5C176.2,45.1,176.2,45.2,176.2,45.3z"/>
		<path fill="#20CABE" d="M15.7,30.4L15.7,30.4l0.1-0.2C15.7,30.3,15.7,30.3,15.7,30.4z"/>
		<path fill="#20CABE" d="M80,12.9c0.1,0.1,0.2,0.3,0.3,0.4C80.3,13.2,80.2,13.1,80,12.9z"/>
		<path fill="#20CABE" d="M99.1,14.1L98.6,14C98.8,14.1,98.9,14.1,99.1,14.1z"/>
		<path fill="#20CABE" d="M70.1,14.1c-0.3-0.1-0.3-0.2-0.7-0.1c0,0,0.1,0.1,0.1,0.1C69.6,14,69.8,14,70.1,14.1z"/>
		<path fill="#20CABE" d="M59.8,14.1c0.1,0.1,0.1,0.1,0.2,0.2c0.1,0,0.2,0,0.3,0L59.8,14.1z"/>
		<path fill="#20CABE" d="M133.4,54c0.2,0.2,0.4,0.5,0.5,0.8C133.7,54.1,135.2,53.9,133.4,54z"/>
		<path fill="#20CABE" d="M176.6,45.6c-0.2-0.1-0.3-0.1-0.4-0.3c0,0.1,0,0.2,0,0.3C176.4,45.7,176.5,45.7,176.6,45.6z"/>
		<path fill="#20CABE" d="M69.7,20.8l-1.6-0.1C68.5,20.7,69.1,20.8,69.7,20.8z"/>
		<path fill="#20CABE" d="M59.5,54.1l0.4-0.1C59.7,54,59.6,54,59.5,54.1z"/>
		<path fill="#20CABE" d="M63.2,20.8c-0.3-0.3-0.6-0.5-0.9-0.6c-0.1,0.1-0.1,0.1-0.2,0.2L63.2,20.8z"/>
		<path fill="#20CABE" d="M133.9,54.7L133.9,54.7L133.9,54.7z"/>
		<path fill="#20CABE" d="M144.7,52.7c-1.6,0-0.7,1.1-1.1,1.7c-1.9,0.3-0.9-0.8-1.5-1.4c-1.2,0.3-2.1,1.3-2.9,1.3
			c-0.1-0.2-0.2-0.2,0-0.5c-1.2,0.9-3.6,0-5.1,1.2c-0.1-0.1-0.2-0.2-0.2-0.3c0.2,0.6,0.3,1.1,0.2,1.5c-0.7,0-1.3,0.7-1.6,0
			c0.4,0,0.5-0.3,0.7-0.5l-0.7,0.3c-0.7-1,1-0.4,1-1.1c-1.4,0.3-3.1,1.2-4.2,0.9c-0.2-1,2.6-0.3,1.1-1.2l1.7,0.4
			c-1.3-1.6,1,0.1-0.2-1.6c-2.2-0.3-2.5,0.5-4.7,0.2c-0.5,0.6,0.2,0.8-0.3,1.4c-3.2,1-2.5-2.6-4.8-1.2c-0.6,0.7-0.8,2-2.5,1.3
			l0.6-1.2c-2.2-0.1-1.2,1.7-3.5,0.9c0.4-0.5,1.7-0.4,1.4-0.5c-1.5-0.9-1,0.7-2.2,0.7l-0.2-1c-2.3,0.2-4.8,0.9-7.4,1.1
			c0.1-0.3,0.6-0.6,0-0.9c-3.2,0.5-6.9-0.1-10-0.7l-1.2,0.9c-0.3,0-0.5-0.4-0.2-0.6c-1.2-0.3-0.1,0.6-0.6,0.9
			c-0.7,0.1-0.9-0.5-0.5-0.8c-2.1,0.7-6.1,1.6-8.3,0.7l0.4-0.3c-1.7-0.4-2,1.8-3.6,1l0.3-0.2c-3.8-0.4-8,0.4-10.9-0.9
			c-0.6,1.3-3.8-0.6-4,1.2c-2.2-0.9-1.5-1.2-4.6-1.8c-0.8-0.1-1.2,1.1-2.2,1.3l0-0.9l-1.4,1l-0.7-1.1L59.9,54
			c0.4,0.1,0.8,0.4,0.7,0.7C59.1,55.1,57,54,57,53.6l-3.5,0.8c0.1-0.4,0.7-0.5,1.1-0.7c-1.9,0.9-0.3-1-2-0.1
			c0.2,0.2-0.1,0.6-0.2,0.7c-0.9-0.6-2.8-0.6-4.2-0.3l0.3-0.6c-2.6-0.2-5.5,0.3-8.4,0.3c1,0.3,0.8,1.4,0,1.5l-0.3-1
			c-0.6,0.6,0.9,0.4-0.2,1.1c-1.1-0.1-0.7-1.1-0.1-1.4L38,54.1c-0.1-0.3,0.2-0.4,0.3-0.8c-0.5,0.6-2.3-1-3.1,0.1l-0.1-0.3
			c-2.9,0-4.2,0.3-6.6,0.4c0,0.8-1,0.7-1.7,1.3c-0.9-0.1-1.8-0.4-2.7-0.6c-0.9-0.2-2.3-0.3-2.2-0.3c-0.2,0.2-0.4,0.4-0.4,0.6
			c-0.1,0.2-0.1,0.4-0.4,0.6c0.2-0.8-0.4-0.7,0.3-1.2c-0.2,0-0.4,0.1-0.5,0.1c-0.1-0.3-0.2-0.4-0.7-1.3c-0.3,0.1-0.5,0.4-0.7,0.3
			c-0.1-0.2,0.3-1.1,0.7-1l0.1,0.2c-1.2-3.6,2.2-8.2,0.6-11.1l0.1,0.2l-0.8-2.9c0.1-1.4,0.6,0.8,1.1-0.2c-1.3-3.2,0.2-5-0.7-7.6
			c1.1-1,1.1-2.8,1-4.7c-0.1-0.9-0.2-1.9-0.2-2.8c0-0.5,0-0.9,0.1-1.3c0-0.1,0-0.2,0.1-0.3c0-0.1,0.1,0,0.1-0.1c0.1,0,0.1,0,0.2,0
			l-0.5-0.1c-0.5-0.3,0.3-0.1,0.4-0.1c-0.4-0.2-0.5,0-0.8-0.2c-0.1-0.3-0.2-0.7-0.2-1c0.4,0,0.8,0.1,1.2,0.2c0.1,0,0.2,0.1,0.3,0.1
			c0,0,0.1,0,0.2,0l0.2,0l0.5,0l1.9,0.2c2.6,0.3,5.2,0.7,7.7,0.9c2.2,0.1,1.3-2.8,4.1-1.5l-0.8,1c4.5-1.2,9.3,0,13.7-1
			c-0.3,0.2-0.3,0.5-0.7,0.5c0.9,0.7,3.5,0,3.5-0.6c0.7,0.1,0.2,0.5,0.6,0.8c0.9,0.4,2.4-0.9,2.9-0.2c0.1,0.1-0.3,0.2-0.4,0.3
			c0.6-0.3,2.9,0.1,2.3-0.7c1.7,0.4,3.2-0.4,4.5,0.1c0.9-0.9,2.9,0.4,3.1-0.9c-0.1,1.4,2.9,1.1,4,0.5c-0.4,0.4,0.9,0.4,0.5,1
			c1.2,0,2.3-0.3,2.1-1c2.2,1.6,4.5-1.3,5.7,0.8c3.6-0.7,6.9-1.2,10.1-1.5c-0.1,1.4-3.5,0.1-3.4,1.6c3-0.6,4.8-1.7,7.8-1.4
			c0.8,0.2-0.4,0.6-0.7,0.8c3-0.6,5.9,0.1,8.6-0.6c0,0.1-0.3,0.3-0.6,0.4c0.5,0,1.2,0.2,1.2-0.4l-0.5,0.2c-0.9-0.9,2.1-1.9,2.2-2.3
			c-0.9,1.8,2.7,0.4,1.2,2.7c0.4-0.1,0.8-0.4,0.7-0.8c0.5,0.1,0.7,0.4,0.2,0.8c1.9-0.3,1.2-1,3-1c0,0.3-0.4,0.4-0.5,0.8
			c0.9-0.6,1.8-1.2,3.2-0.9c-0.1,0.2,0.1,0.4-0.4,0.4c2.5-0.1,4.3-1.5,7-1c-0.8,1.3,0.9,0.4,1.1,1.5l1.5-0.3l-0.6-0.5
			c1.3,0,2.4-0.8,3.6-0.4l-1,0.5l2.4-0.2l-1.4-0.4c1.3-0.6-0.1-1.4,1.6-1.1c-0.4,0.1,1.3,0,2,0.7l0,0c0.6-0.4,1.3-0.7,2.3-0.5
			c0.2,0.4-0.2,1.2,0,1.5c0.6-0.9,3-0.3,3.8-1.3c-0.3,0.2-0.3,0.8-0.2,0.9l0.5-0.8c0.6,0.2,0.7,0.4,0.6,0.8c1.8,0.1-0.6-1.4,1.6-0.8
			c-0.2,0.1-0.1,0.2-0.4,0.3c2.2,0.3,4.2-0.5,6.2-0.1c0.6,1.1-1.7,0.3-1.1,1.2c2.9-0.2,5.9-1.4,8.7-1.1l-0.5-0.1
			c0.4-1.6,2.1,0.8,3.5,0c-0.3,0.1-0.4,0.9-0.4,0.7c1.9,0.3,3.9-0.4,6.7-0.9l-0.4,0.4c1.1,0.4,2.9,0.2,4.1,0.4
			c0.4-0.4,1-0.3,0.6-0.9c3.7,2.3,7.1-1.2,10.4,0.7c-0.4,0-0.9,0.4-0.6,0.4c0,0,0.7-0.1,1.4-0.2c0.4,0,0.7-0.1,1-0.1
			c0.2,0,0.3-0.1,0.3-0.1c-0.1-0.7-0.2-0.4-0.8-1c0.4-0.4,1.1-0.7,1.8-0.7c-0.7,0.2-0.7,0.5-0.5,0.8c0.1,0.3,0.4,0.5,0.5,0.7
			c0-0.2,0.2-0.4,0.3-0.7c0.3,0.6,0.5,0.3,0.8-0.1c0.3-0.4,0.8-0.8,1.5-0.4l-0.4,0.4c0.3-0.1,0.6-0.2,1-0.3c0.2,0.2,0.3,0.5,0.3,1.1
			c-0.8,0.9-0.4-0.4-1,0.1c0,0.4,0.4,0.5,0.7,0.9c0.3,0.3,0.4,0.8,0,1.4c-0.2-0.4-0.2-1-0.4-1.2c-0.5,0.7-0.6,0.9-0.7,1.1
			c-0.1,0.2-0.1,0.4-0.1,0.6l0-0.1c0,0,0,0.1-0.1,0.2c0,0.1-0.1,0.2-0.1,0.5c-0.1,0.5-0.2,1-0.2,1l0.3-0.5c2.1,1.4,0.4,2.9,1.8,4.8
			c-1.3-1.9-0.8-0.3-1.7-0.5c-0.3,0.5-0.5,1.2-0.8,1c0.7,0.9-0.6,1.5,0.5,2.8c-0.3,0.1,0,1-0.8,0.8c0.2,1.2,0.5-0.3,0.9-0.2
			c1,1.8-1.2,4.3,0.2,6.9c0.6,2.3,1.6,2.7,2,4.8c-0.5,0.7-1.1-0.6-1.1-0.6c-0.4,1.1-0.4,2,0,3.1c-0.3-0.2-0.5,0-0.8,0.3
			c0.1,0.9,1.1,0.6,0.6,1.7c-0.3-0.2-0.8-0.4-1.2-0.9c0.3,1,0.8,2,1.1,3.1c-0.5,0.3-0.8-0.6-1.1-1c0.2,1.2,0.5,3.1,1.3,3.4l0.3-0.8
			c0,0.4-0.7,0.2-0.8-0.1c-0.6-1,0.3-1.5,0.6-1.5l0.2,0.7c1.7-0.8-0.3-3-0.2-4.5l1.2,0.6l-1-1.5c0.3-0.3,1-0.6,1.2,0.2
			c0.6-1.1-0.4-1,0.2-1.9c0.1-0.1,0.2-0.1,0.2,0l-0.4-1.1c0.3,0.2,0.9-0.2,0.7,0.5c0.7-1.9-0.9-3,0-3.8l0.1,0.2
			c-0.4-2.6-0.9-0.3-2-2.2l2.3-1.3l-0.9-0.3c0-0.3,0.1-0.8,0.5-0.7c-0.6-1-0.4,0.2-1-0.4c0.8-1.3-0.4-3.6,1.1-3.9
			c-0.7-0.5-0.5,1.2-1-0.1c1.6-0.4-0.3-1.6,0.5-2.8c0.8,0.4,0.4,1.5,1.1,0.3c-1.4-0.7,0.3-2.3,0-3.3c-0.5,0-0.7-0.6-0.7-1.3
			c0-0.4,0-0.8,0-1.2c0-0.5,0-1.1-0.1-1.5c0.3,0.1,0.5-2.6,0.8-5.1c-0.5-0.1-0.9-0.1-1.3-0.2l0.2-0.2c-1.3,1.1-3.1,0.9-4.6,1.1
			c0.2-0.7,0.5-0.9,1.5-1.2l-1.6,0c-0.2,0.2-0.4,0.3-0.7,0.4c-0.2,0.1-0.5,0.2-0.8,0.2l0.3-0.8c-1.5,0-3,1-4.9,0.4
			c-0.1,0.8,1.5,2.1-0.5,2.7c-0.1-0.4-0.1-1.1,0.4-1.3c-0.2,0.1-0.6,0.3-1,0.2l0.8-0.7c-0.9-0.3-0.5,0.6-1.1,0.5
			c0-0.6-0.5-0.4-0.4-0.9c0.2-0.1,0.6,0.2,0.9,0c-0.8-0.1-1.7-0.5-2-0.9c0.1,0.3,0,0.8-0.6,0.9c-1.5,0-0.5-0.7-1.4-1
			c-0.4,0.4-1.3,0-1.3,0.9c-0.4,0-0.5-0.4-0.7-0.7c-0.8,0.4-3.6,0.1-2.7,1.1l0.2,0.1c0,0-0.1,0-0.1,0c0,0,0,0,0,0h0
			c-2.5,0.9-5.2-0.5-7.7-0.1l0-0.3c-1.5,0.3-3.3,0.2-4.3,0.8c-0.4,0-1-0.5-0.8-0.9c-1.1,0.2-1.3,0.6-2.9,0.1
			c1.1-0.5-0.4-0.5,1.2-0.4c-1.5-0.3-1.8-0.7-3.4,0.1c0.5-0.8-1.1-1-1.8-0.7l1,0.5c-0.8,0.1-1.5,0-2.2,0l0.4-1c-3-1.2-5.4,2.1-7.7,0
			c-0.8,0.7,1.6,0.5,0.9,1.3c-1.4-0.1-2.8-1.6-3.3-1.6c-1.9-0.6-1.8,1.5-3.8,1.1c0.3,0.4,0.5,1.3-1,1.6c-1.4-0.1-1.7-1.5-0.8-1.8
			c0.3,0,0.5,0.1,0.5,0.2c0.4-0.1,1-0.3,0.5-0.7l-0.2,0.4c-0.7-0.4-2.6-0.3-2.1-0.9c-1,0.3-0.4,0.6,0.3,0.8c-1.8-0.5-2.8,0-4.6-0.4
			c0.3,0.2,0.6,0.6,0.3,0.6c-2.7-0.4-1.2,0.7-3,0.8c-1-0.5,0.4-1.3-1.5-0.8c-1.1-0.4-0.2-0.9,0.2-1.2c-1.7,0.7-3.1-0.5-4.1-0.6
			l0.9-0.3c-0.5,0.2-1,0.2-1.4,0.2l0.5,0.7c-0.5-0.1-1-0.1-0.9-0.4c-0.5,0.5,0.4,1.2-0.6,1.8c-0.7-0.4-2.1,0.4-2.3-0.6
			c2.2,0.3-0.2-0.9,1.6-1.1c-0.4,0.1-0.8,0.1-1.3,0c-0.1-0.1,0.1-0.2,0.2-0.2c-2.1-0.8-0.9,1.1-3.1,1c0.3-0.5-0.5-1-0.8-0.9
			c0.9,0,0.4,0.9-0.4,1.3c-1.4-0.4-1.5,0.3-2.2,0.3l0.8,0.2c-0.3,0.5-1,0.5-1.9,0.6c-0.1-0.4,0.9-0.3,0.5-0.5
			c-1.1,0.9-2.4-1-3.9-0.3c-0.7-0.4-0.1-1-0.7-1.2c-1.7,0.7-1.8-0.7-3.5-0.2c0.5,0.7,0.6,0.5-0.6,1.2l2.9-0.5l-1.8,1
			c0.9,0,1.8-0.4,2.3-0.3c-0.9,0.6-0.8,0.4-0.4,1c-1.2-1.1-2.4,0.6-3.7-0.1l0-1.8c-2.1-0.8-3.7,0.9-6.3,0.5l0.9,0.3
			c-0.4,0.7-1.7,0.1-2.5,0.4c0.1-0.6-0.5-0.8-0.8-1.2c0,0.4-2,0-2.2,1.1l-1.2-0.8c-2.2-0.3-2.5,1.7-4.5,1.5c0.6-0.6-0.3-1.1,1.1-1.5
			c-0.7,0-1.3-0.1-1.3,0.3c-0.4-0.4-1.9,0.8-2.6,0.2c-0.3,0.3-0.4,0.9-1.2,0.8c-0.1-0.1,0-0.3,0-0.3c0,0.3-1.2,0.4-0.5,1.1
			c-2.1-1.8-6,0.1-7.8-1.5c-1.5,0.2-3.3,0.4-4.7,0.4c0.1-0.2,0-0.3,0.3-0.2c-1.9-0.6-1.2,1.7-3.3,1.1c-1.1-1,1.1-0.5,0.5-0.9
			c-0.3-1.9-2.6,0.3-4.1-0.9l0.4-0.1c-1.1-0.7-2.7,0.7-4.5,0.6c0,0,0.1-0.2,0-0.3c-1.2,1-3.6,1.3-5.3,1.6c0.5-0.8,0.8-0.4,0.5-1.2
			c-0.8,0.1,0.2,1.2-1.3,1.5c-0.5-0.4-1.6-0.8-1.8-1.6l1.5,0c-0.8-1.1-1.9,0-2.7-0.1l0.1-0.5c-2.3,0.2-2.3,1.3-4.7,1.2l0.3,0.4
			c-1.3,1.2-1.1-0.7-2.4,0.2l-0.4-1.2c-0.9,0.3-3.1,1.1-4.6,1.4c0.9-0.9,2.7-1.3,3.9-1.8c-0.9,0-2.9,0.1-3.4,0.7
			c0.3-0.1,0.8-0.4,1.1-0.2c-0.5,0.5-1.1,0.8-1.8,1c-0.4,0.1-0.7,0.2-1.1,0.3c-0.5,0.1-1,0.1-1.5,0.1c-0.1-1.5-2.9-1.3-5.7-1.5
			c-0.1,1.3-0.3,2.4-0.9,2.8c0.2,1.4,0.3,2.6,0.3,3.9l0,0.8l0,0.6c0,0.4-0.1,0.8-0.1,1.2c-0.2,1.6-0.4,3.2-0.4,5
			c1.8-1.3,0.1,1,1.9,0.8c0.1,0.8,0.1,1.1,0,1.2l-1.1,2.5c-0.5,0.6-0.4-0.8-0.8-0.7c-0.1,1.8-0.8,0.8-1.3,2c0.7-0.2,0.9,0.6,0.7,1.7
			l0.8-1.5c1,2.5-1.5,2.2-0.6,4.7l-0.6-0.8c0.3,1.3,0,4.8,1.5,6.1c-0.2,0.2-0.7,0.5-0.8,0c-0.1,1.6,0.3,3.3,0.6,5
			c0.2,0.8,0.3,1.6,0.3,2.4c0,0.2,0,0.4,0,0.6c0,0.2,0,0.4,0,0.6c0,0.6-0.1,1.1-0.2,1.6c0,0-0.1-0.1-0.2-0.2
			c-0.1-0.1-0.2-0.2-0.2-0.2c0.1,1,0.8,1.4,0.4,2.9c-0.2,0-0.4-0.2-0.5,0.3c0.1,0.2,0.3,0.7,0.4,1.3c0.1,0.6,0.2,1.3,0.2,2
			c0.1,0,0.1,0,0.2,0L14,60.8c-0.1-0.2-0.3-0.3-0.4-0.5c0,0.4-0.1,0.7-0.1,1c2.3,0.1,4.6-0.2,6.4-0.6c0.4-0.1,0.9-0.2,1.3-0.3
			l0.6-0.2l0.3-0.1l0.2-0.1c0.5-0.2,1.1-0.3,1.7-0.4c0,1.3,2.4,1.7,3.6,2l0,0.2c3.6,0.2,6-1.1,9.3-1.6c2,1.4,6.9,0.6,10.2,1.4
			c-0.5-0.2,0.1-1,0.7-1.2c0.8,0.3,2.1-0.9,2,0.3l-0.3,0c0.6,1.2,2.2,0.9,3.4,0.9l0.2-1.6c3.2,2.3,8.5-0.8,10.3,1.2
			c0.8-0.4,1.7-0.4,2.5-0.8l0,0.8c2.2,0.2,3.2,0.3,5.9,0.1l-0.5,0.6c1.5,0.1,1.9-2.4,3.3-2.5l0.4,1.3c2.6,0,5.3,1.1,7.9-0.1
			c0,0.2-0.1,0.6-0.5,0.6c1.2,0,4.8,0.9,4.3-0.9c0,1.1,2.7,0.1,4.1-0.4L90.7,61c1.2-1.1,1.2-1.4,2.9-1.7c0.4,0.1,0.3,0.7-0.2,0.5
			c1.3,0.4,1-0.8,2.6-0.3l-0.6,0.5c1.4,0.1,1.3-0.2,2-0.8c0.9-0.3,2.6,0.2,2.8,1c0.2-0.5,0.9-1.1,1.7-0.9c0.1,0.3-0.2,0.5-0.3,0.5
			c2.3,0.6,3.4-1,5-0.2c0,0.3,0.1,0.4,0.3,0.5c-1.8,0-3.3-0.1-3.1-0.1c0,0.8,1.5,0.9,0.3,2c1.2-0.6,3.2-1.8,4.6-1.5
			c0.1,0.1,0.1,0.1,0.2,0.3l-0.1,0.1c0.3,0.1,0.6,0,0.9-0.1c0.5,0.1,0.7,0.2,1.2,0.2c0.2,0.6,1.7,0.3,2.4,0.4
			c-0.1-0.8,0.9-0.7,0-1.4c0.1,0.1-0.1,0.1-0.6,0.1c-0.1,0-0.2,0-0.3,0.1c0,0,0,0,0-0.1c-0.5,0-1.1,0-1.8,0.1c0.6-0.4,1.2-0.8,2-0.3
			c0.4-0.5,0.8-1.1,1-1.4c1,1.2,2.9,1.8,3.2,2.5c2.2-0.5,5.2-0.3,6.6-1.9c0.6-0.2,0.7,0.5,1,0.7c-0.4,0.2-0.8,0.1-1,0.4
			c1.3-0.4,3.7-0.2,4.1-1.3c1.6,0.5-0.9,1,1.3,0.8l-0.3,0.3c4.3,1.8,7-2.8,11.8-0.6c-0.3-0.1-0.5-0.2-0.6-0.4
			c5.4,1,11.2-0.9,16.6,0.6c1.5,0.3,1.7-0.4,2.6-0.9l0.3,0.9l1.6-1c2.3-0.8,3.9,2.2,6.8,0.8l-0.4-0.6c1,0.1,3.3-0.4,3.1,0.3
			c0.1-0.1,0.3-0.6,0.7-0.3l0,0.5l2.5-0.8c2,0.3-0.3,1.9,2.6,2c1.1-0.2,3-1.4,2.6-1.7c-0.4,0-1.1-0.3-1.1-0.8l1-0.2
			c0.2-1.4,0.9-2.8-1.5-3.8l-1.7,0.9l-0.5-0.7l1.4,0c-0.8-0.6-1.3-0.1-1.9,0.3c-0.1-0.4-0.4-0.6-0.7-0.7L172,55
			c-0.2-0.5,0.7-1.1-0.4-1.4c-0.8,0.6,0.7,1.2-0.5,1.6c-0.8-0.6-0.6-1.2-1.5-0.6c-0.1-0.4,0.1-0.6,0.4-0.7c-0.8,0.4-2.2,0.2-2.6,0.9
			c-0.8-0.8-2.8,0.2-2.7-1.1c-0.3,0.3-1.5,1-2.2,1.1c1.4-1.6-2.9-0.1-2.5-1.8c-1,1.4-3.7,0.6-5.6,1.4c0.1-0.1,0.3-0.3,0.5-0.3
			c-1-0.1-1.3-0.5-2-0.8c-0.1,1.2-1.7,1.4-2.6,2.2c-1.3-1.1,0.8-1.4,0.4-2.5c0.1,1-2.2,1-1.8,1.7c-1-0.7-0.8-0.3-1.3-1.3
			c-0.2,1.5-0.9,0.2-1.7,1.2c-1.4-0.7-0.4-1.4-1.9-0.9C143.3,53.3,144.7,52.7,144.7,52.7z M108.2,55.3
			C108.2,55.3,108.2,55.3,108.2,55.3c0.3,0,0.6-0.1,0.8-0.1C108.8,55.2,108.6,55.2,108.2,55.3z M105.2,55.3c0.4,0,0.8,0,1.3,0
			c0.1,0.3,0,0.6-0.3,0.6C106.4,55.7,105.6,55.5,105.2,55.3z M111.7,61.1c-0.5,0.1-0.6,0-0.7-0.2c0.2,0,0.5,0,0.8-0.1
			c0,0,0-0.1,0.1-0.1C111.8,60.9,111.7,61,111.7,61.1z"/>
		<path fill="#20CABE" d="M112.5,60c0.1,0,0.1-0.1,0.2-0.1c-0.1-0.1-0.2-0.1-0.3-0.2c-0.1,0.1-0.1,0.2-0.2,0.3
			C112.4,60,112.4,60,112.5,60z"/>
		<path fill="#20CABE" d="M158.8,15.3L158.8,15.3c0,0,0,0,0.1,0.1C158.8,15.3,158.8,15.3,158.8,15.3z"/>
		<polygon fill="#20CABE" points="62.9,53.7 62.9,53.9 63.2,53.7 		"/>
		<path fill="#20CABE" d="M175,18.1c0,0.1,0,0.2,0.1,0.2C175.1,18.3,175.1,18.2,175,18.1z"/>
		<path fill="#20CABE" d="M176.9,21c0,0-0.1,0.2-0.2,0.3c-0.1,0.2-0.2,0.5-0.2,0.5C176.7,21.3,176.8,21.2,176.9,21z"/>
		<path fill="#20CABE" d="M176.4,26.4c0.1,0.1,0.3,0.1,0.4,0.1l0,0L176.4,26.4z"/>
		<path fill="#20CABE" d="M99.5,19.8c-0.1,0-0.1,0-0.2,0C98.7,20,99.1,19.9,99.5,19.8z"/>
		<path fill="#20CABE" d="M126,17.8c-0.3,0.2-0.6,0.3-0.9,0.4C125.6,18.2,126,18.3,126,17.8z"/>
		<path fill="#20CABE" d="M69.9,20.8C69.9,20.8,69.9,20.8,69.9,20.8c-0.1,0-0.1,0-0.2,0L69.9,20.8z"/>
		<path fill="#20CABE" d="M123.9,18.2c0.5,0.2,0.9,0.1,1.2,0C124.7,18.1,124.3,18,123.9,18.2z"/>
		<path fill="#20CABE" d="M176.1,50.6l0,0.3c0.1,0,0.1,0,0.1,0L176.1,50.6z"/>
		<path fill="#20CABE" d="M176.2,50.9l0.1,0.3C176.3,51.1,176.2,51,176.2,50.9z"/>
		<path fill="#20CABE" d="M176.5,51.9l-0.2-0.6C176.3,51.5,176.2,51.7,176.5,51.9z"/>
		<path fill="#20CABE" d="M176.4,43.2l-0.3-0.1C176.2,43.2,176.3,43.2,176.4,43.2z"/>
		<path fill="#20CABE" d="M176.4,41c-0.1,0.5-0.7,1.3-0.5,2.1l0.2,0.1C175.7,42.8,176.9,41.5,176.4,41z"/>
		<path fill="#20CABE" d="M180.1,31.6l-0.2,1.9c0.3-0.3,0.8-0.8,0.8,0.1C181.7,31.2,180,34,180.1,31.6z"/>
		<path fill="#20CABE" d="M180.6,25.7c0.2,1,0.5,0,0.7,0C181,25.1,180.9,25,180.6,25.7z"/>
		<path fill="#20CABE" d="M145.6,14.6l0.1-0.8C144.9,13.9,145.7,14.1,145.6,14.6z"/>
		<polygon fill="#20CABE" points="137.5,18.5 138.2,19 138.6,18.3 		"/>
		<polygon fill="#20CABE" points="132.7,13.1 133,13 131.7,13.3 		"/>
		<path fill="#20CABE" d="M61.6,13.4l0.2,0.9C62.4,14.1,62.5,13.1,61.6,13.4z"/>
		<path fill="#20CABE" d="M31,14.3c-0.3-0.5-1.2-0.8-1.7-0.3C29.9,14.1,30.6,14.4,31,14.3z"/>
		<polygon fill="#20CABE" points="54.7,61.3 54.1,61.6 55.3,61.3 		"/>
	</g>
</g>
<g>
	<path fill="#00C2B4" d="M47.3,36.8c0,1.4-0.4,2.5-1.3,3.3c-0.9,0.8-2.2,1.1-3.9,1.1s-3-0.4-3.9-1.1S37,38.2,37,36.8v-7.4h3v7.3
		c0,0.8,0.2,1.4,0.5,1.8s0.9,0.6,1.6,0.6c0.8,0,1.3-0.2,1.6-0.6s0.5-1,0.5-1.8v-7.3l3,0V36.8z"/>
	<path fill="#00C2B4" d="M59.1,36.5c0,1.4-0.4,2.5-1.1,3.4c-0.8,0.9-1.7,1.3-2.9,1.3c-0.5,0-0.9-0.1-1.3-0.2
		c-0.4-0.1-0.7-0.3-1.1-0.5L52.7,41H50l0-12.2h2.8v4.3c0.4-0.3,0.9-0.6,1.3-0.8c0.5-0.2,1-0.3,1.6-0.3c1.1,0,2,0.4,2.6,1.2
		S59.1,35.1,59.1,36.5z M56.2,36.6c0-0.8-0.1-1.4-0.4-1.8s-0.7-0.6-1.4-0.6c-0.3,0-0.5,0-0.8,0.1c-0.3,0.1-0.5,0.2-0.8,0.3l0,4.4
		c0.2,0.1,0.4,0.1,0.6,0.1c0.2,0,0.4,0,0.7,0c0.7,0,1.3-0.2,1.7-0.7C56.1,38.1,56.2,37.4,56.2,36.6z"/>
	<path fill="#00C2B4" d="M64.1,31l-3,0v-2.1l3,0V31z M64,41l-2.8,0l0-8.8l2.8,0L64,41z"/>
	<path fill="#00C2B4" d="M71.2,41.2c-0.8,0-1.5-0.1-2.1-0.3s-1.2-0.5-1.7-0.8c-0.5-0.4-0.8-0.9-1.1-1.4s-0.4-1.3-0.4-2
		c0-0.8,0.1-1.5,0.4-2.1s0.7-1.1,1.1-1.5c0.5-0.4,1-0.6,1.6-0.8s1.3-0.3,1.9-0.3c0.6,0,1.2,0.1,1.7,0.2s1,0.3,1.4,0.5v2.4h-0.4
		c-0.1-0.1-0.2-0.2-0.4-0.3s-0.3-0.2-0.6-0.4c-0.2-0.1-0.4-0.2-0.7-0.3C71.9,34,71.6,34,71.2,34c-0.7,0-1.3,0.2-1.7,0.7
		s-0.6,1.1-0.6,1.9c0,0.8,0.2,1.5,0.6,1.9s1,0.7,1.8,0.7c0.4,0,0.7,0,1-0.1c0.3-0.1,0.5-0.2,0.7-0.3c0.2-0.1,0.3-0.2,0.5-0.3
		c0.1-0.1,0.3-0.2,0.4-0.3h0.4v2.4c-0.4,0.2-0.9,0.4-1.4,0.5S71.8,41.2,71.2,41.2z"/>
	<path fill="#00C2B4" d="M81.4,40.1c-0.2,0.1-0.3,0.3-0.6,0.4c-0.2,0.2-0.4,0.3-0.6,0.4c-0.3,0.1-0.6,0.2-0.9,0.3s-0.6,0.1-1,0.1
		c-0.8,0-1.5-0.3-2.1-0.8s-0.8-1.2-0.8-2c0-0.6,0.1-1.2,0.4-1.6c0.3-0.4,0.7-0.7,1.2-1c0.5-0.2,1.2-0.4,1.9-0.5s1.6-0.2,2.4-0.2v0
		c0-0.5-0.2-0.8-0.6-1c-0.4-0.2-1-0.3-1.8-0.3c-0.5,0-1,0.1-1.5,0.2s-0.9,0.3-1.1,0.4h-0.3v-2.1c0.3-0.1,0.8-0.2,1.4-0.3
		s1.3-0.2,2-0.2c1.6,0,2.8,0.2,3.5,0.7s1.1,1.3,1.1,2.3l0,6h-2.8V40.1z M81.4,38.7v-1.8c-0.4,0-0.8,0.1-1.2,0.1
		c-0.4,0.1-0.8,0.1-1,0.2c-0.3,0.1-0.5,0.2-0.6,0.4c-0.1,0.2-0.2,0.4-0.2,0.7c0,0.2,0,0.3,0,0.4s0.1,0.2,0.2,0.3
		c0.1,0.1,0.3,0.2,0.4,0.2c0.2,0,0.4,0.1,0.8,0.1c0.3,0,0.6-0.1,0.9-0.2S81.1,38.9,81.4,38.7z"/>
	<path fill="#00C2B4" d="M97.8,40.9c-0.3,0.1-0.6,0.1-1,0.2s-0.8,0.1-1.2,0.1c-1.1,0-1.9-0.2-2.4-0.7s-0.8-1.2-0.8-2.3l0-4.1h-1.2
		v-1.9h1.2v-2.5h2.8v2.5h2.6v1.9h-2.6l0,3.1c0,0.3,0,0.6,0,0.8s0,0.4,0.1,0.6c0.1,0.2,0.2,0.3,0.4,0.4c0.2,0.1,0.5,0.2,0.8,0.2
		c0.1,0,0.3,0,0.6-0.1s0.4-0.1,0.5-0.2h0.2V40.9z"/>
	<path fill="#00C2B4" d="M108.2,41l-2.8,0v-1c-0.5,0.4-1,0.7-1.4,0.9s-0.9,0.3-1.5,0.3c-1,0-1.7-0.3-2.2-0.8s-0.8-1.4-0.8-2.5l0-5.7
		h2.8v4.4c0,0.4,0,0.8,0,1.1s0.1,0.5,0.2,0.7c0.1,0.2,0.2,0.3,0.4,0.4s0.5,0.1,0.8,0.1c0.2,0,0.5,0,0.8-0.1s0.6-0.2,0.8-0.4l0-6.2
		l2.8,0L108.2,41z"/>
	<path fill="#00C2B4" d="M124,38.2c0,0.9-0.4,1.6-1.2,2.2s-1.9,0.8-3.3,0.8c-0.8,0-1.5-0.1-2.1-0.2s-1.1-0.3-1.5-0.5v-2.3h0.3
		c0.1,0.1,0.3,0.2,0.5,0.3c0.2,0.1,0.4,0.2,0.8,0.4c0.3,0.1,0.6,0.2,1,0.3s0.8,0.1,1.2,0.1c0.6,0,1-0.1,1.2-0.2s0.4-0.3,0.4-0.5
		c0-0.2-0.1-0.4-0.2-0.5s-0.5-0.2-0.9-0.3c-0.2,0-0.5-0.1-0.8-0.2s-0.7-0.1-1-0.2c-0.8-0.2-1.4-0.5-1.8-1c-0.4-0.4-0.6-1-0.6-1.6
		c0-0.8,0.4-1.5,1.2-2.1c0.8-0.6,1.9-0.8,3.3-0.8c0.7,0,1.3,0.1,1.9,0.2s1.1,0.3,1.4,0.4v2.2h-0.2c-0.4-0.3-0.9-0.5-1.4-0.7
		s-1.1-0.3-1.6-0.3c-0.5,0-0.8,0.1-1.1,0.2s-0.5,0.3-0.5,0.5c0,0.2,0.1,0.4,0.2,0.5s0.5,0.2,1,0.3c0.3,0.1,0.6,0.1,0.9,0.2
		s0.7,0.1,1,0.2c0.7,0.2,1.3,0.5,1.6,0.9C123.8,37.1,124,37.6,124,38.2z"/>
	<path fill="#00C2B4" d="M134.5,37.1l-6.4,0c0,0.7,0.3,1.2,0.8,1.6s1.2,0.5,2.1,0.5c0.6,0,1.2-0.1,1.7-0.3s1-0.4,1.3-0.7l0.3,0v2.3
		c-0.6,0.3-1.2,0.4-1.8,0.6s-1.2,0.2-1.9,0.2c-1.8,0-3.1-0.4-4-1.2s-1.4-1.9-1.4-3.4c0-1.4,0.4-2.6,1.3-3.4s2.1-1.3,3.7-1.3
		c1.4,0,2.5,0.4,3.2,1.1s1.1,1.8,1.1,3.1L134.5,37.1z M131.7,35.5c0-0.6-0.2-1-0.4-1.3s-0.7-0.4-1.3-0.4c-0.5,0-1,0.1-1.3,0.4
		s-0.5,0.7-0.6,1.4H131.7z"/>
	<path fill="#00C2B4" d="M145,41l-2.8,0v-0.9c-0.5,0.4-0.9,0.7-1.4,0.9c-0.4,0.2-0.9,0.3-1.5,0.3c-1.1,0-1.9-0.4-2.6-1.2
		s-1-1.9-1-3.3c0-0.7,0.1-1.4,0.3-2c0.2-0.6,0.5-1.1,0.9-1.5c0.4-0.4,0.8-0.7,1.3-0.9s1-0.3,1.5-0.3c0.5,0,1,0.1,1.3,0.2
		c0.3,0.1,0.7,0.3,1,0.4v-3.7l2.8,0L145,41z M142.2,38.6l0-4.3c-0.2-0.1-0.4-0.1-0.6-0.2c-0.2,0-0.4-0.1-0.6-0.1
		c-0.7,0-1.3,0.2-1.7,0.7c-0.4,0.5-0.6,1.1-0.6,1.9c0,0.9,0.1,1.5,0.4,1.9s0.8,0.6,1.4,0.6c0.3,0,0.5,0,0.8-0.1
		C141.7,38.9,142,38.7,142.2,38.6z"/>
	<path fill="#00C2B4" d="M156.3,37.1l-6.4,0c0,0.7,0.3,1.2,0.8,1.6s1.2,0.5,2.1,0.5c0.6,0,1.2-0.1,1.7-0.3s1-0.4,1.3-0.7h0.3v2.3
		c-0.6,0.3-1.2,0.4-1.8,0.6s-1.2,0.2-1.9,0.2c-1.8,0-3.1-0.4-4-1.2s-1.4-1.9-1.4-3.4c0-1.4,0.4-2.6,1.3-3.4s2.1-1.3,3.7-1.3
		c1.4,0,2.5,0.4,3.2,1.1s1.1,1.8,1.1,3.1L156.3,37.1z M153.5,35.5c0-0.6-0.2-1-0.4-1.3s-0.7-0.4-1.3-0.4c-0.5,0-1,0.1-1.3,0.4
		s-0.5,0.7-0.6,1.4L153.5,35.5z"/>
</g>
</svg>
